<?xml version="1.0" encoding="UTF-8" standalone="no"?><svg xmlns="http://www.w3.org/2000/svg" xmlns:xlink="http://www.w3.org/1999/xlink" contentStyleType="text/css" height="976px" preserveAspectRatio="none" style="width:1547px;height:976px;background:#FFFFFF;" version="1.1" viewBox="0 0 1547 976" width="1547px" zoomAndPan="magnify"><defs/><g><rect fill="#FFFFE0" height="964.3906" style="stroke:#181818;stroke-width:0.5;" width="128" x="292.5" y="6"/><text fill="#000000" font-family="sans-serif" font-size="13" font-weight="bold" lengthAdjust="spacing" textLength="102" x="305.5" y="17.7686">&lt;&lt;System(C4)&gt;&gt;</text><text fill="#000000" font-family="sans-serif" font-size="13" font-weight="bold" lengthAdjust="spacing" textLength="58" x="333.5" y="32.292">EletricGo</text><rect fill="#90EE90" height="964.3906" style="stroke:#181818;stroke-width:0.5;" width="1032.5" x="502" y="6"/><text fill="#000000" font-family="sans-serif" font-size="13" font-weight="bold" lengthAdjust="spacing" textLength="118" x="930.75" y="17.7686">&lt;&lt;Container(C4)&gt;&gt;</text><text fill="#000000" font-family="sans-serif" font-size="13" font-weight="bold" lengthAdjust="spacing" textLength="159" x="946.75" y="32.292">Warehouse Management</text><rect fill="#FFFFFF" height="28.5234" style="stroke:#181818;stroke-width:1.0;" width="10" x="351.5" y="115.8516"/><rect fill="#FFFFFF" height="28.5234" style="stroke:#181818;stroke-width:1.0;" width="10" x="351.5" y="172.8984"/><rect fill="#FFFFFF" height="394.3281" style="stroke:#181818;stroke-width:1.0;" width="10" x="351.5" y="229.9453"/><rect fill="#FFFFFF" height="28.5234" style="stroke:#181818;stroke-width:1.0;" width="10" x="351.5" y="838.2266"/><rect fill="#FFFFFF" height="337.2813" style="stroke:#181818;stroke-width:1.0;" width="10" x="566.5" y="258.4688"/><rect fill="#FFFFFF" height="171.1406" style="stroke:#181818;stroke-width:1.0;" width="10" x="566.5" y="667.0859"/><rect fill="#FFFFFF" height="256.7109" style="stroke:#181818;stroke-width:1.0;" width="10" x="717.5" y="310.5156"/><rect fill="#FFFFFF" height="142.6172" style="stroke:#181818;stroke-width:1.0;" width="10" x="717.5" y="667.0859"/><rect fill="#FFFFFF" height="199.6641" style="stroke:#181818;stroke-width:1.0;" width="10" x="885.5" y="339.0391"/><rect fill="#FFFFFF" height="85.5703" style="stroke:#181818;stroke-width:1.0;" width="10" x="885.5" y="695.6094"/><rect fill="#FFFFFF" height="28.5234" style="stroke:#181818;stroke-width:1.0;" width="10" x="1046.5" y="481.6563"/><rect fill="#FFFFFF" height="28.5234" style="stroke:#181818;stroke-width:1.0;" width="10" x="1448" y="367.5625"/><rect fill="#FFFFFF" height="28.5234" style="stroke:#181818;stroke-width:1.0;" width="10" x="1448" y="424.6094"/><rect fill="#FFFFFF" height="28.5234" style="stroke:#181818;stroke-width:1.0;" width="10" x="1448" y="724.1328"/><rect fill="none" height="601.2813" style="stroke:#000000;stroke-width:1.5;" width="1530.5" x="10" y="273.4688"/><line style="stroke:#181818;stroke-width:0.5;stroke-dasharray:5.0,5.0;" x1="89" x2="89" y1="85.3281" y2="891.75"/><line style="stroke:#181818;stroke-width:0.5;stroke-dasharray:5.0,5.0;" x1="356.5" x2="356.5" y1="85.3281" y2="891.75"/><line style="stroke:#181818;stroke-width:0.5;stroke-dasharray:5.0,5.0;" x1="571" x2="571" y1="85.3281" y2="891.75"/><line style="stroke:#181818;stroke-width:0.5;stroke-dasharray:5.0,5.0;" x1="722" x2="722" y1="85.3281" y2="891.75"/><line style="stroke:#181818;stroke-width:0.5;stroke-dasharray:5.0,5.0;" x1="890.5" x2="890.5" y1="85.3281" y2="891.75"/><line style="stroke:#181818;stroke-width:0.5;stroke-dasharray:5.0,5.0;" x1="1051.5" x2="1051.5" y1="85.3281" y2="891.75"/><line style="stroke:#181818;stroke-width:0.5;stroke-dasharray:5.0,5.0;" x1="1255.5" x2="1255.5" y1="85.3281" y2="891.75"/><line style="stroke:#181818;stroke-width:0.5;stroke-dasharray:5.0,5.0;" x1="1452.5" x2="1452.5" y1="85.3281" y2="891.75"/><text fill="#000000" font-family="sans-serif" font-size="14" lengthAdjust="spacing" textLength="133" x="20" y="82.3613">Warehouse Manager</text><ellipse cx="89.5" cy="18.1875" fill="#E2E2F0" rx="8" ry="8" style="stroke:#181818;stroke-width:0.5;"/><path d="M89.5,26.1875 L89.5,53.1875 M76.5,34.1875 L102.5,34.1875 M89.5,53.1875 L76.5,68.1875 M89.5,53.1875 L102.5,68.1875 " fill="none" style="stroke:#181818;stroke-width:0.5;"/><text fill="#000000" font-family="sans-serif" font-size="14" lengthAdjust="spacing" textLength="133" x="20" y="903.4238">Warehouse Manager</text><ellipse cx="89.5" cy="914.8906" fill="#E2E2F0" rx="8" ry="8" style="stroke:#181818;stroke-width:0.5;"/><path d="M89.5,922.8906 L89.5,949.8906 M76.5,930.8906 L102.5,930.8906 M89.5,949.8906 L76.5,964.8906 M89.5,949.8906 L102.5,964.8906 " fill="none" style="stroke:#181818;stroke-width:0.5;"/><rect fill="#FFFFFF" height="45.2813" rx="2.5" ry="2.5" style="stroke:#000000;stroke-width:0.5;" width="120" x="296.5" y="39.0469"/><text fill="#000000" font-family="sans-serif" font-size="14" font-style="italic" lengthAdjust="spacing" textLength="106" x="303.5" y="58.7207">«Container(C4)»</text><text fill="#000000" font-family="sans-serif" font-size="14" lengthAdjust="spacing" textLength="27" x="343" y="74.3613">SPA</text><rect fill="#FFFFFF" height="45.2813" rx="2.5" ry="2.5" style="stroke:#000000;stroke-width:0.5;" width="120" x="296.5" y="890.75"/><text fill="#000000" font-family="sans-serif" font-size="14" font-style="italic" lengthAdjust="spacing" textLength="106" x="303.5" y="910.4238">«Container(C4)»</text><text fill="#000000" font-family="sans-serif" font-size="14" lengthAdjust="spacing" textLength="27" x="343" y="926.0645">SPA</text><rect fill="#FFFFFF" height="45.2813" rx="2.5" ry="2.5" style="stroke:#000000;stroke-width:0.5;" width="131" x="506" y="39.0469"/><text fill="#000000" font-family="sans-serif" font-size="14" font-style="italic" lengthAdjust="spacing" textLength="117" x="513" y="58.7207">«Component(C4)»</text><text fill="#000000" font-family="sans-serif" font-size="14" lengthAdjust="spacing" textLength="111" x="516" y="74.3613">WarehouseRoute</text><rect fill="#FFFFFF" height="45.2813" rx="2.5" ry="2.5" style="stroke:#000000;stroke-width:0.5;" width="131" x="506" y="890.75"/><text fill="#000000" font-family="sans-serif" font-size="14" font-style="italic" lengthAdjust="spacing" textLength="117" x="513" y="910.4238">«Component(C4)»</text><text fill="#000000" font-family="sans-serif" font-size="14" lengthAdjust="spacing" textLength="111" x="516" y="926.0645">WarehouseRoute</text><rect fill="#FFFFFF" height="45.2813" rx="2.5" ry="2.5" style="stroke:#000000;stroke-width:0.5;" width="149" x="648" y="39.0469"/><text fill="#000000" font-family="sans-serif" font-size="14" font-style="italic" lengthAdjust="spacing" textLength="117" x="664" y="58.7207">«Component(C4)»</text><text fill="#000000" font-family="sans-serif" font-size="14" lengthAdjust="spacing" textLength="135" x="655" y="74.3613">WarehouseController</text><rect fill="#FFFFFF" height="45.2813" rx="2.5" ry="2.5" style="stroke:#000000;stroke-width:0.5;" width="149" x="648" y="890.75"/><text fill="#000000" font-family="sans-serif" font-size="14" font-style="italic" lengthAdjust="spacing" textLength="117" x="664" y="910.4238">«Component(C4)»</text><text fill="#000000" font-family="sans-serif" font-size="14" lengthAdjust="spacing" textLength="135" x="655" y="926.0645">WarehouseController</text><rect fill="#FFFFFF" height="45.2813" rx="2.5" ry="2.5" style="stroke:#000000;stroke-width:0.5;" width="134" x="823.5" y="39.0469"/><text fill="#000000" font-family="sans-serif" font-size="14" font-style="italic" lengthAdjust="spacing" textLength="117" x="832" y="58.7207">«Component(C4)»</text><text fill="#000000" font-family="sans-serif" font-size="14" lengthAdjust="spacing" textLength="120" x="830.5" y="74.3613">WarehouseService</text><rect fill="#FFFFFF" height="45.2813" rx="2.5" ry="2.5" style="stroke:#000000;stroke-width:0.5;" width="134" x="823.5" y="890.75"/><text fill="#000000" font-family="sans-serif" font-size="14" font-style="italic" lengthAdjust="spacing" textLength="117" x="832" y="910.4238">«Component(C4)»</text><text fill="#000000" font-family="sans-serif" font-size="14" lengthAdjust="spacing" textLength="120" x="830.5" y="926.0645">WarehouseService</text><rect fill="#FFFFFF" height="45.2813" rx="2.5" ry="2.5" style="stroke:#000000;stroke-width:0.5;" width="168" x="967.5" y="39.0469"/><text fill="#000000" font-family="sans-serif" font-size="14" font-style="italic" lengthAdjust="spacing" textLength="117" x="993" y="58.7207">«Component(C4)»</text><text fill="#000000" font-family="sans-serif" font-size="14" lengthAdjust="spacing" textLength="154" x="974.5" y="74.3613">warehouse : Warehouse</text><rect fill="#FFFFFF" height="45.2813" rx="2.5" ry="2.5" style="stroke:#000000;stroke-width:0.5;" width="168" x="967.5" y="890.75"/><text fill="#000000" font-family="sans-serif" font-size="14" font-style="italic" lengthAdjust="spacing" textLength="117" x="993" y="910.4238">«Component(C4)»</text><text fill="#000000" font-family="sans-serif" font-size="14" lengthAdjust="spacing" textLength="154" x="974.5" y="926.0645">warehouse : Warehouse</text><rect fill="#FFFFFF" height="45.2813" rx="2.5" ry="2.5" style="stroke:#000000;stroke-width:0.5;" width="220" x="1145.5" y="39.0469"/><text fill="#000000" font-family="sans-serif" font-size="14" font-style="italic" lengthAdjust="spacing" textLength="117" x="1197" y="58.7207">«Component(C4)»</text><text fill="#000000" font-family="sans-serif" font-size="14" lengthAdjust="spacing" textLength="206" x="1152.5" y="74.3613">warehouseDto : WarehouseDTO</text><rect fill="#FFFFFF" height="45.2813" rx="2.5" ry="2.5" style="stroke:#000000;stroke-width:0.5;" width="220" x="1145.5" y="890.75"/><text fill="#000000" font-family="sans-serif" font-size="14" font-style="italic" lengthAdjust="spacing" textLength="117" x="1197" y="910.4238">«Component(C4)»</text><text fill="#000000" font-family="sans-serif" font-size="14" lengthAdjust="spacing" textLength="206" x="1152.5" y="926.0645">warehouseDto : WarehouseDTO</text><rect fill="#FFFFFF" height="45.2813" rx="2.5" ry="2.5" style="stroke:#000000;stroke-width:0.5;" width="155" x="1375.5" y="39.0469"/><text fill="#000000" font-family="sans-serif" font-size="14" font-style="italic" lengthAdjust="spacing" textLength="117" x="1394.5" y="58.7207">«Component(C4)»</text><text fill="#000000" font-family="sans-serif" font-size="14" lengthAdjust="spacing" textLength="141" x="1382.5" y="74.3613">WarehouseRepository</text><rect fill="#FFFFFF" height="45.2813" rx="2.5" ry="2.5" style="stroke:#000000;stroke-width:0.5;" width="155" x="1375.5" y="890.75"/><text fill="#000000" font-family="sans-serif" font-size="14" font-style="italic" lengthAdjust="spacing" textLength="117" x="1394.5" y="910.4238">«Component(C4)»</text><text fill="#000000" font-family="sans-serif" font-size="14" lengthAdjust="spacing" textLength="141" x="1382.5" y="926.0645">WarehouseRepository</text><rect fill="#FFFFFF" height="28.5234" style="stroke:#181818;stroke-width:1.0;" width="10" x="351.5" y="115.8516"/><rect fill="#FFFFFF" height="28.5234" style="stroke:#181818;stroke-width:1.0;" width="10" x="351.5" y="172.8984"/><rect fill="#FFFFFF" height="394.3281" style="stroke:#181818;stroke-width:1.0;" width="10" x="351.5" y="229.9453"/><rect fill="#FFFFFF" height="28.5234" style="stroke:#181818;stroke-width:1.0;" width="10" x="351.5" y="838.2266"/><rect fill="#FFFFFF" height="337.2813" style="stroke:#181818;stroke-width:1.0;" width="10" x="566.5" y="258.4688"/><rect fill="#FFFFFF" height="171.1406" style="stroke:#181818;stroke-width:1.0;" width="10" x="566.5" y="667.0859"/><rect fill="#FFFFFF" height="256.7109" style="stroke:#181818;stroke-width:1.0;" width="10" x="717.5" y="310.5156"/><rect fill="#FFFFFF" height="142.6172" style="stroke:#181818;stroke-width:1.0;" width="10" x="717.5" y="667.0859"/><rect fill="#FFFFFF" height="199.6641" style="stroke:#181818;stroke-width:1.0;" width="10" x="885.5" y="339.0391"/><rect fill="#FFFFFF" height="85.5703" style="stroke:#181818;stroke-width:1.0;" width="10" x="885.5" y="695.6094"/><rect fill="#FFFFFF" height="28.5234" style="stroke:#181818;stroke-width:1.0;" width="10" x="1046.5" y="481.6563"/><rect fill="#FFFFFF" height="28.5234" style="stroke:#181818;stroke-width:1.0;" width="10" x="1448" y="367.5625"/><rect fill="#FFFFFF" height="28.5234" style="stroke:#181818;stroke-width:1.0;" width="10" x="1448" y="424.6094"/><rect fill="#FFFFFF" height="28.5234" style="stroke:#181818;stroke-width:1.0;" width="10" x="1448" y="724.1328"/><polygon fill="#181818" points="339.5,111.8516,349.5,115.8516,339.5,119.8516,343.5,115.8516" style="stroke:#181818;stroke-width:1.0;"/><line style="stroke:#181818;stroke-width:1.0;" x1="89.5" x2="345.5" y1="115.8516" y2="115.8516"/><text fill="#000000" font-family="sans-serif" font-size="13" font-weight="bold" lengthAdjust="spacing" textLength="7" x="96.5" y="111.0967">1</text><text fill="#000000" font-family="sans-serif" font-size="13" lengthAdjust="spacing" textLength="165" x="107.5" y="111.0967">I want to delete a warehouse</text><polygon fill="#181818" points="100.5,140.375,90.5,144.375,100.5,148.375,96.5,144.375" style="stroke:#181818;stroke-width:1.0;"/><line style="stroke:#181818;stroke-width:1.0;stroke-dasharray:2.0,2.0;" x1="94.5" x2="355.5" y1="144.375" y2="144.375"/><text fill="#000000" font-family="sans-serif" font-size="13" font-weight="bold" lengthAdjust="spacing" textLength="7" x="106.5" y="139.6201">2</text><text fill="#000000" font-family="sans-serif" font-size="13" lengthAdjust="spacing" textLength="186" x="117.5" y="139.6201">asks for the ID of the warehouse</text><polygon fill="#181818" points="339.5,168.8984,349.5,172.8984,339.5,176.8984,343.5,172.8984" style="stroke:#181818;stroke-width:1.0;"/><line style="stroke:#181818;stroke-width:1.0;" x1="89.5" x2="345.5" y1="172.8984" y2="172.8984"/><text fill="#000000" font-family="sans-serif" font-size="13" font-weight="bold" lengthAdjust="spacing" textLength="7" x="96.5" y="168.1436">3</text><text fill="#000000" font-family="sans-serif" font-size="13" lengthAdjust="spacing" textLength="179" x="107.5" y="168.1436">inserts the ID of the warehouse</text><polygon fill="#181818" points="100.5,197.4219,90.5,201.4219,100.5,205.4219,96.5,201.4219" style="stroke:#181818;stroke-width:1.0;"/><line style="stroke:#181818;stroke-width:1.0;stroke-dasharray:2.0,2.0;" x1="94.5" x2="355.5" y1="201.4219" y2="201.4219"/><text fill="#000000" font-family="sans-serif" font-size="13" font-weight="bold" lengthAdjust="spacing" textLength="7" x="106.5" y="196.667">4</text><text fill="#000000" font-family="sans-serif" font-size="13" lengthAdjust="spacing" textLength="227" x="117.5" y="196.667">asks for the confirmation of the deletion</text><polygon fill="#181818" points="339.5,225.9453,349.5,229.9453,339.5,233.9453,343.5,229.9453" style="stroke:#181818;stroke-width:1.0;"/><line style="stroke:#181818;stroke-width:1.0;" x1="89.5" x2="345.5" y1="229.9453" y2="229.9453"/><text fill="#000000" font-family="sans-serif" font-size="13" font-weight="bold" lengthAdjust="spacing" textLength="7" x="96.5" y="225.1904">5</text><text fill="#000000" font-family="sans-serif" font-size="13" lengthAdjust="spacing" textLength="120" x="107.5" y="225.1904">confirms the deletion</text><polygon fill="#181818" points="554.5,254.4688,564.5,258.4688,554.5,262.4688,558.5,258.4688" style="stroke:#181818;stroke-width:1.0;"/><line style="stroke:#181818;stroke-width:1.0;" x1="361.5" x2="560.5" y1="258.4688" y2="258.4688"/><text fill="#000000" font-family="sans-serif" font-size="13" font-weight="bold" lengthAdjust="spacing" textLength="7" x="368.5" y="253.7139">6</text><text fill="#000000" font-family="sans-serif" font-size="13" lengthAdjust="spacing" textLength="175" x="379.5" y="253.7139">DELETE DeleteWarehouse(id)</text><path d="M10,273.4688 L71,273.4688 L71,279.9922 L61,289.9922 L10,289.9922 L10,273.4688 " fill="#EEEEEE" style="stroke:#000000;stroke-width:1.5;"/><rect fill="none" height="601.2813" style="stroke:#000000;stroke-width:1.5;" width="1530.5" x="10" y="273.4688"/><text fill="#000000" font-family="sans-serif" font-size="13" font-weight="bold" lengthAdjust="spacing" textLength="16" x="25" y="286.2373">alt</text><text fill="#000000" font-family="sans-serif" font-size="11" font-weight="bold" lengthAdjust="spacing" textLength="323" x="86" y="285.4268">[If there is a warehouse in the system with the id entered]</text><polygon fill="#181818" points="705.5,306.5156,715.5,310.5156,705.5,314.5156,709.5,310.5156" style="stroke:#181818;stroke-width:1.0;"/><line style="stroke:#181818;stroke-width:1.0;" x1="576.5" x2="711.5" y1="310.5156" y2="310.5156"/><text fill="#000000" font-family="sans-serif" font-size="13" font-weight="bold" lengthAdjust="spacing" textLength="7" x="583.5" y="305.7607">7</text><text fill="#000000" font-family="sans-serif" font-size="13" lengthAdjust="spacing" textLength="109" x="594.5" y="305.7607">DELETE Delete(id)</text><polygon fill="#181818" points="873.5,335.0391,883.5,339.0391,873.5,343.0391,877.5,339.0391" style="stroke:#181818;stroke-width:1.0;"/><line style="stroke:#181818;stroke-width:1.0;" x1="727.5" x2="879.5" y1="339.0391" y2="339.0391"/><text fill="#000000" font-family="sans-serif" font-size="13" font-weight="bold" lengthAdjust="spacing" textLength="7" x="734.5" y="334.2842">8</text><text fill="#000000" font-family="sans-serif" font-size="13" lengthAdjust="spacing" textLength="121" x="745.5" y="334.2842">DeleteWarehouse(id)</text><polygon fill="#181818" points="1436,363.5625,1446,367.5625,1436,371.5625,1440,367.5625" style="stroke:#181818;stroke-width:1.0;"/><line style="stroke:#181818;stroke-width:1.0;" x1="895.5" x2="1442" y1="367.5625" y2="367.5625"/><text fill="#000000" font-family="sans-serif" font-size="13" font-weight="bold" lengthAdjust="spacing" textLength="7" x="902.5" y="362.8076">9</text><text fill="#000000" font-family="sans-serif" font-size="13" lengthAdjust="spacing" textLength="65" x="913.5" y="362.8076">GetById(id)</text><polygon fill="#181818" points="906.5,392.0859,896.5,396.0859,906.5,400.0859,902.5,396.0859" style="stroke:#181818;stroke-width:1.0;"/><line style="stroke:#181818;stroke-width:1.0;stroke-dasharray:2.0,2.0;" x1="900.5" x2="1452" y1="396.0859" y2="396.0859"/><text fill="#000000" font-family="sans-serif" font-size="13" font-weight="bold" lengthAdjust="spacing" textLength="14" x="912.5" y="391.3311">10</text><text fill="#000000" font-family="sans-serif" font-size="13" lengthAdjust="spacing" textLength="62" x="930.5" y="391.3311">warehouse</text><polygon fill="#181818" points="1436,420.6094,1446,424.6094,1436,428.6094,1440,424.6094" style="stroke:#181818;stroke-width:1.0;"/><line style="stroke:#181818;stroke-width:1.0;" x1="895.5" x2="1442" y1="424.6094" y2="424.6094"/><text fill="#000000" font-family="sans-serif" font-size="13" font-weight="bold" lengthAdjust="spacing" textLength="14" x="902.5" y="419.8545">11</text><text fill="#000000" font-family="sans-serif" font-size="13" lengthAdjust="spacing" textLength="107" x="920.5" y="419.8545">Delete(warehouse)</text><polygon fill="#181818" points="906.5,449.1328,896.5,453.1328,906.5,457.1328,902.5,453.1328" style="stroke:#181818;stroke-width:1.0;"/><line style="stroke:#181818;stroke-width:1.0;stroke-dasharray:2.0,2.0;" x1="900.5" x2="1452" y1="453.1328" y2="453.1328"/><text fill="#000000" font-family="sans-serif" font-size="13" font-weight="bold" lengthAdjust="spacing" textLength="14" x="912.5" y="448.3779">12</text><text fill="#000000" font-family="sans-serif" font-size="13" lengthAdjust="spacing" textLength="22" x="930.5" y="448.3779">true</text><polygon fill="#181818" points="1034.5,477.6563,1044.5,481.6563,1034.5,485.6563,1038.5,481.6563" style="stroke:#181818;stroke-width:1.0;"/><line style="stroke:#181818;stroke-width:1.0;" x1="895.5" x2="1040.5" y1="481.6563" y2="481.6563"/><text fill="#000000" font-family="sans-serif" font-size="13" font-weight="bold" lengthAdjust="spacing" textLength="14" x="902.5" y="476.9014">13</text><text fill="#000000" font-family="sans-serif" font-size="13" lengthAdjust="spacing" textLength="105" x="920.5" y="476.9014">toWarehouseDto()</text><polygon fill="#181818" points="906.5,506.1797,896.5,510.1797,906.5,514.1797,902.5,510.1797" style="stroke:#181818;stroke-width:1.0;"/><line style="stroke:#181818;stroke-width:1.0;stroke-dasharray:2.0,2.0;" x1="900.5" x2="1050.5" y1="510.1797" y2="510.1797"/><text fill="#000000" font-family="sans-serif" font-size="13" font-weight="bold" lengthAdjust="spacing" textLength="14" x="912.5" y="505.4248">14</text><text fill="#000000" font-family="sans-serif" font-size="13" lengthAdjust="spacing" textLength="82" x="930.5" y="505.4248">warehouseDto</text><polygon fill="#181818" points="738.5,534.7031,728.5,538.7031,738.5,542.7031,734.5,538.7031" style="stroke:#181818;stroke-width:1.0;"/><line style="stroke:#181818;stroke-width:1.0;stroke-dasharray:2.0,2.0;" x1="732.5" x2="889.5" y1="538.7031" y2="538.7031"/><text fill="#000000" font-family="sans-serif" font-size="13" font-weight="bold" lengthAdjust="spacing" textLength="14" x="744.5" y="533.9482">15</text><text fill="#000000" font-family="sans-serif" font-size="13" lengthAdjust="spacing" textLength="82" x="762.5" y="533.9482">warehouseDto</text><polygon fill="#181818" points="587.5,563.2266,577.5,567.2266,587.5,571.2266,583.5,567.2266" style="stroke:#181818;stroke-width:1.0;"/><line style="stroke:#181818;stroke-width:1.0;stroke-dasharray:2.0,2.0;" x1="581.5" x2="721.5" y1="567.2266" y2="567.2266"/><text fill="#000000" font-family="sans-serif" font-size="13" font-weight="bold" lengthAdjust="spacing" textLength="14" x="593.5" y="562.4717">16</text><text fill="#000000" font-family="sans-serif" font-size="13" lengthAdjust="spacing" textLength="82" x="611.5" y="562.4717">warehouseDto</text><polygon fill="#181818" points="372.5,591.75,362.5,595.75,372.5,599.75,368.5,595.75" style="stroke:#181818;stroke-width:1.0;"/><line style="stroke:#181818;stroke-width:1.0;stroke-dasharray:2.0,2.0;" x1="366.5" x2="570.5" y1="595.75" y2="595.75"/><text fill="#000000" font-family="sans-serif" font-size="13" font-weight="bold" lengthAdjust="spacing" textLength="14" x="378.5" y="590.9951">17</text><text fill="#000000" font-family="sans-serif" font-size="13" lengthAdjust="spacing" textLength="44" x="396.5" y="590.9951">200 OK</text><polygon fill="#181818" points="100.5,620.2734,90.5,624.2734,100.5,628.2734,96.5,624.2734" style="stroke:#181818;stroke-width:1.0;"/><line style="stroke:#181818;stroke-width:1.0;stroke-dasharray:2.0,2.0;" x1="94.5" x2="355.5" y1="624.2734" y2="624.2734"/><text fill="#000000" font-family="sans-serif" font-size="13" font-weight="bold" lengthAdjust="spacing" textLength="14" x="106.5" y="619.5186">18</text><text fill="#000000" font-family="sans-serif" font-size="13" lengthAdjust="spacing" textLength="215" x="124.5" y="619.5186">informs about the successful deletion</text><line style="stroke:#000000;stroke-width:1.0;stroke-dasharray:2.0,2.0;" x1="10" x2="1540.5" y1="633.2734" y2="633.2734"/><text fill="#000000" font-family="sans-serif" font-size="11" font-weight="bold" lengthAdjust="spacing" textLength="331" x="15" y="643.2314">[If there is no warehouse in the system with the id entered]</text><polygon fill="#181818" points="705.5,663.0859,715.5,667.0859,705.5,671.0859,709.5,667.0859" style="stroke:#181818;stroke-width:1.0;"/><line style="stroke:#181818;stroke-width:1.0;" x1="576.5" x2="711.5" y1="667.0859" y2="667.0859"/><text fill="#000000" font-family="sans-serif" font-size="13" font-weight="bold" lengthAdjust="spacing" textLength="14" x="583.5" y="662.3311">19</text><text fill="#000000" font-family="sans-serif" font-size="13" lengthAdjust="spacing" textLength="109" x="601.5" y="662.3311">DELETE Delete(id)</text><polygon fill="#181818" points="873.5,691.6094,883.5,695.6094,873.5,699.6094,877.5,695.6094" style="stroke:#181818;stroke-width:1.0;"/><line style="stroke:#181818;stroke-width:1.0;" x1="727.5" x2="879.5" y1="695.6094" y2="695.6094"/><text fill="#000000" font-family="sans-serif" font-size="13" font-weight="bold" lengthAdjust="spacing" textLength="14" x="734.5" y="690.8545">20</text><text fill="#000000" font-family="sans-serif" font-size="13" lengthAdjust="spacing" textLength="121" x="752.5" y="690.8545">DeleteWarehouse(id)</text><polygon fill="#181818" points="1436,720.1328,1446,724.1328,1436,728.1328,1440,724.1328" style="stroke:#181818;stroke-width:1.0;"/><line style="stroke:#181818;stroke-width:1.0;" x1="895.5" x2="1442" y1="724.1328" y2="724.1328"/><text fill="#000000" font-family="sans-serif" font-size="13" font-weight="bold" lengthAdjust="spacing" textLength="14" x="902.5" y="719.3779">21</text><text fill="#000000" font-family="sans-serif" font-size="13" lengthAdjust="spacing" textLength="65" x="920.5" y="719.3779">GetById(id)</text><polygon fill="#181818" points="906.5,748.6563,896.5,752.6563,906.5,756.6563,902.5,752.6563" style="stroke:#181818;stroke-width:1.0;"/><line style="stroke:#181818;stroke-width:1.0;stroke-dasharray:2.0,2.0;" x1="900.5" x2="1452" y1="752.6563" y2="752.6563"/><text fill="#000000" font-family="sans-serif" font-size="13" font-weight="bold" lengthAdjust="spacing" textLength="14" x="912.5" y="747.9014">22</text><text fill="#000000" font-family="sans-serif" font-size="13" lengthAdjust="spacing" textLength="20" x="930.5" y="747.9014">null</text><polygon fill="#181818" points="738.5,777.1797,728.5,781.1797,738.5,785.1797,734.5,781.1797" style="stroke:#181818;stroke-width:1.0;"/><line style="stroke:#181818;stroke-width:1.0;stroke-dasharray:2.0,2.0;" x1="732.5" x2="889.5" y1="781.1797" y2="781.1797"/><text fill="#000000" font-family="sans-serif" font-size="13" font-weight="bold" lengthAdjust="spacing" textLength="14" x="744.5" y="776.4248">23</text><text fill="#000000" font-family="sans-serif" font-size="13" lengthAdjust="spacing" textLength="20" x="762.5" y="776.4248">null</text><polygon fill="#181818" points="587.5,805.7031,577.5,809.7031,587.5,813.7031,583.5,809.7031" style="stroke:#181818;stroke-width:1.0;"/><line style="stroke:#181818;stroke-width:1.0;stroke-dasharray:2.0,2.0;" x1="581.5" x2="721.5" y1="809.7031" y2="809.7031"/><text fill="#000000" font-family="sans-serif" font-size="13" font-weight="bold" lengthAdjust="spacing" textLength="14" x="593.5" y="804.9482">24</text><text fill="#000000" font-family="sans-serif" font-size="13" lengthAdjust="spacing" textLength="20" x="611.5" y="804.9482">null</text><polygon fill="#181818" points="372.5,834.2266,362.5,838.2266,372.5,842.2266,368.5,838.2266" style="stroke:#181818;stroke-width:1.0;"/><line style="stroke:#181818;stroke-width:1.0;stroke-dasharray:2.0,2.0;" x1="366.5" x2="570.5" y1="838.2266" y2="838.2266"/><text fill="#000000" font-family="sans-serif" font-size="13" font-weight="bold" lengthAdjust="spacing" textLength="14" x="378.5" y="833.4717">25</text><text fill="#000000" font-family="sans-serif" font-size="13" lengthAdjust="spacing" textLength="100" x="396.5" y="833.4717">404 NOT FOUND</text><polygon fill="#181818" points="100.5,862.75,90.5,866.75,100.5,870.75,96.5,866.75" style="stroke:#181818;stroke-width:1.0;"/><line style="stroke:#181818;stroke-width:1.0;stroke-dasharray:2.0,2.0;" x1="94.5" x2="355.5" y1="866.75" y2="866.75"/><text fill="#000000" font-family="sans-serif" font-size="13" font-weight="bold" lengthAdjust="spacing" textLength="14" x="106.5" y="861.9951">26</text><text fill="#000000" font-family="sans-serif" font-size="13" lengthAdjust="spacing" textLength="213" x="124.5" y="861.9951">informs about the fail of the operation</text><!--MD5=[723cc1e7487b42c75f331ece5eb35fb0]
@startuml
autonumber

skinparam sequence {
ParticipantBorderColor black
ParticipantBackgroundColor white
}

actor "Warehouse Manager" as admin
box "<<System(C4)>>\n       EletricGo" #LightYellow
participant SPA as ui <<Container(C4)>>
box "<<Container(C4)>>\n    Warehouse Management" #LightGreen
participant WarehouseRoute as  WM <<Component(C4)>>
participant WarehouseController as  CTL <<Component(C4)>>
participant WarehouseService as  SV <<Component(C4)>>
participant "warehouse : Warehouse" as  W <<Component(C4)>>
participant "warehouseDto : WarehouseDTO" as  DTO <<Component(C4)>>
participant WarehouseRepository as  WR <<Component(C4)>>
end box
end box 
admin -> ui: I want to delete a warehouse
activate ui

ui - -> admin: asks for the ID of the warehouse
deactivate ui

admin -> ui: inserts the ID of the warehouse
activate ui

ui - -> admin: asks for the confirmation of the deletion
deactivate ui


admin -> ui: confirms the deletion
activate ui

ui -> WM : DELETE DeleteWarehouse(id)
activate WM
alt If there is a warehouse in the system with the id entered

WM -> CTL : DELETE Delete(id)
activate CTL
CTL -> SV : DeleteWarehouse(id)
activate SV 
SV -> WR : GetById(id)
activate WR 
WR - -> SV : warehouse
deactivate WR
SV -> WR : Delete(warehouse)
activate WR

WR - -> SV : true 
deactivate WR

SV -> W : toWarehouseDto()
activate W
W- -> SV : warehouseDto
deactivate W
SV - -> CTL : warehouseDto
deactivate SV
CTL - -> WM : warehouseDto
deactivate CTL
WM - -> ui : 200 OK 
deactivate WM
ui - -> admin: informs about the successful deletion
deactivate ui

else If there is no warehouse in the system with the id entered

WM -> CTL : DELETE Delete(id)
activate WM
activate CTL
CTL -> SV : DeleteWarehouse(id)
activate SV 
SV -> WR : GetById(id)
activate WR 
WR - -> SV : null
deactivate WR

SV - -> CTL : null
deactivate SV
CTL - -> WM : null
deactivate CTL

WM - -> ui : 404 NOT FOUND 
deactivate WM
activate ui

ui - -> admin : informs about the fail of the operation

deactivate ui


end 

deactivate admin
@enduml

PlantUML version 1.2022.12(Sun Oct 23 19:12:26 WEST 2022)
(GPL source distribution)
Java Runtime: OpenJDK Runtime Environment
JVM: OpenJDK 64-Bit Server VM
Default Encoding: Cp1252
Language: pt
Country: BR
--></g></svg>