<?xml version="1.0" encoding="UTF-8" standalone="no"?><svg xmlns="http://www.w3.org/2000/svg" xmlns:xlink="http://www.w3.org/1999/xlink" contentStyleType="text/css" height="805px" preserveAspectRatio="none" style="width:1624px;height:805px;background:#FFFFFF;" version="1.1" viewBox="0 0 1624 805" width="1624px" zoomAndPan="magnify"><defs/><g><rect fill="#FFFFE0" height="793.25" style="stroke:#181818;stroke-width:0.5;" width="128" x="333.5" y="6"/><text fill="#000000" font-family="sans-serif" font-size="13" font-weight="bold" lengthAdjust="spacing" textLength="114" x="340.5" y="17.7686">&lt;&lt;EletricGo(C4)&gt;&gt;</text><text fill="#000000" font-family="sans-serif" font-size="13" font-weight="bold" lengthAdjust="spacing" textLength="46" x="368.5" y="32.292">System</text><rect fill="#90EE90" height="793.25" style="stroke:#181818;stroke-width:0.5;" width="1136.5" x="475" y="6"/><text fill="#000000" font-family="sans-serif" font-size="13" font-weight="bold" lengthAdjust="spacing" textLength="118" x="955.75" y="17.7686">&lt;&lt;Container(C4)&gt;&gt;</text><text fill="#000000" font-family="sans-serif" font-size="13" font-weight="bold" lengthAdjust="spacing" textLength="159" x="971.75" y="32.292">Warehouse Management</text><rect fill="#FFFFFF" height="337.2813" style="stroke:#181818;stroke-width:1.0;" width="10" x="392.5" y="115.8516"/><rect fill="#FFFFFF" height="28.5234" style="stroke:#181818;stroke-width:1.0;" width="10" x="392.5" y="667.0859"/><rect fill="#FFFFFF" height="280.2344" style="stroke:#181818;stroke-width:1.0;" width="10" x="539.5" y="144.375"/><rect fill="#FFFFFF" height="171.1406" style="stroke:#181818;stroke-width:1.0;" width="10" x="539.5" y="495.9453"/><rect fill="#FFFFFF" height="199.6641" style="stroke:#181818;stroke-width:1.0;" width="10" x="714.5" y="196.4219"/><rect fill="#FFFFFF" height="142.6172" style="stroke:#181818;stroke-width:1.0;" width="10" x="714.5" y="495.9453"/><rect fill="#FFFFFF" height="142.6172" style="stroke:#181818;stroke-width:1.0;" width="10" x="882.5" y="224.9453"/><rect fill="#FFFFFF" height="85.5703" style="stroke:#181818;stroke-width:1.0;" width="10" x="882.5" y="524.4688"/><rect fill="#FFFFFF" height="28.5234" style="stroke:#181818;stroke-width:1.0;" width="10" x="1123.5" y="310.5156"/><rect fill="#FFFFFF" height="28.5234" style="stroke:#181818;stroke-width:1.0;" width="10" x="1525" y="253.4688"/><rect fill="#FFFFFF" height="158.6172" style="stroke:#181818;stroke-width:1.0;" width="10" x="1525" y="552.9922"/><rect fill="none" height="544.2344" style="stroke:#000000;stroke-width:1.5;" width="1607.5" x="10" y="159.375"/><line style="stroke:#181818;stroke-width:0.5;stroke-dasharray:5.0,5.0;" x1="89" x2="89" y1="85.3281" y2="720.6094"/><line style="stroke:#181818;stroke-width:0.5;stroke-dasharray:5.0,5.0;" x1="397.5" x2="397.5" y1="85.3281" y2="720.6094"/><line style="stroke:#181818;stroke-width:0.5;stroke-dasharray:5.0,5.0;" x1="544" x2="544" y1="85.3281" y2="720.6094"/><line style="stroke:#181818;stroke-width:0.5;stroke-dasharray:5.0,5.0;" x1="719" x2="719" y1="85.3281" y2="720.6094"/><line style="stroke:#181818;stroke-width:0.5;stroke-dasharray:5.0,5.0;" x1="887.5" x2="887.5" y1="85.3281" y2="720.6094"/><line style="stroke:#181818;stroke-width:0.5;stroke-dasharray:5.0,5.0;" x1="1128.5" x2="1128.5" y1="85.3281" y2="720.6094"/><line style="stroke:#181818;stroke-width:0.5;stroke-dasharray:5.0,5.0;" x1="1332.5" x2="1332.5" y1="85.3281" y2="720.6094"/><line style="stroke:#181818;stroke-width:0.5;stroke-dasharray:5.0,5.0;" x1="1529.5" x2="1529.5" y1="85.3281" y2="720.6094"/><text fill="#000000" font-family="sans-serif" font-size="14" lengthAdjust="spacing" textLength="133" x="20" y="82.3613">Warehouse Manager</text><ellipse cx="89.5" cy="18.1875" fill="#E2E2F0" rx="8" ry="8" style="stroke:#181818;stroke-width:0.5;"/><path d="M89.5,26.1875 L89.5,53.1875 M76.5,34.1875 L102.5,34.1875 M89.5,53.1875 L76.5,68.1875 M89.5,53.1875 L102.5,68.1875 " fill="none" style="stroke:#181818;stroke-width:0.5;"/><text fill="#000000" font-family="sans-serif" font-size="14" lengthAdjust="spacing" textLength="133" x="20" y="732.2832">Warehouse Manager</text><ellipse cx="89.5" cy="743.75" fill="#E2E2F0" rx="8" ry="8" style="stroke:#181818;stroke-width:0.5;"/><path d="M89.5,751.75 L89.5,778.75 M76.5,759.75 L102.5,759.75 M89.5,778.75 L76.5,793.75 M89.5,778.75 L102.5,793.75 " fill="none" style="stroke:#181818;stroke-width:0.5;"/><rect fill="#FFFFFF" height="45.2813" rx="2.5" ry="2.5" style="stroke:#000000;stroke-width:0.5;" width="120" x="337.5" y="39.0469"/><text fill="#000000" font-family="sans-serif" font-size="14" font-style="italic" lengthAdjust="spacing" textLength="106" x="344.5" y="58.7207">«Container(C4)»</text><text fill="#000000" font-family="sans-serif" font-size="14" lengthAdjust="spacing" textLength="27" x="384" y="74.3613">SPA</text><rect fill="#FFFFFF" height="45.2813" rx="2.5" ry="2.5" style="stroke:#000000;stroke-width:0.5;" width="120" x="337.5" y="719.6094"/><text fill="#000000" font-family="sans-serif" font-size="14" font-style="italic" lengthAdjust="spacing" textLength="106" x="344.5" y="739.2832">«Container(C4)»</text><text fill="#000000" font-family="sans-serif" font-size="14" lengthAdjust="spacing" textLength="27" x="384" y="754.9238">SPA</text><rect fill="#FFFFFF" height="45.2813" rx="2.5" ry="2.5" style="stroke:#000000;stroke-width:0.5;" width="131" x="479" y="39.0469"/><text fill="#000000" font-family="sans-serif" font-size="14" font-style="italic" lengthAdjust="spacing" textLength="117" x="486" y="58.7207">«Component(C4)»</text><text fill="#000000" font-family="sans-serif" font-size="14" lengthAdjust="spacing" textLength="111" x="489" y="74.3613">WarehouseRoute</text><rect fill="#FFFFFF" height="45.2813" rx="2.5" ry="2.5" style="stroke:#000000;stroke-width:0.5;" width="131" x="479" y="719.6094"/><text fill="#000000" font-family="sans-serif" font-size="14" font-style="italic" lengthAdjust="spacing" textLength="117" x="486" y="739.2832">«Component(C4)»</text><text fill="#000000" font-family="sans-serif" font-size="14" lengthAdjust="spacing" textLength="111" x="489" y="754.9238">WarehouseRoute</text><rect fill="#FFFFFF" height="45.2813" rx="2.5" ry="2.5" style="stroke:#000000;stroke-width:0.5;" width="149" x="645" y="39.0469"/><text fill="#000000" font-family="sans-serif" font-size="14" font-style="italic" lengthAdjust="spacing" textLength="117" x="661" y="58.7207">«Component(C4)»</text><text fill="#000000" font-family="sans-serif" font-size="14" lengthAdjust="spacing" textLength="135" x="652" y="74.3613">WarehouseController</text><rect fill="#FFFFFF" height="45.2813" rx="2.5" ry="2.5" style="stroke:#000000;stroke-width:0.5;" width="149" x="645" y="719.6094"/><text fill="#000000" font-family="sans-serif" font-size="14" font-style="italic" lengthAdjust="spacing" textLength="117" x="661" y="739.2832">«Component(C4)»</text><text fill="#000000" font-family="sans-serif" font-size="14" lengthAdjust="spacing" textLength="135" x="652" y="754.9238">WarehouseController</text><rect fill="#FFFFFF" height="45.2813" rx="2.5" ry="2.5" style="stroke:#000000;stroke-width:0.5;" width="134" x="820.5" y="39.0469"/><text fill="#000000" font-family="sans-serif" font-size="14" font-style="italic" lengthAdjust="spacing" textLength="117" x="829" y="58.7207">«Component(C4)»</text><text fill="#000000" font-family="sans-serif" font-size="14" lengthAdjust="spacing" textLength="120" x="827.5" y="74.3613">WarehouseService</text><rect fill="#FFFFFF" height="45.2813" rx="2.5" ry="2.5" style="stroke:#000000;stroke-width:0.5;" width="134" x="820.5" y="719.6094"/><text fill="#000000" font-family="sans-serif" font-size="14" font-style="italic" lengthAdjust="spacing" textLength="117" x="829" y="739.2832">«Component(C4)»</text><text fill="#000000" font-family="sans-serif" font-size="14" lengthAdjust="spacing" textLength="120" x="827.5" y="754.9238">WarehouseService</text><rect fill="#FFFFFF" height="45.2813" rx="2.5" ry="2.5" style="stroke:#000000;stroke-width:0.5;" width="168" x="1044.5" y="39.0469"/><text fill="#000000" font-family="sans-serif" font-size="14" font-style="italic" lengthAdjust="spacing" textLength="117" x="1070" y="58.7207">«Component(C4)»</text><text fill="#000000" font-family="sans-serif" font-size="14" lengthAdjust="spacing" textLength="154" x="1051.5" y="74.3613">warehouse : Warehouse</text><rect fill="#FFFFFF" height="45.2813" rx="2.5" ry="2.5" style="stroke:#000000;stroke-width:0.5;" width="168" x="1044.5" y="719.6094"/><text fill="#000000" font-family="sans-serif" font-size="14" font-style="italic" lengthAdjust="spacing" textLength="117" x="1070" y="739.2832">«Component(C4)»</text><text fill="#000000" font-family="sans-serif" font-size="14" lengthAdjust="spacing" textLength="154" x="1051.5" y="754.9238">warehouse : Warehouse</text><rect fill="#FFFFFF" height="45.2813" rx="2.5" ry="2.5" style="stroke:#000000;stroke-width:0.5;" width="220" x="1222.5" y="39.0469"/><text fill="#000000" font-family="sans-serif" font-size="14" font-style="italic" lengthAdjust="spacing" textLength="117" x="1274" y="58.7207">«Component(C4)»</text><text fill="#000000" font-family="sans-serif" font-size="14" lengthAdjust="spacing" textLength="206" x="1229.5" y="74.3613">warehouseDto : WarehouseDTO</text><rect fill="#FFFFFF" height="45.2813" rx="2.5" ry="2.5" style="stroke:#000000;stroke-width:0.5;" width="220" x="1222.5" y="719.6094"/><text fill="#000000" font-family="sans-serif" font-size="14" font-style="italic" lengthAdjust="spacing" textLength="117" x="1274" y="739.2832">«Component(C4)»</text><text fill="#000000" font-family="sans-serif" font-size="14" lengthAdjust="spacing" textLength="206" x="1229.5" y="754.9238">warehouseDto : WarehouseDTO</text><rect fill="#FFFFFF" height="45.2813" rx="2.5" ry="2.5" style="stroke:#000000;stroke-width:0.5;" width="155" x="1452.5" y="39.0469"/><text fill="#000000" font-family="sans-serif" font-size="14" font-style="italic" lengthAdjust="spacing" textLength="117" x="1471.5" y="58.7207">«Component(C4)»</text><text fill="#000000" font-family="sans-serif" font-size="14" lengthAdjust="spacing" textLength="141" x="1459.5" y="74.3613">WarehouseRepository</text><rect fill="#FFFFFF" height="45.2813" rx="2.5" ry="2.5" style="stroke:#000000;stroke-width:0.5;" width="155" x="1452.5" y="719.6094"/><text fill="#000000" font-family="sans-serif" font-size="14" font-style="italic" lengthAdjust="spacing" textLength="117" x="1471.5" y="739.2832">«Component(C4)»</text><text fill="#000000" font-family="sans-serif" font-size="14" lengthAdjust="spacing" textLength="141" x="1459.5" y="754.9238">WarehouseRepository</text><rect fill="#FFFFFF" height="337.2813" style="stroke:#181818;stroke-width:1.0;" width="10" x="392.5" y="115.8516"/><rect fill="#FFFFFF" height="28.5234" style="stroke:#181818;stroke-width:1.0;" width="10" x="392.5" y="667.0859"/><rect fill="#FFFFFF" height="280.2344" style="stroke:#181818;stroke-width:1.0;" width="10" x="539.5" y="144.375"/><rect fill="#FFFFFF" height="171.1406" style="stroke:#181818;stroke-width:1.0;" width="10" x="539.5" y="495.9453"/><rect fill="#FFFFFF" height="199.6641" style="stroke:#181818;stroke-width:1.0;" width="10" x="714.5" y="196.4219"/><rect fill="#FFFFFF" height="142.6172" style="stroke:#181818;stroke-width:1.0;" width="10" x="714.5" y="495.9453"/><rect fill="#FFFFFF" height="142.6172" style="stroke:#181818;stroke-width:1.0;" width="10" x="882.5" y="224.9453"/><rect fill="#FFFFFF" height="85.5703" style="stroke:#181818;stroke-width:1.0;" width="10" x="882.5" y="524.4688"/><rect fill="#FFFFFF" height="28.5234" style="stroke:#181818;stroke-width:1.0;" width="10" x="1123.5" y="310.5156"/><rect fill="#FFFFFF" height="28.5234" style="stroke:#181818;stroke-width:1.0;" width="10" x="1525" y="253.4688"/><rect fill="#FFFFFF" height="158.6172" style="stroke:#181818;stroke-width:1.0;" width="10" x="1525" y="552.9922"/><polygon fill="#181818" points="380.5,111.8516,390.5,115.8516,380.5,119.8516,384.5,115.8516" style="stroke:#181818;stroke-width:1.0;"/><line style="stroke:#181818;stroke-width:1.0;" x1="89.5" x2="386.5" y1="115.8516" y2="115.8516"/><text fill="#000000" font-family="sans-serif" font-size="13" font-weight="bold" lengthAdjust="spacing" textLength="7" x="96.5" y="111.0967">1</text><text fill="#000000" font-family="sans-serif" font-size="13" lengthAdjust="spacing" textLength="273" x="107.5" y="111.0967">I want to consult the warehouses in the system</text><polygon fill="#181818" points="527.5,140.375,537.5,144.375,527.5,148.375,531.5,144.375" style="stroke:#181818;stroke-width:1.0;"/><line style="stroke:#181818;stroke-width:1.0;" x1="402.5" x2="533.5" y1="144.375" y2="144.375"/><text fill="#000000" font-family="sans-serif" font-size="13" font-weight="bold" lengthAdjust="spacing" textLength="7" x="409.5" y="139.6201">2</text><text fill="#000000" font-family="sans-serif" font-size="13" lengthAdjust="spacing" textLength="74" x="420.5" y="139.6201">GET GetAll()</text><path d="M10,159.375 L71,159.375 L71,165.8984 L61,175.8984 L10,175.8984 L10,159.375 " fill="#EEEEEE" style="stroke:#000000;stroke-width:1.5;"/><rect fill="none" height="544.2344" style="stroke:#000000;stroke-width:1.5;" width="1607.5" x="10" y="159.375"/><text fill="#000000" font-family="sans-serif" font-size="13" font-weight="bold" lengthAdjust="spacing" textLength="16" x="25" y="172.1436">alt</text><text fill="#000000" font-family="sans-serif" font-size="11" font-weight="bold" lengthAdjust="spacing" textLength="221" x="86" y="171.333">[if there are warehouses in the system]</text><polygon fill="#181818" points="702.5,192.4219,712.5,196.4219,702.5,200.4219,706.5,196.4219" style="stroke:#181818;stroke-width:1.0;"/><line style="stroke:#181818;stroke-width:1.0;" x1="549.5" x2="708.5" y1="196.4219" y2="196.4219"/><text fill="#000000" font-family="sans-serif" font-size="13" font-weight="bold" lengthAdjust="spacing" textLength="7" x="556.5" y="191.667">3</text><text fill="#000000" font-family="sans-serif" font-size="13" lengthAdjust="spacing" textLength="44" x="567.5" y="191.667">GetAll()</text><polygon fill="#181818" points="870.5,220.9453,880.5,224.9453,870.5,228.9453,874.5,224.9453" style="stroke:#181818;stroke-width:1.0;"/><line style="stroke:#181818;stroke-width:1.0;" x1="724.5" x2="876.5" y1="224.9453" y2="224.9453"/><text fill="#000000" font-family="sans-serif" font-size="13" font-weight="bold" lengthAdjust="spacing" textLength="7" x="731.5" y="220.1904">4</text><text fill="#000000" font-family="sans-serif" font-size="13" lengthAdjust="spacing" textLength="102" x="742.5" y="220.1904">GetWarehouses()</text><polygon fill="#181818" points="1513,249.4688,1523,253.4688,1513,257.4688,1517,253.4688" style="stroke:#181818;stroke-width:1.0;"/><line style="stroke:#181818;stroke-width:1.0;" x1="892.5" x2="1519" y1="253.4688" y2="253.4688"/><text fill="#000000" font-family="sans-serif" font-size="13" font-weight="bold" lengthAdjust="spacing" textLength="7" x="899.5" y="248.7139">5</text><text fill="#000000" font-family="sans-serif" font-size="13" lengthAdjust="spacing" textLength="44" x="910.5" y="248.7139">GetAll()</text><polygon fill="#181818" points="903.5,277.9922,893.5,281.9922,903.5,285.9922,899.5,281.9922" style="stroke:#181818;stroke-width:1.0;"/><line style="stroke:#181818;stroke-width:1.0;stroke-dasharray:2.0,2.0;" x1="897.5" x2="1529" y1="281.9922" y2="281.9922"/><text fill="#000000" font-family="sans-serif" font-size="13" font-weight="bold" lengthAdjust="spacing" textLength="7" x="909.5" y="277.2373">6</text><text fill="#000000" font-family="sans-serif" font-size="13" lengthAdjust="spacing" textLength="103" x="920.5" y="277.2373">listOfWarehouses</text><polygon fill="#181818" points="1111.5,306.5156,1121.5,310.5156,1111.5,314.5156,1115.5,310.5156" style="stroke:#181818;stroke-width:1.0;"/><line style="stroke:#181818;stroke-width:1.0;" x1="892.5" x2="1117.5" y1="310.5156" y2="310.5156"/><text fill="#000000" font-family="sans-serif" font-size="13" font-weight="bold" lengthAdjust="spacing" textLength="7" x="899.5" y="305.7607">7</text><text fill="#000000" font-family="sans-serif" font-size="13" lengthAdjust="spacing" textLength="201" x="910.5" y="305.7607">toWarehouseDto(listOfWarehouse)</text><polygon fill="#181818" points="903.5,335.0391,893.5,339.0391,903.5,343.0391,899.5,339.0391" style="stroke:#181818;stroke-width:1.0;"/><line style="stroke:#181818;stroke-width:1.0;stroke-dasharray:2.0,2.0;" x1="897.5" x2="1127.5" y1="339.0391" y2="339.0391"/><text fill="#000000" font-family="sans-serif" font-size="13" font-weight="bold" lengthAdjust="spacing" textLength="7" x="909.5" y="334.2842">8</text><text fill="#000000" font-family="sans-serif" font-size="13" lengthAdjust="spacing" textLength="123" x="920.5" y="334.2842">listOfWarehousesDto</text><polygon fill="#181818" points="735.5,363.5625,725.5,367.5625,735.5,371.5625,731.5,367.5625" style="stroke:#181818;stroke-width:1.0;"/><line style="stroke:#181818;stroke-width:1.0;stroke-dasharray:2.0,2.0;" x1="729.5" x2="886.5" y1="367.5625" y2="367.5625"/><text fill="#000000" font-family="sans-serif" font-size="13" font-weight="bold" lengthAdjust="spacing" textLength="7" x="741.5" y="362.8076">9</text><text fill="#000000" font-family="sans-serif" font-size="13" lengthAdjust="spacing" textLength="123" x="752.5" y="362.8076">listOfWarehousesDto</text><polygon fill="#181818" points="560.5,392.0859,550.5,396.0859,560.5,400.0859,556.5,396.0859" style="stroke:#181818;stroke-width:1.0;"/><line style="stroke:#181818;stroke-width:1.0;stroke-dasharray:2.0,2.0;" x1="554.5" x2="718.5" y1="396.0859" y2="396.0859"/><text fill="#000000" font-family="sans-serif" font-size="13" font-weight="bold" lengthAdjust="spacing" textLength="14" x="566.5" y="391.3311">10</text><text fill="#000000" font-family="sans-serif" font-size="13" lengthAdjust="spacing" textLength="123" x="584.5" y="391.3311">listOfWarehousesDto</text><polygon fill="#181818" points="413.5,420.6094,403.5,424.6094,413.5,428.6094,409.5,424.6094" style="stroke:#181818;stroke-width:1.0;"/><line style="stroke:#181818;stroke-width:1.0;stroke-dasharray:2.0,2.0;" x1="407.5" x2="543.5" y1="424.6094" y2="424.6094"/><text fill="#000000" font-family="sans-serif" font-size="13" font-weight="bold" lengthAdjust="spacing" textLength="14" x="419.5" y="419.8545">11</text><text fill="#000000" font-family="sans-serif" font-size="13" lengthAdjust="spacing" textLength="44" x="437.5" y="419.8545">200 OK</text><polygon fill="#181818" points="100.5,449.1328,90.5,453.1328,100.5,457.1328,96.5,453.1328" style="stroke:#181818;stroke-width:1.0;"/><line style="stroke:#181818;stroke-width:1.0;stroke-dasharray:2.0,2.0;" x1="94.5" x2="396.5" y1="453.1328" y2="453.1328"/><text fill="#000000" font-family="sans-serif" font-size="13" font-weight="bold" lengthAdjust="spacing" textLength="14" x="106.5" y="448.3779">12</text><text fill="#000000" font-family="sans-serif" font-size="13" lengthAdjust="spacing" textLength="203" x="124.5" y="448.3779">show all warehouses in the system</text><line style="stroke:#000000;stroke-width:1.0;stroke-dasharray:2.0,2.0;" x1="10" x2="1617.5" y1="462.1328" y2="462.1328"/><text fill="#000000" font-family="sans-serif" font-size="11" font-weight="bold" lengthAdjust="spacing" textLength="238" x="15" y="472.0908">[If there are no warehouses in the system]</text><polygon fill="#181818" points="702.5,491.9453,712.5,495.9453,702.5,499.9453,706.5,495.9453" style="stroke:#181818;stroke-width:1.0;"/><line style="stroke:#181818;stroke-width:1.0;" x1="549.5" x2="708.5" y1="495.9453" y2="495.9453"/><text fill="#000000" font-family="sans-serif" font-size="13" font-weight="bold" lengthAdjust="spacing" textLength="14" x="556.5" y="491.1904">13</text><text fill="#000000" font-family="sans-serif" font-size="13" lengthAdjust="spacing" textLength="44" x="574.5" y="491.1904">GetAll()</text><polygon fill="#181818" points="870.5,520.4688,880.5,524.4688,870.5,528.4688,874.5,524.4688" style="stroke:#181818;stroke-width:1.0;"/><line style="stroke:#181818;stroke-width:1.0;" x1="724.5" x2="876.5" y1="524.4688" y2="524.4688"/><text fill="#000000" font-family="sans-serif" font-size="13" font-weight="bold" lengthAdjust="spacing" textLength="14" x="731.5" y="519.7139">14</text><text fill="#000000" font-family="sans-serif" font-size="13" lengthAdjust="spacing" textLength="102" x="749.5" y="519.7139">GetWarehouses()</text><polygon fill="#181818" points="1513,548.9922,1523,552.9922,1513,556.9922,1517,552.9922" style="stroke:#181818;stroke-width:1.0;"/><line style="stroke:#181818;stroke-width:1.0;" x1="892.5" x2="1519" y1="552.9922" y2="552.9922"/><text fill="#000000" font-family="sans-serif" font-size="13" font-weight="bold" lengthAdjust="spacing" textLength="14" x="899.5" y="548.2373">15</text><text fill="#000000" font-family="sans-serif" font-size="13" lengthAdjust="spacing" textLength="44" x="917.5" y="548.2373">GetAll()</text><polygon fill="#181818" points="903.5,577.5156,893.5,581.5156,903.5,585.5156,899.5,581.5156" style="stroke:#181818;stroke-width:1.0;"/><line style="stroke:#181818;stroke-width:1.0;stroke-dasharray:2.0,2.0;" x1="897.5" x2="1524" y1="581.5156" y2="581.5156"/><text fill="#000000" font-family="sans-serif" font-size="13" font-weight="bold" lengthAdjust="spacing" textLength="14" x="909.5" y="576.7607">16</text><text fill="#000000" font-family="sans-serif" font-size="13" lengthAdjust="spacing" textLength="20" x="927.5" y="576.7607">null</text><polygon fill="#181818" points="735.5,606.0391,725.5,610.0391,735.5,614.0391,731.5,610.0391" style="stroke:#181818;stroke-width:1.0;"/><line style="stroke:#181818;stroke-width:1.0;stroke-dasharray:2.0,2.0;" x1="729.5" x2="886.5" y1="610.0391" y2="610.0391"/><text fill="#000000" font-family="sans-serif" font-size="13" font-weight="bold" lengthAdjust="spacing" textLength="14" x="741.5" y="605.2842">17</text><text fill="#000000" font-family="sans-serif" font-size="13" lengthAdjust="spacing" textLength="20" x="759.5" y="605.2842">null</text><polygon fill="#181818" points="560.5,634.5625,550.5,638.5625,560.5,642.5625,556.5,638.5625" style="stroke:#181818;stroke-width:1.0;"/><line style="stroke:#181818;stroke-width:1.0;stroke-dasharray:2.0,2.0;" x1="554.5" x2="718.5" y1="638.5625" y2="638.5625"/><text fill="#000000" font-family="sans-serif" font-size="13" font-weight="bold" lengthAdjust="spacing" textLength="14" x="566.5" y="633.8076">18</text><text fill="#000000" font-family="sans-serif" font-size="13" lengthAdjust="spacing" textLength="20" x="584.5" y="633.8076">null</text><polygon fill="#181818" points="413.5,663.0859,403.5,667.0859,413.5,671.0859,409.5,667.0859" style="stroke:#181818;stroke-width:1.0;"/><line style="stroke:#181818;stroke-width:1.0;stroke-dasharray:2.0,2.0;" x1="407.5" x2="543.5" y1="667.0859" y2="667.0859"/><text fill="#000000" font-family="sans-serif" font-size="13" font-weight="bold" lengthAdjust="spacing" textLength="14" x="419.5" y="662.3311">19</text><text fill="#000000" font-family="sans-serif" font-size="13" lengthAdjust="spacing" textLength="100" x="437.5" y="662.3311">404 NOT FOUND</text><polygon fill="#181818" points="100.5,691.6094,90.5,695.6094,100.5,699.6094,96.5,695.6094" style="stroke:#181818;stroke-width:1.0;"/><line style="stroke:#181818;stroke-width:1.0;stroke-dasharray:2.0,2.0;" x1="94.5" x2="396.5" y1="695.6094" y2="695.6094"/><text fill="#000000" font-family="sans-serif" font-size="13" font-weight="bold" lengthAdjust="spacing" textLength="14" x="106.5" y="690.8545">20</text><text fill="#000000" font-family="sans-serif" font-size="13" lengthAdjust="spacing" textLength="261" x="124.5" y="690.8545">show message error "Warehouses not found"</text><!--MD5=[30cb86e5d0ffce979f2f48e544a1bd11]
@startuml
autonumber

skinparam sequence {
ParticipantBorderColor black
ParticipantBackgroundColor white
}

actor "Warehouse Manager" as admin 
box "<<EletricGo(C4)>>\n       System" #LightYellow
participant SPA as ui <<Container(C4)>>
box "<<Container(C4)>>\n    Warehouse Management" #LightGreen
participant WarehouseRoute as  WM <<Component(C4)>>
participant WarehouseController as  CTL <<Component(C4)>>
participant WarehouseService as  SV <<Component(C4)>>
participant "warehouse : Warehouse" as  W <<Component(C4)>>
participant "warehouseDto : WarehouseDTO" as  DTO <<Component(C4)>>
participant WarehouseRepository as  WR <<Component(C4)>>
end box
end box


admin -> ui: I want to consult the warehouses in the system
activate ui

ui -> WM : GET GetAll()
activate WM
alt if there are warehouses in the system

WM -> CTL : GetAll()
activate CTL
CTL -> SV : GetWarehouses()
activate SV 
SV -> WR : GetAll()
activate WR
WR - -> SV : listOfWarehouses
deactivate WR
SV -> W : toWarehouseDto(listOfWarehouse)
activate W

W - -> SV : listOfWarehousesDto
deactivate W
SV - -> CTL : listOfWarehousesDto
deactivate SV
CTL - -> WM : listOfWarehousesDto
deactivate CTL
WM - -> ui : 200 OK 
deactivate WM


ui - -> admin: show all warehouses in the system
deactivate ui

else If there are no warehouses in the system



WM -> CTL : GetAll()
activate WM
activate CTL
CTL -> SV : GetWarehouses()
activate SV 
SV -> WR : GetAll()
activate WR
WR - -> SV : null

SV - -> CTL : null
deactivate SV
CTL - -> WM : null
deactivate CTL

WM - -> ui : 404 NOT FOUND
deactivate WM
activate ui
 
ui - -> admin: show message error "Warehouses not found"
deactivate ui 


end

deactivate admin
@enduml

PlantUML version 1.2022.12(Sun Oct 23 19:12:26 WEST 2022)
(GPL source distribution)
Java Runtime: OpenJDK Runtime Environment
JVM: OpenJDK 64-Bit Server VM
Default Encoding: Cp1252
Language: pt
Country: BR
--></g></svg>