<?xml version="1.0" encoding="UTF-8" standalone="no"?><svg xmlns="http://www.w3.org/2000/svg" xmlns:xlink="http://www.w3.org/1999/xlink" contentStyleType="text/css" height="765px" preserveAspectRatio="none" style="width:1020px;height:765px;background:#FFFFFF;" version="1.1" viewBox="0 0 1020 765" width="1020px" zoomAndPan="magnify"><defs/><g><rect fill="#DDDDDD" height="753.6953" style="stroke:#181818;stroke-width:0.5;" width="649" x="244.5" y="6"/><text fill="#000000" font-family="sans-serif" font-size="13" font-weight="bold" lengthAdjust="spacing" textLength="102" x="518" y="19.4951">&lt;&lt;System(C4)&gt;&gt;</text><text fill="#000000" font-family="sans-serif" font-size="13" font-weight="bold" lengthAdjust="spacing" textLength="46" x="522" y="35.8467">System</text><rect fill="#FFFFFF" height="558.1641" style="stroke:#181818;stroke-width:1.0;" width="10" x="60.5" y="102.9219"/><rect fill="#FFFFFF" height="535.8125" style="stroke:#181818;stroke-width:1.0;" width="10" x="303.5" y="125.2734"/><rect fill="#FFFFFF" height="30.3516" style="stroke:#181818;stroke-width:1.0;" width="10" x="515.5" y="180.9766"/><rect fill="#FFFFFF" height="284.1641" style="stroke:#181818;stroke-width:1.0;" width="10" x="515.5" y="385.9219"/><rect fill="#FFFFFF" height="98.0547" style="stroke:#181818;stroke-width:1.0;" width="10" x="645.5" y="532.6797"/><rect fill="#FFFFFF" height="30.3516" style="stroke:#181818;stroke-width:1.0;" width="10" x="800" y="416.2734"/><rect fill="#FFFFFF" height="30.3516" style="stroke:#181818;stroke-width:1.0;" width="10" x="946.5" y="257.5156"/><rect fill="none" height="155.5938" style="stroke:#000000;stroke-width:1.5;" width="775" x="238.5" y="140.2734"/><rect fill="none" height="79.0547" style="stroke:#000000;stroke-width:1.5;" width="482" x="238.5" y="491.9766"/><line style="stroke:#181818;stroke-width:0.5;stroke-dasharray:5.0,5.0;" x1="65" x2="65" y1="92.9219" y2="679.0859"/><line style="stroke:#181818;stroke-width:0.5;stroke-dasharray:5.0,5.0;" x1="308.5" x2="308.5" y1="92.9219" y2="679.0859"/><line style="stroke:#181818;stroke-width:0.5;stroke-dasharray:5.0,5.0;" x1="520.5" x2="520.5" y1="92.9219" y2="679.0859"/><line style="stroke:#181818;stroke-width:0.5;stroke-dasharray:5.0,5.0;" x1="650.5" x2="650.5" y1="92.9219" y2="679.0859"/><line style="stroke:#181818;stroke-width:0.5;stroke-dasharray:5.0,5.0;" x1="804.5" x2="804.5" y1="92.9219" y2="679.0859"/><line style="stroke:#181818;stroke-width:0.5;stroke-dasharray:5.0,5.0;" x1="951.5" x2="951.5" y1="92.9219" y2="679.0859"/><text fill="#000000" font-family="sans-serif" font-size="14" lengthAdjust="spacing" textLength="115" x="5" y="89.8457">Logistics Manager</text><ellipse cx="65.5" cy="23.8125" fill="#E2E2F0" rx="8" ry="8" style="stroke:#181818;stroke-width:0.5;"/><path d="M65.5,31.8125 L65.5,58.8125 M52.5,39.8125 L78.5,39.8125 M65.5,58.8125 L52.5,73.8125 M65.5,58.8125 L78.5,73.8125 " fill="none" style="stroke:#181818;stroke-width:0.5;"/><text fill="#000000" font-family="sans-serif" font-size="14" lengthAdjust="spacing" textLength="115" x="5" y="692.6191">Logistics Manager</text><ellipse cx="65.5" cy="704.1953" fill="#E2E2F0" rx="8" ry="8" style="stroke:#181818;stroke-width:0.5;"/><path d="M65.5,712.1953 L65.5,739.1953 M52.5,720.1953 L78.5,720.1953 M65.5,739.1953 L52.5,754.1953 M65.5,739.1953 L78.5,754.1953 " fill="none" style="stroke:#181818;stroke-width:0.5;"/><rect fill="#FFFFFF" height="49.2188" rx="2.5" ry="2.5" style="stroke:#000000;stroke-width:0.5;" width="120" x="248.5" y="42.7031"/><text fill="#000000" font-family="sans-serif" font-size="14" font-style="italic" lengthAdjust="spacing" textLength="106" x="255.5" y="64.2363">«Container(C4)»</text><text fill="#000000" font-family="sans-serif" font-size="14" lengthAdjust="spacing" textLength="12" x="302.5" y="81.8457">UI</text><rect fill="#FFFFFF" height="49.2188" rx="2.5" ry="2.5" style="stroke:#000000;stroke-width:0.5;" width="120" x="248.5" y="678.0859"/><text fill="#000000" font-family="sans-serif" font-size="14" font-style="italic" lengthAdjust="spacing" textLength="106" x="255.5" y="699.6191">«Container(C4)»</text><text fill="#000000" font-family="sans-serif" font-size="14" lengthAdjust="spacing" textLength="12" x="302.5" y="717.2285">UI</text><rect fill="#FFFFFF" height="49.2188" rx="2.5" ry="2.5" style="stroke:#000000;stroke-width:0.5;" width="120" x="460.5" y="42.7031"/><text fill="#000000" font-family="sans-serif" font-size="14" font-style="italic" lengthAdjust="spacing" textLength="106" x="467.5" y="64.2363">«Container(C4)»</text><text fill="#000000" font-family="sans-serif" font-size="14" lengthAdjust="spacing" textLength="29" x="506" y="81.8457">Auth</text><rect fill="#FFFFFF" height="49.2188" rx="2.5" ry="2.5" style="stroke:#000000;stroke-width:0.5;" width="120" x="460.5" y="678.0859"/><text fill="#000000" font-family="sans-serif" font-size="14" font-style="italic" lengthAdjust="spacing" textLength="106" x="467.5" y="699.6191">«Container(C4)»</text><text fill="#000000" font-family="sans-serif" font-size="14" lengthAdjust="spacing" textLength="29" x="506" y="717.2285">Auth</text><rect fill="#FFFFFF" height="49.2188" rx="2.5" ry="2.5" style="stroke:#000000;stroke-width:0.5;" width="120" x="590.5" y="42.7031"/><text fill="#000000" font-family="sans-serif" font-size="14" font-style="italic" lengthAdjust="spacing" textLength="106" x="597.5" y="64.2363">«Container(C4)»</text><text fill="#000000" font-family="sans-serif" font-size="14" lengthAdjust="spacing" textLength="55" x="623" y="81.8457">Logistics</text><rect fill="#FFFFFF" height="49.2188" rx="2.5" ry="2.5" style="stroke:#000000;stroke-width:0.5;" width="120" x="590.5" y="678.0859"/><text fill="#000000" font-family="sans-serif" font-size="14" font-style="italic" lengthAdjust="spacing" textLength="106" x="597.5" y="699.6191">«Container(C4)»</text><text fill="#000000" font-family="sans-serif" font-size="14" lengthAdjust="spacing" textLength="55" x="623" y="717.2285">Logistics</text><rect fill="#FFFFFF" height="49.2188" rx="2.5" ry="2.5" style="stroke:#000000;stroke-width:0.5;" width="169" x="720.5" y="42.7031"/><text fill="#000000" font-family="sans-serif" font-size="14" font-style="italic" lengthAdjust="spacing" textLength="106" x="752" y="64.2363">«Container(C4)»</text><text fill="#000000" font-family="sans-serif" font-size="14" lengthAdjust="spacing" textLength="155" x="727.5" y="81.8457">WarehouseManagement</text><rect fill="#FFFFFF" height="49.2188" rx="2.5" ry="2.5" style="stroke:#000000;stroke-width:0.5;" width="169" x="720.5" y="678.0859"/><text fill="#000000" font-family="sans-serif" font-size="14" font-style="italic" lengthAdjust="spacing" textLength="106" x="752" y="699.6191">«Container(C4)»</text><text fill="#000000" font-family="sans-serif" font-size="14" lengthAdjust="spacing" textLength="155" x="727.5" y="717.2285">WarehouseManagement</text><rect fill="#FFFFFF" height="49.2188" rx="2.5" ry="2.5" style="stroke:#000000;stroke-width:0.5;" width="104" x="899.5" y="42.7031"/><text fill="#000000" font-family="sans-serif" font-size="14" font-style="italic" lengthAdjust="spacing" textLength="90" x="906.5" y="64.2363">«System(C4)»</text><text fill="#000000" font-family="sans-serif" font-size="14" lengthAdjust="spacing" textLength="46" x="928.5" y="81.8457">Google</text><rect fill="#FFFFFF" height="49.2188" rx="2.5" ry="2.5" style="stroke:#000000;stroke-width:0.5;" width="104" x="899.5" y="678.0859"/><text fill="#000000" font-family="sans-serif" font-size="14" font-style="italic" lengthAdjust="spacing" textLength="90" x="906.5" y="699.6191">«System(C4)»</text><text fill="#000000" font-family="sans-serif" font-size="14" lengthAdjust="spacing" textLength="46" x="928.5" y="717.2285">Google</text><rect fill="#FFFFFF" height="558.1641" style="stroke:#181818;stroke-width:1.0;" width="10" x="60.5" y="102.9219"/><rect fill="#FFFFFF" height="535.8125" style="stroke:#181818;stroke-width:1.0;" width="10" x="303.5" y="125.2734"/><rect fill="#FFFFFF" height="30.3516" style="stroke:#181818;stroke-width:1.0;" width="10" x="515.5" y="180.9766"/><rect fill="#FFFFFF" height="284.1641" style="stroke:#181818;stroke-width:1.0;" width="10" x="515.5" y="385.9219"/><rect fill="#FFFFFF" height="98.0547" style="stroke:#181818;stroke-width:1.0;" width="10" x="645.5" y="532.6797"/><rect fill="#FFFFFF" height="30.3516" style="stroke:#181818;stroke-width:1.0;" width="10" x="800" y="416.2734"/><rect fill="#FFFFFF" height="30.3516" style="stroke:#181818;stroke-width:1.0;" width="10" x="946.5" y="257.5156"/><polygon fill="#181818" points="291.5,121.2734,301.5,125.2734,291.5,129.2734,295.5,125.2734" style="stroke:#181818;stroke-width:1.0;"/><line style="stroke:#181818;stroke-width:1.0;" x1="70.5" x2="297.5" y1="125.2734" y2="125.2734"/><text fill="#000000" font-family="sans-serif" font-size="13" font-weight="bold" lengthAdjust="spacing" textLength="7" x="77.5" y="120.417">1</text><text fill="#000000" font-family="sans-serif" font-size="13" lengthAdjust="spacing" textLength="80" x="88.5" y="120.417">I want to login</text><path d="M238.5,140.2734 L299.5,140.2734 L299.5,148.625 L289.5,158.625 L238.5,158.625 L238.5,140.2734 " fill="#EEEEEE" style="stroke:#000000;stroke-width:1.5;"/><rect fill="none" height="155.5938" style="stroke:#000000;stroke-width:1.5;" width="775" x="238.5" y="140.2734"/><text fill="#000000" font-family="sans-serif" font-size="13" font-weight="bold" lengthAdjust="spacing" textLength="16" x="253.5" y="154.7686">alt</text><text fill="#000000" font-family="sans-serif" font-size="11" font-weight="bold" lengthAdjust="spacing" textLength="266" x="314.5" y="153.6924">[Login through email and password in EletricGo]</text><polygon fill="#181818" points="503.5,176.9766,513.5,180.9766,503.5,184.9766,507.5,180.9766" style="stroke:#181818;stroke-width:1.0;"/><line style="stroke:#181818;stroke-width:1.0;" x1="313.5" x2="509.5" y1="180.9766" y2="180.9766"/><text fill="#000000" font-family="sans-serif" font-size="13" font-weight="bold" lengthAdjust="spacing" textLength="7" x="320.5" y="176.1201">2</text><text fill="#000000" font-family="sans-serif" font-size="13" lengthAdjust="spacing" textLength="172" x="331.5" y="176.1201">POST Login(email, password)</text><polygon fill="#181818" points="324.5,207.3281,314.5,211.3281,324.5,215.3281,320.5,211.3281" style="stroke:#181818;stroke-width:1.0;"/><line style="stroke:#181818;stroke-width:1.0;stroke-dasharray:2.0,2.0;" x1="318.5" x2="519.5" y1="211.3281" y2="211.3281"/><text fill="#000000" font-family="sans-serif" font-size="13" font-weight="bold" lengthAdjust="spacing" textLength="7" x="330.5" y="206.4717">3</text><text fill="#000000" font-family="sans-serif" font-size="13" lengthAdjust="spacing" textLength="44" x="341.5" y="206.4717">200 OK</text><line style="stroke:#000000;stroke-width:1.0;stroke-dasharray:2.0,2.0;" x1="238.5" x2="1013.5" y1="220.3281" y2="220.3281"/><text fill="#000000" font-family="sans-serif" font-size="11" font-weight="bold" lengthAdjust="spacing" textLength="128" x="243.5" y="231.7471">[Login through Google]</text><polygon fill="#181818" points="934.5,253.5156,944.5,257.5156,934.5,261.5156,938.5,257.5156" style="stroke:#181818;stroke-width:1.0;"/><line style="stroke:#181818;stroke-width:1.0;" x1="313.5" x2="940.5" y1="257.5156" y2="257.5156"/><text fill="#000000" font-family="sans-serif" font-size="13" font-weight="bold" lengthAdjust="spacing" textLength="7" x="320.5" y="252.6592">4</text><text fill="#000000" font-family="sans-serif" font-size="13" lengthAdjust="spacing" textLength="153" x="331.5" y="252.6592">Login with Google account</text><polygon fill="#181818" points="324.5,283.8672,314.5,287.8672,324.5,291.8672,320.5,287.8672" style="stroke:#181818;stroke-width:1.0;"/><line style="stroke:#181818;stroke-width:1.0;stroke-dasharray:2.0,2.0;" x1="318.5" x2="950.5" y1="287.8672" y2="287.8672"/><text fill="#000000" font-family="sans-serif" font-size="13" font-weight="bold" lengthAdjust="spacing" textLength="7" x="330.5" y="283.0107">5</text><text fill="#000000" font-family="sans-serif" font-size="13" lengthAdjust="spacing" textLength="44" x="341.5" y="283.0107">200 OK</text><polygon fill="#181818" points="81.5,321.2188,71.5,325.2188,81.5,329.2188,77.5,325.2188" style="stroke:#181818;stroke-width:1.0;"/><line style="stroke:#181818;stroke-width:1.0;stroke-dasharray:2.0,2.0;" x1="75.5" x2="302.5" y1="325.2188" y2="325.2188"/><text fill="#000000" font-family="sans-serif" font-size="13" font-weight="bold" lengthAdjust="spacing" textLength="7" x="87.5" y="320.3623">6</text><text fill="#000000" font-family="sans-serif" font-size="13" lengthAdjust="spacing" textLength="198" x="98.5" y="320.3623">informs about the success of login</text><polygon fill="#181818" points="291.5,351.5703,301.5,355.5703,291.5,359.5703,295.5,355.5703" style="stroke:#181818;stroke-width:1.0;"/><line style="stroke:#181818;stroke-width:1.0;" x1="70.5" x2="297.5" y1="355.5703" y2="355.5703"/><text fill="#000000" font-family="sans-serif" font-size="13" font-weight="bold" lengthAdjust="spacing" textLength="7" x="77.5" y="350.7139">7</text><text fill="#000000" font-family="sans-serif" font-size="13" lengthAdjust="spacing" textLength="172" x="88.5" y="350.7139">I want to see the roadNetwork</text><polygon fill="#181818" points="503.5,381.9219,513.5,385.9219,503.5,389.9219,507.5,385.9219" style="stroke:#181818;stroke-width:1.0;"/><line style="stroke:#181818;stroke-width:1.0;" x1="313.5" x2="509.5" y1="385.9219" y2="385.9219"/><text fill="#000000" font-family="sans-serif" font-size="13" font-weight="bold" lengthAdjust="spacing" textLength="7" x="320.5" y="381.0654">8</text><text fill="#000000" font-family="sans-serif" font-size="13" lengthAdjust="spacing" textLength="144" x="331.5" y="381.0654">GET getAllWarehouses()</text><polygon fill="#181818" points="788,412.2734,798,416.2734,788,420.2734,792,416.2734" style="stroke:#181818;stroke-width:1.0;"/><line style="stroke:#181818;stroke-width:1.0;" x1="525.5" x2="794" y1="416.2734" y2="416.2734"/><text fill="#000000" font-family="sans-serif" font-size="13" font-weight="bold" lengthAdjust="spacing" textLength="7" x="532.5" y="411.417">9</text><text fill="#000000" font-family="sans-serif" font-size="13" lengthAdjust="spacing" textLength="147" x="543.5" y="411.417">GET GetAllWarehouses()</text><polygon fill="#181818" points="536.5,442.625,526.5,446.625,536.5,450.625,532.5,446.625" style="stroke:#181818;stroke-width:1.0;"/><line style="stroke:#181818;stroke-width:1.0;stroke-dasharray:2.0,2.0;" x1="530.5" x2="804" y1="446.625" y2="446.625"/><text fill="#000000" font-family="sans-serif" font-size="13" font-weight="bold" lengthAdjust="spacing" textLength="14" x="542.5" y="441.7686">10</text><text fill="#000000" font-family="sans-serif" font-size="13" lengthAdjust="spacing" textLength="146" x="560.5" y="441.7686">200 OK + all warehouses</text><polygon fill="#181818" points="324.5,472.9766,314.5,476.9766,324.5,480.9766,320.5,476.9766" style="stroke:#181818;stroke-width:1.0;"/><line style="stroke:#181818;stroke-width:1.0;stroke-dasharray:2.0,2.0;" x1="318.5" x2="514.5" y1="476.9766" y2="476.9766"/><text fill="#000000" font-family="sans-serif" font-size="13" font-weight="bold" lengthAdjust="spacing" textLength="14" x="330.5" y="472.1201">11</text><text fill="#000000" font-family="sans-serif" font-size="13" lengthAdjust="spacing" textLength="146" x="348.5" y="472.1201">200 OK + all warehouses</text><path d="M238.5,491.9766 L311.5,491.9766 L311.5,500.3281 L301.5,510.3281 L238.5,510.3281 L238.5,491.9766 " fill="#EEEEEE" style="stroke:#000000;stroke-width:1.5;"/><rect fill="none" height="79.0547" style="stroke:#000000;stroke-width:1.5;" width="482" x="238.5" y="491.9766"/><text fill="#000000" font-family="sans-serif" font-size="13" font-weight="bold" lengthAdjust="spacing" textLength="28" x="253.5" y="506.4717">loop</text><text fill="#000000" font-family="sans-serif" font-size="11" font-weight="bold" lengthAdjust="spacing" textLength="119" x="326.5" y="505.3955">[for each warehouse]</text><polygon fill="#181818" points="633.5,528.6797,643.5,532.6797,633.5,536.6797,637.5,532.6797" style="stroke:#181818;stroke-width:1.0;"/><line style="stroke:#181818;stroke-width:1.0;" x1="313.5" x2="639.5" y1="532.6797" y2="532.6797"/><text fill="#000000" font-family="sans-serif" font-size="13" font-weight="bold" lengthAdjust="spacing" textLength="14" x="320.5" y="527.8232">12</text><text fill="#000000" font-family="sans-serif" font-size="13" lengthAdjust="spacing" textLength="147" x="338.5" y="527.8232">GET allPaths(warehouse)</text><polygon fill="#181818" points="324.5,559.0313,314.5,563.0313,324.5,567.0313,320.5,563.0313" style="stroke:#181818;stroke-width:1.0;"/><line style="stroke:#181818;stroke-width:1.0;stroke-dasharray:2.0,2.0;" x1="318.5" x2="644.5" y1="563.0313" y2="563.0313"/><text fill="#000000" font-family="sans-serif" font-size="13" font-weight="bold" lengthAdjust="spacing" textLength="14" x="330.5" y="558.1748">13</text><text fill="#000000" font-family="sans-serif" font-size="13" lengthAdjust="spacing" textLength="109" x="348.5" y="558.1748">200 OK + all paths</text><polygon fill="#181818" points="633.5,596.3828,643.5,600.3828,633.5,604.3828,637.5,600.3828" style="stroke:#181818;stroke-width:1.0;"/><line style="stroke:#181818;stroke-width:1.0;" x1="313.5" x2="639.5" y1="600.3828" y2="600.3828"/><text fill="#000000" font-family="sans-serif" font-size="13" font-weight="bold" lengthAdjust="spacing" textLength="14" x="320.5" y="595.5264">14</text><text fill="#000000" font-family="sans-serif" font-size="13" lengthAdjust="spacing" textLength="90" x="338.5" y="595.5264">GET allTrucks()</text><polygon fill="#181818" points="324.5,626.7344,314.5,630.7344,324.5,634.7344,320.5,630.7344" style="stroke:#181818;stroke-width:1.0;"/><line style="stroke:#181818;stroke-width:1.0;stroke-dasharray:2.0,2.0;" x1="318.5" x2="649.5" y1="630.7344" y2="630.7344"/><text fill="#000000" font-family="sans-serif" font-size="13" font-weight="bold" lengthAdjust="spacing" textLength="14" x="330.5" y="625.8779">15</text><text fill="#000000" font-family="sans-serif" font-size="13" lengthAdjust="spacing" textLength="113" x="348.5" y="625.8779">200 OK + all trucks</text><polygon fill="#181818" points="76.5,657.0859,66.5,661.0859,76.5,665.0859,72.5,661.0859" style="stroke:#181818;stroke-width:1.0;"/><line style="stroke:#181818;stroke-width:1.0;stroke-dasharray:2.0,2.0;" x1="70.5" x2="307.5" y1="661.0859" y2="661.0859"/><text fill="#000000" font-family="sans-serif" font-size="13" font-weight="bold" lengthAdjust="spacing" textLength="14" x="82.5" y="656.2295">16</text><text fill="#000000" font-family="sans-serif" font-size="13" lengthAdjust="spacing" textLength="113" x="100.5" y="656.2295">shows roadNetwork</text><!--MD5=[0e42984ff64a7ea383a7b5bc63bbb410]
@startuml seeRoadNetwork
autonumber

skinparam sequence {
ParticipantBorderColor black
ParticipantBackgroundColor white
}

actor "Logistics Manager" as manager
box "<<System(C4)>>\n System"
participant UI as UI <<Container(C4)>>
participant Auth as Auth <<Container(C4)>>
participant Logistics as Logistics <<Container(C4)>>
participant WarehouseManagement as WHM <<Container(C4)>>
end box

participant Google as Google <<System(C4)>>


activate manager
manager->UI: I want to login
activate UI

alt Login through email and password in EletricGo

UI -> Auth: POST Login(email, password)
activate Auth

Auth - -> UI: 200 OK
deactivate Auth

else Login through Google

UI -> Google: Login with Google account
activate Google
Google - -> UI: 200 OK
deactivate Google

end



UI - -> manager: informs about the success of login

manager -> UI: I want to see the roadNetwork

UI -> Auth: GET getAllWarehouses()
activate Auth
Auth -> WHM: GET GetAllWarehouses()
activate WHM

WHM - -> Auth: 200 OK + all warehouses
deactivate WHM
Auth - -> UI: 200 OK + all warehouses
loop for each warehouse
UI -> Logistics: GET allPaths(warehouse)
activate Logistics
Logistics - -> UI: 200 OK + all paths

end

UI -> Logistics: GET allTrucks()
Logistics - -> UI: 200 OK + all trucks
deactivate Logistics
UI - -> manager: shows roadNetwork

deactivate UI
deactivate manager
@enduml

PlantUML version 1.2022.7(Mon Aug 22 18:01:30 WEST 2022)
(GPL source distribution)
Java Runtime: Java(TM) SE Runtime Environment
JVM: Java HotSpot(TM) 64-Bit Server VM
Default Encoding: Cp1252
Language: en
Country: GB
--></g></svg>