<?xml version="1.0" encoding="UTF-8" standalone="no"?><svg xmlns="http://www.w3.org/2000/svg" xmlns:xlink="http://www.w3.org/1999/xlink" contentStyleType="text/css" height="1517px" preserveAspectRatio="none" style="width:2492px;height:1517px;background:#FFFFFF;" version="1.1" viewBox="0 0 2492 1517" width="2492px" zoomAndPan="magnify"><defs/><g><rect fill="#FFFFE0" height="1505.1719" style="stroke:#181818;stroke-width:0.5;" width="2162.5" x="323.5" y="6"/><text fill="#000000" font-family="sans-serif" font-size="13" font-weight="bold" lengthAdjust="spacing" textLength="102" x="1353.75" y="19.4951">&lt;&lt;System(C4)&gt;&gt;</text><text fill="#000000" font-family="sans-serif" font-size="13" font-weight="bold" lengthAdjust="spacing" textLength="46" x="1381.75" y="35.8467">System</text><rect fill="#E0FFFF" height="1467.4688" style="stroke:#181818;stroke-width:0.5;" width="653" x="323.5" y="43.7031"/><text fill="#000000" font-family="sans-serif" font-size="13" font-weight="bold" lengthAdjust="spacing" textLength="118" x="591" y="57.1982">&lt;&lt;Container(C4)&gt;&gt;</text><text fill="#000000" font-family="sans-serif" font-size="13" font-weight="bold" lengthAdjust="spacing" textLength="13" x="635" y="73.5498">UI</text><rect fill="#87CEFA" height="1467.4688" style="stroke:#181818;stroke-width:0.5;" width="669" x="988.5" y="43.7031"/><text fill="#000000" font-family="sans-serif" font-size="13" font-weight="bold" lengthAdjust="spacing" textLength="118" x="1264" y="57.1982">&lt;&lt;Container(C4)&gt;&gt;</text><text fill="#000000" font-family="sans-serif" font-size="13" font-weight="bold" lengthAdjust="spacing" textLength="92" x="1264" y="73.5498">Authentication</text><rect fill="#ADD8E6" height="1467.4688" style="stroke:#181818;stroke-width:0.5;" width="780" x="1706" y="43.7031"/><text fill="#000000" font-family="sans-serif" font-size="13" font-weight="bold" lengthAdjust="spacing" textLength="118" x="2037" y="57.1982">&lt;&lt;Container(C4)&gt;&gt;</text><text fill="#000000" font-family="sans-serif" font-size="13" font-weight="bold" lengthAdjust="spacing" textLength="55" x="2065" y="73.5498">Logistics</text><rect fill="none" height="643.8672" style="stroke:#000000;stroke-width:1.5;" width="1397.5" x="120" y="200.3672"/><line style="stroke:#181818;stroke-width:0.5;stroke-dasharray:5.0,5.0;" x1="65.5" x2="65.5" y1="158.0156" y2="1427.5625"/><rect fill="#FFFFFF" height="1256.5469" style="stroke:#181818;stroke-width:1.0;" width="10" x="60.5" y="166.0156"/><line style="stroke:#181818;stroke-width:0.5;stroke-dasharray:5.0,5.0;" x1="188" x2="188" y1="158.0156" y2="1427.5625"/><rect fill="#FFFFFF" height="30.3516" style="stroke:#181818;stroke-width:1.0;" width="10" x="183" y="563.0703"/><line style="stroke:#181818;stroke-width:0.5;stroke-dasharray:5.0,5.0;" x1="393" x2="393" y1="158.0156" y2="1427.5625"/><rect fill="#FFFFFF" height="692.2188" style="stroke:#181818;stroke-width:1.0;" width="10" x="388" y="188.3672"/><line style="stroke:#181818;stroke-width:0.5;stroke-dasharray:5.0,5.0;" x1="562" x2="562" y1="158.0156" y2="1427.5625"/><rect fill="#FFFFFF" height="255.8125" style="stroke:#181818;stroke-width:1.0;" width="10" x="557" y="251.0703"/><rect fill="#FFFFFF" height="212.4609" style="stroke:#181818;stroke-width:1.0;" width="10" x="557" y="623.7734"/><line style="stroke:#181818;stroke-width:0.5;stroke-dasharray:5.0,5.0;" x1="714" x2="714" y1="158.0156" y2="1427.5625"/><rect fill="#FFFFFF" height="498.625" style="stroke:#181818;stroke-width:1.0;" width="10" x="709" y="910.9375"/><line style="stroke:#181818;stroke-width:0.5;stroke-dasharray:5.0,5.0;" x1="907" x2="907" y1="158.0156" y2="1427.5625"/><rect fill="#FFFFFF" height="437.9219" style="stroke:#181818;stroke-width:1.0;" width="10" x="902" y="941.2891"/><line style="stroke:#181818;stroke-width:0.5;stroke-dasharray:5.0,5.0;" x1="1052.5" x2="1052.5" y1="158.0156" y2="1427.5625"/><rect fill="#FFFFFF" height="195.1094" style="stroke:#181818;stroke-width:1.0;" width="10" x="1047.5" y="281.4219"/><rect fill="#FFFFFF" height="151.7578" style="stroke:#181818;stroke-width:1.0;" width="10" x="1047.5" y="654.125"/><line style="stroke:#181818;stroke-width:0.5;stroke-dasharray:5.0,5.0;" x1="1221.5" x2="1221.5" y1="158.0156" y2="1427.5625"/><rect fill="#FFFFFF" height="134.4063" style="stroke:#181818;stroke-width:1.0;" width="10" x="1216.5" y="311.7734"/><rect fill="#FFFFFF" height="91.0547" style="stroke:#181818;stroke-width:1.0;" width="10" x="1216.5" y="684.4766"/><line style="stroke:#181818;stroke-width:0.5;stroke-dasharray:5.0,5.0;" x1="1441.5" x2="1441.5" y1="158.0156" y2="1427.5625"/><rect fill="#FFFFFF" height="30.3516" style="stroke:#181818;stroke-width:1.0;" width="10" x="1436.5" y="342.125"/><rect fill="#FFFFFF" height="30.3516" style="stroke:#181818;stroke-width:1.0;" width="10" x="1436.5" y="714.8281"/><line style="stroke:#181818;stroke-width:0.5;stroke-dasharray:5.0,5.0;" x1="1582.5" x2="1582.5" y1="158.0156" y2="1427.5625"/><rect fill="#FFFFFF" height="377.2188" style="stroke:#181818;stroke-width:1.0;" width="10" x="1577.5" y="971.6406"/><line style="stroke:#181818;stroke-width:0.5;stroke-dasharray:5.0,5.0;" x1="1775.5" x2="1775.5" y1="158.0156" y2="1427.5625"/><rect fill="#FFFFFF" height="273.1641" style="stroke:#181818;stroke-width:1.0;" width="10" x="1770.5" y="1045.3438"/><line style="stroke:#181818;stroke-width:0.5;stroke-dasharray:5.0,5.0;" x1="1968.5" x2="1968.5" y1="158.0156" y2="1427.5625"/><rect fill="#FFFFFF" height="212.4609" style="stroke:#181818;stroke-width:1.0;" width="10" x="1963.5" y="1075.6953"/><line style="stroke:#181818;stroke-width:0.5;stroke-dasharray:5.0,5.0;" x1="2117.5" x2="2117.5" y1="158.0156" y2="1427.5625"/><rect fill="#FFFFFF" height="151.7578" style="stroke:#181818;stroke-width:1.0;" width="10" x="2112.5" y="1106.0469"/><line style="stroke:#181818;stroke-width:0.5;stroke-dasharray:5.0,5.0;" x1="2267" x2="2267" y1="158.0156" y2="1427.5625"/><rect fill="#FFFFFF" height="91.0547" style="stroke:#181818;stroke-width:1.0;" width="10" x="2262" y="1136.3984"/><line style="stroke:#181818;stroke-width:0.5;stroke-dasharray:5.0,5.0;" x1="2416.5" x2="2416.5" y1="158.0156" y2="1427.5625"/><rect fill="#FFFFFF" height="30.3516" style="stroke:#181818;stroke-width:1.0;" width="10" x="2411.5" y="1166.75"/><text fill="#000000" font-family="sans-serif" font-size="14" lengthAdjust="spacing" textLength="115" x="5" y="154.9395">Logistics Manager</text><ellipse cx="65.5" cy="88.9063" fill="#E2E2F0" rx="8" ry="8" style="stroke:#181818;stroke-width:0.5;"/><path d="M65.5,96.9063 L65.5,123.9063 M52.5,104.9063 L78.5,104.9063 M65.5,123.9063 L52.5,138.9063 M65.5,123.9063 L78.5,138.9063 " fill="none" style="stroke:#181818;stroke-width:0.5;"/><rect fill="#FFFFFF" height="49.2188" rx="2.5" ry="2.5" style="stroke:#000000;stroke-width:0.5;" width="104" x="136" y="107.7969"/><text fill="#000000" font-family="sans-serif" font-size="14" font-style="italic" lengthAdjust="spacing" textLength="90" x="143" y="129.3301">«System(C4)»</text><text fill="#000000" font-family="sans-serif" font-size="14" lengthAdjust="spacing" textLength="46" x="165" y="146.9395">Google</text><rect fill="#FFFFFF" height="49.2188" rx="2.5" ry="2.5" style="stroke:#000000;stroke-width:0.5;" width="131" x="327.5" y="107.7969"/><text fill="#000000" font-family="sans-serif" font-size="14" font-style="italic" lengthAdjust="spacing" textLength="117" x="334.5" y="129.3301">«Component(C4)»</text><text fill="#000000" font-family="sans-serif" font-size="14" lengthAdjust="spacing" textLength="97" x="344.5" y="146.9395">LoginController</text><rect fill="#FFFFFF" height="49.2188" rx="2.5" ry="2.5" style="stroke:#000000;stroke-width:0.5;" width="131" x="496.5" y="107.7969"/><text fill="#000000" font-family="sans-serif" font-size="14" font-style="italic" lengthAdjust="spacing" textLength="117" x="503.5" y="129.3301">«Component(C4)»</text><text fill="#000000" font-family="sans-serif" font-size="14" lengthAdjust="spacing" textLength="82" x="521" y="146.9395">LoginService</text><rect fill="#FFFFFF" height="49.2188" rx="2.5" ry="2.5" style="stroke:#000000;stroke-width:0.5;" width="153" x="637.5" y="107.7969"/><text fill="#000000" font-family="sans-serif" font-size="14" font-style="italic" lengthAdjust="spacing" textLength="117" x="655.5" y="129.3301">«Component(C4)»</text><text fill="#000000" font-family="sans-serif" font-size="14" lengthAdjust="spacing" textLength="139" x="644.5" y="146.9395">PackagingComponent</text><rect fill="#FFFFFF" height="49.2188" rx="2.5" ry="2.5" style="stroke:#000000;stroke-width:0.5;" width="131" x="841.5" y="107.7969"/><text fill="#000000" font-family="sans-serif" font-size="14" font-style="italic" lengthAdjust="spacing" textLength="117" x="848.5" y="129.3301">«Component(C4)»</text><text fill="#000000" font-family="sans-serif" font-size="14" lengthAdjust="spacing" textLength="113" x="850.5" y="146.9395">PackagingService</text><rect fill="#FFFFFF" height="49.2188" rx="2.5" ry="2.5" style="stroke:#000000;stroke-width:0.5;" width="120" x="992.5" y="107.7969"/><text fill="#000000" font-family="sans-serif" font-size="14" font-style="italic" lengthAdjust="spacing" textLength="106" x="999.5" y="129.3301">«Container(C4)»</text><text fill="#000000" font-family="sans-serif" font-size="14" lengthAdjust="spacing" textLength="91" x="1007" y="146.9395">UserController</text><rect fill="#FFFFFF" height="49.2188" rx="2.5" ry="2.5" style="stroke:#000000;stroke-width:0.5;" width="120" x="1161.5" y="107.7969"/><text fill="#000000" font-family="sans-serif" font-size="14" font-style="italic" lengthAdjust="spacing" textLength="106" x="1168.5" y="129.3301">«Container(C4)»</text><text fill="#000000" font-family="sans-serif" font-size="14" lengthAdjust="spacing" textLength="76" x="1183.5" y="146.9395">UserService</text><rect fill="#FFFFFF" height="49.2188" rx="2.5" ry="2.5" style="stroke:#000000;stroke-width:0.5;" width="120" x="1381.5" y="107.7969"/><text fill="#000000" font-family="sans-serif" font-size="14" font-style="italic" lengthAdjust="spacing" textLength="106" x="1388.5" y="129.3301">«Container(C4)»</text><text fill="#000000" font-family="sans-serif" font-size="14" lengthAdjust="spacing" textLength="97" x="1393" y="146.9395">UserRepository</text><rect fill="#FFFFFF" height="49.2188" rx="2.5" ry="2.5" style="stroke:#000000;stroke-width:0.5;" width="142" x="1511.5" y="107.7969"/><text fill="#000000" font-family="sans-serif" font-size="14" font-style="italic" lengthAdjust="spacing" textLength="106" x="1529.5" y="129.3301">«Container(C4)»</text><text fill="#000000" font-family="sans-serif" font-size="14" lengthAdjust="spacing" textLength="128" x="1518.5" y="146.9395">PackagingController</text><rect fill="#FFFFFF" height="49.2188" rx="2.5" ry="2.5" style="stroke:#000000;stroke-width:0.5;" width="131" x="1710" y="107.7969"/><text fill="#000000" font-family="sans-serif" font-size="14" font-style="italic" lengthAdjust="spacing" textLength="117" x="1717" y="129.3301">«Component(C4)»</text><text fill="#000000" font-family="sans-serif" font-size="14" lengthAdjust="spacing" textLength="104" x="1723.5" y="146.9395">PackagingRoute</text><rect fill="#FFFFFF" height="49.2188" rx="2.5" ry="2.5" style="stroke:#000000;stroke-width:0.5;" width="142" x="1897.5" y="107.7969"/><text fill="#000000" font-family="sans-serif" font-size="14" font-style="italic" lengthAdjust="spacing" textLength="117" x="1910" y="129.3301">«Component(C4)»</text><text fill="#000000" font-family="sans-serif" font-size="14" lengthAdjust="spacing" textLength="128" x="1904.5" y="146.9395">PackagingController</text><rect fill="#FFFFFF" height="49.2188" rx="2.5" ry="2.5" style="stroke:#000000;stroke-width:0.5;" width="131" x="2052" y="107.7969"/><text fill="#000000" font-family="sans-serif" font-size="14" font-style="italic" lengthAdjust="spacing" textLength="117" x="2059" y="129.3301">«Component(C4)»</text><text fill="#000000" font-family="sans-serif" font-size="14" lengthAdjust="spacing" textLength="113" x="2061" y="146.9395">PackagingService</text><rect fill="#FFFFFF" height="49.2188" rx="2.5" ry="2.5" style="stroke:#000000;stroke-width:0.5;" width="148" x="2193" y="107.7969"/><text fill="#000000" font-family="sans-serif" font-size="14" font-style="italic" lengthAdjust="spacing" textLength="117" x="2208.5" y="129.3301">«Component(C4)»</text><text fill="#000000" font-family="sans-serif" font-size="14" lengthAdjust="spacing" textLength="134" x="2200" y="146.9395">PackagingRepository</text><rect fill="#FFFFFF" height="49.2188" rx="2.5" ry="2.5" style="stroke:#000000;stroke-width:0.5;" width="131" x="2351" y="107.7969"/><text fill="#000000" font-family="sans-serif" font-size="14" font-style="italic" lengthAdjust="spacing" textLength="117" x="2358" y="129.3301">«Component(C4)»</text><text fill="#000000" font-family="sans-serif" font-size="14" lengthAdjust="spacing" textLength="74" x="2379.5" y="146.9395">Persistence</text><text fill="#000000" font-family="sans-serif" font-size="14" lengthAdjust="spacing" textLength="115" x="5" y="1502.0957">Logistics Manager</text><ellipse cx="65.5" cy="1436.0625" fill="#E2E2F0" rx="8" ry="8" style="stroke:#181818;stroke-width:0.5;"/><path d="M65.5,1444.0625 L65.5,1471.0625 M52.5,1452.0625 L78.5,1452.0625 M65.5,1471.0625 L52.5,1486.0625 M65.5,1471.0625 L78.5,1486.0625 " fill="none" style="stroke:#181818;stroke-width:0.5;"/><rect fill="#FFFFFF" height="49.2188" rx="2.5" ry="2.5" style="stroke:#000000;stroke-width:0.5;" width="104" x="136" y="1427.5625"/><text fill="#000000" font-family="sans-serif" font-size="14" font-style="italic" lengthAdjust="spacing" textLength="90" x="143" y="1449.0957">«System(C4)»</text><text fill="#000000" font-family="sans-serif" font-size="14" lengthAdjust="spacing" textLength="46" x="165" y="1466.7051">Google</text><rect fill="#FFFFFF" height="49.2188" rx="2.5" ry="2.5" style="stroke:#000000;stroke-width:0.5;" width="131" x="327.5" y="1427.5625"/><text fill="#000000" font-family="sans-serif" font-size="14" font-style="italic" lengthAdjust="spacing" textLength="117" x="334.5" y="1449.0957">«Component(C4)»</text><text fill="#000000" font-family="sans-serif" font-size="14" lengthAdjust="spacing" textLength="97" x="344.5" y="1466.7051">LoginController</text><rect fill="#FFFFFF" height="49.2188" rx="2.5" ry="2.5" style="stroke:#000000;stroke-width:0.5;" width="131" x="496.5" y="1427.5625"/><text fill="#000000" font-family="sans-serif" font-size="14" font-style="italic" lengthAdjust="spacing" textLength="117" x="503.5" y="1449.0957">«Component(C4)»</text><text fill="#000000" font-family="sans-serif" font-size="14" lengthAdjust="spacing" textLength="82" x="521" y="1466.7051">LoginService</text><rect fill="#FFFFFF" height="49.2188" rx="2.5" ry="2.5" style="stroke:#000000;stroke-width:0.5;" width="153" x="637.5" y="1427.5625"/><text fill="#000000" font-family="sans-serif" font-size="14" font-style="italic" lengthAdjust="spacing" textLength="117" x="655.5" y="1449.0957">«Component(C4)»</text><text fill="#000000" font-family="sans-serif" font-size="14" lengthAdjust="spacing" textLength="139" x="644.5" y="1466.7051">PackagingComponent</text><rect fill="#FFFFFF" height="49.2188" rx="2.5" ry="2.5" style="stroke:#000000;stroke-width:0.5;" width="131" x="841.5" y="1427.5625"/><text fill="#000000" font-family="sans-serif" font-size="14" font-style="italic" lengthAdjust="spacing" textLength="117" x="848.5" y="1449.0957">«Component(C4)»</text><text fill="#000000" font-family="sans-serif" font-size="14" lengthAdjust="spacing" textLength="113" x="850.5" y="1466.7051">PackagingService</text><rect fill="#FFFFFF" height="49.2188" rx="2.5" ry="2.5" style="stroke:#000000;stroke-width:0.5;" width="120" x="992.5" y="1427.5625"/><text fill="#000000" font-family="sans-serif" font-size="14" font-style="italic" lengthAdjust="spacing" textLength="106" x="999.5" y="1449.0957">«Container(C4)»</text><text fill="#000000" font-family="sans-serif" font-size="14" lengthAdjust="spacing" textLength="91" x="1007" y="1466.7051">UserController</text><rect fill="#FFFFFF" height="49.2188" rx="2.5" ry="2.5" style="stroke:#000000;stroke-width:0.5;" width="120" x="1161.5" y="1427.5625"/><text fill="#000000" font-family="sans-serif" font-size="14" font-style="italic" lengthAdjust="spacing" textLength="106" x="1168.5" y="1449.0957">«Container(C4)»</text><text fill="#000000" font-family="sans-serif" font-size="14" lengthAdjust="spacing" textLength="76" x="1183.5" y="1466.7051">UserService</text><rect fill="#FFFFFF" height="49.2188" rx="2.5" ry="2.5" style="stroke:#000000;stroke-width:0.5;" width="120" x="1381.5" y="1427.5625"/><text fill="#000000" font-family="sans-serif" font-size="14" font-style="italic" lengthAdjust="spacing" textLength="106" x="1388.5" y="1449.0957">«Container(C4)»</text><text fill="#000000" font-family="sans-serif" font-size="14" lengthAdjust="spacing" textLength="97" x="1393" y="1466.7051">UserRepository</text><rect fill="#FFFFFF" height="49.2188" rx="2.5" ry="2.5" style="stroke:#000000;stroke-width:0.5;" width="142" x="1511.5" y="1427.5625"/><text fill="#000000" font-family="sans-serif" font-size="14" font-style="italic" lengthAdjust="spacing" textLength="106" x="1529.5" y="1449.0957">«Container(C4)»</text><text fill="#000000" font-family="sans-serif" font-size="14" lengthAdjust="spacing" textLength="128" x="1518.5" y="1466.7051">PackagingController</text><rect fill="#FFFFFF" height="49.2188" rx="2.5" ry="2.5" style="stroke:#000000;stroke-width:0.5;" width="131" x="1710" y="1427.5625"/><text fill="#000000" font-family="sans-serif" font-size="14" font-style="italic" lengthAdjust="spacing" textLength="117" x="1717" y="1449.0957">«Component(C4)»</text><text fill="#000000" font-family="sans-serif" font-size="14" lengthAdjust="spacing" textLength="104" x="1723.5" y="1466.7051">PackagingRoute</text><rect fill="#FFFFFF" height="49.2188" rx="2.5" ry="2.5" style="stroke:#000000;stroke-width:0.5;" width="142" x="1897.5" y="1427.5625"/><text fill="#000000" font-family="sans-serif" font-size="14" font-style="italic" lengthAdjust="spacing" textLength="117" x="1910" y="1449.0957">«Component(C4)»</text><text fill="#000000" font-family="sans-serif" font-size="14" lengthAdjust="spacing" textLength="128" x="1904.5" y="1466.7051">PackagingController</text><rect fill="#FFFFFF" height="49.2188" rx="2.5" ry="2.5" style="stroke:#000000;stroke-width:0.5;" width="131" x="2052" y="1427.5625"/><text fill="#000000" font-family="sans-serif" font-size="14" font-style="italic" lengthAdjust="spacing" textLength="117" x="2059" y="1449.0957">«Component(C4)»</text><text fill="#000000" font-family="sans-serif" font-size="14" lengthAdjust="spacing" textLength="113" x="2061" y="1466.7051">PackagingService</text><rect fill="#FFFFFF" height="49.2188" rx="2.5" ry="2.5" style="stroke:#000000;stroke-width:0.5;" width="148" x="2193" y="1427.5625"/><text fill="#000000" font-family="sans-serif" font-size="14" font-style="italic" lengthAdjust="spacing" textLength="117" x="2208.5" y="1449.0957">«Component(C4)»</text><text fill="#000000" font-family="sans-serif" font-size="14" lengthAdjust="spacing" textLength="134" x="2200" y="1466.7051">PackagingRepository</text><rect fill="#FFFFFF" height="49.2188" rx="2.5" ry="2.5" style="stroke:#000000;stroke-width:0.5;" width="131" x="2351" y="1427.5625"/><text fill="#000000" font-family="sans-serif" font-size="14" font-style="italic" lengthAdjust="spacing" textLength="117" x="2358" y="1449.0957">«Component(C4)»</text><text fill="#000000" font-family="sans-serif" font-size="14" lengthAdjust="spacing" textLength="74" x="2379.5" y="1466.7051">Persistence</text><polygon fill="#181818" points="376,184.3672,386,188.3672,376,192.3672,380,188.3672" style="stroke:#181818;stroke-width:1.0;"/><line style="stroke:#181818;stroke-width:1.0;" x1="70.5" x2="382" y1="188.3672" y2="188.3672"/><text fill="#000000" font-family="sans-serif" font-size="13" font-weight="bold" lengthAdjust="spacing" textLength="7" x="77.5" y="183.5107">1</text><text fill="#000000" font-family="sans-serif" font-size="13" lengthAdjust="spacing" textLength="80" x="88.5" y="183.5107">I want to login</text><path d="M120,200.3672 L181,200.3672 L181,208.7188 L171,218.7188 L120,218.7188 L120,200.3672 " fill="#EEEEEE" style="stroke:#000000;stroke-width:1.5;"/><rect fill="none" height="643.8672" style="stroke:#000000;stroke-width:1.5;" width="1397.5" x="120" y="200.3672"/><text fill="#000000" font-family="sans-serif" font-size="13" font-weight="bold" lengthAdjust="spacing" textLength="16" x="135" y="214.8623">alt</text><text fill="#000000" font-family="sans-serif" font-size="11" font-weight="bold" lengthAdjust="spacing" textLength="266" x="196" y="213.7861">[Login through email and password in EletricGo]</text><line style="stroke:#000000;stroke-width:1.0;stroke-dasharray:2.0,2.0;" x1="120" x2="1517.5" y1="525.8828" y2="525.8828"/><text fill="#000000" font-family="sans-serif" font-size="11" font-weight="bold" lengthAdjust="spacing" textLength="128" x="125" y="537.3018">[Login through Google]</text><polygon fill="#181818" points="545,247.0703,555,251.0703,545,255.0703,549,251.0703" style="stroke:#181818;stroke-width:1.0;"/><line style="stroke:#181818;stroke-width:1.0;" x1="398" x2="551" y1="251.0703" y2="251.0703"/><text fill="#000000" font-family="sans-serif" font-size="13" font-weight="bold" lengthAdjust="spacing" textLength="7" x="405" y="246.2139">2</text><text fill="#000000" font-family="sans-serif" font-size="13" lengthAdjust="spacing" textLength="129" x="416" y="246.2139">login(email, password)</text><polygon fill="#181818" points="1035.5,277.4219,1045.5,281.4219,1035.5,285.4219,1039.5,281.4219" style="stroke:#181818;stroke-width:1.0;"/><line style="stroke:#181818;stroke-width:1.0;" x1="567" x2="1041.5" y1="281.4219" y2="281.4219"/><text fill="#000000" font-family="sans-serif" font-size="13" font-weight="bold" lengthAdjust="spacing" textLength="7" x="574" y="276.5654">3</text><text fill="#000000" font-family="sans-serif" font-size="13" lengthAdjust="spacing" textLength="172" x="585" y="276.5654">POST Login(email, password)</text><polygon fill="#181818" points="1204.5,307.7734,1214.5,311.7734,1204.5,315.7734,1208.5,311.7734" style="stroke:#181818;stroke-width:1.0;"/><line style="stroke:#181818;stroke-width:1.0;" x1="1057.5" x2="1210.5" y1="311.7734" y2="311.7734"/><text fill="#000000" font-family="sans-serif" font-size="13" font-weight="bold" lengthAdjust="spacing" textLength="7" x="1064.5" y="306.917">4</text><text fill="#000000" font-family="sans-serif" font-size="13" lengthAdjust="spacing" textLength="129" x="1075.5" y="306.917">login(email, password)</text><polygon fill="#181818" points="1424.5,338.125,1434.5,342.125,1424.5,346.125,1428.5,342.125" style="stroke:#181818;stroke-width:1.0;"/><line style="stroke:#181818;stroke-width:1.0;" x1="1226.5" x2="1430.5" y1="342.125" y2="342.125"/><text fill="#000000" font-family="sans-serif" font-size="13" font-weight="bold" lengthAdjust="spacing" textLength="7" x="1233.5" y="337.2686">5</text><text fill="#000000" font-family="sans-serif" font-size="13" lengthAdjust="spacing" textLength="108" x="1244.5" y="337.2686">findByEmail(email)</text><polygon fill="#181818" points="1237.5,368.4766,1227.5,372.4766,1237.5,376.4766,1233.5,372.4766" style="stroke:#181818;stroke-width:1.0;"/><line style="stroke:#181818;stroke-width:1.0;stroke-dasharray:2.0,2.0;" x1="1231.5" x2="1435.5" y1="372.4766" y2="372.4766"/><text fill="#000000" font-family="sans-serif" font-size="13" font-weight="bold" lengthAdjust="spacing" textLength="7" x="1243.5" y="367.6201">6</text><text fill="#000000" font-family="sans-serif" font-size="13" lengthAdjust="spacing" textLength="27" x="1254.5" y="367.6201">User</text><line style="stroke:#181818;stroke-width:1.0;" x1="1226.5" x2="1268.5" y1="402.8281" y2="402.8281"/><line style="stroke:#181818;stroke-width:1.0;" x1="1268.5" x2="1268.5" y1="402.8281" y2="415.8281"/><line style="stroke:#181818;stroke-width:1.0;" x1="1227.5" x2="1268.5" y1="415.8281" y2="415.8281"/><polygon fill="#181818" points="1237.5,411.8281,1227.5,415.8281,1237.5,419.8281,1233.5,415.8281" style="stroke:#181818;stroke-width:1.0;"/><text fill="#000000" font-family="sans-serif" font-size="13" font-weight="bold" lengthAdjust="spacing" textLength="7" x="1233.5" y="397.9717">7</text><text fill="#000000" font-family="sans-serif" font-size="13" lengthAdjust="spacing" textLength="190" x="1244.5" y="397.9717">checkPassword(password, User)</text><polygon fill="#181818" points="1068.5,442.1797,1058.5,446.1797,1068.5,450.1797,1064.5,446.1797" style="stroke:#181818;stroke-width:1.0;"/><line style="stroke:#181818;stroke-width:1.0;stroke-dasharray:2.0,2.0;" x1="1062.5" x2="1215.5" y1="446.1797" y2="446.1797"/><text fill="#000000" font-family="sans-serif" font-size="13" font-weight="bold" lengthAdjust="spacing" textLength="7" x="1074.5" y="441.3232">8</text><text fill="#000000" font-family="sans-serif" font-size="13" lengthAdjust="spacing" textLength="51" x="1085.5" y="441.3232">Success</text><polygon fill="#181818" points="578,472.5313,568,476.5313,578,480.5313,574,476.5313" style="stroke:#181818;stroke-width:1.0;"/><line style="stroke:#181818;stroke-width:1.0;stroke-dasharray:2.0,2.0;" x1="572" x2="1046.5" y1="476.5313" y2="476.5313"/><text fill="#000000" font-family="sans-serif" font-size="13" font-weight="bold" lengthAdjust="spacing" textLength="7" x="584" y="471.6748">9</text><text fill="#000000" font-family="sans-serif" font-size="13" lengthAdjust="spacing" textLength="100" x="595" y="471.6748">200 OK + Cookie</text><polygon fill="#181818" points="409,502.8828,399,506.8828,409,510.8828,405,506.8828" style="stroke:#181818;stroke-width:1.0;"/><line style="stroke:#181818;stroke-width:1.0;stroke-dasharray:2.0,2.0;" x1="403" x2="556" y1="506.8828" y2="506.8828"/><text fill="#000000" font-family="sans-serif" font-size="13" font-weight="bold" lengthAdjust="spacing" textLength="14" x="415" y="502.0264">10</text><text fill="#000000" font-family="sans-serif" font-size="13" lengthAdjust="spacing" textLength="44" x="433" y="502.0264">200 OK</text><polygon fill="#181818" points="204,559.0703,194,563.0703,204,567.0703,200,563.0703" style="stroke:#181818;stroke-width:1.0;"/><line style="stroke:#181818;stroke-width:1.0;" x1="198" x2="387" y1="563.0703" y2="563.0703"/><text fill="#000000" font-family="sans-serif" font-size="13" font-weight="bold" lengthAdjust="spacing" textLength="14" x="210" y="558.2139">11</text><text fill="#000000" font-family="sans-serif" font-size="13" lengthAdjust="spacing" textLength="153" x="228" y="558.2139">Login with Google account</text><polygon fill="#181818" points="376,589.4219,386,593.4219,376,597.4219,380,593.4219" style="stroke:#181818;stroke-width:1.0;"/><line style="stroke:#181818;stroke-width:1.0;stroke-dasharray:2.0,2.0;" x1="193" x2="382" y1="593.4219" y2="593.4219"/><text fill="#000000" font-family="sans-serif" font-size="13" font-weight="bold" lengthAdjust="spacing" textLength="14" x="200" y="588.5654">12</text><text fill="#000000" font-family="sans-serif" font-size="13" lengthAdjust="spacing" textLength="44" x="218" y="588.5654">200 OK</text><polygon fill="#181818" points="545,619.7734,555,623.7734,545,627.7734,549,623.7734" style="stroke:#181818;stroke-width:1.0;"/><line style="stroke:#181818;stroke-width:1.0;" x1="398" x2="551" y1="623.7734" y2="623.7734"/><text fill="#000000" font-family="sans-serif" font-size="13" font-weight="bold" lengthAdjust="spacing" textLength="14" x="405" y="618.917">13</text><text fill="#000000" font-family="sans-serif" font-size="13" lengthAdjust="spacing" textLength="103" x="423" y="618.917">loginWithGoogle()</text><polygon fill="#181818" points="1035.5,650.125,1045.5,654.125,1035.5,658.125,1039.5,654.125" style="stroke:#181818;stroke-width:1.0;"/><line style="stroke:#181818;stroke-width:1.0;" x1="567" x2="1041.5" y1="654.125" y2="654.125"/><text fill="#000000" font-family="sans-serif" font-size="13" font-weight="bold" lengthAdjust="spacing" textLength="14" x="574" y="649.2686">14</text><text fill="#000000" font-family="sans-serif" font-size="13" lengthAdjust="spacing" textLength="146" x="592" y="649.2686">POST LoginWithGoogle()</text><polygon fill="#181818" points="1204.5,680.4766,1214.5,684.4766,1204.5,688.4766,1208.5,684.4766" style="stroke:#181818;stroke-width:1.0;"/><line style="stroke:#181818;stroke-width:1.0;" x1="1057.5" x2="1210.5" y1="684.4766" y2="684.4766"/><text fill="#000000" font-family="sans-serif" font-size="13" font-weight="bold" lengthAdjust="spacing" textLength="14" x="1064.5" y="679.6201">15</text><text fill="#000000" font-family="sans-serif" font-size="13" lengthAdjust="spacing" textLength="70" x="1082.5" y="679.6201">userExists()</text><polygon fill="#181818" points="1424.5,710.8281,1434.5,714.8281,1424.5,718.8281,1428.5,714.8281" style="stroke:#181818;stroke-width:1.0;"/><line style="stroke:#181818;stroke-width:1.0;" x1="1226.5" x2="1430.5" y1="714.8281" y2="714.8281"/><text fill="#000000" font-family="sans-serif" font-size="13" font-weight="bold" lengthAdjust="spacing" textLength="14" x="1233.5" y="709.9717">16</text><text fill="#000000" font-family="sans-serif" font-size="13" lengthAdjust="spacing" textLength="108" x="1251.5" y="709.9717">findByEmail(email)</text><polygon fill="#181818" points="1237.5,741.1797,1227.5,745.1797,1237.5,749.1797,1233.5,745.1797" style="stroke:#181818;stroke-width:1.0;"/><line style="stroke:#181818;stroke-width:1.0;stroke-dasharray:2.0,2.0;" x1="1231.5" x2="1435.5" y1="745.1797" y2="745.1797"/><text fill="#000000" font-family="sans-serif" font-size="13" font-weight="bold" lengthAdjust="spacing" textLength="14" x="1243.5" y="740.3232">17</text><text fill="#000000" font-family="sans-serif" font-size="13" lengthAdjust="spacing" textLength="27" x="1261.5" y="740.3232">User</text><polygon fill="#181818" points="1068.5,771.5313,1058.5,775.5313,1068.5,779.5313,1064.5,775.5313" style="stroke:#181818;stroke-width:1.0;"/><line style="stroke:#181818;stroke-width:1.0;stroke-dasharray:2.0,2.0;" x1="1062.5" x2="1215.5" y1="775.5313" y2="775.5313"/><text fill="#000000" font-family="sans-serif" font-size="13" font-weight="bold" lengthAdjust="spacing" textLength="14" x="1074.5" y="770.6748">18</text><text fill="#000000" font-family="sans-serif" font-size="13" lengthAdjust="spacing" textLength="27" x="1092.5" y="770.6748">User</text><polygon fill="#181818" points="578,801.8828,568,805.8828,578,809.8828,574,805.8828" style="stroke:#181818;stroke-width:1.0;"/><line style="stroke:#181818;stroke-width:1.0;stroke-dasharray:2.0,2.0;" x1="572" x2="1046.5" y1="805.8828" y2="805.8828"/><text fill="#000000" font-family="sans-serif" font-size="13" font-weight="bold" lengthAdjust="spacing" textLength="14" x="584" y="801.0264">19</text><text fill="#000000" font-family="sans-serif" font-size="13" lengthAdjust="spacing" textLength="100" x="602" y="801.0264">200 OK + Cookie</text><polygon fill="#181818" points="409,832.2344,399,836.2344,409,840.2344,405,836.2344" style="stroke:#181818;stroke-width:1.0;"/><line style="stroke:#181818;stroke-width:1.0;stroke-dasharray:2.0,2.0;" x1="403" x2="556" y1="836.2344" y2="836.2344"/><text fill="#000000" font-family="sans-serif" font-size="13" font-weight="bold" lengthAdjust="spacing" textLength="14" x="415" y="831.3779">20</text><text fill="#000000" font-family="sans-serif" font-size="13" lengthAdjust="spacing" textLength="44" x="433" y="831.3779">200 OK</text><polygon fill="#181818" points="81.5,876.5859,71.5,880.5859,81.5,884.5859,77.5,880.5859" style="stroke:#181818;stroke-width:1.0;"/><line style="stroke:#181818;stroke-width:1.0;stroke-dasharray:2.0,2.0;" x1="75.5" x2="387" y1="880.5859" y2="880.5859"/><text fill="#000000" font-family="sans-serif" font-size="13" font-weight="bold" lengthAdjust="spacing" textLength="14" x="87.5" y="875.7295">21</text><text fill="#000000" font-family="sans-serif" font-size="13" lengthAdjust="spacing" textLength="198" x="105.5" y="875.7295">informs about the success of login</text><polygon fill="#181818" points="697,906.9375,707,910.9375,697,914.9375,701,910.9375" style="stroke:#181818;stroke-width:1.0;"/><line style="stroke:#181818;stroke-width:1.0;" x1="70.5" x2="703" y1="910.9375" y2="910.9375"/><text fill="#000000" font-family="sans-serif" font-size="13" font-weight="bold" lengthAdjust="spacing" textLength="14" x="77.5" y="906.0811">22</text><text fill="#000000" font-family="sans-serif" font-size="13" lengthAdjust="spacing" textLength="160" x="95.5" y="906.0811">I want to get all Packagings</text><polygon fill="#181818" points="890,937.2891,900,941.2891,890,945.2891,894,941.2891" style="stroke:#181818;stroke-width:1.0;"/><line style="stroke:#181818;stroke-width:1.0;" x1="719" x2="896" y1="941.2891" y2="941.2891"/><text fill="#000000" font-family="sans-serif" font-size="13" font-weight="bold" lengthAdjust="spacing" textLength="14" x="726" y="936.4326">23</text><text fill="#000000" font-family="sans-serif" font-size="13" lengthAdjust="spacing" textLength="109" x="744" y="936.4326">getAllPackagings()</text><polygon fill="#181818" points="1565.5,967.6406,1575.5,971.6406,1565.5,975.6406,1569.5,971.6406" style="stroke:#181818;stroke-width:1.0;"/><line style="stroke:#181818;stroke-width:1.0;" x1="912" x2="1571.5" y1="971.6406" y2="971.6406"/><text fill="#000000" font-family="sans-serif" font-size="13" font-weight="bold" lengthAdjust="spacing" textLength="14" x="919" y="966.7842">24</text><text fill="#000000" font-family="sans-serif" font-size="13" lengthAdjust="spacing" textLength="139" x="937" y="966.7842">GET getAllPackagings()</text><line style="stroke:#181818;stroke-width:1.0;" x1="1587.5" x2="1629.5" y1="1001.9922" y2="1001.9922"/><line style="stroke:#181818;stroke-width:1.0;" x1="1629.5" x2="1629.5" y1="1001.9922" y2="1014.9922"/><line style="stroke:#181818;stroke-width:1.0;" x1="1588.5" x2="1629.5" y1="1014.9922" y2="1014.9922"/><polygon fill="#181818" points="1598.5,1010.9922,1588.5,1014.9922,1598.5,1018.9922,1594.5,1014.9922" style="stroke:#181818;stroke-width:1.0;"/><text fill="#000000" font-family="sans-serif" font-size="13" font-weight="bold" lengthAdjust="spacing" textLength="14" x="1594.5" y="997.1357">25</text><text fill="#000000" font-family="sans-serif" font-size="13" lengthAdjust="spacing" textLength="83" x="1612.5" y="997.1357">checkCookie()</text><polygon fill="#181818" points="1758.5,1041.3438,1768.5,1045.3438,1758.5,1049.3438,1762.5,1045.3438" style="stroke:#181818;stroke-width:1.0;"/><line style="stroke:#181818;stroke-width:1.0;" x1="1587.5" x2="1764.5" y1="1045.3438" y2="1045.3438"/><text fill="#000000" font-family="sans-serif" font-size="13" font-weight="bold" lengthAdjust="spacing" textLength="14" x="1594.5" y="1040.4873">26</text><text fill="#000000" font-family="sans-serif" font-size="13" lengthAdjust="spacing" textLength="139" x="1612.5" y="1040.4873">GET getAllPackagings()</text><polygon fill="#181818" points="1951.5,1071.6953,1961.5,1075.6953,1951.5,1079.6953,1955.5,1075.6953" style="stroke:#181818;stroke-width:1.0;"/><line style="stroke:#181818;stroke-width:1.0;" x1="1780.5" x2="1957.5" y1="1075.6953" y2="1075.6953"/><text fill="#000000" font-family="sans-serif" font-size="13" font-weight="bold" lengthAdjust="spacing" textLength="14" x="1787.5" y="1070.8389">27</text><text fill="#000000" font-family="sans-serif" font-size="13" lengthAdjust="spacing" textLength="102" x="1805.5" y="1070.8389">getAllPackaging()</text><polygon fill="#181818" points="2100.5,1102.0469,2110.5,1106.0469,2100.5,1110.0469,2104.5,1106.0469" style="stroke:#181818;stroke-width:1.0;"/><line style="stroke:#181818;stroke-width:1.0;" x1="1973.5" x2="2106.5" y1="1106.0469" y2="1106.0469"/><text fill="#000000" font-family="sans-serif" font-size="13" font-weight="bold" lengthAdjust="spacing" textLength="14" x="1980.5" y="1101.1904">28</text><text fill="#000000" font-family="sans-serif" font-size="13" lengthAdjust="spacing" textLength="102" x="1998.5" y="1101.1904">getAllPackaging()</text><polygon fill="#181818" points="2250,1132.3984,2260,1136.3984,2250,1140.3984,2254,1136.3984" style="stroke:#181818;stroke-width:1.0;"/><line style="stroke:#181818;stroke-width:1.0;" x1="2122.5" x2="2256" y1="1136.3984" y2="1136.3984"/><text fill="#000000" font-family="sans-serif" font-size="13" font-weight="bold" lengthAdjust="spacing" textLength="14" x="2129.5" y="1131.542">29</text><text fill="#000000" font-family="sans-serif" font-size="13" lengthAdjust="spacing" textLength="102" x="2147.5" y="1131.542">getAllPackaging()</text><polygon fill="#181818" points="2399.5,1162.75,2409.5,1166.75,2399.5,1170.75,2403.5,1166.75" style="stroke:#181818;stroke-width:1.0;"/><line style="stroke:#181818;stroke-width:1.0;" x1="2272" x2="2405.5" y1="1166.75" y2="1166.75"/><text fill="#000000" font-family="sans-serif" font-size="13" font-weight="bold" lengthAdjust="spacing" textLength="14" x="2279" y="1161.8936">30</text><text fill="#000000" font-family="sans-serif" font-size="13" lengthAdjust="spacing" textLength="28" x="2297" y="1161.8936">find()</text><polygon fill="#181818" points="2283,1193.1016,2273,1197.1016,2283,1201.1016,2279,1197.1016" style="stroke:#181818;stroke-width:1.0;"/><line style="stroke:#181818;stroke-width:1.0;stroke-dasharray:2.0,2.0;" x1="2277" x2="2410.5" y1="1197.1016" y2="1197.1016"/><text fill="#000000" font-family="sans-serif" font-size="13" font-weight="bold" lengthAdjust="spacing" textLength="14" x="2289" y="1192.2451">31</text><text fill="#000000" font-family="sans-serif" font-size="13" lengthAdjust="spacing" textLength="81" x="2307" y="1192.2451">allPackagings</text><polygon fill="#181818" points="2133.5,1223.4531,2123.5,1227.4531,2133.5,1231.4531,2129.5,1227.4531" style="stroke:#181818;stroke-width:1.0;"/><line style="stroke:#181818;stroke-width:1.0;stroke-dasharray:2.0,2.0;" x1="2127.5" x2="2261" y1="1227.4531" y2="1227.4531"/><text fill="#000000" font-family="sans-serif" font-size="13" font-weight="bold" lengthAdjust="spacing" textLength="14" x="2139.5" y="1222.5967">32</text><text fill="#000000" font-family="sans-serif" font-size="13" lengthAdjust="spacing" textLength="81" x="2157.5" y="1222.5967">allPackagings</text><polygon fill="#181818" points="1984.5,1253.8047,1974.5,1257.8047,1984.5,1261.8047,1980.5,1257.8047" style="stroke:#181818;stroke-width:1.0;"/><line style="stroke:#181818;stroke-width:1.0;stroke-dasharray:2.0,2.0;" x1="1978.5" x2="2111.5" y1="1257.8047" y2="1257.8047"/><text fill="#000000" font-family="sans-serif" font-size="13" font-weight="bold" lengthAdjust="spacing" textLength="14" x="1990.5" y="1252.9482">33</text><text fill="#000000" font-family="sans-serif" font-size="13" lengthAdjust="spacing" textLength="81" x="2008.5" y="1252.9482">allPackagings</text><polygon fill="#181818" points="1791.5,1284.1563,1781.5,1288.1563,1791.5,1292.1563,1787.5,1288.1563" style="stroke:#181818;stroke-width:1.0;"/><line style="stroke:#181818;stroke-width:1.0;stroke-dasharray:2.0,2.0;" x1="1785.5" x2="1962.5" y1="1288.1563" y2="1288.1563"/><text fill="#000000" font-family="sans-serif" font-size="13" font-weight="bold" lengthAdjust="spacing" textLength="14" x="1797.5" y="1283.2998">34</text><text fill="#000000" font-family="sans-serif" font-size="13" lengthAdjust="spacing" textLength="141" x="1815.5" y="1283.2998">200 OK + allPackagings</text><polygon fill="#181818" points="1598.5,1314.5078,1588.5,1318.5078,1598.5,1322.5078,1594.5,1318.5078" style="stroke:#181818;stroke-width:1.0;"/><line style="stroke:#181818;stroke-width:1.0;" x1="1592.5" x2="1769.5" y1="1318.5078" y2="1318.5078"/><text fill="#000000" font-family="sans-serif" font-size="13" font-weight="bold" lengthAdjust="spacing" textLength="14" x="1604.5" y="1313.6514">35</text><text fill="#000000" font-family="sans-serif" font-size="13" lengthAdjust="spacing" textLength="141" x="1622.5" y="1313.6514">200 OK + allPackagings</text><polygon fill="#181818" points="923,1344.8594,913,1348.8594,923,1352.8594,919,1348.8594" style="stroke:#181818;stroke-width:1.0;"/><line style="stroke:#181818;stroke-width:1.0;" x1="917" x2="1576.5" y1="1348.8594" y2="1348.8594"/><text fill="#000000" font-family="sans-serif" font-size="13" font-weight="bold" lengthAdjust="spacing" textLength="14" x="929" y="1344.0029">36</text><text fill="#000000" font-family="sans-serif" font-size="13" lengthAdjust="spacing" textLength="141" x="947" y="1344.0029">200 OK + allPackagings</text><polygon fill="#181818" points="730,1375.2109,720,1379.2109,730,1383.2109,726,1379.2109" style="stroke:#181818;stroke-width:1.0;"/><line style="stroke:#181818;stroke-width:1.0;stroke-dasharray:2.0,2.0;" x1="724" x2="901" y1="1379.2109" y2="1379.2109"/><text fill="#000000" font-family="sans-serif" font-size="13" font-weight="bold" lengthAdjust="spacing" textLength="14" x="736" y="1374.3545">37</text><text fill="#000000" font-family="sans-serif" font-size="13" lengthAdjust="spacing" textLength="141" x="754" y="1374.3545">200 OK + allPackagings</text><polygon fill="#181818" points="81.5,1405.5625,71.5,1409.5625,81.5,1413.5625,77.5,1409.5625" style="stroke:#181818;stroke-width:1.0;"/><line style="stroke:#181818;stroke-width:1.0;stroke-dasharray:2.0,2.0;" x1="75.5" x2="708" y1="1409.5625" y2="1409.5625"/><text fill="#000000" font-family="sans-serif" font-size="13" font-weight="bold" lengthAdjust="spacing" textLength="14" x="87.5" y="1404.7061">38</text><text fill="#000000" font-family="sans-serif" font-size="13" lengthAdjust="spacing" textLength="81" x="105.5" y="1404.7061">allPackagings</text><!--MD5=[b75f7830300254007b5473d4d9b4a847]
@startuml getAllPackagingSD
autonumber
!pragma teoz true
skinparam sequence {
ParticipantBorderColor black
ParticipantBackgroundColor white
}


actor "Logistics Manager" as manager

participant Google as Google <<System(C4)>>
box "<<System(C4)>>\n       System" #LightYellow
    box "<<Container(C4)>>\n           UI" #LightCyan
        
        participant LoginController as LoginC <<Component(C4)>>
        participant LoginService as LoginS <<Component(C4)>>
    
    
    
        participant PackagingComponent as PackagingC <<Component(C4)>>
        participant PackagingService as PackagingS <<Component(C4)>>
        

    end box

    box "<<Container(C4)>>\nAuthentication" #LightSkyBlue

        participant UserController as UserCTRL <<Container(C4)>> 
        participant UserService as UserServ <<Container(C4)>> 
        participant UserRepository as UserRepo <<Container(C4)>> 

        participant PackagingController as PackagingCTRL <<Container(C4)>>

    end box
    box "<<Container(C4)>>\n       Logistics" #LightBlue
        participant PackagingRoute as Route <<Component(C4)>>
        participant PackagingController as Controller <<Component(C4)>>
        participant PackagingService as Service <<Component(C4)>>
        participant PackagingRepository as Repository <<Component(C4)>>
        participant Persistence as Persistence <<Component(C4)>>
    end box
    
end box


activate manager
manager->LoginC: I want to login
activate LoginC

alt Login through email and password in EletricGo


    LoginC -> LoginS: login(email, password)
    activate LoginS
    LoginS -> UserCTRL: POST Login(email, password)
    activate UserCTRL

    UserCTRL -> UserServ: login(email, password)
    activate UserServ
    UserServ -> UserRepo: findByEmail(email)
    activate UserRepo
    UserRepo - -> UserServ: User
    deactivate UserRepo
    UserServ -> UserServ: checkPassword(password, User)
    UserServ - -> UserCTRL: Success
    deactivate UserServ


    UserCTRL - -> LoginS: 200 OK + Cookie
    deactivate UserCTRL

    LoginS - -> LoginC: 200 OK
    deactivate LoginS

else Login through Google

    LoginC -> Google: Login with Google account
    activate Google
    Google - -> LoginC: 200 OK
    deactivate Google
    LoginC -> LoginS: loginWithGoogle()
    activate LoginS
    LoginS -> UserCTRL: POST LoginWithGoogle()
    activate UserCTRL
    UserCTRL -> UserServ: userExists()
    activate UserServ
    UserServ -> UserRepo: findByEmail(email)
    activate UserRepo
    UserRepo - -> UserServ: User
    deactivate UserRepo
    UserServ - -> UserCTRL: User
    deactivate UserServ
    UserCTRL - -> LoginS: 200 OK + Cookie
    deactivate UserCTRL
    LoginS - -> LoginC: 200 OK
    deactivate LoginS

    deactivate Google

end



LoginC - -> manager: informs about the success of login
deactivate LoginC


manager -> PackagingC: I want to get all Packagings
activate PackagingC

PackagingC -> PackagingS: getAllPackagings()
activate PackagingS

PackagingS -> PackagingCTRL: GET getAllPackagings()
activate PackagingCTRL

PackagingCTRL -> PackagingCTRL: checkCookie()

PackagingCTRL -> Route: GET getAllPackagings()
activate Route


Route -> Controller: getAllPackaging()
activate Controller

Controller -> Service: getAllPackaging()
activate Service

Service -> Repository: getAllPackaging()
activate Repository

Repository -> Persistence: find()
activate Persistence

Persistence - -> Repository: allPackagings
deactivate Persistence

Repository - -> Service: allPackagings
deactivate Repository

Service - -> Controller: allPackagings
deactivate Service

Controller - -> Route: 200 OK + allPackagings
deactivate Controller

Route -> PackagingCTRL: 200 OK + allPackagings
deactivate Route
PackagingCTRL -> PackagingS: 200 OK + allPackagings
deactivate PackagingCTRL

PackagingS - -> PackagingC: 200 OK + allPackagings
deactivate PackagingS

PackagingC - -> manager: allPackagings
deactivate PackagingC

deactivate manager


@enduml

PlantUML version 1.2022.7(Mon Aug 22 18:01:30 WEST 2022)
(GPL source distribution)
Java Runtime: Java(TM) SE Runtime Environment
JVM: Java HotSpot(TM) 64-Bit Server VM
Default Encoding: Cp1252
Language: en
Country: GB
--></g></svg>