<?xml version="1.0" encoding="UTF-8" standalone="no"?><svg xmlns="http://www.w3.org/2000/svg" xmlns:xlink="http://www.w3.org/1999/xlink" contentStyleType="text/css" height="1395px" preserveAspectRatio="none" style="width:1934px;height:1395px;background:#FFFFFF;" version="1.1" viewBox="0 0 1934 1395" width="1934px" zoomAndPan="magnify"><defs/><g><rect fill="#FFD700" height="1383.6016" style="stroke:#181818;stroke-width:0.5;" width="1603.5" x="311.5" y="6"/><text fill="#000000" font-family="sans-serif" font-size="13" font-weight="bold" lengthAdjust="spacing" textLength="102" x="1062.25" y="19.4951">&lt;&lt;System(C4)&gt;&gt;</text><text fill="#000000" font-family="sans-serif" font-size="13" font-weight="bold" lengthAdjust="spacing" textLength="46" x="1090.25" y="35.8467">System</text><rect fill="#ADD8E6" height="1345.8984" style="stroke:#181818;stroke-width:0.5;" width="1122" x="604" y="43.7031"/><text fill="#000000" font-family="sans-serif" font-size="13" font-weight="bold" lengthAdjust="spacing" textLength="118" x="1106" y="57.1982">&lt;&lt;Container(C4)&gt;&gt;</text><text fill="#000000" font-family="sans-serif" font-size="13" font-weight="bold" lengthAdjust="spacing" textLength="55" x="1134" y="73.5498">Logistics</text><rect fill="none" height="929.8672" style="stroke:#000000;stroke-width:1.5;" width="1919" x="8" y="352.125"/><line style="stroke:#181818;stroke-width:0.5;stroke-dasharray:5.0,5.0;" x1="84.5" x2="84.5" y1="158.0156" y2="1305.9922"/><rect fill="#FFFFFF" height="1120.9766" style="stroke:#181818;stroke-width:1.0;" width="10" x="79.5" y="166.0156"/><line style="stroke:#181818;stroke-width:0.5;stroke-dasharray:5.0,5.0;" x1="375.5" x2="375.5" y1="158.0156" y2="1305.9922"/><rect fill="#FFFFFF" height="30.3516" style="stroke:#181818;stroke-width:1.0;" width="10" x="370.5" y="188.3672"/><rect fill="#FFFFFF" height="1024.9219" style="stroke:#181818;stroke-width:1.0;" width="10" x="370.5" y="249.0703"/><line style="stroke:#181818;stroke-width:0.5;stroke-dasharray:5.0,5.0;" x1="673.5" x2="673.5" y1="158.0156" y2="1305.9922"/><rect fill="#FFFFFF" height="964.2188" style="stroke:#181818;stroke-width:1.0;" width="10" x="668.5" y="279.4219"/><line style="stroke:#181818;stroke-width:0.5;stroke-dasharray:5.0,5.0;" x1="971.5" x2="971.5" y1="158.0156" y2="1305.9922"/><rect fill="#FFFFFF" height="903.5156" style="stroke:#181818;stroke-width:1.0;" width="10" x="966.5" y="309.7734"/><line style="stroke:#181818;stroke-width:0.5;stroke-dasharray:5.0,5.0;" x1="1207.5" x2="1207.5" y1="158.0156" y2="1305.9922"/><rect fill="#FFFFFF" height="602.5156" style="stroke:#181818;stroke-width:1.0;" width="10" x="1202.5" y="433.1797"/><line style="stroke:#181818;stroke-width:0.5;stroke-dasharray:5.0,5.0;" x1="1462.5" x2="1462.5" y1="158.0156" y2="1305.9922"/><rect fill="#FFFFFF" height="541.8125" style="stroke:#181818;stroke-width:1.0;" width="10" x="1457.5" y="463.5313"/><line style="stroke:#181818;stroke-width:0.5;stroke-dasharray:5.0,5.0;" x1="1656.5" x2="1656.5" y1="158.0156" y2="1305.9922"/><rect fill="#FFFFFF" height="481.1094" style="stroke:#181818;stroke-width:1.0;" width="10" x="1651.5" y="493.8828"/><line style="stroke:#181818;stroke-width:0.5;stroke-dasharray:5.0,5.0;" x1="1826.5" x2="1826.5" y1="158.0156" y2="1305.9922"/><rect fill="#FFFFFF" height="842.8125" style="stroke:#181818;stroke-width:1.0;" width="10" x="1821.5" y="340.125"/><text fill="#000000" font-family="sans-serif" font-size="14" lengthAdjust="spacing" textLength="115" x="24" y="154.9395">Logistics Manager</text><ellipse cx="84.5" cy="88.9063" fill="#E2E2F0" rx="8" ry="8" style="stroke:#181818;stroke-width:0.5;"/><path d="M84.5,96.9063 L84.5,123.9063 M71.5,104.9063 L97.5,104.9063 M84.5,123.9063 L71.5,138.9063 M84.5,123.9063 L97.5,138.9063 " fill="none" style="stroke:#181818;stroke-width:0.5;"/><rect fill="#FFFFFF" height="49.2188" rx="2.5" ry="2.5" style="stroke:#000000;stroke-width:0.5;" width="120" x="315.5" y="107.7969"/><text fill="#000000" font-family="sans-serif" font-size="14" font-style="italic" lengthAdjust="spacing" textLength="106" x="322.5" y="129.3301">«Container(C4)»</text><text fill="#000000" font-family="sans-serif" font-size="14" lengthAdjust="spacing" textLength="27" x="362" y="146.9395">SPA</text><rect fill="#FFFFFF" height="49.2188" rx="2.5" ry="2.5" style="stroke:#000000;stroke-width:0.5;" width="131" x="608" y="107.7969"/><text fill="#000000" font-family="sans-serif" font-size="14" font-style="italic" lengthAdjust="spacing" textLength="117" x="615" y="129.3301">«Component(C4)»</text><text fill="#000000" font-family="sans-serif" font-size="14" lengthAdjust="spacing" textLength="104" x="621.5" y="146.9395">PackagingRoute</text><rect fill="#FFFFFF" height="49.2188" rx="2.5" ry="2.5" style="stroke:#000000;stroke-width:0.5;" width="142" x="900.5" y="107.7969"/><text fill="#000000" font-family="sans-serif" font-size="14" font-style="italic" lengthAdjust="spacing" textLength="117" x="913" y="129.3301">«Component(C4)»</text><text fill="#000000" font-family="sans-serif" font-size="14" lengthAdjust="spacing" textLength="128" x="907.5" y="146.9395">PackagingController</text><rect fill="#FFFFFF" height="49.2188" rx="2.5" ry="2.5" style="stroke:#000000;stroke-width:0.5;" width="131" x="1142" y="107.7969"/><text fill="#000000" font-family="sans-serif" font-size="14" font-style="italic" lengthAdjust="spacing" textLength="117" x="1149" y="129.3301">«Component(C4)»</text><text fill="#000000" font-family="sans-serif" font-size="14" lengthAdjust="spacing" textLength="113" x="1151" y="146.9395">PackagingService</text><rect fill="#FFFFFF" height="49.2188" rx="2.5" ry="2.5" style="stroke:#000000;stroke-width:0.5;" width="148" x="1388.5" y="107.7969"/><text fill="#000000" font-family="sans-serif" font-size="14" font-style="italic" lengthAdjust="spacing" textLength="117" x="1404" y="129.3301">«Component(C4)»</text><text fill="#000000" font-family="sans-serif" font-size="14" lengthAdjust="spacing" textLength="134" x="1395.5" y="146.9395">PackagingRepository</text><rect fill="#FFFFFF" height="49.2188" rx="2.5" ry="2.5" style="stroke:#000000;stroke-width:0.5;" width="131" x="1591" y="107.7969"/><text fill="#000000" font-family="sans-serif" font-size="14" font-style="italic" lengthAdjust="spacing" textLength="117" x="1598" y="129.3301">«Component(C4)»</text><text fill="#000000" font-family="sans-serif" font-size="14" lengthAdjust="spacing" textLength="74" x="1619.5" y="146.9395">Persistence</text><rect fill="#FFFFFF" height="49.2188" rx="2.5" ry="2.5" style="stroke:#000000;stroke-width:0.5;" width="169" x="1742" y="107.7969"/><text fill="#000000" font-family="sans-serif" font-size="14" font-style="italic" lengthAdjust="spacing" textLength="106" x="1773.5" y="129.3301">«Container(C4)»</text><text fill="#000000" font-family="sans-serif" font-size="14" lengthAdjust="spacing" textLength="155" x="1749" y="146.9395">WarehouseManagement</text><text fill="#000000" font-family="sans-serif" font-size="14" lengthAdjust="spacing" textLength="115" x="24" y="1380.5254">Logistics Manager</text><ellipse cx="84.5" cy="1314.4922" fill="#E2E2F0" rx="8" ry="8" style="stroke:#181818;stroke-width:0.5;"/><path d="M84.5,1322.4922 L84.5,1349.4922 M71.5,1330.4922 L97.5,1330.4922 M84.5,1349.4922 L71.5,1364.4922 M84.5,1349.4922 L97.5,1364.4922 " fill="none" style="stroke:#181818;stroke-width:0.5;"/><rect fill="#FFFFFF" height="49.2188" rx="2.5" ry="2.5" style="stroke:#000000;stroke-width:0.5;" width="120" x="315.5" y="1305.9922"/><text fill="#000000" font-family="sans-serif" font-size="14" font-style="italic" lengthAdjust="spacing" textLength="106" x="322.5" y="1327.5254">«Container(C4)»</text><text fill="#000000" font-family="sans-serif" font-size="14" lengthAdjust="spacing" textLength="27" x="362" y="1345.1348">SPA</text><rect fill="#FFFFFF" height="49.2188" rx="2.5" ry="2.5" style="stroke:#000000;stroke-width:0.5;" width="131" x="608" y="1305.9922"/><text fill="#000000" font-family="sans-serif" font-size="14" font-style="italic" lengthAdjust="spacing" textLength="117" x="615" y="1327.5254">«Component(C4)»</text><text fill="#000000" font-family="sans-serif" font-size="14" lengthAdjust="spacing" textLength="104" x="621.5" y="1345.1348">PackagingRoute</text><rect fill="#FFFFFF" height="49.2188" rx="2.5" ry="2.5" style="stroke:#000000;stroke-width:0.5;" width="142" x="900.5" y="1305.9922"/><text fill="#000000" font-family="sans-serif" font-size="14" font-style="italic" lengthAdjust="spacing" textLength="117" x="913" y="1327.5254">«Component(C4)»</text><text fill="#000000" font-family="sans-serif" font-size="14" lengthAdjust="spacing" textLength="128" x="907.5" y="1345.1348">PackagingController</text><rect fill="#FFFFFF" height="49.2188" rx="2.5" ry="2.5" style="stroke:#000000;stroke-width:0.5;" width="131" x="1142" y="1305.9922"/><text fill="#000000" font-family="sans-serif" font-size="14" font-style="italic" lengthAdjust="spacing" textLength="117" x="1149" y="1327.5254">«Component(C4)»</text><text fill="#000000" font-family="sans-serif" font-size="14" lengthAdjust="spacing" textLength="113" x="1151" y="1345.1348">PackagingService</text><rect fill="#FFFFFF" height="49.2188" rx="2.5" ry="2.5" style="stroke:#000000;stroke-width:0.5;" width="148" x="1388.5" y="1305.9922"/><text fill="#000000" font-family="sans-serif" font-size="14" font-style="italic" lengthAdjust="spacing" textLength="117" x="1404" y="1327.5254">«Component(C4)»</text><text fill="#000000" font-family="sans-serif" font-size="14" lengthAdjust="spacing" textLength="134" x="1395.5" y="1345.1348">PackagingRepository</text><rect fill="#FFFFFF" height="49.2188" rx="2.5" ry="2.5" style="stroke:#000000;stroke-width:0.5;" width="131" x="1591" y="1305.9922"/><text fill="#000000" font-family="sans-serif" font-size="14" font-style="italic" lengthAdjust="spacing" textLength="117" x="1598" y="1327.5254">«Component(C4)»</text><text fill="#000000" font-family="sans-serif" font-size="14" lengthAdjust="spacing" textLength="74" x="1619.5" y="1345.1348">Persistence</text><rect fill="#FFFFFF" height="49.2188" rx="2.5" ry="2.5" style="stroke:#000000;stroke-width:0.5;" width="169" x="1742" y="1305.9922"/><text fill="#000000" font-family="sans-serif" font-size="14" font-style="italic" lengthAdjust="spacing" textLength="106" x="1773.5" y="1327.5254">«Container(C4)»</text><text fill="#000000" font-family="sans-serif" font-size="14" lengthAdjust="spacing" textLength="155" x="1749" y="1345.1348">WarehouseManagement</text><polygon fill="#181818" points="358.5,184.3672,368.5,188.3672,358.5,192.3672,362.5,188.3672" style="stroke:#181818;stroke-width:1.0;"/><line style="stroke:#181818;stroke-width:1.0;" x1="89.5" x2="364.5" y1="188.3672" y2="188.3672"/><text fill="#000000" font-family="sans-serif" font-size="13" font-weight="bold" lengthAdjust="spacing" textLength="7" x="96.5" y="183.5107">1</text><text fill="#000000" font-family="sans-serif" font-size="13" lengthAdjust="spacing" textLength="168" x="107.5" y="183.5107">I want to update a Packaging</text><polygon fill="#181818" points="100.5,214.7188,90.5,218.7188,100.5,222.7188,96.5,218.7188" style="stroke:#181818;stroke-width:1.0;"/><line style="stroke:#181818;stroke-width:1.0;" x1="94.5" x2="369.5" y1="218.7188" y2="218.7188"/><text fill="#000000" font-family="sans-serif" font-size="13" font-weight="bold" lengthAdjust="spacing" textLength="7" x="106.5" y="213.8623">2</text><text fill="#000000" font-family="sans-serif" font-size="13" lengthAdjust="spacing" textLength="201" x="117.5" y="213.8623">asks for packaging ID and new info</text><polygon fill="#181818" points="358.5,245.0703,368.5,249.0703,358.5,253.0703,362.5,249.0703" style="stroke:#181818;stroke-width:1.0;"/><line style="stroke:#181818;stroke-width:1.0;" x1="89.5" x2="364.5" y1="249.0703" y2="249.0703"/><text fill="#000000" font-family="sans-serif" font-size="13" font-weight="bold" lengthAdjust="spacing" textLength="7" x="96.5" y="244.2139">3</text><text fill="#000000" font-family="sans-serif" font-size="13" lengthAdjust="spacing" textLength="251" x="107.5" y="244.2139">inserts the information about the Packaging</text><polygon fill="#181818" points="656.5,275.4219,666.5,279.4219,656.5,283.4219,660.5,279.4219" style="stroke:#181818;stroke-width:1.0;"/><line style="stroke:#181818;stroke-width:1.0;" x1="380.5" x2="662.5" y1="279.4219" y2="279.4219"/><text fill="#000000" font-family="sans-serif" font-size="13" font-weight="bold" lengthAdjust="spacing" textLength="7" x="387.5" y="274.5654">4</text><text fill="#000000" font-family="sans-serif" font-size="13" lengthAdjust="spacing" textLength="214" x="398.5" y="274.5654">PATCH updatePackaging(packaging)</text><polygon fill="#181818" points="954.5,305.7734,964.5,309.7734,954.5,313.7734,958.5,309.7734" style="stroke:#181818;stroke-width:1.0;"/><line style="stroke:#181818;stroke-width:1.0;" x1="678.5" x2="960.5" y1="309.7734" y2="309.7734"/><text fill="#000000" font-family="sans-serif" font-size="13" font-weight="bold" lengthAdjust="spacing" textLength="7" x="685.5" y="304.917">5</text><text fill="#000000" font-family="sans-serif" font-size="13" lengthAdjust="spacing" textLength="214" x="696.5" y="304.917">PATCH updatePackaging(packaging)</text><polygon fill="#181818" points="1809.5,336.125,1819.5,340.125,1809.5,344.125,1813.5,340.125" style="stroke:#181818;stroke-width:1.0;"/><line style="stroke:#181818;stroke-width:1.0;" x1="976.5" x2="1815.5" y1="340.125" y2="340.125"/><text fill="#000000" font-family="sans-serif" font-size="13" font-weight="bold" lengthAdjust="spacing" textLength="7" x="983.5" y="335.2686">6</text><text fill="#000000" font-family="sans-serif" font-size="13" lengthAdjust="spacing" textLength="182" x="994.5" y="335.2686">GET exiestsDelivery(DeliveryID)</text><path d="M8,352.125 L69,352.125 L69,360.4766 L59,370.4766 L8,370.4766 L8,352.125 " fill="#EEEEEE" style="stroke:#000000;stroke-width:1.5;"/><rect fill="none" height="929.8672" style="stroke:#000000;stroke-width:1.5;" width="1919" x="8" y="352.125"/><text fill="#000000" font-family="sans-serif" font-size="13" font-weight="bold" lengthAdjust="spacing" textLength="16" x="23" y="366.6201">alt</text><text fill="#000000" font-family="sans-serif" font-size="11" font-weight="bold" lengthAdjust="spacing" textLength="208" x="84" y="365.5439">[Packaging exists and Delivery exists]</text><line style="stroke:#000000;stroke-width:1.0;stroke-dasharray:2.0,2.0;" x1="8" x2="1927" y1="816.3984" y2="816.3984"/><text fill="#000000" font-family="sans-serif" font-size="11" font-weight="bold" lengthAdjust="spacing" textLength="246" x="13" y="827.8174">[Packaging doesn't exist and Delivery exists]</text><line style="stroke:#000000;stroke-width:1.0;stroke-dasharray:2.0,2.0;" x1="8" x2="1927" y1="1145.75" y2="1145.75"/><text fill="#000000" font-family="sans-serif" font-size="11" font-weight="bold" lengthAdjust="spacing" textLength="127" x="13" y="1157.1689">[Delivery doesn't exist]</text><polygon fill="#181818" points="987.5,398.8281,977.5,402.8281,987.5,406.8281,983.5,402.8281" style="stroke:#181818;stroke-width:1.0;"/><line style="stroke:#181818;stroke-width:1.0;" x1="981.5" x2="1820.5" y1="402.8281" y2="402.8281"/><text fill="#000000" font-family="sans-serif" font-size="13" font-weight="bold" lengthAdjust="spacing" textLength="7" x="993.5" y="397.9717">7</text><text fill="#000000" font-family="sans-serif" font-size="13" lengthAdjust="spacing" textLength="44" x="1004.5" y="397.9717">200 OK</text><polygon fill="#181818" points="1190.5,429.1797,1200.5,433.1797,1190.5,437.1797,1194.5,433.1797" style="stroke:#181818;stroke-width:1.0;"/><line style="stroke:#181818;stroke-width:1.0;" x1="976.5" x2="1196.5" y1="433.1797" y2="433.1797"/><text fill="#000000" font-family="sans-serif" font-size="13" font-weight="bold" lengthAdjust="spacing" textLength="7" x="983.5" y="428.3232">8</text><text fill="#000000" font-family="sans-serif" font-size="13" lengthAdjust="spacing" textLength="167" x="994.5" y="428.3232">updatePackaging(packaging)</text><polygon fill="#181818" points="1445.5,459.5313,1455.5,463.5313,1445.5,467.5313,1449.5,463.5313" style="stroke:#181818;stroke-width:1.0;"/><line style="stroke:#181818;stroke-width:1.0;" x1="1212.5" x2="1451.5" y1="463.5313" y2="463.5313"/><text fill="#000000" font-family="sans-serif" font-size="13" font-weight="bold" lengthAdjust="spacing" textLength="7" x="1219.5" y="458.6748">9</text><text fill="#000000" font-family="sans-serif" font-size="13" lengthAdjust="spacing" textLength="206" x="1230.5" y="458.6748">getPackagingById(packagingInfo.id)</text><polygon fill="#181818" points="1639.5,489.8828,1649.5,493.8828,1639.5,497.8828,1643.5,493.8828" style="stroke:#181818;stroke-width:1.0;"/><line style="stroke:#181818;stroke-width:1.0;" x1="1467.5" x2="1645.5" y1="493.8828" y2="493.8828"/><text fill="#000000" font-family="sans-serif" font-size="13" font-weight="bold" lengthAdjust="spacing" textLength="14" x="1474.5" y="489.0264">10</text><text fill="#000000" font-family="sans-serif" font-size="13" lengthAdjust="spacing" textLength="145" x="1492.5" y="489.0264">findOne(packagingInfo.id)</text><polygon fill="#181818" points="1478.5,520.2344,1468.5,524.2344,1478.5,528.2344,1474.5,524.2344" style="stroke:#181818;stroke-width:1.0;"/><line style="stroke:#181818;stroke-width:1.0;stroke-dasharray:2.0,2.0;" x1="1472.5" x2="1650.5" y1="524.2344" y2="524.2344"/><text fill="#000000" font-family="sans-serif" font-size="13" font-weight="bold" lengthAdjust="spacing" textLength="14" x="1484.5" y="519.3779">11</text><text fill="#000000" font-family="sans-serif" font-size="13" lengthAdjust="spacing" textLength="61" x="1502.5" y="519.3779">Packaging</text><polygon fill="#181818" points="1223.5,550.5859,1213.5,554.5859,1223.5,558.5859,1219.5,554.5859" style="stroke:#181818;stroke-width:1.0;"/><line style="stroke:#181818;stroke-width:1.0;stroke-dasharray:2.0,2.0;" x1="1217.5" x2="1456.5" y1="554.5859" y2="554.5859"/><text fill="#000000" font-family="sans-serif" font-size="13" font-weight="bold" lengthAdjust="spacing" textLength="14" x="1229.5" y="549.7295">12</text><text fill="#000000" font-family="sans-serif" font-size="13" lengthAdjust="spacing" textLength="61" x="1247.5" y="549.7295">Packaging</text><polygon fill="#181818" points="1445.5,580.9375,1455.5,584.9375,1445.5,588.9375,1449.5,584.9375" style="stroke:#181818;stroke-width:1.0;"/><line style="stroke:#181818;stroke-width:1.0;" x1="1212.5" x2="1451.5" y1="584.9375" y2="584.9375"/><text fill="#000000" font-family="sans-serif" font-size="13" font-weight="bold" lengthAdjust="spacing" textLength="14" x="1219.5" y="580.0811">13</text><text fill="#000000" font-family="sans-serif" font-size="13" lengthAdjust="spacing" textLength="126" x="1237.5" y="580.0811">update(packagingInfo)</text><polygon fill="#181818" points="1639.5,611.2891,1649.5,615.2891,1639.5,619.2891,1643.5,615.2891" style="stroke:#181818;stroke-width:1.0;"/><line style="stroke:#181818;stroke-width:1.0;" x1="1467.5" x2="1645.5" y1="615.2891" y2="615.2891"/><text fill="#000000" font-family="sans-serif" font-size="13" font-weight="bold" lengthAdjust="spacing" textLength="14" x="1474.5" y="610.4326">14</text><text fill="#000000" font-family="sans-serif" font-size="13" lengthAdjust="spacing" textLength="113" x="1492.5" y="610.4326">save(packagingInfo)</text><polygon fill="#181818" points="1478.5,641.6406,1468.5,645.6406,1478.5,649.6406,1474.5,645.6406" style="stroke:#181818;stroke-width:1.0;"/><line style="stroke:#181818;stroke-width:1.0;stroke-dasharray:2.0,2.0;" x1="1472.5" x2="1650.5" y1="645.6406" y2="645.6406"/><text fill="#000000" font-family="sans-serif" font-size="13" font-weight="bold" lengthAdjust="spacing" textLength="14" x="1484.5" y="640.7842">15</text><text fill="#000000" font-family="sans-serif" font-size="13" lengthAdjust="spacing" textLength="22" x="1502.5" y="640.7842">true</text><polygon fill="#181818" points="1223.5,671.9922,1213.5,675.9922,1223.5,679.9922,1219.5,675.9922" style="stroke:#181818;stroke-width:1.0;"/><line style="stroke:#181818;stroke-width:1.0;stroke-dasharray:2.0,2.0;" x1="1217.5" x2="1456.5" y1="675.9922" y2="675.9922"/><text fill="#000000" font-family="sans-serif" font-size="13" font-weight="bold" lengthAdjust="spacing" textLength="14" x="1229.5" y="671.1357">16</text><text fill="#000000" font-family="sans-serif" font-size="13" lengthAdjust="spacing" textLength="79" x="1247.5" y="671.1357">packagingInfo</text><polygon fill="#181818" points="987.5,702.3438,977.5,706.3438,987.5,710.3438,983.5,706.3438" style="stroke:#181818;stroke-width:1.0;"/><line style="stroke:#181818;stroke-width:1.0;stroke-dasharray:2.0,2.0;" x1="981.5" x2="1201.5" y1="706.3438" y2="706.3438"/><text fill="#000000" font-family="sans-serif" font-size="13" font-weight="bold" lengthAdjust="spacing" textLength="14" x="993.5" y="701.4873">17</text><text fill="#000000" font-family="sans-serif" font-size="13" lengthAdjust="spacing" textLength="79" x="1011.5" y="701.4873">packagingInfo</text><polygon fill="#181818" points="689.5,732.6953,679.5,736.6953,689.5,740.6953,685.5,736.6953" style="stroke:#181818;stroke-width:1.0;"/><line style="stroke:#181818;stroke-width:1.0;stroke-dasharray:2.0,2.0;" x1="683.5" x2="965.5" y1="736.6953" y2="736.6953"/><text fill="#000000" font-family="sans-serif" font-size="13" font-weight="bold" lengthAdjust="spacing" textLength="14" x="695.5" y="731.8389">18</text><text fill="#000000" font-family="sans-serif" font-size="13" lengthAdjust="spacing" textLength="139" x="713.5" y="731.8389">200 OK + packagingInfo</text><polygon fill="#181818" points="391.5,763.0469,381.5,767.0469,391.5,771.0469,387.5,767.0469" style="stroke:#181818;stroke-width:1.0;"/><line style="stroke:#181818;stroke-width:1.0;stroke-dasharray:2.0,2.0;" x1="385.5" x2="667.5" y1="767.0469" y2="767.0469"/><text fill="#000000" font-family="sans-serif" font-size="13" font-weight="bold" lengthAdjust="spacing" textLength="14" x="397.5" y="762.1904">19</text><text fill="#000000" font-family="sans-serif" font-size="13" lengthAdjust="spacing" textLength="139" x="415.5" y="762.1904">200 OK + packagingInfo</text><polygon fill="#181818" points="100.5,793.3984,90.5,797.3984,100.5,801.3984,96.5,797.3984" style="stroke:#181818;stroke-width:1.0;"/><line style="stroke:#181818;stroke-width:1.0;stroke-dasharray:2.0,2.0;" x1="94.5" x2="369.5" y1="797.3984" y2="797.3984"/><text fill="#000000" font-family="sans-serif" font-size="13" font-weight="bold" lengthAdjust="spacing" textLength="14" x="106.5" y="792.542">20</text><text fill="#000000" font-family="sans-serif" font-size="13" lengthAdjust="spacing" textLength="154" x="124.5" y="792.542">shows updated information</text><polygon fill="#181818" points="987.5,849.5859,977.5,853.5859,987.5,857.5859,983.5,853.5859" style="stroke:#181818;stroke-width:1.0;"/><line style="stroke:#181818;stroke-width:1.0;" x1="981.5" x2="1820.5" y1="853.5859" y2="853.5859"/><text fill="#000000" font-family="sans-serif" font-size="13" font-weight="bold" lengthAdjust="spacing" textLength="14" x="993.5" y="848.7295">21</text><text fill="#000000" font-family="sans-serif" font-size="13" lengthAdjust="spacing" textLength="44" x="1011.5" y="848.7295">200 OK</text><polygon fill="#181818" points="1190.5,879.9375,1200.5,883.9375,1190.5,887.9375,1194.5,883.9375" style="stroke:#181818;stroke-width:1.0;"/><line style="stroke:#181818;stroke-width:1.0;" x1="976.5" x2="1196.5" y1="883.9375" y2="883.9375"/><text fill="#000000" font-family="sans-serif" font-size="13" font-weight="bold" lengthAdjust="spacing" textLength="14" x="983.5" y="879.0811">22</text><text fill="#000000" font-family="sans-serif" font-size="13" lengthAdjust="spacing" textLength="189" x="1001.5" y="879.0811">updatePackaging(PackagingInfo)</text><polygon fill="#181818" points="1445.5,910.2891,1455.5,914.2891,1445.5,918.2891,1449.5,914.2891" style="stroke:#181818;stroke-width:1.0;"/><line style="stroke:#181818;stroke-width:1.0;" x1="1212.5" x2="1451.5" y1="914.2891" y2="914.2891"/><text fill="#000000" font-family="sans-serif" font-size="13" font-weight="bold" lengthAdjust="spacing" textLength="14" x="1219.5" y="909.4326">23</text><text fill="#000000" font-family="sans-serif" font-size="13" lengthAdjust="spacing" textLength="208" x="1237.5" y="909.4326">getPackagingById(PackagingInfo.id)</text><polygon fill="#181818" points="1639.5,940.6406,1649.5,944.6406,1639.5,948.6406,1643.5,944.6406" style="stroke:#181818;stroke-width:1.0;"/><line style="stroke:#181818;stroke-width:1.0;" x1="1467.5" x2="1645.5" y1="944.6406" y2="944.6406"/><text fill="#000000" font-family="sans-serif" font-size="13" font-weight="bold" lengthAdjust="spacing" textLength="14" x="1474.5" y="939.7842">24</text><text fill="#000000" font-family="sans-serif" font-size="13" lengthAdjust="spacing" textLength="147" x="1492.5" y="939.7842">findOne(PackagingInfo.id)</text><polygon fill="#181818" points="1478.5,970.9922,1468.5,974.9922,1478.5,978.9922,1474.5,974.9922" style="stroke:#181818;stroke-width:1.0;"/><line style="stroke:#181818;stroke-width:1.0;stroke-dasharray:2.0,2.0;" x1="1472.5" x2="1650.5" y1="974.9922" y2="974.9922"/><text fill="#000000" font-family="sans-serif" font-size="13" font-weight="bold" lengthAdjust="spacing" textLength="14" x="1484.5" y="970.1357">25</text><text fill="#000000" font-family="sans-serif" font-size="13" lengthAdjust="spacing" textLength="20" x="1502.5" y="970.1357">null</text><polygon fill="#181818" points="1223.5,1001.3438,1213.5,1005.3438,1223.5,1009.3438,1219.5,1005.3438" style="stroke:#181818;stroke-width:1.0;"/><line style="stroke:#181818;stroke-width:1.0;stroke-dasharray:2.0,2.0;" x1="1217.5" x2="1456.5" y1="1005.3438" y2="1005.3438"/><text fill="#000000" font-family="sans-serif" font-size="13" font-weight="bold" lengthAdjust="spacing" textLength="14" x="1229.5" y="1000.4873">26</text><text fill="#000000" font-family="sans-serif" font-size="13" lengthAdjust="spacing" textLength="20" x="1247.5" y="1000.4873">null</text><polygon fill="#181818" points="987.5,1031.6953,977.5,1035.6953,987.5,1039.6953,983.5,1035.6953" style="stroke:#181818;stroke-width:1.0;"/><line style="stroke:#181818;stroke-width:1.0;" x1="981.5" x2="1201.5" y1="1035.6953" y2="1035.6953"/><text fill="#000000" font-family="sans-serif" font-size="13" font-weight="bold" lengthAdjust="spacing" textLength="14" x="993.5" y="1030.8389">27</text><text fill="#000000" font-family="sans-serif" font-size="13" lengthAdjust="spacing" textLength="172" x="1011.5" y="1030.8389">error, Packaging doesn't exist</text><polygon fill="#181818" points="689.5,1062.0469,679.5,1066.0469,689.5,1070.0469,685.5,1066.0469" style="stroke:#181818;stroke-width:1.0;"/><line style="stroke:#181818;stroke-width:1.0;stroke-dasharray:2.0,2.0;" x1="683.5" x2="965.5" y1="1066.0469" y2="1066.0469"/><text fill="#000000" font-family="sans-serif" font-size="13" font-weight="bold" lengthAdjust="spacing" textLength="14" x="695.5" y="1061.1904">28</text><text fill="#000000" font-family="sans-serif" font-size="13" lengthAdjust="spacing" textLength="246" x="713.5" y="1061.1904">404 NOT FOUND, Packaging doesn't exist</text><polygon fill="#181818" points="391.5,1092.3984,381.5,1096.3984,391.5,1100.3984,387.5,1096.3984" style="stroke:#181818;stroke-width:1.0;"/><line style="stroke:#181818;stroke-width:1.0;stroke-dasharray:2.0,2.0;" x1="385.5" x2="667.5" y1="1096.3984" y2="1096.3984"/><text fill="#000000" font-family="sans-serif" font-size="13" font-weight="bold" lengthAdjust="spacing" textLength="14" x="397.5" y="1091.542">29</text><text fill="#000000" font-family="sans-serif" font-size="13" lengthAdjust="spacing" textLength="246" x="415.5" y="1091.542">404 NOT FOUND, Packaging doesn't exist</text><polygon fill="#181818" points="100.5,1122.75,90.5,1126.75,100.5,1130.75,96.5,1126.75" style="stroke:#181818;stroke-width:1.0;"/><line style="stroke:#181818;stroke-width:1.0;stroke-dasharray:2.0,2.0;" x1="94.5" x2="369.5" y1="1126.75" y2="1126.75"/><text fill="#000000" font-family="sans-serif" font-size="13" font-weight="bold" lengthAdjust="spacing" textLength="14" x="106.5" y="1121.8936">30</text><text fill="#000000" font-family="sans-serif" font-size="13" lengthAdjust="spacing" textLength="224" x="124.5" y="1121.8936">informs about the failure of the creation</text><polygon fill="#181818" points="987.5,1178.9375,977.5,1182.9375,987.5,1186.9375,983.5,1182.9375" style="stroke:#181818;stroke-width:1.0;"/><line style="stroke:#181818;stroke-width:1.0;" x1="981.5" x2="1820.5" y1="1182.9375" y2="1182.9375"/><text fill="#000000" font-family="sans-serif" font-size="13" font-weight="bold" lengthAdjust="spacing" textLength="14" x="993.5" y="1178.0811">31</text><text fill="#000000" font-family="sans-serif" font-size="13" lengthAdjust="spacing" textLength="100" x="1011.5" y="1178.0811">404 NOT FOUND</text><polygon fill="#181818" points="689.5,1209.2891,679.5,1213.2891,689.5,1217.2891,685.5,1213.2891" style="stroke:#181818;stroke-width:1.0;"/><line style="stroke:#181818;stroke-width:1.0;" x1="683.5" x2="965.5" y1="1213.2891" y2="1213.2891"/><text fill="#000000" font-family="sans-serif" font-size="13" font-weight="bold" lengthAdjust="spacing" textLength="14" x="695.5" y="1208.4326">32</text><text fill="#000000" font-family="sans-serif" font-size="13" lengthAdjust="spacing" textLength="100" x="713.5" y="1208.4326">404 NOT FOUND</text><polygon fill="#181818" points="391.5,1239.6406,381.5,1243.6406,391.5,1247.6406,387.5,1243.6406" style="stroke:#181818;stroke-width:1.0;"/><line style="stroke:#181818;stroke-width:1.0;stroke-dasharray:2.0,2.0;" x1="385.5" x2="667.5" y1="1243.6406" y2="1243.6406"/><text fill="#000000" font-family="sans-serif" font-size="13" font-weight="bold" lengthAdjust="spacing" textLength="14" x="397.5" y="1238.7842">33</text><text fill="#000000" font-family="sans-serif" font-size="13" lengthAdjust="spacing" textLength="100" x="415.5" y="1238.7842">404 NOT FOUND</text><polygon fill="#181818" points="100.5,1269.9922,90.5,1273.9922,100.5,1277.9922,96.5,1273.9922" style="stroke:#181818;stroke-width:1.0;"/><line style="stroke:#181818;stroke-width:1.0;stroke-dasharray:2.0,2.0;" x1="94.5" x2="369.5" y1="1273.9922" y2="1273.9922"/><text fill="#000000" font-family="sans-serif" font-size="13" font-weight="bold" lengthAdjust="spacing" textLength="14" x="106.5" y="1269.1357">34</text><text fill="#000000" font-family="sans-serif" font-size="13" lengthAdjust="spacing" textLength="219" x="124.5" y="1269.1357">informs about the incorrect Delivery ID</text><!--MD5=[6683f8d20073b29feb19e0448c7ec332]
@startuml updatePackagingSD
autonumber
!pragma teoz true
skinparam sequence {
ParticipantBorderColor black
ParticipantBackgroundColor white
}

actor "Logistics Manager" as manager


box "<<System(C4)>>\n       System" #Gold
participant SPA as  SPA <<Container(C4)>>
box "<<Container(C4)>>\n       Logistics" #LightBlue
participant PackagingRoute as Route <<Component(C4)>>
participant PackagingController as Controller <<Component(C4)>>
participant PackagingService as Service <<Component(C4)>>
participant PackagingRepository as Repository <<Component(C4)>>
participant Persistence as Persistence <<Component(C4)>>
end box
participant WarehouseManagement as WarehouseManagement <<Container(C4)>>
end box

activate manager
manager -> SPA: I want to update a Packaging
activate SPA



SPA -> manager: asks for packaging ID and new info
deactivate SPA

manager -> SPA: inserts the information about the Packaging
activate SPA


SPA -> Route: PATCH updatePackaging(packaging)
activate Route
Route -> Controller: PATCH updatePackaging(packaging)
activate Controller

Controller -> WarehouseManagement: GET exiestsDelivery(DeliveryID)
activate WarehouseManagement

alt Packaging exists and Delivery exists

WarehouseManagement -> Controller: 200 OK

Controller -> Service: updatePackaging(packaging)
activate Service
Service -> Repository: getPackagingById(packagingInfo.id)
activate Repository
Repository -> Persistence: findOne(packagingInfo.id)
activate Persistence
Persistence - -> Repository: Packaging


Repository - -> Service: Packaging

Service -> Repository: update(packagingInfo)

Repository -> Persistence: save(packagingInfo)

Persistence - -> Repository: true

Repository - -> Service: packagingInfo

Service - -> Controller: packagingInfo

Controller - -> Route: 200 OK + packagingInfo

Route - -> SPA: 200 OK + packagingInfo

SPA - -> manager: shows updated information


else Packaging doesn't exist and Delivery exists

WarehouseManagement -> Controller: 200 OK

Controller -> Service: updatePackaging(PackagingInfo)

Service -> Repository: getPackagingById(PackagingInfo.id)

Repository -> Persistence: findOne(PackagingInfo.id)

Persistence - -> Repository: null
deactivate Persistence
Repository - -> Service: null
deactivate Repository
Service -> Controller: error, Packaging doesn't exist
deactivate Service
Controller - -> Route: 404 NOT FOUND, Packaging doesn't exist

Route - -> SPA: 404 NOT FOUND, Packaging doesn't exist

SPA - -> manager: informs about the failure of the creation


else Delivery doesn't exist

WarehouseManagement -> Controller: 404 NOT FOUND
deactivate WarehouseManagement
Controller -> Route: 404 NOT FOUND
deactivate Controller
Route - -> SPA: 404 NOT FOUND
deactivate Route

SPA - -> manager: informs about the incorrect Delivery ID
deactivate SPA
deactivate manager
end




@enduml

PlantUML version 1.2022.7(Mon Aug 22 18:01:30 WEST 2022)
(GPL source distribution)
Java Runtime: Java(TM) SE Runtime Environment
JVM: Java HotSpot(TM) 64-Bit Server VM
Default Encoding: Cp1252
Language: en
Country: GB
--></g></svg>