<?xml version="1.0" encoding="UTF-8" standalone="no"?><svg xmlns="http://www.w3.org/2000/svg" xmlns:xlink="http://www.w3.org/1999/xlink" contentStyleType="text/css" height="1881px" preserveAspectRatio="none" style="width:2445px;height:1881px;background:#FFFFFF;" version="1.1" viewBox="0 0 2445 1881" width="2445px" zoomAndPan="magnify"><defs/><g><rect fill="#F4A460" height="1869.2266" style="stroke:#181818;stroke-width:0.5;" width="708.5" x="156.5" y="6"/><text fill="#000000" font-family="sans-serif" font-size="13" font-weight="bold" lengthAdjust="spacing" textLength="118" x="451.75" y="19.4951">&lt;&lt;Container(C4)&gt;&gt;</text><text fill="#000000" font-family="sans-serif" font-size="13" font-weight="bold" lengthAdjust="spacing" textLength="13" x="495.75" y="35.8467">UI</text><rect fill="#FFD700" height="1869.2266" style="stroke:#181818;stroke-width:0.5;" width="1381.5" x="981.5" y="6"/><text fill="#000000" font-family="sans-serif" font-size="13" font-weight="bold" lengthAdjust="spacing" textLength="102" x="1621.25" y="19.4951">&lt;&lt;System(C4)&gt;&gt;</text><text fill="#000000" font-family="sans-serif" font-size="13" font-weight="bold" lengthAdjust="spacing" textLength="46" x="1649.25" y="35.8467">System</text><rect fill="#ADD8E6" height="1831.5234" style="stroke:#181818;stroke-width:0.5;" width="939" x="1235" y="43.7031"/><text fill="#000000" font-family="sans-serif" font-size="13" font-weight="bold" lengthAdjust="spacing" textLength="118" x="1645.5" y="57.1982">&lt;&lt;Container(C4)&gt;&gt;</text><text fill="#000000" font-family="sans-serif" font-size="13" font-weight="bold" lengthAdjust="spacing" textLength="55" x="1673.5" y="73.5498">Logistics</text><rect fill="none" height="1203.0313" style="stroke:#000000;stroke-width:1.5;" width="2388.5" x="49.5" y="564.5859"/><line style="stroke:#181818;stroke-width:0.5;stroke-dasharray:5.0,5.0;" x1="65.5" x2="65.5" y1="158.0156" y2="1791.6172"/><line style="stroke:#181818;stroke-width:0.5;stroke-dasharray:5.0,5.0;" x1="259.5" x2="259.5" y1="158.0156" y2="1791.6172"/><rect fill="#FFFFFF" height="1603.25" style="stroke:#181818;stroke-width:1.0;" width="10" x="254.5" y="188.3672"/><line style="stroke:#181818;stroke-width:0.5;stroke-dasharray:5.0,5.0;" x1="545.5" x2="545.5" y1="158.0156" y2="1791.6172"/><rect fill="#FFFFFF" height="1572.8984" style="stroke:#181818;stroke-width:1.0;" width="10" x="540.5" y="218.7188"/><line style="stroke:#181818;stroke-width:0.5;stroke-dasharray:5.0,5.0;" x1="795.5" x2="795.5" y1="158.0156" y2="1791.6172"/><rect fill="#FFFFFF" height="1150.8438" style="stroke:#181818;stroke-width:1.0;" width="10" x="790.5" y="309.7734"/><line style="stroke:#181818;stroke-width:0.5;stroke-dasharray:5.0,5.0;" x1="1045.5" x2="1045.5" y1="158.0156" y2="1791.6172"/><rect fill="#FFFFFF" height="30.3516" style="stroke:#181818;stroke-width:1.0;" width="10" x="1040.5" y="370.4766"/><rect fill="#FFFFFF" height="1355.4375" style="stroke:#181818;stroke-width:1.0;" width="10" x="1040.5" y="431.1797"/><line style="stroke:#181818;stroke-width:0.5;stroke-dasharray:5.0,5.0;" x1="1304.5" x2="1304.5" y1="158.0156" y2="1791.6172"/><rect fill="#FFFFFF" height="1072.7891" style="stroke:#181818;stroke-width:1.0;" width="10" x="1299.5" y="461.5313"/><line style="stroke:#181818;stroke-width:0.5;stroke-dasharray:5.0,5.0;" x1="1563.5" x2="1563.5" y1="158.0156" y2="1791.6172"/><rect fill="#FFFFFF" height="1115.9766" style="stroke:#181818;stroke-width:1.0;" width="10" x="1558.5" y="491.8828"/><line style="stroke:#181818;stroke-width:0.5;stroke-dasharray:5.0,5.0;" x1="1761.5" x2="1761.5" y1="158.0156" y2="1791.6172"/><rect fill="#FFFFFF" height="693.5703" style="stroke:#181818;stroke-width:1.0;" width="10" x="1756.5" y="645.6406"/><line style="stroke:#181818;stroke-width:0.5;stroke-dasharray:5.0,5.0;" x1="1946.5" x2="1946.5" y1="158.0156" y2="1791.6172"/><rect fill="#FFFFFF" height="632.8672" style="stroke:#181818;stroke-width:1.0;" width="10" x="1941.5" y="675.9922"/><line style="stroke:#181818;stroke-width:0.5;stroke-dasharray:5.0,5.0;" x1="2104.5" x2="2104.5" y1="158.0156" y2="1791.6172"/><rect fill="#FFFFFF" height="572.1641" style="stroke:#181818;stroke-width:1.0;" width="10" x="2099.5" y="706.3438"/><line style="stroke:#181818;stroke-width:0.5;stroke-dasharray:5.0,5.0;" x1="2274.5" x2="2274.5" y1="158.0156" y2="1791.6172"/><rect fill="#FFFFFF" height="1055.2734" style="stroke:#181818;stroke-width:1.0;" width="10" x="2269.5" y="522.2344"/><line style="stroke:#181818;stroke-width:0.5;stroke-dasharray:5.0,5.0;" x1="2400.5" x2="2400.5" y1="158.0156" y2="1791.6172"/><text fill="#000000" font-family="sans-serif" font-size="14" lengthAdjust="spacing" textLength="115" x="5" y="154.9395">Logistics Manager</text><ellipse cx="65.5" cy="88.9063" fill="#E2E2F0" rx="8" ry="8" style="stroke:#181818;stroke-width:0.5;"/><path d="M65.5,96.9063 L65.5,123.9063 M52.5,104.9063 L78.5,104.9063 M65.5,123.9063 L52.5,138.9063 M65.5,123.9063 L78.5,138.9063 " fill="none" style="stroke:#181818;stroke-width:0.5;"/><rect fill="#FFFFFF" height="49.2188" rx="2.5" ry="2.5" style="stroke:#000000;stroke-width:0.5;" width="198" x="160.5" y="107.7969"/><text fill="#000000" font-family="sans-serif" font-size="14" font-style="italic" lengthAdjust="spacing" textLength="117" x="201" y="129.3301">«Component(C4)»</text><text fill="#000000" font-family="sans-serif" font-size="14" lengthAdjust="spacing" textLength="184" x="167.5" y="146.9395">LogisticsManagerComponent</text><rect fill="#FFFFFF" height="49.2188" rx="2.5" ry="2.5" style="stroke:#000000;stroke-width:0.5;" width="159" x="466" y="107.7969"/><text fill="#000000" font-family="sans-serif" font-size="14" font-style="italic" lengthAdjust="spacing" textLength="117" x="487" y="129.3301">«Component(C4)»</text><text fill="#000000" font-family="sans-serif" font-size="14" lengthAdjust="spacing" textLength="145" x="473" y="146.9395">CreatePathComponent</text><rect fill="#FFFFFF" height="49.2188" rx="2.5" ry="2.5" style="stroke:#000000;stroke-width:0.5;" width="131" x="730" y="107.7969"/><text fill="#000000" font-family="sans-serif" font-size="14" font-style="italic" lengthAdjust="spacing" textLength="117" x="737" y="129.3301">«Component(C4)»</text><text fill="#000000" font-family="sans-serif" font-size="14" lengthAdjust="spacing" textLength="76" x="757.5" y="146.9395">PathService</text><rect fill="#FFFFFF" height="49.2188" rx="2.5" ry="2.5" style="stroke:#000000;stroke-width:0.5;" width="120" x="985.5" y="107.7969"/><text fill="#000000" font-family="sans-serif" font-size="14" font-style="italic" lengthAdjust="spacing" textLength="106" x="992.5" y="129.3301">«Container(C4)»</text><text fill="#000000" font-family="sans-serif" font-size="14" lengthAdjust="spacing" textLength="29" x="1031" y="146.9395">Auth</text><rect fill="#FFFFFF" height="49.2188" rx="2.5" ry="2.5" style="stroke:#000000;stroke-width:0.5;" width="131" x="1239" y="107.7969"/><text fill="#000000" font-family="sans-serif" font-size="14" font-style="italic" lengthAdjust="spacing" textLength="117" x="1246" y="129.3301">«Component(C4)»</text><text fill="#000000" font-family="sans-serif" font-size="14" lengthAdjust="spacing" textLength="67" x="1271" y="146.9395">PathRoute</text><rect fill="#FFFFFF" height="49.2188" rx="2.5" ry="2.5" style="stroke:#000000;stroke-width:0.5;" width="131" x="1498" y="107.7969"/><text fill="#000000" font-family="sans-serif" font-size="14" font-style="italic" lengthAdjust="spacing" textLength="117" x="1505" y="129.3301">«Component(C4)»</text><text fill="#000000" font-family="sans-serif" font-size="14" lengthAdjust="spacing" textLength="91" x="1518" y="146.9395">PathController</text><rect fill="#FFFFFF" height="49.2188" rx="2.5" ry="2.5" style="stroke:#000000;stroke-width:0.5;" width="131" x="1696" y="107.7969"/><text fill="#000000" font-family="sans-serif" font-size="14" font-style="italic" lengthAdjust="spacing" textLength="117" x="1703" y="129.3301">«Component(C4)»</text><text fill="#000000" font-family="sans-serif" font-size="14" lengthAdjust="spacing" textLength="76" x="1723.5" y="146.9395">PathService</text><rect fill="#FFFFFF" height="49.2188" rx="2.5" ry="2.5" style="stroke:#000000;stroke-width:0.5;" width="131" x="1881" y="107.7969"/><text fill="#000000" font-family="sans-serif" font-size="14" font-style="italic" lengthAdjust="spacing" textLength="117" x="1888" y="129.3301">«Component(C4)»</text><text fill="#000000" font-family="sans-serif" font-size="14" lengthAdjust="spacing" textLength="97" x="1898" y="146.9395">PathRepository</text><rect fill="#FFFFFF" height="49.2188" rx="2.5" ry="2.5" style="stroke:#000000;stroke-width:0.5;" width="131" x="2039" y="107.7969"/><text fill="#000000" font-family="sans-serif" font-size="14" font-style="italic" lengthAdjust="spacing" textLength="117" x="2046" y="129.3301">«Component(C4)»</text><text fill="#000000" font-family="sans-serif" font-size="14" lengthAdjust="spacing" textLength="74" x="2067.5" y="146.9395">Persistence</text><rect fill="#FFFFFF" height="49.2188" rx="2.5" ry="2.5" style="stroke:#000000;stroke-width:0.5;" width="169" x="2190" y="107.7969"/><text fill="#000000" font-family="sans-serif" font-size="14" font-style="italic" lengthAdjust="spacing" textLength="106" x="2221.5" y="129.3301">«Container(C4)»</text><text fill="#000000" font-family="sans-serif" font-size="14" lengthAdjust="spacing" textLength="155" x="2197" y="146.9395">WarehouseManagement</text><rect fill="#FFFFFF" height="31.6094" rx="2.5" ry="2.5" style="stroke:#000000;stroke-width:0.5;" width="43" x="2379" y="125.4063"/><text fill="#000000" font-family="sans-serif" font-size="14" lengthAdjust="spacing" textLength="29" x="2386" y="146.9395">Auth</text><text fill="#000000" font-family="sans-serif" font-size="14" lengthAdjust="spacing" textLength="115" x="5" y="1866.1504">Logistics Manager</text><ellipse cx="65.5" cy="1800.1172" fill="#E2E2F0" rx="8" ry="8" style="stroke:#181818;stroke-width:0.5;"/><path d="M65.5,1808.1172 L65.5,1835.1172 M52.5,1816.1172 L78.5,1816.1172 M65.5,1835.1172 L52.5,1850.1172 M65.5,1835.1172 L78.5,1850.1172 " fill="none" style="stroke:#181818;stroke-width:0.5;"/><rect fill="#FFFFFF" height="49.2188" rx="2.5" ry="2.5" style="stroke:#000000;stroke-width:0.5;" width="198" x="160.5" y="1791.6172"/><text fill="#000000" font-family="sans-serif" font-size="14" font-style="italic" lengthAdjust="spacing" textLength="117" x="201" y="1813.1504">«Component(C4)»</text><text fill="#000000" font-family="sans-serif" font-size="14" lengthAdjust="spacing" textLength="184" x="167.5" y="1830.7598">LogisticsManagerComponent</text><rect fill="#FFFFFF" height="49.2188" rx="2.5" ry="2.5" style="stroke:#000000;stroke-width:0.5;" width="159" x="466" y="1791.6172"/><text fill="#000000" font-family="sans-serif" font-size="14" font-style="italic" lengthAdjust="spacing" textLength="117" x="487" y="1813.1504">«Component(C4)»</text><text fill="#000000" font-family="sans-serif" font-size="14" lengthAdjust="spacing" textLength="145" x="473" y="1830.7598">CreatePathComponent</text><rect fill="#FFFFFF" height="49.2188" rx="2.5" ry="2.5" style="stroke:#000000;stroke-width:0.5;" width="131" x="730" y="1791.6172"/><text fill="#000000" font-family="sans-serif" font-size="14" font-style="italic" lengthAdjust="spacing" textLength="117" x="737" y="1813.1504">«Component(C4)»</text><text fill="#000000" font-family="sans-serif" font-size="14" lengthAdjust="spacing" textLength="76" x="757.5" y="1830.7598">PathService</text><rect fill="#FFFFFF" height="49.2188" rx="2.5" ry="2.5" style="stroke:#000000;stroke-width:0.5;" width="120" x="985.5" y="1791.6172"/><text fill="#000000" font-family="sans-serif" font-size="14" font-style="italic" lengthAdjust="spacing" textLength="106" x="992.5" y="1813.1504">«Container(C4)»</text><text fill="#000000" font-family="sans-serif" font-size="14" lengthAdjust="spacing" textLength="29" x="1031" y="1830.7598">Auth</text><rect fill="#FFFFFF" height="49.2188" rx="2.5" ry="2.5" style="stroke:#000000;stroke-width:0.5;" width="131" x="1239" y="1791.6172"/><text fill="#000000" font-family="sans-serif" font-size="14" font-style="italic" lengthAdjust="spacing" textLength="117" x="1246" y="1813.1504">«Component(C4)»</text><text fill="#000000" font-family="sans-serif" font-size="14" lengthAdjust="spacing" textLength="67" x="1271" y="1830.7598">PathRoute</text><rect fill="#FFFFFF" height="49.2188" rx="2.5" ry="2.5" style="stroke:#000000;stroke-width:0.5;" width="131" x="1498" y="1791.6172"/><text fill="#000000" font-family="sans-serif" font-size="14" font-style="italic" lengthAdjust="spacing" textLength="117" x="1505" y="1813.1504">«Component(C4)»</text><text fill="#000000" font-family="sans-serif" font-size="14" lengthAdjust="spacing" textLength="91" x="1518" y="1830.7598">PathController</text><rect fill="#FFFFFF" height="49.2188" rx="2.5" ry="2.5" style="stroke:#000000;stroke-width:0.5;" width="131" x="1696" y="1791.6172"/><text fill="#000000" font-family="sans-serif" font-size="14" font-style="italic" lengthAdjust="spacing" textLength="117" x="1703" y="1813.1504">«Component(C4)»</text><text fill="#000000" font-family="sans-serif" font-size="14" lengthAdjust="spacing" textLength="76" x="1723.5" y="1830.7598">PathService</text><rect fill="#FFFFFF" height="49.2188" rx="2.5" ry="2.5" style="stroke:#000000;stroke-width:0.5;" width="131" x="1881" y="1791.6172"/><text fill="#000000" font-family="sans-serif" font-size="14" font-style="italic" lengthAdjust="spacing" textLength="117" x="1888" y="1813.1504">«Component(C4)»</text><text fill="#000000" font-family="sans-serif" font-size="14" lengthAdjust="spacing" textLength="97" x="1898" y="1830.7598">PathRepository</text><rect fill="#FFFFFF" height="49.2188" rx="2.5" ry="2.5" style="stroke:#000000;stroke-width:0.5;" width="131" x="2039" y="1791.6172"/><text fill="#000000" font-family="sans-serif" font-size="14" font-style="italic" lengthAdjust="spacing" textLength="117" x="2046" y="1813.1504">«Component(C4)»</text><text fill="#000000" font-family="sans-serif" font-size="14" lengthAdjust="spacing" textLength="74" x="2067.5" y="1830.7598">Persistence</text><rect fill="#FFFFFF" height="49.2188" rx="2.5" ry="2.5" style="stroke:#000000;stroke-width:0.5;" width="169" x="2190" y="1791.6172"/><text fill="#000000" font-family="sans-serif" font-size="14" font-style="italic" lengthAdjust="spacing" textLength="106" x="2221.5" y="1813.1504">«Container(C4)»</text><text fill="#000000" font-family="sans-serif" font-size="14" lengthAdjust="spacing" textLength="155" x="2197" y="1830.7598">WarehouseManagement</text><rect fill="#FFFFFF" height="31.6094" rx="2.5" ry="2.5" style="stroke:#000000;stroke-width:0.5;" width="43" x="2379" y="1791.6172"/><text fill="#000000" font-family="sans-serif" font-size="14" lengthAdjust="spacing" textLength="29" x="2386" y="1813.1504">Auth</text><polygon fill="#181818" points="242.5,184.3672,252.5,188.3672,242.5,192.3672,246.5,188.3672" style="stroke:#181818;stroke-width:1.0;"/><line style="stroke:#181818;stroke-width:1.0;" x1="65.5" x2="248.5" y1="188.3672" y2="188.3672"/><text fill="#000000" font-family="sans-serif" font-size="13" font-weight="bold" lengthAdjust="spacing" textLength="7" x="72.5" y="183.5107">1</text><text fill="#000000" font-family="sans-serif" font-size="13" lengthAdjust="spacing" textLength="154" x="83.5" y="183.5107">Asks to create a new Path</text><polygon fill="#181818" points="528.5,214.7188,538.5,218.7188,528.5,222.7188,532.5,218.7188" style="stroke:#181818;stroke-width:1.0;"/><line style="stroke:#181818;stroke-width:1.0;" x1="264.5" x2="534.5" y1="218.7188" y2="218.7188"/><text fill="#000000" font-family="sans-serif" font-size="13" font-weight="bold" lengthAdjust="spacing" textLength="7" x="271.5" y="213.8623">2</text><text fill="#000000" font-family="sans-serif" font-size="13" lengthAdjust="spacing" textLength="197" x="282.5" y="213.8623">navigate to CreatePathComponent</text><polygon fill="#181818" points="76.5,245.0703,66.5,249.0703,76.5,253.0703,72.5,249.0703" style="stroke:#181818;stroke-width:1.0;"/><line style="stroke:#181818;stroke-width:1.0;stroke-dasharray:2.0,2.0;" x1="70.5" x2="539.5" y1="249.0703" y2="249.0703"/><text fill="#000000" font-family="sans-serif" font-size="13" font-weight="bold" lengthAdjust="spacing" textLength="7" x="82.5" y="244.2139">3</text><text fill="#000000" font-family="sans-serif" font-size="13" lengthAdjust="spacing" textLength="166" x="93.5" y="244.2139">Asks for info about new Path</text><polygon fill="#181818" points="528.5,275.4219,538.5,279.4219,528.5,283.4219,532.5,279.4219" style="stroke:#181818;stroke-width:1.0;"/><line style="stroke:#181818;stroke-width:1.0;" x1="65.5" x2="534.5" y1="279.4219" y2="279.4219"/><text fill="#000000" font-family="sans-serif" font-size="13" font-weight="bold" lengthAdjust="spacing" textLength="7" x="72.5" y="274.5654">4</text><text fill="#000000" font-family="sans-serif" font-size="13" lengthAdjust="spacing" textLength="94" x="83.5" y="274.5654">Inserts Path info</text><polygon fill="#181818" points="778.5,305.7734,788.5,309.7734,778.5,313.7734,782.5,309.7734" style="stroke:#181818;stroke-width:1.0;"/><line style="stroke:#181818;stroke-width:1.0;" x1="550.5" x2="784.5" y1="309.7734" y2="309.7734"/><text fill="#000000" font-family="sans-serif" font-size="13" font-weight="bold" lengthAdjust="spacing" textLength="7" x="557.5" y="304.917">5</text><text fill="#000000" font-family="sans-serif" font-size="13" lengthAdjust="spacing" textLength="98" x="568.5" y="304.917">createPath(Path)</text><polygon fill="#181818" points="1033.5,336.125,1043.5,340.125,1033.5,344.125,1037.5,340.125" style="stroke:#181818;stroke-width:1.0;"/><line style="stroke:#181818;stroke-width:1.0;" x1="800.5" x2="1039.5" y1="340.125" y2="340.125"/><text fill="#000000" font-family="sans-serif" font-size="13" font-weight="bold" lengthAdjust="spacing" textLength="7" x="807.5" y="335.2686">6</text><text fill="#000000" font-family="sans-serif" font-size="13" lengthAdjust="spacing" textLength="155" x="818.5" y="335.2686">POST createPath(pathInfo)</text><polygon fill="#181818" points="1028.5,366.4766,1038.5,370.4766,1028.5,374.4766,1032.5,370.4766" style="stroke:#181818;stroke-width:1.0;"/><line style="stroke:#181818;stroke-width:1.0;" x1="65.5" x2="1034.5" y1="370.4766" y2="370.4766"/><text fill="#000000" font-family="sans-serif" font-size="13" font-weight="bold" lengthAdjust="spacing" textLength="7" x="72.5" y="365.6201">7</text><text fill="#000000" font-family="sans-serif" font-size="13" lengthAdjust="spacing" textLength="158" x="83.5" y="365.6201">I want to create a new Path</text><polygon fill="#181818" points="76.5,396.8281,66.5,400.8281,76.5,404.8281,72.5,400.8281" style="stroke:#181818;stroke-width:1.0;"/><line style="stroke:#181818;stroke-width:1.0;" x1="70.5" x2="1039.5" y1="400.8281" y2="400.8281"/><text fill="#000000" font-family="sans-serif" font-size="13" font-weight="bold" lengthAdjust="spacing" textLength="7" x="82.5" y="395.9717">8</text><text fill="#000000" font-family="sans-serif" font-size="13" lengthAdjust="spacing" textLength="208" x="93.5" y="395.9717">asks for the details on the new Path</text><polygon fill="#181818" points="1028.5,427.1797,1038.5,431.1797,1028.5,435.1797,1032.5,431.1797" style="stroke:#181818;stroke-width:1.0;"/><line style="stroke:#181818;stroke-width:1.0;" x1="65.5" x2="1034.5" y1="431.1797" y2="431.1797"/><text fill="#000000" font-family="sans-serif" font-size="13" font-weight="bold" lengthAdjust="spacing" textLength="7" x="72.5" y="426.3232">9</text><text fill="#000000" font-family="sans-serif" font-size="13" lengthAdjust="spacing" textLength="244" x="83.5" y="426.3232">inserts the information about the new Path</text><polygon fill="#181818" points="1287.5,457.5313,1297.5,461.5313,1287.5,465.5313,1291.5,461.5313" style="stroke:#181818;stroke-width:1.0;"/><line style="stroke:#181818;stroke-width:1.0;" x1="1050.5" x2="1293.5" y1="461.5313" y2="461.5313"/><text fill="#000000" font-family="sans-serif" font-size="13" font-weight="bold" lengthAdjust="spacing" textLength="14" x="1057.5" y="456.6748">10</text><text fill="#000000" font-family="sans-serif" font-size="13" lengthAdjust="spacing" textLength="155" x="1075.5" y="456.6748">POST createPath(pathInfo)</text><polygon fill="#181818" points="1546.5,487.8828,1556.5,491.8828,1546.5,495.8828,1550.5,491.8828" style="stroke:#181818;stroke-width:1.0;"/><line style="stroke:#181818;stroke-width:1.0;" x1="1309.5" x2="1552.5" y1="491.8828" y2="491.8828"/><text fill="#000000" font-family="sans-serif" font-size="13" font-weight="bold" lengthAdjust="spacing" textLength="14" x="1316.5" y="487.0264">11</text><text fill="#000000" font-family="sans-serif" font-size="13" lengthAdjust="spacing" textLength="155" x="1334.5" y="487.0264">POST createPath(pathInfo)</text><polygon fill="#181818" points="2257.5,518.2344,2267.5,522.2344,2257.5,526.2344,2261.5,522.2344" style="stroke:#181818;stroke-width:1.0;"/><line style="stroke:#181818;stroke-width:1.0;" x1="1568.5" x2="2263.5" y1="522.2344" y2="522.2344"/><text fill="#000000" font-family="sans-serif" font-size="13" font-weight="bold" lengthAdjust="spacing" textLength="14" x="1575.5" y="517.3779">12</text><text fill="#000000" font-family="sans-serif" font-size="13" lengthAdjust="spacing" textLength="158" x="1593.5" y="517.3779">GET existsPath(startWhID)</text><polygon fill="#181818" points="2257.5,548.5859,2267.5,552.5859,2257.5,556.5859,2261.5,552.5859" style="stroke:#181818;stroke-width:1.0;"/><line style="stroke:#181818;stroke-width:1.0;" x1="1568.5" x2="2263.5" y1="552.5859" y2="552.5859"/><text fill="#000000" font-family="sans-serif" font-size="13" font-weight="bold" lengthAdjust="spacing" textLength="14" x="1575.5" y="547.7295">13</text><text fill="#000000" font-family="sans-serif" font-size="13" lengthAdjust="spacing" textLength="195" x="1593.5" y="547.7295">GET existsPath(destinationWhID)</text><path d="M49.5,564.5859 L110.5,564.5859 L110.5,572.9375 L100.5,582.9375 L49.5,582.9375 L49.5,564.5859 " fill="#EEEEEE" style="stroke:#000000;stroke-width:1.5;"/><rect fill="none" height="1203.0313" style="stroke:#000000;stroke-width:1.5;" width="2388.5" x="49.5" y="564.5859"/><text fill="#000000" font-family="sans-serif" font-size="13" font-weight="bold" lengthAdjust="spacing" textLength="16" x="64.5" y="579.0811">alt</text><text fill="#000000" font-family="sans-serif" font-size="11" font-weight="bold" lengthAdjust="spacing" textLength="233" x="125.5" y="578.0049">[Path doesn't exist and Warehouse exists]</text><line style="stroke:#000000;stroke-width:1.0;stroke-dasharray:2.0,2.0;" x1="49.5" x2="2438" y1="1119.9141" y2="1119.9141"/><text fill="#000000" font-family="sans-serif" font-size="11" font-weight="bold" lengthAdjust="spacing" textLength="238" x="54.5" y="1131.333">[Path already exists and Warehouse exists]</text><line style="stroke:#000000;stroke-width:1.0;stroke-dasharray:2.0,2.0;" x1="49.5" x2="2438" y1="1540.3203" y2="1540.3203"/><text fill="#000000" font-family="sans-serif" font-size="11" font-weight="bold" lengthAdjust="spacing" textLength="146" x="54.5" y="1551.7393">[warehouse doesn't exist]</text><polygon fill="#181818" points="1579.5,611.2891,1569.5,615.2891,1579.5,619.2891,1575.5,615.2891" style="stroke:#181818;stroke-width:1.0;"/><line style="stroke:#181818;stroke-width:1.0;" x1="1573.5" x2="2268.5" y1="615.2891" y2="615.2891"/><text fill="#000000" font-family="sans-serif" font-size="13" font-weight="bold" lengthAdjust="spacing" textLength="14" x="1585.5" y="610.4326">14</text><text fill="#000000" font-family="sans-serif" font-size="13" lengthAdjust="spacing" textLength="44" x="1603.5" y="610.4326">200 OK</text><polygon fill="#181818" points="1744.5,641.6406,1754.5,645.6406,1744.5,649.6406,1748.5,645.6406" style="stroke:#181818;stroke-width:1.0;"/><line style="stroke:#181818;stroke-width:1.0;" x1="1568.5" x2="1750.5" y1="645.6406" y2="645.6406"/><text fill="#000000" font-family="sans-serif" font-size="13" font-weight="bold" lengthAdjust="spacing" textLength="14" x="1575.5" y="640.7842">15</text><text fill="#000000" font-family="sans-serif" font-size="13" lengthAdjust="spacing" textLength="116" x="1593.5" y="640.7842">createPath(pathInfo)</text><polygon fill="#181818" points="1929.5,671.9922,1939.5,675.9922,1929.5,679.9922,1933.5,675.9922" style="stroke:#181818;stroke-width:1.0;"/><line style="stroke:#181818;stroke-width:1.0;" x1="1766.5" x2="1935.5" y1="675.9922" y2="675.9922"/><text fill="#000000" font-family="sans-serif" font-size="13" font-weight="bold" lengthAdjust="spacing" textLength="14" x="1773.5" y="671.1357">16</text><text fill="#000000" font-family="sans-serif" font-size="13" lengthAdjust="spacing" textLength="138" x="1791.5" y="671.1357">getPathById(pathInfo.id)</text><polygon fill="#181818" points="2087.5,702.3438,2097.5,706.3438,2087.5,710.3438,2091.5,706.3438" style="stroke:#181818;stroke-width:1.0;"/><line style="stroke:#181818;stroke-width:1.0;" x1="1951.5" x2="2093.5" y1="706.3438" y2="706.3438"/><text fill="#000000" font-family="sans-serif" font-size="13" font-weight="bold" lengthAdjust="spacing" textLength="14" x="1958.5" y="701.4873">17</text><text fill="#000000" font-family="sans-serif" font-size="13" lengthAdjust="spacing" textLength="111" x="1976.5" y="701.4873">findOne(pathInfo.id)</text><polygon fill="#181818" points="1962.5,732.6953,1952.5,736.6953,1962.5,740.6953,1958.5,736.6953" style="stroke:#181818;stroke-width:1.0;"/><line style="stroke:#181818;stroke-width:1.0;stroke-dasharray:2.0,2.0;" x1="1956.5" x2="2098.5" y1="736.6953" y2="736.6953"/><text fill="#000000" font-family="sans-serif" font-size="13" font-weight="bold" lengthAdjust="spacing" textLength="14" x="1968.5" y="731.8389">18</text><text fill="#000000" font-family="sans-serif" font-size="13" lengthAdjust="spacing" textLength="20" x="1986.5" y="731.8389">null</text><polygon fill="#181818" points="1777.5,763.0469,1767.5,767.0469,1777.5,771.0469,1773.5,767.0469" style="stroke:#181818;stroke-width:1.0;"/><line style="stroke:#181818;stroke-width:1.0;stroke-dasharray:2.0,2.0;" x1="1771.5" x2="1940.5" y1="767.0469" y2="767.0469"/><text fill="#000000" font-family="sans-serif" font-size="13" font-weight="bold" lengthAdjust="spacing" textLength="14" x="1783.5" y="762.1904">19</text><text fill="#000000" font-family="sans-serif" font-size="13" lengthAdjust="spacing" textLength="20" x="1801.5" y="762.1904">null</text><polygon fill="#181818" points="1929.5,793.3984,1939.5,797.3984,1929.5,801.3984,1933.5,797.3984" style="stroke:#181818;stroke-width:1.0;"/><line style="stroke:#181818;stroke-width:1.0;" x1="1766.5" x2="1935.5" y1="797.3984" y2="797.3984"/><text fill="#000000" font-family="sans-serif" font-size="13" font-weight="bold" lengthAdjust="spacing" textLength="14" x="1773.5" y="792.542">20</text><text fill="#000000" font-family="sans-serif" font-size="13" lengthAdjust="spacing" textLength="79" x="1791.5" y="792.542">save(pathInfo)</text><polygon fill="#181818" points="2087.5,823.75,2097.5,827.75,2087.5,831.75,2091.5,827.75" style="stroke:#181818;stroke-width:1.0;"/><line style="stroke:#181818;stroke-width:1.0;" x1="1951.5" x2="2093.5" y1="827.75" y2="827.75"/><text fill="#000000" font-family="sans-serif" font-size="13" font-weight="bold" lengthAdjust="spacing" textLength="14" x="1958.5" y="822.8936">21</text><text fill="#000000" font-family="sans-serif" font-size="13" lengthAdjust="spacing" textLength="79" x="1976.5" y="822.8936">save(pathInfo)</text><polygon fill="#181818" points="1962.5,854.1016,1952.5,858.1016,1962.5,862.1016,1958.5,858.1016" style="stroke:#181818;stroke-width:1.0;"/><line style="stroke:#181818;stroke-width:1.0;stroke-dasharray:2.0,2.0;" x1="1956.5" x2="2098.5" y1="858.1016" y2="858.1016"/><text fill="#000000" font-family="sans-serif" font-size="13" font-weight="bold" lengthAdjust="spacing" textLength="14" x="1968.5" y="853.2451">22</text><text fill="#000000" font-family="sans-serif" font-size="13" lengthAdjust="spacing" textLength="22" x="1986.5" y="853.2451">true</text><polygon fill="#181818" points="1777.5,884.4531,1767.5,888.4531,1777.5,892.4531,1773.5,888.4531" style="stroke:#181818;stroke-width:1.0;"/><line style="stroke:#181818;stroke-width:1.0;stroke-dasharray:2.0,2.0;" x1="1771.5" x2="1940.5" y1="888.4531" y2="888.4531"/><text fill="#000000" font-family="sans-serif" font-size="13" font-weight="bold" lengthAdjust="spacing" textLength="14" x="1783.5" y="883.5967">23</text><text fill="#000000" font-family="sans-serif" font-size="13" lengthAdjust="spacing" textLength="45" x="1801.5" y="883.5967">pathInfo</text><polygon fill="#181818" points="1579.5,914.8047,1569.5,918.8047,1579.5,922.8047,1575.5,918.8047" style="stroke:#181818;stroke-width:1.0;"/><line style="stroke:#181818;stroke-width:1.0;stroke-dasharray:2.0,2.0;" x1="1573.5" x2="1755.5" y1="918.8047" y2="918.8047"/><text fill="#000000" font-family="sans-serif" font-size="13" font-weight="bold" lengthAdjust="spacing" textLength="14" x="1585.5" y="913.9482">24</text><text fill="#000000" font-family="sans-serif" font-size="13" lengthAdjust="spacing" textLength="45" x="1603.5" y="913.9482">pathInfo</text><polygon fill="#181818" points="1320.5,945.1563,1310.5,949.1563,1320.5,953.1563,1316.5,949.1563" style="stroke:#181818;stroke-width:1.0;"/><line style="stroke:#181818;stroke-width:1.0;stroke-dasharray:2.0,2.0;" x1="1314.5" x2="1557.5" y1="949.1563" y2="949.1563"/><text fill="#000000" font-family="sans-serif" font-size="13" font-weight="bold" lengthAdjust="spacing" textLength="14" x="1326.5" y="944.2998">25</text><text fill="#000000" font-family="sans-serif" font-size="13" lengthAdjust="spacing" textLength="147" x="1344.5" y="944.2998">201 CREATED + pathInfo</text><polygon fill="#181818" points="1061.5,975.5078,1051.5,979.5078,1061.5,983.5078,1057.5,979.5078" style="stroke:#181818;stroke-width:1.0;"/><line style="stroke:#181818;stroke-width:1.0;stroke-dasharray:2.0,2.0;" x1="1055.5" x2="1298.5" y1="979.5078" y2="979.5078"/><text fill="#000000" font-family="sans-serif" font-size="13" font-weight="bold" lengthAdjust="spacing" textLength="14" x="1067.5" y="974.6514">26</text><text fill="#000000" font-family="sans-serif" font-size="13" lengthAdjust="spacing" textLength="86" x="1085.5" y="974.6514">201 CREATED</text><polygon fill="#181818" points="811.5,1005.8594,801.5,1009.8594,811.5,1013.8594,807.5,1009.8594" style="stroke:#181818;stroke-width:1.0;"/><line style="stroke:#181818;stroke-width:1.0;" x1="805.5" x2="1039.5" y1="1009.8594" y2="1009.8594"/><text fill="#000000" font-family="sans-serif" font-size="13" font-weight="bold" lengthAdjust="spacing" textLength="14" x="817.5" y="1005.0029">27</text><text fill="#000000" font-family="sans-serif" font-size="13" lengthAdjust="spacing" textLength="86" x="835.5" y="1005.0029">201 CREATED</text><polygon fill="#181818" points="561.5,1036.2109,551.5,1040.2109,561.5,1044.2109,557.5,1040.2109" style="stroke:#181818;stroke-width:1.0;"/><line style="stroke:#181818;stroke-width:1.0;" x1="555.5" x2="789.5" y1="1040.2109" y2="1040.2109"/><text fill="#000000" font-family="sans-serif" font-size="13" font-weight="bold" lengthAdjust="spacing" textLength="14" x="567.5" y="1035.3545">28</text><text fill="#000000" font-family="sans-serif" font-size="13" lengthAdjust="spacing" textLength="86" x="585.5" y="1035.3545">201 CREATED</text><polygon fill="#181818" points="76.5,1066.5625,66.5,1070.5625,76.5,1074.5625,72.5,1070.5625" style="stroke:#181818;stroke-width:1.0;"/><line style="stroke:#181818;stroke-width:1.0;stroke-dasharray:2.0,2.0;" x1="70.5" x2="539.5" y1="1070.5625" y2="1070.5625"/><text fill="#000000" font-family="sans-serif" font-size="13" font-weight="bold" lengthAdjust="spacing" textLength="14" x="82.5" y="1065.7061">29</text><text fill="#000000" font-family="sans-serif" font-size="13" lengthAdjust="spacing" textLength="230" x="100.5" y="1065.7061">Informs about path successfully created</text><polygon fill="#181818" points="275.5,1096.9141,265.5,1100.9141,275.5,1104.9141,271.5,1100.9141" style="stroke:#181818;stroke-width:1.0;"/><line style="stroke:#181818;stroke-width:1.0;" x1="269.5" x2="539.5" y1="1100.9141" y2="1100.9141"/><text fill="#000000" font-family="sans-serif" font-size="13" font-weight="bold" lengthAdjust="spacing" textLength="14" x="281.5" y="1096.0576">30</text><text fill="#000000" font-family="sans-serif" font-size="13" lengthAdjust="spacing" textLength="234" x="299.5" y="1096.0576">navigate to LogisticsManagerComponent</text><polygon fill="#181818" points="1579.5,1153.1016,1569.5,1157.1016,1579.5,1161.1016,1575.5,1157.1016" style="stroke:#181818;stroke-width:1.0;"/><line style="stroke:#181818;stroke-width:1.0;" x1="1573.5" x2="2268.5" y1="1157.1016" y2="1157.1016"/><text fill="#000000" font-family="sans-serif" font-size="13" font-weight="bold" lengthAdjust="spacing" textLength="14" x="1585.5" y="1152.2451">31</text><text fill="#000000" font-family="sans-serif" font-size="13" lengthAdjust="spacing" textLength="44" x="1603.5" y="1152.2451">200 OK</text><polygon fill="#181818" points="1744.5,1183.4531,1754.5,1187.4531,1744.5,1191.4531,1748.5,1187.4531" style="stroke:#181818;stroke-width:1.0;"/><line style="stroke:#181818;stroke-width:1.0;" x1="1568.5" x2="1750.5" y1="1187.4531" y2="1187.4531"/><text fill="#000000" font-family="sans-serif" font-size="13" font-weight="bold" lengthAdjust="spacing" textLength="14" x="1575.5" y="1182.5967">32</text><text fill="#000000" font-family="sans-serif" font-size="13" lengthAdjust="spacing" textLength="116" x="1593.5" y="1182.5967">createPath(pathInfo)</text><polygon fill="#181818" points="1929.5,1213.8047,1939.5,1217.8047,1929.5,1221.8047,1933.5,1217.8047" style="stroke:#181818;stroke-width:1.0;"/><line style="stroke:#181818;stroke-width:1.0;" x1="1766.5" x2="1935.5" y1="1217.8047" y2="1217.8047"/><text fill="#000000" font-family="sans-serif" font-size="13" font-weight="bold" lengthAdjust="spacing" textLength="14" x="1773.5" y="1212.9482">33</text><text fill="#000000" font-family="sans-serif" font-size="13" lengthAdjust="spacing" textLength="138" x="1791.5" y="1212.9482">getPathById(pathInfo.id)</text><polygon fill="#181818" points="2087.5,1244.1563,2097.5,1248.1563,2087.5,1252.1563,2091.5,1248.1563" style="stroke:#181818;stroke-width:1.0;"/><line style="stroke:#181818;stroke-width:1.0;" x1="1951.5" x2="2093.5" y1="1248.1563" y2="1248.1563"/><text fill="#000000" font-family="sans-serif" font-size="13" font-weight="bold" lengthAdjust="spacing" textLength="14" x="1958.5" y="1243.2998">34</text><text fill="#000000" font-family="sans-serif" font-size="13" lengthAdjust="spacing" textLength="111" x="1976.5" y="1243.2998">findOne(pathInfo.id)</text><polygon fill="#181818" points="1962.5,1274.5078,1952.5,1278.5078,1962.5,1282.5078,1958.5,1278.5078" style="stroke:#181818;stroke-width:1.0;"/><line style="stroke:#181818;stroke-width:1.0;stroke-dasharray:2.0,2.0;" x1="1956.5" x2="2098.5" y1="1278.5078" y2="1278.5078"/><text fill="#000000" font-family="sans-serif" font-size="13" font-weight="bold" lengthAdjust="spacing" textLength="14" x="1968.5" y="1273.6514">35</text><text fill="#000000" font-family="sans-serif" font-size="13" lengthAdjust="spacing" textLength="27" x="1986.5" y="1273.6514">Path</text><polygon fill="#181818" points="1777.5,1304.8594,1767.5,1308.8594,1777.5,1312.8594,1773.5,1308.8594" style="stroke:#181818;stroke-width:1.0;"/><line style="stroke:#181818;stroke-width:1.0;stroke-dasharray:2.0,2.0;" x1="1771.5" x2="1940.5" y1="1308.8594" y2="1308.8594"/><text fill="#000000" font-family="sans-serif" font-size="13" font-weight="bold" lengthAdjust="spacing" textLength="14" x="1783.5" y="1304.0029">36</text><text fill="#000000" font-family="sans-serif" font-size="13" lengthAdjust="spacing" textLength="27" x="1801.5" y="1304.0029">Path</text><polygon fill="#181818" points="1579.5,1335.2109,1569.5,1339.2109,1579.5,1343.2109,1575.5,1339.2109" style="stroke:#181818;stroke-width:1.0;"/><line style="stroke:#181818;stroke-width:1.0;stroke-dasharray:2.0,2.0;" x1="1573.5" x2="1755.5" y1="1339.2109" y2="1339.2109"/><text fill="#000000" font-family="sans-serif" font-size="13" font-weight="bold" lengthAdjust="spacing" textLength="14" x="1585.5" y="1334.3545">37</text><text fill="#000000" font-family="sans-serif" font-size="13" lengthAdjust="spacing" textLength="146" x="1603.5" y="1334.3545">error, Path already exists</text><polygon fill="#181818" points="1320.5,1365.5625,1310.5,1369.5625,1320.5,1373.5625,1316.5,1369.5625" style="stroke:#181818;stroke-width:1.0;"/><line style="stroke:#181818;stroke-width:1.0;stroke-dasharray:2.0,2.0;" x1="1314.5" x2="1557.5" y1="1369.5625" y2="1369.5625"/><text fill="#000000" font-family="sans-serif" font-size="13" font-weight="bold" lengthAdjust="spacing" textLength="14" x="1326.5" y="1364.7061">38</text><text fill="#000000" font-family="sans-serif" font-size="13" lengthAdjust="spacing" textLength="207" x="1344.5" y="1364.7061">409 CONFLICT, Path already exists</text><polygon fill="#181818" points="1061.5,1395.9141,1051.5,1399.9141,1061.5,1403.9141,1057.5,1399.9141" style="stroke:#181818;stroke-width:1.0;"/><line style="stroke:#181818;stroke-width:1.0;stroke-dasharray:2.0,2.0;" x1="1055.5" x2="1298.5" y1="1399.9141" y2="1399.9141"/><text fill="#000000" font-family="sans-serif" font-size="13" font-weight="bold" lengthAdjust="spacing" textLength="14" x="1067.5" y="1395.0576">39</text><text fill="#000000" font-family="sans-serif" font-size="13" lengthAdjust="spacing" textLength="207" x="1085.5" y="1395.0576">409 CONFLICT, Path already exists</text><polygon fill="#181818" points="811.5,1426.2656,801.5,1430.2656,811.5,1434.2656,807.5,1430.2656" style="stroke:#181818;stroke-width:1.0;"/><line style="stroke:#181818;stroke-width:1.0;" x1="805.5" x2="1039.5" y1="1430.2656" y2="1430.2656"/><text fill="#000000" font-family="sans-serif" font-size="13" font-weight="bold" lengthAdjust="spacing" textLength="14" x="817.5" y="1425.4092">40</text><text fill="#000000" font-family="sans-serif" font-size="13" lengthAdjust="spacing" textLength="198" x="835.5" y="1425.4092">409 CONFLIT, Path already exists</text><polygon fill="#181818" points="561.5,1456.6172,551.5,1460.6172,561.5,1464.6172,557.5,1460.6172" style="stroke:#181818;stroke-width:1.0;"/><line style="stroke:#181818;stroke-width:1.0;" x1="555.5" x2="789.5" y1="1460.6172" y2="1460.6172"/><text fill="#000000" font-family="sans-serif" font-size="13" font-weight="bold" lengthAdjust="spacing" textLength="14" x="567.5" y="1455.7607">41</text><text fill="#000000" font-family="sans-serif" font-size="13" lengthAdjust="spacing" textLength="198" x="585.5" y="1455.7607">409 CONFLIT, Path already exists</text><polygon fill="#181818" points="76.5,1486.9688,66.5,1490.9688,76.5,1494.9688,72.5,1490.9688" style="stroke:#181818;stroke-width:1.0;"/><line style="stroke:#181818;stroke-width:1.0;stroke-dasharray:2.0,2.0;" x1="70.5" x2="539.5" y1="1490.9688" y2="1490.9688"/><text fill="#000000" font-family="sans-serif" font-size="13" font-weight="bold" lengthAdjust="spacing" textLength="14" x="82.5" y="1486.1123">42</text><text fill="#000000" font-family="sans-serif" font-size="13" lengthAdjust="spacing" textLength="224" x="100.5" y="1486.1123">Informs about failure creating new Path</text><polygon fill="#181818" points="275.5,1517.3203,265.5,1521.3203,275.5,1525.3203,271.5,1521.3203" style="stroke:#181818;stroke-width:1.0;"/><line style="stroke:#181818;stroke-width:1.0;" x1="269.5" x2="539.5" y1="1521.3203" y2="1521.3203"/><text fill="#000000" font-family="sans-serif" font-size="13" font-weight="bold" lengthAdjust="spacing" textLength="14" x="281.5" y="1516.4639">43</text><text fill="#000000" font-family="sans-serif" font-size="13" lengthAdjust="spacing" textLength="234" x="299.5" y="1516.4639">navigate to LogisticsManagerComponent</text><polygon fill="#181818" points="1579.5,1573.5078,1569.5,1577.5078,1579.5,1581.5078,1575.5,1577.5078" style="stroke:#181818;stroke-width:1.0;"/><line style="stroke:#181818;stroke-width:1.0;" x1="1573.5" x2="2268.5" y1="1577.5078" y2="1577.5078"/><text fill="#000000" font-family="sans-serif" font-size="13" font-weight="bold" lengthAdjust="spacing" textLength="14" x="1585.5" y="1572.6514">44</text><text fill="#000000" font-family="sans-serif" font-size="13" lengthAdjust="spacing" textLength="100" x="1603.5" y="1572.6514">404 NOT FOUND</text><polygon fill="#181818" points="1315.5,1603.8594,1305.5,1607.8594,1315.5,1611.8594,1311.5,1607.8594" style="stroke:#181818;stroke-width:1.0;"/><line style="stroke:#181818;stroke-width:1.0;" x1="1309.5" x2="1557.5" y1="1607.8594" y2="1607.8594"/><text fill="#000000" font-family="sans-serif" font-size="13" font-weight="bold" lengthAdjust="spacing" textLength="14" x="1321.5" y="1603.0029">45</text><text fill="#000000" font-family="sans-serif" font-size="13" lengthAdjust="spacing" textLength="100" x="1339.5" y="1603.0029">404 NOT FOUND</text><polygon fill="#181818" points="1061.5,1634.2109,1051.5,1638.2109,1061.5,1642.2109,1057.5,1638.2109" style="stroke:#181818;stroke-width:1.0;"/><line style="stroke:#181818;stroke-width:1.0;stroke-dasharray:2.0,2.0;" x1="1055.5" x2="1303.5" y1="1638.2109" y2="1638.2109"/><text fill="#000000" font-family="sans-serif" font-size="13" font-weight="bold" lengthAdjust="spacing" textLength="14" x="1067.5" y="1633.3545">46</text><text fill="#000000" font-family="sans-serif" font-size="13" lengthAdjust="spacing" textLength="100" x="1085.5" y="1633.3545">404 NOT FOUND</text><polygon fill="#181818" points="806.5,1664.5625,796.5,1668.5625,806.5,1672.5625,802.5,1668.5625" style="stroke:#181818;stroke-width:1.0;"/><line style="stroke:#181818;stroke-width:1.0;" x1="800.5" x2="1039.5" y1="1668.5625" y2="1668.5625"/><text fill="#000000" font-family="sans-serif" font-size="13" font-weight="bold" lengthAdjust="spacing" textLength="14" x="812.5" y="1663.7061">47</text><text fill="#000000" font-family="sans-serif" font-size="13" lengthAdjust="spacing" textLength="100" x="830.5" y="1663.7061">404 NOT FOUND</text><polygon fill="#181818" points="561.5,1694.9141,551.5,1698.9141,561.5,1702.9141,557.5,1698.9141" style="stroke:#181818;stroke-width:1.0;"/><line style="stroke:#181818;stroke-width:1.0;" x1="555.5" x2="794.5" y1="1698.9141" y2="1698.9141"/><text fill="#000000" font-family="sans-serif" font-size="13" font-weight="bold" lengthAdjust="spacing" textLength="14" x="567.5" y="1694.0576">48</text><text fill="#000000" font-family="sans-serif" font-size="13" lengthAdjust="spacing" textLength="100" x="585.5" y="1694.0576">404 NOT FOUND</text><polygon fill="#181818" points="76.5,1725.2656,66.5,1729.2656,76.5,1733.2656,72.5,1729.2656" style="stroke:#181818;stroke-width:1.0;"/><line style="stroke:#181818;stroke-width:1.0;stroke-dasharray:2.0,2.0;" x1="70.5" x2="539.5" y1="1729.2656" y2="1729.2656"/><text fill="#000000" font-family="sans-serif" font-size="13" font-weight="bold" lengthAdjust="spacing" textLength="14" x="82.5" y="1724.4092">49</text><text fill="#000000" font-family="sans-serif" font-size="13" lengthAdjust="spacing" textLength="224" x="100.5" y="1724.4092">Informs about failure creating new Path</text><polygon fill="#181818" points="275.5,1755.6172,265.5,1759.6172,275.5,1763.6172,271.5,1759.6172" style="stroke:#181818;stroke-width:1.0;"/><line style="stroke:#181818;stroke-width:1.0;" x1="269.5" x2="539.5" y1="1759.6172" y2="1759.6172"/><text fill="#000000" font-family="sans-serif" font-size="13" font-weight="bold" lengthAdjust="spacing" textLength="14" x="281.5" y="1754.7607">50</text><text fill="#000000" font-family="sans-serif" font-size="13" lengthAdjust="spacing" textLength="234" x="299.5" y="1754.7607">navigate to LogisticsManagerComponent</text><!--MD5=[7547a43d7ae619642212f059c5081cbd]
@startuml createPathSD
autonumber
!pragma teoz true
skinparam sequence {
ParticipantBorderColor black
ParticipantBackgroundColor white
}
actor "Logistics Manager" as manager

box "<<Container(C4)>>\n           UI" #SandyBrown
participant "LogisticsManagerComponent" as LogisticsManagerComponent <<Component(C4)>>
participant "CreatePathComponent" as CreatePathComponent <<Component(C4)>>
participant "PathService" as PathService <<Component(C4)>>
end box


box "<<System(C4)>>\n       System" #Gold
participant Auth as  SPA <<Container(C4)>>
box "<<Container(C4)>>\n       Logistics" #LightBlue
participant PathRoute as Route <<Component(C4)>>
participant PathController as Controller <<Component(C4)>>
participant PathService as Service <<Component(C4)>>
participant PathRepository as Repository <<Component(C4)>>
participant Persistence as Persistence <<Component(C4)>>
end box
participant WarehouseManagement as WarehouseManagement <<Container(C4)>>
end box

manager -> LogisticsManagerComponent: Asks to create a new Path
activate LogisticsManagerComponent
LogisticsManagerComponent -> CreatePathComponent: navigate to CreatePathComponent
activate CreatePathComponent
CreatePathComponent - -> manager: Asks for info about new Path

manager ->CreatePathComponent: Inserts Path info

CreatePathComponent -> PathService: createPath(Path)
activate PathService
PathService -> SPA: POST createPath(pathInfo)


manager -> SPA: I want to create a new Path
activate SPA

SPA -> manager: asks for the details on the new Path
deactivate SPA

manager -> SPA: inserts the information about the new Path
activate SPA


SPA -> Route: POST createPath(pathInfo)
activate Route
Route -> Controller: POST createPath(pathInfo)
activate Controller

Controller -> WarehouseManagement: GET existsPath(startWhID)
activate WarehouseManagement
Controller -> WarehouseManagement: GET existsPath(destinationWhID)

alt Path doesn't exist and Warehouse exists

WarehouseManagement -> Controller: 200 OK

Controller -> Service: createPath(pathInfo)
activate Service
Service -> Repository: getPathById(pathInfo.id)
activate Repository
Repository -> Persistence: findOne(pathInfo.id)
activate Persistence
Persistence - -> Repository: null

Repository - -> Service: null

Service -> Repository: save(pathInfo)

Repository -> Persistence: save(pathInfo)

Persistence - -> Repository: true

Repository - -> Service: pathInfo

Service - -> Controller: pathInfo

Controller - -> Route: 201 CREATED + pathInfo

Route - -> SPA: 201 CREATED

SPA->PathService: 201 CREATED
PathService->CreatePathComponent: 201 CREATED

CreatePathComponent- ->manager: Informs about path successfully created
CreatePathComponent->LogisticsManagerComponent: navigate to LogisticsManagerComponent



else Path already exists and Warehouse exists

WarehouseManagement -> Controller: 200 OK

Controller -> Service: createPath(pathInfo)

Service -> Repository: getPathById(pathInfo.id)

Repository -> Persistence: findOne(pathInfo.id)

Persistence - -> Repository: Path
deactivate Persistence
Repository - -> Service: Path
deactivate Repository
Service - -> Controller: error, Path already exists
deactivate Service
Controller - -> Route: 409 CONFLICT, Path already exists

Route - -> SPA: 409 CONFLICT, Path already exists

SPA->PathService: 409 CONFLIT, Path already exists
deactivate Auth

PathService->CreatePathComponent: 409 CONFLIT, Path already exists
deactivate PathService
CreatePathComponent- ->manager: Informs about failure creating new Path
CreatePathComponent->LogisticsManagerComponent: navigate to LogisticsManagerComponent
deactivate 



else warehouse doesn't exist

WarehouseManagement -> Controller: 404 NOT FOUND
deactivate WarehouseManagement
Controller -> Route: 404 NOT FOUND
deactivate Controller
Route - -> SPA: 404 NOT FOUND
deactivate Route

SPA->PathService: 404 NOT FOUND
deactivate Auth

PathService->CreatePathComponent: 404 NOT FOUND
deactivate PathService
CreatePathComponent- ->manager: Informs about failure creating new Path
CreatePathComponent->LogisticsManagerComponent: navigate to LogisticsManagerComponent
 


end

deactivate SPA
deactivate manager

@enduml

PlantUML version 1.2022.7(Mon Aug 22 18:01:30 BST 2022)
(GPL source distribution)
Java Runtime: Java(TM) SE Runtime Environment
JVM: Java HotSpot(TM) Client VM
Default Encoding: Cp1252
Language: pt
Country: PT
--></g></svg>