<?xml version="1.0" encoding="UTF-8" standalone="no"?><svg xmlns="http://www.w3.org/2000/svg" xmlns:xlink="http://www.w3.org/1999/xlink" contentStyleType="text/css" height="2191px" preserveAspectRatio="none" style="width:1800px;height:2191px;background:#FFFFFF;" version="1.1" viewBox="0 0 1800 2191" width="1800px" zoomAndPan="magnify"><defs/><g><rect fill="#FFD700" height="2179.7109" style="stroke:#181818;stroke-width:0.5;" width="1474.5" x="281.5" y="6"/><text fill="#000000" font-family="sans-serif" font-size="13" font-weight="bold" lengthAdjust="spacing" textLength="102" x="967.75" y="19.4951">&lt;&lt;System(C4)&gt;&gt;</text><text fill="#000000" font-family="sans-serif" font-size="13" font-weight="bold" lengthAdjust="spacing" textLength="46" x="995.75" y="35.8467">System</text><rect fill="#ADD8E6" height="2142.0078" style="stroke:#181818;stroke-width:0.5;" width="1181" x="575" y="43.7031"/><text fill="#000000" font-family="sans-serif" font-size="13" font-weight="bold" lengthAdjust="spacing" textLength="118" x="1106.5" y="57.1982">&lt;&lt;Container(C4)&gt;&gt;</text><text fill="#000000" font-family="sans-serif" font-size="13" font-weight="bold" lengthAdjust="spacing" textLength="55" x="1134.5" y="73.5498">Logistics</text><rect fill="none" height="1847.3828" style="stroke:#000000;stroke-width:1.5;" width="1785" x="8" y="230.7188"/><rect fill="none" height="1441.3281" style="stroke:#000000;stroke-width:1.5;" width="1741" x="27" y="622.7734"/><line style="stroke:#181818;stroke-width:0.5;stroke-dasharray:5.0,5.0;" x1="103.5" x2="103.5" y1="158.0156" y2="2102.1016"/><line style="stroke:#181818;stroke-width:0.5;stroke-dasharray:5.0,5.0;" x1="345.5" x2="345.5" y1="158.0156" y2="2102.1016"/><rect fill="#FFFFFF" height="396.5703" style="stroke:#181818;stroke-width:1.0;" width="10" x="340.5" y="188.3672"/><line style="stroke:#181818;stroke-width:0.5;stroke-dasharray:5.0,5.0;" x1="644.5" x2="644.5" y1="158.0156" y2="2102.1016"/><rect fill="#FFFFFF" height="273.1641" style="stroke:#181818;stroke-width:1.0;" width="10" x="639.5" y="281.4219"/><rect fill="#FFFFFF" height="273.1641" style="stroke:#181818;stroke-width:1.0;" width="10" x="639.5" y="673.4766"/><rect fill="#FFFFFF" height="273.1641" style="stroke:#181818;stroke-width:1.0;" width="10" x="639.5" y="1033.1797"/><rect fill="#FFFFFF" height="273.1641" style="stroke:#181818;stroke-width:1.0;" width="10" x="639.5" y="1392.8828"/><rect fill="#FFFFFF" height="273.1641" style="stroke:#181818;stroke-width:1.0;" width="10" x="639.5" y="1752.5859"/><line style="stroke:#181818;stroke-width:0.5;stroke-dasharray:5.0,5.0;" x1="913.5" x2="913.5" y1="158.0156" y2="2102.1016"/><rect fill="#FFFFFF" height="212.4609" style="stroke:#181818;stroke-width:1.0;" width="10" x="908.5" y="311.7734"/><rect fill="#FFFFFF" height="212.4609" style="stroke:#181818;stroke-width:1.0;" width="10" x="908.5" y="703.8281"/><rect fill="#FFFFFF" height="212.4609" style="stroke:#181818;stroke-width:1.0;" width="10" x="908.5" y="1063.5313"/><rect fill="#FFFFFF" height="212.4609" style="stroke:#181818;stroke-width:1.0;" width="10" x="908.5" y="1423.2344"/><rect fill="#FFFFFF" height="212.4609" style="stroke:#181818;stroke-width:1.0;" width="10" x="908.5" y="1782.9375"/><line style="stroke:#181818;stroke-width:0.5;stroke-dasharray:5.0,5.0;" x1="1182.5" x2="1182.5" y1="158.0156" y2="2102.1016"/><rect fill="#FFFFFF" height="151.7578" style="stroke:#181818;stroke-width:1.0;" width="10" x="1177.5" y="342.125"/><rect fill="#FFFFFF" height="151.7578" style="stroke:#181818;stroke-width:1.0;" width="10" x="1177.5" y="734.1797"/><rect fill="#FFFFFF" height="151.7578" style="stroke:#181818;stroke-width:1.0;" width="10" x="1177.5" y="1093.8828"/><rect fill="#FFFFFF" height="151.7578" style="stroke:#181818;stroke-width:1.0;" width="10" x="1177.5" y="1453.5859"/><rect fill="#FFFFFF" height="151.7578" style="stroke:#181818;stroke-width:1.0;" width="10" x="1177.5" y="1813.2891"/><line style="stroke:#181818;stroke-width:0.5;stroke-dasharray:5.0,5.0;" x1="1451.5" x2="1451.5" y1="158.0156" y2="2102.1016"/><rect fill="#FFFFFF" height="91.0547" style="stroke:#181818;stroke-width:1.0;" width="10" x="1446.5" y="372.4766"/><rect fill="#FFFFFF" height="91.0547" style="stroke:#181818;stroke-width:1.0;" width="10" x="1446.5" y="764.5313"/><rect fill="#FFFFFF" height="91.0547" style="stroke:#181818;stroke-width:1.0;" width="10" x="1446.5" y="1124.2344"/><rect fill="#FFFFFF" height="91.0547" style="stroke:#181818;stroke-width:1.0;" width="10" x="1446.5" y="1483.9375"/><rect fill="#FFFFFF" height="91.0547" style="stroke:#181818;stroke-width:1.0;" width="10" x="1446.5" y="1843.6406"/><line style="stroke:#181818;stroke-width:0.5;stroke-dasharray:5.0,5.0;" x1="1686.5" x2="1686.5" y1="158.0156" y2="2102.1016"/><rect fill="#FFFFFF" height="30.3516" style="stroke:#181818;stroke-width:1.0;" width="10" x="1681.5" y="402.8281"/><rect fill="#FFFFFF" height="30.3516" style="stroke:#181818;stroke-width:1.0;" width="10" x="1681.5" y="794.8828"/><rect fill="#FFFFFF" height="30.3516" style="stroke:#181818;stroke-width:1.0;" width="10" x="1681.5" y="1154.5859"/><rect fill="#FFFFFF" height="30.3516" style="stroke:#181818;stroke-width:1.0;" width="10" x="1681.5" y="1514.2891"/><rect fill="#FFFFFF" height="30.3516" style="stroke:#181818;stroke-width:1.0;" width="10" x="1681.5" y="1873.9922"/><text fill="#000000" font-family="sans-serif" font-size="14" lengthAdjust="spacing" textLength="115" x="43" y="154.9395">Logistics Manager</text><ellipse cx="103.5" cy="88.9063" fill="#E2E2F0" rx="8" ry="8" style="stroke:#181818;stroke-width:0.5;"/><path d="M103.5,96.9063 L103.5,123.9063 M90.5,104.9063 L116.5,104.9063 M103.5,123.9063 L90.5,138.9063 M103.5,123.9063 L116.5,138.9063 " fill="none" style="stroke:#181818;stroke-width:0.5;"/><rect fill="#FFFFFF" height="49.2188" rx="2.5" ry="2.5" style="stroke:#000000;stroke-width:0.5;" width="120" x="285.5" y="107.7969"/><text fill="#000000" font-family="sans-serif" font-size="14" font-style="italic" lengthAdjust="spacing" textLength="106" x="292.5" y="129.3301">«Container(C4)»</text><text fill="#000000" font-family="sans-serif" font-size="14" lengthAdjust="spacing" textLength="27" x="332" y="146.9395">SPA</text><rect fill="#FFFFFF" height="49.2188" rx="2.5" ry="2.5" style="stroke:#000000;stroke-width:0.5;" width="131" x="579" y="107.7969"/><text fill="#000000" font-family="sans-serif" font-size="14" font-style="italic" lengthAdjust="spacing" textLength="117" x="586" y="129.3301">«Component(C4)»</text><text fill="#000000" font-family="sans-serif" font-size="14" lengthAdjust="spacing" textLength="67" x="611" y="146.9395">PathRoute</text><rect fill="#FFFFFF" height="49.2188" rx="2.5" ry="2.5" style="stroke:#000000;stroke-width:0.5;" width="131" x="848" y="107.7969"/><text fill="#000000" font-family="sans-serif" font-size="14" font-style="italic" lengthAdjust="spacing" textLength="117" x="855" y="129.3301">«Component(C4)»</text><text fill="#000000" font-family="sans-serif" font-size="14" lengthAdjust="spacing" textLength="91" x="868" y="146.9395">PathController</text><rect fill="#FFFFFF" height="49.2188" rx="2.5" ry="2.5" style="stroke:#000000;stroke-width:0.5;" width="131" x="1117" y="107.7969"/><text fill="#000000" font-family="sans-serif" font-size="14" font-style="italic" lengthAdjust="spacing" textLength="117" x="1124" y="129.3301">«Component(C4)»</text><text fill="#000000" font-family="sans-serif" font-size="14" lengthAdjust="spacing" textLength="76" x="1144.5" y="146.9395">PathService</text><rect fill="#FFFFFF" height="49.2188" rx="2.5" ry="2.5" style="stroke:#000000;stroke-width:0.5;" width="131" x="1386" y="107.7969"/><text fill="#000000" font-family="sans-serif" font-size="14" font-style="italic" lengthAdjust="spacing" textLength="117" x="1393" y="129.3301">«Component(C4)»</text><text fill="#000000" font-family="sans-serif" font-size="14" lengthAdjust="spacing" textLength="97" x="1403" y="146.9395">PathRepository</text><rect fill="#FFFFFF" height="49.2188" rx="2.5" ry="2.5" style="stroke:#000000;stroke-width:0.5;" width="131" x="1621" y="107.7969"/><text fill="#000000" font-family="sans-serif" font-size="14" font-style="italic" lengthAdjust="spacing" textLength="117" x="1628" y="129.3301">«Component(C4)»</text><text fill="#000000" font-family="sans-serif" font-size="14" lengthAdjust="spacing" textLength="74" x="1649.5" y="146.9395">Persistence</text><text fill="#000000" font-family="sans-serif" font-size="14" lengthAdjust="spacing" textLength="115" x="43" y="2176.6348">Logistics Manager</text><ellipse cx="103.5" cy="2110.6016" fill="#E2E2F0" rx="8" ry="8" style="stroke:#181818;stroke-width:0.5;"/><path d="M103.5,2118.6016 L103.5,2145.6016 M90.5,2126.6016 L116.5,2126.6016 M103.5,2145.6016 L90.5,2160.6016 M103.5,2145.6016 L116.5,2160.6016 " fill="none" style="stroke:#181818;stroke-width:0.5;"/><rect fill="#FFFFFF" height="49.2188" rx="2.5" ry="2.5" style="stroke:#000000;stroke-width:0.5;" width="120" x="285.5" y="2102.1016"/><text fill="#000000" font-family="sans-serif" font-size="14" font-style="italic" lengthAdjust="spacing" textLength="106" x="292.5" y="2123.6348">«Container(C4)»</text><text fill="#000000" font-family="sans-serif" font-size="14" lengthAdjust="spacing" textLength="27" x="332" y="2141.2441">SPA</text><rect fill="#FFFFFF" height="49.2188" rx="2.5" ry="2.5" style="stroke:#000000;stroke-width:0.5;" width="131" x="579" y="2102.1016"/><text fill="#000000" font-family="sans-serif" font-size="14" font-style="italic" lengthAdjust="spacing" textLength="117" x="586" y="2123.6348">«Component(C4)»</text><text fill="#000000" font-family="sans-serif" font-size="14" lengthAdjust="spacing" textLength="67" x="611" y="2141.2441">PathRoute</text><rect fill="#FFFFFF" height="49.2188" rx="2.5" ry="2.5" style="stroke:#000000;stroke-width:0.5;" width="131" x="848" y="2102.1016"/><text fill="#000000" font-family="sans-serif" font-size="14" font-style="italic" lengthAdjust="spacing" textLength="117" x="855" y="2123.6348">«Component(C4)»</text><text fill="#000000" font-family="sans-serif" font-size="14" lengthAdjust="spacing" textLength="91" x="868" y="2141.2441">PathController</text><rect fill="#FFFFFF" height="49.2188" rx="2.5" ry="2.5" style="stroke:#000000;stroke-width:0.5;" width="131" x="1117" y="2102.1016"/><text fill="#000000" font-family="sans-serif" font-size="14" font-style="italic" lengthAdjust="spacing" textLength="117" x="1124" y="2123.6348">«Component(C4)»</text><text fill="#000000" font-family="sans-serif" font-size="14" lengthAdjust="spacing" textLength="76" x="1144.5" y="2141.2441">PathService</text><rect fill="#FFFFFF" height="49.2188" rx="2.5" ry="2.5" style="stroke:#000000;stroke-width:0.5;" width="131" x="1386" y="2102.1016"/><text fill="#000000" font-family="sans-serif" font-size="14" font-style="italic" lengthAdjust="spacing" textLength="117" x="1393" y="2123.6348">«Component(C4)»</text><text fill="#000000" font-family="sans-serif" font-size="14" lengthAdjust="spacing" textLength="97" x="1403" y="2141.2441">PathRepository</text><rect fill="#FFFFFF" height="49.2188" rx="2.5" ry="2.5" style="stroke:#000000;stroke-width:0.5;" width="131" x="1621" y="2102.1016"/><text fill="#000000" font-family="sans-serif" font-size="14" font-style="italic" lengthAdjust="spacing" textLength="117" x="1628" y="2123.6348">«Component(C4)»</text><text fill="#000000" font-family="sans-serif" font-size="14" lengthAdjust="spacing" textLength="74" x="1649.5" y="2141.2441">Persistence</text><polygon fill="#181818" points="328.5,184.3672,338.5,188.3672,328.5,192.3672,332.5,188.3672" style="stroke:#181818;stroke-width:1.0;"/><line style="stroke:#181818;stroke-width:1.0;" x1="103.5" x2="334.5" y1="188.3672" y2="188.3672"/><text fill="#000000" font-family="sans-serif" font-size="13" font-weight="bold" lengthAdjust="spacing" textLength="7" x="110.5" y="183.5107">1</text><text fill="#000000" font-family="sans-serif" font-size="13" lengthAdjust="spacing" textLength="124" x="121.5" y="183.5107">I want to get all paths</text><polygon fill="#181818" points="114.5,214.7188,104.5,218.7188,114.5,222.7188,110.5,218.7188" style="stroke:#181818;stroke-width:1.0;"/><line style="stroke:#181818;stroke-width:1.0;" x1="108.5" x2="339.5" y1="218.7188" y2="218.7188"/><text fill="#000000" font-family="sans-serif" font-size="13" font-weight="bold" lengthAdjust="spacing" textLength="7" x="120.5" y="213.8623">2</text><text fill="#000000" font-family="sans-serif" font-size="13" lengthAdjust="spacing" textLength="181" x="131.5" y="213.8623">Asks if wants to apply any filter</text><path d="M8,230.7188 L69,230.7188 L69,239.0703 L59,249.0703 L8,249.0703 L8,230.7188 " fill="#EEEEEE" style="stroke:#000000;stroke-width:1.5;"/><rect fill="none" height="1847.3828" style="stroke:#000000;stroke-width:1.5;" width="1785" x="8" y="230.7188"/><text fill="#000000" font-family="sans-serif" font-size="13" font-weight="bold" lengthAdjust="spacing" textLength="16" x="23" y="245.2139">alt</text><text fill="#000000" font-family="sans-serif" font-size="11" font-weight="bold" lengthAdjust="spacing" textLength="97" x="84" y="244.1377">[no filters apllied]</text><line style="stroke:#000000;stroke-width:1.0;stroke-dasharray:2.0,2.0;" x1="8" x2="1793" y1="603.9375" y2="603.9375"/><text fill="#000000" font-family="sans-serif" font-size="11" font-weight="bold" lengthAdjust="spacing" textLength="84" x="13" y="615.3564">[filters applied]</text><polygon fill="#181818" points="627.5,277.4219,637.5,281.4219,627.5,285.4219,631.5,281.4219" style="stroke:#181818;stroke-width:1.0;"/><line style="stroke:#181818;stroke-width:1.0;" x1="350.5" x2="633.5" y1="281.4219" y2="281.4219"/><text fill="#000000" font-family="sans-serif" font-size="13" font-weight="bold" lengthAdjust="spacing" textLength="7" x="357.5" y="276.5654">3</text><text fill="#000000" font-family="sans-serif" font-size="13" lengthAdjust="spacing" textLength="105" x="368.5" y="276.5654">GET getAllPaths()</text><polygon fill="#181818" points="896.5,307.7734,906.5,311.7734,896.5,315.7734,900.5,311.7734" style="stroke:#181818;stroke-width:1.0;"/><line style="stroke:#181818;stroke-width:1.0;" x1="649.5" x2="902.5" y1="311.7734" y2="311.7734"/><text fill="#000000" font-family="sans-serif" font-size="13" font-weight="bold" lengthAdjust="spacing" textLength="7" x="656.5" y="306.917">4</text><text fill="#000000" font-family="sans-serif" font-size="13" lengthAdjust="spacing" textLength="75" x="667.5" y="306.917">getAllPaths()</text><polygon fill="#181818" points="1165.5,338.125,1175.5,342.125,1165.5,346.125,1169.5,342.125" style="stroke:#181818;stroke-width:1.0;"/><line style="stroke:#181818;stroke-width:1.0;" x1="918.5" x2="1171.5" y1="342.125" y2="342.125"/><text fill="#000000" font-family="sans-serif" font-size="13" font-weight="bold" lengthAdjust="spacing" textLength="7" x="925.5" y="337.2686">5</text><text fill="#000000" font-family="sans-serif" font-size="13" lengthAdjust="spacing" textLength="75" x="936.5" y="337.2686">getAllPaths()</text><polygon fill="#181818" points="1434.5,368.4766,1444.5,372.4766,1434.5,376.4766,1438.5,372.4766" style="stroke:#181818;stroke-width:1.0;"/><line style="stroke:#181818;stroke-width:1.0;" x1="1187.5" x2="1440.5" y1="372.4766" y2="372.4766"/><text fill="#000000" font-family="sans-serif" font-size="13" font-weight="bold" lengthAdjust="spacing" textLength="7" x="1194.5" y="367.6201">6</text><text fill="#000000" font-family="sans-serif" font-size="13" lengthAdjust="spacing" textLength="75" x="1205.5" y="367.6201">getAllPaths()</text><polygon fill="#181818" points="1669.5,398.8281,1679.5,402.8281,1669.5,406.8281,1673.5,402.8281" style="stroke:#181818;stroke-width:1.0;"/><line style="stroke:#181818;stroke-width:1.0;" x1="1456.5" x2="1675.5" y1="402.8281" y2="402.8281"/><text fill="#000000" font-family="sans-serif" font-size="13" font-weight="bold" lengthAdjust="spacing" textLength="7" x="1463.5" y="397.9717">7</text><text fill="#000000" font-family="sans-serif" font-size="13" lengthAdjust="spacing" textLength="41" x="1474.5" y="397.9717">findall()</text><polygon fill="#181818" points="1467.5,429.1797,1457.5,433.1797,1467.5,437.1797,1463.5,433.1797" style="stroke:#181818;stroke-width:1.0;"/><line style="stroke:#181818;stroke-width:1.0;stroke-dasharray:2.0,2.0;" x1="1461.5" x2="1680.5" y1="433.1797" y2="433.1797"/><text fill="#000000" font-family="sans-serif" font-size="13" font-weight="bold" lengthAdjust="spacing" textLength="7" x="1473.5" y="428.3232">8</text><text fill="#000000" font-family="sans-serif" font-size="13" lengthAdjust="spacing" textLength="47" x="1484.5" y="428.3232">allPaths</text><polygon fill="#181818" points="1198.5,459.5313,1188.5,463.5313,1198.5,467.5313,1194.5,463.5313" style="stroke:#181818;stroke-width:1.0;"/><line style="stroke:#181818;stroke-width:1.0;stroke-dasharray:2.0,2.0;" x1="1192.5" x2="1445.5" y1="463.5313" y2="463.5313"/><text fill="#000000" font-family="sans-serif" font-size="13" font-weight="bold" lengthAdjust="spacing" textLength="7" x="1204.5" y="458.6748">9</text><text fill="#000000" font-family="sans-serif" font-size="13" lengthAdjust="spacing" textLength="47" x="1215.5" y="458.6748">allPaths</text><polygon fill="#181818" points="929.5,489.8828,919.5,493.8828,929.5,497.8828,925.5,493.8828" style="stroke:#181818;stroke-width:1.0;"/><line style="stroke:#181818;stroke-width:1.0;stroke-dasharray:2.0,2.0;" x1="923.5" x2="1176.5" y1="493.8828" y2="493.8828"/><text fill="#000000" font-family="sans-serif" font-size="13" font-weight="bold" lengthAdjust="spacing" textLength="14" x="935.5" y="489.0264">10</text><text fill="#000000" font-family="sans-serif" font-size="13" lengthAdjust="spacing" textLength="47" x="953.5" y="489.0264">allPaths</text><polygon fill="#181818" points="660.5,520.2344,650.5,524.2344,660.5,528.2344,656.5,524.2344" style="stroke:#181818;stroke-width:1.0;"/><line style="stroke:#181818;stroke-width:1.0;stroke-dasharray:2.0,2.0;" x1="654.5" x2="907.5" y1="524.2344" y2="524.2344"/><text fill="#000000" font-family="sans-serif" font-size="13" font-weight="bold" lengthAdjust="spacing" textLength="14" x="666.5" y="519.3779">11</text><text fill="#000000" font-family="sans-serif" font-size="13" lengthAdjust="spacing" textLength="107" x="684.5" y="519.3779">200 OK + allPaths</text><polygon fill="#181818" points="361.5,550.5859,351.5,554.5859,361.5,558.5859,357.5,554.5859" style="stroke:#181818;stroke-width:1.0;"/><line style="stroke:#181818;stroke-width:1.0;" x1="355.5" x2="638.5" y1="554.5859" y2="554.5859"/><text fill="#000000" font-family="sans-serif" font-size="13" font-weight="bold" lengthAdjust="spacing" textLength="14" x="367.5" y="549.7295">12</text><text fill="#000000" font-family="sans-serif" font-size="13" lengthAdjust="spacing" textLength="107" x="385.5" y="549.7295">200 OK + allPaths</text><polygon fill="#181818" points="114.5,580.9375,104.5,584.9375,114.5,588.9375,110.5,584.9375" style="stroke:#181818;stroke-width:1.0;"/><line style="stroke:#181818;stroke-width:1.0;" x1="108.5" x2="339.5" y1="584.9375" y2="584.9375"/><text fill="#000000" font-family="sans-serif" font-size="13" font-weight="bold" lengthAdjust="spacing" textLength="14" x="120.5" y="580.0811">13</text><text fill="#000000" font-family="sans-serif" font-size="13" lengthAdjust="spacing" textLength="64" x="138.5" y="580.0811">all allPaths</text><path d="M27,622.7734 L88,622.7734 L88,631.125 L78,641.125 L27,641.125 L27,622.7734 " fill="#EEEEEE" style="stroke:#000000;stroke-width:1.5;"/><rect fill="none" height="1441.3281" style="stroke:#000000;stroke-width:1.5;" width="1741" x="27" y="622.7734"/><text fill="#000000" font-family="sans-serif" font-size="13" font-weight="bold" lengthAdjust="spacing" textLength="16" x="42" y="637.2686">alt</text><text fill="#000000" font-family="sans-serif" font-size="11" font-weight="bold" lengthAdjust="spacing" textLength="144" x="103" y="636.1924">[startwh given and exists]</text><line style="stroke:#000000;stroke-width:1.0;stroke-dasharray:2.0,2.0;" x1="27" x2="1768" y1="995.9922" y2="995.9922"/><text fill="#000000" font-family="sans-serif" font-size="11" font-weight="bold" lengthAdjust="spacing" textLength="180" x="32" y="1007.4111">[destinationWH given and exists]</text><line style="stroke:#000000;stroke-width:1.0;stroke-dasharray:2.0,2.0;" x1="27" x2="1768" y1="1355.6953" y2="1355.6953"/><text fill="#000000" font-family="sans-serif" font-size="11" font-weight="bold" lengthAdjust="spacing" textLength="246" x="32" y="1367.1143">[startWHId and destinationWHId given exists]</text><line style="stroke:#000000;stroke-width:1.0;stroke-dasharray:2.0,2.0;" x1="27" x2="1768" y1="1715.3984" y2="1715.3984"/><text fill="#000000" font-family="sans-serif" font-size="11" font-weight="bold" lengthAdjust="spacing" textLength="200" x="32" y="1726.8174">[if any of these given Id's dont exist]</text><polygon fill="#181818" points="627.5,669.4766,637.5,673.4766,627.5,677.4766,631.5,673.4766" style="stroke:#181818;stroke-width:1.0;"/><line style="stroke:#181818;stroke-width:1.0;" x1="345.5" x2="633.5" y1="673.4766" y2="673.4766"/><text fill="#000000" font-family="sans-serif" font-size="13" font-weight="bold" lengthAdjust="spacing" textLength="14" x="352.5" y="668.6201">14</text><text fill="#000000" font-family="sans-serif" font-size="13" lengthAdjust="spacing" textLength="163" x="370.5" y="668.6201">GET getAllPaths(startWHId)</text><polygon fill="#181818" points="896.5,699.8281,906.5,703.8281,896.5,707.8281,900.5,703.8281" style="stroke:#181818;stroke-width:1.0;"/><line style="stroke:#181818;stroke-width:1.0;" x1="649.5" x2="902.5" y1="703.8281" y2="703.8281"/><text fill="#000000" font-family="sans-serif" font-size="13" font-weight="bold" lengthAdjust="spacing" textLength="14" x="656.5" y="698.9717">15</text><text fill="#000000" font-family="sans-serif" font-size="13" lengthAdjust="spacing" textLength="133" x="674.5" y="698.9717">getAllPaths(startWHId)</text><polygon fill="#181818" points="1165.5,730.1797,1175.5,734.1797,1165.5,738.1797,1169.5,734.1797" style="stroke:#181818;stroke-width:1.0;"/><line style="stroke:#181818;stroke-width:1.0;" x1="918.5" x2="1171.5" y1="734.1797" y2="734.1797"/><text fill="#000000" font-family="sans-serif" font-size="13" font-weight="bold" lengthAdjust="spacing" textLength="14" x="925.5" y="729.3232">16</text><text fill="#000000" font-family="sans-serif" font-size="13" lengthAdjust="spacing" textLength="133" x="943.5" y="729.3232">getAllPaths(startWHId)</text><polygon fill="#181818" points="1434.5,760.5313,1444.5,764.5313,1434.5,768.5313,1438.5,764.5313" style="stroke:#181818;stroke-width:1.0;"/><line style="stroke:#181818;stroke-width:1.0;" x1="1187.5" x2="1440.5" y1="764.5313" y2="764.5313"/><text fill="#000000" font-family="sans-serif" font-size="13" font-weight="bold" lengthAdjust="spacing" textLength="14" x="1194.5" y="759.6748">17</text><text fill="#000000" font-family="sans-serif" font-size="13" lengthAdjust="spacing" textLength="133" x="1212.5" y="759.6748">getAllPaths(startWHId)</text><polygon fill="#181818" points="1669.5,790.8828,1679.5,794.8828,1669.5,798.8828,1673.5,794.8828" style="stroke:#181818;stroke-width:1.0;"/><line style="stroke:#181818;stroke-width:1.0;" x1="1456.5" x2="1675.5" y1="794.8828" y2="794.8828"/><text fill="#000000" font-family="sans-serif" font-size="13" font-weight="bold" lengthAdjust="spacing" textLength="14" x="1463.5" y="790.0264">18</text><text fill="#000000" font-family="sans-serif" font-size="13" lengthAdjust="spacing" textLength="99" x="1481.5" y="790.0264">findall(startWHId)</text><polygon fill="#181818" points="1467.5,821.2344,1457.5,825.2344,1467.5,829.2344,1463.5,825.2344" style="stroke:#181818;stroke-width:1.0;"/><line style="stroke:#181818;stroke-width:1.0;stroke-dasharray:2.0,2.0;" x1="1461.5" x2="1680.5" y1="825.2344" y2="825.2344"/><text fill="#000000" font-family="sans-serif" font-size="13" font-weight="bold" lengthAdjust="spacing" textLength="14" x="1473.5" y="820.3779">19</text><text fill="#000000" font-family="sans-serif" font-size="13" lengthAdjust="spacing" textLength="47" x="1491.5" y="820.3779">allPaths</text><polygon fill="#181818" points="1198.5,851.5859,1188.5,855.5859,1198.5,859.5859,1194.5,855.5859" style="stroke:#181818;stroke-width:1.0;"/><line style="stroke:#181818;stroke-width:1.0;stroke-dasharray:2.0,2.0;" x1="1192.5" x2="1445.5" y1="855.5859" y2="855.5859"/><text fill="#000000" font-family="sans-serif" font-size="13" font-weight="bold" lengthAdjust="spacing" textLength="14" x="1204.5" y="850.7295">20</text><text fill="#000000" font-family="sans-serif" font-size="13" lengthAdjust="spacing" textLength="47" x="1222.5" y="850.7295">allPaths</text><polygon fill="#181818" points="929.5,881.9375,919.5,885.9375,929.5,889.9375,925.5,885.9375" style="stroke:#181818;stroke-width:1.0;"/><line style="stroke:#181818;stroke-width:1.0;stroke-dasharray:2.0,2.0;" x1="923.5" x2="1176.5" y1="885.9375" y2="885.9375"/><text fill="#000000" font-family="sans-serif" font-size="13" font-weight="bold" lengthAdjust="spacing" textLength="14" x="935.5" y="881.0811">21</text><text fill="#000000" font-family="sans-serif" font-size="13" lengthAdjust="spacing" textLength="47" x="953.5" y="881.0811">allPaths</text><polygon fill="#181818" points="660.5,912.2891,650.5,916.2891,660.5,920.2891,656.5,916.2891" style="stroke:#181818;stroke-width:1.0;"/><line style="stroke:#181818;stroke-width:1.0;stroke-dasharray:2.0,2.0;" x1="654.5" x2="907.5" y1="916.2891" y2="916.2891"/><text fill="#000000" font-family="sans-serif" font-size="13" font-weight="bold" lengthAdjust="spacing" textLength="14" x="666.5" y="911.4326">22</text><text fill="#000000" font-family="sans-serif" font-size="13" lengthAdjust="spacing" textLength="107" x="684.5" y="911.4326">200 OK + allPaths</text><polygon fill="#181818" points="356.5,942.6406,346.5,946.6406,356.5,950.6406,352.5,946.6406" style="stroke:#181818;stroke-width:1.0;"/><line style="stroke:#181818;stroke-width:1.0;" x1="350.5" x2="638.5" y1="946.6406" y2="946.6406"/><text fill="#000000" font-family="sans-serif" font-size="13" font-weight="bold" lengthAdjust="spacing" textLength="14" x="362.5" y="941.7842">23</text><text fill="#000000" font-family="sans-serif" font-size="13" lengthAdjust="spacing" textLength="107" x="380.5" y="941.7842">200 OK + allPaths</text><polygon fill="#181818" points="114.5,972.9922,104.5,976.9922,114.5,980.9922,110.5,976.9922" style="stroke:#181818;stroke-width:1.0;"/><line style="stroke:#181818;stroke-width:1.0;" x1="108.5" x2="344.5" y1="976.9922" y2="976.9922"/><text fill="#000000" font-family="sans-serif" font-size="13" font-weight="bold" lengthAdjust="spacing" textLength="14" x="120.5" y="972.1357">24</text><text fill="#000000" font-family="sans-serif" font-size="13" lengthAdjust="spacing" textLength="64" x="138.5" y="972.1357">all allPaths</text><polygon fill="#181818" points="627.5,1029.1797,637.5,1033.1797,627.5,1037.1797,631.5,1033.1797" style="stroke:#181818;stroke-width:1.0;"/><line style="stroke:#181818;stroke-width:1.0;" x1="345.5" x2="633.5" y1="1033.1797" y2="1033.1797"/><text fill="#000000" font-family="sans-serif" font-size="13" font-weight="bold" lengthAdjust="spacing" textLength="14" x="352.5" y="1028.3232">25</text><text fill="#000000" font-family="sans-serif" font-size="13" lengthAdjust="spacing" textLength="190" x="370.5" y="1028.3232">GET getAllPaths(destinationWH)</text><polygon fill="#181818" points="896.5,1059.5313,906.5,1063.5313,896.5,1067.5313,900.5,1063.5313" style="stroke:#181818;stroke-width:1.0;"/><line style="stroke:#181818;stroke-width:1.0;" x1="649.5" x2="902.5" y1="1063.5313" y2="1063.5313"/><text fill="#000000" font-family="sans-serif" font-size="13" font-weight="bold" lengthAdjust="spacing" textLength="14" x="656.5" y="1058.6748">26</text><text fill="#000000" font-family="sans-serif" font-size="13" lengthAdjust="spacing" textLength="160" x="674.5" y="1058.6748">getAllPaths(destinationWH)</text><polygon fill="#181818" points="1165.5,1089.8828,1175.5,1093.8828,1165.5,1097.8828,1169.5,1093.8828" style="stroke:#181818;stroke-width:1.0;"/><line style="stroke:#181818;stroke-width:1.0;" x1="918.5" x2="1171.5" y1="1093.8828" y2="1093.8828"/><text fill="#000000" font-family="sans-serif" font-size="13" font-weight="bold" lengthAdjust="spacing" textLength="14" x="925.5" y="1089.0264">27</text><text fill="#000000" font-family="sans-serif" font-size="13" lengthAdjust="spacing" textLength="160" x="943.5" y="1089.0264">getAllPaths(destinationWH)</text><polygon fill="#181818" points="1434.5,1120.2344,1444.5,1124.2344,1434.5,1128.2344,1438.5,1124.2344" style="stroke:#181818;stroke-width:1.0;"/><line style="stroke:#181818;stroke-width:1.0;" x1="1187.5" x2="1440.5" y1="1124.2344" y2="1124.2344"/><text fill="#000000" font-family="sans-serif" font-size="13" font-weight="bold" lengthAdjust="spacing" textLength="14" x="1194.5" y="1119.3779">28</text><text fill="#000000" font-family="sans-serif" font-size="13" lengthAdjust="spacing" textLength="160" x="1212.5" y="1119.3779">getAllPaths(destinationWH)</text><polygon fill="#181818" points="1669.5,1150.5859,1679.5,1154.5859,1669.5,1158.5859,1673.5,1154.5859" style="stroke:#181818;stroke-width:1.0;"/><line style="stroke:#181818;stroke-width:1.0;" x1="1456.5" x2="1675.5" y1="1154.5859" y2="1154.5859"/><text fill="#000000" font-family="sans-serif" font-size="13" font-weight="bold" lengthAdjust="spacing" textLength="14" x="1463.5" y="1149.7295">29</text><text fill="#000000" font-family="sans-serif" font-size="13" lengthAdjust="spacing" textLength="126" x="1481.5" y="1149.7295">findall(destinationWH)</text><polygon fill="#181818" points="1467.5,1180.9375,1457.5,1184.9375,1467.5,1188.9375,1463.5,1184.9375" style="stroke:#181818;stroke-width:1.0;"/><line style="stroke:#181818;stroke-width:1.0;stroke-dasharray:2.0,2.0;" x1="1461.5" x2="1680.5" y1="1184.9375" y2="1184.9375"/><text fill="#000000" font-family="sans-serif" font-size="13" font-weight="bold" lengthAdjust="spacing" textLength="14" x="1473.5" y="1180.0811">30</text><text fill="#000000" font-family="sans-serif" font-size="13" lengthAdjust="spacing" textLength="47" x="1491.5" y="1180.0811">allPaths</text><polygon fill="#181818" points="1198.5,1211.2891,1188.5,1215.2891,1198.5,1219.2891,1194.5,1215.2891" style="stroke:#181818;stroke-width:1.0;"/><line style="stroke:#181818;stroke-width:1.0;stroke-dasharray:2.0,2.0;" x1="1192.5" x2="1445.5" y1="1215.2891" y2="1215.2891"/><text fill="#000000" font-family="sans-serif" font-size="13" font-weight="bold" lengthAdjust="spacing" textLength="14" x="1204.5" y="1210.4326">31</text><text fill="#000000" font-family="sans-serif" font-size="13" lengthAdjust="spacing" textLength="47" x="1222.5" y="1210.4326">allPaths</text><polygon fill="#181818" points="929.5,1241.6406,919.5,1245.6406,929.5,1249.6406,925.5,1245.6406" style="stroke:#181818;stroke-width:1.0;"/><line style="stroke:#181818;stroke-width:1.0;stroke-dasharray:2.0,2.0;" x1="923.5" x2="1176.5" y1="1245.6406" y2="1245.6406"/><text fill="#000000" font-family="sans-serif" font-size="13" font-weight="bold" lengthAdjust="spacing" textLength="14" x="935.5" y="1240.7842">32</text><text fill="#000000" font-family="sans-serif" font-size="13" lengthAdjust="spacing" textLength="47" x="953.5" y="1240.7842">allPaths</text><polygon fill="#181818" points="660.5,1271.9922,650.5,1275.9922,660.5,1279.9922,656.5,1275.9922" style="stroke:#181818;stroke-width:1.0;"/><line style="stroke:#181818;stroke-width:1.0;stroke-dasharray:2.0,2.0;" x1="654.5" x2="907.5" y1="1275.9922" y2="1275.9922"/><text fill="#000000" font-family="sans-serif" font-size="13" font-weight="bold" lengthAdjust="spacing" textLength="14" x="666.5" y="1271.1357">33</text><text fill="#000000" font-family="sans-serif" font-size="13" lengthAdjust="spacing" textLength="107" x="684.5" y="1271.1357">200 OK + allPaths</text><polygon fill="#181818" points="356.5,1302.3438,346.5,1306.3438,356.5,1310.3438,352.5,1306.3438" style="stroke:#181818;stroke-width:1.0;"/><line style="stroke:#181818;stroke-width:1.0;" x1="350.5" x2="638.5" y1="1306.3438" y2="1306.3438"/><text fill="#000000" font-family="sans-serif" font-size="13" font-weight="bold" lengthAdjust="spacing" textLength="14" x="362.5" y="1301.4873">34</text><text fill="#000000" font-family="sans-serif" font-size="13" lengthAdjust="spacing" textLength="107" x="380.5" y="1301.4873">200 OK + allPaths</text><polygon fill="#181818" points="114.5,1332.6953,104.5,1336.6953,114.5,1340.6953,110.5,1336.6953" style="stroke:#181818;stroke-width:1.0;"/><line style="stroke:#181818;stroke-width:1.0;" x1="108.5" x2="344.5" y1="1336.6953" y2="1336.6953"/><text fill="#000000" font-family="sans-serif" font-size="13" font-weight="bold" lengthAdjust="spacing" textLength="14" x="120.5" y="1331.8389">35</text><text fill="#000000" font-family="sans-serif" font-size="13" lengthAdjust="spacing" textLength="64" x="138.5" y="1331.8389">all allPaths</text><polygon fill="#181818" points="627.5,1388.8828,637.5,1392.8828,627.5,1396.8828,631.5,1392.8828" style="stroke:#181818;stroke-width:1.0;"/><line style="stroke:#181818;stroke-width:1.0;" x1="345.5" x2="633.5" y1="1392.8828" y2="1392.8828"/><text fill="#000000" font-family="sans-serif" font-size="13" font-weight="bold" lengthAdjust="spacing" textLength="14" x="352.5" y="1388.0264">36</text><text fill="#000000" font-family="sans-serif" font-size="13" lengthAdjust="spacing" textLength="252" x="370.5" y="1388.0264">GET getAllPaths(startWHId,destinationWH)</text><polygon fill="#181818" points="896.5,1419.2344,906.5,1423.2344,896.5,1427.2344,900.5,1423.2344" style="stroke:#181818;stroke-width:1.0;"/><line style="stroke:#181818;stroke-width:1.0;" x1="649.5" x2="902.5" y1="1423.2344" y2="1423.2344"/><text fill="#000000" font-family="sans-serif" font-size="13" font-weight="bold" lengthAdjust="spacing" textLength="14" x="656.5" y="1418.3779">37</text><text fill="#000000" font-family="sans-serif" font-size="13" lengthAdjust="spacing" textLength="222" x="674.5" y="1418.3779">getAllPaths(startWHId,destinationWH)</text><polygon fill="#181818" points="1165.5,1449.5859,1175.5,1453.5859,1165.5,1457.5859,1169.5,1453.5859" style="stroke:#181818;stroke-width:1.0;"/><line style="stroke:#181818;stroke-width:1.0;" x1="918.5" x2="1171.5" y1="1453.5859" y2="1453.5859"/><text fill="#000000" font-family="sans-serif" font-size="13" font-weight="bold" lengthAdjust="spacing" textLength="14" x="925.5" y="1448.7295">38</text><text fill="#000000" font-family="sans-serif" font-size="13" lengthAdjust="spacing" textLength="222" x="943.5" y="1448.7295">getAllPaths(startWHId,destinationWH)</text><polygon fill="#181818" points="1434.5,1479.9375,1444.5,1483.9375,1434.5,1487.9375,1438.5,1483.9375" style="stroke:#181818;stroke-width:1.0;"/><line style="stroke:#181818;stroke-width:1.0;" x1="1187.5" x2="1440.5" y1="1483.9375" y2="1483.9375"/><text fill="#000000" font-family="sans-serif" font-size="13" font-weight="bold" lengthAdjust="spacing" textLength="14" x="1194.5" y="1479.0811">39</text><text fill="#000000" font-family="sans-serif" font-size="13" lengthAdjust="spacing" textLength="222" x="1212.5" y="1479.0811">getAllPaths(startWHId,destinationWH)</text><polygon fill="#181818" points="1669.5,1510.2891,1679.5,1514.2891,1669.5,1518.2891,1673.5,1514.2891" style="stroke:#181818;stroke-width:1.0;"/><line style="stroke:#181818;stroke-width:1.0;" x1="1456.5" x2="1675.5" y1="1514.2891" y2="1514.2891"/><text fill="#000000" font-family="sans-serif" font-size="13" font-weight="bold" lengthAdjust="spacing" textLength="14" x="1463.5" y="1509.4326">40</text><text fill="#000000" font-family="sans-serif" font-size="13" lengthAdjust="spacing" textLength="188" x="1481.5" y="1509.4326">findall(startWHId,destinationWH)</text><polygon fill="#181818" points="1467.5,1540.6406,1457.5,1544.6406,1467.5,1548.6406,1463.5,1544.6406" style="stroke:#181818;stroke-width:1.0;"/><line style="stroke:#181818;stroke-width:1.0;stroke-dasharray:2.0,2.0;" x1="1461.5" x2="1680.5" y1="1544.6406" y2="1544.6406"/><text fill="#000000" font-family="sans-serif" font-size="13" font-weight="bold" lengthAdjust="spacing" textLength="14" x="1473.5" y="1539.7842">41</text><text fill="#000000" font-family="sans-serif" font-size="13" lengthAdjust="spacing" textLength="47" x="1491.5" y="1539.7842">allPaths</text><polygon fill="#181818" points="1198.5,1570.9922,1188.5,1574.9922,1198.5,1578.9922,1194.5,1574.9922" style="stroke:#181818;stroke-width:1.0;"/><line style="stroke:#181818;stroke-width:1.0;stroke-dasharray:2.0,2.0;" x1="1192.5" x2="1445.5" y1="1574.9922" y2="1574.9922"/><text fill="#000000" font-family="sans-serif" font-size="13" font-weight="bold" lengthAdjust="spacing" textLength="14" x="1204.5" y="1570.1357">42</text><text fill="#000000" font-family="sans-serif" font-size="13" lengthAdjust="spacing" textLength="47" x="1222.5" y="1570.1357">allPaths</text><polygon fill="#181818" points="929.5,1601.3438,919.5,1605.3438,929.5,1609.3438,925.5,1605.3438" style="stroke:#181818;stroke-width:1.0;"/><line style="stroke:#181818;stroke-width:1.0;stroke-dasharray:2.0,2.0;" x1="923.5" x2="1176.5" y1="1605.3438" y2="1605.3438"/><text fill="#000000" font-family="sans-serif" font-size="13" font-weight="bold" lengthAdjust="spacing" textLength="14" x="935.5" y="1600.4873">43</text><text fill="#000000" font-family="sans-serif" font-size="13" lengthAdjust="spacing" textLength="47" x="953.5" y="1600.4873">allPaths</text><polygon fill="#181818" points="660.5,1631.6953,650.5,1635.6953,660.5,1639.6953,656.5,1635.6953" style="stroke:#181818;stroke-width:1.0;"/><line style="stroke:#181818;stroke-width:1.0;stroke-dasharray:2.0,2.0;" x1="654.5" x2="907.5" y1="1635.6953" y2="1635.6953"/><text fill="#000000" font-family="sans-serif" font-size="13" font-weight="bold" lengthAdjust="spacing" textLength="14" x="666.5" y="1630.8389">44</text><text fill="#000000" font-family="sans-serif" font-size="13" lengthAdjust="spacing" textLength="107" x="684.5" y="1630.8389">200 OK + allPaths</text><polygon fill="#181818" points="356.5,1662.0469,346.5,1666.0469,356.5,1670.0469,352.5,1666.0469" style="stroke:#181818;stroke-width:1.0;"/><line style="stroke:#181818;stroke-width:1.0;" x1="350.5" x2="638.5" y1="1666.0469" y2="1666.0469"/><text fill="#000000" font-family="sans-serif" font-size="13" font-weight="bold" lengthAdjust="spacing" textLength="14" x="362.5" y="1661.1904">45</text><text fill="#000000" font-family="sans-serif" font-size="13" lengthAdjust="spacing" textLength="107" x="380.5" y="1661.1904">200 OK + allPaths</text><polygon fill="#181818" points="114.5,1692.3984,104.5,1696.3984,114.5,1700.3984,110.5,1696.3984" style="stroke:#181818;stroke-width:1.0;"/><line style="stroke:#181818;stroke-width:1.0;" x1="108.5" x2="344.5" y1="1696.3984" y2="1696.3984"/><text fill="#000000" font-family="sans-serif" font-size="13" font-weight="bold" lengthAdjust="spacing" textLength="14" x="120.5" y="1691.542">46</text><text fill="#000000" font-family="sans-serif" font-size="13" lengthAdjust="spacing" textLength="64" x="138.5" y="1691.542">all allPaths</text><polygon fill="#181818" points="627.5,1748.5859,637.5,1752.5859,627.5,1756.5859,631.5,1752.5859" style="stroke:#181818;stroke-width:1.0;"/><line style="stroke:#181818;stroke-width:1.0;" x1="345.5" x2="633.5" y1="1752.5859" y2="1752.5859"/><text fill="#000000" font-family="sans-serif" font-size="13" font-weight="bold" lengthAdjust="spacing" textLength="14" x="352.5" y="1747.7295">47</text><text fill="#000000" font-family="sans-serif" font-size="13" lengthAdjust="spacing" textLength="252" x="370.5" y="1747.7295">GET getAllPaths(startWHId,destinationWH)</text><polygon fill="#181818" points="896.5,1778.9375,906.5,1782.9375,896.5,1786.9375,900.5,1782.9375" style="stroke:#181818;stroke-width:1.0;"/><line style="stroke:#181818;stroke-width:1.0;" x1="649.5" x2="902.5" y1="1782.9375" y2="1782.9375"/><text fill="#000000" font-family="sans-serif" font-size="13" font-weight="bold" lengthAdjust="spacing" textLength="14" x="656.5" y="1778.0811">48</text><text fill="#000000" font-family="sans-serif" font-size="13" lengthAdjust="spacing" textLength="222" x="674.5" y="1778.0811">getAllPaths(startWHId,destinationWH)</text><polygon fill="#181818" points="1165.5,1809.2891,1175.5,1813.2891,1165.5,1817.2891,1169.5,1813.2891" style="stroke:#181818;stroke-width:1.0;"/><line style="stroke:#181818;stroke-width:1.0;" x1="918.5" x2="1171.5" y1="1813.2891" y2="1813.2891"/><text fill="#000000" font-family="sans-serif" font-size="13" font-weight="bold" lengthAdjust="spacing" textLength="14" x="925.5" y="1808.4326">49</text><text fill="#000000" font-family="sans-serif" font-size="13" lengthAdjust="spacing" textLength="222" x="943.5" y="1808.4326">getAllPaths(startWHId,destinationWH)</text><polygon fill="#181818" points="1434.5,1839.6406,1444.5,1843.6406,1434.5,1847.6406,1438.5,1843.6406" style="stroke:#181818;stroke-width:1.0;"/><line style="stroke:#181818;stroke-width:1.0;" x1="1187.5" x2="1440.5" y1="1843.6406" y2="1843.6406"/><text fill="#000000" font-family="sans-serif" font-size="13" font-weight="bold" lengthAdjust="spacing" textLength="14" x="1194.5" y="1838.7842">50</text><text fill="#000000" font-family="sans-serif" font-size="13" lengthAdjust="spacing" textLength="222" x="1212.5" y="1838.7842">getAllPaths(startWHId,destinationWH)</text><polygon fill="#181818" points="1669.5,1869.9922,1679.5,1873.9922,1669.5,1877.9922,1673.5,1873.9922" style="stroke:#181818;stroke-width:1.0;"/><line style="stroke:#181818;stroke-width:1.0;" x1="1456.5" x2="1675.5" y1="1873.9922" y2="1873.9922"/><text fill="#000000" font-family="sans-serif" font-size="13" font-weight="bold" lengthAdjust="spacing" textLength="14" x="1463.5" y="1869.1357">51</text><text fill="#000000" font-family="sans-serif" font-size="13" lengthAdjust="spacing" textLength="188" x="1481.5" y="1869.1357">findall(startWHId,destinationWH)</text><polygon fill="#181818" points="1467.5,1900.3438,1457.5,1904.3438,1467.5,1908.3438,1463.5,1904.3438" style="stroke:#181818;stroke-width:1.0;"/><line style="stroke:#181818;stroke-width:1.0;stroke-dasharray:2.0,2.0;" x1="1461.5" x2="1680.5" y1="1904.3438" y2="1904.3438"/><text fill="#000000" font-family="sans-serif" font-size="13" font-weight="bold" lengthAdjust="spacing" textLength="14" x="1473.5" y="1899.4873">52</text><text fill="#000000" font-family="sans-serif" font-size="13" lengthAdjust="spacing" textLength="55" x="1491.5" y="1899.4873">Not found</text><polygon fill="#181818" points="1198.5,1930.6953,1188.5,1934.6953,1198.5,1938.6953,1194.5,1934.6953" style="stroke:#181818;stroke-width:1.0;"/><line style="stroke:#181818;stroke-width:1.0;stroke-dasharray:2.0,2.0;" x1="1192.5" x2="1445.5" y1="1934.6953" y2="1934.6953"/><text fill="#000000" font-family="sans-serif" font-size="13" font-weight="bold" lengthAdjust="spacing" textLength="14" x="1204.5" y="1929.8389">53</text><text fill="#000000" font-family="sans-serif" font-size="13" lengthAdjust="spacing" textLength="55" x="1222.5" y="1929.8389">Not found</text><polygon fill="#181818" points="929.5,1961.0469,919.5,1965.0469,929.5,1969.0469,925.5,1965.0469" style="stroke:#181818;stroke-width:1.0;"/><line style="stroke:#181818;stroke-width:1.0;stroke-dasharray:2.0,2.0;" x1="923.5" x2="1176.5" y1="1965.0469" y2="1965.0469"/><text fill="#000000" font-family="sans-serif" font-size="13" font-weight="bold" lengthAdjust="spacing" textLength="14" x="935.5" y="1960.1904">54</text><text fill="#000000" font-family="sans-serif" font-size="13" lengthAdjust="spacing" textLength="55" x="953.5" y="1960.1904">Not found</text><polygon fill="#181818" points="660.5,1991.3984,650.5,1995.3984,660.5,1999.3984,656.5,1995.3984" style="stroke:#181818;stroke-width:1.0;"/><line style="stroke:#181818;stroke-width:1.0;stroke-dasharray:2.0,2.0;" x1="654.5" x2="907.5" y1="1995.3984" y2="1995.3984"/><text fill="#000000" font-family="sans-serif" font-size="13" font-weight="bold" lengthAdjust="spacing" textLength="14" x="666.5" y="1990.542">55</text><text fill="#000000" font-family="sans-serif" font-size="13" lengthAdjust="spacing" textLength="92" x="684.5" y="1990.542">404 + Not found</text><polygon fill="#181818" points="356.5,2021.75,346.5,2025.75,356.5,2029.75,352.5,2025.75" style="stroke:#181818;stroke-width:1.0;"/><line style="stroke:#181818;stroke-width:1.0;" x1="350.5" x2="638.5" y1="2025.75" y2="2025.75"/><text fill="#000000" font-family="sans-serif" font-size="13" font-weight="bold" lengthAdjust="spacing" textLength="14" x="362.5" y="2020.8936">56</text><text fill="#000000" font-family="sans-serif" font-size="13" lengthAdjust="spacing" textLength="92" x="380.5" y="2020.8936">404 + Not found</text><polygon fill="#181818" points="114.5,2052.1016,104.5,2056.1016,114.5,2060.1016,110.5,2056.1016" style="stroke:#181818;stroke-width:1.0;"/><line style="stroke:#181818;stroke-width:1.0;" x1="108.5" x2="344.5" y1="2056.1016" y2="2056.1016"/><text fill="#000000" font-family="sans-serif" font-size="13" font-weight="bold" lengthAdjust="spacing" textLength="14" x="120.5" y="2051.2451">57</text><text fill="#000000" font-family="sans-serif" font-size="13" lengthAdjust="spacing" textLength="200" x="138.5" y="2051.2451">404 + Not found, possible wrong id</text><!--MD5=[872a8e131249f8b6890c109aeafcc04e]
@startuml getAllPathSD
autonumber
!pragma teoz true
skinparam sequence {
ParticipantBorderColor black
ParticipantBackgroundColor white
}


actor "Logistics Manager" as manager



box "<<System(C4)>>\n       System" #Gold
participant SPA as  SPA <<Container(C4)>>
box "<<Container(C4)>>\n       Logistics" #LightBlue
participant PathRoute as Route <<Component(C4)>>
participant PathController as Controller <<Component(C4)>>
participant PathService as Service <<Component(C4)>>
participant PathRepository as Repository <<Component(C4)>>
participant Persistence as Persistence <<Component(C4)>>
end box



manager -> SPA: I want to get all paths
activate SPA
SPA -> manager: Asks if wants to apply any filter

alt no filters apllied


SPA -> Route: GET getAllPaths()
activate Route


Route -> Controller: getAllPaths()
activate Controller

Controller -> Service: getAllPaths()
activate Service

Service -> Repository: getAllPaths()
activate Repository

Repository -> Persistence: findall()
activate Persistence

Persistence - -> Repository: allPaths
deactivate Persistence

Repository - -> Service: allPaths
deactivate Repository

Service - -> Controller: allPaths
deactivate Service

Controller - -> Route: 200 OK + allPaths
deactivate Controller

Route -> SPA: 200 OK + allPaths
deactivate Route

SPA -> manager: all allPaths
deactivate SPA
deactivate manager

else filters applied 
alt startwh given and exists 

SPA -> Route: GET getAllPaths(startWHId)
activate Route


Route -> Controller: getAllPaths(startWHId)
activate Controller

Controller -> Service: getAllPaths(startWHId)
activate Service

Service -> Repository: getAllPaths(startWHId)
activate Repository

Repository -> Persistence: findall(startWHId)
activate Persistence

Persistence - -> Repository: allPaths
deactivate Persistence

Repository - -> Service: allPaths
deactivate Repository

Service - -> Controller: allPaths
deactivate Service

Controller - -> Route: 200 OK + allPaths
deactivate Controller

Route -> SPA: 200 OK + allPaths
deactivate Route

SPA -> manager: all allPaths
deactivate SPA
deactivate manager

else destinationWH given and exists
SPA -> Route: GET getAllPaths(destinationWH)
activate Route


Route -> Controller: getAllPaths(destinationWH)
activate Controller

Controller -> Service: getAllPaths(destinationWH)
activate Service

Service -> Repository: getAllPaths(destinationWH)
activate Repository

Repository -> Persistence: findall(destinationWH)
activate Persistence

Persistence - -> Repository: allPaths
deactivate Persistence

Repository - -> Service: allPaths
deactivate Repository

Service - -> Controller: allPaths
deactivate Service

Controller - -> Route: 200 OK + allPaths
deactivate Controller

Route -> SPA: 200 OK + allPaths
deactivate Route

SPA -> manager: all allPaths
deactivate SPA
deactivate manager

else startWHId and destinationWHId given exists

SPA -> Route: GET getAllPaths(startWHId,destinationWH)
activate Route


Route -> Controller: getAllPaths(startWHId,destinationWH)
activate Controller

Controller -> Service: getAllPaths(startWHId,destinationWH)
activate Service

Service -> Repository: getAllPaths(startWHId,destinationWH)
activate Repository

Repository -> Persistence: findall(startWHId,destinationWH)
activate Persistence

Persistence - -> Repository: allPaths
deactivate Persistence

Repository - -> Service: allPaths
deactivate Repository

Service - -> Controller: allPaths
deactivate Service

Controller - -> Route: 200 OK + allPaths
deactivate Controller

Route -> SPA: 200 OK + allPaths
deactivate Route

SPA -> manager: all allPaths
deactivate SPA
deactivate manager

else if any of these given Id's dont exist
SPA -> Route: GET getAllPaths(startWHId,destinationWH)
activate Route


Route -> Controller: getAllPaths(startWHId,destinationWH)
activate Controller

Controller -> Service: getAllPaths(startWHId,destinationWH)
activate Service

Service -> Repository: getAllPaths(startWHId,destinationWH)
activate Repository

Repository -> Persistence: findall(startWHId,destinationWH)
activate Persistence

Persistence - -> Repository: Not found
deactivate Persistence

Repository - -> Service: Not found
deactivate Repository

Service - -> Controller: Not found
deactivate Service

Controller - -> Route: 404 + Not found
deactivate Controller

Route -> SPA: 404 + Not found
deactivate Route

SPA -> manager: 404 + Not found, possible wrong id
deactivate SPA
deactivate manager

@enduml

PlantUML version 1.2022.7(Mon Aug 22 18:01:30 BST 2022)
(GPL source distribution)
Java Runtime: Java(TM) SE Runtime Environment
JVM: Java HotSpot(TM) Client VM
Default Encoding: Cp1252
Language: pt
Country: PT
--></g></svg>