<?xml version="1.0" encoding="UTF-8" standalone="no"?><svg xmlns="http://www.w3.org/2000/svg" xmlns:xlink="http://www.w3.org/1999/xlink" contentScriptType="application/ecmascript" contentStyleType="text/css" height="1753px" preserveAspectRatio="none" style="width:725px;height:1753px;background:#FFFFFF;" version="1.1" viewBox="0 0 725 1753" width="725px" zoomAndPan="magnify"><defs><filter height="300%" id="f5cw3altra3ok" width="300%" x="-1" y="-1"><feGaussianBlur result="blurOut" stdDeviation="2.0"/><feColorMatrix in="blurOut" result="blurOut2" type="matrix" values="0 0 0 0 0 0 0 0 0 0 0 0 0 0 0 0 0 0 .4 0"/><feOffset dx="4.0" dy="4.0" in="blurOut2" result="blurOut3"/><feBlend in="SourceGraphic" in2="blurOut3" mode="normal"/></filter></defs><g><!--MD5=[5d08ad99e8fa849af735c1515d4bb8c4]
cluster <<component>> <<container (C4)>>\nWarehouse Management\n--><rect fill="#FFFFFF" filter="url(#f5cw3altra3ok)" height="1630" style="stroke:#000000;stroke-width:1.5;" width="679" x="34" y="111"/><rect fill="#FFFFFF" height="10" style="stroke:#000000;stroke-width:1.5;" width="15" x="693" y="116"/><rect fill="#FFFFFF" height="2" style="stroke:#000000;stroke-width:1.5;" width="4" x="691" y="118"/><rect fill="#FFFFFF" height="2" style="stroke:#000000;stroke-width:1.5;" width="4" x="691" y="122"/><text fill="#000000" font-family="sans-serif" font-size="14" font-weight="bold" lengthAdjust="spacing" textLength="246" x="250.5" y="138.5332">&lt;&lt;component&gt;&gt; &lt;&lt;container (C4)&gt;&gt;</text><text fill="#000000" font-family="sans-serif" font-size="14" font-weight="bold" lengthAdjust="spacing" textLength="175" x="286" y="156.1426">Warehouse Management</text><text fill="#000000" font-family="sans-serif" font-size="14" font-weight="bold" lengthAdjust="spacing" textLength="0" x="375.5" y="173.752"/><!--MD5=[79a9edb57a6ca9b06f329e6b3231c8f6]
cluster Frameworks and Drivers Layers--><polygon fill="#FFFFFF" filter="url(#f5cw3altra3ok)" points="331,172,559,172,566,195.6094,676,195.6094,676,309,331,309,331,172" style="stroke:#000000;stroke-width:1.5;"/><line style="stroke:#000000;stroke-width:1.5;" x1="331" x2="566" y1="195.6094" y2="195.6094"/><text fill="#000000" font-family="sans-serif" font-size="14" font-weight="bold" lengthAdjust="spacing" textLength="222" x="335" y="188.5332">Frameworks and Drivers Layers</text><!--MD5=[25deb2d1fce5dd98d4c0c0d14c16086b]
cluster Interface Adapters Layer--><polygon fill="#FFFFFF" filter="url(#f5cw3altra3ok)" points="265,702,443,702,450,725.6094,689,725.6094,689,839,265,839,265,702" style="stroke:#000000;stroke-width:1.5;"/><line style="stroke:#000000;stroke-width:1.5;" x1="265" x2="450" y1="725.6094" y2="725.6094"/><text fill="#000000" font-family="sans-serif" font-size="14" font-weight="bold" lengthAdjust="spacing" textLength="172" x="269" y="718.5332">Interface Adapters Layer</text><!--MD5=[b8393d82f2444e332493eabe5d0dc1af]
cluster Application Business Rules--><polygon fill="#FFFFFF" filter="url(#f5cw3altra3ok)" points="326,1210,523,1210,530,1233.6094,533,1233.6094,533,1347,326,1347,326,1210" style="stroke:#000000;stroke-width:1.5;"/><line style="stroke:#000000;stroke-width:1.5;" x1="326" x2="530" y1="1233.6094" y2="1233.6094"/><text fill="#000000" font-family="sans-serif" font-size="14" font-weight="bold" lengthAdjust="spacing" textLength="191" x="330" y="1226.5332">Application Business Rules</text><!--MD5=[fdded0eb0050d8dc91ab4a1c8d8f2292]
cluster Enterprise Business Rules--><polygon fill="#FFFFFF" filter="url(#f5cw3altra3ok)" points="457,1580,650,1580,657,1603.6094,660,1603.6094,660,1717,457,1717,457,1580" style="stroke:#000000;stroke-width:1.5;"/><line style="stroke:#000000;stroke-width:1.5;" x1="457" x2="657" y1="1603.6094" y2="1603.6094"/><text fill="#000000" font-family="sans-serif" font-size="14" font-weight="bold" lengthAdjust="spacing" textLength="187" x="461" y="1596.5332">Enterprise Business Rules</text><text fill="#000000" font-family="sans-serif" font-size="14" lengthAdjust="spacing" textLength="8" x="177" y="89.9238">1</text><rect fill="#A80036" height="12" style="stroke:#FEFECE;stroke-width:1.5;" width="12" x="175" y="105"/><!--MD5=[97de1061a0ab8445a0a4bfc3e13b8318]
entity DTO--><rect fill="#FEFECE" filter="url(#f5cw3altra3ok)" height="65.2188" style="stroke:#A80036;stroke-width:1.5;" width="143" x="103.5" y="758"/><rect fill="#FEFECE" height="10" style="stroke:#A80036;stroke-width:1.5;" width="15" x="226.5" y="763"/><rect fill="#FEFECE" height="2" style="stroke:#A80036;stroke-width:1.5;" width="4" x="224.5" y="765"/><rect fill="#FEFECE" height="2" style="stroke:#A80036;stroke-width:1.5;" width="4" x="224.5" y="769"/><text fill="#000000" font-family="sans-serif" font-size="14" lengthAdjust="spacing" textLength="86" x="118.5" y="792.5332">«component»</text><text fill="#000000" font-family="sans-serif" font-size="14" lengthAdjust="spacing" textLength="103" x="118.5" y="810.1426">WarehouseDTO</text><!--MD5=[8762e9d29cd8ecb81bb02eee4f96c375]
entity SCHEMA--><rect fill="#FEFECE" filter="url(#f5cw3altra3ok)" height="65.2188" style="stroke:#A80036;stroke-width:1.5;" width="164" x="332" y="373"/><rect fill="#FEFECE" height="10" style="stroke:#A80036;stroke-width:1.5;" width="15" x="476" y="378"/><rect fill="#FEFECE" height="2" style="stroke:#A80036;stroke-width:1.5;" width="4" x="474" y="380"/><rect fill="#FEFECE" height="2" style="stroke:#A80036;stroke-width:1.5;" width="4" x="474" y="384"/><text fill="#000000" font-family="sans-serif" font-size="14" lengthAdjust="spacing" textLength="86" x="347" y="407.5332">«component»</text><text fill="#000000" font-family="sans-serif" font-size="14" lengthAdjust="spacing" textLength="124" x="347" y="425.1426">WarehouseSchema</text><!--MD5=[5bab31b8118b8c8cff0440c347387734]
entity API1--><ellipse cx="258" cy="529" fill="#FEFECE" filter="url(#f5cw3altra3ok)" rx="8" ry="8" style="stroke:#A80036;stroke-width:1.5;"/><text fill="#000000" font-family="sans-serif" font-size="14" lengthAdjust="spacing" textLength="138" x="189" y="560.5332">IWarehouseController</text><!--MD5=[a66cf04e2ad9efabc28f300b4d9e7438]
entity API2--><ellipse cx="364" cy="1037" fill="#FEFECE" filter="url(#f5cw3altra3ok)" rx="8" ry="8" style="stroke:#A80036;stroke-width:1.5;"/><text fill="#000000" font-family="sans-serif" font-size="14" lengthAdjust="spacing" textLength="123" x="302.5" y="1068.5332">IWarehouseService</text><!--MD5=[98974da6efbf96758852716194ad0935]
entity API3--><ellipse cx="614" cy="405.5" fill="#FEFECE" filter="url(#f5cw3altra3ok)" rx="8" ry="8" style="stroke:#A80036;stroke-width:1.5;"/><text fill="#000000" font-family="sans-serif" font-size="14" lengthAdjust="spacing" textLength="150" x="539" y="437.0332">IWarehousePersistence</text><!--MD5=[54d8b8a8518c755f932db9e04392bc91]
entity API4--><ellipse cx="558" cy="1503" fill="#FEFECE" filter="url(#f5cw3altra3ok)" rx="8" ry="8" style="stroke:#A80036;stroke-width:1.5;"/><text fill="#000000" font-family="sans-serif" font-size="14" lengthAdjust="spacing" textLength="76" x="520" y="1534.5332">IWarehouse</text><!--MD5=[9e11d42bd15b8cfc476c54dfbb820c8d]
entity API5--><ellipse cx="486" cy="916" fill="#FEFECE" filter="url(#f5cw3altra3ok)" rx="8" ry="8" style="stroke:#A80036;stroke-width:1.5;"/><text fill="#000000" font-family="sans-serif" font-size="14" lengthAdjust="spacing" textLength="144" x="414" y="947.5332">IWarehouseRepository</text><!--MD5=[57d57d1146d3d822d6fad0ff6fc9ff8e]
entity API6--><ellipse cx="59" cy="790.5" fill="#FEFECE" filter="url(#f5cw3altra3ok)" rx="8" ry="8" style="stroke:#A80036;stroke-width:1.5;"/><text fill="#000000" font-family="sans-serif" font-size="14" lengthAdjust="spacing" textLength="106" x="6" y="822.0332">IWarehouseDTO</text><!--MD5=[ca6968f3b3d915fc5c6a7a1a407e56d8]
entity API7--><ellipse cx="288" cy="405.5" fill="#FEFECE" filter="url(#f5cw3altra3ok)" rx="8" ry="8" style="stroke:#A80036;stroke-width:1.5;"/><text fill="#000000" font-family="sans-serif" font-size="14" lengthAdjust="spacing" textLength="127" x="224.5" y="437.0332">IWarehouseSchema</text><!--MD5=[c42ed81cef7fdd2e33758127945b9a5b]
entity UI--><rect fill="#FEFECE" filter="url(#f5cw3altra3ok)" height="65.2188" style="stroke:#A80036;stroke-width:1.5;" width="151" x="347.5" y="228"/><rect fill="#FEFECE" height="10" style="stroke:#A80036;stroke-width:1.5;" width="15" x="478.5" y="233"/><rect fill="#FEFECE" height="2" style="stroke:#A80036;stroke-width:1.5;" width="4" x="476.5" y="235"/><rect fill="#FEFECE" height="2" style="stroke:#A80036;stroke-width:1.5;" width="4" x="476.5" y="239"/><text fill="#000000" font-family="sans-serif" font-size="14" lengthAdjust="spacing" textLength="86" x="362.5" y="262.5332">«component»</text><text fill="#000000" font-family="sans-serif" font-size="14" lengthAdjust="spacing" textLength="111" x="362.5" y="280.1426">WarehouseRoute</text><!--MD5=[2a8f2d1a3f8ab4e9f06faafc6ee3b661]
entity PRT--><rect fill="#FEFECE" filter="url(#f5cw3altra3ok)" height="65.2188" style="stroke:#A80036;stroke-width:1.5;" width="126" x="534" y="228"/><rect fill="#FEFECE" height="10" style="stroke:#A80036;stroke-width:1.5;" width="15" x="640" y="233"/><rect fill="#FEFECE" height="2" style="stroke:#A80036;stroke-width:1.5;" width="4" x="638" y="235"/><rect fill="#FEFECE" height="2" style="stroke:#A80036;stroke-width:1.5;" width="4" x="638" y="239"/><text fill="#000000" font-family="sans-serif" font-size="14" lengthAdjust="spacing" textLength="86" x="549" y="262.5332">«component»</text><text fill="#000000" font-family="sans-serif" font-size="14" lengthAdjust="spacing" textLength="74" x="549" y="280.1426">Persistence</text><!--MD5=[87439e3fb2bd72484276c19727d934ee]
entity CT--><rect fill="#FEFECE" filter="url(#f5cw3altra3ok)" height="65.2188" style="stroke:#A80036;stroke-width:1.5;" width="175" x="281.5" y="758"/><rect fill="#FEFECE" height="10" style="stroke:#A80036;stroke-width:1.5;" width="15" x="436.5" y="763"/><rect fill="#FEFECE" height="2" style="stroke:#A80036;stroke-width:1.5;" width="4" x="434.5" y="765"/><rect fill="#FEFECE" height="2" style="stroke:#A80036;stroke-width:1.5;" width="4" x="434.5" y="769"/><text fill="#000000" font-family="sans-serif" font-size="14" lengthAdjust="spacing" textLength="86" x="296.5" y="792.5332">«component»</text><text fill="#000000" font-family="sans-serif" font-size="14" lengthAdjust="spacing" textLength="135" x="296.5" y="810.1426">WarehouseController</text><!--MD5=[7bbb50bb6a1a4a16f3de7991aea95734]
entity RP--><rect fill="#FEFECE" filter="url(#f5cw3altra3ok)" height="65.2188" style="stroke:#A80036;stroke-width:1.5;" width="181" x="491.5" y="758"/><rect fill="#FEFECE" height="10" style="stroke:#A80036;stroke-width:1.5;" width="15" x="652.5" y="763"/><rect fill="#FEFECE" height="2" style="stroke:#A80036;stroke-width:1.5;" width="4" x="650.5" y="765"/><rect fill="#FEFECE" height="2" style="stroke:#A80036;stroke-width:1.5;" width="4" x="650.5" y="769"/><text fill="#000000" font-family="sans-serif" font-size="14" lengthAdjust="spacing" textLength="86" x="506.5" y="792.5332">«component»</text><text fill="#000000" font-family="sans-serif" font-size="14" lengthAdjust="spacing" textLength="141" x="506.5" y="810.1426">WarehouseRepository</text><!--MD5=[cd81128ed1873346d3678821c65bf0c5]
entity SV--><rect fill="#FEFECE" filter="url(#f5cw3altra3ok)" height="65.2188" style="stroke:#A80036;stroke-width:1.5;" width="160" x="349" y="1266"/><rect fill="#FEFECE" height="10" style="stroke:#A80036;stroke-width:1.5;" width="15" x="489" y="1271"/><rect fill="#FEFECE" height="2" style="stroke:#A80036;stroke-width:1.5;" width="4" x="487" y="1273"/><rect fill="#FEFECE" height="2" style="stroke:#A80036;stroke-width:1.5;" width="4" x="487" y="1277"/><text fill="#000000" font-family="sans-serif" font-size="14" lengthAdjust="spacing" textLength="86" x="364" y="1300.5332">«component»</text><text fill="#000000" font-family="sans-serif" font-size="14" lengthAdjust="spacing" textLength="120" x="364" y="1318.1426">WarehouseService</text><!--MD5=[89b661764057acc56253a7c2eb97e6e4]
entity WH--><rect fill="#FEFECE" filter="url(#f5cw3altra3ok)" height="65.2188" style="stroke:#A80036;stroke-width:1.5;" width="126" x="495" y="1636"/><rect fill="#FEFECE" height="10" style="stroke:#A80036;stroke-width:1.5;" width="15" x="601" y="1641"/><rect fill="#FEFECE" height="2" style="stroke:#A80036;stroke-width:1.5;" width="4" x="599" y="1643"/><rect fill="#FEFECE" height="2" style="stroke:#A80036;stroke-width:1.5;" width="4" x="599" y="1647"/><text fill="#000000" font-family="sans-serif" font-size="14" lengthAdjust="spacing" textLength="86" x="510" y="1670.5332">«component»</text><text fill="#000000" font-family="sans-serif" font-size="14" lengthAdjust="spacing" textLength="73" x="510" y="1688.1426">Warehouse</text><!--MD5=[e2307af040e3f87d22824e7603ca28ec]
entity api--><ellipse cx="181" cy="14" fill="#FEFECE" filter="url(#f5cw3altra3ok)" rx="8" ry="8" style="stroke:#A80036;stroke-width:1.5;"/><text fill="#000000" font-family="sans-serif" font-size="14" lengthAdjust="spacing" textLength="49" x="156.5" y="45.5332">WM API</text><!--MD5=[bad9a68d5e55e3332b43fb340c40bd41]
link api to 1--><path d="M181,23.1 C181,42.12 181,89.23 181,104.87 " fill="none" id="api-1" style="stroke:#A80036;stroke-width:1.0;"/><!--MD5=[22d10a3c8d5cb50274a958892da20aba]
link UI to API1--><path d="M380.18,293.01 C368.62,301.12 355.99,309.63 344,317 C298.94,344.7 266.21,327.65 239,373 C211.29,419.18 238.02,487.01 251.39,515.1 " fill="none" id="UI-to-API1" style="stroke:#A80036;stroke-width:1.0;stroke-dasharray:7.0,7.0;"/><polygon fill="#A80036" points="253.72,519.86,253.3606,510.0177,251.5239,515.3681,246.1736,513.5314,253.72,519.86" style="stroke:#A80036;stroke-width:1.0;"/><text fill="#000000" font-family="sans-serif" font-size="13" lengthAdjust="spacing" textLength="21" x="240" y="410.9951">use</text><!--MD5=[59b2c983182fbc2221bfd3fed3693ee0]
link API1 to CT--><path d="M261.44,538.05 C275.61,571.16 329.81,697.88 355.43,757.78 " fill="none" id="API1-CT" style="stroke:#A80036;stroke-width:1.0;"/><!--MD5=[0d5cc8aa95ebb24459893db76752798d]
link API2 to SV--><path d="M366.02,1046.05 C374.31,1079.16 406.05,1205.88 421.05,1265.78 " fill="none" id="API2-SV" style="stroke:#A80036;stroke-width:1.0;"/><!--MD5=[4786affd884f1377ce35e2c02eb5d6f0]
link CT to API2--><path d="M367.84,823.43 C367.21,841.74 366.47,865.16 366,886 C364.86,936.56 364.3,996.73 364.09,1022.83 " fill="none" id="CT-to-API2" style="stroke:#A80036;stroke-width:1.0;stroke-dasharray:7.0,7.0;"/><polygon fill="#A80036" points="364.06,1027.87,368.1114,1018.893,364.0886,1022.8701,360.1115,1018.8473,364.06,1027.87" style="stroke:#A80036;stroke-width:1.0;"/><text fill="#000000" font-family="sans-serif" font-size="13" lengthAdjust="spacing" textLength="21" x="367" y="921.4951">use</text><!--MD5=[31ddc9947e7fc00e53fce56bc3b14aa7]
link PRT to API3--><path d="M600.77,293.24 C604.74,326.64 610.73,377.03 613.04,396.46 " fill="none" id="PRT-API3" style="stroke:#A80036;stroke-width:1.0;"/><!--MD5=[2908b01a6aa67679545e9a8416c10eaf]
reverse link API3 to RP--><path d="M612.88,419.91 C608.34,474.24 591.25,678.82 584.63,757.96 " fill="none" id="API3-backto-RP" style="stroke:#A80036;stroke-width:1.0;stroke-dasharray:7.0,7.0;"/><polygon fill="#A80036" points="613.3,414.86,608.5685,423.4979,612.886,419.8428,616.541,424.1603,613.3,414.86" style="stroke:#A80036;stroke-width:1.0;"/><text fill="#000000" font-family="sans-serif" font-size="13" lengthAdjust="spacing" textLength="21" x="599" y="603.4951">use</text><!--MD5=[e69836d66a5e0de6d4c1d0c08c72177e]
link API4 to WH--><path d="M558,1512.33 C558,1534.78 558,1597.43 558,1635.91 " fill="none" id="API4-WH" style="stroke:#A80036;stroke-width:1.0;"/><!--MD5=[d0df21cfe04ed5bc272ea125f3a28b94]
link SV to API4--><path d="M449.16,1331.14 C478.08,1376.54 530.06,1458.14 549.95,1489.37 " fill="none" id="SV-to-API4" style="stroke:#A80036;stroke-width:1.0;stroke-dasharray:7.0,7.0;"/><polygon fill="#A80036" points="552.86,1493.94,551.3964,1484.2005,550.1728,1489.7235,544.6499,1488.4999,552.86,1493.94" style="stroke:#A80036;stroke-width:1.0;"/><text fill="#000000" font-family="sans-serif" font-size="13" lengthAdjust="spacing" textLength="21" x="501" y="1408.4951">use</text><!--MD5=[f245d567554e140c9e1f4e290c226fae]
link RP to API5--><path d="M557.28,823.3 C535.5,851.32 505.29,890.19 492.32,906.87 " fill="none" id="RP-API5" style="stroke:#A80036;stroke-width:1.0;"/><!--MD5=[55011b8e97c8f49b4e08cf06dc6de701]
reverse link API5 to SV--><path d="M484.01,930.32 C475.93,984.21 445.55,1187.03 433.74,1265.87 " fill="none" id="API5-backto-SV" style="stroke:#A80036;stroke-width:1.0;stroke-dasharray:7.0,7.0;"/><polygon fill="#A80036" points="484.76,925.3,479.4704,933.6078,484.019,930.2448,487.382,934.7934,484.76,925.3" style="stroke:#A80036;stroke-width:1.0;"/><text fill="#000000" font-family="sans-serif" font-size="13" lengthAdjust="spacing" textLength="21" x="459" y="1111.4951">use</text><!--MD5=[f78499c83be6f96070619e4f4df94a6b]
link RP to API4--><path d="M589.96,823 C595.54,847.82 602,883.4 602,915 C602,915 602,915 602,1404 C602,1437.35 580.53,1471.93 567.58,1489.75 " fill="none" id="RP-to-API4" style="stroke:#A80036;stroke-width:1.0;stroke-dasharray:7.0,7.0;"/><polygon fill="#A80036" points="564.49,1493.91,573.0707,1489.0757,567.474,1489.898,566.6516,1484.3013,564.49,1493.91" style="stroke:#A80036;stroke-width:1.0;"/><text fill="#000000" font-family="sans-serif" font-size="13" lengthAdjust="spacing" textLength="21" x="603" y="1159.4951">use</text><!--MD5=[303f85d2c2a9e45b12c75444957fc024]
link API6 to DTO--><path d="M68.06,790.5 C79.76,790.5 91.46,790.5 103.15,790.5 " fill="none" id="API6-DTO" style="stroke:#A80036;stroke-width:1.0;"/><!--MD5=[20c6a929d096d30b6204dc766915be41]
link CT to API6--><path d="M348.75,757.94 C332.68,735.37 307.95,707.12 278,694 C240.34,677.51 226.61,693.22 185.5,693 C141.28,692.76 121.06,667.04 86,694 C60.7,713.45 57.8,754.58 58.18,776.33 " fill="none" id="CT-to-API6" style="stroke:#A80036;stroke-width:1.0;stroke-dasharray:7.0,7.0;"/><polygon fill="#A80036" points="58.34,781.42,62.0813,772.3094,58.1972,776.422,54.0846,772.5379,58.34,781.42" style="stroke:#A80036;stroke-width:1.0;"/><text fill="#000000" font-family="sans-serif" font-size="13" lengthAdjust="spacing" textLength="21" x="163.5" y="682.4951">use</text><!--MD5=[3c11a959d4e6db5cafb286903d65e768]
reverse link API6 to SV--><path d="M63.38,804.37 C67.84,816.25 75.58,833.96 86,847 C116.21,884.79 171,866.62 171,915 C171,915 171,915 171,1155 C171,1237.38 273.04,1272.51 348.78,1287.23 " fill="none" id="API6-backto-SV" style="stroke:#A80036;stroke-width:1.0;stroke-dasharray:7.0,7.0;"/><polygon fill="#A80036" points="61.68,799.67,61.0061,809.4958,63.3933,804.3673,68.5218,806.7545,61.68,799.67" style="stroke:#A80036;stroke-width:1.0;"/><text fill="#000000" font-family="sans-serif" font-size="13" lengthAdjust="spacing" textLength="21" x="172" y="1042.4951">use</text><!--MD5=[358c250ae5d5bb4807947e3a18e0d338]
link API7 to SCHEMA--><path d="M297.35,405.5 C308.89,405.5 320.44,405.5 331.98,405.5 " fill="none" id="API7-SCHEMA" style="stroke:#A80036;stroke-width:1.0;"/><!--MD5=[4d267822f3b7364a6cc5782d3f0c6c7b]
reverse link API7 to RP--><path d="M297.55,418.94 C338.09,471.75 496.67,678.34 557.79,757.96 " fill="none" id="API7-backto-RP" style="stroke:#A80036;stroke-width:1.0;stroke-dasharray:7.0,7.0;"/><polygon fill="#A80036" points="294.41,414.86,296.7086,424.4369,297.451,418.829,303.0589,419.5713,294.41,414.86" style="stroke:#A80036;stroke-width:1.0;"/><text fill="#000000" font-family="sans-serif" font-size="13" lengthAdjust="spacing" textLength="21" x="442" y="603.4951">use</text><!--MD5=[765bdef505007d988711dc1649f0cba7]
link PRT to API7--><path d="M556.54,293.07 C544.04,301.73 529.91,310.52 516,317 C431.95,356.18 393.23,323.2 315,373 C307.4,377.84 300.78,385.47 295.99,392.01 " fill="none" id="PRT-to-API7" style="stroke:#A80036;stroke-width:1.0;stroke-dasharray:7.0,7.0;"/><polygon fill="#A80036" points="292.99,396.32,301.4257,391.2368,295.8554,392.2225,294.8697,386.6522,292.99,396.32" style="stroke:#A80036;stroke-width:1.0;"/><text fill="#000000" font-family="sans-serif" font-size="13" lengthAdjust="spacing" textLength="21" x="497" y="339.4951">use</text><!--MD5=[90d79e3b45d0918f855a1ec648d19a1f]
@startuml
'https://plantuml.com/component-diagram
interface "WM API" as api

component "<<component>> <<container (C4)>>\nWarehouse Management\n"{

    portin 1
    package "Frameworks and Drivers Layers" {
        component "<<component>>\nWarehouseRoute" as UI
        component "<<component>>\nPersistence" as PRT

    }

    package "Interface Adapters Layer" {
        component "<<component>>\nWarehouseController" as CT
        component "<<component>>\nWarehouseRepository" as RP

    }

    component "<<component>>\nWarehouseDTO" as DTO
    component "<<component>>\nWarehouseSchema" as SCHEMA
    interface "IWarehouseController" as API1
    interface "IWarehouseService" as API2
    interface "IWarehousePersistence" as API3
    interface "IWarehouse" as API4
    interface "IWarehouseRepository" as API5
    interface "IWarehouseDTO" as API6
    interface "IWarehouseSchema" as API7

    package "Application Business Rules" {
        component "<<component>>\nWarehouseService" as SV
    }

    package "Enterprise Business Rules" {
        component "<<component>>\nWarehouse" as WH

    }

}

api - - 1
UI -down..> API1 : use
CT -up- API1
SV -up- - API2
CT -down..>API2 : use

PRT -down- API3
RP -up..> API3 : use
WH -up- API4
SV -down..> API4 : use

RP -down-API5
SV -up..> API5 : use
RP -down..> API4 : use

DTO -left- API6
CT -right.> API6 : use
SV -up..> API6 : use

SCHEMA -left- API7
RP -up...> API7 : use

PRT ..> API7 : use

@enduml

@startuml
interface "WM API" as api

component "<<component>> <<container (C4)>>\nWarehouse Management\n"{

    portin 1
    package "Frameworks and Drivers Layers" {
        component "<<component>>\nWarehouseRoute" as UI
        component "<<component>>\nPersistence" as PRT

    }

    package "Interface Adapters Layer" {
        component "<<component>>\nWarehouseController" as CT
        component "<<component>>\nWarehouseRepository" as RP

    }

    component "<<component>>\nWarehouseDTO" as DTO
    component "<<component>>\nWarehouseSchema" as SCHEMA
    interface "IWarehouseController" as API1
    interface "IWarehouseService" as API2
    interface "IWarehousePersistence" as API3
    interface "IWarehouse" as API4
    interface "IWarehouseRepository" as API5
    interface "IWarehouseDTO" as API6
    interface "IWarehouseSchema" as API7

    package "Application Business Rules" {
        component "<<component>>\nWarehouseService" as SV
    }

    package "Enterprise Business Rules" {
        component "<<component>>\nWarehouse" as WH

    }

}

api - - 1
UI -down..> API1 : use
CT -up- API1
SV -up- - API2
CT -down..>API2 : use

PRT -down- API3
RP -up..> API3 : use
WH -up- API4
SV -down..> API4 : use

RP -down-API5
SV -up..> API5 : use
RP -down..> API4 : use

DTO -left- API6
CT -right.> API6 : use
SV -up..> API6 : use

SCHEMA -left- API7
RP -up...> API7 : use

PRT ..> API7 : use

@enduml

PlantUML version 1.2022.1(Tue Feb 01 18:19:58 GMT 2022)
(GPL source distribution)
Java Runtime: OpenJDK Runtime Environment
JVM: OpenJDK 64-Bit Server VM
Default Encoding: Cp1252
Language: pt
Country: BR
--></g></svg>