<?xml version="1.0" encoding="UTF-8" standalone="no"?><svg xmlns="http://www.w3.org/2000/svg" xmlns:xlink="http://www.w3.org/1999/xlink" contentScriptType="application/ecmascript" contentStyleType="text/css" height="1555px" preserveAspectRatio="none" style="width:721px;height:1555px;background:#FFFFFF;" version="1.1" viewBox="0 0 721 1555" width="721px" zoomAndPan="magnify"><defs><filter height="300%" id="frdgcpvbsyfr4" width="300%" x="-1" y="-1"><feGaussianBlur result="blurOut" stdDeviation="2.0"/><feColorMatrix in="blurOut" result="blurOut2" type="matrix" values="0 0 0 0 0 0 0 0 0 0 0 0 0 0 0 0 0 0 .4 0"/><feOffset dx="4.0" dy="4.0" in="blurOut2" result="blurOut3"/><feBlend in="SourceGraphic" in2="blurOut3" mode="normal"/></filter></defs><g><!--MD5=[5d08ad99e8fa849af735c1515d4bb8c4]
cluster <<component>> <<container (C4)>>\nWarehouse Management\n--><rect fill="#FFFFFF" filter="url(#frdgcpvbsyfr4)" height="1432" style="stroke:#000000;stroke-width:1.5;" width="702" x="7" y="111"/><rect fill="#FFFFFF" height="10" style="stroke:#000000;stroke-width:1.5;" width="15" x="689" y="116"/><rect fill="#FFFFFF" height="2" style="stroke:#000000;stroke-width:1.5;" width="4" x="687" y="118"/><rect fill="#FFFFFF" height="2" style="stroke:#000000;stroke-width:1.5;" width="4" x="687" y="122"/><text fill="#000000" font-family="sans-serif" font-size="14" font-weight="bold" lengthAdjust="spacing" textLength="246" x="235" y="138.5332">&lt;&lt;component&gt;&gt; &lt;&lt;container (C4)&gt;&gt;</text><text fill="#000000" font-family="sans-serif" font-size="14" font-weight="bold" lengthAdjust="spacing" textLength="175" x="270.5" y="156.1426">Warehouse Management</text><text fill="#000000" font-family="sans-serif" font-size="14" font-weight="bold" lengthAdjust="spacing" textLength="0" x="360" y="173.752"/><!--MD5=[79a9edb57a6ca9b06f329e6b3231c8f6]
cluster Frameworks and Drivers Layers--><polygon fill="#FFFFFF" filter="url(#frdgcpvbsyfr4)" points="304,172,532,172,539,195.6094,685,195.6094,685,289,304,289,304,172" style="stroke:#000000;stroke-width:1.5;"/><line style="stroke:#000000;stroke-width:1.5;" x1="304" x2="539" y1="195.6094" y2="195.6094"/><text fill="#000000" font-family="sans-serif" font-size="14" font-weight="bold" lengthAdjust="spacing" textLength="222" x="308" y="188.5332">Frameworks and Drivers Layers</text><!--MD5=[25deb2d1fce5dd98d4c0c0d14c16086b]
cluster Interface Adapters Layer--><polygon fill="#FFFFFF" filter="url(#frdgcpvbsyfr4)" points="261,564,439,564,446,587.6094,685,587.6094,685,681,261,681,261,564" style="stroke:#000000;stroke-width:1.5;"/><line style="stroke:#000000;stroke-width:1.5;" x1="261" x2="446" y1="587.6094" y2="587.6094"/><text fill="#000000" font-family="sans-serif" font-size="14" font-weight="bold" lengthAdjust="spacing" textLength="172" x="265" y="580.5332">Interface Adapters Layer</text><!--MD5=[b8393d82f2444e332493eabe5d0dc1af]
cluster Application Business Rules--><polygon fill="#FFFFFF" filter="url(#frdgcpvbsyfr4)" points="329,1052,526,1052,533,1075.6094,536,1075.6094,536,1169,329,1169,329,1052" style="stroke:#000000;stroke-width:1.5;"/><line style="stroke:#000000;stroke-width:1.5;" x1="329" x2="533" y1="1075.6094" y2="1075.6094"/><text fill="#000000" font-family="sans-serif" font-size="14" font-weight="bold" lengthAdjust="spacing" textLength="191" x="333" y="1068.5332">Application Business Rules</text><!--MD5=[fdded0eb0050d8dc91ab4a1c8d8f2292]
cluster Enterprise Business Rules--><polygon fill="#FFFFFF" filter="url(#frdgcpvbsyfr4)" points="452,1402,645,1402,652,1425.6094,655,1425.6094,655,1519,452,1519,452,1402" style="stroke:#000000;stroke-width:1.5;"/><line style="stroke:#000000;stroke-width:1.5;" x1="452" x2="652" y1="1425.6094" y2="1425.6094"/><text fill="#000000" font-family="sans-serif" font-size="14" font-weight="bold" lengthAdjust="spacing" textLength="187" x="456" y="1418.5332">Enterprise Business Rules</text><text fill="#000000" font-family="sans-serif" font-size="14" lengthAdjust="spacing" textLength="8" x="150" y="89.9238">1</text><rect fill="#A80036" height="12" style="stroke:#FEFECE;stroke-width:1.5;" width="12" x="148" y="105"/><!--MD5=[97de1061a0ab8445a0a4bfc3e13b8318]
entity DTO--><rect fill="#FEFECE" filter="url(#frdgcpvbsyfr4)" height="65.2188" style="stroke:#A80036;stroke-width:1.5;" width="143" x="23.5" y="600"/><rect fill="#FEFECE" height="10" style="stroke:#A80036;stroke-width:1.5;" width="15" x="146.5" y="605"/><rect fill="#FEFECE" height="2" style="stroke:#A80036;stroke-width:1.5;" width="4" x="144.5" y="607"/><rect fill="#FEFECE" height="2" style="stroke:#A80036;stroke-width:1.5;" width="4" x="144.5" y="611"/><text fill="#000000" font-family="sans-serif" font-size="14" lengthAdjust="spacing" textLength="86" x="38.5" y="634.5332">«component»</text><text fill="#000000" font-family="sans-serif" font-size="14" lengthAdjust="spacing" textLength="103" x="38.5" y="652.1426">WarehouseDTO</text><!--MD5=[5bab31b8118b8c8cff0440c347387734]
entity API1--><ellipse cx="371" cy="487" fill="#FEFECE" filter="url(#frdgcpvbsyfr4)" rx="8" ry="8" style="stroke:#A80036;stroke-width:1.5;"/><text fill="#000000" font-family="sans-serif" font-size="14" lengthAdjust="spacing" textLength="111" x="315.5" y="518.5332">WMController API</text><!--MD5=[a66cf04e2ad9efabc28f300b4d9e7438]
entity API2--><ellipse cx="373" cy="879" fill="#FEFECE" filter="url(#frdgcpvbsyfr4)" rx="8" ry="8" style="stroke:#A80036;stroke-width:1.5;"/><text fill="#000000" font-family="sans-serif" font-size="14" lengthAdjust="spacing" textLength="96" x="325" y="910.5332">WMService API</text><!--MD5=[98974da6efbf96758852716194ad0935]
entity API3--><ellipse cx="577" cy="366" fill="#FEFECE" filter="url(#frdgcpvbsyfr4)" rx="8" ry="8" style="stroke:#A80036;stroke-width:1.5;"/><text fill="#000000" font-family="sans-serif" font-size="14" lengthAdjust="spacing" textLength="99" x="527.5" y="397.5332">Persistence API</text><!--MD5=[54d8b8a8518c755f932db9e04392bc91]
entity API4--><ellipse cx="553" cy="1325" fill="#FEFECE" filter="url(#frdgcpvbsyfr4)" rx="8" ry="8" style="stroke:#A80036;stroke-width:1.5;"/><text fill="#000000" font-family="sans-serif" font-size="14" lengthAdjust="spacing" textLength="98" x="504" y="1356.5332">Warehouse API</text><!--MD5=[9e11d42bd15b8cfc476c54dfbb820c8d]
entity API5--><ellipse cx="482" cy="758" fill="#FEFECE" filter="url(#frdgcpvbsyfr4)" rx="8" ry="8" style="stroke:#A80036;stroke-width:1.5;"/><text fill="#000000" font-family="sans-serif" font-size="14" lengthAdjust="spacing" textLength="121" x="421.5" y="789.5332">WM Repository API</text><!--MD5=[57d57d1146d3d822d6fad0ff6fc9ff8e]
entity API6--><ellipse cx="211" cy="632.5" fill="#FEFECE" filter="url(#frdgcpvbsyfr4)" rx="8" ry="8" style="stroke:#A80036;stroke-width:1.5;"/><text fill="#000000" font-family="sans-serif" font-size="14" lengthAdjust="spacing" textLength="128" x="147" y="664.0332">WarehouseDTO API</text><!--MD5=[c42ed81cef7fdd2e33758127945b9a5b]
entity UI--><rect fill="#FEFECE" filter="url(#frdgcpvbsyfr4)" height="65.2188" style="stroke:#A80036;stroke-width:1.5;" width="126" x="320" y="208"/><rect fill="#FEFECE" height="10" style="stroke:#A80036;stroke-width:1.5;" width="15" x="426" y="213"/><rect fill="#FEFECE" height="2" style="stroke:#A80036;stroke-width:1.5;" width="4" x="424" y="215"/><rect fill="#FEFECE" height="2" style="stroke:#A80036;stroke-width:1.5;" width="4" x="424" y="219"/><text fill="#000000" font-family="sans-serif" font-size="14" lengthAdjust="spacing" textLength="86" x="335" y="242.5332">«component»</text><text fill="#000000" font-family="sans-serif" font-size="14" lengthAdjust="spacing" textLength="85" x="335" y="260.1426">WarehouseUI</text><!--MD5=[2a8f2d1a3f8ab4e9f06faafc6ee3b661]
entity PRT--><rect fill="#FEFECE" filter="url(#frdgcpvbsyfr4)" height="65.2188" style="stroke:#A80036;stroke-width:1.5;" width="187" x="481.5" y="208"/><rect fill="#FEFECE" height="10" style="stroke:#A80036;stroke-width:1.5;" width="15" x="648.5" y="213"/><rect fill="#FEFECE" height="2" style="stroke:#A80036;stroke-width:1.5;" width="4" x="646.5" y="215"/><rect fill="#FEFECE" height="2" style="stroke:#A80036;stroke-width:1.5;" width="4" x="646.5" y="219"/><text fill="#000000" font-family="sans-serif" font-size="14" lengthAdjust="spacing" textLength="86" x="496.5" y="242.5332">«component»</text><text fill="#000000" font-family="sans-serif" font-size="14" lengthAdjust="spacing" textLength="147" x="496.5" y="260.1426">PersistenceWarehouse</text><!--MD5=[87439e3fb2bd72484276c19727d934ee]
entity CT--><rect fill="#FEFECE" filter="url(#frdgcpvbsyfr4)" height="65.2188" style="stroke:#A80036;stroke-width:1.5;" width="175" x="277.5" y="600"/><rect fill="#FEFECE" height="10" style="stroke:#A80036;stroke-width:1.5;" width="15" x="432.5" y="605"/><rect fill="#FEFECE" height="2" style="stroke:#A80036;stroke-width:1.5;" width="4" x="430.5" y="607"/><rect fill="#FEFECE" height="2" style="stroke:#A80036;stroke-width:1.5;" width="4" x="430.5" y="611"/><text fill="#000000" font-family="sans-serif" font-size="14" lengthAdjust="spacing" textLength="86" x="292.5" y="634.5332">«component»</text><text fill="#000000" font-family="sans-serif" font-size="14" lengthAdjust="spacing" textLength="135" x="292.5" y="652.1426">WarehouseController</text><!--MD5=[7bbb50bb6a1a4a16f3de7991aea95734]
entity RP--><rect fill="#FEFECE" filter="url(#frdgcpvbsyfr4)" height="65.2188" style="stroke:#A80036;stroke-width:1.5;" width="181" x="487.5" y="600"/><rect fill="#FEFECE" height="10" style="stroke:#A80036;stroke-width:1.5;" width="15" x="648.5" y="605"/><rect fill="#FEFECE" height="2" style="stroke:#A80036;stroke-width:1.5;" width="4" x="646.5" y="607"/><rect fill="#FEFECE" height="2" style="stroke:#A80036;stroke-width:1.5;" width="4" x="646.5" y="611"/><text fill="#000000" font-family="sans-serif" font-size="14" lengthAdjust="spacing" textLength="86" x="502.5" y="634.5332">«component»</text><text fill="#000000" font-family="sans-serif" font-size="14" lengthAdjust="spacing" textLength="141" x="502.5" y="652.1426">WarehouseRepository</text><!--MD5=[cd81128ed1873346d3678821c65bf0c5]
entity SV--><rect fill="#FEFECE" filter="url(#frdgcpvbsyfr4)" height="65.2188" style="stroke:#A80036;stroke-width:1.5;" width="160" x="352" y="1088"/><rect fill="#FEFECE" height="10" style="stroke:#A80036;stroke-width:1.5;" width="15" x="492" y="1093"/><rect fill="#FEFECE" height="2" style="stroke:#A80036;stroke-width:1.5;" width="4" x="490" y="1095"/><rect fill="#FEFECE" height="2" style="stroke:#A80036;stroke-width:1.5;" width="4" x="490" y="1099"/><text fill="#000000" font-family="sans-serif" font-size="14" lengthAdjust="spacing" textLength="86" x="367" y="1122.5332">«component»</text><text fill="#000000" font-family="sans-serif" font-size="14" lengthAdjust="spacing" textLength="120" x="367" y="1140.1426">WarehouseService</text><!--MD5=[89b661764057acc56253a7c2eb97e6e4]
entity WH--><rect fill="#FEFECE" filter="url(#frdgcpvbsyfr4)" height="65.2188" style="stroke:#A80036;stroke-width:1.5;" width="126" x="490" y="1438"/><rect fill="#FEFECE" height="10" style="stroke:#A80036;stroke-width:1.5;" width="15" x="596" y="1443"/><rect fill="#FEFECE" height="2" style="stroke:#A80036;stroke-width:1.5;" width="4" x="594" y="1445"/><rect fill="#FEFECE" height="2" style="stroke:#A80036;stroke-width:1.5;" width="4" x="594" y="1449"/><text fill="#000000" font-family="sans-serif" font-size="14" lengthAdjust="spacing" textLength="86" x="505" y="1472.5332">«component»</text><text fill="#000000" font-family="sans-serif" font-size="14" lengthAdjust="spacing" textLength="73" x="505" y="1490.1426">Warehouse</text><!--MD5=[e2307af040e3f87d22824e7603ca28ec]
entity api--><ellipse cx="154" cy="14" fill="#FEFECE" filter="url(#frdgcpvbsyfr4)" rx="8" ry="8" style="stroke:#A80036;stroke-width:1.5;"/><text fill="#000000" font-family="sans-serif" font-size="14" lengthAdjust="spacing" textLength="49" x="129.5" y="45.5332">WM API</text><!--MD5=[bad9a68d5e55e3332b43fb340c40bd41]
link api to 1--><path d="M154,23.1 C154,42.12 154,89.23 154,104.87 " fill="none" id="api-1" style="stroke:#A80036;stroke-width:1.0;"/><!--MD5=[22d10a3c8d5cb50274a958892da20aba]
link UI to API1--><path d="M381.43,273.46 C378.78,327.53 373.51,434.81 371.66,472.52 " fill="none" id="UI-to-API1" style="stroke:#A80036;stroke-width:1.0;stroke-dasharray:7.0,7.0;"/><polygon fill="#A80036" points="371.39,477.95,375.8219,469.1547,371.6326,472.9559,367.8313,468.7665,371.39,477.95" style="stroke:#A80036;stroke-width:1.0;"/><text fill="#000000" font-family="sans-serif" font-size="13" lengthAdjust="spacing" textLength="21" x="379" y="371.4951">use</text><!--MD5=[59b2c983182fbc2221bfd3fed3693ee0]
link API1 to CT--><path d="M370.66,496.13 C369.84,515.69 367.73,566.27 366.33,599.76 " fill="none" id="API1-CT" style="stroke:#A80036;stroke-width:1.0;"/><!--MD5=[0d5cc8aa95ebb24459893db76752798d]
link API2 to SV--><path d="M375.03,888.24 C382.75,919.58 410.53,1032.34 424.24,1087.98 " fill="none" id="API2-SV" style="stroke:#A80036;stroke-width:1.0;"/><!--MD5=[4786affd884f1377ce35e2c02eb5d6f0]
link CT to API2--><path d="M366.05,665.46 C367.81,719.53 371.33,826.81 372.56,864.52 " fill="none" id="CT-to-API2" style="stroke:#A80036;stroke-width:1.0;stroke-dasharray:7.0,7.0;"/><polygon fill="#A80036" points="372.74,869.95,376.4553,860.8288,372.5829,864.9525,368.4593,861.0801,372.74,869.95" style="stroke:#A80036;stroke-width:1.0;"/><text fill="#000000" font-family="sans-serif" font-size="13" lengthAdjust="spacing" textLength="21" x="371" y="763.4951">use</text><!--MD5=[31ddc9947e7fc00e53fce56bc3b14aa7]
link PRT to API3--><path d="M575.52,273.3 C575.97,301.32 576.6,340.19 576.87,356.87 " fill="none" id="PRT-API3" style="stroke:#A80036;stroke-width:1.0;"/><!--MD5=[2908b01a6aa67679545e9a8416c10eaf]
reverse link API3 to RP--><path d="M577.05,380.58 C577.2,421.05 577.66,541.63 577.88,599.64 " fill="none" id="API3-backto-RP" style="stroke:#A80036;stroke-width:1.0;stroke-dasharray:7.0,7.0;"/><polygon fill="#A80036" points="577.03,375.21,573.0557,384.2214,577.0443,380.21,581.0557,384.1985,577.03,375.21" style="stroke:#A80036;stroke-width:1.0;"/><text fill="#000000" font-family="sans-serif" font-size="13" lengthAdjust="spacing" textLength="21" x="578" y="492.4951">use</text><!--MD5=[e69836d66a5e0de6d4c1d0c08c72177e]
link API4 to WH--><path d="M553,1334.13 C553,1353.69 553,1404.27 553,1437.76 " fill="none" id="API4-WH" style="stroke:#A80036;stroke-width:1.0;"/><!--MD5=[d0df21cfe04ed5bc272ea125f3a28b94]
link SV to API4--><path d="M450.91,1153.14 C478.04,1198.54 526.79,1280.14 545.45,1311.37 " fill="none" id="SV-to-API4" style="stroke:#A80036;stroke-width:1.0;stroke-dasharray:7.0,7.0;"/><polygon fill="#A80036" points="548.18,1315.94,547.0035,1306.1617,545.6181,1311.6462,540.1335,1310.2608,548.18,1315.94" style="stroke:#A80036;stroke-width:1.0;"/><text fill="#000000" font-family="sans-serif" font-size="13" lengthAdjust="spacing" textLength="21" x="500" y="1230.4951">use</text><!--MD5=[f245d567554e140c9e1f4e290c226fae]
link RP to API5--><path d="M553.28,665.3 C531.5,693.32 501.29,732.19 488.32,748.87 " fill="none" id="RP-API5" style="stroke:#A80036;stroke-width:1.0;"/><!--MD5=[55011b8e97c8f49b4e08cf06dc6de701]
reverse link API5 to SV--><path d="M480.16,772.3 C472.98,824.01 446.84,1012.5 436.38,1087.96 " fill="none" id="API5-backto-SV" style="stroke:#A80036;stroke-width:1.0;stroke-dasharray:7.0,7.0;"/><polygon fill="#A80036" points="480.86,767.21,475.6645,775.577,480.1749,772.1628,483.5891,776.6732,480.86,767.21" style="stroke:#A80036;stroke-width:1.0;"/><text fill="#000000" font-family="sans-serif" font-size="13" lengthAdjust="spacing" textLength="21" x="458" y="953.4951">use</text><!--MD5=[f78499c83be6f96070619e4f4df94a6b]
link RP to API4--><path d="M581.18,665.19 C583.42,690.12 586,725.74 586,757 C586,757 586,757 586,1226 C586,1258 570,1292.95 560.28,1311.22 " fill="none" id="RP-to-API4" style="stroke:#A80036;stroke-width:1.0;stroke-dasharray:7.0,7.0;"/><polygon fill="#A80036" points="557.73,1315.92,565.5513,1309.9343,560.1243,1311.5305,558.5281,1306.1035,557.73,1315.92" style="stroke:#A80036;stroke-width:1.0;"/><text fill="#000000" font-family="sans-serif" font-size="13" lengthAdjust="spacing" textLength="21" x="587" y="1001.4951">use</text><!--MD5=[5b462dfbc4f4d629ca0d9cf03929d08c]
link DTO to API6--><path d="M166.59,632.5 C178.39,632.5 190.18,632.5 201.98,632.5 " fill="none" id="DTO-API6" style="stroke:#A80036;stroke-width:1.0;"/><!--MD5=[20c6a929d096d30b6204dc766915be41]
link CT to API6--><path d="M277.13,632.5 C256.99,632.5 237.86,632.5 225.4,632.5 " fill="none" id="CT-to-API6" style="stroke:#A80036;stroke-width:1.0;stroke-dasharray:7.0,7.0;"/><polygon fill="#A80036" points="220.17,632.5,229.17,636.5,225.17,632.5,229.17,628.5,220.17,632.5" style="stroke:#A80036;stroke-width:1.0;"/><text fill="#000000" font-family="sans-serif" font-size="13" lengthAdjust="spacing" textLength="21" x="238.25" y="625.9951">use</text><!--MD5=[3c11a959d4e6db5cafb286903d65e768]
reverse link API6 to SV--><path d="M215.29,646.67 C222.19,669.08 235,716.15 235,757 C235,757 235,757 235,997 C235,1055 297.33,1086.51 351.87,1102.98 " fill="none" id="API6-backto-SV" style="stroke:#A80036;stroke-width:1.0;stroke-dasharray:7.0,7.0;"/><polygon fill="#A80036" points="213.75,641.78,212.6332,651.5653,215.2495,646.5499,220.265,649.1661,213.75,641.78" style="stroke:#A80036;stroke-width:1.0;"/><text fill="#000000" font-family="sans-serif" font-size="13" lengthAdjust="spacing" textLength="21" x="236" y="884.4951">use</text><!--MD5=[5b3bd9339de92f6e5fefa6e66699411c]
@startuml
'https://plantuml.com/component-diagram
interface "WM API" as api

component "<<component>> <<container (C4)>>\nWarehouse Management\n"{

    portin 1
    package "Frameworks and Drivers Layers" {
        component "<<component>>\nWarehouseUI" as UI
        component "<<component>>\nPersistenceWarehouse" as PRT

    }

    package "Interface Adapters Layer" {
        component "<<component>>\nWarehouseController" as CT
        component "<<component>>\nWarehouseRepository" as RP

    }

    component "<<component>>\nWarehouseDTO" as DTO
    interface "WMController API" as API1
    interface "WMService API" as API2
    interface "Persistence API" as API3
    interface "Warehouse API" as API4
    interface "WM Repository API" as API5
    interface "WarehouseDTO API" as API6

    package "Application Business Rules" {
        component "<<component>>\nWarehouseService" as SV
    }

    package "Enterprise Business Rules" {
        component "<<component>>\nWarehouse" as WH

    }

}

api - - 1
UI -down..> API1 : use
CT -up- API1
SV -up- - API2
CT -down..>API2 : use

PRT -down- API3
RP -up..> API3 : use
WH -up- API4
SV -down..> API4 : use

RP -down-API5
SV -up..> API5 : use
RP -down..> API4 : use

DTO -right- API6
CT -right.> API6 : use
SV -up..> API6 : use


@enduml

@startuml
interface "WM API" as api

component "<<component>> <<container (C4)>>\nWarehouse Management\n"{

    portin 1
    package "Frameworks and Drivers Layers" {
        component "<<component>>\nWarehouseUI" as UI
        component "<<component>>\nPersistenceWarehouse" as PRT

    }

    package "Interface Adapters Layer" {
        component "<<component>>\nWarehouseController" as CT
        component "<<component>>\nWarehouseRepository" as RP

    }

    component "<<component>>\nWarehouseDTO" as DTO
    interface "WMController API" as API1
    interface "WMService API" as API2
    interface "Persistence API" as API3
    interface "Warehouse API" as API4
    interface "WM Repository API" as API5
    interface "WarehouseDTO API" as API6

    package "Application Business Rules" {
        component "<<component>>\nWarehouseService" as SV
    }

    package "Enterprise Business Rules" {
        component "<<component>>\nWarehouse" as WH

    }

}

api - - 1
UI -down..> API1 : use
CT -up- API1
SV -up- - API2
CT -down..>API2 : use

PRT -down- API3
RP -up..> API3 : use
WH -up- API4
SV -down..> API4 : use

RP -down-API5
SV -up..> API5 : use
RP -down..> API4 : use

DTO -right- API6
CT -right.> API6 : use
SV -up..> API6 : use


@enduml

PlantUML version 1.2022.1(Tue Feb 01 18:19:58 GMT 2022)
(GPL source distribution)
Java Runtime: OpenJDK Runtime Environment
JVM: OpenJDK 64-Bit Server VM
Default Encoding: Cp1252
Language: pt
Country: BR
--></g></svg>