<?xml version="1.0" encoding="UTF-8" standalone="no"?><svg xmlns="http://www.w3.org/2000/svg" xmlns:xlink="http://www.w3.org/1999/xlink" contentScriptType="application/ecmascript" contentStyleType="text/css" height="602px" preserveAspectRatio="none" style="width:1607px;height:602px;background:#FFFFFF;" version="1.1" viewBox="0 0 1607 602" width="1607px" zoomAndPan="magnify"><defs><filter height="300%" id="fdov9owvyk0hu" width="300%" x="-1" y="-1"><feGaussianBlur result="blurOut" stdDeviation="2.0"/><feColorMatrix in="blurOut" result="blurOut2" type="matrix" values="0 0 0 0 0 0 0 0 0 0 0 0 0 0 0 0 0 0 .4 0"/><feOffset dx="4.0" dy="4.0" in="blurOut2" result="blurOut3"/><feBlend in="SourceGraphic" in2="blurOut3" mode="normal"/></filter></defs><g><!--MD5=[5aa9a250c3a2dcb5fef3ce713a84af24]
cluster Warehouse Management--><polygon fill="#FFFFFF" filter="url(#fdov9owvyk0hu)" points="16,6,197,6,204,29.6094,1590,29.6094,1590,595,16,595,16,6" style="stroke:#000000;stroke-width:1.5;"/><line style="stroke:#000000;stroke-width:1.5;" x1="16" x2="204" y1="29.6094" y2="29.6094"/><text fill="#000000" font-family="sans-serif" font-size="14" font-weight="bold" lengthAdjust="spacing" textLength="175" x="20" y="22.5332">Warehouse Management</text><!--MD5=[fb9ccc1243333cb7b4e4755ff5f6d2f9]
cluster IF--><polygon fill="#FFFFFF" filter="url(#fdov9owvyk0hu)" points="1209,151,1312,151,1319,174.6094,1566,174.6094,1566,244,1209,244,1209,151" style="stroke:#000000;stroke-width:1.5;"/><line style="stroke:#000000;stroke-width:1.5;" x1="1209" x2="1319" y1="174.6094" y2="174.6094"/><text fill="#000000" font-family="sans-serif" font-size="14" font-weight="bold" lengthAdjust="spacing" textLength="97" x="1213" y="167.5332">Infrastructure</text><!--MD5=[7a0e2afdff0a7ce6f56d84f055480d2c]
cluster ADP--><polygon fill="#FFFFFF" filter="url(#fdov9owvyk0hu)" points="920,353,1056,353,1063,376.6094,1379,376.6094,1379,547,920,547,920,353" style="stroke:#000000;stroke-width:1.5;"/><line style="stroke:#000000;stroke-width:1.5;" x1="920" x2="1063" y1="376.6094" y2="376.6094"/><text fill="#000000" font-family="sans-serif" font-size="14" font-weight="bold" lengthAdjust="spacing" textLength="130" x="924" y="369.5332">Interface Adapters</text><!--MD5=[d49622069896581d394c2cf2b2b21fd8]
cluster SV--><polygon fill="#FFFFFF" filter="url(#fdov9owvyk0hu)" points="896,50,1046,50,1053,73.6094,1185,73.6094,1185,244,896,244,896,50" style="stroke:#000000;stroke-width:1.5;"/><line style="stroke:#000000;stroke-width:1.5;" x1="896" x2="1053" y1="73.6094" y2="73.6094"/><text fill="#000000" font-family="sans-serif" font-size="14" font-weight="bold" lengthAdjust="spacing" textLength="144" x="900" y="66.5332">Application Services</text><!--MD5=[da0ebfe2170ff46381adf01d9e27d23e]
cluster DM--><polygon fill="#FFFFFF" filter="url(#fdov9owvyk0hu)" points="40,151,98,151,105,174.6094,872,174.6094,872,571,40,571,40,151" style="stroke:#000000;stroke-width:1.5;"/><line style="stroke:#000000;stroke-width:1.5;" x1="40" x2="105" y1="174.6094" y2="174.6094"/><text fill="#000000" font-family="sans-serif" font-size="14" font-weight="bold" lengthAdjust="spacing" textLength="52" x="44" y="167.5332">Domain</text><!--MD5=[0d99d65ace22e45511a90a7e65fdb1f1]
cluster Shared--><polygon fill="#FFFFFF" filter="url(#fdov9owvyk0hu)" points="410,454,466,454,473,477.6094,848,477.6094,848,547,410,547,410,454" style="stroke:#000000;stroke-width:1.5;"/><line style="stroke:#000000;stroke-width:1.5;" x1="410" x2="473" y1="477.6094" y2="477.6094"/><text fill="#000000" font-family="sans-serif" font-size="14" font-weight="bold" lengthAdjust="spacing" textLength="50" x="414" y="470.5332">Shared</text><!--MD5=[183c398cc71e485dd3ff1e9121f1d7d7]
entity WarehouseRoute--><polygon fill="#FEFECE" filter="url(#fdov9owvyk0hu)" points="1386,187,1526,187,1533,210.6094,1550,210.6094,1550,227.6094,1386,227.6094,1386,187" style="stroke:#000000;stroke-width:1.5;"/><line style="stroke:#000000;stroke-width:1.5;" x1="1386" x2="1533" y1="210.6094" y2="210.6094"/><text fill="#000000" font-family="sans-serif" font-size="14" font-weight="bold" lengthAdjust="spacing" textLength="122" x="1396" y="204.5332">WarehouseRoute</text><!--MD5=[e7b4ba715b9378c57f39440bbe1913bc]
entity Persistence--><polygon fill="#FEFECE" filter="url(#fdov9owvyk0hu)" points="1225,187,1327,187,1334,210.6094,1351,210.6094,1351,227.6094,1225,227.6094,1225,187" style="stroke:#000000;stroke-width:1.5;"/><line style="stroke:#000000;stroke-width:1.5;" x1="1225" x2="1334" y1="210.6094" y2="210.6094"/><text fill="#000000" font-family="sans-serif" font-size="14" font-weight="bold" lengthAdjust="spacing" textLength="84" x="1235" y="204.5332">Persistence</text><!--MD5=[ee32b16a82e51fd3d2b907d329578518]
entity WarehouseController--><polygon fill="#FEFECE" filter="url(#fdov9owvyk0hu)" points="936.5,389,1105.5,389,1112.5,412.6094,1129.5,412.6094,1129.5,429.6094,936.5,429.6094,936.5,389" style="stroke:#000000;stroke-width:1.5;"/><line style="stroke:#000000;stroke-width:1.5;" x1="936.5" x2="1112.5" y1="412.6094" y2="412.6094"/><text fill="#000000" font-family="sans-serif" font-size="14" font-weight="bold" lengthAdjust="spacing" textLength="151" x="946.5" y="406.5332">WarehouseController</text><!--MD5=[ce922bf3a1bc498551f168618b825ad4]
entity BaseController--><polygon fill="#FEFECE" filter="url(#fdov9owvyk0hu)" points="1087,490,1211,490,1218,513.6094,1235,513.6094,1235,530.6094,1087,530.6094,1087,490" style="stroke:#000000;stroke-width:1.5;"/><line style="stroke:#000000;stroke-width:1.5;" x1="1087" x2="1218" y1="513.6094" y2="513.6094"/><text fill="#000000" font-family="sans-serif" font-size="14" font-weight="bold" lengthAdjust="spacing" textLength="106" x="1097" y="507.5332">BaseController</text><!--MD5=[022c090f87954f5ea490c96918402a5b]
entity WarehouseRepository--><polygon fill="#FEFECE" filter="url(#fdov9owvyk0hu)" points="1165,389,1339,389,1346,412.6094,1363,412.6094,1363,429.6094,1165,429.6094,1165,389" style="stroke:#000000;stroke-width:1.5;"/><line style="stroke:#000000;stroke-width:1.5;" x1="1165" x2="1346" y1="412.6094" y2="412.6094"/><text fill="#000000" font-family="sans-serif" font-size="14" font-weight="bold" lengthAdjust="spacing" textLength="156" x="1175" y="406.5332">WarehouseRepository</text><!--MD5=[168f4c431c79fda92c0f26eb6756219e]
entity WarehouseService--><polygon fill="#FEFECE" filter="url(#fdov9owvyk0hu)" points="912,86,1064,86,1071,109.6094,1088,109.6094,1088,126.6094,912,126.6094,912,86" style="stroke:#000000;stroke-width:1.5;"/><line style="stroke:#000000;stroke-width:1.5;" x1="912" x2="1071" y1="109.6094" y2="109.6094"/><text fill="#000000" font-family="sans-serif" font-size="14" font-weight="bold" lengthAdjust="spacing" textLength="134" x="922" y="103.5332">WarehouseService</text><!--MD5=[6b3035cb4ba8d474fa99dfd80243dbb0]
entity IService--><polygon fill="#FEFECE" filter="url(#fdov9owvyk0hu)" points="912,187,988,187,995,210.6094,1012,210.6094,1012,227.6094,912,227.6094,912,187" style="stroke:#000000;stroke-width:1.5;"/><line style="stroke:#000000;stroke-width:1.5;" x1="912" x2="995" y1="210.6094" y2="210.6094"/><text fill="#000000" font-family="sans-serif" font-size="14" font-weight="bold" lengthAdjust="spacing" textLength="58" x="922" y="204.5332">IService</text><!--MD5=[d8299e5e0613ae77ab0168f886fab789]
entity IRepository--><polygon fill="#FEFECE" filter="url(#fdov9owvyk0hu)" points="1047,187,1145,187,1152,210.6094,1169,210.6094,1169,227.6094,1047,227.6094,1047,187" style="stroke:#000000;stroke-width:1.5;"/><line style="stroke:#000000;stroke-width:1.5;" x1="1047" x2="1152" y1="210.6094" y2="210.6094"/><text fill="#000000" font-family="sans-serif" font-size="14" font-weight="bold" lengthAdjust="spacing" textLength="80" x="1057" y="204.5332">IRepository</text><!--MD5=[b587871a90dba9f2aaab101b92e47432]
entity Warehouse--><polygon fill="#FEFECE" filter="url(#fdov9owvyk0hu)" points="577,187,675,187,682,210.6094,699,210.6094,699,227.6094,577,227.6094,577,187" style="stroke:#000000;stroke-width:1.5;"/><line style="stroke:#000000;stroke-width:1.5;" x1="577" x2="682" y1="210.6094" y2="210.6094"/><text fill="#000000" font-family="sans-serif" font-size="14" font-weight="bold" lengthAdjust="spacing" textLength="80" x="587" y="204.5332">Warehouse</text><!--MD5=[f06635067bc7e7eb7b85eba0827e4143]
entity WarehouseId--><polygon fill="#FEFECE" filter="url(#fdov9owvyk0hu)" points="56.5,288,167.5,288,174.5,311.6094,191.5,311.6094,191.5,328.6094,56.5,328.6094,56.5,288" style="stroke:#000000;stroke-width:1.5;"/><line style="stroke:#000000;stroke-width:1.5;" x1="56.5" x2="174.5" y1="311.6094" y2="311.6094"/><text fill="#000000" font-family="sans-serif" font-size="14" font-weight="bold" lengthAdjust="spacing" textLength="93" x="66.5" y="305.5332">WarehouseId</text><!--MD5=[00823990eac27b2ae94a3bf40de1d0d9]
entity Address--><polygon fill="#FEFECE" filter="url(#fdov9owvyk0hu)" points="227,288,303,288,310,311.6094,327,311.6094,327,328.6094,227,328.6094,227,288" style="stroke:#000000;stroke-width:1.5;"/><line style="stroke:#000000;stroke-width:1.5;" x1="227" x2="310" y1="311.6094" y2="311.6094"/><text fill="#000000" font-family="sans-serif" font-size="14" font-weight="bold" lengthAdjust="spacing" textLength="58" x="237" y="305.5332">Address</text><!--MD5=[e36a124ea88d4a2de59ee76e3e8aa8f9]
entity Altitude--><polygon fill="#FEFECE" filter="url(#fdov9owvyk0hu)" points="362,288,434,288,441,311.6094,458,311.6094,458,328.6094,362,328.6094,362,288" style="stroke:#000000;stroke-width:1.5;"/><line style="stroke:#000000;stroke-width:1.5;" x1="362" x2="441" y1="311.6094" y2="311.6094"/><text fill="#000000" font-family="sans-serif" font-size="14" font-weight="bold" lengthAdjust="spacing" textLength="54" x="372" y="305.5332">Altitude</text><!--MD5=[8b84c71bfca9aaed692d8a1f351b3ffe]
entity Coordinates--><polygon fill="#FEFECE" filter="url(#fdov9owvyk0hu)" points="493,288,597,288,604,311.6094,621,311.6094,621,328.6094,493,328.6094,493,288" style="stroke:#000000;stroke-width:1.5;"/><line style="stroke:#000000;stroke-width:1.5;" x1="493" x2="604" y1="311.6094" y2="311.6094"/><text fill="#000000" font-family="sans-serif" font-size="14" font-weight="bold" lengthAdjust="spacing" textLength="86" x="503" y="305.5332">Coordinates</text><!--MD5=[0c526e5cbe2c2f3475f5378e5b5b65f1]
entity Designation--><polygon fill="#FEFECE" filter="url(#fdov9owvyk0hu)" points="656,288,758,288,765,311.6094,782,311.6094,782,328.6094,656,328.6094,656,288" style="stroke:#000000;stroke-width:1.5;"/><line style="stroke:#000000;stroke-width:1.5;" x1="656" x2="765" y1="311.6094" y2="311.6094"/><text fill="#000000" font-family="sans-serif" font-size="14" font-weight="bold" lengthAdjust="spacing" textLength="84" x="666" y="305.5332">Designation</text><!--MD5=[31dc64b577cd0f0ab19ba60c8523865c]
entity IAggregateRoot--><polygon fill="#FEFECE" filter="url(#fdov9owvyk0hu)" points="559,490,687,490,694,513.6094,711,513.6094,711,530.6094,559,530.6094,559,490" style="stroke:#000000;stroke-width:1.5;"/><line style="stroke:#000000;stroke-width:1.5;" x1="559" x2="694" y1="513.6094" y2="513.6094"/><text fill="#000000" font-family="sans-serif" font-size="14" font-weight="bold" lengthAdjust="spacing" textLength="110" x="569" y="507.5332">IAggregateRoot</text><!--MD5=[8782f0471144d5c6a9c7ee1b77df72d9]
entity IEntity--><polygon fill="#FEFECE" filter="url(#fdov9owvyk0hu)" points="746.5,490,807.5,490,814.5,513.6094,831.5,513.6094,831.5,530.6094,746.5,530.6094,746.5,490" style="stroke:#000000;stroke-width:1.5;"/><line style="stroke:#000000;stroke-width:1.5;" x1="746.5" x2="814.5" y1="513.6094" y2="513.6094"/><text fill="#000000" font-family="sans-serif" font-size="14" font-weight="bold" lengthAdjust="spacing" textLength="43" x="756.5" y="507.5332">IEntity</text><!--MD5=[bbd47a723b4613a9b03820f339a696c9]
entity IEntityId--><polygon fill="#FEFECE" filter="url(#fdov9owvyk0hu)" points="426,490,500,490,507,513.6094,524,513.6094,524,530.6094,426,530.6094,426,490" style="stroke:#000000;stroke-width:1.5;"/><line style="stroke:#000000;stroke-width:1.5;" x1="426" x2="507" y1="513.6094" y2="513.6094"/><text fill="#000000" font-family="sans-serif" font-size="14" font-weight="bold" lengthAdjust="spacing" textLength="56" x="436" y="507.5332">IEntityId</text><!--MD5=[683b4b98d73dabcb953afe1e24496c0d]
link Warehouse to WarehouseId--><path d="M576.74,219.01 C493.36,233.51 339.54,260.94 209,288 C207.5,288.31 205.99,288.63 204.47,288.95 " fill="none" id="Warehouse-to-WarehouseId" style="stroke:#A80036;stroke-width:1.0;"/><polygon fill="#A80036" points="191.68,291.7,198.3892,294.3432,203.4096,289.1667,196.7004,286.5235,191.68,291.7" style="stroke:#A80036;stroke-width:1.0;"/><!--MD5=[f4c22a92bdf6a3fe51395fda33eca7be]
link Warehouse to Coordinates--><path d="M622,228.06 C610.46,242.16 594.67,261.46 581.55,277.5 " fill="none" id="Warehouse-to-Coordinates" style="stroke:#A80036;stroke-width:1.0;"/><polygon fill="#A80036" points="572.97,287.98,579.8653,285.8692,580.5689,278.6925,573.6736,280.8033,572.97,287.98" style="stroke:#A80036;stroke-width:1.0;"/><!--MD5=[8566920427025708a5f3b0b060867253]
link Warehouse to Altitude--><path d="M592.95,228.06 C556.81,243.75 505.85,265.88 466.89,282.8 " fill="none" id="Warehouse-to-Altitude" style="stroke:#A80036;stroke-width:1.0;"/><polygon fill="#A80036" points="454.95,287.98,462.0473,289.2562,465.9551,283.1958,458.8578,281.9195,454.95,287.98" style="stroke:#A80036;stroke-width:1.0;"/><!--MD5=[5c0d70447e3000ef55e5131b73e73d28]
link Warehouse to Designation--><path d="M654,228.06 C665.54,242.16 681.33,261.46 694.45,277.5 " fill="none" id="Warehouse-to-Designation" style="stroke:#A80036;stroke-width:1.0;"/><polygon fill="#A80036" points="703.03,287.98,702.3264,280.8033,695.4311,278.6925,696.1347,285.8692,703.03,287.98" style="stroke:#A80036;stroke-width:1.0;"/><!--MD5=[8426aa805ba1ba7feef327b592f27c94]
link Warehouse to Address--><path d="M576.81,224.68 C517.28,240.51 424.31,265.46 344,288 C342.63,288.38 341.24,288.78 339.85,289.17 " fill="none" id="Warehouse-to-Address" style="stroke:#A80036;stroke-width:1.0;"/><polygon fill="#A80036" points="327.09,292.81,333.9557,295.015,338.6318,289.5255,331.7661,287.3205,327.09,292.81" style="stroke:#A80036;stroke-width:1.0;"/><!--MD5=[babeb531e6a986fb19f373928fb08110]
link Warehouse to IAggregateRoot--><path d="M699.03,221.66 C734.83,232.85 777.2,252.92 799,288 C808.62,303.48 805.57,312 799,329 C775.03,391.03 718.74,444.89 678.81,477.25 " fill="none" id="Warehouse-to-IAggregateRoot" style="stroke:#A80036;stroke-width:1.0;stroke-dasharray:7.0,7.0;"/><polygon fill="none" points="682.9,482.94,662.84,489.77,674.27,471.92,682.9,482.94" style="stroke:#A80036;stroke-width:1.0;"/><!--MD5=[de42e21c1e840b2ea95e1e841802dbed]
link Warehouse to IEntity--><path d="M699.03,219.02 C738.6,229.35 787.22,249.44 812,288 C847.86,343.82 825.31,424.33 806.54,471.35 " fill="none" id="Warehouse-to-IEntity" style="stroke:#A80036;stroke-width:1.0;stroke-dasharray:7.0,7.0;"/><polygon fill="none" points="812.95,474.19,798.66,489.84,800.07,468.69,812.95,474.19" style="stroke:#A80036;stroke-width:1.0;"/><!--MD5=[47efdb4c22d80de995a6cf09bfdf6394]
link WarehouseId to IEntityId--><path d="M158.29,329.04 C220.02,364.21 350.17,438.37 422.95,479.84 " fill="none" id="WarehouseId-to-IEntityId" style="stroke:#A80036;stroke-width:1.0;stroke-dasharray:7.0,7.0;"/><polygon fill="none" points="426.65,473.9,440.57,489.88,419.72,486.06,426.65,473.9" style="stroke:#A80036;stroke-width:1.0;"/><!--MD5=[0238c74712d15525c9d4b35f64d7d69a]
link WarehouseService to IService--><path d="M992.49,127.06 C988.02,138.72 982.18,153.93 976.81,167.92 " fill="none" id="WarehouseService-to-IService" style="stroke:#A80036;stroke-width:1.0;stroke-dasharray:7.0,7.0;"/><polygon fill="none" points="983.19,170.82,969.49,186.98,970.12,165.8,983.19,170.82" style="stroke:#A80036;stroke-width:1.0;"/><!--MD5=[c9c0ffd847c40c36df4f6d2da5dd9a2b]
link WarehouseService to IRepository--><path d="M1021.34,127.06 C1038.94,143.19 1063.96,166.13 1082.59,183.21 " fill="none" id="WarehouseService-to-IRepository" style="stroke:#A80036;stroke-width:1.0;stroke-dasharray:7.0,7.0;"/><polygon fill="#A80036" points="1086.71,186.98,1082.769,177.954,1083.0207,183.6053,1077.3694,183.8569,1086.71,186.98" style="stroke:#A80036;stroke-width:1.0;"/><!--MD5=[fbd2bf4b90cce69cf0c5b45ba4c9cfdb]
link WarehouseService to Warehouse--><path d="M928.48,127.06 C863.21,144.91 767.53,171.08 704.04,188.44 " fill="none" id="WarehouseService-to-Warehouse" style="stroke:#A80036;stroke-width:1.0;stroke-dasharray:7.0,7.0;"/><polygon fill="#A80036" points="699.14,189.78,708.8787,191.2491,703.9608,188.4536,706.7564,183.5357,699.14,189.78" style="stroke:#A80036;stroke-width:1.0;"/><!--MD5=[980e13d87ab1f6e88d198f987abb6079]
link WarehouseRepository to IRepository--><path d="M1248.7,388.88 C1222.5,355.29 1168.7,286.33 1135.75,244.08 " fill="none" id="WarehouseRepository-to-IRepository" style="stroke:#A80036;stroke-width:1.0;stroke-dasharray:7.0,7.0;"/><polygon fill="none" points="1130.02,248.12,1123.24,228.04,1141.06,239.51,1130.02,248.12" style="stroke:#A80036;stroke-width:1.0;"/><!--MD5=[7fa3cc1d809f2bf1ee7b341ae8d0bf5e]
reverse link IService to WarehouseController--><path d="M970.77,233.22 C985.05,273.44 1013.02,352.23 1026.03,388.88 " fill="none" id="IService-backto-WarehouseController" style="stroke:#A80036;stroke-width:1.0;stroke-dasharray:7.0,7.0;"/><polygon fill="#A80036" points="968.94,228.04,968.1774,237.8593,970.6108,232.7526,975.7175,235.186,968.94,228.04" style="stroke:#A80036;stroke-width:1.0;"/><!--MD5=[3ff2a8f5463f921021d8bf8ba6d9aada]
link WarehouseController to BaseController--><path d="M1058.29,430.06 C1075.82,443.62 1099.56,461.98 1119.8,477.63 " fill="none" id="WarehouseController-to-BaseController" style="stroke:#A80036;stroke-width:1.0;stroke-dasharray:7.0,7.0;"/><polygon fill="none" points="1124.23,472.21,1135.76,489.98,1115.66,483.28,1124.23,472.21" style="stroke:#A80036;stroke-width:1.0;"/><!--MD5=[dc470e4ce918dc85ebc77bf35787848c]
reverse link Persistence to WarehouseRepository--><path d="M1285.03,233.22 C1280.21,273.44 1270.75,352.23 1266.35,388.88 " fill="none" id="Persistence-backto-WarehouseRepository" style="stroke:#A80036;stroke-width:1.0;stroke-dasharray:7.0,7.0;"/><polygon fill="#A80036" points="1285.66,228.04,1280.6344,236.5102,1285.075,233.0057,1288.5795,237.4462,1285.66,228.04" style="stroke:#A80036;stroke-width:1.0;"/><!--MD5=[22a200962ee550e3135b8559c2347b4a]
link WarehouseRoute to BaseController--><path d="M1465.75,228.03 C1459.81,270.63 1439.93,372.67 1381,430 C1342.94,467.02 1286.38,486.97 1240.14,497.62 " fill="none" id="WarehouseRoute-to-BaseController" style="stroke:#A80036;stroke-width:1.0;stroke-dasharray:7.0,7.0;"/><polygon fill="#A80036" points="1235.13,498.75,1244.7888,500.6755,1240.0079,497.6518,1243.0316,492.8709,1235.13,498.75" style="stroke:#A80036;stroke-width:1.0;"/><!--MD5=[3501230edf13bfe2e8b15c81162ec110]
@startuml
'https://plantuml.com/component-diagram

 package "Warehouse Management"{
    package "Infrastructure" as IF{
        package WarehouseRoute
        package Persistence
    }

    package "Interface Adapters" as ADP {
        package WarehouseController
        package BaseController
        package WarehouseRepository
    }

    package "Application Services" as SV {
        package WarehouseService
        package IService
        package IRepository


    }
    package "Domain" as DM {

        package Shared{
            package IAggregateRoot
            package IEntity
            package IEntityId
        }
        package Warehouse
        package WarehouseId
        package Address
        package Altitude
        package Coordinates
        package Designation
    }
 }

Warehouse - -* WarehouseId
Warehouse - -* Coordinates
Warehouse - -* Altitude
Warehouse - -* Designation
Warehouse - -* Address

Warehouse ....|> IAggregateRoot
Warehouse ....|> IEntity
WarehouseId ..|> IEntityId

WarehouseService ..|> IService
WarehouseService ..> IRepository

WarehouseService -down.> Warehouse

WarehouseRepository ..|> IRepository

WarehouseController -up..> IService
WarehouseController ..|> BaseController

WarehouseRepository -up..> Persistence

WarehouseRoute ..> BaseController


@enduml

@startuml

 package "Warehouse Management"{
    package "Infrastructure" as IF{
        package WarehouseRoute
        package Persistence
    }

    package "Interface Adapters" as ADP {
        package WarehouseController
        package BaseController
        package WarehouseRepository
    }

    package "Application Services" as SV {
        package WarehouseService
        package IService
        package IRepository


    }
    package "Domain" as DM {

        package Shared{
            package IAggregateRoot
            package IEntity
            package IEntityId
        }
        package Warehouse
        package WarehouseId
        package Address
        package Altitude
        package Coordinates
        package Designation
    }
 }

Warehouse - -* WarehouseId
Warehouse - -* Coordinates
Warehouse - -* Altitude
Warehouse - -* Designation
Warehouse - -* Address

Warehouse ....|> IAggregateRoot
Warehouse ....|> IEntity
WarehouseId ..|> IEntityId

WarehouseService ..|> IService
WarehouseService ..> IRepository

WarehouseService -down.> Warehouse

WarehouseRepository ..|> IRepository

WarehouseController -up..> IService
WarehouseController ..|> BaseController

WarehouseRepository -up..> Persistence

WarehouseRoute ..> BaseController


@enduml

PlantUML version 1.2022.1(Tue Feb 01 18:19:58 GMT 2022)
(GPL source distribution)
Java Runtime: OpenJDK Runtime Environment
JVM: OpenJDK 64-Bit Server VM
Default Encoding: Cp1252
Language: pt
Country: BR
--></g></svg>