<?xml version="1.0" encoding="UTF-8" standalone="no"?><svg xmlns="http://www.w3.org/2000/svg" xmlns:xlink="http://www.w3.org/1999/xlink" contentStyleType="text/css" height="1420px" preserveAspectRatio="none" style="width:2409px;height:1420px;background:#FFFFFF;" version="1.1" viewBox="0 0 2409 1420" width="2409px" zoomAndPan="magnify"><defs/><g><rect fill="#FFFFE0" height="1408.0078" style="stroke:#181818;stroke-width:0.5;" width="430" x="298" y="6"/><text fill="#000000" font-family="sans-serif" font-size="13" font-weight="bold" lengthAdjust="spacing" textLength="118" x="454" y="17.7686">&lt;&lt;Container(C4)&gt;&gt;</text><text fill="#000000" font-family="sans-serif" font-size="13" font-weight="bold" lengthAdjust="spacing" textLength="13" x="482" y="32.292">UI</text><rect fill="#ADD8E6" height="1408.0078" style="stroke:#181818;stroke-width:0.5;" width="157" x="828" y="6"/><text fill="#000000" font-family="sans-serif" font-size="13" font-weight="bold" lengthAdjust="spacing" textLength="118" x="847.5" y="17.7686">&lt;&lt;Container(C4)&gt;&gt;</text><text fill="#000000" font-family="sans-serif" font-size="13" font-weight="bold" lengthAdjust="spacing" textLength="29" x="875.5" y="32.292">Auth</text><rect fill="#90EE90" height="1408.0078" style="stroke:#181818;stroke-width:0.5;" width="1288.5" x="1108" y="6"/><text fill="#000000" font-family="sans-serif" font-size="13" font-weight="bold" lengthAdjust="spacing" textLength="118" x="1664.75" y="17.7686">&lt;&lt;Container(C4)&gt;&gt;</text><text fill="#000000" font-family="sans-serif" font-size="13" font-weight="bold" lengthAdjust="spacing" textLength="159" x="1680.75" y="32.292">Warehouse Management</text><rect fill="#FFFFFF" height="28.5234" style="stroke:#181818;stroke-width:1.0;" width="10" x="398.5" y="115.8516"/><rect fill="#FFFFFF" height="538.4219" style="stroke:#181818;stroke-width:1.0;" width="10" x="398.5" y="172.8984"/><rect fill="#FFFFFF" height="28.5234" style="stroke:#181818;stroke-width:1.0;" width="10" x="398.5" y="1010.8438"/><rect fill="#FFFFFF" height="28.5234" style="stroke:#181818;stroke-width:1.0;" width="10" x="398.5" y="1281.8438"/><rect fill="#FFFFFF" height="85.5703" style="stroke:#181818;stroke-width:1.0;" width="10" x="630.5" y="201.4219"/><rect fill="#FFFFFF" height="28.5234" style="stroke:#181818;stroke-width:1.0;" width="10" x="630.5" y="654.2734"/><rect fill="#FFFFFF" height="28.5234" style="stroke:#181818;stroke-width:1.0;" width="10" x="630.5" y="982.3203"/><rect fill="#FFFFFF" height="28.5234" style="stroke:#181818;stroke-width:1.0;" width="10" x="630.5" y="1253.3203"/><rect fill="#FFFFFF" height="57.0469" style="stroke:#181818;stroke-width:1.0;" width="10" x="901.5" y="229.9453"/><rect fill="#FFFFFF" height="57.0469" style="stroke:#181818;stroke-width:1.0;" width="10" x="901.5" y="625.75"/><rect fill="#FFFFFF" height="57.0469" style="stroke:#181818;stroke-width:1.0;" width="10" x="901.5" y="953.7969"/><rect fill="#FFFFFF" height="57.0469" style="stroke:#181818;stroke-width:1.0;" width="10" x="901.5" y="1224.7969"/><rect fill="#FFFFFF" height="28.5234" style="stroke:#181818;stroke-width:1.0;" width="10" x="1172.5" y="258.4688"/><rect fill="#FFFFFF" height="115.5703" style="stroke:#181818;stroke-width:1.0;" width="10" x="1172.5" y="567.2266"/><rect fill="#FFFFFF" height="85.5703" style="stroke:#181818;stroke-width:1.0;" width="10" x="1172.5" y="925.2734"/><rect fill="#FFFFFF" height="85.5703" style="stroke:#181818;stroke-width:1.0;" width="10" x="1172.5" y="1196.2734"/><rect fill="#FFFFFF" height="310.2344" style="stroke:#181818;stroke-width:1.0;" width="10" x="1414.5" y="286.9922"/><rect fill="#FFFFFF" height="213.9531" style="stroke:#181818;stroke-width:1.0;" width="10" x="1414.5" y="711.3203"/><rect fill="#FFFFFF" height="156.9063" style="stroke:#181818;stroke-width:1.0;" width="10" x="1414.5" y="1039.3672"/><rect fill="#FFFFFF" height="199.6641" style="stroke:#181818;stroke-width:1.0;" width="10" x="1661.5" y="339.0391"/><rect fill="#FFFFFF" height="142.6172" style="stroke:#181818;stroke-width:1.0;" width="10" x="1661.5" y="754.1328"/><rect fill="#FFFFFF" height="85.5703" style="stroke:#181818;stroke-width:1.0;" width="10" x="1661.5" y="1082.1797"/><rect fill="#FFFFFF" height="28.5234" style="stroke:#181818;stroke-width:1.0;" width="10" x="1908.5" y="367.5625"/><rect fill="#FFFFFF" height="28.5234" style="stroke:#181818;stroke-width:1.0;" width="10" x="1908.5" y="481.6563"/><rect fill="#FFFFFF" height="28.5234" style="stroke:#181818;stroke-width:1.0;" width="10" x="1908.5" y="782.6563"/><rect fill="#FFFFFF" height="28.5234" style="stroke:#181818;stroke-width:1.0;" width="10" x="1908.5" y="1110.7031"/><rect fill="#FFFFFF" height="28.5234" style="stroke:#181818;stroke-width:1.0;" width="10" x="2310" y="424.6094"/><rect fill="#FFFFFF" height="28.5234" style="stroke:#181818;stroke-width:1.0;" width="10" x="2310" y="839.7031"/><rect fill="none" height="1016.375" style="stroke:#000000;stroke-width:1.5;" width="2392.5" x="10" y="301.9922"/><line style="stroke:#181818;stroke-width:0.5;stroke-dasharray:5.0,5.0;" x1="89" x2="89" y1="85.3281" y2="1335.3672"/><line style="stroke:#181818;stroke-width:0.5;stroke-dasharray:5.0,5.0;" x1="403" x2="403" y1="85.3281" y2="1335.3672"/><line style="stroke:#181818;stroke-width:0.5;stroke-dasharray:5.0,5.0;" x1="635" x2="635" y1="85.3281" y2="1335.3672"/><line style="stroke:#181818;stroke-width:0.5;stroke-dasharray:5.0,5.0;" x1="906" x2="906" y1="85.3281" y2="1335.3672"/><line style="stroke:#181818;stroke-width:0.5;stroke-dasharray:5.0,5.0;" x1="1177" x2="1177" y1="85.3281" y2="1335.3672"/><line style="stroke:#181818;stroke-width:0.5;stroke-dasharray:5.0,5.0;" x1="1419" x2="1419" y1="85.3281" y2="1335.3672"/><line style="stroke:#181818;stroke-width:0.5;stroke-dasharray:5.0,5.0;" x1="1666.5" x2="1666.5" y1="85.3281" y2="1335.3672"/><line style="stroke:#181818;stroke-width:0.5;stroke-dasharray:5.0,5.0;" x1="1913.5" x2="1913.5" y1="85.3281" y2="1335.3672"/><line style="stroke:#181818;stroke-width:0.5;stroke-dasharray:5.0,5.0;" x1="2117.5" x2="2117.5" y1="85.3281" y2="1335.3672"/><line style="stroke:#181818;stroke-width:0.5;stroke-dasharray:5.0,5.0;" x1="2314.5" x2="2314.5" y1="85.3281" y2="1335.3672"/><text fill="#000000" font-family="sans-serif" font-size="14" lengthAdjust="spacing" textLength="133" x="20" y="82.3613">Warehouse Manager</text><ellipse cx="89.5" cy="18.1875" fill="#E2E2F0" rx="8" ry="8" style="stroke:#181818;stroke-width:0.5;"/><path d="M89.5,26.1875 L89.5,53.1875 M76.5,34.1875 L102.5,34.1875 M89.5,53.1875 L76.5,68.1875 M89.5,53.1875 L102.5,68.1875 " fill="none" style="stroke:#181818;stroke-width:0.5;"/><text fill="#000000" font-family="sans-serif" font-size="14" lengthAdjust="spacing" textLength="133" x="20" y="1347.041">Warehouse Manager</text><ellipse cx="89.5" cy="1358.5078" fill="#E2E2F0" rx="8" ry="8" style="stroke:#181818;stroke-width:0.5;"/><path d="M89.5,1366.5078 L89.5,1393.5078 M76.5,1374.5078 L102.5,1374.5078 M89.5,1393.5078 L76.5,1408.5078 M89.5,1393.5078 L102.5,1408.5078 " fill="none" style="stroke:#181818;stroke-width:0.5;"/><rect fill="#E2E2F0" height="45.2813" rx="2.5" ry="2.5" style="stroke:#181818;stroke-width:0.5;" width="203" x="302" y="39.0469"/><text fill="#000000" font-family="sans-serif" font-size="14" font-style="italic" lengthAdjust="spacing" textLength="106" x="350.5" y="58.7207">«Container(C4)»</text><text fill="#000000" font-family="sans-serif" font-size="14" lengthAdjust="spacing" textLength="189" x="309" y="74.3613">CreateWarehouseComponent</text><rect fill="#E2E2F0" height="45.2813" rx="2.5" ry="2.5" style="stroke:#181818;stroke-width:0.5;" width="203" x="302" y="1334.3672"/><text fill="#000000" font-family="sans-serif" font-size="14" font-style="italic" lengthAdjust="spacing" textLength="106" x="350.5" y="1354.041">«Container(C4)»</text><text fill="#000000" font-family="sans-serif" font-size="14" lengthAdjust="spacing" textLength="189" x="309" y="1369.6816">CreateWarehouseComponent</text><rect fill="#E2E2F0" height="45.2813" rx="2.5" ry="2.5" style="stroke:#181818;stroke-width:0.5;" width="177" x="547" y="39.0469"/><text fill="#000000" font-family="sans-serif" font-size="14" font-style="italic" lengthAdjust="spacing" textLength="106" x="582.5" y="58.7207">«Container(C4)»</text><text fill="#000000" font-family="sans-serif" font-size="14" lengthAdjust="spacing" textLength="163" x="554" y="74.3613">CreateWarehouseService</text><rect fill="#E2E2F0" height="45.2813" rx="2.5" ry="2.5" style="stroke:#181818;stroke-width:0.5;" width="177" x="547" y="1334.3672"/><text fill="#000000" font-family="sans-serif" font-size="14" font-style="italic" lengthAdjust="spacing" textLength="106" x="582.5" y="1354.041">«Container(C4)»</text><text fill="#000000" font-family="sans-serif" font-size="14" lengthAdjust="spacing" textLength="163" x="554" y="1369.6816">CreateWarehouseService</text><rect fill="#E2E2F0" height="45.2813" rx="2.5" ry="2.5" style="stroke:#181818;stroke-width:0.5;" width="149" x="832" y="39.0469"/><text fill="#000000" font-family="sans-serif" font-size="14" font-style="italic" lengthAdjust="spacing" textLength="106" x="853.5" y="58.7207">«Container(C4)»</text><text fill="#000000" font-family="sans-serif" font-size="14" lengthAdjust="spacing" textLength="135" x="839" y="74.3613">WarehouseController</text><rect fill="#E2E2F0" height="45.2813" rx="2.5" ry="2.5" style="stroke:#181818;stroke-width:0.5;" width="149" x="832" y="1334.3672"/><text fill="#000000" font-family="sans-serif" font-size="14" font-style="italic" lengthAdjust="spacing" textLength="106" x="853.5" y="1354.041">«Container(C4)»</text><text fill="#000000" font-family="sans-serif" font-size="14" lengthAdjust="spacing" textLength="135" x="839" y="1369.6816">WarehouseController</text><rect fill="#E2E2F0" height="45.2813" rx="2.5" ry="2.5" style="stroke:#181818;stroke-width:0.5;" width="131" x="1112" y="39.0469"/><text fill="#000000" font-family="sans-serif" font-size="14" font-style="italic" lengthAdjust="spacing" textLength="117" x="1119" y="58.7207">«Component(C4)»</text><text fill="#000000" font-family="sans-serif" font-size="14" lengthAdjust="spacing" textLength="111" x="1122" y="74.3613">WarehouseRoute</text><rect fill="#E2E2F0" height="45.2813" rx="2.5" ry="2.5" style="stroke:#181818;stroke-width:0.5;" width="131" x="1112" y="1334.3672"/><text fill="#000000" font-family="sans-serif" font-size="14" font-style="italic" lengthAdjust="spacing" textLength="117" x="1119" y="1354.041">«Component(C4)»</text><text fill="#000000" font-family="sans-serif" font-size="14" lengthAdjust="spacing" textLength="111" x="1122" y="1369.6816">WarehouseRoute</text><rect fill="#E2E2F0" height="45.2813" rx="2.5" ry="2.5" style="stroke:#181818;stroke-width:0.5;" width="149" x="1345" y="39.0469"/><text fill="#000000" font-family="sans-serif" font-size="14" font-style="italic" lengthAdjust="spacing" textLength="117" x="1361" y="58.7207">«Component(C4)»</text><text fill="#000000" font-family="sans-serif" font-size="14" lengthAdjust="spacing" textLength="135" x="1352" y="74.3613">WarehouseController</text><rect fill="#E2E2F0" height="45.2813" rx="2.5" ry="2.5" style="stroke:#181818;stroke-width:0.5;" width="149" x="1345" y="1334.3672"/><text fill="#000000" font-family="sans-serif" font-size="14" font-style="italic" lengthAdjust="spacing" textLength="117" x="1361" y="1354.041">«Component(C4)»</text><text fill="#000000" font-family="sans-serif" font-size="14" lengthAdjust="spacing" textLength="135" x="1352" y="1369.6816">WarehouseController</text><rect fill="#E2E2F0" height="45.2813" rx="2.5" ry="2.5" style="stroke:#181818;stroke-width:0.5;" width="134" x="1599.5" y="39.0469"/><text fill="#000000" font-family="sans-serif" font-size="14" font-style="italic" lengthAdjust="spacing" textLength="117" x="1608" y="58.7207">«Component(C4)»</text><text fill="#000000" font-family="sans-serif" font-size="14" lengthAdjust="spacing" textLength="120" x="1606.5" y="74.3613">WarehouseService</text><rect fill="#E2E2F0" height="45.2813" rx="2.5" ry="2.5" style="stroke:#181818;stroke-width:0.5;" width="134" x="1599.5" y="1334.3672"/><text fill="#000000" font-family="sans-serif" font-size="14" font-style="italic" lengthAdjust="spacing" textLength="117" x="1608" y="1354.041">«Component(C4)»</text><text fill="#000000" font-family="sans-serif" font-size="14" lengthAdjust="spacing" textLength="120" x="1606.5" y="1369.6816">WarehouseService</text><rect fill="#E2E2F0" height="45.2813" rx="2.5" ry="2.5" style="stroke:#181818;stroke-width:0.5;" width="168" x="1829.5" y="39.0469"/><text fill="#000000" font-family="sans-serif" font-size="14" font-style="italic" lengthAdjust="spacing" textLength="117" x="1855" y="58.7207">«Component(C4)»</text><text fill="#000000" font-family="sans-serif" font-size="14" lengthAdjust="spacing" textLength="154" x="1836.5" y="74.3613">warehouse : Warehouse</text><rect fill="#E2E2F0" height="45.2813" rx="2.5" ry="2.5" style="stroke:#181818;stroke-width:0.5;" width="168" x="1829.5" y="1334.3672"/><text fill="#000000" font-family="sans-serif" font-size="14" font-style="italic" lengthAdjust="spacing" textLength="117" x="1855" y="1354.041">«Component(C4)»</text><text fill="#000000" font-family="sans-serif" font-size="14" lengthAdjust="spacing" textLength="154" x="1836.5" y="1369.6816">warehouse : Warehouse</text><rect fill="#E2E2F0" height="45.2813" rx="2.5" ry="2.5" style="stroke:#181818;stroke-width:0.5;" width="220" x="2007.5" y="39.0469"/><text fill="#000000" font-family="sans-serif" font-size="14" font-style="italic" lengthAdjust="spacing" textLength="117" x="2059" y="58.7207">«Component(C4)»</text><text fill="#000000" font-family="sans-serif" font-size="14" lengthAdjust="spacing" textLength="206" x="2014.5" y="74.3613">warehouseDto : WarehouseDTO</text><rect fill="#E2E2F0" height="45.2813" rx="2.5" ry="2.5" style="stroke:#181818;stroke-width:0.5;" width="220" x="2007.5" y="1334.3672"/><text fill="#000000" font-family="sans-serif" font-size="14" font-style="italic" lengthAdjust="spacing" textLength="117" x="2059" y="1354.041">«Component(C4)»</text><text fill="#000000" font-family="sans-serif" font-size="14" lengthAdjust="spacing" textLength="206" x="2014.5" y="1369.6816">warehouseDto : WarehouseDTO</text><rect fill="#E2E2F0" height="45.2813" rx="2.5" ry="2.5" style="stroke:#181818;stroke-width:0.5;" width="155" x="2237.5" y="39.0469"/><text fill="#000000" font-family="sans-serif" font-size="14" font-style="italic" lengthAdjust="spacing" textLength="117" x="2256.5" y="58.7207">«Component(C4)»</text><text fill="#000000" font-family="sans-serif" font-size="14" lengthAdjust="spacing" textLength="141" x="2244.5" y="74.3613">WarehouseRepository</text><rect fill="#E2E2F0" height="45.2813" rx="2.5" ry="2.5" style="stroke:#181818;stroke-width:0.5;" width="155" x="2237.5" y="1334.3672"/><text fill="#000000" font-family="sans-serif" font-size="14" font-style="italic" lengthAdjust="spacing" textLength="117" x="2256.5" y="1354.041">«Component(C4)»</text><text fill="#000000" font-family="sans-serif" font-size="14" lengthAdjust="spacing" textLength="141" x="2244.5" y="1369.6816">WarehouseRepository</text><rect fill="#FFFFFF" height="28.5234" style="stroke:#181818;stroke-width:1.0;" width="10" x="398.5" y="115.8516"/><rect fill="#FFFFFF" height="538.4219" style="stroke:#181818;stroke-width:1.0;" width="10" x="398.5" y="172.8984"/><rect fill="#FFFFFF" height="28.5234" style="stroke:#181818;stroke-width:1.0;" width="10" x="398.5" y="1010.8438"/><rect fill="#FFFFFF" height="28.5234" style="stroke:#181818;stroke-width:1.0;" width="10" x="398.5" y="1281.8438"/><rect fill="#FFFFFF" height="85.5703" style="stroke:#181818;stroke-width:1.0;" width="10" x="630.5" y="201.4219"/><rect fill="#FFFFFF" height="28.5234" style="stroke:#181818;stroke-width:1.0;" width="10" x="630.5" y="654.2734"/><rect fill="#FFFFFF" height="28.5234" style="stroke:#181818;stroke-width:1.0;" width="10" x="630.5" y="982.3203"/><rect fill="#FFFFFF" height="28.5234" style="stroke:#181818;stroke-width:1.0;" width="10" x="630.5" y="1253.3203"/><rect fill="#FFFFFF" height="57.0469" style="stroke:#181818;stroke-width:1.0;" width="10" x="901.5" y="229.9453"/><rect fill="#FFFFFF" height="57.0469" style="stroke:#181818;stroke-width:1.0;" width="10" x="901.5" y="625.75"/><rect fill="#FFFFFF" height="57.0469" style="stroke:#181818;stroke-width:1.0;" width="10" x="901.5" y="953.7969"/><rect fill="#FFFFFF" height="57.0469" style="stroke:#181818;stroke-width:1.0;" width="10" x="901.5" y="1224.7969"/><rect fill="#FFFFFF" height="28.5234" style="stroke:#181818;stroke-width:1.0;" width="10" x="1172.5" y="258.4688"/><rect fill="#FFFFFF" height="115.5703" style="stroke:#181818;stroke-width:1.0;" width="10" x="1172.5" y="567.2266"/><rect fill="#FFFFFF" height="85.5703" style="stroke:#181818;stroke-width:1.0;" width="10" x="1172.5" y="925.2734"/><rect fill="#FFFFFF" height="85.5703" style="stroke:#181818;stroke-width:1.0;" width="10" x="1172.5" y="1196.2734"/><rect fill="#FFFFFF" height="310.2344" style="stroke:#181818;stroke-width:1.0;" width="10" x="1414.5" y="286.9922"/><rect fill="#FFFFFF" height="213.9531" style="stroke:#181818;stroke-width:1.0;" width="10" x="1414.5" y="711.3203"/><rect fill="#FFFFFF" height="156.9063" style="stroke:#181818;stroke-width:1.0;" width="10" x="1414.5" y="1039.3672"/><rect fill="#FFFFFF" height="199.6641" style="stroke:#181818;stroke-width:1.0;" width="10" x="1661.5" y="339.0391"/><rect fill="#FFFFFF" height="142.6172" style="stroke:#181818;stroke-width:1.0;" width="10" x="1661.5" y="754.1328"/><rect fill="#FFFFFF" height="85.5703" style="stroke:#181818;stroke-width:1.0;" width="10" x="1661.5" y="1082.1797"/><rect fill="#FFFFFF" height="28.5234" style="stroke:#181818;stroke-width:1.0;" width="10" x="1908.5" y="367.5625"/><rect fill="#FFFFFF" height="28.5234" style="stroke:#181818;stroke-width:1.0;" width="10" x="1908.5" y="481.6563"/><rect fill="#FFFFFF" height="28.5234" style="stroke:#181818;stroke-width:1.0;" width="10" x="1908.5" y="782.6563"/><rect fill="#FFFFFF" height="28.5234" style="stroke:#181818;stroke-width:1.0;" width="10" x="1908.5" y="1110.7031"/><rect fill="#FFFFFF" height="28.5234" style="stroke:#181818;stroke-width:1.0;" width="10" x="2310" y="424.6094"/><rect fill="#FFFFFF" height="28.5234" style="stroke:#181818;stroke-width:1.0;" width="10" x="2310" y="839.7031"/><polygon fill="#181818" points="386.5,111.8516,396.5,115.8516,386.5,119.8516,390.5,115.8516" style="stroke:#181818;stroke-width:1.0;"/><line style="stroke:#181818;stroke-width:1.0;" x1="89.5" x2="392.5" y1="115.8516" y2="115.8516"/><text fill="#000000" font-family="sans-serif" font-size="13" font-weight="bold" lengthAdjust="spacing" textLength="7" x="96.5" y="111.0967">1</text><text fill="#000000" font-family="sans-serif" font-size="13" lengthAdjust="spacing" textLength="193" x="107.5" y="111.0967">I want to create a new warehouse</text><polygon fill="#181818" points="100.5,140.375,90.5,144.375,100.5,148.375,96.5,144.375" style="stroke:#181818;stroke-width:1.0;"/><line style="stroke:#181818;stroke-width:1.0;" x1="94.5" x2="402.5" y1="144.375" y2="144.375"/><text fill="#000000" font-family="sans-serif" font-size="13" font-weight="bold" lengthAdjust="spacing" textLength="7" x="106.5" y="139.6201">2</text><text fill="#000000" font-family="sans-serif" font-size="13" lengthAdjust="spacing" textLength="243" x="117.5" y="139.6201">asks for the details on the new warehouse</text><polygon fill="#181818" points="386.5,168.8984,396.5,172.8984,386.5,176.8984,390.5,172.8984" style="stroke:#181818;stroke-width:1.0;"/><line style="stroke:#181818;stroke-width:1.0;" x1="89.5" x2="392.5" y1="172.8984" y2="172.8984"/><text fill="#000000" font-family="sans-serif" font-size="13" font-weight="bold" lengthAdjust="spacing" textLength="7" x="96.5" y="168.1436">3</text><text fill="#000000" font-family="sans-serif" font-size="13" lengthAdjust="spacing" textLength="279" x="107.5" y="168.1436">inserts the information about the new warehouse</text><polygon fill="#181818" points="618.5,197.4219,628.5,201.4219,618.5,205.4219,622.5,201.4219" style="stroke:#181818;stroke-width:1.0;"/><line style="stroke:#181818;stroke-width:1.0;" x1="408.5" x2="624.5" y1="201.4219" y2="201.4219"/><text fill="#000000" font-family="sans-serif" font-size="13" font-weight="bold" lengthAdjust="spacing" textLength="7" x="415.5" y="196.667">4</text><text fill="#000000" font-family="sans-serif" font-size="13" lengthAdjust="spacing" textLength="192" x="426.5" y="196.667">createWarehouse(warehouseDto)</text><polygon fill="#181818" points="889.5,225.9453,899.5,229.9453,889.5,233.9453,893.5,229.9453" style="stroke:#181818;stroke-width:1.0;"/><line style="stroke:#181818;stroke-width:1.0;" x1="640.5" x2="895.5" y1="229.9453" y2="229.9453"/><text fill="#000000" font-family="sans-serif" font-size="13" font-weight="bold" lengthAdjust="spacing" textLength="7" x="647.5" y="225.1904">5</text><text fill="#000000" font-family="sans-serif" font-size="13" lengthAdjust="spacing" textLength="231" x="658.5" y="225.1904">POST createWarehouse(warehouseDto)</text><polygon fill="#181818" points="1160.5,254.4688,1170.5,258.4688,1160.5,262.4688,1164.5,258.4688" style="stroke:#181818;stroke-width:1.0;"/><line style="stroke:#181818;stroke-width:1.0;" x1="911.5" x2="1166.5" y1="258.4688" y2="258.4688"/><text fill="#000000" font-family="sans-serif" font-size="13" font-weight="bold" lengthAdjust="spacing" textLength="7" x="918.5" y="253.7139">6</text><text fill="#000000" font-family="sans-serif" font-size="13" lengthAdjust="spacing" textLength="231" x="929.5" y="253.7139">POST createWarehouse(warehouseDto)</text><polygon fill="#181818" points="1402.5,282.9922,1412.5,286.9922,1402.5,290.9922,1406.5,286.9922" style="stroke:#181818;stroke-width:1.0;"/><line style="stroke:#181818;stroke-width:1.0;" x1="1177.5" x2="1408.5" y1="286.9922" y2="286.9922"/><text fill="#000000" font-family="sans-serif" font-size="13" font-weight="bold" lengthAdjust="spacing" textLength="7" x="1184.5" y="282.2373">7</text><text fill="#000000" font-family="sans-serif" font-size="13" lengthAdjust="spacing" textLength="194" x="1195.5" y="282.2373">CreateWarehouse(warehouseDto)</text><path d="M10,301.9922 L71,301.9922 L71,308.5156 L61,318.5156 L10,318.5156 L10,301.9922 " fill="#EEEEEE" style="stroke:#000000;stroke-width:1.5;"/><rect fill="none" height="1016.375" style="stroke:#000000;stroke-width:1.5;" width="2392.5" x="10" y="301.9922"/><text fill="#000000" font-family="sans-serif" font-size="13" font-weight="bold" lengthAdjust="spacing" textLength="16" x="25" y="314.7607">alt</text><text fill="#000000" font-family="sans-serif" font-size="11" font-weight="bold" lengthAdjust="spacing" textLength="222" x="86" y="313.9502">[If warehouse don´t exist in the system]</text><polygon fill="#181818" points="1649.5,335.0391,1659.5,339.0391,1649.5,343.0391,1653.5,339.0391" style="stroke:#181818;stroke-width:1.0;"/><line style="stroke:#181818;stroke-width:1.0;" x1="1424.5" x2="1655.5" y1="339.0391" y2="339.0391"/><text fill="#000000" font-family="sans-serif" font-size="13" font-weight="bold" lengthAdjust="spacing" textLength="7" x="1431.5" y="334.2842">8</text><text fill="#000000" font-family="sans-serif" font-size="13" lengthAdjust="spacing" textLength="194" x="1442.5" y="334.2842">CreateWarehouse(warehouseDto)</text><polygon fill="#181818" points="1896.5,363.5625,1906.5,367.5625,1896.5,371.5625,1900.5,367.5625" style="stroke:#181818;stroke-width:1.0;"/><line style="stroke:#181818;stroke-width:1.0;" x1="1671.5" x2="1902.5" y1="367.5625" y2="367.5625"/><text fill="#000000" font-family="sans-serif" font-size="13" font-weight="bold" lengthAdjust="spacing" textLength="7" x="1678.5" y="362.8076">9</text><text fill="#000000" font-family="sans-serif" font-size="13" lengthAdjust="spacing" textLength="128" x="1689.5" y="362.8076">Create(warehouseDto)</text><polygon fill="#181818" points="1682.5,392.0859,1672.5,396.0859,1682.5,400.0859,1678.5,396.0859" style="stroke:#181818;stroke-width:1.0;"/><line style="stroke:#181818;stroke-width:1.0;stroke-dasharray:2.0,2.0;" x1="1676.5" x2="1912.5" y1="396.0859" y2="396.0859"/><text fill="#000000" font-family="sans-serif" font-size="13" font-weight="bold" lengthAdjust="spacing" textLength="14" x="1688.5" y="391.3311">10</text><text fill="#000000" font-family="sans-serif" font-size="13" lengthAdjust="spacing" textLength="62" x="1706.5" y="391.3311">warehouse</text><polygon fill="#181818" points="2298,420.6094,2308,424.6094,2298,428.6094,2302,424.6094" style="stroke:#181818;stroke-width:1.0;"/><line style="stroke:#181818;stroke-width:1.0;" x1="1671.5" x2="2304" y1="424.6094" y2="424.6094"/><text fill="#000000" font-family="sans-serif" font-size="13" font-weight="bold" lengthAdjust="spacing" textLength="14" x="1678.5" y="419.8545">11</text><text fill="#000000" font-family="sans-serif" font-size="13" lengthAdjust="spacing" textLength="96" x="1696.5" y="419.8545">save(warehouse)</text><polygon fill="#181818" points="1682.5,449.1328,1672.5,453.1328,1682.5,457.1328,1678.5,453.1328" style="stroke:#181818;stroke-width:1.0;"/><line style="stroke:#181818;stroke-width:1.0;stroke-dasharray:2.0,2.0;" x1="1676.5" x2="2314" y1="453.1328" y2="453.1328"/><text fill="#000000" font-family="sans-serif" font-size="13" font-weight="bold" lengthAdjust="spacing" textLength="14" x="1688.5" y="448.3779">12</text><text fill="#000000" font-family="sans-serif" font-size="13" lengthAdjust="spacing" textLength="22" x="1706.5" y="448.3779">true</text><polygon fill="#181818" points="1896.5,477.6563,1906.5,481.6563,1896.5,485.6563,1900.5,481.6563" style="stroke:#181818;stroke-width:1.0;"/><line style="stroke:#181818;stroke-width:1.0;" x1="1671.5" x2="1902.5" y1="481.6563" y2="481.6563"/><text fill="#000000" font-family="sans-serif" font-size="13" font-weight="bold" lengthAdjust="spacing" textLength="14" x="1678.5" y="476.9014">13</text><text fill="#000000" font-family="sans-serif" font-size="13" lengthAdjust="spacing" textLength="111" x="1696.5" y="476.9014">toWarehouseDTO()</text><polygon fill="#181818" points="1682.5,506.1797,1672.5,510.1797,1682.5,514.1797,1678.5,510.1797" style="stroke:#181818;stroke-width:1.0;"/><line style="stroke:#181818;stroke-width:1.0;stroke-dasharray:2.0,2.0;" x1="1676.5" x2="1912.5" y1="510.1797" y2="510.1797"/><text fill="#000000" font-family="sans-serif" font-size="13" font-weight="bold" lengthAdjust="spacing" textLength="14" x="1688.5" y="505.4248">14</text><text fill="#000000" font-family="sans-serif" font-size="13" lengthAdjust="spacing" textLength="82" x="1706.5" y="505.4248">warehouseDto</text><polygon fill="#181818" points="1435.5,534.7031,1425.5,538.7031,1435.5,542.7031,1431.5,538.7031" style="stroke:#181818;stroke-width:1.0;"/><line style="stroke:#181818;stroke-width:1.0;stroke-dasharray:2.0,2.0;" x1="1429.5" x2="1665.5" y1="538.7031" y2="538.7031"/><text fill="#000000" font-family="sans-serif" font-size="13" font-weight="bold" lengthAdjust="spacing" textLength="14" x="1441.5" y="533.9482">15</text><text fill="#000000" font-family="sans-serif" font-size="13" lengthAdjust="spacing" textLength="82" x="1459.5" y="533.9482">warehouseDto</text><polygon fill="#181818" points="1193.5,563.2266,1183.5,567.2266,1193.5,571.2266,1189.5,567.2266" style="stroke:#181818;stroke-width:1.0;"/><line style="stroke:#181818;stroke-width:1.0;stroke-dasharray:2.0,2.0;" x1="1187.5" x2="1413.5" y1="567.2266" y2="567.2266"/><text fill="#000000" font-family="sans-serif" font-size="13" font-weight="bold" lengthAdjust="spacing" textLength="14" x="1199.5" y="562.4717">16</text><text fill="#000000" font-family="sans-serif" font-size="13" lengthAdjust="spacing" textLength="82" x="1217.5" y="562.4717">warehouseDto</text><polygon fill="#181818" points="922.5,621.75,912.5,625.75,922.5,629.75,918.5,625.75" style="stroke:#181818;stroke-width:1.0;"/><line style="stroke:#181818;stroke-width:1.0;stroke-dasharray:2.0,2.0;" x1="916.5" x2="1171.5" y1="625.75" y2="625.75"/><text fill="#000000" font-family="sans-serif" font-size="13" font-weight="bold" lengthAdjust="spacing" textLength="14" x="928.5" y="620.9951">17</text><text fill="#000000" font-family="sans-serif" font-size="13" lengthAdjust="spacing" textLength="44" x="946.5" y="620.9951">200 OK</text><polygon fill="#181818" points="651.5,650.2734,641.5,654.2734,651.5,658.2734,647.5,654.2734" style="stroke:#181818;stroke-width:1.0;"/><line style="stroke:#181818;stroke-width:1.0;stroke-dasharray:2.0,2.0;" x1="645.5" x2="900.5" y1="654.2734" y2="654.2734"/><text fill="#000000" font-family="sans-serif" font-size="13" font-weight="bold" lengthAdjust="spacing" textLength="14" x="657.5" y="649.5186">18</text><text fill="#000000" font-family="sans-serif" font-size="13" lengthAdjust="spacing" textLength="44" x="675.5" y="649.5186">200 OK</text><polygon fill="#181818" points="419.5,678.7969,409.5,682.7969,419.5,686.7969,415.5,682.7969" style="stroke:#181818;stroke-width:1.0;"/><line style="stroke:#181818;stroke-width:1.0;stroke-dasharray:2.0,2.0;" x1="413.5" x2="634.5" y1="682.7969" y2="682.7969"/><text fill="#000000" font-family="sans-serif" font-size="13" font-weight="bold" lengthAdjust="spacing" textLength="14" x="425.5" y="678.042">19</text><text fill="#000000" font-family="sans-serif" font-size="13" lengthAdjust="spacing" textLength="44" x="443.5" y="678.042">200 OK</text><polygon fill="#181818" points="100.5,707.3203,90.5,711.3203,100.5,715.3203,96.5,711.3203" style="stroke:#181818;stroke-width:1.0;"/><line style="stroke:#181818;stroke-width:1.0;" x1="94.5" x2="402.5" y1="711.3203" y2="711.3203"/><text fill="#000000" font-family="sans-serif" font-size="13" font-weight="bold" lengthAdjust="spacing" textLength="14" x="106.5" y="706.5654">20</text><text fill="#000000" font-family="sans-serif" font-size="13" lengthAdjust="spacing" textLength="246" x="124.5" y="706.5654">informs about the success of the operation</text><line style="stroke:#000000;stroke-width:1.0;stroke-dasharray:2.0,2.0;" x1="10" x2="2402.5" y1="720.3203" y2="720.3203"/><text fill="#000000" font-family="sans-serif" font-size="11" font-weight="bold" lengthAdjust="spacing" textLength="278" x="15" y="730.2783">[If a warehouse already exists with the id entered]</text><polygon fill="#181818" points="1649.5,750.1328,1659.5,754.1328,1649.5,758.1328,1653.5,754.1328" style="stroke:#181818;stroke-width:1.0;"/><line style="stroke:#181818;stroke-width:1.0;" x1="1424.5" x2="1655.5" y1="754.1328" y2="754.1328"/><text fill="#000000" font-family="sans-serif" font-size="13" font-weight="bold" lengthAdjust="spacing" textLength="14" x="1431.5" y="749.3779">21</text><text fill="#000000" font-family="sans-serif" font-size="13" lengthAdjust="spacing" textLength="194" x="1449.5" y="749.3779">CreateWarehouse(warehouseDto)</text><polygon fill="#181818" points="1896.5,778.6563,1906.5,782.6563,1896.5,786.6563,1900.5,782.6563" style="stroke:#181818;stroke-width:1.0;"/><line style="stroke:#181818;stroke-width:1.0;" x1="1671.5" x2="1902.5" y1="782.6563" y2="782.6563"/><text fill="#000000" font-family="sans-serif" font-size="13" font-weight="bold" lengthAdjust="spacing" textLength="14" x="1678.5" y="777.9014">22</text><text fill="#000000" font-family="sans-serif" font-size="13" lengthAdjust="spacing" textLength="128" x="1696.5" y="777.9014">Create(warehouseDto)</text><polygon fill="#181818" points="1682.5,807.1797,1672.5,811.1797,1682.5,815.1797,1678.5,811.1797" style="stroke:#181818;stroke-width:1.0;"/><line style="stroke:#181818;stroke-width:1.0;stroke-dasharray:2.0,2.0;" x1="1676.5" x2="1912.5" y1="811.1797" y2="811.1797"/><text fill="#000000" font-family="sans-serif" font-size="13" font-weight="bold" lengthAdjust="spacing" textLength="14" x="1688.5" y="806.4248">23</text><text fill="#000000" font-family="sans-serif" font-size="13" lengthAdjust="spacing" textLength="62" x="1706.5" y="806.4248">warehouse</text><polygon fill="#181818" points="2298,835.7031,2308,839.7031,2298,843.7031,2302,839.7031" style="stroke:#181818;stroke-width:1.0;"/><line style="stroke:#181818;stroke-width:1.0;" x1="1671.5" x2="2304" y1="839.7031" y2="839.7031"/><text fill="#000000" font-family="sans-serif" font-size="13" font-weight="bold" lengthAdjust="spacing" textLength="14" x="1678.5" y="834.9482">24</text><text fill="#000000" font-family="sans-serif" font-size="13" lengthAdjust="spacing" textLength="96" x="1696.5" y="834.9482">save(warehouse)</text><polygon fill="#181818" points="1682.5,864.2266,1672.5,868.2266,1682.5,872.2266,1678.5,868.2266" style="stroke:#181818;stroke-width:1.0;"/><line style="stroke:#181818;stroke-width:1.0;stroke-dasharray:2.0,2.0;" x1="1676.5" x2="2314" y1="868.2266" y2="868.2266"/><text fill="#000000" font-family="sans-serif" font-size="13" font-weight="bold" lengthAdjust="spacing" textLength="14" x="1688.5" y="863.4717">25</text><text fill="#000000" font-family="sans-serif" font-size="13" lengthAdjust="spacing" textLength="27" x="1706.5" y="863.4717">false</text><polygon fill="#181818" points="1435.5,892.75,1425.5,896.75,1435.5,900.75,1431.5,896.75" style="stroke:#181818;stroke-width:1.0;"/><line style="stroke:#181818;stroke-width:1.0;stroke-dasharray:2.0,2.0;" x1="1429.5" x2="1665.5" y1="896.75" y2="896.75"/><text fill="#000000" font-family="sans-serif" font-size="13" font-weight="bold" lengthAdjust="spacing" textLength="14" x="1441.5" y="891.9951">26</text><text fill="#000000" font-family="sans-serif" font-size="13" lengthAdjust="spacing" textLength="149" x="1459.5" y="891.9951">InvalidOperationException</text><polygon fill="#181818" points="1193.5,921.2734,1183.5,925.2734,1193.5,929.2734,1189.5,925.2734" style="stroke:#181818;stroke-width:1.0;"/><line style="stroke:#181818;stroke-width:1.0;stroke-dasharray:2.0,2.0;" x1="1187.5" x2="1418.5" y1="925.2734" y2="925.2734"/><text fill="#000000" font-family="sans-serif" font-size="13" font-weight="bold" lengthAdjust="spacing" textLength="14" x="1199.5" y="920.5186">27</text><text fill="#000000" font-family="sans-serif" font-size="13" lengthAdjust="spacing" textLength="149" x="1217.5" y="920.5186">InvalidOperationException</text><polygon fill="#181818" points="922.5,949.7969,912.5,953.7969,922.5,957.7969,918.5,953.7969" style="stroke:#181818;stroke-width:1.0;"/><line style="stroke:#181818;stroke-width:1.0;stroke-dasharray:2.0,2.0;" x1="916.5" x2="1171.5" y1="953.7969" y2="953.7969"/><text fill="#000000" font-family="sans-serif" font-size="13" font-weight="bold" lengthAdjust="spacing" textLength="14" x="928.5" y="949.042">28</text><text fill="#000000" font-family="sans-serif" font-size="13" lengthAdjust="spacing" textLength="87" x="946.5" y="949.042">409 CONFLICT</text><polygon fill="#181818" points="651.5,978.3203,641.5,982.3203,651.5,986.3203,647.5,982.3203" style="stroke:#181818;stroke-width:1.0;"/><line style="stroke:#181818;stroke-width:1.0;stroke-dasharray:2.0,2.0;" x1="645.5" x2="900.5" y1="982.3203" y2="982.3203"/><text fill="#000000" font-family="sans-serif" font-size="13" font-weight="bold" lengthAdjust="spacing" textLength="14" x="657.5" y="977.5654">29</text><text fill="#000000" font-family="sans-serif" font-size="13" lengthAdjust="spacing" textLength="87" x="675.5" y="977.5654">409 CONFLICT</text><polygon fill="#181818" points="419.5,1006.8438,409.5,1010.8438,419.5,1014.8438,415.5,1010.8438" style="stroke:#181818;stroke-width:1.0;"/><line style="stroke:#181818;stroke-width:1.0;stroke-dasharray:2.0,2.0;" x1="413.5" x2="634.5" y1="1010.8438" y2="1010.8438"/><text fill="#000000" font-family="sans-serif" font-size="13" font-weight="bold" lengthAdjust="spacing" textLength="14" x="425.5" y="1006.0889">30</text><text fill="#000000" font-family="sans-serif" font-size="13" lengthAdjust="spacing" textLength="87" x="443.5" y="1006.0889">409 CONFLICT</text><polygon fill="#181818" points="100.5,1035.3672,90.5,1039.3672,100.5,1043.3672,96.5,1039.3672" style="stroke:#181818;stroke-width:1.0;"/><line style="stroke:#181818;stroke-width:1.0;" x1="94.5" x2="402.5" y1="1039.3672" y2="1039.3672"/><text fill="#000000" font-family="sans-serif" font-size="13" font-weight="bold" lengthAdjust="spacing" textLength="14" x="106.5" y="1034.6123">31</text><text fill="#000000" font-family="sans-serif" font-size="13" lengthAdjust="spacing" textLength="213" x="124.5" y="1034.6123">informs about the fail of the operation</text><line style="stroke:#000000;stroke-width:1.0;stroke-dasharray:2.0,2.0;" x1="10" x2="2402.5" y1="1048.3672" y2="1048.3672"/><text fill="#000000" font-family="sans-serif" font-size="11" font-weight="bold" lengthAdjust="spacing" textLength="285" x="15" y="1058.3252">[If the attributes do not respect the business rules]</text><polygon fill="#181818" points="1649.5,1078.1797,1659.5,1082.1797,1649.5,1086.1797,1653.5,1082.1797" style="stroke:#181818;stroke-width:1.0;"/><line style="stroke:#181818;stroke-width:1.0;" x1="1424.5" x2="1655.5" y1="1082.1797" y2="1082.1797"/><text fill="#000000" font-family="sans-serif" font-size="13" font-weight="bold" lengthAdjust="spacing" textLength="14" x="1431.5" y="1077.4248">32</text><text fill="#000000" font-family="sans-serif" font-size="13" lengthAdjust="spacing" textLength="194" x="1449.5" y="1077.4248">CreateWarehouse(warehouseDto)</text><polygon fill="#181818" points="1896.5,1106.7031,1906.5,1110.7031,1896.5,1114.7031,1900.5,1110.7031" style="stroke:#181818;stroke-width:1.0;"/><line style="stroke:#181818;stroke-width:1.0;" x1="1671.5" x2="1902.5" y1="1110.7031" y2="1110.7031"/><text fill="#000000" font-family="sans-serif" font-size="13" font-weight="bold" lengthAdjust="spacing" textLength="14" x="1678.5" y="1105.9482">33</text><text fill="#000000" font-family="sans-serif" font-size="13" lengthAdjust="spacing" textLength="128" x="1696.5" y="1105.9482">Create(warehouseDto)</text><polygon fill="#181818" points="1682.5,1135.2266,1672.5,1139.2266,1682.5,1143.2266,1678.5,1139.2266" style="stroke:#181818;stroke-width:1.0;"/><line style="stroke:#181818;stroke-width:1.0;stroke-dasharray:2.0,2.0;" x1="1676.5" x2="1912.5" y1="1139.2266" y2="1139.2266"/><text fill="#000000" font-family="sans-serif" font-size="13" font-weight="bold" lengthAdjust="spacing" textLength="14" x="1688.5" y="1134.4717">34</text><text fill="#000000" font-family="sans-serif" font-size="13" lengthAdjust="spacing" textLength="195" x="1706.5" y="1134.4717">BusinessRuleValidationException</text><polygon fill="#181818" points="1435.5,1163.75,1425.5,1167.75,1435.5,1171.75,1431.5,1167.75" style="stroke:#181818;stroke-width:1.0;"/><line style="stroke:#181818;stroke-width:1.0;stroke-dasharray:2.0,2.0;" x1="1429.5" x2="1665.5" y1="1167.75" y2="1167.75"/><text fill="#000000" font-family="sans-serif" font-size="13" font-weight="bold" lengthAdjust="spacing" textLength="14" x="1441.5" y="1162.9951">35</text><text fill="#000000" font-family="sans-serif" font-size="13" lengthAdjust="spacing" textLength="195" x="1459.5" y="1162.9951">BusinessRuleValidationException</text><polygon fill="#181818" points="1193.5,1192.2734,1183.5,1196.2734,1193.5,1200.2734,1189.5,1196.2734" style="stroke:#181818;stroke-width:1.0;"/><line style="stroke:#181818;stroke-width:1.0;stroke-dasharray:2.0,2.0;" x1="1187.5" x2="1418.5" y1="1196.2734" y2="1196.2734"/><text fill="#000000" font-family="sans-serif" font-size="13" font-weight="bold" lengthAdjust="spacing" textLength="14" x="1199.5" y="1191.5186">36</text><text fill="#000000" font-family="sans-serif" font-size="13" lengthAdjust="spacing" textLength="195" x="1217.5" y="1191.5186">BusinessRuleValidationException</text><polygon fill="#181818" points="922.5,1220.7969,912.5,1224.7969,922.5,1228.7969,918.5,1224.7969" style="stroke:#181818;stroke-width:1.0;"/><line style="stroke:#181818;stroke-width:1.0;stroke-dasharray:2.0,2.0;" x1="916.5" x2="1171.5" y1="1224.7969" y2="1224.7969"/><text fill="#000000" font-family="sans-serif" font-size="13" font-weight="bold" lengthAdjust="spacing" textLength="14" x="928.5" y="1220.042">37</text><text fill="#000000" font-family="sans-serif" font-size="13" lengthAdjust="spacing" textLength="87" x="946.5" y="1220.042">409 CONFLICT</text><polygon fill="#181818" points="651.5,1249.3203,641.5,1253.3203,651.5,1257.3203,647.5,1253.3203" style="stroke:#181818;stroke-width:1.0;"/><line style="stroke:#181818;stroke-width:1.0;stroke-dasharray:2.0,2.0;" x1="645.5" x2="900.5" y1="1253.3203" y2="1253.3203"/><text fill="#000000" font-family="sans-serif" font-size="13" font-weight="bold" lengthAdjust="spacing" textLength="14" x="657.5" y="1248.5654">38</text><text fill="#000000" font-family="sans-serif" font-size="13" lengthAdjust="spacing" textLength="87" x="675.5" y="1248.5654">409 CONFLICT</text><polygon fill="#181818" points="419.5,1277.8438,409.5,1281.8438,419.5,1285.8438,415.5,1281.8438" style="stroke:#181818;stroke-width:1.0;"/><line style="stroke:#181818;stroke-width:1.0;stroke-dasharray:2.0,2.0;" x1="413.5" x2="634.5" y1="1281.8438" y2="1281.8438"/><text fill="#000000" font-family="sans-serif" font-size="13" font-weight="bold" lengthAdjust="spacing" textLength="14" x="425.5" y="1277.0889">39</text><text fill="#000000" font-family="sans-serif" font-size="13" lengthAdjust="spacing" textLength="87" x="443.5" y="1277.0889">409 CONFLICT</text><polygon fill="#181818" points="100.5,1306.3672,90.5,1310.3672,100.5,1314.3672,96.5,1310.3672" style="stroke:#181818;stroke-width:1.0;"/><line style="stroke:#181818;stroke-width:1.0;" x1="94.5" x2="402.5" y1="1310.3672" y2="1310.3672"/><text fill="#000000" font-family="sans-serif" font-size="13" font-weight="bold" lengthAdjust="spacing" textLength="14" x="106.5" y="1305.6123">40</text><text fill="#000000" font-family="sans-serif" font-size="13" lengthAdjust="spacing" textLength="213" x="124.5" y="1305.6123">informs about the fail of the operation</text><!--MD5=[a6b5c0075fd5d737bd3a93b8227151a8]
@startuml 
autonumber

actor "Warehouse Manager" as admin


box "<<Container(C4)>>\n       UI" #LightYellow
participant CreateWarehouseComponent as uiComponent <<Container(C4)>>
participant CreateWarehouseService as uiService <<Container(C4)>>
box "<<Container(C4)>>\n       Auth" #LightBlue
participant WarehouseController as authController <<Container(C4)>>
box "<<Container(C4)>>\n    Warehouse Management" #LightGreen
participant WarehouseRoute as  WM <<Component(C4)>>
participant WarehouseController as  CTL <<Component(C4)>>
participant WarehouseService as  SV <<Component(C4)>>
participant "warehouse : Warehouse" as  W <<Component(C4)>>
participant "warehouseDto : WarehouseDTO" as  DTO <<Component(C4)>>
participant WarehouseRepository as  WR <<Component(C4)>>
end box
end box

admin -> uiComponent: I want to create a new warehouse
activate uiComponent

uiComponent -> admin: asks for the details on the new warehouse
deactivate uiComponent

admin -> uiComponent: inserts the information about the new warehouse

activate uiComponent
uiComponent -> uiService: createWarehouse(warehouseDto)
activate uiService
uiService -> authController : POST createWarehouse(warehouseDto)
activate authController
authController -> WM : POST createWarehouse(warehouseDto)
activate WM
WM -> CTL : CreateWarehouse(warehouseDto)
deactivate WM
deactivate authController
deactivate uiService
alt If warehouse don´t exist in the system 

activate CTL
CTL -> SV : CreateWarehouse(warehouseDto)
activate SV

SV -> W : Create(warehouseDto)
activate W
W - -> SV : warehouse 
deactivate W

SV -> WR : save(warehouse)
activate WR
WR - -> SV : true 
deactivate WR

SV -> W : toWarehouseDTO()
activate W
W - -> SV : warehouseDto
deactivate W
SV - -> CTL : warehouseDto
deactivate SV
CTL - -> WM : warehouseDto
activate WM
deactivate CTL


WM - -> authController: 200 OK
activate authController
authController - -> uiService : 200 OK 
activate uiService 
uiService - -> uiComponent : 200 OK 
deactivate uiService
deactivate authController
deactivate WM

uiComponent -> admin: informs about the success of the operation
deactivate uiComponent

else If a warehouse already exists with the id entered


activate CTL
CTL -> SV : CreateWarehouse(warehouseDto)
activate SV

SV -> W : Create(warehouseDto)
activate W
W - -> SV : warehouse 
deactivate W

SV -> WR : save(warehouse)
activate WR
WR - -> SV : false
deactivate WR
SV - -> CTL : InvalidOperationException

deactivate SV
CTL - -> WM : InvalidOperationException


deactivate CTL
activate WM
WM - -> authController: 409 CONFLICT
activate authController
authController - -> uiService : 409 CONFLICT 
activate uiService 
uiService - -> uiComponent : 409 CONFLICT 
deactivate uiService
deactivate authController
deactivate WM

activate uiComponent
uiComponent -> admin: informs about the fail of the operation
deactivate uiComponent 

else If the attributes do not respect the business rules

activate CTL
CTL -> SV : CreateWarehouse(warehouseDto)
activate SV

SV -> W : Create(warehouseDto)
activate W
W - -> SV : BusinessRuleValidationException
deactivate W

SV - -> CTL : BusinessRuleValidationException
deactivate SV
CTL - -> WM : BusinessRuleValidationException
deactivate CTL
deactivate CTL
activate WM
WM - -> authController: 409 CONFLICT
activate authController
authController - -> uiService : 409 CONFLICT 
activate uiService 
uiService - -> uiComponent : 409 CONFLICT 
deactivate uiService
deactivate authController
deactivate WM

activate uiComponent
uiComponent -> admin: informs about the fail of the operation
deactivate uiComponent 
end 
deactivate uiComponent
deactivate admin

@enduml

PlantUML version 1.2022.12(Sun Oct 23 19:12:26 WEST 2022)
(GPL source distribution)
Java Runtime: OpenJDK Runtime Environment
JVM: OpenJDK 64-Bit Server VM
Default Encoding: Cp1252
Language: pt
Country: BR
--></g></svg>