<?xml version="1.0" encoding="UTF-8" standalone="no"?><svg xmlns="http://www.w3.org/2000/svg" xmlns:xlink="http://www.w3.org/1999/xlink" contentStyleType="text/css" height="534px" preserveAspectRatio="none" style="width:778px;height:534px;background:#FFFFFF;" version="1.1" viewBox="0 0 778 534" width="778px" zoomAndPan="magnify"><defs/><g><rect fill="#DDDDDD" height="522.3047" style="stroke:#181818;stroke-width:0.5;" width="425.5" x="339.5" y="6"/><text fill="#000000" font-family="sans-serif" font-size="13" font-weight="bold" lengthAdjust="spacing" textLength="114" x="495.25" y="17.7686">&lt;&lt;EletricGo(C4)&gt;&gt;</text><text fill="#000000" font-family="sans-serif" font-size="13" font-weight="bold" lengthAdjust="spacing" textLength="46" x="523.25" y="32.292">System</text><rect fill="#FFFFFF" height="28.5234" style="stroke:#181818;stroke-width:1.0;" width="10" x="398.5" y="115.8516"/><rect fill="#FFFFFF" height="109.0938" style="stroke:#181818;stroke-width:1.0;" width="10" x="398.5" y="172.8984"/><rect fill="#FFFFFF" height="28.5234" style="stroke:#181818;stroke-width:1.0;" width="10" x="398.5" y="324.8047"/><rect fill="#FFFFFF" height="28.5234" style="stroke:#181818;stroke-width:1.0;" width="10" x="398.5" y="396.1406"/><rect fill="#FFFFFF" height="52.0469" style="stroke:#181818;stroke-width:1.0;" width="10" x="671.5" y="201.4219"/><rect fill="#FFFFFF" height="42.8125" style="stroke:#181818;stroke-width:1.0;" width="10" x="671.5" y="281.9922"/><rect fill="#FFFFFF" height="42.8125" style="stroke:#181818;stroke-width:1.0;" width="10" x="671.5" y="353.3281"/><rect fill="none" height="216.2422" style="stroke:#000000;stroke-width:1.5;" width="761" x="10" y="216.4219"/><line style="stroke:#181818;stroke-width:0.5;stroke-dasharray:5.0,5.0;" x1="89" x2="89" y1="85.3281" y2="449.6641"/><line style="stroke:#181818;stroke-width:0.5;stroke-dasharray:5.0,5.0;" x1="403.5" x2="403.5" y1="85.3281" y2="449.6641"/><line style="stroke:#181818;stroke-width:0.5;stroke-dasharray:5.0,5.0;" x1="676" x2="676" y1="85.3281" y2="449.6641"/><text fill="#000000" font-family="sans-serif" font-size="14" lengthAdjust="spacing" textLength="133" x="20" y="82.3613">Warehouse Manager</text><ellipse cx="89.5" cy="18.1875" fill="#E2E2F0" rx="8" ry="8" style="stroke:#181818;stroke-width:0.5;"/><path d="M89.5,26.1875 L89.5,53.1875 M76.5,34.1875 L102.5,34.1875 M89.5,53.1875 L76.5,68.1875 M89.5,53.1875 L102.5,68.1875 " fill="none" style="stroke:#181818;stroke-width:0.5;"/><text fill="#000000" font-family="sans-serif" font-size="14" lengthAdjust="spacing" textLength="133" x="20" y="461.3379">Warehouse Manager</text><ellipse cx="89.5" cy="472.8047" fill="#E2E2F0" rx="8" ry="8" style="stroke:#181818;stroke-width:0.5;"/><path d="M89.5,480.8047 L89.5,507.8047 M76.5,488.8047 L102.5,488.8047 M89.5,507.8047 L76.5,522.8047 M89.5,507.8047 L102.5,522.8047 " fill="none" style="stroke:#181818;stroke-width:0.5;"/><rect fill="#E2E2F0" height="45.2813" rx="2.5" ry="2.5" style="stroke:#181818;stroke-width:0.5;" width="120" x="343.5" y="39.0469"/><text fill="#000000" font-family="sans-serif" font-size="14" font-style="italic" lengthAdjust="spacing" textLength="106" x="350.5" y="58.7207">«Container(C4)»</text><text fill="#000000" font-family="sans-serif" font-size="14" lengthAdjust="spacing" textLength="35" x="386" y="74.3613">Authz</text><rect fill="#E2E2F0" height="45.2813" rx="2.5" ry="2.5" style="stroke:#181818;stroke-width:0.5;" width="120" x="343.5" y="448.6641"/><text fill="#000000" font-family="sans-serif" font-size="14" font-style="italic" lengthAdjust="spacing" textLength="106" x="350.5" y="468.3379">«Container(C4)»</text><text fill="#000000" font-family="sans-serif" font-size="14" lengthAdjust="spacing" textLength="35" x="386" y="483.9785">Authz</text><rect fill="#E2E2F0" height="45.2813" rx="2.5" ry="2.5" style="stroke:#181818;stroke-width:0.5;" width="169" x="592" y="39.0469"/><text fill="#000000" font-family="sans-serif" font-size="14" font-style="italic" lengthAdjust="spacing" textLength="106" x="623.5" y="58.7207">«Container(C4)»</text><text fill="#000000" font-family="sans-serif" font-size="14" lengthAdjust="spacing" textLength="155" x="599" y="74.3613">WarehouseManagement</text><rect fill="#E2E2F0" height="45.2813" rx="2.5" ry="2.5" style="stroke:#181818;stroke-width:0.5;" width="169" x="592" y="448.6641"/><text fill="#000000" font-family="sans-serif" font-size="14" font-style="italic" lengthAdjust="spacing" textLength="106" x="623.5" y="468.3379">«Container(C4)»</text><text fill="#000000" font-family="sans-serif" font-size="14" lengthAdjust="spacing" textLength="155" x="599" y="483.9785">WarehouseManagement</text><rect fill="#FFFFFF" height="28.5234" style="stroke:#181818;stroke-width:1.0;" width="10" x="398.5" y="115.8516"/><rect fill="#FFFFFF" height="109.0938" style="stroke:#181818;stroke-width:1.0;" width="10" x="398.5" y="172.8984"/><rect fill="#FFFFFF" height="28.5234" style="stroke:#181818;stroke-width:1.0;" width="10" x="398.5" y="324.8047"/><rect fill="#FFFFFF" height="28.5234" style="stroke:#181818;stroke-width:1.0;" width="10" x="398.5" y="396.1406"/><rect fill="#FFFFFF" height="52.0469" style="stroke:#181818;stroke-width:1.0;" width="10" x="671.5" y="201.4219"/><rect fill="#FFFFFF" height="42.8125" style="stroke:#181818;stroke-width:1.0;" width="10" x="671.5" y="281.9922"/><rect fill="#FFFFFF" height="42.8125" style="stroke:#181818;stroke-width:1.0;" width="10" x="671.5" y="353.3281"/><polygon fill="#181818" points="386.5,111.8516,396.5,115.8516,386.5,119.8516,390.5,115.8516" style="stroke:#181818;stroke-width:1.0;"/><line style="stroke:#181818;stroke-width:1.0;" x1="89.5" x2="392.5" y1="115.8516" y2="115.8516"/><text fill="#000000" font-family="sans-serif" font-size="13" font-weight="bold" lengthAdjust="spacing" textLength="7" x="96.5" y="111.0967">1</text><text fill="#000000" font-family="sans-serif" font-size="13" lengthAdjust="spacing" textLength="193" x="107.5" y="111.0967">I want to create a new warehouse</text><polygon fill="#181818" points="100.5,140.375,90.5,144.375,100.5,148.375,96.5,144.375" style="stroke:#181818;stroke-width:1.0;"/><line style="stroke:#181818;stroke-width:1.0;" x1="94.5" x2="402.5" y1="144.375" y2="144.375"/><text fill="#000000" font-family="sans-serif" font-size="13" font-weight="bold" lengthAdjust="spacing" textLength="7" x="106.5" y="139.6201">2</text><text fill="#000000" font-family="sans-serif" font-size="13" lengthAdjust="spacing" textLength="243" x="117.5" y="139.6201">asks for the details on the new warehouse</text><polygon fill="#181818" points="386.5,168.8984,396.5,172.8984,386.5,176.8984,390.5,172.8984" style="stroke:#181818;stroke-width:1.0;"/><line style="stroke:#181818;stroke-width:1.0;" x1="89.5" x2="392.5" y1="172.8984" y2="172.8984"/><text fill="#000000" font-family="sans-serif" font-size="13" font-weight="bold" lengthAdjust="spacing" textLength="7" x="96.5" y="168.1436">3</text><text fill="#000000" font-family="sans-serif" font-size="13" lengthAdjust="spacing" textLength="279" x="107.5" y="168.1436">inserts the information about the new warehouse</text><polygon fill="#181818" points="659.5,197.4219,669.5,201.4219,659.5,205.4219,663.5,201.4219" style="stroke:#181818;stroke-width:1.0;"/><line style="stroke:#181818;stroke-width:1.0;" x1="408.5" x2="665.5" y1="201.4219" y2="201.4219"/><text fill="#000000" font-family="sans-serif" font-size="13" font-weight="bold" lengthAdjust="spacing" textLength="7" x="415.5" y="196.667">4</text><text fill="#000000" font-family="sans-serif" font-size="13" lengthAdjust="spacing" textLength="233" x="426.5" y="196.667">POST CreateWarehouse(warehouseDto)</text><path d="M10,216.4219 L71,216.4219 L71,222.9453 L61,232.9453 L10,232.9453 L10,216.4219 " fill="#EEEEEE" style="stroke:#000000;stroke-width:1.5;"/><rect fill="none" height="216.2422" style="stroke:#000000;stroke-width:1.5;" width="761" x="10" y="216.4219"/><text fill="#000000" font-family="sans-serif" font-size="13" font-weight="bold" lengthAdjust="spacing" textLength="16" x="25" y="229.1904">alt</text><text fill="#000000" font-family="sans-serif" font-size="11" font-weight="bold" lengthAdjust="spacing" textLength="222" x="86" y="228.3799">[If warehouse don´t exist in the system]</text><polygon fill="#181818" points="419.5,249.4688,409.5,253.4688,419.5,257.4688,415.5,253.4688" style="stroke:#181818;stroke-width:1.0;"/><line style="stroke:#181818;stroke-width:1.0;stroke-dasharray:2.0,2.0;" x1="413.5" x2="675.5" y1="253.4688" y2="253.4688"/><text fill="#000000" font-family="sans-serif" font-size="13" font-weight="bold" lengthAdjust="spacing" textLength="7" x="425.5" y="248.7139">5</text><text fill="#000000" font-family="sans-serif" font-size="13" lengthAdjust="spacing" textLength="44" x="436.5" y="248.7139">200 OK</text><polygon fill="#181818" points="100.5,277.9922,90.5,281.9922,100.5,285.9922,96.5,281.9922" style="stroke:#181818;stroke-width:1.0;"/><line style="stroke:#181818;stroke-width:1.0;" x1="94.5" x2="402.5" y1="281.9922" y2="281.9922"/><text fill="#000000" font-family="sans-serif" font-size="13" font-weight="bold" lengthAdjust="spacing" textLength="7" x="106.5" y="277.2373">6</text><text fill="#000000" font-family="sans-serif" font-size="13" lengthAdjust="spacing" textLength="246" x="117.5" y="277.2373">informs about the success of the operation</text><line style="stroke:#000000;stroke-width:1.0;stroke-dasharray:2.0,2.0;" x1="10" x2="771" y1="290.9922" y2="290.9922"/><text fill="#000000" font-family="sans-serif" font-size="11" font-weight="bold" lengthAdjust="spacing" textLength="278" x="15" y="300.9502">[If a warehouse already exists with the id entered]</text><polygon fill="#181818" points="419.5,320.8047,409.5,324.8047,419.5,328.8047,415.5,324.8047" style="stroke:#181818;stroke-width:1.0;"/><line style="stroke:#181818;stroke-width:1.0;stroke-dasharray:2.0,2.0;" x1="413.5" x2="675.5" y1="324.8047" y2="324.8047"/><text fill="#000000" font-family="sans-serif" font-size="13" font-weight="bold" lengthAdjust="spacing" textLength="7" x="425.5" y="320.0498">7</text><text fill="#000000" font-family="sans-serif" font-size="13" lengthAdjust="spacing" textLength="87" x="436.5" y="320.0498">409 CONFLICT</text><polygon fill="#181818" points="100.5,349.3281,90.5,353.3281,100.5,357.3281,96.5,353.3281" style="stroke:#181818;stroke-width:1.0;"/><line style="stroke:#181818;stroke-width:1.0;" x1="94.5" x2="402.5" y1="353.3281" y2="353.3281"/><text fill="#000000" font-family="sans-serif" font-size="13" font-weight="bold" lengthAdjust="spacing" textLength="7" x="106.5" y="348.5732">8</text><text fill="#000000" font-family="sans-serif" font-size="13" lengthAdjust="spacing" textLength="213" x="117.5" y="348.5732">informs about the fail of the operation</text><line style="stroke:#000000;stroke-width:1.0;stroke-dasharray:2.0,2.0;" x1="10" x2="771" y1="362.3281" y2="362.3281"/><text fill="#000000" font-family="sans-serif" font-size="11" font-weight="bold" lengthAdjust="spacing" textLength="285" x="15" y="372.2861">[If the attributes do not respect the business rules]</text><polygon fill="#181818" points="419.5,392.1406,409.5,396.1406,419.5,400.1406,415.5,396.1406" style="stroke:#181818;stroke-width:1.0;"/><line style="stroke:#181818;stroke-width:1.0;stroke-dasharray:2.0,2.0;" x1="413.5" x2="675.5" y1="396.1406" y2="396.1406"/><text fill="#000000" font-family="sans-serif" font-size="13" font-weight="bold" lengthAdjust="spacing" textLength="7" x="425.5" y="391.3857">9</text><text fill="#000000" font-family="sans-serif" font-size="13" lengthAdjust="spacing" textLength="87" x="436.5" y="391.3857">409 CONFLICT</text><polygon fill="#181818" points="100.5,420.6641,90.5,424.6641,100.5,428.6641,96.5,424.6641" style="stroke:#181818;stroke-width:1.0;"/><line style="stroke:#181818;stroke-width:1.0;" x1="94.5" x2="402.5" y1="424.6641" y2="424.6641"/><text fill="#000000" font-family="sans-serif" font-size="13" font-weight="bold" lengthAdjust="spacing" textLength="14" x="106.5" y="419.9092">10</text><text fill="#000000" font-family="sans-serif" font-size="13" lengthAdjust="spacing" textLength="213" x="124.5" y="419.9092">informs about the fail of the operation</text><!--MD5=[5489ed74770f03be82d5d3e35f4ef0e3]
@startuml 
autonumber

actor "Warehouse Manager" as admin


box "<<EletricGo(C4)>>\n       System"
participant Authz as system <<Container(C4)>>
participant WarehouseManagement as  WM <<Container(C4)>>
end box

admin -> system: I want to create a new warehouse
activate system

system -> admin: asks for the details on the new warehouse
deactivate system

admin -> system: inserts the information about the new warehouse

activate system
system -> WM: POST CreateWarehouse(warehouseDto)
activate WM

alt If warehouse don´t exist in the system  
WM - -> system: 200 OK
deactivate WM

system -> admin: informs about the success of the operation
deactivate system

else If a warehouse already exists with the id entered

activate WM
WM - -> system: 409 CONFLICT
deactivate WM

activate system
system -> admin: informs about the fail of the operation
deactivate system 

else If the attributes do not respect the business rules

activate WM
WM - -> system: 409 CONFLICT
deactivate WM

activate system
system -> admin: informs about the fail of the operation
deactivate system 
end 
deactivate system
deactivate admin

@enduml

PlantUML version 1.2022.12(Sun Oct 23 19:12:26 WEST 2022)
(GPL source distribution)
Java Runtime: OpenJDK Runtime Environment
JVM: OpenJDK 64-Bit Server VM
Default Encoding: Cp1252
Language: pt
Country: BR
--></g></svg>