<?xml version="1.0" encoding="UTF-8" standalone="no"?><svg xmlns="http://www.w3.org/2000/svg" xmlns:xlink="http://www.w3.org/1999/xlink" contentStyleType="text/css" height="1069px" preserveAspectRatio="none" style="width:2006px;height:1069px;background:#FFFFFF;" version="1.1" viewBox="0 0 2006 1069" width="2006px" zoomAndPan="magnify"><defs/><g><rect fill="#FFFFE0" height="1057.3438" style="stroke:#181818;stroke-width:0.5;" width="398" x="292" y="6"/><text fill="#000000" font-family="sans-serif" font-size="13" font-weight="bold" lengthAdjust="spacing" textLength="118" x="432" y="17.7686">&lt;&lt;Container(C4)&gt;&gt;</text><text fill="#000000" font-family="sans-serif" font-size="13" font-weight="bold" lengthAdjust="spacing" textLength="13" x="460" y="32.292">UI</text><rect fill="#ADD8E6" height="1057.3438" style="stroke:#181818;stroke-width:0.5;" width="157" x="696" y="6"/><text fill="#000000" font-family="sans-serif" font-size="13" font-weight="bold" lengthAdjust="spacing" textLength="118" x="715.5" y="17.7686">&lt;&lt;Container(C4)&gt;&gt;</text><text fill="#000000" font-family="sans-serif" font-size="13" font-weight="bold" lengthAdjust="spacing" textLength="29" x="743.5" y="32.292">Auth</text><rect fill="#90EE90" height="1057.3438" style="stroke:#181818;stroke-width:0.5;" width="1138.5" x="855" y="6"/><text fill="#000000" font-family="sans-serif" font-size="13" font-weight="bold" lengthAdjust="spacing" textLength="118" x="1336.75" y="17.7686">&lt;&lt;Container(C4)&gt;&gt;</text><text fill="#000000" font-family="sans-serif" font-size="13" font-weight="bold" lengthAdjust="spacing" textLength="159" x="1352.75" y="32.292">Warehouse Management</text><rect fill="#FFFFFF" height="58.5234" style="stroke:#181818;stroke-width:1.0;" width="10" x="392.5" y="115.8516"/><rect fill="#FFFFFF" height="58.5234" style="stroke:#181818;stroke-width:1.0;" width="10" x="392.5" y="598.7031"/><rect fill="#FFFFFF" height="28.5234" style="stroke:#181818;stroke-width:1.0;" width="10" x="392.5" y="931.1797"/><rect fill="#FFFFFF" height="144.0938" style="stroke:#181818;stroke-width:1.0;" width="10" x="592.5" y="144.375"/><rect fill="#FFFFFF" height="58.5234" style="stroke:#181818;stroke-width:1.0;" width="10" x="592.5" y="570.1797"/><rect fill="#FFFFFF" height="28.5234" style="stroke:#181818;stroke-width:1.0;" width="10" x="592.5" y="902.6563"/><rect fill="#FFFFFF" height="85.5703" style="stroke:#181818;stroke-width:1.0;" width="10" x="769.5" y="202.8984"/><rect fill="#FFFFFF" height="87.0469" style="stroke:#181818;stroke-width:1.0;" width="10" x="769.5" y="541.6563"/><rect fill="#FFFFFF" height="28.5234" style="stroke:#181818;stroke-width:1.0;" width="10" x="769.5" y="874.1328"/><rect fill="#FFFFFF" height="28.5234" style="stroke:#181818;stroke-width:1.0;" width="10" x="919.5" y="231.4219"/><rect fill="#FFFFFF" height="145.5703" style="stroke:#181818;stroke-width:1.0;" width="10" x="919.5" y="483.1328"/><rect fill="#FFFFFF" height="58.5234" style="stroke:#181818;stroke-width:1.0;" width="10" x="919.5" y="815.6094"/><rect fill="#FFFFFF" height="253.1875" style="stroke:#181818;stroke-width:1.0;" width="10" x="1089.5" y="259.9453"/><rect fill="#FFFFFF" height="88.5234" style="stroke:#181818;stroke-width:1.0;" width="10" x="1089.5" y="757.0859"/><rect fill="#FFFFFF" height="166.1406" style="stroke:#181818;stroke-width:1.0;" width="10" x="1264.5" y="288.4688"/><rect fill="#FFFFFF" height="129.8594" style="stroke:#181818;stroke-width:1.0;" width="10" x="1264.5" y="657.2266"/><rect fill="#FFFFFF" height="28.5234" style="stroke:#181818;stroke-width:1.0;" width="10" x="1505.5" y="397.5625"/><rect fill="#FFFFFF" height="28.5234" style="stroke:#181818;stroke-width:1.0;" width="10" x="1907" y="340.5156"/><rect fill="none" height="664.2344" style="stroke:#000000;stroke-width:1.5;" width="1989.5" x="10" y="303.4688"/><line style="stroke:#181818;stroke-width:0.5;stroke-dasharray:5.0,5.0;" x1="89" x2="89" y1="85.3281" y2="984.7031"/><line style="stroke:#181818;stroke-width:0.5;stroke-dasharray:5.0,5.0;" x1="397" x2="397" y1="85.3281" y2="984.7031"/><line style="stroke:#181818;stroke-width:0.5;stroke-dasharray:5.0,5.0;" x1="597" x2="597" y1="85.3281" y2="984.7031"/><line style="stroke:#181818;stroke-width:0.5;stroke-dasharray:5.0,5.0;" x1="774" x2="774" y1="85.3281" y2="984.7031"/><line style="stroke:#181818;stroke-width:0.5;stroke-dasharray:5.0,5.0;" x1="924" x2="924" y1="85.3281" y2="984.7031"/><line style="stroke:#181818;stroke-width:0.5;stroke-dasharray:5.0,5.0;" x1="1094" x2="1094" y1="85.3281" y2="984.7031"/><line style="stroke:#181818;stroke-width:0.5;stroke-dasharray:5.0,5.0;" x1="1269.5" x2="1269.5" y1="85.3281" y2="984.7031"/><line style="stroke:#181818;stroke-width:0.5;stroke-dasharray:5.0,5.0;" x1="1510.5" x2="1510.5" y1="85.3281" y2="984.7031"/><line style="stroke:#181818;stroke-width:0.5;stroke-dasharray:5.0,5.0;" x1="1714.5" x2="1714.5" y1="85.3281" y2="984.7031"/><line style="stroke:#181818;stroke-width:0.5;stroke-dasharray:5.0,5.0;" x1="1911.5" x2="1911.5" y1="85.3281" y2="984.7031"/><text fill="#000000" font-family="sans-serif" font-size="14" lengthAdjust="spacing" textLength="133" x="20" y="82.3613">Warehouse Manager</text><ellipse cx="89.5" cy="18.1875" fill="#E2E2F0" rx="8" ry="8" style="stroke:#181818;stroke-width:0.5;"/><path d="M89.5,26.1875 L89.5,53.1875 M76.5,34.1875 L102.5,34.1875 M89.5,53.1875 L76.5,68.1875 M89.5,53.1875 L102.5,68.1875 " fill="none" style="stroke:#181818;stroke-width:0.5;"/><text fill="#000000" font-family="sans-serif" font-size="14" lengthAdjust="spacing" textLength="133" x="20" y="996.377">Warehouse Manager</text><ellipse cx="89.5" cy="1007.8438" fill="#E2E2F0" rx="8" ry="8" style="stroke:#181818;stroke-width:0.5;"/><path d="M89.5,1015.8438 L89.5,1042.8438 M76.5,1023.8438 L102.5,1023.8438 M89.5,1042.8438 L76.5,1057.8438 M89.5,1042.8438 L102.5,1057.8438 " fill="none" style="stroke:#181818;stroke-width:0.5;"/><rect fill="#E2E2F0" height="45.2813" rx="2.5" ry="2.5" style="stroke:#181818;stroke-width:0.5;" width="203" x="296" y="39.0469"/><text fill="#000000" font-family="sans-serif" font-size="14" font-style="italic" lengthAdjust="spacing" textLength="106" x="344.5" y="58.7207">«Container(C4)»</text><text fill="#000000" font-family="sans-serif" font-size="14" lengthAdjust="spacing" textLength="189" x="303" y="74.3613">CreateWarehouseComponent</text><rect fill="#E2E2F0" height="45.2813" rx="2.5" ry="2.5" style="stroke:#181818;stroke-width:0.5;" width="203" x="296" y="983.7031"/><text fill="#000000" font-family="sans-serif" font-size="14" font-style="italic" lengthAdjust="spacing" textLength="106" x="344.5" y="1003.377">«Container(C4)»</text><text fill="#000000" font-family="sans-serif" font-size="14" lengthAdjust="spacing" textLength="189" x="303" y="1019.0176">CreateWarehouseComponent</text><rect fill="#E2E2F0" height="45.2813" rx="2.5" ry="2.5" style="stroke:#181818;stroke-width:0.5;" width="177" x="509" y="39.0469"/><text fill="#000000" font-family="sans-serif" font-size="14" font-style="italic" lengthAdjust="spacing" textLength="106" x="544.5" y="58.7207">«Container(C4)»</text><text fill="#000000" font-family="sans-serif" font-size="14" lengthAdjust="spacing" textLength="163" x="516" y="74.3613">CreateWarehouseService</text><rect fill="#E2E2F0" height="45.2813" rx="2.5" ry="2.5" style="stroke:#181818;stroke-width:0.5;" width="177" x="509" y="983.7031"/><text fill="#000000" font-family="sans-serif" font-size="14" font-style="italic" lengthAdjust="spacing" textLength="106" x="544.5" y="1003.377">«Container(C4)»</text><text fill="#000000" font-family="sans-serif" font-size="14" lengthAdjust="spacing" textLength="163" x="516" y="1019.0176">CreateWarehouseService</text><rect fill="#E2E2F0" height="45.2813" rx="2.5" ry="2.5" style="stroke:#181818;stroke-width:0.5;" width="149" x="700" y="39.0469"/><text fill="#000000" font-family="sans-serif" font-size="14" font-style="italic" lengthAdjust="spacing" textLength="106" x="721.5" y="58.7207">«Container(C4)»</text><text fill="#000000" font-family="sans-serif" font-size="14" lengthAdjust="spacing" textLength="135" x="707" y="74.3613">WarehouseController</text><rect fill="#E2E2F0" height="45.2813" rx="2.5" ry="2.5" style="stroke:#181818;stroke-width:0.5;" width="149" x="700" y="983.7031"/><text fill="#000000" font-family="sans-serif" font-size="14" font-style="italic" lengthAdjust="spacing" textLength="106" x="721.5" y="1003.377">«Container(C4)»</text><text fill="#000000" font-family="sans-serif" font-size="14" lengthAdjust="spacing" textLength="135" x="707" y="1019.0176">WarehouseController</text><rect fill="#E2E2F0" height="45.2813" rx="2.5" ry="2.5" style="stroke:#181818;stroke-width:0.5;" width="131" x="859" y="39.0469"/><text fill="#000000" font-family="sans-serif" font-size="14" font-style="italic" lengthAdjust="spacing" textLength="117" x="866" y="58.7207">«Component(C4)»</text><text fill="#000000" font-family="sans-serif" font-size="14" lengthAdjust="spacing" textLength="111" x="869" y="74.3613">WarehouseRoute</text><rect fill="#E2E2F0" height="45.2813" rx="2.5" ry="2.5" style="stroke:#181818;stroke-width:0.5;" width="131" x="859" y="983.7031"/><text fill="#000000" font-family="sans-serif" font-size="14" font-style="italic" lengthAdjust="spacing" textLength="117" x="866" y="1003.377">«Component(C4)»</text><text fill="#000000" font-family="sans-serif" font-size="14" lengthAdjust="spacing" textLength="111" x="869" y="1019.0176">WarehouseRoute</text><rect fill="#E2E2F0" height="45.2813" rx="2.5" ry="2.5" style="stroke:#181818;stroke-width:0.5;" width="149" x="1020" y="39.0469"/><text fill="#000000" font-family="sans-serif" font-size="14" font-style="italic" lengthAdjust="spacing" textLength="117" x="1036" y="58.7207">«Component(C4)»</text><text fill="#000000" font-family="sans-serif" font-size="14" lengthAdjust="spacing" textLength="135" x="1027" y="74.3613">WarehouseController</text><rect fill="#E2E2F0" height="45.2813" rx="2.5" ry="2.5" style="stroke:#181818;stroke-width:0.5;" width="149" x="1020" y="983.7031"/><text fill="#000000" font-family="sans-serif" font-size="14" font-style="italic" lengthAdjust="spacing" textLength="117" x="1036" y="1003.377">«Component(C4)»</text><text fill="#000000" font-family="sans-serif" font-size="14" lengthAdjust="spacing" textLength="135" x="1027" y="1019.0176">WarehouseController</text><rect fill="#E2E2F0" height="45.2813" rx="2.5" ry="2.5" style="stroke:#181818;stroke-width:0.5;" width="134" x="1202.5" y="39.0469"/><text fill="#000000" font-family="sans-serif" font-size="14" font-style="italic" lengthAdjust="spacing" textLength="117" x="1211" y="58.7207">«Component(C4)»</text><text fill="#000000" font-family="sans-serif" font-size="14" lengthAdjust="spacing" textLength="120" x="1209.5" y="74.3613">WarehouseService</text><rect fill="#E2E2F0" height="45.2813" rx="2.5" ry="2.5" style="stroke:#181818;stroke-width:0.5;" width="134" x="1202.5" y="983.7031"/><text fill="#000000" font-family="sans-serif" font-size="14" font-style="italic" lengthAdjust="spacing" textLength="117" x="1211" y="1003.377">«Component(C4)»</text><text fill="#000000" font-family="sans-serif" font-size="14" lengthAdjust="spacing" textLength="120" x="1209.5" y="1019.0176">WarehouseService</text><rect fill="#E2E2F0" height="45.2813" rx="2.5" ry="2.5" style="stroke:#181818;stroke-width:0.5;" width="168" x="1426.5" y="39.0469"/><text fill="#000000" font-family="sans-serif" font-size="14" font-style="italic" lengthAdjust="spacing" textLength="117" x="1452" y="58.7207">«Component(C4)»</text><text fill="#000000" font-family="sans-serif" font-size="14" lengthAdjust="spacing" textLength="154" x="1433.5" y="74.3613">warehouse : Warehouse</text><rect fill="#E2E2F0" height="45.2813" rx="2.5" ry="2.5" style="stroke:#181818;stroke-width:0.5;" width="168" x="1426.5" y="983.7031"/><text fill="#000000" font-family="sans-serif" font-size="14" font-style="italic" lengthAdjust="spacing" textLength="117" x="1452" y="1003.377">«Component(C4)»</text><text fill="#000000" font-family="sans-serif" font-size="14" lengthAdjust="spacing" textLength="154" x="1433.5" y="1019.0176">warehouse : Warehouse</text><rect fill="#E2E2F0" height="45.2813" rx="2.5" ry="2.5" style="stroke:#181818;stroke-width:0.5;" width="220" x="1604.5" y="39.0469"/><text fill="#000000" font-family="sans-serif" font-size="14" font-style="italic" lengthAdjust="spacing" textLength="117" x="1656" y="58.7207">«Component(C4)»</text><text fill="#000000" font-family="sans-serif" font-size="14" lengthAdjust="spacing" textLength="206" x="1611.5" y="74.3613">warehouseDto : WarehouseDTO</text><rect fill="#E2E2F0" height="45.2813" rx="2.5" ry="2.5" style="stroke:#181818;stroke-width:0.5;" width="220" x="1604.5" y="983.7031"/><text fill="#000000" font-family="sans-serif" font-size="14" font-style="italic" lengthAdjust="spacing" textLength="117" x="1656" y="1003.377">«Component(C4)»</text><text fill="#000000" font-family="sans-serif" font-size="14" lengthAdjust="spacing" textLength="206" x="1611.5" y="1019.0176">warehouseDto : WarehouseDTO</text><rect fill="#E2E2F0" height="45.2813" rx="2.5" ry="2.5" style="stroke:#181818;stroke-width:0.5;" width="155" x="1834.5" y="39.0469"/><text fill="#000000" font-family="sans-serif" font-size="14" font-style="italic" lengthAdjust="spacing" textLength="117" x="1853.5" y="58.7207">«Component(C4)»</text><text fill="#000000" font-family="sans-serif" font-size="14" lengthAdjust="spacing" textLength="141" x="1841.5" y="74.3613">WarehouseRepository</text><rect fill="#E2E2F0" height="45.2813" rx="2.5" ry="2.5" style="stroke:#181818;stroke-width:0.5;" width="155" x="1834.5" y="983.7031"/><text fill="#000000" font-family="sans-serif" font-size="14" font-style="italic" lengthAdjust="spacing" textLength="117" x="1853.5" y="1003.377">«Component(C4)»</text><text fill="#000000" font-family="sans-serif" font-size="14" lengthAdjust="spacing" textLength="141" x="1841.5" y="1019.0176">WarehouseRepository</text><rect fill="#FFFFFF" height="58.5234" style="stroke:#181818;stroke-width:1.0;" width="10" x="392.5" y="115.8516"/><rect fill="#FFFFFF" height="58.5234" style="stroke:#181818;stroke-width:1.0;" width="10" x="392.5" y="598.7031"/><rect fill="#FFFFFF" height="28.5234" style="stroke:#181818;stroke-width:1.0;" width="10" x="392.5" y="931.1797"/><rect fill="#FFFFFF" height="144.0938" style="stroke:#181818;stroke-width:1.0;" width="10" x="592.5" y="144.375"/><rect fill="#FFFFFF" height="58.5234" style="stroke:#181818;stroke-width:1.0;" width="10" x="592.5" y="570.1797"/><rect fill="#FFFFFF" height="28.5234" style="stroke:#181818;stroke-width:1.0;" width="10" x="592.5" y="902.6563"/><rect fill="#FFFFFF" height="85.5703" style="stroke:#181818;stroke-width:1.0;" width="10" x="769.5" y="202.8984"/><rect fill="#FFFFFF" height="87.0469" style="stroke:#181818;stroke-width:1.0;" width="10" x="769.5" y="541.6563"/><rect fill="#FFFFFF" height="28.5234" style="stroke:#181818;stroke-width:1.0;" width="10" x="769.5" y="874.1328"/><rect fill="#FFFFFF" height="28.5234" style="stroke:#181818;stroke-width:1.0;" width="10" x="919.5" y="231.4219"/><rect fill="#FFFFFF" height="145.5703" style="stroke:#181818;stroke-width:1.0;" width="10" x="919.5" y="483.1328"/><rect fill="#FFFFFF" height="58.5234" style="stroke:#181818;stroke-width:1.0;" width="10" x="919.5" y="815.6094"/><rect fill="#FFFFFF" height="253.1875" style="stroke:#181818;stroke-width:1.0;" width="10" x="1089.5" y="259.9453"/><rect fill="#FFFFFF" height="88.5234" style="stroke:#181818;stroke-width:1.0;" width="10" x="1089.5" y="757.0859"/><rect fill="#FFFFFF" height="166.1406" style="stroke:#181818;stroke-width:1.0;" width="10" x="1264.5" y="288.4688"/><rect fill="#FFFFFF" height="129.8594" style="stroke:#181818;stroke-width:1.0;" width="10" x="1264.5" y="657.2266"/><rect fill="#FFFFFF" height="28.5234" style="stroke:#181818;stroke-width:1.0;" width="10" x="1505.5" y="397.5625"/><rect fill="#FFFFFF" height="28.5234" style="stroke:#181818;stroke-width:1.0;" width="10" x="1907" y="340.5156"/><polygon fill="#181818" points="380.5,111.8516,390.5,115.8516,380.5,119.8516,384.5,115.8516" style="stroke:#181818;stroke-width:1.0;"/><line style="stroke:#181818;stroke-width:1.0;" x1="89.5" x2="386.5" y1="115.8516" y2="115.8516"/><text fill="#000000" font-family="sans-serif" font-size="13" font-weight="bold" lengthAdjust="spacing" textLength="7" x="96.5" y="111.0967">1</text><text fill="#000000" font-family="sans-serif" font-size="13" lengthAdjust="spacing" textLength="273" x="107.5" y="111.0967">I want to consult the warehouses in the system</text><polygon fill="#181818" points="580.5,140.375,590.5,144.375,580.5,148.375,584.5,144.375" style="stroke:#181818;stroke-width:1.0;"/><line style="stroke:#181818;stroke-width:1.0;" x1="402.5" x2="586.5" y1="144.375" y2="144.375"/><text fill="#000000" font-family="sans-serif" font-size="13" font-weight="bold" lengthAdjust="spacing" textLength="7" x="409.5" y="139.6201">2</text><text fill="#000000" font-family="sans-serif" font-size="13" lengthAdjust="spacing" textLength="114" x="420.5" y="139.6201">getAllWarehouses()</text><polygon fill="#181818" points="757.5,198.8984,767.5,202.8984,757.5,206.8984,761.5,202.8984" style="stroke:#181818;stroke-width:1.0;"/><line style="stroke:#181818;stroke-width:1.0;" x1="602.5" x2="763.5" y1="202.8984" y2="202.8984"/><text fill="#000000" font-family="sans-serif" font-size="13" font-weight="bold" lengthAdjust="spacing" textLength="7" x="609.5" y="198.1436">3</text><text fill="#000000" font-family="sans-serif" font-size="13" lengthAdjust="spacing" textLength="137" x="620.5" y="198.1436">GET getAllWarehouse()</text><polygon fill="#181818" points="907.5,227.4219,917.5,231.4219,907.5,235.4219,911.5,231.4219" style="stroke:#181818;stroke-width:1.0;"/><line style="stroke:#181818;stroke-width:1.0;" x1="779.5" x2="913.5" y1="231.4219" y2="231.4219"/><text fill="#000000" font-family="sans-serif" font-size="13" font-weight="bold" lengthAdjust="spacing" textLength="7" x="786.5" y="226.667">4</text><text fill="#000000" font-family="sans-serif" font-size="13" lengthAdjust="spacing" textLength="74" x="797.5" y="226.667">GET GetAll()</text><polygon fill="#181818" points="1077.5,255.9453,1087.5,259.9453,1077.5,263.9453,1081.5,259.9453" style="stroke:#181818;stroke-width:1.0;"/><line style="stroke:#181818;stroke-width:1.0;" x1="924.5" x2="1083.5" y1="259.9453" y2="259.9453"/><text fill="#000000" font-family="sans-serif" font-size="13" font-weight="bold" lengthAdjust="spacing" textLength="7" x="931.5" y="255.1904">5</text><text fill="#000000" font-family="sans-serif" font-size="13" lengthAdjust="spacing" textLength="44" x="942.5" y="255.1904">GetAll()</text><polygon fill="#181818" points="1252.5,284.4688,1262.5,288.4688,1252.5,292.4688,1256.5,288.4688" style="stroke:#181818;stroke-width:1.0;"/><line style="stroke:#181818;stroke-width:1.0;" x1="1099.5" x2="1258.5" y1="288.4688" y2="288.4688"/><text fill="#000000" font-family="sans-serif" font-size="13" font-weight="bold" lengthAdjust="spacing" textLength="7" x="1106.5" y="283.7139">6</text><text fill="#000000" font-family="sans-serif" font-size="13" lengthAdjust="spacing" textLength="102" x="1117.5" y="283.7139">GetWarehouses()</text><path d="M10,303.4688 L71,303.4688 L71,309.9922 L61,319.9922 L10,319.9922 L10,303.4688 " fill="#EEEEEE" style="stroke:#000000;stroke-width:1.5;"/><rect fill="none" height="664.2344" style="stroke:#000000;stroke-width:1.5;" width="1989.5" x="10" y="303.4688"/><text fill="#000000" font-family="sans-serif" font-size="13" font-weight="bold" lengthAdjust="spacing" textLength="16" x="25" y="316.2373">alt</text><text fill="#000000" font-family="sans-serif" font-size="11" font-weight="bold" lengthAdjust="spacing" textLength="221" x="86" y="315.4268">[if there are warehouses in the system]</text><polygon fill="#181818" points="1895,336.5156,1905,340.5156,1895,344.5156,1899,340.5156" style="stroke:#181818;stroke-width:1.0;"/><line style="stroke:#181818;stroke-width:1.0;" x1="1274.5" x2="1901" y1="340.5156" y2="340.5156"/><text fill="#000000" font-family="sans-serif" font-size="13" font-weight="bold" lengthAdjust="spacing" textLength="7" x="1281.5" y="335.7607">7</text><text fill="#000000" font-family="sans-serif" font-size="13" lengthAdjust="spacing" textLength="44" x="1292.5" y="335.7607">GetAll()</text><polygon fill="#181818" points="1285.5,365.0391,1275.5,369.0391,1285.5,373.0391,1281.5,369.0391" style="stroke:#181818;stroke-width:1.0;"/><line style="stroke:#181818;stroke-width:1.0;stroke-dasharray:2.0,2.0;" x1="1279.5" x2="1911" y1="369.0391" y2="369.0391"/><text fill="#000000" font-family="sans-serif" font-size="13" font-weight="bold" lengthAdjust="spacing" textLength="7" x="1291.5" y="364.2842">8</text><text fill="#000000" font-family="sans-serif" font-size="13" lengthAdjust="spacing" textLength="103" x="1302.5" y="364.2842">listOfWarehouses</text><polygon fill="#181818" points="1493.5,393.5625,1503.5,397.5625,1493.5,401.5625,1497.5,397.5625" style="stroke:#181818;stroke-width:1.0;"/><line style="stroke:#181818;stroke-width:1.0;" x1="1274.5" x2="1499.5" y1="397.5625" y2="397.5625"/><text fill="#000000" font-family="sans-serif" font-size="13" font-weight="bold" lengthAdjust="spacing" textLength="7" x="1281.5" y="392.8076">9</text><text fill="#000000" font-family="sans-serif" font-size="13" lengthAdjust="spacing" textLength="201" x="1292.5" y="392.8076">toWarehouseDto(listOfWarehouse)</text><polygon fill="#181818" points="1285.5,422.0859,1275.5,426.0859,1285.5,430.0859,1281.5,426.0859" style="stroke:#181818;stroke-width:1.0;"/><line style="stroke:#181818;stroke-width:1.0;stroke-dasharray:2.0,2.0;" x1="1279.5" x2="1509.5" y1="426.0859" y2="426.0859"/><text fill="#000000" font-family="sans-serif" font-size="13" font-weight="bold" lengthAdjust="spacing" textLength="14" x="1291.5" y="421.3311">10</text><text fill="#000000" font-family="sans-serif" font-size="13" lengthAdjust="spacing" textLength="123" x="1309.5" y="421.3311">listOfWarehousesDto</text><polygon fill="#181818" points="1110.5,450.6094,1100.5,454.6094,1110.5,458.6094,1106.5,454.6094" style="stroke:#181818;stroke-width:1.0;"/><line style="stroke:#181818;stroke-width:1.0;stroke-dasharray:2.0,2.0;" x1="1104.5" x2="1268.5" y1="454.6094" y2="454.6094"/><text fill="#000000" font-family="sans-serif" font-size="13" font-weight="bold" lengthAdjust="spacing" textLength="14" x="1116.5" y="449.8545">11</text><text fill="#000000" font-family="sans-serif" font-size="13" lengthAdjust="spacing" textLength="123" x="1134.5" y="449.8545">listOfWarehousesDto</text><polygon fill="#181818" points="940.5,479.1328,930.5,483.1328,940.5,487.1328,936.5,483.1328" style="stroke:#181818;stroke-width:1.0;"/><line style="stroke:#181818;stroke-width:1.0;stroke-dasharray:2.0,2.0;" x1="934.5" x2="1088.5" y1="483.1328" y2="483.1328"/><text fill="#000000" font-family="sans-serif" font-size="13" font-weight="bold" lengthAdjust="spacing" textLength="14" x="946.5" y="478.3779">12</text><text fill="#000000" font-family="sans-serif" font-size="13" lengthAdjust="spacing" textLength="123" x="964.5" y="478.3779">listOfWarehousesDto</text><polygon fill="#181818" points="790.5,537.6563,780.5,541.6563,790.5,545.6563,786.5,541.6563" style="stroke:#181818;stroke-width:1.0;"/><line style="stroke:#181818;stroke-width:1.0;stroke-dasharray:2.0,2.0;" x1="784.5" x2="918.5" y1="541.6563" y2="541.6563"/><text fill="#000000" font-family="sans-serif" font-size="13" font-weight="bold" lengthAdjust="spacing" textLength="14" x="796.5" y="536.9014">13</text><text fill="#000000" font-family="sans-serif" font-size="13" lengthAdjust="spacing" textLength="44" x="814.5" y="536.9014">200 OK</text><polygon fill="#181818" points="613.5,566.1797,603.5,570.1797,613.5,574.1797,609.5,570.1797" style="stroke:#181818;stroke-width:1.0;"/><line style="stroke:#181818;stroke-width:1.0;stroke-dasharray:2.0,2.0;" x1="607.5" x2="768.5" y1="570.1797" y2="570.1797"/><text fill="#000000" font-family="sans-serif" font-size="13" font-weight="bold" lengthAdjust="spacing" textLength="14" x="619.5" y="565.4248">14</text><text fill="#000000" font-family="sans-serif" font-size="13" lengthAdjust="spacing" textLength="44" x="637.5" y="565.4248">200 OK</text><polygon fill="#181818" points="413.5,594.7031,403.5,598.7031,413.5,602.7031,409.5,598.7031" style="stroke:#181818;stroke-width:1.0;"/><line style="stroke:#181818;stroke-width:1.0;stroke-dasharray:2.0,2.0;" x1="407.5" x2="591.5" y1="598.7031" y2="598.7031"/><text fill="#000000" font-family="sans-serif" font-size="13" font-weight="bold" lengthAdjust="spacing" textLength="14" x="419.5" y="593.9482">15</text><text fill="#000000" font-family="sans-serif" font-size="13" lengthAdjust="spacing" textLength="44" x="437.5" y="593.9482">200 OK</text><polygon fill="#181818" points="100.5,653.2266,90.5,657.2266,100.5,661.2266,96.5,657.2266" style="stroke:#181818;stroke-width:1.0;"/><line style="stroke:#181818;stroke-width:1.0;stroke-dasharray:2.0,2.0;" x1="94.5" x2="396.5" y1="657.2266" y2="657.2266"/><text fill="#000000" font-family="sans-serif" font-size="13" font-weight="bold" lengthAdjust="spacing" textLength="14" x="106.5" y="652.4717">16</text><text fill="#000000" font-family="sans-serif" font-size="13" lengthAdjust="spacing" textLength="203" x="124.5" y="652.4717">show all warehouses in the system</text><line style="stroke:#000000;stroke-width:1.0;stroke-dasharray:2.0,2.0;" x1="10" x2="1999.5" y1="666.2266" y2="666.2266"/><text fill="#000000" font-family="sans-serif" font-size="11" font-weight="bold" lengthAdjust="spacing" textLength="238" x="15" y="676.1846">[If there are no warehouses in the system]</text><polygon fill="#181818" points="1900,696.0391,1910,700.0391,1900,704.0391,1904,700.0391" style="stroke:#181818;stroke-width:1.0;"/><line style="stroke:#181818;stroke-width:1.0;" x1="1274.5" x2="1906" y1="700.0391" y2="700.0391"/><text fill="#000000" font-family="sans-serif" font-size="13" font-weight="bold" lengthAdjust="spacing" textLength="14" x="1281.5" y="695.2842">17</text><text fill="#000000" font-family="sans-serif" font-size="13" lengthAdjust="spacing" textLength="44" x="1299.5" y="695.2842">GetAll()</text><polygon fill="#181818" points="1285.5,724.5625,1275.5,728.5625,1285.5,732.5625,1281.5,728.5625" style="stroke:#181818;stroke-width:1.0;"/><line style="stroke:#181818;stroke-width:1.0;stroke-dasharray:2.0,2.0;" x1="1279.5" x2="1911" y1="728.5625" y2="728.5625"/><text fill="#000000" font-family="sans-serif" font-size="13" font-weight="bold" lengthAdjust="spacing" textLength="14" x="1291.5" y="723.8076">18</text><text fill="#000000" font-family="sans-serif" font-size="13" lengthAdjust="spacing" textLength="20" x="1309.5" y="723.8076">null</text><polygon fill="#181818" points="1110.5,753.0859,1100.5,757.0859,1110.5,761.0859,1106.5,757.0859" style="stroke:#181818;stroke-width:1.0;"/><line style="stroke:#181818;stroke-width:1.0;stroke-dasharray:2.0,2.0;" x1="1104.5" x2="1263.5" y1="757.0859" y2="757.0859"/><text fill="#000000" font-family="sans-serif" font-size="13" font-weight="bold" lengthAdjust="spacing" textLength="14" x="1116.5" y="752.3311">19</text><text fill="#000000" font-family="sans-serif" font-size="13" lengthAdjust="spacing" textLength="20" x="1134.5" y="752.3311">null</text><polygon fill="#181818" points="940.5,811.6094,930.5,815.6094,940.5,819.6094,936.5,815.6094" style="stroke:#181818;stroke-width:1.0;"/><line style="stroke:#181818;stroke-width:1.0;stroke-dasharray:2.0,2.0;" x1="934.5" x2="1088.5" y1="815.6094" y2="815.6094"/><text fill="#000000" font-family="sans-serif" font-size="13" font-weight="bold" lengthAdjust="spacing" textLength="14" x="946.5" y="810.8545">20</text><text fill="#000000" font-family="sans-serif" font-size="13" lengthAdjust="spacing" textLength="20" x="964.5" y="810.8545">null</text><polygon fill="#181818" points="790.5,870.1328,780.5,874.1328,790.5,878.1328,786.5,874.1328" style="stroke:#181818;stroke-width:1.0;"/><line style="stroke:#181818;stroke-width:1.0;stroke-dasharray:2.0,2.0;" x1="784.5" x2="923.5" y1="874.1328" y2="874.1328"/><text fill="#000000" font-family="sans-serif" font-size="13" font-weight="bold" lengthAdjust="spacing" textLength="14" x="796.5" y="869.3779">21</text><text fill="#000000" font-family="sans-serif" font-size="13" lengthAdjust="spacing" textLength="100" x="814.5" y="869.3779">404 NOT FOUND</text><polygon fill="#181818" points="613.5,898.6563,603.5,902.6563,613.5,906.6563,609.5,902.6563" style="stroke:#181818;stroke-width:1.0;"/><line style="stroke:#181818;stroke-width:1.0;stroke-dasharray:2.0,2.0;" x1="607.5" x2="773.5" y1="902.6563" y2="902.6563"/><text fill="#000000" font-family="sans-serif" font-size="13" font-weight="bold" lengthAdjust="spacing" textLength="14" x="619.5" y="897.9014">22</text><text fill="#000000" font-family="sans-serif" font-size="13" lengthAdjust="spacing" textLength="100" x="637.5" y="897.9014">404 NOT FOUND</text><polygon fill="#181818" points="413.5,927.1797,403.5,931.1797,413.5,935.1797,409.5,931.1797" style="stroke:#181818;stroke-width:1.0;"/><line style="stroke:#181818;stroke-width:1.0;stroke-dasharray:2.0,2.0;" x1="407.5" x2="596.5" y1="931.1797" y2="931.1797"/><text fill="#000000" font-family="sans-serif" font-size="13" font-weight="bold" lengthAdjust="spacing" textLength="14" x="419.5" y="926.4248">23</text><text fill="#000000" font-family="sans-serif" font-size="13" lengthAdjust="spacing" textLength="100" x="437.5" y="926.4248">404 NOT FOUND</text><polygon fill="#181818" points="100.5,955.7031,90.5,959.7031,100.5,963.7031,96.5,959.7031" style="stroke:#181818;stroke-width:1.0;"/><line style="stroke:#181818;stroke-width:1.0;stroke-dasharray:2.0,2.0;" x1="94.5" x2="396.5" y1="959.7031" y2="959.7031"/><text fill="#000000" font-family="sans-serif" font-size="13" font-weight="bold" lengthAdjust="spacing" textLength="14" x="106.5" y="954.9482">24</text><text fill="#000000" font-family="sans-serif" font-size="13" lengthAdjust="spacing" textLength="261" x="124.5" y="954.9482">show message error "Warehouses not found"</text><!--MD5=[93d03c35d4a7bfb7bf9e077c4cfffb83]
@startuml
autonumber

actor "Warehouse Manager" as admin 

box "<<Container(C4)>>\n       UI" #LightYellow
participant CreateWarehouseComponent as uiComponent <<Container(C4)>>
participant CreateWarehouseService as uiService <<Container(C4)>>
box "<<Container(C4)>>\n       Auth" #LightBlue
participant WarehouseController as authController <<Container(C4)>>
box "<<Container(C4)>>\n    Warehouse Management" #LightGreen
participant WarehouseRoute as  WM <<Component(C4)>>
participant WarehouseController as  CTL <<Component(C4)>>
participant WarehouseService as  SV <<Component(C4)>>
participant "warehouse : Warehouse" as  W <<Component(C4)>>
participant "warehouseDto : WarehouseDTO" as  DTO <<Component(C4)>>
participant WarehouseRepository as  WR <<Component(C4)>>
end box
end box


admin -> uiComponent: I want to consult the warehouses in the system
activate uiComponent

uiComponent -> uiService : getAllWarehouses()
activate uiService
deactivate uiComponent
uiService -> authController : GET getAllWarehouse()
activate authController
authController -> WM : GET GetAll()
activate WM

WM -> CTL : GetAll()
deactivate WM
activate CTL
CTL -> SV : GetWarehouses()

deactivate authController
deactivate uiService
alt if there are warehouses in the system


activate SV 
SV -> WR : GetAll()
activate WR
WR - -> SV : listOfWarehouses
deactivate WR
SV -> W : toWarehouseDto(listOfWarehouse)
activate W

W - -> SV : listOfWarehousesDto
deactivate W
SV - -> CTL : listOfWarehousesDto
deactivate SV
CTL - -> WM : listOfWarehousesDto
activate WM
deactivate CTL
WM - -> authController : 200 OK
activate authController
authController - -> uiService : 200 OK
activate uiService
uiService - -> uiComponent : 200 OK
activate uiComponent

deactivate uiService

deactivate authController 
deactivate WM

uiComponent - -> admin: show all warehouses in the system
deactivate uiComponent

else If there are no warehouses in the system



activate SV 
SV -> WR : GetAll()

WR - -> SV : null

SV - -> CTL : null
activate CTL
deactivate SV
CTL - -> WM : null
activate WM


deactivate CTL
WM - -> authController : 404 NOT FOUND
deactivate WM
activate authController
authController - -> uiService : 404 NOT FOUND
deactivate authController
activate uiService
uiService - -> uiComponent : 404 NOT FOUND
deactivate uiService

activate uiComponent
 
uiComponent - -> admin: show message error "Warehouses not found"
deactivate uiComponent 


end

deactivate admin
@enduml

PlantUML version 1.2022.12(Sun Oct 23 19:12:26 WEST 2022)
(GPL source distribution)
Java Runtime: OpenJDK Runtime Environment
JVM: OpenJDK 64-Bit Server VM
Default Encoding: Cp1252
Language: pt
Country: BR
--></g></svg>