<?xml version="1.0" encoding="UTF-8" standalone="no"?><svg xmlns="http://www.w3.org/2000/svg" xmlns:xlink="http://www.w3.org/1999/xlink" contentStyleType="text/css" height="187px" preserveAspectRatio="none" style="width:562px;height:187px;background:#FFFFFF;" version="1.1" viewBox="0 0 562 187" width="562px" zoomAndPan="magnify"><defs/><g><!--MD5=[97ab183161fd5d1db7fba7485cf76add]
entity Admin--><g id="elem_Admin"><ellipse cx="289.5" cy="22" fill="#F1F1F1" rx="16" ry="16" style="stroke:#181818;stroke-width:1.5;"/><path d="M289.5,42 C293.5,42 296.5,42 300.5,38 C308.5,38 316.5,46 316.5,54 L316.5,58 C316.5,62 312.5,66 308.5,66 L270.5,66 C266.5,66 262.5,62 262.5,58 L262.5,54 C262.5,46 270.5,38 278.5,38 C282.5,42 285.5,42 289.5,42 " fill="#F1F1F1" style="stroke:#181818;stroke-width:1.5;"/><text fill="#000000" font-family="sans-serif" font-size="14" lengthAdjust="spacing" textLength="133" x="223" y="80.1738">Warehouse Manager</text></g><g id="elem_US1"><ellipse cx="88.7445" cy="162.4489" fill="#F1F1F1" rx="82.7445" ry="18.9489" style="stroke:#181818;stroke-width:0.5;"/><text fill="#000000" font-family="sans-serif" font-size="14" lengthAdjust="spacing" textLength="127" x="25.2445" y="165.3024">Create Warehouses</text></g><g id="elem_US2"><ellipse cx="289.6175" cy="162.6235" fill="#F1F1F1" rx="83.6175" ry="19.1235" style="stroke:#181818;stroke-width:0.5;"/><text fill="#000000" font-family="sans-serif" font-size="14" lengthAdjust="spacing" textLength="129" x="225.1175" y="165.477">Update Warehouses</text></g><g id="elem_US5"><ellipse cx="482.2809" cy="162.6562" fill="#F1F1F1" rx="73.7809" ry="17.1562" style="stroke:#181818;stroke-width:0.5;"/><text fill="#000000" font-family="sans-serif" font-size="14" lengthAdjust="spacing" textLength="106" x="429.2809" y="165.5097">List Warehouses</text></g><!--MD5=[010bdba11f7026484c94878b456da6d9]
link Admin to US1--><g id="link_Admin_US1"><path d="M222.85,83.63 C189.14,103.17 149.69,126.03 122.29,141.91 " fill="none" id="Admin-to-US1" style="stroke:#181818;stroke-width:1.0;"/><polygon fill="#181818" points="117.66,144.6,127.4499,143.5243,121.9799,142.0824,123.4218,136.6124,117.66,144.6" style="stroke:#181818;stroke-width:1.0;"/></g><!--MD5=[0216801507526561d239633d456b6b8c]
link Admin to US2--><g id="link_Admin_US2"><path d="M289.5,83.79 C289.5,101.87 289.5,122.77 289.5,138.34 " fill="none" id="Admin-to-US2" style="stroke:#181818;stroke-width:1.0;"/><polygon fill="#181818" points="289.5,143.41,293.5,134.41,289.5,138.41,285.5,134.41,289.5,143.41" style="stroke:#181818;stroke-width:1.0;"/></g><!--MD5=[cd001ac715c3b3271e8905a63127b805]
link Admin to US5--><g id="link_Admin_US5"><path d="M353.5,83.63 C387.11,103.92 426.67,127.8 453.03,143.71 " fill="none" id="Admin-to-US5" style="stroke:#181818;stroke-width:1.0;"/><polygon fill="#181818" points="457.47,146.39,451.8303,138.3157,453.1888,143.807,447.6975,145.1656,457.47,146.39" style="stroke:#181818;stroke-width:1.0;"/></g><!--MD5=[bcd5b84776dc7c5510d77373a234f024]
@startuml

skinparam actorStyle awesome
"Warehouse Manager" as Admin

"Create Warehouses" as (US1)
"Update Warehouses" as (US2)
"List Warehouses" as (US5)

Admin - -> (US1)
Admin - -> (US2)
Admin - -> (US5)
@enduml

PlantUML version 1.2022.12(Sun Oct 23 19:12:26 WEST 2022)
(GPL source distribution)
Java Runtime: OpenJDK Runtime Environment
JVM: OpenJDK 64-Bit Server VM
Default Encoding: Cp1252
Language: pt
Country: BR
--></g></svg>