<?xml version="1.0" encoding="UTF-8" standalone="no"?><svg xmlns="http://www.w3.org/2000/svg" xmlns:xlink="http://www.w3.org/1999/xlink" contentStyleType="text/css" height="1577px" preserveAspectRatio="none" style="width:2185px;height:1577px;background:#FFFFFF;" version="1.1" viewBox="0 0 2185 1577" width="2185px" zoomAndPan="magnify"><defs/><g><rect fill="#FFFFE0" height="1565.875" style="stroke:#181818;stroke-width:0.5;" width="433" x="266" y="6"/><text fill="#000000" font-family="sans-serif" font-size="13" font-weight="bold" lengthAdjust="spacing" textLength="118" x="423.5" y="17.7686">&lt;&lt;Container(C4)&gt;&gt;</text><text fill="#000000" font-family="sans-serif" font-size="13" font-weight="bold" lengthAdjust="spacing" textLength="13" x="451.5" y="32.292">UI</text><rect fill="#ADD8E6" height="1565.875" style="stroke:#181818;stroke-width:0.5;" width="157" x="774" y="6"/><text fill="#000000" font-family="sans-serif" font-size="13" font-weight="bold" lengthAdjust="spacing" textLength="118" x="793.5" y="17.7686">&lt;&lt;Container(C4)&gt;&gt;</text><text fill="#000000" font-family="sans-serif" font-size="13" font-weight="bold" lengthAdjust="spacing" textLength="29" x="821.5" y="32.292">Auth</text><rect fill="#90EE90" height="1565.875" style="stroke:#181818;stroke-width:0.5;" width="1239.5" x="933" y="6"/><text fill="#000000" font-family="sans-serif" font-size="13" font-weight="bold" lengthAdjust="spacing" textLength="118" x="1465.25" y="17.7686">&lt;&lt;Container(C4)&gt;&gt;</text><text fill="#000000" font-family="sans-serif" font-size="13" font-weight="bold" lengthAdjust="spacing" textLength="159" x="1481.25" y="32.292">Warehouse Management</text><rect fill="#FFFFFF" height="28.5234" style="stroke:#181818;stroke-width:1.0;" width="10" x="366.5" y="115.8516"/><rect fill="#FFFFFF" height="28.5234" style="stroke:#181818;stroke-width:1.0;" width="10" x="366.5" y="172.8984"/><rect fill="#FFFFFF" height="576.2891" style="stroke:#181818;stroke-width:1.0;" width="10" x="366.5" y="229.9453"/><rect fill="#FFFFFF" height="58.5234" style="stroke:#181818;stroke-width:1.0;" width="10" x="366.5" y="1050.1875"/><rect fill="#FFFFFF" height="58.5234" style="stroke:#181818;stroke-width:1.0;" width="10" x="366.5" y="1409.7109"/><rect fill="#FFFFFF" height="114.0938" style="stroke:#181818;stroke-width:1.0;" width="10" x="601.5" y="258.4688"/><rect fill="#FFFFFF" height="28.5234" style="stroke:#181818;stroke-width:1.0;" width="10" x="601.5" y="734.6641"/><rect fill="#FFFFFF" height="58.5234" style="stroke:#181818;stroke-width:1.0;" width="10" x="601.5" y="1021.6641"/><rect fill="#FFFFFF" height="58.5234" style="stroke:#181818;stroke-width:1.0;" width="10" x="601.5" y="1381.1875"/><rect fill="#FFFFFF" height="85.5703" style="stroke:#181818;stroke-width:1.0;" width="10" x="847.5" y="286.9922"/><rect fill="#FFFFFF" height="28.5234" style="stroke:#181818;stroke-width:1.0;" width="10" x="847.5" y="706.1406"/><rect fill="#FFFFFF" height="28.5234" style="stroke:#181818;stroke-width:1.0;" width="10" x="847.5" y="993.1406"/><rect fill="#FFFFFF" height="28.5234" style="stroke:#181818;stroke-width:1.0;" width="10" x="847.5" y="1352.6641"/><rect fill="#FFFFFF" height="57.0469" style="stroke:#181818;stroke-width:1.0;" width="10" x="997.5" y="315.5156"/><rect fill="#FFFFFF" height="28.5234" style="stroke:#181818;stroke-width:1.0;" width="10" x="997.5" y="677.6172"/><rect fill="#FFFFFF" height="28.5234" style="stroke:#181818;stroke-width:1.0;" width="10" x="997.5" y="964.6172"/><rect fill="#FFFFFF" height="28.5234" style="stroke:#181818;stroke-width:1.0;" width="10" x="997.5" y="1324.1406"/><rect fill="#FFFFFF" height="28.5234" style="stroke:#181818;stroke-width:1.0;" width="10" x="1193.5" y="344.0391"/><rect fill="#FFFFFF" height="58.5234" style="stroke:#181818;stroke-width:1.0;" width="10" x="1193.5" y="619.0938"/><rect fill="#FFFFFF" height="58.5234" style="stroke:#181818;stroke-width:1.0;" width="10" x="1193.5" y="906.0938"/><rect fill="#FFFFFF" height="58.5234" style="stroke:#181818;stroke-width:1.0;" width="10" x="1193.5" y="1265.6172"/><rect fill="#FFFFFF" height="276.5313" style="stroke:#181818;stroke-width:1.0;" width="10" x="1437.5" y="372.5625"/><rect fill="#FFFFFF" height="129.8594" style="stroke:#181818;stroke-width:1.0;" width="10" x="1437.5" y="806.2344"/><rect fill="#FFFFFF" height="186.9063" style="stroke:#181818;stroke-width:1.0;" width="10" x="1437.5" y="1108.7109"/><rect fill="#FFFFFF" height="30" style="stroke:#181818;stroke-width:1.0;" width="10" x="1684.5" y="503.5234"/><rect fill="#FFFFFF" height="28.5234" style="stroke:#181818;stroke-width:1.0;" width="10" x="1684.5" y="562.0469"/><rect fill="#FFFFFF" height="28.5234" style="stroke:#181818;stroke-width:1.0;" width="10" x="1684.5" y="1208.5703"/><rect fill="#FFFFFF" height="28.5234" style="stroke:#181818;stroke-width:1.0;" width="10" x="2086" y="446.4766"/><rect fill="#FFFFFF" height="28.5234" style="stroke:#181818;stroke-width:1.0;" width="10" x="2086" y="849.0469"/><rect fill="#FFFFFF" height="28.5234" style="stroke:#181818;stroke-width:1.0;" width="10" x="2086" y="1151.5234"/><rect fill="none" height="1088.6719" style="stroke:#000000;stroke-width:1.5;" width="2168.5" x="10" y="387.5625"/><line style="stroke:#181818;stroke-width:0.5;stroke-dasharray:5.0,5.0;" x1="89" x2="89" y1="85.3281" y2="1493.2344"/><line style="stroke:#181818;stroke-width:0.5;stroke-dasharray:5.0,5.0;" x1="371" x2="371" y1="85.3281" y2="1493.2344"/><line style="stroke:#181818;stroke-width:0.5;stroke-dasharray:5.0,5.0;" x1="606" x2="606" y1="85.3281" y2="1493.2344"/><line style="stroke:#181818;stroke-width:0.5;stroke-dasharray:5.0,5.0;" x1="852" x2="852" y1="85.3281" y2="1493.2344"/><line style="stroke:#181818;stroke-width:0.5;stroke-dasharray:5.0,5.0;" x1="1002" x2="1002" y1="85.3281" y2="1493.2344"/><line style="stroke:#181818;stroke-width:0.5;stroke-dasharray:5.0,5.0;" x1="1198" x2="1198" y1="85.3281" y2="1493.2344"/><line style="stroke:#181818;stroke-width:0.5;stroke-dasharray:5.0,5.0;" x1="1442.5" x2="1442.5" y1="85.3281" y2="1493.2344"/><line style="stroke:#181818;stroke-width:0.5;stroke-dasharray:5.0,5.0;" x1="1689.5" x2="1689.5" y1="85.3281" y2="1493.2344"/><line style="stroke:#181818;stroke-width:0.5;stroke-dasharray:5.0,5.0;" x1="1893.5" x2="1893.5" y1="85.3281" y2="1493.2344"/><line style="stroke:#181818;stroke-width:0.5;stroke-dasharray:5.0,5.0;" x1="2090.5" x2="2090.5" y1="85.3281" y2="1493.2344"/><text fill="#000000" font-family="sans-serif" font-size="14" lengthAdjust="spacing" textLength="133" x="20" y="82.3613">Warehouse Manager</text><ellipse cx="89.5" cy="18.1875" fill="#E2E2F0" rx="8" ry="8" style="stroke:#181818;stroke-width:0.5;"/><path d="M89.5,26.1875 L89.5,53.1875 M76.5,34.1875 L102.5,34.1875 M89.5,53.1875 L76.5,68.1875 M89.5,53.1875 L102.5,68.1875 " fill="none" style="stroke:#181818;stroke-width:0.5;"/><text fill="#000000" font-family="sans-serif" font-size="14" lengthAdjust="spacing" textLength="133" x="20" y="1504.9082">Warehouse Manager</text><ellipse cx="89.5" cy="1516.375" fill="#E2E2F0" rx="8" ry="8" style="stroke:#181818;stroke-width:0.5;"/><path d="M89.5,1524.375 L89.5,1551.375 M76.5,1532.375 L102.5,1532.375 M89.5,1551.375 L76.5,1566.375 M89.5,1551.375 L102.5,1566.375 " fill="none" style="stroke:#181818;stroke-width:0.5;"/><rect fill="#E2E2F0" height="45.2813" rx="2.5" ry="2.5" style="stroke:#181818;stroke-width:0.5;" width="203" x="270" y="39.0469"/><text fill="#000000" font-family="sans-serif" font-size="14" font-style="italic" lengthAdjust="spacing" textLength="106" x="318.5" y="58.7207">«Container(C4)»</text><text fill="#000000" font-family="sans-serif" font-size="14" lengthAdjust="spacing" textLength="189" x="277" y="74.3613">CreateWarehouseComponent</text><rect fill="#E2E2F0" height="45.2813" rx="2.5" ry="2.5" style="stroke:#181818;stroke-width:0.5;" width="203" x="270" y="1492.2344"/><text fill="#000000" font-family="sans-serif" font-size="14" font-style="italic" lengthAdjust="spacing" textLength="106" x="318.5" y="1511.9082">«Container(C4)»</text><text fill="#000000" font-family="sans-serif" font-size="14" lengthAdjust="spacing" textLength="189" x="277" y="1527.5488">CreateWarehouseComponent</text><rect fill="#E2E2F0" height="45.2813" rx="2.5" ry="2.5" style="stroke:#181818;stroke-width:0.5;" width="177" x="518" y="39.0469"/><text fill="#000000" font-family="sans-serif" font-size="14" font-style="italic" lengthAdjust="spacing" textLength="106" x="553.5" y="58.7207">«Container(C4)»</text><text fill="#000000" font-family="sans-serif" font-size="14" lengthAdjust="spacing" textLength="163" x="525" y="74.3613">CreateWarehouseService</text><rect fill="#E2E2F0" height="45.2813" rx="2.5" ry="2.5" style="stroke:#181818;stroke-width:0.5;" width="177" x="518" y="1492.2344"/><text fill="#000000" font-family="sans-serif" font-size="14" font-style="italic" lengthAdjust="spacing" textLength="106" x="553.5" y="1511.9082">«Container(C4)»</text><text fill="#000000" font-family="sans-serif" font-size="14" lengthAdjust="spacing" textLength="163" x="525" y="1527.5488">CreateWarehouseService</text><rect fill="#E2E2F0" height="45.2813" rx="2.5" ry="2.5" style="stroke:#181818;stroke-width:0.5;" width="149" x="778" y="39.0469"/><text fill="#000000" font-family="sans-serif" font-size="14" font-style="italic" lengthAdjust="spacing" textLength="106" x="799.5" y="58.7207">«Container(C4)»</text><text fill="#000000" font-family="sans-serif" font-size="14" lengthAdjust="spacing" textLength="135" x="785" y="74.3613">WarehouseController</text><rect fill="#E2E2F0" height="45.2813" rx="2.5" ry="2.5" style="stroke:#181818;stroke-width:0.5;" width="149" x="778" y="1492.2344"/><text fill="#000000" font-family="sans-serif" font-size="14" font-style="italic" lengthAdjust="spacing" textLength="106" x="799.5" y="1511.9082">«Container(C4)»</text><text fill="#000000" font-family="sans-serif" font-size="14" lengthAdjust="spacing" textLength="135" x="785" y="1527.5488">WarehouseController</text><rect fill="#E2E2F0" height="45.2813" rx="2.5" ry="2.5" style="stroke:#181818;stroke-width:0.5;" width="131" x="937" y="39.0469"/><text fill="#000000" font-family="sans-serif" font-size="14" font-style="italic" lengthAdjust="spacing" textLength="117" x="944" y="58.7207">«Component(C4)»</text><text fill="#000000" font-family="sans-serif" font-size="14" lengthAdjust="spacing" textLength="111" x="947" y="74.3613">WarehouseRoute</text><rect fill="#E2E2F0" height="45.2813" rx="2.5" ry="2.5" style="stroke:#181818;stroke-width:0.5;" width="131" x="937" y="1492.2344"/><text fill="#000000" font-family="sans-serif" font-size="14" font-style="italic" lengthAdjust="spacing" textLength="117" x="944" y="1511.9082">«Component(C4)»</text><text fill="#000000" font-family="sans-serif" font-size="14" lengthAdjust="spacing" textLength="111" x="947" y="1527.5488">WarehouseRoute</text><rect fill="#E2E2F0" height="45.2813" rx="2.5" ry="2.5" style="stroke:#181818;stroke-width:0.5;" width="149" x="1124" y="39.0469"/><text fill="#000000" font-family="sans-serif" font-size="14" font-style="italic" lengthAdjust="spacing" textLength="117" x="1140" y="58.7207">«Component(C4)»</text><text fill="#000000" font-family="sans-serif" font-size="14" lengthAdjust="spacing" textLength="135" x="1131" y="74.3613">WarehouseController</text><rect fill="#E2E2F0" height="45.2813" rx="2.5" ry="2.5" style="stroke:#181818;stroke-width:0.5;" width="149" x="1124" y="1492.2344"/><text fill="#000000" font-family="sans-serif" font-size="14" font-style="italic" lengthAdjust="spacing" textLength="117" x="1140" y="1511.9082">«Component(C4)»</text><text fill="#000000" font-family="sans-serif" font-size="14" lengthAdjust="spacing" textLength="135" x="1131" y="1527.5488">WarehouseController</text><rect fill="#E2E2F0" height="45.2813" rx="2.5" ry="2.5" style="stroke:#181818;stroke-width:0.5;" width="134" x="1375.5" y="39.0469"/><text fill="#000000" font-family="sans-serif" font-size="14" font-style="italic" lengthAdjust="spacing" textLength="117" x="1384" y="58.7207">«Component(C4)»</text><text fill="#000000" font-family="sans-serif" font-size="14" lengthAdjust="spacing" textLength="120" x="1382.5" y="74.3613">WarehouseService</text><rect fill="#E2E2F0" height="45.2813" rx="2.5" ry="2.5" style="stroke:#181818;stroke-width:0.5;" width="134" x="1375.5" y="1492.2344"/><text fill="#000000" font-family="sans-serif" font-size="14" font-style="italic" lengthAdjust="spacing" textLength="117" x="1384" y="1511.9082">«Component(C4)»</text><text fill="#000000" font-family="sans-serif" font-size="14" lengthAdjust="spacing" textLength="120" x="1382.5" y="1527.5488">WarehouseService</text><rect fill="#E2E2F0" height="45.2813" rx="2.5" ry="2.5" style="stroke:#181818;stroke-width:0.5;" width="168" x="1605.5" y="39.0469"/><text fill="#000000" font-family="sans-serif" font-size="14" font-style="italic" lengthAdjust="spacing" textLength="117" x="1631" y="58.7207">«Component(C4)»</text><text fill="#000000" font-family="sans-serif" font-size="14" lengthAdjust="spacing" textLength="154" x="1612.5" y="74.3613">warehouse : Warehouse</text><rect fill="#E2E2F0" height="45.2813" rx="2.5" ry="2.5" style="stroke:#181818;stroke-width:0.5;" width="168" x="1605.5" y="1492.2344"/><text fill="#000000" font-family="sans-serif" font-size="14" font-style="italic" lengthAdjust="spacing" textLength="117" x="1631" y="1511.9082">«Component(C4)»</text><text fill="#000000" font-family="sans-serif" font-size="14" lengthAdjust="spacing" textLength="154" x="1612.5" y="1527.5488">warehouse : Warehouse</text><rect fill="#E2E2F0" height="45.2813" rx="2.5" ry="2.5" style="stroke:#181818;stroke-width:0.5;" width="220" x="1783.5" y="39.0469"/><text fill="#000000" font-family="sans-serif" font-size="14" font-style="italic" lengthAdjust="spacing" textLength="117" x="1835" y="58.7207">«Component(C4)»</text><text fill="#000000" font-family="sans-serif" font-size="14" lengthAdjust="spacing" textLength="206" x="1790.5" y="74.3613">warehouseDto : WarehouseDTO</text><rect fill="#E2E2F0" height="45.2813" rx="2.5" ry="2.5" style="stroke:#181818;stroke-width:0.5;" width="220" x="1783.5" y="1492.2344"/><text fill="#000000" font-family="sans-serif" font-size="14" font-style="italic" lengthAdjust="spacing" textLength="117" x="1835" y="1511.9082">«Component(C4)»</text><text fill="#000000" font-family="sans-serif" font-size="14" lengthAdjust="spacing" textLength="206" x="1790.5" y="1527.5488">warehouseDto : WarehouseDTO</text><rect fill="#E2E2F0" height="45.2813" rx="2.5" ry="2.5" style="stroke:#181818;stroke-width:0.5;" width="155" x="2013.5" y="39.0469"/><text fill="#000000" font-family="sans-serif" font-size="14" font-style="italic" lengthAdjust="spacing" textLength="117" x="2032.5" y="58.7207">«Component(C4)»</text><text fill="#000000" font-family="sans-serif" font-size="14" lengthAdjust="spacing" textLength="141" x="2020.5" y="74.3613">WarehouseRepository</text><rect fill="#E2E2F0" height="45.2813" rx="2.5" ry="2.5" style="stroke:#181818;stroke-width:0.5;" width="155" x="2013.5" y="1492.2344"/><text fill="#000000" font-family="sans-serif" font-size="14" font-style="italic" lengthAdjust="spacing" textLength="117" x="2032.5" y="1511.9082">«Component(C4)»</text><text fill="#000000" font-family="sans-serif" font-size="14" lengthAdjust="spacing" textLength="141" x="2020.5" y="1527.5488">WarehouseRepository</text><rect fill="#FFFFFF" height="28.5234" style="stroke:#181818;stroke-width:1.0;" width="10" x="366.5" y="115.8516"/><rect fill="#FFFFFF" height="28.5234" style="stroke:#181818;stroke-width:1.0;" width="10" x="366.5" y="172.8984"/><rect fill="#FFFFFF" height="576.2891" style="stroke:#181818;stroke-width:1.0;" width="10" x="366.5" y="229.9453"/><rect fill="#FFFFFF" height="58.5234" style="stroke:#181818;stroke-width:1.0;" width="10" x="366.5" y="1050.1875"/><rect fill="#FFFFFF" height="58.5234" style="stroke:#181818;stroke-width:1.0;" width="10" x="366.5" y="1409.7109"/><rect fill="#FFFFFF" height="114.0938" style="stroke:#181818;stroke-width:1.0;" width="10" x="601.5" y="258.4688"/><rect fill="#FFFFFF" height="28.5234" style="stroke:#181818;stroke-width:1.0;" width="10" x="601.5" y="734.6641"/><rect fill="#FFFFFF" height="58.5234" style="stroke:#181818;stroke-width:1.0;" width="10" x="601.5" y="1021.6641"/><rect fill="#FFFFFF" height="58.5234" style="stroke:#181818;stroke-width:1.0;" width="10" x="601.5" y="1381.1875"/><rect fill="#FFFFFF" height="85.5703" style="stroke:#181818;stroke-width:1.0;" width="10" x="847.5" y="286.9922"/><rect fill="#FFFFFF" height="28.5234" style="stroke:#181818;stroke-width:1.0;" width="10" x="847.5" y="706.1406"/><rect fill="#FFFFFF" height="28.5234" style="stroke:#181818;stroke-width:1.0;" width="10" x="847.5" y="993.1406"/><rect fill="#FFFFFF" height="28.5234" style="stroke:#181818;stroke-width:1.0;" width="10" x="847.5" y="1352.6641"/><rect fill="#FFFFFF" height="57.0469" style="stroke:#181818;stroke-width:1.0;" width="10" x="997.5" y="315.5156"/><rect fill="#FFFFFF" height="28.5234" style="stroke:#181818;stroke-width:1.0;" width="10" x="997.5" y="677.6172"/><rect fill="#FFFFFF" height="28.5234" style="stroke:#181818;stroke-width:1.0;" width="10" x="997.5" y="964.6172"/><rect fill="#FFFFFF" height="28.5234" style="stroke:#181818;stroke-width:1.0;" width="10" x="997.5" y="1324.1406"/><rect fill="#FFFFFF" height="28.5234" style="stroke:#181818;stroke-width:1.0;" width="10" x="1193.5" y="344.0391"/><rect fill="#FFFFFF" height="58.5234" style="stroke:#181818;stroke-width:1.0;" width="10" x="1193.5" y="619.0938"/><rect fill="#FFFFFF" height="58.5234" style="stroke:#181818;stroke-width:1.0;" width="10" x="1193.5" y="906.0938"/><rect fill="#FFFFFF" height="58.5234" style="stroke:#181818;stroke-width:1.0;" width="10" x="1193.5" y="1265.6172"/><rect fill="#FFFFFF" height="276.5313" style="stroke:#181818;stroke-width:1.0;" width="10" x="1437.5" y="372.5625"/><rect fill="#FFFFFF" height="129.8594" style="stroke:#181818;stroke-width:1.0;" width="10" x="1437.5" y="806.2344"/><rect fill="#FFFFFF" height="186.9063" style="stroke:#181818;stroke-width:1.0;" width="10" x="1437.5" y="1108.7109"/><rect fill="#FFFFFF" height="30" style="stroke:#181818;stroke-width:1.0;" width="10" x="1684.5" y="503.5234"/><rect fill="#FFFFFF" height="28.5234" style="stroke:#181818;stroke-width:1.0;" width="10" x="1684.5" y="562.0469"/><rect fill="#FFFFFF" height="28.5234" style="stroke:#181818;stroke-width:1.0;" width="10" x="1684.5" y="1208.5703"/><rect fill="#FFFFFF" height="28.5234" style="stroke:#181818;stroke-width:1.0;" width="10" x="2086" y="446.4766"/><rect fill="#FFFFFF" height="28.5234" style="stroke:#181818;stroke-width:1.0;" width="10" x="2086" y="849.0469"/><rect fill="#FFFFFF" height="28.5234" style="stroke:#181818;stroke-width:1.0;" width="10" x="2086" y="1151.5234"/><polygon fill="#181818" points="354.5,111.8516,364.5,115.8516,354.5,119.8516,358.5,115.8516" style="stroke:#181818;stroke-width:1.0;"/><line style="stroke:#181818;stroke-width:1.0;" x1="89.5" x2="360.5" y1="115.8516" y2="115.8516"/><text fill="#000000" font-family="sans-serif" font-size="13" font-weight="bold" lengthAdjust="spacing" textLength="7" x="96.5" y="111.0967">1</text><text fill="#000000" font-family="sans-serif" font-size="13" lengthAdjust="spacing" textLength="247" x="107.5" y="111.0967">I want to update the details of a warehouse</text><polygon fill="#181818" points="100.5,140.375,90.5,144.375,100.5,148.375,96.5,144.375" style="stroke:#181818;stroke-width:1.0;"/><line style="stroke:#181818;stroke-width:1.0;stroke-dasharray:2.0,2.0;" x1="94.5" x2="370.5" y1="144.375" y2="144.375"/><text fill="#000000" font-family="sans-serif" font-size="13" font-weight="bold" lengthAdjust="spacing" textLength="7" x="106.5" y="139.6201">2</text><text fill="#000000" font-family="sans-serif" font-size="13" lengthAdjust="spacing" textLength="186" x="117.5" y="139.6201">asks for the ID of the warehouse</text><polygon fill="#181818" points="354.5,168.8984,364.5,172.8984,354.5,176.8984,358.5,172.8984" style="stroke:#181818;stroke-width:1.0;"/><line style="stroke:#181818;stroke-width:1.0;" x1="89.5" x2="360.5" y1="172.8984" y2="172.8984"/><text fill="#000000" font-family="sans-serif" font-size="13" font-weight="bold" lengthAdjust="spacing" textLength="7" x="96.5" y="168.1436">3</text><text fill="#000000" font-family="sans-serif" font-size="13" lengthAdjust="spacing" textLength="179" x="107.5" y="168.1436">inserts the ID of the warehouse</text><polygon fill="#181818" points="100.5,197.4219,90.5,201.4219,100.5,205.4219,96.5,201.4219" style="stroke:#181818;stroke-width:1.0;"/><line style="stroke:#181818;stroke-width:1.0;stroke-dasharray:2.0,2.0;" x1="94.5" x2="370.5" y1="201.4219" y2="201.4219"/><text fill="#000000" font-family="sans-serif" font-size="13" font-weight="bold" lengthAdjust="spacing" textLength="7" x="106.5" y="196.667">4</text><text fill="#000000" font-family="sans-serif" font-size="13" lengthAdjust="spacing" textLength="193" x="117.5" y="196.667">asks for the information to update</text><polygon fill="#181818" points="354.5,225.9453,364.5,229.9453,354.5,233.9453,358.5,229.9453" style="stroke:#181818;stroke-width:1.0;"/><line style="stroke:#181818;stroke-width:1.0;" x1="89.5" x2="360.5" y1="229.9453" y2="229.9453"/><text fill="#000000" font-family="sans-serif" font-size="13" font-weight="bold" lengthAdjust="spacing" textLength="7" x="96.5" y="225.1904">5</text><text fill="#000000" font-family="sans-serif" font-size="13" lengthAdjust="spacing" textLength="186" x="107.5" y="225.1904">inserts the information to update</text><polygon fill="#181818" points="589.5,254.4688,599.5,258.4688,589.5,262.4688,593.5,258.4688" style="stroke:#181818;stroke-width:1.0;"/><line style="stroke:#181818;stroke-width:1.0;" x1="376.5" x2="595.5" y1="258.4688" y2="258.4688"/><text fill="#000000" font-family="sans-serif" font-size="13" font-weight="bold" lengthAdjust="spacing" textLength="7" x="383.5" y="253.7139">6</text><text fill="#000000" font-family="sans-serif" font-size="13" lengthAdjust="spacing" textLength="195" x="394.5" y="253.7139">updateWarehouse(warehouseDto)</text><polygon fill="#181818" points="835.5,282.9922,845.5,286.9922,835.5,290.9922,839.5,286.9922" style="stroke:#181818;stroke-width:1.0;"/><line style="stroke:#181818;stroke-width:1.0;" x1="611.5" x2="841.5" y1="286.9922" y2="286.9922"/><text fill="#000000" font-family="sans-serif" font-size="13" font-weight="bold" lengthAdjust="spacing" textLength="7" x="618.5" y="282.2373">7</text><text fill="#000000" font-family="sans-serif" font-size="13" lengthAdjust="spacing" textLength="206" x="629.5" y="282.2373">PUT editWarehouse(warehouseDto)</text><polygon fill="#181818" points="985.5,311.5156,995.5,315.5156,985.5,319.5156,989.5,315.5156" style="stroke:#181818;stroke-width:1.0;"/><line style="stroke:#181818;stroke-width:1.0;" x1="857.5" x2="991.5" y1="315.5156" y2="315.5156"/><text fill="#000000" font-family="sans-serif" font-size="13" font-weight="bold" lengthAdjust="spacing" textLength="7" x="864.5" y="310.7607">8</text><text fill="#000000" font-family="sans-serif" font-size="13" lengthAdjust="spacing" textLength="78" x="875.5" y="310.7607">PUT Update()</text><polygon fill="#181818" points="1181.5,340.0391,1191.5,344.0391,1181.5,348.0391,1185.5,344.0391" style="stroke:#181818;stroke-width:1.0;"/><line style="stroke:#181818;stroke-width:1.0;" x1="1007.5" x2="1187.5" y1="344.0391" y2="344.0391"/><text fill="#000000" font-family="sans-serif" font-size="13" font-weight="bold" lengthAdjust="spacing" textLength="7" x="1014.5" y="339.2842">9</text><text fill="#000000" font-family="sans-serif" font-size="13" lengthAdjust="spacing" textLength="49" x="1025.5" y="339.2842">Update()</text><polygon fill="#181818" points="1425.5,368.5625,1435.5,372.5625,1425.5,376.5625,1429.5,372.5625" style="stroke:#181818;stroke-width:1.0;"/><line style="stroke:#181818;stroke-width:1.0;" x1="1198.5" x2="1431.5" y1="372.5625" y2="372.5625"/><text fill="#000000" font-family="sans-serif" font-size="13" font-weight="bold" lengthAdjust="spacing" textLength="14" x="1205.5" y="367.8076">10</text><text fill="#000000" font-family="sans-serif" font-size="13" lengthAdjust="spacing" textLength="197" x="1223.5" y="367.8076">UpdateWarehouse(warehouseDto)</text><path d="M10,387.5625 L71,387.5625 L71,394.0859 L61,404.0859 L10,404.0859 L10,387.5625 " fill="#EEEEEE" style="stroke:#000000;stroke-width:1.5;"/><rect fill="none" height="1088.6719" style="stroke:#000000;stroke-width:1.5;" width="2168.5" x="10" y="387.5625"/><text fill="#000000" font-family="sans-serif" font-size="13" font-weight="bold" lengthAdjust="spacing" textLength="16" x="25" y="400.3311">alt</text><text fill="#000000" font-family="sans-serif" font-size="11" font-weight="bold" lengthAdjust="spacing" textLength="266" x="86" y="399.5205">[If the Id entered matches the Id of a warehouse</text><text fill="#000000" font-family="sans-serif" font-size="11" font-weight="bold" lengthAdjust="spacing" textLength="247" x="92" y="411.8096">in the system and the business rules for the</text><text fill="#000000" font-family="sans-serif" font-size="11" font-weight="bold" lengthAdjust="spacing" textLength="166" x="92" y="424.0986">new attributes are respected]</text><polygon fill="#181818" points="2074,442.4766,2084,446.4766,2074,450.4766,2078,446.4766" style="stroke:#181818;stroke-width:1.0;"/><line style="stroke:#181818;stroke-width:1.0;" x1="1447.5" x2="2080" y1="446.4766" y2="446.4766"/><text fill="#000000" font-family="sans-serif" font-size="13" font-weight="bold" lengthAdjust="spacing" textLength="14" x="1454.5" y="441.7217">11</text><text fill="#000000" font-family="sans-serif" font-size="13" lengthAdjust="spacing" textLength="151" x="1472.5" y="441.7217">GetById(warehouseDto.Id)</text><polygon fill="#181818" points="1458.5,471,1448.5,475,1458.5,479,1454.5,475" style="stroke:#181818;stroke-width:1.0;"/><line style="stroke:#181818;stroke-width:1.0;stroke-dasharray:2.0,2.0;" x1="1452.5" x2="2090" y1="475" y2="475"/><text fill="#000000" font-family="sans-serif" font-size="13" font-weight="bold" lengthAdjust="spacing" textLength="14" x="1464.5" y="470.2451">12</text><text fill="#000000" font-family="sans-serif" font-size="13" lengthAdjust="spacing" textLength="62" x="1482.5" y="470.2451">warehouse</text><polygon fill="#181818" points="1672.5,499.5234,1682.5,503.5234,1672.5,507.5234,1676.5,503.5234" style="stroke:#181818;stroke-width:1.0;"/><line style="stroke:#181818;stroke-width:1.0;" x1="1447.5" x2="1678.5" y1="503.5234" y2="503.5234"/><text fill="#000000" font-family="sans-serif" font-size="13" font-weight="bold" lengthAdjust="spacing" textLength="14" x="1454.5" y="498.7686">13</text><text fill="#000000" font-family="sans-serif" font-size="13" lengthAdjust="spacing" textLength="131" x="1472.5" y="498.7686">Update(warehouseDto)</text><polygon fill="#181818" points="1672.5,558.0469,1682.5,562.0469,1672.5,566.0469,1676.5,562.0469" style="stroke:#181818;stroke-width:1.0;"/><line style="stroke:#181818;stroke-width:1.0;" x1="1447.5" x2="1678.5" y1="562.0469" y2="562.0469"/><text fill="#000000" font-family="sans-serif" font-size="13" font-weight="bold" lengthAdjust="spacing" textLength="14" x="1454.5" y="557.292">14</text><text fill="#000000" font-family="sans-serif" font-size="13" lengthAdjust="spacing" textLength="105" x="1472.5" y="557.292">toWarehouseDto()</text><polygon fill="#181818" points="1458.5,586.5703,1448.5,590.5703,1458.5,594.5703,1454.5,590.5703" style="stroke:#181818;stroke-width:1.0;"/><line style="stroke:#181818;stroke-width:1.0;stroke-dasharray:2.0,2.0;" x1="1452.5" x2="1688.5" y1="590.5703" y2="590.5703"/><text fill="#000000" font-family="sans-serif" font-size="13" font-weight="bold" lengthAdjust="spacing" textLength="14" x="1464.5" y="585.8154">15</text><text fill="#000000" font-family="sans-serif" font-size="13" lengthAdjust="spacing" textLength="82" x="1482.5" y="585.8154">warehouseDto</text><polygon fill="#181818" points="1214.5,615.0938,1204.5,619.0938,1214.5,623.0938,1210.5,619.0938" style="stroke:#181818;stroke-width:1.0;"/><line style="stroke:#181818;stroke-width:1.0;stroke-dasharray:2.0,2.0;" x1="1208.5" x2="1436.5" y1="619.0938" y2="619.0938"/><text fill="#000000" font-family="sans-serif" font-size="13" font-weight="bold" lengthAdjust="spacing" textLength="14" x="1220.5" y="614.3389">16</text><text fill="#000000" font-family="sans-serif" font-size="13" lengthAdjust="spacing" textLength="82" x="1238.5" y="614.3389">warehouseDto</text><polygon fill="#181818" points="1018.5,673.6172,1008.5,677.6172,1018.5,681.6172,1014.5,677.6172" style="stroke:#181818;stroke-width:1.0;"/><line style="stroke:#181818;stroke-width:1.0;stroke-dasharray:2.0,2.0;" x1="1012.5" x2="1197.5" y1="677.6172" y2="677.6172"/><text fill="#000000" font-family="sans-serif" font-size="13" font-weight="bold" lengthAdjust="spacing" textLength="14" x="1024.5" y="672.8623">17</text><text fill="#000000" font-family="sans-serif" font-size="13" lengthAdjust="spacing" textLength="82" x="1042.5" y="672.8623">warehouseDto</text><polygon fill="#181818" points="868.5,702.1406,858.5,706.1406,868.5,710.1406,864.5,706.1406" style="stroke:#181818;stroke-width:1.0;"/><line style="stroke:#181818;stroke-width:1.0;stroke-dasharray:2.0,2.0;" x1="862.5" x2="1001.5" y1="706.1406" y2="706.1406"/><text fill="#000000" font-family="sans-serif" font-size="13" font-weight="bold" lengthAdjust="spacing" textLength="14" x="874.5" y="701.3857">18</text><text fill="#000000" font-family="sans-serif" font-size="13" lengthAdjust="spacing" textLength="44" x="892.5" y="701.3857">200 OK</text><polygon fill="#181818" points="622.5,730.6641,612.5,734.6641,622.5,738.6641,618.5,734.6641" style="stroke:#181818;stroke-width:1.0;"/><line style="stroke:#181818;stroke-width:1.0;stroke-dasharray:2.0,2.0;" x1="616.5" x2="851.5" y1="734.6641" y2="734.6641"/><text fill="#000000" font-family="sans-serif" font-size="13" font-weight="bold" lengthAdjust="spacing" textLength="14" x="628.5" y="729.9092">19</text><text fill="#000000" font-family="sans-serif" font-size="13" lengthAdjust="spacing" textLength="44" x="646.5" y="729.9092">200 OK</text><polygon fill="#181818" points="387.5,759.1875,377.5,763.1875,387.5,767.1875,383.5,763.1875" style="stroke:#181818;stroke-width:1.0;"/><line style="stroke:#181818;stroke-width:1.0;stroke-dasharray:2.0,2.0;" x1="381.5" x2="605.5" y1="763.1875" y2="763.1875"/><text fill="#000000" font-family="sans-serif" font-size="13" font-weight="bold" lengthAdjust="spacing" textLength="14" x="393.5" y="758.4326">20</text><text fill="#000000" font-family="sans-serif" font-size="13" lengthAdjust="spacing" textLength="44" x="411.5" y="758.4326">200 OK</text><polygon fill="#181818" points="100.5,802.2344,90.5,806.2344,100.5,810.2344,96.5,806.2344" style="stroke:#181818;stroke-width:1.0;"/><line style="stroke:#181818;stroke-width:1.0;stroke-dasharray:2.0,2.0;" x1="94.5" x2="370.5" y1="806.2344" y2="806.2344"/><text fill="#000000" font-family="sans-serif" font-size="13" font-weight="bold" lengthAdjust="spacing" textLength="14" x="106.5" y="794.2178">21</text><text fill="#000000" font-family="sans-serif" font-size="13" lengthAdjust="spacing" textLength="212" x="124.5" y="786.9561">displays the updated information and</text><text fill="#000000" font-family="sans-serif" font-size="13" lengthAdjust="spacing" textLength="210" x="124.5" y="801.4795">informs about the operation success</text><line style="stroke:#000000;stroke-width:1.0;stroke-dasharray:2.0,2.0;" x1="10" x2="2178.5" y1="815.2344" y2="815.2344"/><text fill="#000000" font-family="sans-serif" font-size="11" font-weight="bold" lengthAdjust="spacing" textLength="387" x="15" y="825.1924">[If the Id entered does not match the Id of a warehouse in the system]</text><polygon fill="#181818" points="2074,845.0469,2084,849.0469,2074,853.0469,2078,849.0469" style="stroke:#181818;stroke-width:1.0;"/><line style="stroke:#181818;stroke-width:1.0;" x1="1447.5" x2="2080" y1="849.0469" y2="849.0469"/><text fill="#000000" font-family="sans-serif" font-size="13" font-weight="bold" lengthAdjust="spacing" textLength="14" x="1454.5" y="844.292">22</text><text fill="#000000" font-family="sans-serif" font-size="13" lengthAdjust="spacing" textLength="151" x="1472.5" y="844.292">GetById(warehouseDto.Id)</text><polygon fill="#181818" points="1458.5,873.5703,1448.5,877.5703,1458.5,881.5703,1454.5,877.5703" style="stroke:#181818;stroke-width:1.0;"/><line style="stroke:#181818;stroke-width:1.0;stroke-dasharray:2.0,2.0;" x1="1452.5" x2="2090" y1="877.5703" y2="877.5703"/><text fill="#000000" font-family="sans-serif" font-size="13" font-weight="bold" lengthAdjust="spacing" textLength="14" x="1464.5" y="872.8154">23</text><text fill="#000000" font-family="sans-serif" font-size="13" lengthAdjust="spacing" textLength="20" x="1482.5" y="872.8154">null</text><polygon fill="#181818" points="1214.5,902.0938,1204.5,906.0938,1214.5,910.0938,1210.5,906.0938" style="stroke:#181818;stroke-width:1.0;"/><line style="stroke:#181818;stroke-width:1.0;stroke-dasharray:2.0,2.0;" x1="1208.5" x2="1436.5" y1="906.0938" y2="906.0938"/><text fill="#000000" font-family="sans-serif" font-size="13" font-weight="bold" lengthAdjust="spacing" textLength="14" x="1220.5" y="901.3389">24</text><text fill="#000000" font-family="sans-serif" font-size="13" lengthAdjust="spacing" textLength="20" x="1238.5" y="901.3389">null</text><polygon fill="#181818" points="1018.5,960.6172,1008.5,964.6172,1018.5,968.6172,1014.5,964.6172" style="stroke:#181818;stroke-width:1.0;"/><line style="stroke:#181818;stroke-width:1.0;stroke-dasharray:2.0,2.0;" x1="1012.5" x2="1197.5" y1="964.6172" y2="964.6172"/><text fill="#000000" font-family="sans-serif" font-size="13" font-weight="bold" lengthAdjust="spacing" textLength="14" x="1024.5" y="959.8623">25</text><text fill="#000000" font-family="sans-serif" font-size="13" lengthAdjust="spacing" textLength="20" x="1042.5" y="959.8623">null</text><polygon fill="#181818" points="868.5,989.1406,858.5,993.1406,868.5,997.1406,864.5,993.1406" style="stroke:#181818;stroke-width:1.0;"/><line style="stroke:#181818;stroke-width:1.0;stroke-dasharray:2.0,2.0;" x1="862.5" x2="1001.5" y1="993.1406" y2="993.1406"/><text fill="#000000" font-family="sans-serif" font-size="13" font-weight="bold" lengthAdjust="spacing" textLength="14" x="874.5" y="988.3857">26</text><text fill="#000000" font-family="sans-serif" font-size="13" lengthAdjust="spacing" textLength="87" x="892.5" y="988.3857">409 CONFLICT</text><polygon fill="#181818" points="622.5,1017.6641,612.5,1021.6641,622.5,1025.6641,618.5,1021.6641" style="stroke:#181818;stroke-width:1.0;"/><line style="stroke:#181818;stroke-width:1.0;stroke-dasharray:2.0,2.0;" x1="616.5" x2="851.5" y1="1021.6641" y2="1021.6641"/><text fill="#000000" font-family="sans-serif" font-size="13" font-weight="bold" lengthAdjust="spacing" textLength="14" x="628.5" y="1016.9092">27</text><text fill="#000000" font-family="sans-serif" font-size="13" lengthAdjust="spacing" textLength="87" x="646.5" y="1016.9092">409 CONFLICT</text><polygon fill="#181818" points="387.5,1046.1875,377.5,1050.1875,387.5,1054.1875,383.5,1050.1875" style="stroke:#181818;stroke-width:1.0;"/><line style="stroke:#181818;stroke-width:1.0;stroke-dasharray:2.0,2.0;" x1="381.5" x2="600.5" y1="1050.1875" y2="1050.1875"/><text fill="#000000" font-family="sans-serif" font-size="13" font-weight="bold" lengthAdjust="spacing" textLength="14" x="393.5" y="1045.4326">28</text><text fill="#000000" font-family="sans-serif" font-size="13" lengthAdjust="spacing" textLength="87" x="411.5" y="1045.4326">409 CONFLICT</text><polygon fill="#181818" points="100.5,1104.7109,90.5,1108.7109,100.5,1112.7109,96.5,1108.7109" style="stroke:#181818;stroke-width:1.0;"/><line style="stroke:#181818;stroke-width:1.0;stroke-dasharray:2.0,2.0;" x1="94.5" x2="370.5" y1="1108.7109" y2="1108.7109"/><text fill="#000000" font-family="sans-serif" font-size="13" font-weight="bold" lengthAdjust="spacing" textLength="14" x="106.5" y="1103.9561">29</text><text fill="#000000" font-family="sans-serif" font-size="13" lengthAdjust="spacing" textLength="139" x="124.5" y="1103.9561">display a message error</text><line style="stroke:#000000;stroke-width:1.0;stroke-dasharray:2.0,2.0;" x1="10" x2="2178.5" y1="1117.7109" y2="1117.7109"/><text fill="#000000" font-family="sans-serif" font-size="11" font-weight="bold" lengthAdjust="spacing" textLength="349" x="15" y="1127.6689">[If the business rules for the new attributes are not respected]</text><polygon fill="#181818" points="2074,1147.5234,2084,1151.5234,2074,1155.5234,2078,1151.5234" style="stroke:#181818;stroke-width:1.0;"/><line style="stroke:#181818;stroke-width:1.0;" x1="1447.5" x2="2080" y1="1151.5234" y2="1151.5234"/><text fill="#000000" font-family="sans-serif" font-size="13" font-weight="bold" lengthAdjust="spacing" textLength="14" x="1454.5" y="1146.7686">30</text><text fill="#000000" font-family="sans-serif" font-size="13" lengthAdjust="spacing" textLength="151" x="1472.5" y="1146.7686">GetById(warehouseDto.Id)</text><polygon fill="#181818" points="1458.5,1176.0469,1448.5,1180.0469,1458.5,1184.0469,1454.5,1180.0469" style="stroke:#181818;stroke-width:1.0;"/><line style="stroke:#181818;stroke-width:1.0;stroke-dasharray:2.0,2.0;" x1="1452.5" x2="2090" y1="1180.0469" y2="1180.0469"/><text fill="#000000" font-family="sans-serif" font-size="13" font-weight="bold" lengthAdjust="spacing" textLength="14" x="1464.5" y="1175.292">31</text><text fill="#000000" font-family="sans-serif" font-size="13" lengthAdjust="spacing" textLength="62" x="1482.5" y="1175.292">warehouse</text><polygon fill="#181818" points="1672.5,1204.5703,1682.5,1208.5703,1672.5,1212.5703,1676.5,1208.5703" style="stroke:#181818;stroke-width:1.0;"/><line style="stroke:#181818;stroke-width:1.0;" x1="1447.5" x2="1678.5" y1="1208.5703" y2="1208.5703"/><text fill="#000000" font-family="sans-serif" font-size="13" font-weight="bold" lengthAdjust="spacing" textLength="14" x="1454.5" y="1203.8154">32</text><text fill="#000000" font-family="sans-serif" font-size="13" lengthAdjust="spacing" textLength="131" x="1472.5" y="1203.8154">Update(warehouseDto)</text><polygon fill="#181818" points="1458.5,1233.0938,1448.5,1237.0938,1458.5,1241.0938,1454.5,1237.0938" style="stroke:#181818;stroke-width:1.0;"/><line style="stroke:#181818;stroke-width:1.0;stroke-dasharray:2.0,2.0;" x1="1452.5" x2="1688.5" y1="1237.0938" y2="1237.0938"/><text fill="#000000" font-family="sans-serif" font-size="13" font-weight="bold" lengthAdjust="spacing" textLength="14" x="1464.5" y="1232.3389">33</text><text fill="#000000" font-family="sans-serif" font-size="13" lengthAdjust="spacing" textLength="195" x="1482.5" y="1232.3389">BusinessRuleValidationException</text><polygon fill="#181818" points="1214.5,1261.6172,1204.5,1265.6172,1214.5,1269.6172,1210.5,1265.6172" style="stroke:#181818;stroke-width:1.0;"/><line style="stroke:#181818;stroke-width:1.0;stroke-dasharray:2.0,2.0;" x1="1208.5" x2="1436.5" y1="1265.6172" y2="1265.6172"/><text fill="#000000" font-family="sans-serif" font-size="13" font-weight="bold" lengthAdjust="spacing" textLength="14" x="1220.5" y="1260.8623">34</text><text fill="#000000" font-family="sans-serif" font-size="13" lengthAdjust="spacing" textLength="149" x="1238.5" y="1260.8623">InvalidOperationException</text><polygon fill="#181818" points="1018.5,1320.1406,1008.5,1324.1406,1018.5,1328.1406,1014.5,1324.1406" style="stroke:#181818;stroke-width:1.0;"/><line style="stroke:#181818;stroke-width:1.0;stroke-dasharray:2.0,2.0;" x1="1012.5" x2="1197.5" y1="1324.1406" y2="1324.1406"/><text fill="#000000" font-family="sans-serif" font-size="13" font-weight="bold" lengthAdjust="spacing" textLength="14" x="1024.5" y="1319.3857">35</text><text fill="#000000" font-family="sans-serif" font-size="13" lengthAdjust="spacing" textLength="149" x="1042.5" y="1319.3857">InvalidOperationException</text><polygon fill="#181818" points="868.5,1348.6641,858.5,1352.6641,868.5,1356.6641,864.5,1352.6641" style="stroke:#181818;stroke-width:1.0;"/><line style="stroke:#181818;stroke-width:1.0;stroke-dasharray:2.0,2.0;" x1="862.5" x2="1001.5" y1="1352.6641" y2="1352.6641"/><text fill="#000000" font-family="sans-serif" font-size="13" font-weight="bold" lengthAdjust="spacing" textLength="14" x="874.5" y="1347.9092">36</text><text fill="#000000" font-family="sans-serif" font-size="13" lengthAdjust="spacing" textLength="87" x="892.5" y="1347.9092">409 CONFLICT</text><polygon fill="#181818" points="622.5,1377.1875,612.5,1381.1875,622.5,1385.1875,618.5,1381.1875" style="stroke:#181818;stroke-width:1.0;"/><line style="stroke:#181818;stroke-width:1.0;stroke-dasharray:2.0,2.0;" x1="616.5" x2="851.5" y1="1381.1875" y2="1381.1875"/><text fill="#000000" font-family="sans-serif" font-size="13" font-weight="bold" lengthAdjust="spacing" textLength="14" x="628.5" y="1376.4326">37</text><text fill="#000000" font-family="sans-serif" font-size="13" lengthAdjust="spacing" textLength="87" x="646.5" y="1376.4326">409 CONFLICT</text><polygon fill="#181818" points="387.5,1405.7109,377.5,1409.7109,387.5,1413.7109,383.5,1409.7109" style="stroke:#181818;stroke-width:1.0;"/><line style="stroke:#181818;stroke-width:1.0;stroke-dasharray:2.0,2.0;" x1="381.5" x2="600.5" y1="1409.7109" y2="1409.7109"/><text fill="#000000" font-family="sans-serif" font-size="13" font-weight="bold" lengthAdjust="spacing" textLength="14" x="393.5" y="1404.9561">38</text><text fill="#000000" font-family="sans-serif" font-size="13" lengthAdjust="spacing" textLength="87" x="411.5" y="1404.9561">409 CONFLICT</text><polygon fill="#181818" points="100.5,1464.2344,90.5,1468.2344,100.5,1472.2344,96.5,1468.2344" style="stroke:#181818;stroke-width:1.0;"/><line style="stroke:#181818;stroke-width:1.0;stroke-dasharray:2.0,2.0;" x1="94.5" x2="370.5" y1="1468.2344" y2="1468.2344"/><text fill="#000000" font-family="sans-serif" font-size="13" font-weight="bold" lengthAdjust="spacing" textLength="14" x="106.5" y="1463.4795">39</text><text fill="#000000" font-family="sans-serif" font-size="13" lengthAdjust="spacing" textLength="139" x="124.5" y="1463.4795">display a message error</text><!--MD5=[8e32b83849614b9edca41092fade8df4]
@startuml 
autonumber

actor "Warehouse Manager" as admin
box "<<Container(C4)>>\n       UI" #LightYellow
participant CreateWarehouseComponent as uiComponent <<Container(C4)>>
participant CreateWarehouseService as uiService <<Container(C4)>>
box "<<Container(C4)>>\n       Auth" #LightBlue
participant WarehouseController as authController <<Container(C4)>>
box "<<Container(C4)>>\n    Warehouse Management" #LightGreen
participant WarehouseRoute as  WM <<Component(C4)>>
participant WarehouseController as  CTL <<Component(C4)>>
participant WarehouseService as  SV <<Component(C4)>>
participant "warehouse : Warehouse" as  W <<Component(C4)>>
participant "warehouseDto : WarehouseDTO" as  DTO <<Component(C4)>>
participant WarehouseRepository as  WR <<Component(C4)>>
end box

end box

admin -> uiComponent: I want to update the details of a warehouse
activate uiComponent

uiComponent - -> admin: asks for the ID of the warehouse
deactivate uiComponent

admin -> uiComponent: inserts the ID of the warehouse
activate uiComponent

uiComponent - -> admin: asks for the information to update
deactivate uiComponent

admin -> uiComponent: inserts the information to update
activate uiComponent

uiComponent -> uiService : updateWarehouse(warehouseDto)
activate uiService
uiService -> authController : PUT editWarehouse(warehouseDto)
activate authController
authController -> WM : PUT Update()
activate WM 
WM -> CTL : Update()
activate CTL
CTL -> SV : UpdateWarehouse(warehouseDto)
deactivate CTL
deactivate WM
deactivate authController
deactivate uiService
alt If the Id entered matches the Id of a warehouse\n  in the system and the business rules for the\n  new attributes are respected
activate SV
SV -> WR : GetById(warehouseDto.Id)

activate WR


WR - -> SV : warehouse 
deactivate WR

SV -> W : Update(warehouseDto)
activate W

deactivate W

SV -> W : toWarehouseDto()
activate W

W - -> SV : warehouseDto
deactivate W 
SV - -> CTL : warehouseDto
activate CTL
deactivate SV

CTL - -> WM : warehouseDto
deactivate CTL
activate WM



WM - -> authController : 200 OK 
deactivate WM
activate authController
authController - -> uiService : 200 OK 
deactivate authController
activate uiService
uiService - -> uiComponent : 200 OK 
deactivate uiService


uiComponent - -> admin: displays the updated information and \ninforms about the operation success
deactivate uiComponent

else If the Id entered does not match the Id of a warehouse in the system


activate SV

SV -> WR : GetById(warehouseDto.Id)
activate WR

WR - -> SV : null 
deactivate WR


SV - -> CTL : null
activate CTL

deactivate SV

CTL - -> WM : null
deactivate CTL
activate WM
WM - -> authController : 409 CONFLICT 
deactivate WM
activate authController
authController - -> uiService : 409 CONFLICT 
deactivate authController
activate uiService
uiService - -> uiComponent : 409 CONFLICT 
activate uiComponent
deactivate uiService

deactivate WM


uiComponent - -> admin : display a message error
deactivate uiComponent

else  If the business rules for the new attributes are not respected

activate SV

SV -> WR : GetById(warehouseDto.Id)
activate WR

WR - -> SV : warehouse 
deactivate WR

SV -> W : Update(warehouseDto)
activate W

W - -> SV : BusinessRuleValidationException
deactivate W 
SV - -> CTL : InvalidOperationException

activate CTL
deactivate SV

CTL - -> WM : InvalidOperationException
deactivate CTL 
activate WM
WM - -> authController : 409 CONFLICT 
deactivate WM
activate authController
authController - -> uiService : 409 CONFLICT 
deactivate authController
activate uiService
uiService - -> uiComponent : 409 CONFLICT 
activate uiComponent
deactivate uiService
uiComponent - -> admin : display a message error
deactivate uiComponent
end 


deactivate uiComponent
deactivate admin

@enduml

PlantUML version 1.2022.12(Sun Oct 23 19:12:26 WEST 2022)
(GPL source distribution)
Java Runtime: OpenJDK Runtime Environment
JVM: OpenJDK 64-Bit Server VM
Default Encoding: Cp1252
Language: pt
Country: BR
--></g></svg>