<?xml version="1.0" encoding="UTF-8" standalone="no"?><svg xmlns="http://www.w3.org/2000/svg" xmlns:xlink="http://www.w3.org/1999/xlink" contentStyleType="text/css" height="520px" preserveAspectRatio="none" style="width:673px;height:520px;background:#FFFFFF;" version="1.1" viewBox="0 0 673 520" width="673px" zoomAndPan="magnify"><defs/><g><rect fill="#DDDDDD" height="508.0156" style="stroke:#181818;stroke-width:0.5;" width="367.5" x="292.5" y="6"/><text fill="#000000" font-family="sans-serif" font-size="13" font-weight="bold" lengthAdjust="spacing" textLength="114" x="419.25" y="17.7686">&lt;&lt;EletricGo(C4)&gt;&gt;</text><text fill="#000000" font-family="sans-serif" font-size="13" font-weight="bold" lengthAdjust="spacing" textLength="46" x="447.25" y="32.292">System</text><rect fill="#FFFFFF" height="28.5234" style="stroke:#181818;stroke-width:1.0;" width="10" x="351.5" y="115.8516"/><rect fill="#FFFFFF" height="28.5234" style="stroke:#181818;stroke-width:1.0;" width="10" x="351.5" y="172.8984"/><rect fill="#FFFFFF" height="109.0938" style="stroke:#181818;stroke-width:1.0;" width="10" x="351.5" y="229.9453"/><rect fill="#FFFFFF" height="28.5234" style="stroke:#181818;stroke-width:1.0;" width="10" x="351.5" y="381.8516"/><rect fill="#FFFFFF" height="52.0469" style="stroke:#181818;stroke-width:1.0;" width="10" x="566.5" y="258.4688"/><rect fill="#FFFFFF" height="42.8125" style="stroke:#181818;stroke-width:1.0;" width="10" x="566.5" y="339.0391"/><rect fill="none" height="144.9063" style="stroke:#000000;stroke-width:1.5;" width="656" x="10" y="273.4688"/><line style="stroke:#181818;stroke-width:0.5;stroke-dasharray:5.0,5.0;" x1="89" x2="89" y1="85.3281" y2="435.375"/><line style="stroke:#181818;stroke-width:0.5;stroke-dasharray:5.0,5.0;" x1="356.5" x2="356.5" y1="85.3281" y2="435.375"/><line style="stroke:#181818;stroke-width:0.5;stroke-dasharray:5.0,5.0;" x1="571" x2="571" y1="85.3281" y2="435.375"/><text fill="#000000" font-family="sans-serif" font-size="14" lengthAdjust="spacing" textLength="133" x="20" y="82.3613">Warehouse Manager</text><ellipse cx="89.5" cy="18.1875" fill="#E2E2F0" rx="8" ry="8" style="stroke:#181818;stroke-width:0.5;"/><path d="M89.5,26.1875 L89.5,53.1875 M76.5,34.1875 L102.5,34.1875 M89.5,53.1875 L76.5,68.1875 M89.5,53.1875 L102.5,68.1875 " fill="none" style="stroke:#181818;stroke-width:0.5;"/><text fill="#000000" font-family="sans-serif" font-size="14" lengthAdjust="spacing" textLength="133" x="20" y="447.0488">Warehouse Manager</text><ellipse cx="89.5" cy="458.5156" fill="#E2E2F0" rx="8" ry="8" style="stroke:#181818;stroke-width:0.5;"/><path d="M89.5,466.5156 L89.5,493.5156 M76.5,474.5156 L102.5,474.5156 M89.5,493.5156 L76.5,508.5156 M89.5,493.5156 L102.5,508.5156 " fill="none" style="stroke:#181818;stroke-width:0.5;"/><rect fill="#E2E2F0" height="45.2813" rx="2.5" ry="2.5" style="stroke:#181818;stroke-width:0.5;" width="120" x="296.5" y="39.0469"/><text fill="#000000" font-family="sans-serif" font-size="14" font-style="italic" lengthAdjust="spacing" textLength="106" x="303.5" y="58.7207">«Container(C4)»</text><text fill="#000000" font-family="sans-serif" font-size="14" lengthAdjust="spacing" textLength="29" x="342" y="74.3613">Auth</text><rect fill="#E2E2F0" height="45.2813" rx="2.5" ry="2.5" style="stroke:#181818;stroke-width:0.5;" width="120" x="296.5" y="434.375"/><text fill="#000000" font-family="sans-serif" font-size="14" font-style="italic" lengthAdjust="spacing" textLength="106" x="303.5" y="454.0488">«Container(C4)»</text><text fill="#000000" font-family="sans-serif" font-size="14" lengthAdjust="spacing" textLength="29" x="342" y="469.6895">Auth</text><rect fill="#E2E2F0" height="45.2813" rx="2.5" ry="2.5" style="stroke:#181818;stroke-width:0.5;" width="169" x="487" y="39.0469"/><text fill="#000000" font-family="sans-serif" font-size="14" font-style="italic" lengthAdjust="spacing" textLength="106" x="518.5" y="58.7207">«Container(C4)»</text><text fill="#000000" font-family="sans-serif" font-size="14" lengthAdjust="spacing" textLength="155" x="494" y="74.3613">WarehouseManagement</text><rect fill="#E2E2F0" height="45.2813" rx="2.5" ry="2.5" style="stroke:#181818;stroke-width:0.5;" width="169" x="487" y="434.375"/><text fill="#000000" font-family="sans-serif" font-size="14" font-style="italic" lengthAdjust="spacing" textLength="106" x="518.5" y="454.0488">«Container(C4)»</text><text fill="#000000" font-family="sans-serif" font-size="14" lengthAdjust="spacing" textLength="155" x="494" y="469.6895">WarehouseManagement</text><rect fill="#FFFFFF" height="28.5234" style="stroke:#181818;stroke-width:1.0;" width="10" x="351.5" y="115.8516"/><rect fill="#FFFFFF" height="28.5234" style="stroke:#181818;stroke-width:1.0;" width="10" x="351.5" y="172.8984"/><rect fill="#FFFFFF" height="109.0938" style="stroke:#181818;stroke-width:1.0;" width="10" x="351.5" y="229.9453"/><rect fill="#FFFFFF" height="28.5234" style="stroke:#181818;stroke-width:1.0;" width="10" x="351.5" y="381.8516"/><rect fill="#FFFFFF" height="52.0469" style="stroke:#181818;stroke-width:1.0;" width="10" x="566.5" y="258.4688"/><rect fill="#FFFFFF" height="42.8125" style="stroke:#181818;stroke-width:1.0;" width="10" x="566.5" y="339.0391"/><polygon fill="#181818" points="339.5,111.8516,349.5,115.8516,339.5,119.8516,343.5,115.8516" style="stroke:#181818;stroke-width:1.0;"/><line style="stroke:#181818;stroke-width:1.0;" x1="89.5" x2="345.5" y1="115.8516" y2="115.8516"/><text fill="#000000" font-family="sans-serif" font-size="13" font-weight="bold" lengthAdjust="spacing" textLength="7" x="96.5" y="111.0967">1</text><text fill="#000000" font-family="sans-serif" font-size="13" lengthAdjust="spacing" textLength="165" x="107.5" y="111.0967">I want to delete a warehouse</text><polygon fill="#181818" points="100.5,140.375,90.5,144.375,100.5,148.375,96.5,144.375" style="stroke:#181818;stroke-width:1.0;"/><line style="stroke:#181818;stroke-width:1.0;stroke-dasharray:2.0,2.0;" x1="94.5" x2="355.5" y1="144.375" y2="144.375"/><text fill="#000000" font-family="sans-serif" font-size="13" font-weight="bold" lengthAdjust="spacing" textLength="7" x="106.5" y="139.6201">2</text><text fill="#000000" font-family="sans-serif" font-size="13" lengthAdjust="spacing" textLength="186" x="117.5" y="139.6201">asks for the ID of the warehouse</text><polygon fill="#181818" points="339.5,168.8984,349.5,172.8984,339.5,176.8984,343.5,172.8984" style="stroke:#181818;stroke-width:1.0;"/><line style="stroke:#181818;stroke-width:1.0;" x1="89.5" x2="345.5" y1="172.8984" y2="172.8984"/><text fill="#000000" font-family="sans-serif" font-size="13" font-weight="bold" lengthAdjust="spacing" textLength="7" x="96.5" y="168.1436">3</text><text fill="#000000" font-family="sans-serif" font-size="13" lengthAdjust="spacing" textLength="179" x="107.5" y="168.1436">inserts the ID of the warehouse</text><polygon fill="#181818" points="100.5,197.4219,90.5,201.4219,100.5,205.4219,96.5,201.4219" style="stroke:#181818;stroke-width:1.0;"/><line style="stroke:#181818;stroke-width:1.0;stroke-dasharray:2.0,2.0;" x1="94.5" x2="355.5" y1="201.4219" y2="201.4219"/><text fill="#000000" font-family="sans-serif" font-size="13" font-weight="bold" lengthAdjust="spacing" textLength="7" x="106.5" y="196.667">4</text><text fill="#000000" font-family="sans-serif" font-size="13" lengthAdjust="spacing" textLength="227" x="117.5" y="196.667">asks for the confirmation of the deletion</text><polygon fill="#181818" points="339.5,225.9453,349.5,229.9453,339.5,233.9453,343.5,229.9453" style="stroke:#181818;stroke-width:1.0;"/><line style="stroke:#181818;stroke-width:1.0;" x1="89.5" x2="345.5" y1="229.9453" y2="229.9453"/><text fill="#000000" font-family="sans-serif" font-size="13" font-weight="bold" lengthAdjust="spacing" textLength="7" x="96.5" y="225.1904">5</text><text fill="#000000" font-family="sans-serif" font-size="13" lengthAdjust="spacing" textLength="120" x="107.5" y="225.1904">confirms the deletion</text><polygon fill="#181818" points="554.5,254.4688,564.5,258.4688,554.5,262.4688,558.5,258.4688" style="stroke:#181818;stroke-width:1.0;"/><line style="stroke:#181818;stroke-width:1.0;" x1="361.5" x2="560.5" y1="258.4688" y2="258.4688"/><text fill="#000000" font-family="sans-serif" font-size="13" font-weight="bold" lengthAdjust="spacing" textLength="7" x="368.5" y="253.7139">6</text><text fill="#000000" font-family="sans-serif" font-size="13" lengthAdjust="spacing" textLength="175" x="379.5" y="253.7139">DELETE DeleteWarehouse(id)</text><path d="M10,273.4688 L71,273.4688 L71,279.9922 L61,289.9922 L10,289.9922 L10,273.4688 " fill="#EEEEEE" style="stroke:#000000;stroke-width:1.5;"/><rect fill="none" height="144.9063" style="stroke:#000000;stroke-width:1.5;" width="656" x="10" y="273.4688"/><text fill="#000000" font-family="sans-serif" font-size="13" font-weight="bold" lengthAdjust="spacing" textLength="16" x="25" y="286.2373">alt</text><text fill="#000000" font-family="sans-serif" font-size="11" font-weight="bold" lengthAdjust="spacing" textLength="323" x="86" y="285.4268">[If there is a warehouse in the system with the id entered]</text><polygon fill="#181818" points="372.5,306.5156,362.5,310.5156,372.5,314.5156,368.5,310.5156" style="stroke:#181818;stroke-width:1.0;"/><line style="stroke:#181818;stroke-width:1.0;stroke-dasharray:2.0,2.0;" x1="366.5" x2="570.5" y1="310.5156" y2="310.5156"/><text fill="#000000" font-family="sans-serif" font-size="13" font-weight="bold" lengthAdjust="spacing" textLength="7" x="378.5" y="305.7607">7</text><text fill="#000000" font-family="sans-serif" font-size="13" lengthAdjust="spacing" textLength="44" x="389.5" y="305.7607">200 OK</text><polygon fill="#181818" points="100.5,335.0391,90.5,339.0391,100.5,343.0391,96.5,339.0391" style="stroke:#181818;stroke-width:1.0;"/><line style="stroke:#181818;stroke-width:1.0;stroke-dasharray:2.0,2.0;" x1="94.5" x2="355.5" y1="339.0391" y2="339.0391"/><text fill="#000000" font-family="sans-serif" font-size="13" font-weight="bold" lengthAdjust="spacing" textLength="7" x="106.5" y="334.2842">8</text><text fill="#000000" font-family="sans-serif" font-size="13" lengthAdjust="spacing" textLength="215" x="117.5" y="334.2842">informs about the successful deletion</text><line style="stroke:#000000;stroke-width:1.0;stroke-dasharray:2.0,2.0;" x1="10" x2="666" y1="348.0391" y2="348.0391"/><text fill="#000000" font-family="sans-serif" font-size="11" font-weight="bold" lengthAdjust="spacing" textLength="331" x="15" y="357.9971">[If there is no warehouse in the system with the id entered]</text><polygon fill="#181818" points="372.5,377.8516,362.5,381.8516,372.5,385.8516,368.5,381.8516" style="stroke:#181818;stroke-width:1.0;"/><line style="stroke:#181818;stroke-width:1.0;stroke-dasharray:2.0,2.0;" x1="366.5" x2="570.5" y1="381.8516" y2="381.8516"/><text fill="#000000" font-family="sans-serif" font-size="13" font-weight="bold" lengthAdjust="spacing" textLength="7" x="378.5" y="377.0967">9</text><text fill="#000000" font-family="sans-serif" font-size="13" lengthAdjust="spacing" textLength="100" x="389.5" y="377.0967">404 NOT FOUND</text><polygon fill="#181818" points="100.5,406.375,90.5,410.375,100.5,414.375,96.5,410.375" style="stroke:#181818;stroke-width:1.0;"/><line style="stroke:#181818;stroke-width:1.0;stroke-dasharray:2.0,2.0;" x1="94.5" x2="355.5" y1="410.375" y2="410.375"/><text fill="#000000" font-family="sans-serif" font-size="13" font-weight="bold" lengthAdjust="spacing" textLength="14" x="106.5" y="405.6201">10</text><text fill="#000000" font-family="sans-serif" font-size="13" lengthAdjust="spacing" textLength="213" x="124.5" y="405.6201">informs about the fail of the operation</text><!--MD5=[2f168bda58d8fdd386d25fe5009416df]
@startuml 
autonumber
actor "Warehouse Manager" as admin
box "<<EletricGo(C4)>>\n       System"
participant Auth as system <<Container(C4)>>
participant WarehouseManagement as  WM <<Container(C4)>>
end box
admin -> system: I want to delete a warehouse
activate system

system - -> admin: asks for the ID of the warehouse
deactivate system

admin -> system: inserts the ID of the warehouse
activate system

system - -> admin: asks for the confirmation of the deletion
deactivate system

admin -> system: confirms the deletion
activate system

system -> WM : DELETE DeleteWarehouse(id)
alt If there is a warehouse in the system with the id entered

activate WM

WM - -> system : 200 OK 
deactivate WM
system - -> admin: informs about the successful deletion
deactivate system

else If there is no warehouse in the system with the id entered

activate WM
WM - -> system : 404 NOT FOUND 
deactivate WM
activate system

system - -> admin : informs about the fail of the operation

deactivate system


end 

deactivate admin

@enduml

PlantUML version 1.2022.12(Sun Oct 23 19:12:26 WEST 2022)
(GPL source distribution)
Java Runtime: OpenJDK Runtime Environment
JVM: OpenJDK 64-Bit Server VM
Default Encoding: Cp1252
Language: pt
Country: BR
--></g></svg>