<?xml version="1.0" encoding="UTF-8" standalone="no"?><svg xmlns="http://www.w3.org/2000/svg" xmlns:xlink="http://www.w3.org/1999/xlink" contentStyleType="text/css" height="1151px" preserveAspectRatio="none" style="width:1862px;height:1151px;background:#FFFFFF;" version="1.1" viewBox="0 0 1862 1151" width="1862px" zoomAndPan="magnify"><defs/><g><rect fill="#FFFFE0" height="1139.9609" style="stroke:#181818;stroke-width:0.5;" width="394" x="252" y="6"/><text fill="#000000" font-family="sans-serif" font-size="13" font-weight="bold" lengthAdjust="spacing" textLength="102" x="398" y="17.7686">&lt;&lt;System(C4)&gt;&gt;</text><text fill="#000000" font-family="sans-serif" font-size="13" font-weight="bold" lengthAdjust="spacing" textLength="13" x="438" y="32.292">UI</text><rect fill="#ADD8E6" height="1139.9609" style="stroke:#181818;stroke-width:0.5;" width="157" x="648" y="6"/><text fill="#000000" font-family="sans-serif" font-size="13" font-weight="bold" lengthAdjust="spacing" textLength="118" x="667.5" y="17.7686">&lt;&lt;Container(C4)&gt;&gt;</text><text fill="#000000" font-family="sans-serif" font-size="13" font-weight="bold" lengthAdjust="spacing" textLength="29" x="711.5" y="32.292">Auth</text><rect fill="#90EE90" height="1139.9609" style="stroke:#181818;stroke-width:0.5;" width="1042.5" x="807" y="6"/><text fill="#000000" font-family="sans-serif" font-size="13" font-weight="bold" lengthAdjust="spacing" textLength="118" x="1268.75" y="17.7686">&lt;&lt;Container(C4)&gt;&gt;</text><text fill="#000000" font-family="sans-serif" font-size="13" font-weight="bold" lengthAdjust="spacing" textLength="159" x="1248.75" y="32.292">Warehouse Management</text><rect fill="#FFFFFF" height="28.5234" style="stroke:#181818;stroke-width:1.0;" width="10" x="351.5" y="115.8516"/><rect fill="#FFFFFF" height="28.5234" style="stroke:#181818;stroke-width:1.0;" width="10" x="351.5" y="172.8984"/><rect fill="#FFFFFF" height="539.8984" style="stroke:#181818;stroke-width:1.0;" width="10" x="351.5" y="229.9453"/><rect fill="#FFFFFF" height="28.5234" style="stroke:#181818;stroke-width:1.0;" width="10" x="351.5" y="1013.7969"/><rect fill="#FFFFFF" height="115.5703" style="stroke:#181818;stroke-width:1.0;" width="10" x="549.5" y="258.4688"/><rect fill="#FFFFFF" height="28.5234" style="stroke:#181818;stroke-width:1.0;" width="10" x="549.5" y="712.7969"/><rect fill="#FFFFFF" height="28.5234" style="stroke:#181818;stroke-width:1.0;" width="10" x="549.5" y="985.2734"/><rect fill="#FFFFFF" height="57.0469" style="stroke:#181818;stroke-width:1.0;" width="10" x="721.5" y="684.2734"/><rect fill="#FFFFFF" height="57.0469" style="stroke:#181818;stroke-width:1.0;" width="10" x="721.5" y="956.75"/><rect fill="#FFFFFF" height="87.0469" style="stroke:#181818;stroke-width:1.0;" width="10" x="871.5" y="286.9922"/><rect fill="#FFFFFF" height="115.5703" style="stroke:#181818;stroke-width:1.0;" width="10" x="871.5" y="625.75"/><rect fill="#FFFFFF" height="85.5703" style="stroke:#181818;stroke-width:1.0;" width="10" x="871.5" y="928.2266"/><rect fill="#FFFFFF" height="340.2344" style="stroke:#181818;stroke-width:1.0;" width="10" x="1021.5" y="315.5156"/><rect fill="#FFFFFF" height="144.0938" style="stroke:#181818;stroke-width:1.0;" width="10" x="1021.5" y="869.7031"/><rect fill="#FFFFFF" height="253.1875" style="stroke:#181818;stroke-width:1.0;" width="10" x="1182.5" y="344.0391"/><rect fill="#FFFFFF" height="129.8594" style="stroke:#181818;stroke-width:1.0;" width="10" x="1182.5" y="769.8438"/><rect fill="#FFFFFF" height="28.5234" style="stroke:#181818;stroke-width:1.0;" width="10" x="1361.5" y="483.1328"/><rect fill="#FFFFFF" height="28.5234" style="stroke:#181818;stroke-width:1.0;" width="10" x="1361.5" y="540.1797"/><rect fill="#FFFFFF" height="28.5234" style="stroke:#181818;stroke-width:1.0;" width="10" x="1763" y="426.0859"/><rect fill="#FFFFFF" height="28.5234" style="stroke:#181818;stroke-width:1.0;" width="10" x="1763" y="812.6563"/><rect fill="none" height="661.2813" style="stroke:#000000;stroke-width:1.5;" width="1845.5" x="10" y="389.0391"/><line style="stroke:#181818;stroke-width:0.5;stroke-dasharray:5.0,5.0;" x1="89" x2="89" y1="85.3281" y2="1067.3203"/><line style="stroke:#181818;stroke-width:0.5;stroke-dasharray:5.0,5.0;" x1="356" x2="356" y1="85.3281" y2="1067.3203"/><line style="stroke:#181818;stroke-width:0.5;stroke-dasharray:5.0,5.0;" x1="554" x2="554" y1="85.3281" y2="1067.3203"/><line style="stroke:#181818;stroke-width:0.5;stroke-dasharray:5.0,5.0;" x1="726" x2="726" y1="85.3281" y2="1067.3203"/><line style="stroke:#181818;stroke-width:0.5;stroke-dasharray:5.0,5.0;" x1="876" x2="876" y1="85.3281" y2="1067.3203"/><line style="stroke:#181818;stroke-width:0.5;stroke-dasharray:5.0,5.0;" x1="1026" x2="1026" y1="85.3281" y2="1067.3203"/><line style="stroke:#181818;stroke-width:0.5;stroke-dasharray:5.0,5.0;" x1="1187.5" x2="1187.5" y1="85.3281" y2="1067.3203"/><line style="stroke:#181818;stroke-width:0.5;stroke-dasharray:5.0,5.0;" x1="1366.5" x2="1366.5" y1="85.3281" y2="1067.3203"/><line style="stroke:#181818;stroke-width:0.5;stroke-dasharray:5.0,5.0;" x1="1570.5" x2="1570.5" y1="85.3281" y2="1067.3203"/><line style="stroke:#181818;stroke-width:0.5;stroke-dasharray:5.0,5.0;" x1="1767.5" x2="1767.5" y1="85.3281" y2="1067.3203"/><text fill="#000000" font-family="sans-serif" font-size="14" lengthAdjust="spacing" textLength="133" x="20" y="82.3613">Warehouse Manager</text><ellipse cx="89.5" cy="18.1875" fill="#E2E2F0" rx="8" ry="8" style="stroke:#181818;stroke-width:0.5;"/><path d="M89.5,26.1875 L89.5,53.1875 M76.5,34.1875 L102.5,34.1875 M89.5,53.1875 L76.5,68.1875 M89.5,53.1875 L102.5,68.1875 " fill="none" style="stroke:#181818;stroke-width:0.5;"/><text fill="#000000" font-family="sans-serif" font-size="14" lengthAdjust="spacing" textLength="133" x="20" y="1078.9941">Warehouse Manager</text><ellipse cx="89.5" cy="1090.4609" fill="#E2E2F0" rx="8" ry="8" style="stroke:#181818;stroke-width:0.5;"/><path d="M89.5,1098.4609 L89.5,1125.4609 M76.5,1106.4609 L102.5,1106.4609 M89.5,1125.4609 L76.5,1140.4609 M89.5,1125.4609 L102.5,1140.4609 " fill="none" style="stroke:#181818;stroke-width:0.5;"/><rect fill="#E2E2F0" height="45.2813" rx="2.5" ry="2.5" style="stroke:#181818;stroke-width:0.5;" width="201" x="256" y="39.0469"/><text fill="#000000" font-family="sans-serif" font-size="14" font-style="italic" lengthAdjust="spacing" textLength="106" x="303.5" y="58.7207">«Container(C4)»</text><text fill="#000000" font-family="sans-serif" font-size="14" lengthAdjust="spacing" textLength="187" x="263" y="74.3613">DeleteWarehouseComponent</text><rect fill="#E2E2F0" height="45.2813" rx="2.5" ry="2.5" style="stroke:#181818;stroke-width:0.5;" width="201" x="256" y="1066.3203"/><text fill="#000000" font-family="sans-serif" font-size="14" font-style="italic" lengthAdjust="spacing" textLength="106" x="303.5" y="1085.9941">«Container(C4)»</text><text fill="#000000" font-family="sans-serif" font-size="14" lengthAdjust="spacing" textLength="187" x="263" y="1101.6348">DeleteWarehouseComponent</text><rect fill="#E2E2F0" height="45.2813" rx="2.5" ry="2.5" style="stroke:#181818;stroke-width:0.5;" width="175" x="467" y="39.0469"/><text fill="#000000" font-family="sans-serif" font-size="14" font-style="italic" lengthAdjust="spacing" textLength="106" x="501.5" y="58.7207">«Container(C4)»</text><text fill="#000000" font-family="sans-serif" font-size="14" lengthAdjust="spacing" textLength="161" x="474" y="74.3613">DeleteWarehouseService</text><rect fill="#E2E2F0" height="45.2813" rx="2.5" ry="2.5" style="stroke:#181818;stroke-width:0.5;" width="175" x="467" y="1066.3203"/><text fill="#000000" font-family="sans-serif" font-size="14" font-style="italic" lengthAdjust="spacing" textLength="106" x="501.5" y="1085.9941">«Container(C4)»</text><text fill="#000000" font-family="sans-serif" font-size="14" lengthAdjust="spacing" textLength="161" x="474" y="1101.6348">DeleteWarehouseService</text><rect fill="#E2E2F0" height="45.2813" rx="2.5" ry="2.5" style="stroke:#181818;stroke-width:0.5;" width="149" x="652" y="39.0469"/><text fill="#000000" font-family="sans-serif" font-size="14" font-style="italic" lengthAdjust="spacing" textLength="106" x="673.5" y="58.7207">«Container(C4)»</text><text fill="#000000" font-family="sans-serif" font-size="14" lengthAdjust="spacing" textLength="135" x="659" y="74.3613">WarehouseController</text><rect fill="#E2E2F0" height="45.2813" rx="2.5" ry="2.5" style="stroke:#181818;stroke-width:0.5;" width="149" x="652" y="1066.3203"/><text fill="#000000" font-family="sans-serif" font-size="14" font-style="italic" lengthAdjust="spacing" textLength="106" x="673.5" y="1085.9941">«Container(C4)»</text><text fill="#000000" font-family="sans-serif" font-size="14" lengthAdjust="spacing" textLength="135" x="659" y="1101.6348">WarehouseController</text><rect fill="#E2E2F0" height="45.2813" rx="2.5" ry="2.5" style="stroke:#181818;stroke-width:0.5;" width="131" x="811" y="39.0469"/><text fill="#000000" font-family="sans-serif" font-size="14" font-style="italic" lengthAdjust="spacing" textLength="117" x="818" y="58.7207">«Component(C4)»</text><text fill="#000000" font-family="sans-serif" font-size="14" lengthAdjust="spacing" textLength="111" x="821" y="74.3613">WarehouseRoute</text><rect fill="#E2E2F0" height="45.2813" rx="2.5" ry="2.5" style="stroke:#181818;stroke-width:0.5;" width="131" x="811" y="1066.3203"/><text fill="#000000" font-family="sans-serif" font-size="14" font-style="italic" lengthAdjust="spacing" textLength="117" x="818" y="1085.9941">«Component(C4)»</text><text fill="#000000" font-family="sans-serif" font-size="14" lengthAdjust="spacing" textLength="111" x="821" y="1101.6348">WarehouseRoute</text><rect fill="#E2E2F0" height="45.2813" rx="2.5" ry="2.5" style="stroke:#181818;stroke-width:0.5;" width="149" x="952" y="39.0469"/><text fill="#000000" font-family="sans-serif" font-size="14" font-style="italic" lengthAdjust="spacing" textLength="117" x="968" y="58.7207">«Component(C4)»</text><text fill="#000000" font-family="sans-serif" font-size="14" lengthAdjust="spacing" textLength="135" x="959" y="74.3613">WarehouseController</text><rect fill="#E2E2F0" height="45.2813" rx="2.5" ry="2.5" style="stroke:#181818;stroke-width:0.5;" width="149" x="952" y="1066.3203"/><text fill="#000000" font-family="sans-serif" font-size="14" font-style="italic" lengthAdjust="spacing" textLength="117" x="968" y="1085.9941">«Component(C4)»</text><text fill="#000000" font-family="sans-serif" font-size="14" lengthAdjust="spacing" textLength="135" x="959" y="1101.6348">WarehouseController</text><rect fill="#E2E2F0" height="45.2813" rx="2.5" ry="2.5" style="stroke:#181818;stroke-width:0.5;" width="134" x="1120.5" y="39.0469"/><text fill="#000000" font-family="sans-serif" font-size="14" font-style="italic" lengthAdjust="spacing" textLength="117" x="1129" y="58.7207">«Component(C4)»</text><text fill="#000000" font-family="sans-serif" font-size="14" lengthAdjust="spacing" textLength="120" x="1127.5" y="74.3613">WarehouseService</text><rect fill="#E2E2F0" height="45.2813" rx="2.5" ry="2.5" style="stroke:#181818;stroke-width:0.5;" width="134" x="1120.5" y="1066.3203"/><text fill="#000000" font-family="sans-serif" font-size="14" font-style="italic" lengthAdjust="spacing" textLength="117" x="1129" y="1085.9941">«Component(C4)»</text><text fill="#000000" font-family="sans-serif" font-size="14" lengthAdjust="spacing" textLength="120" x="1127.5" y="1101.6348">WarehouseService</text><rect fill="#E2E2F0" height="45.2813" rx="2.5" ry="2.5" style="stroke:#181818;stroke-width:0.5;" width="168" x="1282.5" y="39.0469"/><text fill="#000000" font-family="sans-serif" font-size="14" font-style="italic" lengthAdjust="spacing" textLength="117" x="1308" y="58.7207">«Component(C4)»</text><text fill="#000000" font-family="sans-serif" font-size="14" lengthAdjust="spacing" textLength="154" x="1289.5" y="74.3613">warehouse : Warehouse</text><rect fill="#E2E2F0" height="45.2813" rx="2.5" ry="2.5" style="stroke:#181818;stroke-width:0.5;" width="168" x="1282.5" y="1066.3203"/><text fill="#000000" font-family="sans-serif" font-size="14" font-style="italic" lengthAdjust="spacing" textLength="117" x="1308" y="1085.9941">«Component(C4)»</text><text fill="#000000" font-family="sans-serif" font-size="14" lengthAdjust="spacing" textLength="154" x="1289.5" y="1101.6348">warehouse : Warehouse</text><rect fill="#E2E2F0" height="45.2813" rx="2.5" ry="2.5" style="stroke:#181818;stroke-width:0.5;" width="220" x="1460.5" y="39.0469"/><text fill="#000000" font-family="sans-serif" font-size="14" font-style="italic" lengthAdjust="spacing" textLength="117" x="1512" y="58.7207">«Component(C4)»</text><text fill="#000000" font-family="sans-serif" font-size="14" lengthAdjust="spacing" textLength="206" x="1467.5" y="74.3613">warehouseDto : WarehouseDTO</text><rect fill="#E2E2F0" height="45.2813" rx="2.5" ry="2.5" style="stroke:#181818;stroke-width:0.5;" width="220" x="1460.5" y="1066.3203"/><text fill="#000000" font-family="sans-serif" font-size="14" font-style="italic" lengthAdjust="spacing" textLength="117" x="1512" y="1085.9941">«Component(C4)»</text><text fill="#000000" font-family="sans-serif" font-size="14" lengthAdjust="spacing" textLength="206" x="1467.5" y="1101.6348">warehouseDto : WarehouseDTO</text><rect fill="#E2E2F0" height="45.2813" rx="2.5" ry="2.5" style="stroke:#181818;stroke-width:0.5;" width="155" x="1690.5" y="39.0469"/><text fill="#000000" font-family="sans-serif" font-size="14" font-style="italic" lengthAdjust="spacing" textLength="117" x="1709.5" y="58.7207">«Component(C4)»</text><text fill="#000000" font-family="sans-serif" font-size="14" lengthAdjust="spacing" textLength="141" x="1697.5" y="74.3613">WarehouseRepository</text><rect fill="#E2E2F0" height="45.2813" rx="2.5" ry="2.5" style="stroke:#181818;stroke-width:0.5;" width="155" x="1690.5" y="1066.3203"/><text fill="#000000" font-family="sans-serif" font-size="14" font-style="italic" lengthAdjust="spacing" textLength="117" x="1709.5" y="1085.9941">«Component(C4)»</text><text fill="#000000" font-family="sans-serif" font-size="14" lengthAdjust="spacing" textLength="141" x="1697.5" y="1101.6348">WarehouseRepository</text><rect fill="#FFFFFF" height="28.5234" style="stroke:#181818;stroke-width:1.0;" width="10" x="351.5" y="115.8516"/><rect fill="#FFFFFF" height="28.5234" style="stroke:#181818;stroke-width:1.0;" width="10" x="351.5" y="172.8984"/><rect fill="#FFFFFF" height="539.8984" style="stroke:#181818;stroke-width:1.0;" width="10" x="351.5" y="229.9453"/><rect fill="#FFFFFF" height="28.5234" style="stroke:#181818;stroke-width:1.0;" width="10" x="351.5" y="1013.7969"/><rect fill="#FFFFFF" height="115.5703" style="stroke:#181818;stroke-width:1.0;" width="10" x="549.5" y="258.4688"/><rect fill="#FFFFFF" height="28.5234" style="stroke:#181818;stroke-width:1.0;" width="10" x="549.5" y="712.7969"/><rect fill="#FFFFFF" height="28.5234" style="stroke:#181818;stroke-width:1.0;" width="10" x="549.5" y="985.2734"/><rect fill="#FFFFFF" height="57.0469" style="stroke:#181818;stroke-width:1.0;" width="10" x="721.5" y="684.2734"/><rect fill="#FFFFFF" height="57.0469" style="stroke:#181818;stroke-width:1.0;" width="10" x="721.5" y="956.75"/><rect fill="#FFFFFF" height="87.0469" style="stroke:#181818;stroke-width:1.0;" width="10" x="871.5" y="286.9922"/><rect fill="#FFFFFF" height="115.5703" style="stroke:#181818;stroke-width:1.0;" width="10" x="871.5" y="625.75"/><rect fill="#FFFFFF" height="85.5703" style="stroke:#181818;stroke-width:1.0;" width="10" x="871.5" y="928.2266"/><rect fill="#FFFFFF" height="340.2344" style="stroke:#181818;stroke-width:1.0;" width="10" x="1021.5" y="315.5156"/><rect fill="#FFFFFF" height="144.0938" style="stroke:#181818;stroke-width:1.0;" width="10" x="1021.5" y="869.7031"/><rect fill="#FFFFFF" height="253.1875" style="stroke:#181818;stroke-width:1.0;" width="10" x="1182.5" y="344.0391"/><rect fill="#FFFFFF" height="129.8594" style="stroke:#181818;stroke-width:1.0;" width="10" x="1182.5" y="769.8438"/><rect fill="#FFFFFF" height="28.5234" style="stroke:#181818;stroke-width:1.0;" width="10" x="1361.5" y="483.1328"/><rect fill="#FFFFFF" height="28.5234" style="stroke:#181818;stroke-width:1.0;" width="10" x="1361.5" y="540.1797"/><rect fill="#FFFFFF" height="28.5234" style="stroke:#181818;stroke-width:1.0;" width="10" x="1763" y="426.0859"/><rect fill="#FFFFFF" height="28.5234" style="stroke:#181818;stroke-width:1.0;" width="10" x="1763" y="812.6563"/><polygon fill="#181818" points="339.5,111.8516,349.5,115.8516,339.5,119.8516,343.5,115.8516" style="stroke:#181818;stroke-width:1.0;"/><line style="stroke:#181818;stroke-width:1.0;" x1="89.5" x2="345.5" y1="115.8516" y2="115.8516"/><text fill="#000000" font-family="sans-serif" font-size="13" font-weight="bold" lengthAdjust="spacing" textLength="7" x="96.5" y="111.0967">1</text><text fill="#000000" font-family="sans-serif" font-size="13" lengthAdjust="spacing" textLength="165" x="107.5" y="111.0967">I want to delete a warehouse</text><polygon fill="#181818" points="100.5,140.375,90.5,144.375,100.5,148.375,96.5,144.375" style="stroke:#181818;stroke-width:1.0;"/><line style="stroke:#181818;stroke-width:1.0;stroke-dasharray:2.0,2.0;" x1="94.5" x2="355.5" y1="144.375" y2="144.375"/><text fill="#000000" font-family="sans-serif" font-size="13" font-weight="bold" lengthAdjust="spacing" textLength="7" x="106.5" y="139.6201">2</text><text fill="#000000" font-family="sans-serif" font-size="13" lengthAdjust="spacing" textLength="186" x="117.5" y="139.6201">asks for the ID of the warehouse</text><polygon fill="#181818" points="339.5,168.8984,349.5,172.8984,339.5,176.8984,343.5,172.8984" style="stroke:#181818;stroke-width:1.0;"/><line style="stroke:#181818;stroke-width:1.0;" x1="89.5" x2="345.5" y1="172.8984" y2="172.8984"/><text fill="#000000" font-family="sans-serif" font-size="13" font-weight="bold" lengthAdjust="spacing" textLength="7" x="96.5" y="168.1436">3</text><text fill="#000000" font-family="sans-serif" font-size="13" lengthAdjust="spacing" textLength="179" x="107.5" y="168.1436">inserts the ID of the warehouse</text><polygon fill="#181818" points="100.5,197.4219,90.5,201.4219,100.5,205.4219,96.5,201.4219" style="stroke:#181818;stroke-width:1.0;"/><line style="stroke:#181818;stroke-width:1.0;stroke-dasharray:2.0,2.0;" x1="94.5" x2="355.5" y1="201.4219" y2="201.4219"/><text fill="#000000" font-family="sans-serif" font-size="13" font-weight="bold" lengthAdjust="spacing" textLength="7" x="106.5" y="196.667">4</text><text fill="#000000" font-family="sans-serif" font-size="13" lengthAdjust="spacing" textLength="227" x="117.5" y="196.667">asks for the confirmation of the deletion</text><polygon fill="#181818" points="339.5,225.9453,349.5,229.9453,339.5,233.9453,343.5,229.9453" style="stroke:#181818;stroke-width:1.0;"/><line style="stroke:#181818;stroke-width:1.0;" x1="89.5" x2="345.5" y1="229.9453" y2="229.9453"/><text fill="#000000" font-family="sans-serif" font-size="13" font-weight="bold" lengthAdjust="spacing" textLength="7" x="96.5" y="225.1904">5</text><text fill="#000000" font-family="sans-serif" font-size="13" lengthAdjust="spacing" textLength="120" x="107.5" y="225.1904">confirms the deletion</text><polygon fill="#181818" points="537.5,254.4688,547.5,258.4688,537.5,262.4688,541.5,258.4688" style="stroke:#181818;stroke-width:1.0;"/><line style="stroke:#181818;stroke-width:1.0;" x1="361.5" x2="543.5" y1="258.4688" y2="258.4688"/><text fill="#000000" font-family="sans-serif" font-size="13" font-weight="bold" lengthAdjust="spacing" textLength="7" x="368.5" y="253.7139">6</text><text fill="#000000" font-family="sans-serif" font-size="13" lengthAdjust="spacing" textLength="119" x="379.5" y="253.7139">deleteWarehouse(id)</text><polygon fill="#181818" points="859.5,282.9922,869.5,286.9922,859.5,290.9922,863.5,286.9922" style="stroke:#181818;stroke-width:1.0;"/><line style="stroke:#181818;stroke-width:1.0;" x1="559.5" x2="865.5" y1="286.9922" y2="286.9922"/><text fill="#000000" font-family="sans-serif" font-size="13" font-weight="bold" lengthAdjust="spacing" textLength="7" x="566.5" y="282.2373">7</text><text fill="#000000" font-family="sans-serif" font-size="13" lengthAdjust="spacing" textLength="119" x="577.5" y="282.2373">deleteWarehouse(id)</text><polygon fill="#181818" points="1009.5,311.5156,1019.5,315.5156,1009.5,319.5156,1013.5,315.5156" style="stroke:#181818;stroke-width:1.0;"/><line style="stroke:#181818;stroke-width:1.0;" x1="881.5" x2="1015.5" y1="315.5156" y2="315.5156"/><text fill="#000000" font-family="sans-serif" font-size="13" font-weight="bold" lengthAdjust="spacing" textLength="7" x="888.5" y="310.7607">8</text><text fill="#000000" font-family="sans-serif" font-size="13" lengthAdjust="spacing" textLength="109" x="899.5" y="310.7607">DELETE Delete(id)</text><polygon fill="#181818" points="1170.5,340.0391,1180.5,344.0391,1170.5,348.0391,1174.5,344.0391" style="stroke:#181818;stroke-width:1.0;"/><line style="stroke:#181818;stroke-width:1.0;" x1="1031.5" x2="1176.5" y1="344.0391" y2="344.0391"/><text fill="#000000" font-family="sans-serif" font-size="13" font-weight="bold" lengthAdjust="spacing" textLength="7" x="1038.5" y="339.2842">9</text><text fill="#000000" font-family="sans-serif" font-size="13" lengthAdjust="spacing" textLength="121" x="1049.5" y="339.2842">DeleteWarehouse(id)</text><path d="M10,389.0391 L71,389.0391 L71,395.5625 L61,405.5625 L10,405.5625 L10,389.0391 " fill="#EEEEEE" style="stroke:#000000;stroke-width:1.5;"/><rect fill="none" height="661.2813" style="stroke:#000000;stroke-width:1.5;" width="1845.5" x="10" y="389.0391"/><text fill="#000000" font-family="sans-serif" font-size="13" font-weight="bold" lengthAdjust="spacing" textLength="16" x="25" y="401.8076">alt</text><text fill="#000000" font-family="sans-serif" font-size="11" font-weight="bold" lengthAdjust="spacing" textLength="323" x="86" y="400.9971">[If there is a warehouse in the system with the id entered]</text><polygon fill="#181818" points="1751,422.0859,1761,426.0859,1751,430.0859,1755,426.0859" style="stroke:#181818;stroke-width:1.0;"/><line style="stroke:#181818;stroke-width:1.0;" x1="1192.5" x2="1757" y1="426.0859" y2="426.0859"/><text fill="#000000" font-family="sans-serif" font-size="13" font-weight="bold" lengthAdjust="spacing" textLength="14" x="1199.5" y="421.3311">10</text><text fill="#000000" font-family="sans-serif" font-size="13" lengthAdjust="spacing" textLength="65" x="1217.5" y="421.3311">GetById(id)</text><polygon fill="#181818" points="1203.5,450.6094,1193.5,454.6094,1203.5,458.6094,1199.5,454.6094" style="stroke:#181818;stroke-width:1.0;"/><line style="stroke:#181818;stroke-width:1.0;stroke-dasharray:2.0,2.0;" x1="1197.5" x2="1767" y1="454.6094" y2="454.6094"/><text fill="#000000" font-family="sans-serif" font-size="13" font-weight="bold" lengthAdjust="spacing" textLength="14" x="1209.5" y="449.8545">11</text><text fill="#000000" font-family="sans-serif" font-size="13" lengthAdjust="spacing" textLength="62" x="1227.5" y="449.8545">warehouse</text><polygon fill="#181818" points="1349.5,479.1328,1359.5,483.1328,1349.5,487.1328,1353.5,483.1328" style="stroke:#181818;stroke-width:1.0;"/><line style="stroke:#181818;stroke-width:1.0;" x1="1192.5" x2="1355.5" y1="483.1328" y2="483.1328"/><text fill="#000000" font-family="sans-serif" font-size="13" font-weight="bold" lengthAdjust="spacing" textLength="14" x="1199.5" y="478.3779">12</text><text fill="#000000" font-family="sans-serif" font-size="13" lengthAdjust="spacing" textLength="132" x="1217.5" y="478.3779">deactivateWarehouse()</text><polygon fill="#181818" points="1203.5,507.6563,1193.5,511.6563,1203.5,515.6563,1199.5,511.6563" style="stroke:#181818;stroke-width:1.0;"/><line style="stroke:#181818;stroke-width:1.0;stroke-dasharray:2.0,2.0;" x1="1197.5" x2="1365.5" y1="511.6563" y2="511.6563"/><text fill="#000000" font-family="sans-serif" font-size="13" font-weight="bold" lengthAdjust="spacing" textLength="14" x="1209.5" y="506.9014">13</text><text fill="#000000" font-family="sans-serif" font-size="13" lengthAdjust="spacing" textLength="22" x="1227.5" y="506.9014">true</text><polygon fill="#181818" points="1349.5,536.1797,1359.5,540.1797,1349.5,544.1797,1353.5,540.1797" style="stroke:#181818;stroke-width:1.0;"/><line style="stroke:#181818;stroke-width:1.0;" x1="1192.5" x2="1355.5" y1="540.1797" y2="540.1797"/><text fill="#000000" font-family="sans-serif" font-size="13" font-weight="bold" lengthAdjust="spacing" textLength="14" x="1199.5" y="535.4248">14</text><text fill="#000000" font-family="sans-serif" font-size="13" lengthAdjust="spacing" textLength="105" x="1217.5" y="535.4248">toWarehouseDto()</text><polygon fill="#181818" points="1203.5,564.7031,1193.5,568.7031,1203.5,572.7031,1199.5,568.7031" style="stroke:#181818;stroke-width:1.0;"/><line style="stroke:#181818;stroke-width:1.0;stroke-dasharray:2.0,2.0;" x1="1197.5" x2="1365.5" y1="568.7031" y2="568.7031"/><text fill="#000000" font-family="sans-serif" font-size="13" font-weight="bold" lengthAdjust="spacing" textLength="14" x="1209.5" y="563.9482">15</text><text fill="#000000" font-family="sans-serif" font-size="13" lengthAdjust="spacing" textLength="82" x="1227.5" y="563.9482">warehouseDto</text><polygon fill="#181818" points="1042.5,593.2266,1032.5,597.2266,1042.5,601.2266,1038.5,597.2266" style="stroke:#181818;stroke-width:1.0;"/><line style="stroke:#181818;stroke-width:1.0;stroke-dasharray:2.0,2.0;" x1="1036.5" x2="1186.5" y1="597.2266" y2="597.2266"/><text fill="#000000" font-family="sans-serif" font-size="13" font-weight="bold" lengthAdjust="spacing" textLength="14" x="1048.5" y="592.4717">16</text><text fill="#000000" font-family="sans-serif" font-size="13" lengthAdjust="spacing" textLength="82" x="1066.5" y="592.4717">warehouseDto</text><polygon fill="#181818" points="892.5,621.75,882.5,625.75,892.5,629.75,888.5,625.75" style="stroke:#181818;stroke-width:1.0;"/><line style="stroke:#181818;stroke-width:1.0;stroke-dasharray:2.0,2.0;" x1="886.5" x2="1020.5" y1="625.75" y2="625.75"/><text fill="#000000" font-family="sans-serif" font-size="13" font-weight="bold" lengthAdjust="spacing" textLength="14" x="898.5" y="620.9951">17</text><text fill="#000000" font-family="sans-serif" font-size="13" lengthAdjust="spacing" textLength="82" x="916.5" y="620.9951">warehouseDto</text><polygon fill="#181818" points="742.5,680.2734,732.5,684.2734,742.5,688.2734,738.5,684.2734" style="stroke:#181818;stroke-width:1.0;"/><line style="stroke:#181818;stroke-width:1.0;stroke-dasharray:2.0,2.0;" x1="736.5" x2="870.5" y1="684.2734" y2="684.2734"/><text fill="#000000" font-family="sans-serif" font-size="13" font-weight="bold" lengthAdjust="spacing" textLength="14" x="748.5" y="679.5186">18</text><text fill="#000000" font-family="sans-serif" font-size="13" lengthAdjust="spacing" textLength="82" x="766.5" y="679.5186">warehouseDto</text><polygon fill="#181818" points="570.5,708.7969,560.5,712.7969,570.5,716.7969,566.5,712.7969" style="stroke:#181818;stroke-width:1.0;"/><line style="stroke:#181818;stroke-width:1.0;stroke-dasharray:2.0,2.0;" x1="564.5" x2="720.5" y1="712.7969" y2="712.7969"/><text fill="#000000" font-family="sans-serif" font-size="13" font-weight="bold" lengthAdjust="spacing" textLength="14" x="576.5" y="708.042">19</text><text fill="#000000" font-family="sans-serif" font-size="13" lengthAdjust="spacing" textLength="82" x="594.5" y="708.042">warehouseDto</text><polygon fill="#181818" points="372.5,737.3203,362.5,741.3203,372.5,745.3203,368.5,741.3203" style="stroke:#181818;stroke-width:1.0;"/><line style="stroke:#181818;stroke-width:1.0;stroke-dasharray:2.0,2.0;" x1="366.5" x2="553.5" y1="741.3203" y2="741.3203"/><text fill="#000000" font-family="sans-serif" font-size="13" font-weight="bold" lengthAdjust="spacing" textLength="14" x="378.5" y="736.5654">20</text><text fill="#000000" font-family="sans-serif" font-size="13" lengthAdjust="spacing" textLength="44" x="396.5" y="736.5654">200 OK</text><polygon fill="#181818" points="100.5,765.8438,90.5,769.8438,100.5,773.8438,96.5,769.8438" style="stroke:#181818;stroke-width:1.0;"/><line style="stroke:#181818;stroke-width:1.0;stroke-dasharray:2.0,2.0;" x1="94.5" x2="355.5" y1="769.8438" y2="769.8438"/><text fill="#000000" font-family="sans-serif" font-size="13" font-weight="bold" lengthAdjust="spacing" textLength="14" x="106.5" y="765.0889">21</text><text fill="#000000" font-family="sans-serif" font-size="13" lengthAdjust="spacing" textLength="215" x="124.5" y="765.0889">informs about the successful deletion</text><line style="stroke:#000000;stroke-width:1.0;stroke-dasharray:2.0,2.0;" x1="10" x2="1855.5" y1="778.8438" y2="778.8438"/><text fill="#000000" font-family="sans-serif" font-size="11" font-weight="bold" lengthAdjust="spacing" textLength="331" x="15" y="788.8018">[If there is no warehouse in the system with the id entered]</text><polygon fill="#181818" points="1751,808.6563,1761,812.6563,1751,816.6563,1755,812.6563" style="stroke:#181818;stroke-width:1.0;"/><line style="stroke:#181818;stroke-width:1.0;" x1="1192.5" x2="1757" y1="812.6563" y2="812.6563"/><text fill="#000000" font-family="sans-serif" font-size="13" font-weight="bold" lengthAdjust="spacing" textLength="14" x="1199.5" y="807.9014">22</text><text fill="#000000" font-family="sans-serif" font-size="13" lengthAdjust="spacing" textLength="65" x="1217.5" y="807.9014">GetById(id)</text><polygon fill="#181818" points="1203.5,837.1797,1193.5,841.1797,1203.5,845.1797,1199.5,841.1797" style="stroke:#181818;stroke-width:1.0;"/><line style="stroke:#181818;stroke-width:1.0;stroke-dasharray:2.0,2.0;" x1="1197.5" x2="1767" y1="841.1797" y2="841.1797"/><text fill="#000000" font-family="sans-serif" font-size="13" font-weight="bold" lengthAdjust="spacing" textLength="14" x="1209.5" y="836.4248">23</text><text fill="#000000" font-family="sans-serif" font-size="13" lengthAdjust="spacing" textLength="20" x="1227.5" y="836.4248">null</text><polygon fill="#181818" points="1042.5,865.7031,1032.5,869.7031,1042.5,873.7031,1038.5,869.7031" style="stroke:#181818;stroke-width:1.0;"/><line style="stroke:#181818;stroke-width:1.0;stroke-dasharray:2.0,2.0;" x1="1036.5" x2="1181.5" y1="869.7031" y2="869.7031"/><text fill="#000000" font-family="sans-serif" font-size="13" font-weight="bold" lengthAdjust="spacing" textLength="14" x="1048.5" y="864.9482">24</text><text fill="#000000" font-family="sans-serif" font-size="13" lengthAdjust="spacing" textLength="20" x="1066.5" y="864.9482">null</text><polygon fill="#181818" points="892.5,924.2266,882.5,928.2266,892.5,932.2266,888.5,928.2266" style="stroke:#181818;stroke-width:1.0;"/><line style="stroke:#181818;stroke-width:1.0;stroke-dasharray:2.0,2.0;" x1="886.5" x2="1020.5" y1="928.2266" y2="928.2266"/><text fill="#000000" font-family="sans-serif" font-size="13" font-weight="bold" lengthAdjust="spacing" textLength="14" x="898.5" y="923.4717">25</text><text fill="#000000" font-family="sans-serif" font-size="13" lengthAdjust="spacing" textLength="20" x="916.5" y="923.4717">null</text><polygon fill="#181818" points="742.5,952.75,732.5,956.75,742.5,960.75,738.5,956.75" style="stroke:#181818;stroke-width:1.0;"/><line style="stroke:#181818;stroke-width:1.0;" x1="736.5" x2="870.5" y1="956.75" y2="956.75"/><text fill="#000000" font-family="sans-serif" font-size="13" font-weight="bold" lengthAdjust="spacing" textLength="14" x="748.5" y="951.9951">26</text><text fill="#000000" font-family="sans-serif" font-size="13" lengthAdjust="spacing" textLength="20" x="766.5" y="951.9951">null</text><polygon fill="#181818" points="570.5,981.2734,560.5,985.2734,570.5,989.2734,566.5,985.2734" style="stroke:#181818;stroke-width:1.0;"/><line style="stroke:#181818;stroke-width:1.0;stroke-dasharray:2.0,2.0;" x1="564.5" x2="720.5" y1="985.2734" y2="985.2734"/><text fill="#000000" font-family="sans-serif" font-size="13" font-weight="bold" lengthAdjust="spacing" textLength="14" x="576.5" y="980.5186">27</text><text fill="#000000" font-family="sans-serif" font-size="13" lengthAdjust="spacing" textLength="20" x="594.5" y="980.5186">null</text><polygon fill="#181818" points="372.5,1009.7969,362.5,1013.7969,372.5,1017.7969,368.5,1013.7969" style="stroke:#181818;stroke-width:1.0;"/><line style="stroke:#181818;stroke-width:1.0;stroke-dasharray:2.0,2.0;" x1="366.5" x2="553.5" y1="1013.7969" y2="1013.7969"/><text fill="#000000" font-family="sans-serif" font-size="13" font-weight="bold" lengthAdjust="spacing" textLength="14" x="378.5" y="1009.042">28</text><text fill="#000000" font-family="sans-serif" font-size="13" lengthAdjust="spacing" textLength="100" x="396.5" y="1009.042">404 NOT FOUND</text><polygon fill="#181818" points="100.5,1038.3203,90.5,1042.3203,100.5,1046.3203,96.5,1042.3203" style="stroke:#181818;stroke-width:1.0;"/><line style="stroke:#181818;stroke-width:1.0;stroke-dasharray:2.0,2.0;" x1="94.5" x2="355.5" y1="1042.3203" y2="1042.3203"/><text fill="#000000" font-family="sans-serif" font-size="13" font-weight="bold" lengthAdjust="spacing" textLength="14" x="106.5" y="1037.5654">29</text><text fill="#000000" font-family="sans-serif" font-size="13" lengthAdjust="spacing" textLength="213" x="124.5" y="1037.5654">informs about the fail of the operation</text><!--MD5=[072dbfbbcb93e924e5691a1b58390cb5]
@startuml
autonumber

actor "Warehouse Manager" as admin


box "<<System(C4)>>\n          UI" #LightYellow
participant DeleteWarehouseComponent as uiComponent <<Container(C4)>>
participant DeleteWarehouseService as uiService <<Container(C4)>>
box "<<Container(C4)>>\n           Auth" #LightBlue
participant WarehouseController as authController <<Container(C4)>>
box "     <<Container(C4)>>\nWarehouse Management" #LightGreen
participant WarehouseRoute as  WM <<Component(C4)>>
participant WarehouseController as  CTL <<Component(C4)>>
participant WarehouseService as  SV <<Component(C4)>>
participant "warehouse : Warehouse" as  W <<Component(C4)>>
participant "warehouseDto : WarehouseDTO" as  DTO <<Component(C4)>>
participant WarehouseRepository as  WR <<Component(C4)>>
end box
end box 
admin -> uiComponent: I want to delete a warehouse
activate uiComponent

uiComponent - -> admin: asks for the ID of the warehouse
deactivate uiComponent

admin -> uiComponent: inserts the ID of the warehouse
activate uiComponent

uiComponent - -> admin: asks for the confirmation of the deletion
deactivate uiComponent


admin -> uiComponent: confirms the deletion
activate uiComponent

uiComponent -> uiService : deleteWarehouse(id)
activate uiService
uiService -> WM : deleteWarehouse(id)
activate WM 
WM -> CTL : DELETE Delete(id)
activate CTL
CTL -> SV : DeleteWarehouse(id)
activate SV 
deactivate WM
deactivate uiService

alt If there is a warehouse in the system with the id entered


SV -> WR : GetById(id)
activate WR 
WR - -> SV : warehouse
deactivate WR
SV -> W : deactivateWarehouse()
activate W

W - -> SV : true 
deactivate W

SV -> W : toWarehouseDto()
activate W
W- -> SV : warehouseDto
deactivate W
SV - -> CTL : warehouseDto
deactivate SV
CTL - -> WM : warehouseDto
activate WM
deactivate CTL
WM - -> authController : warehouseDto
activate authController
authController - -> uiService : warehouseDto
activate uiService
uiService - -> uiComponent : 200 OK
deactivate uiService
deactivate authController 
deactivate WM
uiComponent - -> admin: informs about the successful deletion
deactivate uiComponent

else If there is no warehouse in the system with the id entered

activate SV 
SV -> WR : GetById(id)
activate WR 
WR - -> SV : null
deactivate WR

SV - -> CTL : null
activate CTL
deactivate SV
CTL - -> WM : null
activate WM
WM -> authController : null
activate authController

authController - -> uiService : null 
activate uiService
uiService - -> uiComponent : 404 NOT FOUND
deactivate uiService
deactivate authController
deactivate WM
deactivate CTL

activate uiComponent

uiComponent - -> admin : informs about the fail of the operation

deactivate uiComponent


end 

deactivate admin
@enduml

PlantUML version 1.2022.12(Sun Oct 23 19:12:26 WEST 2022)
(GPL source distribution)
Java Runtime: OpenJDK Runtime Environment
JVM: OpenJDK 64-Bit Server VM
Default Encoding: Cp1252
Language: pt
Country: BR
--></g></svg>