<?xml version="1.0" encoding="UTF-8" standalone="no"?><svg xmlns="http://www.w3.org/2000/svg" xmlns:xlink="http://www.w3.org/1999/xlink" contentStyleType="text/css" height="626px" preserveAspectRatio="none" style="width:1155px;height:626px;background:#FFFFFF;" version="1.1" viewBox="0 0 1155 626" width="1155px" zoomAndPan="magnify"><defs/><g><!--MD5=[b8d5ee1f547cc751e8cba8f63e6aaaf8]
cluster <<aggregate>> WarehouseManagement--><g id="cluster_&lt;&lt;aggregate&gt;&gt; WarehouseManagement"><path d="M8.5,6 L288.5,6 A3.75,3.75 0 0 1 291,8.5 L298,27.6406 L1145.5,27.6406 A2.5,2.5 0 0 1 1148,30.1406 L1148,616.5 A2.5,2.5 0 0 1 1145.5,619 L8.5,619 A2.5,2.5 0 0 1 6,616.5 L6,8.5 A2.5,2.5 0 0 1 8.5,6 " fill="none" style="stroke:#000000;stroke-width:1.5;"/><line style="stroke:#000000;stroke-width:1.5;" x1="6" x2="298" y1="27.6406" y2="27.6406"/><text fill="#000000" font-family="sans-serif" font-size="14" font-weight="bold" lengthAdjust="spacing" textLength="279" x="10" y="20.6738">&lt;&lt;aggregate&gt;&gt; WarehouseManagement</text></g><!--MD5=[c5149b4909ffd2688ff51a939867f774]
class Warehouse--><g id="elem_Warehouse"><rect codeLine="21" fill="#F1F1F1" height="84.0938" id="Warehouse" rx="2.5" ry="2.5" style="stroke:#181818;stroke-width:0.5;" width="112" x="389" y="40"/><ellipse cx="407.15" cy="66.2266" fill="#ADD1B2" rx="11" ry="11" style="stroke:#181818;stroke-width:1.0;"/><path d="M405.65,67.2266 L405.65,69.2266 L409.65,69.2266 L409.65,68.2266 L409.65,67.7422 L410.275,67.2266 L410.65,67.2266 L411.025,67.2266 L411.65,67.7422 L411.65,68.2266 L411.65,71.2266 L403.65,71.2266 L403.1656,71.2266 L402.65,70.6016 L402.65,70.2266 L402.65,69.8516 L403.1656,69.2266 L403.65,69.2266 L403.65,69.2266 L403.65,63.2266 L403.65,63.2266 L403.1656,63.2266 L402.65,62.6016 L402.65,62.2266 L402.65,61.8516 L403.1656,61.2266 L403.65,61.2266 L411.65,61.2266 L411.65,64.2266 L411.65,64.7109 L411.025,65.2266 L410.65,65.2266 L410.275,65.2266 L409.65,64.7109 L409.65,64.2266 L409.65,63.2266 L405.65,63.2266 L405.65,65.2266 L406.65,65.2266 L406.65,64.7422 L406.65,64.7422 L407.275,64.2266 L407.65,64.2266 L408.025,64.2266 L408.65,64.7422 L408.65,65.2266 L408.65,67.2266 L408.65,67.7109 L408.025,68.2266 L408.025,68.2266 L407.65,68.2266 L407.275,68.2266 L406.65,67.7109 L406.65,67.7109 L406.65,67.2266 L405.65,67.2266 Z " fill="#000000"/><text fill="#000000" font-family="sans-serif" font-size="12" font-style="italic" lengthAdjust="spacing" textLength="43" x="436.85" y="55.8633">«entity»</text><text fill="#000000" font-family="sans-serif" font-size="12" font-style="italic" lengthAdjust="spacing" textLength="40" x="438.35" y="69.2695">«Root»</text><text fill="#000000" font-family="sans-serif" font-size="14" lengthAdjust="spacing" textLength="73" x="421.85" y="84.4863">Warehouse</text><line style="stroke:#181818;stroke-width:0.5;" x1="390" x2="500" y1="92.4531" y2="92.4531"/><text fill="#000000" font-family="sans-serif" font-size="14" lengthAdjust="spacing" textLength="100" x="395" y="109.127">active : boolean</text><line style="stroke:#181818;stroke-width:0.5;" x1="390" x2="500" y1="116.0938" y2="116.0938"/></g><!--MD5=[9466097c40aeafc62ec36a0cc4f3c955]
class City--><g id="elem_City"><rect codeLine="35" fill="#F1F1F1" height="55.0469" id="City" rx="2.5" ry="2.5" style="stroke:#181818;stroke-width:0.5;" width="71" x="31.5" y="432"/><ellipse cx="46.5" cy="451.5234" fill="#ADD1B2" rx="11" ry="11" style="stroke:#181818;stroke-width:1.0;"/><path d="M45,452.5234 L45,454.5234 L49,454.5234 L49,453.5234 L49,453.0391 L49.625,452.5234 L50,452.5234 L50.375,452.5234 L51,453.0391 L51,453.5234 L51,456.5234 L43,456.5234 L42.5156,456.5234 L42,455.8984 L42,455.5234 L42,455.1484 L42.5156,454.5234 L43,454.5234 L43,454.5234 L43,448.5234 L43,448.5234 L42.5156,448.5234 L42,447.8984 L42,447.5234 L42,447.1484 L42.5156,446.5234 L43,446.5234 L51,446.5234 L51,449.5234 L51,450.0078 L50.375,450.5234 L50,450.5234 L49.625,450.5234 L49,450.0078 L49,449.5234 L49,448.5234 L45,448.5234 L45,450.5234 L46,450.5234 L46,450.0391 L46,450.0391 L46.625,449.5234 L47,449.5234 L47.375,449.5234 L48,450.0391 L48,450.5234 L48,452.5234 L48,453.0078 L47.375,453.5234 L47.375,453.5234 L47,453.5234 L46.625,453.5234 L46,453.0078 L46,453.0078 L46,452.5234 L45,452.5234 Z " fill="#000000"/><text fill="#000000" font-family="sans-serif" font-size="12" font-style="italic" lengthAdjust="spacing" textLength="43" x="58.5" y="447.8633">«entity»</text><text fill="#000000" font-family="sans-serif" font-size="14" lengthAdjust="spacing" textLength="24" x="68" y="463.0801">City</text><line style="stroke:#181818;stroke-width:0.5;" x1="32.5" x2="101.5" y1="471.0469" y2="471.0469"/><line style="stroke:#181818;stroke-width:0.5;" x1="32.5" x2="101.5" y1="479.0469" y2="479.0469"/></g><!--MD5=[7ca35fa42fdd2584ef5892c05d53c42e]
class ChargingStation--><g id="elem_ChargingStation"><rect codeLine="31" fill="#F1F1F1" height="55.0469" id="ChargingStation" rx="2.5" ry="2.5" style="stroke:#181818;stroke-width:0.5;" width="134" x="147" y="316"/><ellipse cx="162" cy="335.5234" fill="#ADD1B2" rx="11" ry="11" style="stroke:#181818;stroke-width:1.0;"/><path d="M160.5,336.5234 L160.5,338.5234 L164.5,338.5234 L164.5,337.5234 L164.5,337.0391 L165.125,336.5234 L165.5,336.5234 L165.875,336.5234 L166.5,337.0391 L166.5,337.5234 L166.5,340.5234 L158.5,340.5234 L158.0156,340.5234 L157.5,339.8984 L157.5,339.5234 L157.5,339.1484 L158.0156,338.5234 L158.5,338.5234 L158.5,338.5234 L158.5,332.5234 L158.5,332.5234 L158.0156,332.5234 L157.5,331.8984 L157.5,331.5234 L157.5,331.1484 L158.0156,330.5234 L158.5,330.5234 L166.5,330.5234 L166.5,333.5234 L166.5,334.0078 L165.875,334.5234 L165.5,334.5234 L165.125,334.5234 L164.5,334.0078 L164.5,333.5234 L164.5,332.5234 L160.5,332.5234 L160.5,334.5234 L161.5,334.5234 L161.5,334.0391 L161.5,334.0391 L162.125,333.5234 L162.5,333.5234 L162.875,333.5234 L163.5,334.0391 L163.5,334.5234 L163.5,336.5234 L163.5,337.0078 L162.875,337.5234 L162.875,337.5234 L162.5,337.5234 L162.125,337.5234 L161.5,337.0078 L161.5,337.0078 L161.5,336.5234 L160.5,336.5234 Z " fill="#000000"/><text fill="#000000" font-family="sans-serif" font-size="12" font-style="italic" lengthAdjust="spacing" textLength="43" x="205.5" y="331.8633">«entity»</text><text fill="#000000" font-family="sans-serif" font-size="14" lengthAdjust="spacing" textLength="102" x="176" y="347.0801">ChargingStation</text><line style="stroke:#181818;stroke-width:0.5;" x1="148" x2="280" y1="355.0469" y2="355.0469"/><line style="stroke:#181818;stroke-width:0.5;" x1="148" x2="280" y1="363.0469" y2="363.0469"/></g><!--MD5=[a81e698ada9b821103f36bc5d49e376e]
class WarehouseIndentifier--><g id="elem_WarehouseIndentifier"><rect codeLine="24" fill="#F1F1F1" height="55.0469" id="WarehouseIndentifier" rx="2.5" ry="2.5" style="stroke:#181818;stroke-width:0.5;" width="167" x="152.5" y="185"/><ellipse cx="167.5" cy="204.5234" fill="#FF8B40" rx="11" ry="11" style="stroke:#181818;stroke-width:1.0;"/><path d="M167.5,207.8047 L169.0313,202.2734 L169.0313,202.2734 L168.5156,202.2734 L168,201.6484 L168,201.2734 L168,200.8984 L168.5156,200.2734 L169.0313,200.2734 L170.9063,200.2734 L171.4844,200.2734 L172,200.8984 L172,201.2734 L172,201.6484 L171.4844,202.2734 L171.4844,202.2734 L171.0313,202.2734 L168.6875,210.2734 L166.3125,210.2734 L163.8438,202.2734 L163.5156,202.2734 L163.5156,202.2734 L163,201.6484 L163,201.2734 L163,200.8984 L163.5156,200.2734 L164.0938,200.2734 L165.9688,200.2734 L166.4844,200.2734 L167,200.8984 L167,201.2734 L167,201.6484 L166.4844,202.2734 L165.9688,202.2734 L165.9688,202.2734 L167.5,207.8047 Z " fill="#000000"/><text fill="#000000" font-family="sans-serif" font-size="12" font-style="italic" lengthAdjust="spacing" textLength="81" x="208.5" y="200.8633">«value object»</text><text fill="#000000" font-family="sans-serif" font-size="14" lengthAdjust="spacing" textLength="135" x="181.5" y="216.0801">WarehouseIndentifier</text><line style="stroke:#181818;stroke-width:0.5;" x1="153.5" x2="318.5" y1="224.0469" y2="224.0469"/><line style="stroke:#181818;stroke-width:0.5;" x1="153.5" x2="318.5" y1="232.0469" y2="232.0469"/></g><!--MD5=[210cbcca56bc29863c9dfa6d2a050332]
class WarehouseDesignation--><g id="elem_WarehouseDesignation"><rect codeLine="25" fill="#F1F1F1" height="55.0469" id="WarehouseDesignation" rx="2.5" ry="2.5" style="stroke:#181818;stroke-width:0.5;" width="180" x="355" y="185"/><ellipse cx="370" cy="204.5234" fill="#FF8B40" rx="11" ry="11" style="stroke:#181818;stroke-width:1.0;"/><path d="M370,207.8047 L371.5313,202.2734 L371.5313,202.2734 L371.0156,202.2734 L370.5,201.6484 L370.5,201.2734 L370.5,200.8984 L371.0156,200.2734 L371.5313,200.2734 L373.4063,200.2734 L373.9844,200.2734 L374.5,200.8984 L374.5,201.2734 L374.5,201.6484 L373.9844,202.2734 L373.9844,202.2734 L373.5313,202.2734 L371.1875,210.2734 L368.8125,210.2734 L366.3438,202.2734 L366.0156,202.2734 L366.0156,202.2734 L365.5,201.6484 L365.5,201.2734 L365.5,200.8984 L366.0156,200.2734 L366.5938,200.2734 L368.4688,200.2734 L368.9844,200.2734 L369.5,200.8984 L369.5,201.2734 L369.5,201.6484 L368.9844,202.2734 L368.4688,202.2734 L368.4688,202.2734 L370,207.8047 Z " fill="#000000"/><text fill="#000000" font-family="sans-serif" font-size="12" font-style="italic" lengthAdjust="spacing" textLength="81" x="417.5" y="200.8633">«value object»</text><text fill="#000000" font-family="sans-serif" font-size="14" lengthAdjust="spacing" textLength="148" x="384" y="216.0801">WarehouseDesignation</text><line style="stroke:#181818;stroke-width:0.5;" x1="356" x2="534" y1="224.0469" y2="224.0469"/><line style="stroke:#181818;stroke-width:0.5;" x1="356" x2="534" y1="232.0469" y2="232.0469"/></g><!--MD5=[3ba557464ddf1e7ecaf9fea7de27626b]
class WarehouseAddress--><g id="elem_WarehouseAddress"><rect codeLine="26" fill="#F1F1F1" height="55.0469" id="WarehouseAddress" rx="2.5" ry="2.5" style="stroke:#181818;stroke-width:0.5;" width="157" x="570.5" y="185"/><ellipse cx="585.5" cy="204.5234" fill="#FF8B40" rx="11" ry="11" style="stroke:#181818;stroke-width:1.0;"/><path d="M585.5,207.8047 L587.0313,202.2734 L587.0313,202.2734 L586.5156,202.2734 L586,201.6484 L586,201.2734 L586,200.8984 L586.5156,200.2734 L587.0313,200.2734 L588.9063,200.2734 L589.4844,200.2734 L590,200.8984 L590,201.2734 L590,201.6484 L589.4844,202.2734 L589.4844,202.2734 L589.0313,202.2734 L586.6875,210.2734 L584.3125,210.2734 L581.8438,202.2734 L581.5156,202.2734 L581.5156,202.2734 L581,201.6484 L581,201.2734 L581,200.8984 L581.5156,200.2734 L582.0938,200.2734 L583.9688,200.2734 L584.4844,200.2734 L585,200.8984 L585,201.2734 L585,201.6484 L584.4844,202.2734 L583.9688,202.2734 L583.9688,202.2734 L585.5,207.8047 Z " fill="#000000"/><text fill="#000000" font-family="sans-serif" font-size="12" font-style="italic" lengthAdjust="spacing" textLength="81" x="621.5" y="200.8633">«value object»</text><text fill="#000000" font-family="sans-serif" font-size="14" lengthAdjust="spacing" textLength="125" x="599.5" y="216.0801">WarehouseAddress</text><line style="stroke:#181818;stroke-width:0.5;" x1="571.5" x2="726.5" y1="224.0469" y2="224.0469"/><line style="stroke:#181818;stroke-width:0.5;" x1="571.5" x2="726.5" y1="232.0469" y2="232.0469"/></g><!--MD5=[2ba209925a3aa0f479d78f4b6938c260]
class WarehouseCoordinates--><g id="elem_WarehouseCoordinates"><rect codeLine="27" fill="#F1F1F1" height="55.0469" id="WarehouseCoordinates" rx="2.5" ry="2.5" style="stroke:#181818;stroke-width:0.5;" width="182" x="763" y="185"/><ellipse cx="778" cy="204.5234" fill="#FF8B40" rx="11" ry="11" style="stroke:#181818;stroke-width:1.0;"/><path d="M778,207.8047 L779.5313,202.2734 L779.5313,202.2734 L779.0156,202.2734 L778.5,201.6484 L778.5,201.2734 L778.5,200.8984 L779.0156,200.2734 L779.5313,200.2734 L781.4063,200.2734 L781.9844,200.2734 L782.5,200.8984 L782.5,201.2734 L782.5,201.6484 L781.9844,202.2734 L781.9844,202.2734 L781.5313,202.2734 L779.1875,210.2734 L776.8125,210.2734 L774.3438,202.2734 L774.0156,202.2734 L774.0156,202.2734 L773.5,201.6484 L773.5,201.2734 L773.5,200.8984 L774.0156,200.2734 L774.5938,200.2734 L776.4688,200.2734 L776.9844,200.2734 L777.5,200.8984 L777.5,201.2734 L777.5,201.6484 L776.9844,202.2734 L776.4688,202.2734 L776.4688,202.2734 L778,207.8047 Z " fill="#000000"/><text fill="#000000" font-family="sans-serif" font-size="12" font-style="italic" lengthAdjust="spacing" textLength="81" x="826.5" y="200.8633">«value object»</text><text fill="#000000" font-family="sans-serif" font-size="14" lengthAdjust="spacing" textLength="150" x="792" y="216.0801">WarehouseCoordinates</text><line style="stroke:#181818;stroke-width:0.5;" x1="764" x2="944" y1="224.0469" y2="224.0469"/><line style="stroke:#181818;stroke-width:0.5;" x1="764" x2="944" y1="232.0469" y2="232.0469"/></g><!--MD5=[b450bbf24faa48c33f8e81045f209469]
class CurrentOccupation--><g id="elem_CurrentOccupation"><rect codeLine="32" fill="#F1F1F1" height="55.0469" id="CurrentOccupation" rx="2.5" ry="2.5" style="stroke:#181818;stroke-width:0.5;" width="152" x="138" y="432"/><ellipse cx="153" cy="451.5234" fill="#FF8B40" rx="11" ry="11" style="stroke:#181818;stroke-width:1.0;"/><path d="M153,454.8047 L154.5313,449.2734 L154.5313,449.2734 L154.0156,449.2734 L153.5,448.6484 L153.5,448.2734 L153.5,447.8984 L154.0156,447.2734 L154.5313,447.2734 L156.4063,447.2734 L156.9844,447.2734 L157.5,447.8984 L157.5,448.2734 L157.5,448.6484 L156.9844,449.2734 L156.9844,449.2734 L156.5313,449.2734 L154.1875,457.2734 L151.8125,457.2734 L149.3438,449.2734 L149.0156,449.2734 L149.0156,449.2734 L148.5,448.6484 L148.5,448.2734 L148.5,447.8984 L149.0156,447.2734 L149.5938,447.2734 L151.4688,447.2734 L151.9844,447.2734 L152.5,447.8984 L152.5,448.2734 L152.5,448.6484 L151.9844,449.2734 L151.4688,449.2734 L151.4688,449.2734 L153,454.8047 Z " fill="#000000"/><text fill="#000000" font-family="sans-serif" font-size="12" font-style="italic" lengthAdjust="spacing" textLength="81" x="186.5" y="447.8633">«value object»</text><text fill="#000000" font-family="sans-serif" font-size="14" lengthAdjust="spacing" textLength="120" x="167" y="463.0801">CurrentOccupation</text><line style="stroke:#181818;stroke-width:0.5;" x1="139" x2="289" y1="471.0469" y2="471.0469"/><line style="stroke:#181818;stroke-width:0.5;" x1="139" x2="289" y1="479.0469" y2="479.0469"/></g><!--MD5=[252edd71a4be5f43065b911bb900d8ae]
class TotalOccupation--><g id="elem_TotalOccupation"><rect codeLine="33" fill="#F1F1F1" height="55.0469" id="TotalOccupation" rx="2.5" ry="2.5" style="stroke:#181818;stroke-width:0.5;" width="136" x="325" y="432"/><ellipse cx="340" cy="451.5234" fill="#FF8B40" rx="11" ry="11" style="stroke:#181818;stroke-width:1.0;"/><path d="M340,454.8047 L341.5313,449.2734 L341.5313,449.2734 L341.0156,449.2734 L340.5,448.6484 L340.5,448.2734 L340.5,447.8984 L341.0156,447.2734 L341.5313,447.2734 L343.4063,447.2734 L343.9844,447.2734 L344.5,447.8984 L344.5,448.2734 L344.5,448.6484 L343.9844,449.2734 L343.9844,449.2734 L343.5313,449.2734 L341.1875,457.2734 L338.8125,457.2734 L336.3438,449.2734 L336.0156,449.2734 L336.0156,449.2734 L335.5,448.6484 L335.5,448.2734 L335.5,447.8984 L336.0156,447.2734 L336.5938,447.2734 L338.4688,447.2734 L338.9844,447.2734 L339.5,447.8984 L339.5,448.2734 L339.5,448.6484 L338.9844,449.2734 L338.4688,449.2734 L338.4688,449.2734 L340,454.8047 Z " fill="#000000"/><text fill="#000000" font-family="sans-serif" font-size="12" font-style="italic" lengthAdjust="spacing" textLength="81" x="365.5" y="447.8633">«value object»</text><text fill="#000000" font-family="sans-serif" font-size="14" lengthAdjust="spacing" textLength="104" x="354" y="463.0801">TotalOccupation</text><line style="stroke:#181818;stroke-width:0.5;" x1="326" x2="460" y1="471.0469" y2="471.0469"/><line style="stroke:#181818;stroke-width:0.5;" x1="326" x2="460" y1="479.0469" y2="479.0469"/></g><!--MD5=[a68699f6f85ad614fd0386eaab93618a]
class WarehouseAltitude--><g id="elem_WarehouseAltitude"><rect codeLine="28" fill="#F1F1F1" height="55.0469" id="WarehouseAltitude" rx="2.5" ry="2.5" style="stroke:#181818;stroke-width:0.5;" width="152" x="980" y="185"/><ellipse cx="995" cy="204.5234" fill="#FF8B40" rx="11" ry="11" style="stroke:#181818;stroke-width:1.0;"/><path d="M995,207.8047 L996.5313,202.2734 L996.5313,202.2734 L996.0156,202.2734 L995.5,201.6484 L995.5,201.2734 L995.5,200.8984 L996.0156,200.2734 L996.5313,200.2734 L998.4063,200.2734 L998.9844,200.2734 L999.5,200.8984 L999.5,201.2734 L999.5,201.6484 L998.9844,202.2734 L998.9844,202.2734 L998.5313,202.2734 L996.1875,210.2734 L993.8125,210.2734 L991.3438,202.2734 L991.0156,202.2734 L991.0156,202.2734 L990.5,201.6484 L990.5,201.2734 L990.5,200.8984 L991.0156,200.2734 L991.5938,200.2734 L993.4688,200.2734 L993.9844,200.2734 L994.5,200.8984 L994.5,201.2734 L994.5,201.6484 L993.9844,202.2734 L993.4688,202.2734 L993.4688,202.2734 L995,207.8047 Z " fill="#000000"/><text fill="#000000" font-family="sans-serif" font-size="12" font-style="italic" lengthAdjust="spacing" textLength="81" x="1028.5" y="200.8633">«value object»</text><text fill="#000000" font-family="sans-serif" font-size="14" lengthAdjust="spacing" textLength="120" x="1009" y="216.0801">WarehouseAltitude</text><line style="stroke:#181818;stroke-width:0.5;" x1="981" x2="1131" y1="224.0469" y2="224.0469"/><line style="stroke:#181818;stroke-width:0.5;" x1="981" x2="1131" y1="232.0469" y2="232.0469"/></g><!--MD5=[4e6d25d882a51960e614e21dd71885f8]
class CityId--><g id="elem_CityId"><rect codeLine="36" fill="#F1F1F1" height="55.0469" id="CityId" rx="2.5" ry="2.5" style="stroke:#181818;stroke-width:0.5;" width="109" x="22.5" y="548"/><ellipse cx="37.5" cy="567.5234" fill="#FF8B40" rx="11" ry="11" style="stroke:#181818;stroke-width:1.0;"/><path d="M37.5,570.8047 L39.0313,565.2734 L39.0313,565.2734 L38.5156,565.2734 L38,564.6484 L38,564.2734 L38,563.8984 L38.5156,563.2734 L39.0313,563.2734 L40.9063,563.2734 L41.4844,563.2734 L42,563.8984 L42,564.2734 L42,564.6484 L41.4844,565.2734 L41.4844,565.2734 L41.0313,565.2734 L38.6875,573.2734 L36.3125,573.2734 L33.8438,565.2734 L33.5156,565.2734 L33.5156,565.2734 L33,564.6484 L33,564.2734 L33,563.8984 L33.5156,563.2734 L34.0938,563.2734 L35.9688,563.2734 L36.4844,563.2734 L37,563.8984 L37,564.2734 L37,564.6484 L36.4844,565.2734 L35.9688,565.2734 L35.9688,565.2734 L37.5,570.8047 Z " fill="#000000"/><text fill="#000000" font-family="sans-serif" font-size="12" font-style="italic" lengthAdjust="spacing" textLength="81" x="49.5" y="563.8633">«value object»</text><text fill="#000000" font-family="sans-serif" font-size="14" lengthAdjust="spacing" textLength="35" x="72.5" y="579.0801">CityId</text><line style="stroke:#181818;stroke-width:0.5;" x1="23.5" x2="130.5" y1="587.0469" y2="587.0469"/><line style="stroke:#181818;stroke-width:0.5;" x1="23.5" x2="130.5" y1="595.0469" y2="595.0469"/></g><!--MD5=[79a58086953174f30c5ae845bb692b0e]
class CityName--><g id="elem_CityName"><rect codeLine="37" fill="#F1F1F1" height="55.0469" id="CityName" rx="2.5" ry="2.5" style="stroke:#181818;stroke-width:0.5;" width="109" x="166.5" y="548"/><ellipse cx="181.5" cy="567.5234" fill="#FF8B40" rx="11" ry="11" style="stroke:#181818;stroke-width:1.0;"/><path d="M181.5,570.8047 L183.0313,565.2734 L183.0313,565.2734 L182.5156,565.2734 L182,564.6484 L182,564.2734 L182,563.8984 L182.5156,563.2734 L183.0313,563.2734 L184.9063,563.2734 L185.4844,563.2734 L186,563.8984 L186,564.2734 L186,564.6484 L185.4844,565.2734 L185.4844,565.2734 L185.0313,565.2734 L182.6875,573.2734 L180.3125,573.2734 L177.8438,565.2734 L177.5156,565.2734 L177.5156,565.2734 L177,564.6484 L177,564.2734 L177,563.8984 L177.5156,563.2734 L178.0938,563.2734 L179.9688,563.2734 L180.4844,563.2734 L181,563.8984 L181,564.2734 L181,564.6484 L180.4844,565.2734 L179.9688,565.2734 L179.9688,565.2734 L181.5,570.8047 Z " fill="#000000"/><text fill="#000000" font-family="sans-serif" font-size="12" font-style="italic" lengthAdjust="spacing" textLength="81" x="193.5" y="563.8633">«value object»</text><text fill="#000000" font-family="sans-serif" font-size="14" lengthAdjust="spacing" textLength="60" x="204" y="579.0801">CityName</text><line style="stroke:#181818;stroke-width:0.5;" x1="167.5" x2="274.5" y1="587.0469" y2="587.0469"/><line style="stroke:#181818;stroke-width:0.5;" x1="167.5" x2="274.5" y1="595.0469" y2="595.0469"/></g><!--MD5=[dc32dc1351b98655976dc223324cbacb]
link Warehouse to ChargingStation--><g id="link_Warehouse_ChargingStation"><path codeLine="39" d="M388.99,91.99 C303.06,107.06 145.12,140.21 112,185 C80.32,227.84 130.74,280.22 171.3,312.47 " fill="none" id="Warehouse-to-ChargingStation" style="stroke:#181818;stroke-width:1.0;"/><polygon fill="#181818" points="175.69,315.91,171.083,307.2051,171.7579,312.8215,166.1415,313.4964,175.69,315.91" style="stroke:#181818;stroke-width:1.0;"/><text fill="#000000" font-family="sans-serif" font-size="13" lengthAdjust="spacing" textLength="21" x="113" y="217.2686">has</text><text fill="#000000" font-family="sans-serif" font-size="13" lengthAdjust="spacing" textLength="7" x="373.9933" y="106.0705">1</text><text fill="#000000" font-family="sans-serif" font-size="13" lengthAdjust="spacing" textLength="7" x="158.4988" y="305.3053">1</text></g><!--MD5=[846f46a57ee6f519c00b43a1365349c7]
link Warehouse to City--><g id="link_Warehouse_City"><path codeLine="40" d="M388.91,90.43 C298.2,103.8 126.18,135.24 94,185 C45.31,260.3 53.56,372.44 61.38,426.75 " fill="none" id="Warehouse-to-City" style="stroke:#181818;stroke-width:1.0;"/><polygon fill="#181818" points="62.14,431.82,64.7848,422.3329,61.4109,426.8734,56.8703,423.4995,62.14,431.82" style="stroke:#181818;stroke-width:1.0;"/><text fill="#000000" font-family="sans-serif" font-size="13" lengthAdjust="spacing" textLength="21" x="63" y="282.7686">has</text><text fill="#000000" font-family="sans-serif" font-size="13" lengthAdjust="spacing" textLength="7" x="373.9026" y="88.4196">1</text><text fill="#000000" font-family="sans-serif" font-size="13" lengthAdjust="spacing" textLength="7" x="53.1023" y="421.1934">1</text></g><!--MD5=[acba53dabb83cff3918e642f9fb2e641]
link Warehouse to WarehouseIndentifier--><g id="link_Warehouse_WarehouseIndentifier"><path codeLine="42" d="M388.99,117.44 C356.15,137.63 315.09,162.87 283.78,182.12 " fill="none" id="Warehouse-to-WarehouseIndentifier" style="stroke:#181818;stroke-width:1.0;"/><polygon fill="#181818" points="279.23,184.92,288.9893,183.5952,283.4844,182.2931,284.7864,176.7882,279.23,184.92" style="stroke:#181818;stroke-width:1.0;"/><text fill="#000000" font-family="sans-serif" font-size="13" lengthAdjust="spacing" textLength="7" x="373.9933" y="134.9403">1</text><text fill="#000000" font-family="sans-serif" font-size="13" lengthAdjust="spacing" textLength="7" x="281.9142" y="174.3178">1</text></g><!--MD5=[408b3fa0744384405c2ff7e0b037b322]
link Warehouse to WarehouseDesignation--><g id="link_Warehouse_WarehouseDesignation"><path codeLine="43" d="M445,124.01 C445,141.98 445,162.76 445,179.55 " fill="none" id="Warehouse-to-WarehouseDesignation" style="stroke:#181818;stroke-width:1.0;"/><polygon fill="#181818" points="445,184.63,449,175.63,445,179.63,441,175.63,445,184.63" style="stroke:#181818;stroke-width:1.0;"/><text fill="#000000" font-family="sans-serif" font-size="13" lengthAdjust="spacing" textLength="7" x="437.4203" y="143.9314">1</text><text fill="#000000" font-family="sans-serif" font-size="13" lengthAdjust="spacing" textLength="7" x="437.1906" y="174.39">1</text></g><!--MD5=[6fee932d99f90e2a2bf9abfdfede3fd4]
link Warehouse to WarehouseAddress--><g id="link_Warehouse_WarehouseAddress"><path codeLine="44" d="M501.01,118.28 C532.83,138.32 572.2,163.12 602.33,182.1 " fill="none" id="Warehouse-to-WarehouseAddress" style="stroke:#181818;stroke-width:1.0;"/><polygon fill="#181818" points="606.7,184.86,601.2078,176.6847,602.4664,182.1997,596.9514,183.4584,606.7,184.86" style="stroke:#181818;stroke-width:1.0;"/><text fill="#000000" font-family="sans-serif" font-size="13" lengthAdjust="spacing" textLength="7" x="509.0067" y="120.0119">1</text><text fill="#000000" font-family="sans-serif" font-size="13" lengthAdjust="spacing" textLength="7" x="588.5363" y="174.2431">1</text></g><!--MD5=[e6395b872613880e86cf98f20ef06951]
link Warehouse to WarehouseCoordinates--><g id="link_Warehouse_WarehouseCoordinates"><path codeLine="45" d="M501.01,100.6 C568.88,121.92 684.07,158.11 764.34,183.33 " fill="none" id="Warehouse-to-WarehouseCoordinates" style="stroke:#181818;stroke-width:1.0;"/><polygon fill="#181818" points="769.57,184.98,762.1839,178.465,764.8001,183.4805,759.7847,186.0968,769.57,184.98" style="stroke:#181818;stroke-width:1.0;"/><text fill="#000000" font-family="sans-serif" font-size="13" lengthAdjust="spacing" textLength="7" x="509.0067" y="99.9562">1</text><text fill="#000000" font-family="sans-serif" font-size="13" lengthAdjust="spacing" textLength="7" x="748.0066" y="177.0706">1</text></g><!--MD5=[92f17753c6c300d26bc20ed650ab49b4]
link Warehouse to WarehouseAltitude--><g id="link_Warehouse_WarehouseAltitude"><path codeLine="46" d="M501.29,92.5 C596.77,108.97 796.35,144.92 963,185 C966.84,185.92 970.77,186.9 974.73,187.92 " fill="none" id="Warehouse-to-WarehouseAltitude" style="stroke:#181818;stroke-width:1.0;"/><polygon fill="#181818" points="979.75,189.22,972.0438,183.087,974.9104,187.9637,970.0337,190.8303,979.75,189.22" style="stroke:#181818;stroke-width:1.0;"/><text fill="#000000" font-family="sans-serif" font-size="13" lengthAdjust="spacing" textLength="7" x="508.9506" y="90.7445">1</text><text fill="#000000" font-family="sans-serif" font-size="13" lengthAdjust="spacing" textLength="7" x="964.8996" y="184.0313">1</text></g><!--MD5=[3a1645d93db7f0050e5d6caa5346b5bf]
link ChargingStation to CurrentOccupation--><g id="link_ChargingStation_CurrentOccupation"><path codeLine="49" d="M214,371.23 C214,387.81 214,409.2 214,426.66 " fill="none" id="ChargingStation-to-CurrentOccupation" style="stroke:#181818;stroke-width:1.0;"/><polygon fill="#181818" points="214,431.94,218,422.94,214,426.94,210,422.94,214,431.94" style="stroke:#181818;stroke-width:1.0;"/><text fill="#000000" font-family="sans-serif" font-size="13" lengthAdjust="spacing" textLength="7" x="206.2344" y="390.6479">1</text><text fill="#000000" font-family="sans-serif" font-size="13" lengthAdjust="spacing" textLength="7" x="206.1469" y="421.3426">1</text></g><!--MD5=[d7bd9df21f50b5584ceb49d06cc4597e]
link ChargingStation to TotalOccupation--><g id="link_ChargingStation_TotalOccupation"><path codeLine="50" d="M255.97,371.23 C283.24,388.59 318.8,411.24 346.86,429.11 " fill="none" id="ChargingStation-to-TotalOccupation" style="stroke:#181818;stroke-width:1.0;"/><polygon fill="#181818" points="351.3,431.94,345.8599,423.7299,347.0835,429.2528,341.5605,430.4764,351.3,431.94" style="stroke:#181818;stroke-width:1.0;"/><text fill="#000000" font-family="sans-serif" font-size="13" lengthAdjust="spacing" textLength="7" x="257.3853" y="390.6479">1</text><text fill="#000000" font-family="sans-serif" font-size="13" lengthAdjust="spacing" textLength="7" x="333.2825" y="421.3426">1</text></g><!--MD5=[4ba5f7b8338b56f5337bfceb71029d08]
link City to CityId--><g id="link_City_CityId"><path codeLine="52" d="M69.34,487.23 C70.8,503.81 72.68,525.2 74.21,542.66 " fill="none" id="City-to-CityId" style="stroke:#181818;stroke-width:1.0;"/><polygon fill="#181818" points="74.67,547.94,77.8845,538.6305,74.2418,542.9584,69.9139,539.3156,74.67,547.94" style="stroke:#181818;stroke-width:1.0;"/><text fill="#000000" font-family="sans-serif" font-size="13" lengthAdjust="spacing" textLength="7" x="62.0863" y="506.6479">1</text><text fill="#000000" font-family="sans-serif" font-size="13" lengthAdjust="spacing" textLength="7" x="66.2489" y="537.3426">1</text></g><!--MD5=[038757752ef4071ae42d255a368caa9f]
link City to CityName--><g id="link_City_CityName"><path codeLine="53" d="M102.72,486.94 C126.07,504.23 156.61,526.83 180.81,544.75 " fill="none" id="City-to-CityName" style="stroke:#181818;stroke-width:1.0;"/><polygon fill="#181818" points="184.94,547.81,180.086,539.2404,180.9212,544.8352,175.3263,545.6705,184.94,547.81" style="stroke:#181818;stroke-width:1.0;"/><text fill="#000000" font-family="sans-serif" font-size="13" lengthAdjust="spacing" textLength="7" x="103.1709" y="506.7279">1</text><text fill="#000000" font-family="sans-serif" font-size="13" lengthAdjust="spacing" textLength="7" x="168.2973" y="537.1809">1</text></g><!--MD5=[d048e5546d41d7025bd78ab7ba36a1fc]
@startuml DMWarehouseManagement



package "<<aggregate>> WarehouseManagement"{
  entity Warehouse
  entity City
  entity ChargingStation
  class WarehouseIndentifier
  class WarehouseDesignation
  class WarehouseAddress
  class WarehouseCoordinates
  class CurrentOccupation
  class TotalOccupation
  class WarehouseAltitude
  class CityId
  class CityName

}


entity Warehouse <<entity>> <<Root>>{
  active : boolean
}
class WarehouseIndentifier <<(V,#FF8B40) value object>>
class WarehouseDesignation <<(V,#FF8B40) value object>>
class WarehouseAddress <<(V,#FF8B40) value object>>
class WarehouseCoordinates <<(V,#FF8B40) value object>>
class WarehouseAltitude <<(V,#FF8B40) value object>>


entity ChargingStation <<entity>>
class CurrentOccupation <<(V,#FF8B40) value object>>
class TotalOccupation <<(V,#FF8B40) value object>>

entity City <<entity>>
class CityId <<(V,#FF8B40) value object>>
class CityName <<(V,#FF8B40) value object>>

Warehouse "1" - - -> "1" ChargingStation: has
Warehouse "1" - - - -> "1" City : has

Warehouse "1" - -> "1" WarehouseIndentifier
Warehouse "1" - -> "1" WarehouseDesignation
Warehouse "1" - -> "1" WarehouseAddress
Warehouse "1" - -> "1" WarehouseCoordinates
Warehouse "1" - -> "1" WarehouseAltitude


ChargingStation "1" - -> "1" CurrentOccupation
ChargingStation "1" - -> "1" TotalOccupation

City "1" - -> "1" CityId
City "1" - -> "1" CityName

@enduml

PlantUML version 1.2022.12(Sun Oct 23 19:12:26 WEST 2022)
(GPL source distribution)
Java Runtime: OpenJDK Runtime Environment
JVM: OpenJDK 64-Bit Server VM
Default Encoding: Cp1252
Language: pt
Country: BR
--></g></svg>