<?xml version="1.0" encoding="UTF-8" standalone="no"?><svg xmlns="http://www.w3.org/2000/svg" xmlns:xlink="http://www.w3.org/1999/xlink" contentStyleType="text/css" height="187px" preserveAspectRatio="none" style="width:176px;height:187px;background:#FFFFFF;" version="1.1" viewBox="0 0 176 187" width="176px" zoomAndPan="magnify"><defs/><g><!--MD5=[97ab183161fd5d1db7fba7485cf76add]
entity Admin--><g id="elem_Admin"><ellipse cx="88.5" cy="22" fill="#F1F1F1" rx="16" ry="16" style="stroke:#181818;stroke-width:1.5;"/><path d="M88.5,42 C92.5,42 95.5,42 99.5,38 C107.5,38 115.5,46 115.5,54 L115.5,58 C115.5,62 111.5,66 107.5,66 L69.5,66 C65.5,66 61.5,62 61.5,58 L61.5,54 C61.5,46 69.5,38 77.5,38 C81.5,42 84.5,42 88.5,42 " fill="#F1F1F1" style="stroke:#181818;stroke-width:1.5;"/><text fill="#000000" font-family="sans-serif" font-size="14" lengthAdjust="spacing" textLength="133" x="22" y="80.1738">Warehouse Manager</text></g><g id="elem_US1"><ellipse cx="88.3091" cy="162.3618" fill="#F1F1F1" rx="82.3091" ry="18.8618" style="stroke:#181818;stroke-width:0.5;"/><text fill="#000000" font-family="sans-serif" font-size="14" lengthAdjust="spacing" textLength="126" x="25.3091" y="165.2153">Delete a warehouse</text></g><!--MD5=[010bdba11f7026484c94878b456da6d9]
link Admin to US1--><g id="link_Admin_US1"><path d="M88.5,83.79 C88.5,101.87 88.5,122.77 88.5,138.34 " fill="none" id="Admin-to-US1" style="stroke:#181818;stroke-width:1.0;"/><polygon fill="#181818" points="88.5,143.41,92.5,134.41,88.5,138.41,84.5,134.41,88.5,143.41" style="stroke:#181818;stroke-width:1.0;"/></g><!--MD5=[0011ea816249c2b6036d01b038d9a4bb]
@startuml

skinparam actorStyle awesome
"Warehouse Manager" as Admin

"Delete a warehouse" as (US1)

Admin - -> (US1)
@enduml

PlantUML version 1.2022.12(Sun Oct 23 19:12:26 WEST 2022)
(GPL source distribution)
Java Runtime: OpenJDK Runtime Environment
JVM: OpenJDK 64-Bit Server VM
Default Encoding: Cp1252
Language: pt
Country: BR
--></g></svg>