<?xml version="1.0" encoding="UTF-8" standalone="no"?><svg xmlns="http://www.w3.org/2000/svg" xmlns:xlink="http://www.w3.org/1999/xlink" contentStyleType="text/css" height="490px" preserveAspectRatio="none" style="width:634px;height:490px;background:#FFFFFF;" version="1.1" viewBox="0 0 634 490" width="634px" zoomAndPan="magnify"><defs/><g><rect fill="#DDDDDD" height="478.5313" style="stroke:#181818;stroke-width:0.5;" width="338" x="283" y="6"/><text fill="#000000" font-family="sans-serif" font-size="13" font-weight="bold" lengthAdjust="spacing" textLength="102" x="401" y="19.4951">&lt;&lt;System(C4)&gt;&gt;</text><text fill="#000000" font-family="sans-serif" font-size="13" font-weight="bold" lengthAdjust="spacing" textLength="46" x="429" y="35.8467">System</text><rect fill="#FFFFFF" height="30.3516" style="stroke:#181818;stroke-width:1.0;" width="10" x="342" y="125.2734"/><rect fill="#FFFFFF" height="207.9453" style="stroke:#181818;stroke-width:1.0;" width="10" x="342" y="185.9766"/><rect fill="#FFFFFF" height="132.2422" style="stroke:#181818;stroke-width:1.0;" width="10" x="552" y="216.3281"/><rect fill="none" height="155.5938" style="stroke:#000000;stroke-width:1.5;" width="617" x="10" y="231.3281"/><line style="stroke:#181818;stroke-width:0.5;stroke-dasharray:5.0,5.0;" x1="69" x2="69" y1="92.9219" y2="403.9219"/><line style="stroke:#181818;stroke-width:0.5;stroke-dasharray:5.0,5.0;" x1="347" x2="347" y1="92.9219" y2="403.9219"/><line style="stroke:#181818;stroke-width:0.5;stroke-dasharray:5.0,5.0;" x1="557" x2="557" y1="92.9219" y2="403.9219"/><text fill="#000000" font-family="sans-serif" font-size="14" lengthAdjust="spacing" textLength="92" x="20" y="89.8457">Fleet Manager</text><ellipse cx="69" cy="23.8125" fill="#E2E2F0" rx="8" ry="8" style="stroke:#181818;stroke-width:0.5;"/><path d="M69,31.8125 L69,58.8125 M56,39.8125 L82,39.8125 M69,58.8125 L56,73.8125 M69,58.8125 L82,73.8125 " fill="none" style="stroke:#181818;stroke-width:0.5;"/><text fill="#000000" font-family="sans-serif" font-size="14" lengthAdjust="spacing" textLength="92" x="20" y="417.4551">Fleet Manager</text><ellipse cx="69" cy="429.0313" fill="#E2E2F0" rx="8" ry="8" style="stroke:#181818;stroke-width:0.5;"/><path d="M69,437.0313 L69,464.0313 M56,445.0313 L82,445.0313 M69,464.0313 L56,479.0313 M69,464.0313 L82,479.0313 " fill="none" style="stroke:#181818;stroke-width:0.5;"/><rect fill="#FFFFFF" height="49.2188" rx="2.5" ry="2.5" style="stroke:#000000;stroke-width:0.5;" width="120" x="287" y="42.7031"/><text fill="#000000" font-family="sans-serif" font-size="14" font-style="italic" lengthAdjust="spacing" textLength="106" x="294" y="64.2363">«Container(C4)»</text><text fill="#000000" font-family="sans-serif" font-size="14" lengthAdjust="spacing" textLength="27" x="333.5" y="81.8457">SPA</text><rect fill="#FFFFFF" height="49.2188" rx="2.5" ry="2.5" style="stroke:#000000;stroke-width:0.5;" width="120" x="287" y="402.9219"/><text fill="#000000" font-family="sans-serif" font-size="14" font-style="italic" lengthAdjust="spacing" textLength="106" x="294" y="424.4551">«Container(C4)»</text><text fill="#000000" font-family="sans-serif" font-size="14" lengthAdjust="spacing" textLength="27" x="333.5" y="442.0645">SPA</text><rect fill="#FFFFFF" height="49.2188" rx="2.5" ry="2.5" style="stroke:#000000;stroke-width:0.5;" width="120" x="497" y="42.7031"/><text fill="#000000" font-family="sans-serif" font-size="14" font-style="italic" lengthAdjust="spacing" textLength="106" x="504" y="64.2363">«Container(C4)»</text><text fill="#000000" font-family="sans-serif" font-size="14" lengthAdjust="spacing" textLength="55" x="529.5" y="81.8457">Logistics</text><rect fill="#FFFFFF" height="49.2188" rx="2.5" ry="2.5" style="stroke:#000000;stroke-width:0.5;" width="120" x="497" y="402.9219"/><text fill="#000000" font-family="sans-serif" font-size="14" font-style="italic" lengthAdjust="spacing" textLength="106" x="504" y="424.4551">«Container(C4)»</text><text fill="#000000" font-family="sans-serif" font-size="14" lengthAdjust="spacing" textLength="55" x="529.5" y="442.0645">Logistics</text><rect fill="#FFFFFF" height="30.3516" style="stroke:#181818;stroke-width:1.0;" width="10" x="342" y="125.2734"/><rect fill="#FFFFFF" height="207.9453" style="stroke:#181818;stroke-width:1.0;" width="10" x="342" y="185.9766"/><rect fill="#FFFFFF" height="132.2422" style="stroke:#181818;stroke-width:1.0;" width="10" x="552" y="216.3281"/><polygon fill="#181818" points="330,121.2734,340,125.2734,330,129.2734,334,125.2734" style="stroke:#181818;stroke-width:1.0;"/><line style="stroke:#181818;stroke-width:1.0;" x1="69" x2="336" y1="125.2734" y2="125.2734"/><text fill="#000000" font-family="sans-serif" font-size="13" font-weight="bold" lengthAdjust="spacing" textLength="7" x="76" y="120.417">1</text><text fill="#000000" font-family="sans-serif" font-size="13" lengthAdjust="spacing" textLength="121" x="87" y="120.417">I want to delete truck</text><polygon fill="#181818" points="80,151.625,70,155.625,80,159.625,76,155.625" style="stroke:#181818;stroke-width:1.0;"/><line style="stroke:#181818;stroke-width:1.0;stroke-dasharray:2.0,2.0;" x1="74" x2="346" y1="155.625" y2="155.625"/><text fill="#000000" font-family="sans-serif" font-size="13" font-weight="bold" lengthAdjust="spacing" textLength="7" x="86" y="150.7686">2</text><text fill="#000000" font-family="sans-serif" font-size="13" lengthAdjust="spacing" textLength="95" x="97" y="150.7686">asks for truck ID</text><polygon fill="#181818" points="330,181.9766,340,185.9766,330,189.9766,334,185.9766" style="stroke:#181818;stroke-width:1.0;"/><line style="stroke:#181818;stroke-width:1.0;" x1="69" x2="336" y1="185.9766" y2="185.9766"/><text fill="#000000" font-family="sans-serif" font-size="13" font-weight="bold" lengthAdjust="spacing" textLength="7" x="76" y="181.1201">3</text><text fill="#000000" font-family="sans-serif" font-size="13" lengthAdjust="spacing" textLength="88" x="87" y="181.1201">inserts truck ID</text><polygon fill="#181818" points="540,212.3281,550,216.3281,540,220.3281,544,216.3281" style="stroke:#181818;stroke-width:1.0;"/><line style="stroke:#181818;stroke-width:1.0;" x1="352" x2="546" y1="216.3281" y2="216.3281"/><text fill="#000000" font-family="sans-serif" font-size="13" font-weight="bold" lengthAdjust="spacing" textLength="7" x="359" y="211.4717">4</text><text fill="#000000" font-family="sans-serif" font-size="13" lengthAdjust="spacing" textLength="170" x="370" y="211.4717">DELETE deleteTruck(truckID)</text><path d="M10,231.3281 L71,231.3281 L71,239.6797 L61,249.6797 L10,249.6797 L10,231.3281 " fill="#EEEEEE" style="stroke:#000000;stroke-width:1.5;"/><rect fill="none" height="155.5938" style="stroke:#000000;stroke-width:1.5;" width="617" x="10" y="231.3281"/><text fill="#000000" font-family="sans-serif" font-size="13" font-weight="bold" lengthAdjust="spacing" textLength="16" x="25" y="245.8232">alt</text><text fill="#000000" font-family="sans-serif" font-size="11" font-weight="bold" lengthAdjust="spacing" textLength="74" x="86" y="244.7471">[truck exists]</text><polygon fill="#181818" points="363,268.0313,353,272.0313,363,276.0313,359,272.0313" style="stroke:#181818;stroke-width:1.0;"/><line style="stroke:#181818;stroke-width:1.0;stroke-dasharray:2.0,2.0;" x1="357" x2="551" y1="272.0313" y2="272.0313"/><text fill="#000000" font-family="sans-serif" font-size="13" font-weight="bold" lengthAdjust="spacing" textLength="7" x="369" y="267.1748">5</text><text fill="#000000" font-family="sans-serif" font-size="13" lengthAdjust="spacing" textLength="44" x="380" y="267.1748">200 OK</text><polygon fill="#181818" points="80,298.3828,70,302.3828,80,306.3828,76,302.3828" style="stroke:#181818;stroke-width:1.0;"/><line style="stroke:#181818;stroke-width:1.0;stroke-dasharray:2.0,2.0;" x1="74" x2="341" y1="302.3828" y2="302.3828"/><text fill="#000000" font-family="sans-serif" font-size="13" font-weight="bold" lengthAdjust="spacing" textLength="7" x="86" y="297.5264">6</text><text fill="#000000" font-family="sans-serif" font-size="13" lengthAdjust="spacing" textLength="238" x="97" y="297.5264">informs about the success of the deletion</text><line style="stroke:#000000;stroke-width:1.0;stroke-dasharray:2.0,2.0;" x1="10" x2="627" y1="311.3828" y2="311.3828"/><text fill="#000000" font-family="sans-serif" font-size="11" font-weight="bold" lengthAdjust="spacing" textLength="119" x="15" y="322.8018">[truck doesn't exists]</text><polygon fill="#181818" points="363,344.5703,353,348.5703,363,352.5703,359,348.5703" style="stroke:#181818;stroke-width:1.0;"/><line style="stroke:#181818;stroke-width:1.0;stroke-dasharray:2.0,2.0;" x1="357" x2="556" y1="348.5703" y2="348.5703"/><text fill="#000000" font-family="sans-serif" font-size="13" font-weight="bold" lengthAdjust="spacing" textLength="7" x="369" y="343.7139">7</text><text fill="#000000" font-family="sans-serif" font-size="13" lengthAdjust="spacing" textLength="100" x="380" y="343.7139">404 NOT FOUND</text><polygon fill="#181818" points="80,374.9219,70,378.9219,80,382.9219,76,378.9219" style="stroke:#181818;stroke-width:1.0;"/><line style="stroke:#181818;stroke-width:1.0;stroke-dasharray:2.0,2.0;" x1="74" x2="341" y1="378.9219" y2="378.9219"/><text fill="#000000" font-family="sans-serif" font-size="13" font-weight="bold" lengthAdjust="spacing" textLength="7" x="86" y="374.0654">8</text><text fill="#000000" font-family="sans-serif" font-size="13" lengthAdjust="spacing" textLength="223" x="97" y="374.0654">informs about the failure of the deletion</text><!--MD5=[f321a3b8b0d6ca950d8ab28c418f3650]
@startuml deleteTruckSD
autonumber

skinparam sequence {
ParticipantBorderColor black
ParticipantBackgroundColor white
}

actor "Fleet Manager" as manager


box "<<System(C4)>>\n       System"
participant SPA as  SPA <<Container(C4)>>
participant Logistics as  Logistics <<Container(C4)>>


manager -> SPA: I want to delete truck
activate SPA

SPA - -> manager: asks for truck ID
deactivate SPA

manager -> SPA: inserts truck ID
activate SPA

SPA -> Logistics: DELETE deleteTruck(truckID)
activate Logistics


alt truck exists

Logistics - -> SPA: 200 OK
SPA - -> manager: informs about the success of the deletion


else truck doesn't exists

Logistics - -> SPA: 404 NOT FOUND
deactivate Logistics
SPA - -> manager: informs about the failure of the deletion

end

deactivate SPA
deactivate manager

@enduml

PlantUML version 1.2022.7(Mon Aug 22 18:01:30 WEST 2022)
(GPL source distribution)
Java Runtime: Java(TM) SE Runtime Environment
JVM: Java HotSpot(TM) 64-Bit Server VM
Default Encoding: Cp1252
Language: en
Country: GB
--></g></svg>