<?xml version="1.0" encoding="UTF-8" standalone="no"?><svg xmlns="http://www.w3.org/2000/svg" xmlns:xlink="http://www.w3.org/1999/xlink" contentStyleType="text/css" height="320px" preserveAspectRatio="none" style="width:433px;height:320px;background:#FFFFFF;" version="1.1" viewBox="0 0 433 320" width="433px" zoomAndPan="magnify"><defs/><g><rect fill="#DDDDDD" height="308.9375" style="stroke:#181818;stroke-width:0.5;" width="271" x="156" y="6"/><text fill="#000000" font-family="sans-serif" font-size="13" font-weight="bold" lengthAdjust="spacing" textLength="102" x="240.5" y="19.4951">&lt;&lt;System(C4)&gt;&gt;</text><text fill="#000000" font-family="sans-serif" font-size="13" font-weight="bold" lengthAdjust="spacing" textLength="46" x="268.5" y="35.8467">System</text><rect fill="#FFFFFF" height="91.0547" style="stroke:#181818;stroke-width:1.0;" width="10" x="215" y="125.2734"/><rect fill="#FFFFFF" height="60.7031" style="stroke:#181818;stroke-width:1.0;" width="10" x="358" y="155.625"/><line style="stroke:#181818;stroke-width:0.5;stroke-dasharray:5.0,5.0;" x1="54" x2="54" y1="92.9219" y2="234.3281"/><line style="stroke:#181818;stroke-width:0.5;stroke-dasharray:5.0,5.0;" x1="220" x2="220" y1="92.9219" y2="234.3281"/><line style="stroke:#181818;stroke-width:0.5;stroke-dasharray:5.0,5.0;" x1="363" x2="363" y1="92.9219" y2="234.3281"/><text fill="#000000" font-family="sans-serif" font-size="14" lengthAdjust="spacing" textLength="92" x="5" y="89.8457">Fleet Manager</text><ellipse cx="54" cy="23.8125" fill="#E2E2F0" rx="8" ry="8" style="stroke:#181818;stroke-width:0.5;"/><path d="M54,31.8125 L54,58.8125 M41,39.8125 L67,39.8125 M54,58.8125 L41,73.8125 M54,58.8125 L67,73.8125 " fill="none" style="stroke:#181818;stroke-width:0.5;"/><text fill="#000000" font-family="sans-serif" font-size="14" lengthAdjust="spacing" textLength="92" x="5" y="247.8613">Fleet Manager</text><ellipse cx="54" cy="259.4375" fill="#E2E2F0" rx="8" ry="8" style="stroke:#181818;stroke-width:0.5;"/><path d="M54,267.4375 L54,294.4375 M41,275.4375 L67,275.4375 M54,294.4375 L41,309.4375 M54,294.4375 L67,309.4375 " fill="none" style="stroke:#181818;stroke-width:0.5;"/><rect fill="#FFFFFF" height="49.2188" rx="2.5" ry="2.5" style="stroke:#000000;stroke-width:0.5;" width="120" x="160" y="42.7031"/><text fill="#000000" font-family="sans-serif" font-size="14" font-style="italic" lengthAdjust="spacing" textLength="106" x="167" y="64.2363">«Container(C4)»</text><text fill="#000000" font-family="sans-serif" font-size="14" lengthAdjust="spacing" textLength="27" x="206.5" y="81.8457">SPA</text><rect fill="#FFFFFF" height="49.2188" rx="2.5" ry="2.5" style="stroke:#000000;stroke-width:0.5;" width="120" x="160" y="233.3281"/><text fill="#000000" font-family="sans-serif" font-size="14" font-style="italic" lengthAdjust="spacing" textLength="106" x="167" y="254.8613">«Container(C4)»</text><text fill="#000000" font-family="sans-serif" font-size="14" lengthAdjust="spacing" textLength="27" x="206.5" y="272.4707">SPA</text><rect fill="#FFFFFF" height="49.2188" rx="2.5" ry="2.5" style="stroke:#000000;stroke-width:0.5;" width="120" x="303" y="42.7031"/><text fill="#000000" font-family="sans-serif" font-size="14" font-style="italic" lengthAdjust="spacing" textLength="106" x="310" y="64.2363">«Container(C4)»</text><text fill="#000000" font-family="sans-serif" font-size="14" lengthAdjust="spacing" textLength="55" x="335.5" y="81.8457">Logistics</text><rect fill="#FFFFFF" height="49.2188" rx="2.5" ry="2.5" style="stroke:#000000;stroke-width:0.5;" width="120" x="303" y="233.3281"/><text fill="#000000" font-family="sans-serif" font-size="14" font-style="italic" lengthAdjust="spacing" textLength="106" x="310" y="254.8613">«Container(C4)»</text><text fill="#000000" font-family="sans-serif" font-size="14" lengthAdjust="spacing" textLength="55" x="335.5" y="272.4707">Logistics</text><rect fill="#FFFFFF" height="91.0547" style="stroke:#181818;stroke-width:1.0;" width="10" x="215" y="125.2734"/><rect fill="#FFFFFF" height="60.7031" style="stroke:#181818;stroke-width:1.0;" width="10" x="358" y="155.625"/><polygon fill="#181818" points="203,121.2734,213,125.2734,203,129.2734,207,125.2734" style="stroke:#181818;stroke-width:1.0;"/><line style="stroke:#181818;stroke-width:1.0;" x1="54" x2="209" y1="125.2734" y2="125.2734"/><text fill="#000000" font-family="sans-serif" font-size="13" font-weight="bold" lengthAdjust="spacing" textLength="7" x="61" y="120.417">1</text><text fill="#000000" font-family="sans-serif" font-size="13" lengthAdjust="spacing" textLength="131" x="72" y="120.417">I want to get all Trucks</text><polygon fill="#181818" points="346,151.625,356,155.625,346,159.625,350,155.625" style="stroke:#181818;stroke-width:1.0;"/><line style="stroke:#181818;stroke-width:1.0;" x1="225" x2="352" y1="155.625" y2="155.625"/><text fill="#000000" font-family="sans-serif" font-size="13" font-weight="bold" lengthAdjust="spacing" textLength="7" x="232" y="150.7686">2</text><text fill="#000000" font-family="sans-serif" font-size="13" lengthAdjust="spacing" textLength="103" x="243" y="150.7686">GET getAllTruck()</text><polygon fill="#181818" points="236,181.9766,226,185.9766,236,189.9766,232,185.9766" style="stroke:#181818;stroke-width:1.0;"/><line style="stroke:#181818;stroke-width:1.0;" x1="230" x2="357" y1="185.9766" y2="185.9766"/><text fill="#000000" font-family="sans-serif" font-size="13" font-weight="bold" lengthAdjust="spacing" textLength="7" x="242" y="181.1201">3</text><text fill="#000000" font-family="sans-serif" font-size="13" lengthAdjust="spacing" textLength="44" x="253" y="181.1201">200 OK</text><polygon fill="#181818" points="65,212.3281,55,216.3281,65,220.3281,61,216.3281" style="stroke:#181818;stroke-width:1.0;"/><line style="stroke:#181818;stroke-width:1.0;" x1="59" x2="219" y1="216.3281" y2="216.3281"/><text fill="#000000" font-family="sans-serif" font-size="13" font-weight="bold" lengthAdjust="spacing" textLength="7" x="71" y="211.4717">4</text><text fill="#000000" font-family="sans-serif" font-size="13" lengthAdjust="spacing" textLength="53" x="82" y="211.4717">all trucks</text><!--MD5=[8fc802e5c0c0ce71c83c26fb18e05c75]
@startuml getAllTruckSD
autonumber

skinparam sequence {
ParticipantBorderColor black
ParticipantBackgroundColor white
}


actor "Fleet Manager" as manager


box "<<System(C4)>>\n       System"
participant SPA as  SPA <<Container(C4)>>
participant Logistics as  Logistics <<Container(C4)>>
end box

manager -> SPA: I want to get all Trucks
activate SPA

SPA -> Logistics: GET getAllTruck()
activate Logistics

Logistics -> SPA: 200 OK

SPA -> manager: all trucks



deactivate Logistics
deactivate SPA
deactivate manager


@enduml

PlantUML version 1.2022.7(Mon Aug 22 18:01:30 WEST 2022)
(GPL source distribution)
Java Runtime: Java(TM) SE Runtime Environment
JVM: Java HotSpot(TM) 64-Bit Server VM
Default Encoding: Cp1252
Language: en
Country: GB
--></g></svg>