<?xml version="1.0" encoding="UTF-8" standalone="no"?><svg xmlns="http://www.w3.org/2000/svg" xmlns:xlink="http://www.w3.org/1999/xlink" contentStyleType="text/css" height="1157px" preserveAspectRatio="none" style="width:1439px;height:1157px;background:#FFFFFF;" version="1.1" viewBox="0 0 1439 1157" width="1439px" zoomAndPan="magnify"><defs/><g><rect fill="#D3D3D3" height="1145.3047" style="stroke:#181818;stroke-width:0.5;" width="1219.5" x="201" y="6"/><text fill="#000000" font-family="sans-serif" font-size="13" font-weight="bold" lengthAdjust="spacing" textLength="102" x="759.75" y="19.4951">&lt;&lt;System(C4)&gt;&gt;</text><text fill="#000000" font-family="sans-serif" font-size="13" font-weight="bold" lengthAdjust="spacing" textLength="46" x="787.75" y="35.8467">System</text><rect fill="#E0FFFF" height="1107.6016" style="stroke:#181818;stroke-width:0.5;" width="956" x="464.5" y="43.7031"/><text fill="#000000" font-family="sans-serif" font-size="13" font-weight="bold" lengthAdjust="spacing" textLength="118" x="883.5" y="57.1982">&lt;&lt;Container(C4)&gt;&gt;</text><text fill="#000000" font-family="sans-serif" font-size="13" font-weight="bold" lengthAdjust="spacing" textLength="55" x="911.5" y="73.5498">Logistics</text><rect fill="none" height="721.9219" style="stroke:#000000;stroke-width:1.5;" width="1394.5" x="38" y="321.7734"/><line style="stroke:#181818;stroke-width:0.5;stroke-dasharray:5.0,5.0;" x1="54" x2="54" y1="158.0156" y2="1067.6953"/><rect fill="#FFFFFF" height="901.6797" style="stroke:#181818;stroke-width:1.0;" width="10" x="49" y="166.0156"/><line style="stroke:#181818;stroke-width:0.5;stroke-dasharray:5.0,5.0;" x1="265" x2="265" y1="158.0156" y2="1067.6953"/><rect fill="#FFFFFF" height="52.7031" style="stroke:#181818;stroke-width:1.0;" width="10" x="260" y="166.0156"/><rect fill="#FFFFFF" height="818.625" style="stroke:#181818;stroke-width:1.0;" width="10" x="260" y="249.0703"/><line style="stroke:#181818;stroke-width:0.5;stroke-dasharray:5.0,5.0;" x1="534" x2="534" y1="158.0156" y2="1067.6953"/><rect fill="#FFFFFF" height="788.2734" style="stroke:#181818;stroke-width:1.0;" width="10" x="529" y="279.4219"/><line style="stroke:#181818;stroke-width:0.5;stroke-dasharray:5.0,5.0;" x1="803" x2="803" y1="158.0156" y2="1067.6953"/><rect fill="#FFFFFF" height="757.9219" style="stroke:#181818;stroke-width:1.0;" width="10" x="798" y="309.7734"/><line style="stroke:#181818;stroke-width:0.5;stroke-dasharray:5.0,5.0;" x1="995" x2="995" y1="158.0156" y2="1067.6953"/><rect fill="#FFFFFF" height="695.2188" style="stroke:#181818;stroke-width:1.0;" width="10" x="990" y="372.4766"/><line style="stroke:#181818;stroke-width:0.5;stroke-dasharray:5.0,5.0;" x1="1189" x2="1189" y1="158.0156" y2="1067.6953"/><rect fill="#FFFFFF" height="664.8672" style="stroke:#181818;stroke-width:1.0;" width="10" x="1184" y="402.8281"/><line style="stroke:#181818;stroke-width:0.5;stroke-dasharray:5.0,5.0;" x1="1351" x2="1351" y1="158.0156" y2="1067.6953"/><rect fill="#FFFFFF" height="634.5156" style="stroke:#181818;stroke-width:1.0;" width="10" x="1346" y="433.1797"/><text fill="#000000" font-family="sans-serif" font-size="14" lengthAdjust="spacing" textLength="92" x="5" y="154.9395">Fleet Manager</text><ellipse cx="54" cy="88.9063" fill="#E2E2F0" rx="8" ry="8" style="stroke:#181818;stroke-width:0.5;"/><path d="M54,96.9063 L54,123.9063 M41,104.9063 L67,104.9063 M54,123.9063 L41,138.9063 M54,123.9063 L67,138.9063 " fill="none" style="stroke:#181818;stroke-width:0.5;"/><rect fill="#FFFFFF" height="49.2188" rx="2.5" ry="2.5" style="stroke:#000000;stroke-width:0.5;" width="120" x="205" y="107.7969"/><text fill="#000000" font-family="sans-serif" font-size="14" font-style="italic" lengthAdjust="spacing" textLength="106" x="212" y="129.3301">«Container(C4)»</text><text fill="#000000" font-family="sans-serif" font-size="14" lengthAdjust="spacing" textLength="27" x="251.5" y="146.9395">SPA</text><rect fill="#FFFFFF" height="49.2188" rx="2.5" ry="2.5" style="stroke:#000000;stroke-width:0.5;" width="131" x="468.5" y="107.7969"/><text fill="#000000" font-family="sans-serif" font-size="14" font-style="italic" lengthAdjust="spacing" textLength="117" x="475.5" y="129.3301">«Component(C4)»</text><text fill="#000000" font-family="sans-serif" font-size="14" lengthAdjust="spacing" textLength="74" x="497" y="146.9395">TruckRoute</text><rect fill="#FFFFFF" height="49.2188" rx="2.5" ry="2.5" style="stroke:#000000;stroke-width:0.5;" width="131" x="737.5" y="107.7969"/><text fill="#000000" font-family="sans-serif" font-size="14" font-style="italic" lengthAdjust="spacing" textLength="117" x="744.5" y="129.3301">«Component(C4)»</text><text fill="#000000" font-family="sans-serif" font-size="14" lengthAdjust="spacing" textLength="98" x="754" y="146.9395">TruckController</text><rect fill="#FFFFFF" height="49.2188" rx="2.5" ry="2.5" style="stroke:#000000;stroke-width:0.5;" width="131" x="929.5" y="107.7969"/><text fill="#000000" font-family="sans-serif" font-size="14" font-style="italic" lengthAdjust="spacing" textLength="117" x="936.5" y="129.3301">«Component(C4)»</text><text fill="#000000" font-family="sans-serif" font-size="14" lengthAdjust="spacing" textLength="83" x="953.5" y="146.9395">TruckService</text><rect fill="#FFFFFF" height="49.2188" rx="2.5" ry="2.5" style="stroke:#000000;stroke-width:0.5;" width="131" x="1123.5" y="107.7969"/><text fill="#000000" font-family="sans-serif" font-size="14" font-style="italic" lengthAdjust="spacing" textLength="117" x="1130.5" y="129.3301">«Component(C4)»</text><text fill="#000000" font-family="sans-serif" font-size="14" lengthAdjust="spacing" textLength="104" x="1137" y="146.9395">TruckRepository</text><rect fill="#FFFFFF" height="49.2188" rx="2.5" ry="2.5" style="stroke:#000000;stroke-width:0.5;" width="131" x="1285.5" y="107.7969"/><text fill="#000000" font-family="sans-serif" font-size="14" font-style="italic" lengthAdjust="spacing" textLength="117" x="1292.5" y="129.3301">«Component(C4)»</text><text fill="#000000" font-family="sans-serif" font-size="14" lengthAdjust="spacing" textLength="74" x="1314" y="146.9395">Persistance</text><text fill="#000000" font-family="sans-serif" font-size="14" lengthAdjust="spacing" textLength="92" x="5" y="1142.2285">Fleet Manager</text><ellipse cx="54" cy="1076.1953" fill="#E2E2F0" rx="8" ry="8" style="stroke:#181818;stroke-width:0.5;"/><path d="M54,1084.1953 L54,1111.1953 M41,1092.1953 L67,1092.1953 M54,1111.1953 L41,1126.1953 M54,1111.1953 L67,1126.1953 " fill="none" style="stroke:#181818;stroke-width:0.5;"/><rect fill="#FFFFFF" height="49.2188" rx="2.5" ry="2.5" style="stroke:#000000;stroke-width:0.5;" width="120" x="205" y="1067.6953"/><text fill="#000000" font-family="sans-serif" font-size="14" font-style="italic" lengthAdjust="spacing" textLength="106" x="212" y="1089.2285">«Container(C4)»</text><text fill="#000000" font-family="sans-serif" font-size="14" lengthAdjust="spacing" textLength="27" x="251.5" y="1106.8379">SPA</text><rect fill="#FFFFFF" height="49.2188" rx="2.5" ry="2.5" style="stroke:#000000;stroke-width:0.5;" width="131" x="468.5" y="1067.6953"/><text fill="#000000" font-family="sans-serif" font-size="14" font-style="italic" lengthAdjust="spacing" textLength="117" x="475.5" y="1089.2285">«Component(C4)»</text><text fill="#000000" font-family="sans-serif" font-size="14" lengthAdjust="spacing" textLength="74" x="497" y="1106.8379">TruckRoute</text><rect fill="#FFFFFF" height="49.2188" rx="2.5" ry="2.5" style="stroke:#000000;stroke-width:0.5;" width="131" x="737.5" y="1067.6953"/><text fill="#000000" font-family="sans-serif" font-size="14" font-style="italic" lengthAdjust="spacing" textLength="117" x="744.5" y="1089.2285">«Component(C4)»</text><text fill="#000000" font-family="sans-serif" font-size="14" lengthAdjust="spacing" textLength="98" x="754" y="1106.8379">TruckController</text><rect fill="#FFFFFF" height="49.2188" rx="2.5" ry="2.5" style="stroke:#000000;stroke-width:0.5;" width="131" x="929.5" y="1067.6953"/><text fill="#000000" font-family="sans-serif" font-size="14" font-style="italic" lengthAdjust="spacing" textLength="117" x="936.5" y="1089.2285">«Component(C4)»</text><text fill="#000000" font-family="sans-serif" font-size="14" lengthAdjust="spacing" textLength="83" x="953.5" y="1106.8379">TruckService</text><rect fill="#FFFFFF" height="49.2188" rx="2.5" ry="2.5" style="stroke:#000000;stroke-width:0.5;" width="131" x="1123.5" y="1067.6953"/><text fill="#000000" font-family="sans-serif" font-size="14" font-style="italic" lengthAdjust="spacing" textLength="117" x="1130.5" y="1089.2285">«Component(C4)»</text><text fill="#000000" font-family="sans-serif" font-size="14" lengthAdjust="spacing" textLength="104" x="1137" y="1106.8379">TruckRepository</text><rect fill="#FFFFFF" height="49.2188" rx="2.5" ry="2.5" style="stroke:#000000;stroke-width:0.5;" width="131" x="1285.5" y="1067.6953"/><text fill="#000000" font-family="sans-serif" font-size="14" font-style="italic" lengthAdjust="spacing" textLength="117" x="1292.5" y="1089.2285">«Component(C4)»</text><text fill="#000000" font-family="sans-serif" font-size="14" lengthAdjust="spacing" textLength="74" x="1314" y="1106.8379">Persistance</text><polygon fill="#181818" points="248,184.3672,258,188.3672,248,192.3672,252,188.3672" style="stroke:#181818;stroke-width:1.0;"/><line style="stroke:#181818;stroke-width:1.0;" x1="59" x2="254" y1="188.3672" y2="188.3672"/><text fill="#000000" font-family="sans-serif" font-size="13" font-weight="bold" lengthAdjust="spacing" textLength="7" x="66" y="183.5107">1</text><text fill="#000000" font-family="sans-serif" font-size="13" lengthAdjust="spacing" textLength="135" x="77" y="183.5107">Asks to update a Truck</text><polygon fill="#181818" points="70,214.7188,60,218.7188,70,222.7188,66,218.7188" style="stroke:#181818;stroke-width:1.0;"/><line style="stroke:#181818;stroke-width:1.0;" x1="64" x2="259" y1="218.7188" y2="218.7188"/><text fill="#000000" font-family="sans-serif" font-size="13" font-weight="bold" lengthAdjust="spacing" textLength="7" x="76" y="213.8623">2</text><text fill="#000000" font-family="sans-serif" font-size="13" lengthAdjust="spacing" textLength="100" x="87" y="213.8623">Asks for Truck ID</text><polygon fill="#181818" points="248,245.0703,258,249.0703,248,253.0703,252,249.0703" style="stroke:#181818;stroke-width:1.0;"/><line style="stroke:#181818;stroke-width:1.0;" x1="59" x2="254" y1="249.0703" y2="249.0703"/><text fill="#000000" font-family="sans-serif" font-size="13" font-weight="bold" lengthAdjust="spacing" textLength="7" x="66" y="244.2139">3</text><text fill="#000000" font-family="sans-serif" font-size="13" lengthAdjust="spacing" textLength="91" x="77" y="244.2139">Inserts Truck ID</text><polygon fill="#181818" points="517,275.4219,527,279.4219,517,283.4219,521,279.4219" style="stroke:#181818;stroke-width:1.0;"/><line style="stroke:#181818;stroke-width:1.0;" x1="270" x2="523" y1="279.4219" y2="279.4219"/><text fill="#000000" font-family="sans-serif" font-size="13" font-weight="bold" lengthAdjust="spacing" textLength="7" x="277" y="274.5654">4</text><text fill="#000000" font-family="sans-serif" font-size="13" lengthAdjust="spacing" textLength="155" x="288" y="274.5654">PATCH updateTruck(truck)</text><polygon fill="#181818" points="786,305.7734,796,309.7734,786,313.7734,790,309.7734" style="stroke:#181818;stroke-width:1.0;"/><line style="stroke:#181818;stroke-width:1.0;" x1="539" x2="792" y1="309.7734" y2="309.7734"/><text fill="#000000" font-family="sans-serif" font-size="13" font-weight="bold" lengthAdjust="spacing" textLength="7" x="546" y="304.917">5</text><text fill="#000000" font-family="sans-serif" font-size="13" lengthAdjust="spacing" textLength="155" x="557" y="304.917">PATCH updateTruck(truck)</text><path d="M38,321.7734 L99,321.7734 L99,330.125 L89,340.125 L38,340.125 L38,321.7734 " fill="#EEEEEE" style="stroke:#000000;stroke-width:1.5;"/><rect fill="none" height="721.9219" style="stroke:#000000;stroke-width:1.5;" width="1394.5" x="38" y="321.7734"/><text fill="#000000" font-family="sans-serif" font-size="13" font-weight="bold" lengthAdjust="spacing" textLength="16" x="53" y="336.2686">alt</text><text fill="#000000" font-family="sans-serif" font-size="11" font-weight="bold" lengthAdjust="spacing" textLength="77" x="114" y="335.1924">[Truck exists]</text><line style="stroke:#000000;stroke-width:1.0;stroke-dasharray:2.0,2.0;" x1="38" x2="1432.5" y1="755.6953" y2="755.6953"/><text fill="#000000" font-family="sans-serif" font-size="11" font-weight="bold" lengthAdjust="spacing" textLength="122" x="43" y="767.1143">[Truck doesn't exists]</text><polygon fill="#181818" points="978,368.4766,988,372.4766,978,376.4766,982,372.4766" style="stroke:#181818;stroke-width:1.0;"/><line style="stroke:#181818;stroke-width:1.0;" x1="808" x2="984" y1="372.4766" y2="372.4766"/><text fill="#000000" font-family="sans-serif" font-size="13" font-weight="bold" lengthAdjust="spacing" textLength="7" x="815" y="367.6201">6</text><text fill="#000000" font-family="sans-serif" font-size="13" lengthAdjust="spacing" textLength="108" x="826" y="367.6201">updateTruck(truck)</text><polygon fill="#181818" points="1172,398.8281,1182,402.8281,1172,406.8281,1176,402.8281" style="stroke:#181818;stroke-width:1.0;"/><line style="stroke:#181818;stroke-width:1.0;" x1="1000" x2="1178" y1="402.8281" y2="402.8281"/><text fill="#000000" font-family="sans-serif" font-size="13" font-weight="bold" lengthAdjust="spacing" textLength="7" x="1007" y="397.9717">7</text><text fill="#000000" font-family="sans-serif" font-size="13" lengthAdjust="spacing" textLength="147" x="1018" y="397.9717">getTruckById(truckInfo.id)</text><polygon fill="#181818" points="1334,429.1797,1344,433.1797,1334,437.1797,1338,433.1797" style="stroke:#181818;stroke-width:1.0;"/><line style="stroke:#181818;stroke-width:1.0;" x1="1194" x2="1340" y1="433.1797" y2="433.1797"/><text fill="#000000" font-family="sans-serif" font-size="13" font-weight="bold" lengthAdjust="spacing" textLength="7" x="1201" y="428.3232">8</text><text fill="#000000" font-family="sans-serif" font-size="13" lengthAdjust="spacing" textLength="115" x="1212" y="428.3232">findOne(truckInfo.id)</text><polygon fill="#181818" points="1205,459.5313,1195,463.5313,1205,467.5313,1201,463.5313" style="stroke:#181818;stroke-width:1.0;"/><line style="stroke:#181818;stroke-width:1.0;" x1="1199" x2="1345" y1="463.5313" y2="463.5313"/><text fill="#000000" font-family="sans-serif" font-size="13" font-weight="bold" lengthAdjust="spacing" textLength="7" x="1211" y="458.6748">9</text><text fill="#000000" font-family="sans-serif" font-size="13" lengthAdjust="spacing" textLength="29" x="1222" y="458.6748">truck</text><polygon fill="#181818" points="1011,489.8828,1001,493.8828,1011,497.8828,1007,493.8828" style="stroke:#181818;stroke-width:1.0;"/><line style="stroke:#181818;stroke-width:1.0;" x1="1005" x2="1183" y1="493.8828" y2="493.8828"/><text fill="#000000" font-family="sans-serif" font-size="13" font-weight="bold" lengthAdjust="spacing" textLength="14" x="1017" y="489.0264">10</text><text fill="#000000" font-family="sans-serif" font-size="13" lengthAdjust="spacing" textLength="29" x="1035" y="489.0264">truck</text><polygon fill="#181818" points="1172,520.2344,1182,524.2344,1172,528.2344,1176,524.2344" style="stroke:#181818;stroke-width:1.0;"/><line style="stroke:#181818;stroke-width:1.0;" x1="1000" x2="1178" y1="524.2344" y2="524.2344"/><text fill="#000000" font-family="sans-serif" font-size="13" font-weight="bold" lengthAdjust="spacing" textLength="14" x="1007" y="519.3779">11</text><text fill="#000000" font-family="sans-serif" font-size="13" lengthAdjust="spacing" textLength="96" x="1025" y="519.3779">update(truckInfo)</text><polygon fill="#181818" points="1334,550.5859,1344,554.5859,1334,558.5859,1338,554.5859" style="stroke:#181818;stroke-width:1.0;"/><line style="stroke:#181818;stroke-width:1.0;" x1="1194" x2="1340" y1="554.5859" y2="554.5859"/><text fill="#000000" font-family="sans-serif" font-size="13" font-weight="bold" lengthAdjust="spacing" textLength="14" x="1201" y="549.7295">12</text><text fill="#000000" font-family="sans-serif" font-size="13" lengthAdjust="spacing" textLength="83" x="1219" y="549.7295">save(truckInfo)</text><polygon fill="#181818" points="1334,580.9375,1344,584.9375,1334,588.9375,1338,584.9375" style="stroke:#181818;stroke-width:1.0;"/><line style="stroke:#181818;stroke-width:1.0;" x1="1194" x2="1340" y1="584.9375" y2="584.9375"/><text fill="#000000" font-family="sans-serif" font-size="13" font-weight="bold" lengthAdjust="spacing" textLength="14" x="1201" y="580.0811">13</text><text fill="#000000" font-family="sans-serif" font-size="13" lengthAdjust="spacing" textLength="22" x="1219" y="580.0811">true</text><polygon fill="#181818" points="1011,611.2891,1001,615.2891,1011,619.2891,1007,615.2891" style="stroke:#181818;stroke-width:1.0;"/><line style="stroke:#181818;stroke-width:1.0;" x1="1005" x2="1183" y1="615.2891" y2="615.2891"/><text fill="#000000" font-family="sans-serif" font-size="13" font-weight="bold" lengthAdjust="spacing" textLength="14" x="1017" y="610.4326">14</text><text fill="#000000" font-family="sans-serif" font-size="13" lengthAdjust="spacing" textLength="49" x="1035" y="610.4326">truckInfo</text><polygon fill="#181818" points="819,641.6406,809,645.6406,819,649.6406,815,645.6406" style="stroke:#181818;stroke-width:1.0;"/><line style="stroke:#181818;stroke-width:1.0;" x1="813" x2="989" y1="645.6406" y2="645.6406"/><text fill="#000000" font-family="sans-serif" font-size="13" font-weight="bold" lengthAdjust="spacing" textLength="14" x="825" y="640.7842">15</text><text fill="#000000" font-family="sans-serif" font-size="13" lengthAdjust="spacing" textLength="49" x="843" y="640.7842">truckInfo</text><polygon fill="#181818" points="550,671.9922,540,675.9922,550,679.9922,546,675.9922" style="stroke:#181818;stroke-width:1.0;"/><line style="stroke:#181818;stroke-width:1.0;" x1="544" x2="797" y1="675.9922" y2="675.9922"/><text fill="#000000" font-family="sans-serif" font-size="13" font-weight="bold" lengthAdjust="spacing" textLength="14" x="556" y="671.1357">16</text><text fill="#000000" font-family="sans-serif" font-size="13" lengthAdjust="spacing" textLength="109" x="574" y="671.1357">200 OK + truckInfo</text><polygon fill="#181818" points="281,702.3438,271,706.3438,281,710.3438,277,706.3438" style="stroke:#181818;stroke-width:1.0;"/><line style="stroke:#181818;stroke-width:1.0;" x1="275" x2="528" y1="706.3438" y2="706.3438"/><text fill="#000000" font-family="sans-serif" font-size="13" font-weight="bold" lengthAdjust="spacing" textLength="14" x="287" y="701.4873">17</text><text fill="#000000" font-family="sans-serif" font-size="13" lengthAdjust="spacing" textLength="109" x="305" y="701.4873">200 OK + truckInfo</text><polygon fill="#181818" points="70,732.6953,60,736.6953,70,740.6953,66,736.6953" style="stroke:#181818;stroke-width:1.0;"/><line style="stroke:#181818;stroke-width:1.0;" x1="64" x2="259" y1="736.6953" y2="736.6953"/><text fill="#000000" font-family="sans-serif" font-size="13" font-weight="bold" lengthAdjust="spacing" textLength="14" x="76" y="731.8389">18</text><text fill="#000000" font-family="sans-serif" font-size="13" lengthAdjust="spacing" textLength="154" x="94" y="731.8389">shows updated information</text><polygon fill="#181818" points="978,788.8828,988,792.8828,978,796.8828,982,792.8828" style="stroke:#181818;stroke-width:1.0;"/><line style="stroke:#181818;stroke-width:1.0;" x1="808" x2="984" y1="792.8828" y2="792.8828"/><text fill="#000000" font-family="sans-serif" font-size="13" font-weight="bold" lengthAdjust="spacing" textLength="14" x="815" y="788.0264">19</text><text fill="#000000" font-family="sans-serif" font-size="13" lengthAdjust="spacing" textLength="108" x="833" y="788.0264">updateTruck(truck)</text><polygon fill="#181818" points="1172,819.2344,1182,823.2344,1172,827.2344,1176,823.2344" style="stroke:#181818;stroke-width:1.0;"/><line style="stroke:#181818;stroke-width:1.0;" x1="1000" x2="1178" y1="823.2344" y2="823.2344"/><text fill="#000000" font-family="sans-serif" font-size="13" font-weight="bold" lengthAdjust="spacing" textLength="14" x="1007" y="818.3779">20</text><text fill="#000000" font-family="sans-serif" font-size="13" lengthAdjust="spacing" textLength="147" x="1025" y="818.3779">getTruckById(truckInfo.id)</text><polygon fill="#181818" points="1334,849.5859,1344,853.5859,1334,857.5859,1338,853.5859" style="stroke:#181818;stroke-width:1.0;"/><line style="stroke:#181818;stroke-width:1.0;" x1="1194" x2="1340" y1="853.5859" y2="853.5859"/><text fill="#000000" font-family="sans-serif" font-size="13" font-weight="bold" lengthAdjust="spacing" textLength="14" x="1201" y="848.7295">21</text><text fill="#000000" font-family="sans-serif" font-size="13" lengthAdjust="spacing" textLength="115" x="1219" y="848.7295">findOne(truckInfo.id)</text><polygon fill="#181818" points="1205,879.9375,1195,883.9375,1205,887.9375,1201,883.9375" style="stroke:#181818;stroke-width:1.0;"/><line style="stroke:#181818;stroke-width:1.0;" x1="1199" x2="1345" y1="883.9375" y2="883.9375"/><text fill="#000000" font-family="sans-serif" font-size="13" font-weight="bold" lengthAdjust="spacing" textLength="14" x="1211" y="879.0811">22</text><text fill="#000000" font-family="sans-serif" font-size="13" lengthAdjust="spacing" textLength="20" x="1229" y="879.0811">null</text><polygon fill="#181818" points="1011,910.2891,1001,914.2891,1011,918.2891,1007,914.2891" style="stroke:#181818;stroke-width:1.0;"/><line style="stroke:#181818;stroke-width:1.0;" x1="1005" x2="1183" y1="914.2891" y2="914.2891"/><text fill="#000000" font-family="sans-serif" font-size="13" font-weight="bold" lengthAdjust="spacing" textLength="14" x="1017" y="909.4326">23</text><text fill="#000000" font-family="sans-serif" font-size="13" lengthAdjust="spacing" textLength="20" x="1035" y="909.4326">null</text><polygon fill="#181818" points="819,940.6406,809,944.6406,819,948.6406,815,944.6406" style="stroke:#181818;stroke-width:1.0;"/><line style="stroke:#181818;stroke-width:1.0;" x1="813" x2="989" y1="944.6406" y2="944.6406"/><text fill="#000000" font-family="sans-serif" font-size="13" font-weight="bold" lengthAdjust="spacing" textLength="14" x="825" y="939.7842">24</text><text fill="#000000" font-family="sans-serif" font-size="13" lengthAdjust="spacing" textLength="140" x="843" y="939.7842">error, truck doesn't exist</text><polygon fill="#181818" points="550,970.9922,540,974.9922,550,978.9922,546,974.9922" style="stroke:#181818;stroke-width:1.0;"/><line style="stroke:#181818;stroke-width:1.0;" x1="544" x2="797" y1="974.9922" y2="974.9922"/><text fill="#000000" font-family="sans-serif" font-size="13" font-weight="bold" lengthAdjust="spacing" textLength="14" x="556" y="970.1357">25</text><text fill="#000000" font-family="sans-serif" font-size="13" lengthAdjust="spacing" textLength="217" x="574" y="970.1357">404 NOT FOUND, Truck doesn't exist</text><polygon fill="#181818" points="281,1001.3438,271,1005.3438,281,1009.3438,277,1005.3438" style="stroke:#181818;stroke-width:1.0;"/><line style="stroke:#181818;stroke-width:1.0;" x1="275" x2="528" y1="1005.3438" y2="1005.3438"/><text fill="#000000" font-family="sans-serif" font-size="13" font-weight="bold" lengthAdjust="spacing" textLength="14" x="287" y="1000.4873">26</text><text fill="#000000" font-family="sans-serif" font-size="13" lengthAdjust="spacing" textLength="217" x="305" y="1000.4873">404 NOT FOUND, Truck doesn't exist</text><polygon fill="#181818" points="70,1031.6953,60,1035.6953,70,1039.6953,66,1035.6953" style="stroke:#181818;stroke-width:1.0;"/><line style="stroke:#181818;stroke-width:1.0;" x1="64" x2="259" y1="1035.6953" y2="1035.6953"/><text fill="#000000" font-family="sans-serif" font-size="13" font-weight="bold" lengthAdjust="spacing" textLength="14" x="76" y="1030.8389">27</text><text fill="#000000" font-family="sans-serif" font-size="13" lengthAdjust="spacing" textLength="159" x="94" y="1030.8389">informs about update failure</text><!--MD5=[45e24fa4e990d2eee0ffe7862b6a9d8e]
@startuml updateTruckSD

autonumber
!pragma teoz true

skinparam sequence {
ParticipantBorderColor black
ParticipantBackgroundColor white
}

actor "Fleet Manager" as manager

box "<<System(C4)>>\n       System" #LightGray
participant SPA as  SPA <<Container(C4)>>
box "<<Container(C4)>>\n       Logistics" #LightCyan
participant TruckRoute as Route <<Component(C4)>>
participant TruckController as Controller <<Component(C4)>>
participant TruckService as Service <<Component(C4)>>
participant TruckRepository as Repository <<Component(C4)>>
participant Persistance as Persistance <<Component(C4)>>
end box



activate manager
activate SPA
manager -> SPA: Asks to update a Truck

SPA -> manager: Asks for Truck ID
deactivate SPA

manager ->SPA: Inserts Truck ID
activate SPA

SPA -> Route: PATCH updateTruck(truck)
activate Route
Route -> Controller :PATCH updateTruck(truck)
activate Controller

alt Truck exists 

Controller -> Service: updateTruck(truck)
activate Service

Service -> Repository: getTruckById(truckInfo.id)
activate Repository

Repository -> Persistance: findOne(truckInfo.id)
activate Persistance
Persistance -> Repository: truck
Repository->Service: truck

Service -> Repository: update(truckInfo)
Repository -> Persistance:save(truckInfo)

Repository -> Persistance:true
Repository-> Service: truckInfo
Service-> Controller: truckInfo

Controller->Route: 200 OK + truckInfo
Route ->SPA: 200 OK + truckInfo
SPA-> manager: shows updated information 

else Truck doesn't exists

Controller -> Service: updateTruck(truck)
Service -> Repository: getTruckById(truckInfo.id)
Repository->Persistance: findOne(truckInfo.id)
Persistance ->Repository: null
Repository->Service: null
Service->Controller: error, truck doesn't exist
Controller-> Route: 404 NOT FOUND, Truck doesn't exist
Route ->SPA: 404 NOT FOUND, Truck doesn't exist
SPA->manager: informs about update failure

@enduml

PlantUML version 1.2022.7(Mon Aug 22 18:01:30 WEST 2022)
(GPL source distribution)
Java Runtime: Java(TM) SE Runtime Environment
JVM: Java HotSpot(TM) 64-Bit Server VM
Default Encoding: Cp1252
Language: en
Country: GB
--></g></svg>