<?xml version="1.0" encoding="UTF-8" standalone="no"?><svg xmlns="http://www.w3.org/2000/svg" xmlns:xlink="http://www.w3.org/1999/xlink" contentStyleType="text/css" height="320px" preserveAspectRatio="none" style="width:502px;height:320px;background:#FFFFFF;" version="1.1" viewBox="0 0 502 320" width="502px" zoomAndPan="magnify"><defs/><g><rect fill="#DDDDDD" height="308.9375" style="stroke:#181818;stroke-width:0.5;" width="300" x="196.5" y="6"/><text fill="#000000" font-family="sans-serif" font-size="13" font-weight="bold" lengthAdjust="spacing" textLength="102" x="295.5" y="19.4951">&lt;&lt;System(C4)&gt;&gt;</text><text fill="#000000" font-family="sans-serif" font-size="13" font-weight="bold" lengthAdjust="spacing" textLength="46" x="323.5" y="35.8467">System</text><rect fill="#FFFFFF" height="91.0547" style="stroke:#181818;stroke-width:1.0;" width="10" x="255.5" y="125.2734"/><rect fill="#FFFFFF" height="60.7031" style="stroke:#181818;stroke-width:1.0;" width="10" x="427.5" y="155.625"/><line style="stroke:#181818;stroke-width:0.5;stroke-dasharray:5.0,5.0;" x1="65" x2="65" y1="92.9219" y2="234.3281"/><line style="stroke:#181818;stroke-width:0.5;stroke-dasharray:5.0,5.0;" x1="260.5" x2="260.5" y1="92.9219" y2="234.3281"/><line style="stroke:#181818;stroke-width:0.5;stroke-dasharray:5.0,5.0;" x1="432.5" x2="432.5" y1="92.9219" y2="234.3281"/><text fill="#000000" font-family="sans-serif" font-size="14" lengthAdjust="spacing" textLength="115" x="5" y="89.8457">Logistics Manager</text><ellipse cx="65.5" cy="23.8125" fill="#E2E2F0" rx="8" ry="8" style="stroke:#181818;stroke-width:0.5;"/><path d="M65.5,31.8125 L65.5,58.8125 M52.5,39.8125 L78.5,39.8125 M65.5,58.8125 L52.5,73.8125 M65.5,58.8125 L78.5,73.8125 " fill="none" style="stroke:#181818;stroke-width:0.5;"/><text fill="#000000" font-family="sans-serif" font-size="14" lengthAdjust="spacing" textLength="115" x="5" y="247.8613">Logistics Manager</text><ellipse cx="65.5" cy="259.4375" fill="#E2E2F0" rx="8" ry="8" style="stroke:#181818;stroke-width:0.5;"/><path d="M65.5,267.4375 L65.5,294.4375 M52.5,275.4375 L78.5,275.4375 M65.5,294.4375 L52.5,309.4375 M65.5,294.4375 L78.5,309.4375 " fill="none" style="stroke:#181818;stroke-width:0.5;"/><rect fill="#FFFFFF" height="49.2188" rx="2.5" ry="2.5" style="stroke:#000000;stroke-width:0.5;" width="120" x="200.5" y="42.7031"/><text fill="#000000" font-family="sans-serif" font-size="14" font-style="italic" lengthAdjust="spacing" textLength="106" x="207.5" y="64.2363">«Container(C4)»</text><text fill="#000000" font-family="sans-serif" font-size="14" lengthAdjust="spacing" textLength="27" x="247" y="81.8457">SPA</text><rect fill="#FFFFFF" height="49.2188" rx="2.5" ry="2.5" style="stroke:#000000;stroke-width:0.5;" width="120" x="200.5" y="233.3281"/><text fill="#000000" font-family="sans-serif" font-size="14" font-style="italic" lengthAdjust="spacing" textLength="106" x="207.5" y="254.8613">«Container(C4)»</text><text fill="#000000" font-family="sans-serif" font-size="14" lengthAdjust="spacing" textLength="27" x="247" y="272.4707">SPA</text><rect fill="#FFFFFF" height="49.2188" rx="2.5" ry="2.5" style="stroke:#000000;stroke-width:0.5;" width="120" x="372.5" y="42.7031"/><text fill="#000000" font-family="sans-serif" font-size="14" font-style="italic" lengthAdjust="spacing" textLength="106" x="379.5" y="64.2363">«Container(C4)»</text><text fill="#000000" font-family="sans-serif" font-size="14" lengthAdjust="spacing" textLength="55" x="405" y="81.8457">Logistics</text><rect fill="#FFFFFF" height="49.2188" rx="2.5" ry="2.5" style="stroke:#000000;stroke-width:0.5;" width="120" x="372.5" y="233.3281"/><text fill="#000000" font-family="sans-serif" font-size="14" font-style="italic" lengthAdjust="spacing" textLength="106" x="379.5" y="254.8613">«Container(C4)»</text><text fill="#000000" font-family="sans-serif" font-size="14" lengthAdjust="spacing" textLength="55" x="405" y="272.4707">Logistics</text><rect fill="#FFFFFF" height="91.0547" style="stroke:#181818;stroke-width:1.0;" width="10" x="255.5" y="125.2734"/><rect fill="#FFFFFF" height="60.7031" style="stroke:#181818;stroke-width:1.0;" width="10" x="427.5" y="155.625"/><polygon fill="#181818" points="243.5,121.2734,253.5,125.2734,243.5,129.2734,247.5,125.2734" style="stroke:#181818;stroke-width:1.0;"/><line style="stroke:#181818;stroke-width:1.0;" x1="65.5" x2="249.5" y1="125.2734" y2="125.2734"/><text fill="#000000" font-family="sans-serif" font-size="13" font-weight="bold" lengthAdjust="spacing" textLength="7" x="72.5" y="120.417">1</text><text fill="#000000" font-family="sans-serif" font-size="13" lengthAdjust="spacing" textLength="160" x="83.5" y="120.417">I want to get all Packagings</text><polygon fill="#181818" points="415.5,151.625,425.5,155.625,415.5,159.625,419.5,155.625" style="stroke:#181818;stroke-width:1.0;"/><line style="stroke:#181818;stroke-width:1.0;" x1="265.5" x2="421.5" y1="155.625" y2="155.625"/><text fill="#000000" font-family="sans-serif" font-size="13" font-weight="bold" lengthAdjust="spacing" textLength="7" x="272.5" y="150.7686">2</text><text fill="#000000" font-family="sans-serif" font-size="13" lengthAdjust="spacing" textLength="132" x="283.5" y="150.7686">GET getAllPackaging()</text><polygon fill="#181818" points="276.5,181.9766,266.5,185.9766,276.5,189.9766,272.5,185.9766" style="stroke:#181818;stroke-width:1.0;"/><line style="stroke:#181818;stroke-width:1.0;" x1="270.5" x2="426.5" y1="185.9766" y2="185.9766"/><text fill="#000000" font-family="sans-serif" font-size="13" font-weight="bold" lengthAdjust="spacing" textLength="7" x="282.5" y="181.1201">3</text><text fill="#000000" font-family="sans-serif" font-size="13" lengthAdjust="spacing" textLength="44" x="293.5" y="181.1201">200 OK</text><polygon fill="#181818" points="76.5,212.3281,66.5,216.3281,76.5,220.3281,72.5,216.3281" style="stroke:#181818;stroke-width:1.0;"/><line style="stroke:#181818;stroke-width:1.0;" x1="70.5" x2="259.5" y1="216.3281" y2="216.3281"/><text fill="#000000" font-family="sans-serif" font-size="13" font-weight="bold" lengthAdjust="spacing" textLength="7" x="82.5" y="211.4717">4</text><text fill="#000000" font-family="sans-serif" font-size="13" lengthAdjust="spacing" textLength="85" x="93.5" y="211.4717">all Packagings</text><!--MD5=[428bc743cc2d456e2e6838726fea5af1]
@startuml getAllPackagingSD
autonumber

skinparam sequence {
ParticipantBorderColor black
ParticipantBackgroundColor white
}


actor "Logistics Manager" as manager
box "<<System(C4)>>\n       System"
participant SPA as  SPA <<Container(C4)>>
participant Logistics as  Logistics <<Container(C4)>>
end box


manager -> SPA: I want to get all Packagings
activate SPA

SPA -> Logistics: GET getAllPackaging()
activate Logistics

Logistics -> SPA: 200 OK

SPA -> manager: all Packagings



deactivate Logistics
deactivate SPA
deactivate manager


@enduml

PlantUML version 1.2022.7(Mon Aug 22 18:01:30 WEST 2022)
(GPL source distribution)
Java Runtime: Java(TM) SE Runtime Environment
JVM: Java HotSpot(TM) 64-Bit Server VM
Default Encoding: Cp1252
Language: en
Country: GB
--></g></svg>