<?xml version="1.0" encoding="UTF-8" standalone="no"?><svg xmlns="http://www.w3.org/2000/svg" xmlns:xlink="http://www.w3.org/1999/xlink" contentStyleType="text/css" height="688px" preserveAspectRatio="none" style="width:996px;height:688px;background:#FFFFFF;" version="1.1" viewBox="0 0 996 688" width="996px" zoomAndPan="magnify"><defs/><g><rect fill="#DDDDDD" height="676.4766" style="stroke:#181818;stroke-width:0.5;" width="645.5" x="337.5" y="6"/><text fill="#000000" font-family="sans-serif" font-size="13" font-weight="bold" lengthAdjust="spacing" textLength="102" x="609.25" y="19.4951">&lt;&lt;System(C4)&gt;&gt;</text><text fill="#000000" font-family="sans-serif" font-size="13" font-weight="bold" lengthAdjust="spacing" textLength="46" x="637.25" y="35.8467">System</text><rect fill="#FFFFFF" height="30.3516" style="stroke:#181818;stroke-width:1.0;" width="10" x="396.5" y="125.2734"/><rect fill="#FFFFFF" height="405.8906" style="stroke:#181818;stroke-width:1.0;" width="10" x="396.5" y="185.9766"/><rect fill="#FFFFFF" height="330.1875" style="stroke:#181818;stroke-width:1.0;" width="10" x="672.5" y="216.3281"/><rect fill="#FFFFFF" height="269.4844" style="stroke:#181818;stroke-width:1.0;" width="10" x="889.5" y="246.6797"/><rect fill="none" height="323.1875" style="stroke:#000000;stroke-width:1.5;" width="979" x="10" y="261.6797"/><line style="stroke:#181818;stroke-width:0.5;stroke-dasharray:5.0,5.0;" x1="80" x2="80" y1="92.9219" y2="601.8672"/><line style="stroke:#181818;stroke-width:0.5;stroke-dasharray:5.0,5.0;" x1="401.5" x2="401.5" y1="92.9219" y2="601.8672"/><line style="stroke:#181818;stroke-width:0.5;stroke-dasharray:5.0,5.0;" x1="677.5" x2="677.5" y1="92.9219" y2="601.8672"/><line style="stroke:#181818;stroke-width:0.5;stroke-dasharray:5.0,5.0;" x1="894" x2="894" y1="92.9219" y2="601.8672"/><text fill="#000000" font-family="sans-serif" font-size="14" lengthAdjust="spacing" textLength="115" x="20" y="89.8457">Logistics Manager</text><ellipse cx="80.5" cy="23.8125" fill="#E2E2F0" rx="8" ry="8" style="stroke:#181818;stroke-width:0.5;"/><path d="M80.5,31.8125 L80.5,58.8125 M67.5,39.8125 L93.5,39.8125 M80.5,58.8125 L67.5,73.8125 M80.5,58.8125 L93.5,73.8125 " fill="none" style="stroke:#181818;stroke-width:0.5;"/><text fill="#000000" font-family="sans-serif" font-size="14" lengthAdjust="spacing" textLength="115" x="20" y="615.4004">Logistics Manager</text><ellipse cx="80.5" cy="626.9766" fill="#E2E2F0" rx="8" ry="8" style="stroke:#181818;stroke-width:0.5;"/><path d="M80.5,634.9766 L80.5,661.9766 M67.5,642.9766 L93.5,642.9766 M80.5,661.9766 L67.5,676.9766 M80.5,661.9766 L93.5,676.9766 " fill="none" style="stroke:#181818;stroke-width:0.5;"/><rect fill="#FFFFFF" height="49.2188" rx="2.5" ry="2.5" style="stroke:#000000;stroke-width:0.5;" width="120" x="341.5" y="42.7031"/><text fill="#000000" font-family="sans-serif" font-size="14" font-style="italic" lengthAdjust="spacing" textLength="106" x="348.5" y="64.2363">«Container(C4)»</text><text fill="#000000" font-family="sans-serif" font-size="14" lengthAdjust="spacing" textLength="27" x="388" y="81.8457">SPA</text><rect fill="#FFFFFF" height="49.2188" rx="2.5" ry="2.5" style="stroke:#000000;stroke-width:0.5;" width="120" x="341.5" y="600.8672"/><text fill="#000000" font-family="sans-serif" font-size="14" font-style="italic" lengthAdjust="spacing" textLength="106" x="348.5" y="622.4004">«Container(C4)»</text><text fill="#000000" font-family="sans-serif" font-size="14" lengthAdjust="spacing" textLength="27" x="388" y="640.0098">SPA</text><rect fill="#FFFFFF" height="49.2188" rx="2.5" ry="2.5" style="stroke:#000000;stroke-width:0.5;" width="120" x="617.5" y="42.7031"/><text fill="#000000" font-family="sans-serif" font-size="14" font-style="italic" lengthAdjust="spacing" textLength="106" x="624.5" y="64.2363">«Container(C4)»</text><text fill="#000000" font-family="sans-serif" font-size="14" lengthAdjust="spacing" textLength="55" x="650" y="81.8457">Logistics</text><rect fill="#FFFFFF" height="49.2188" rx="2.5" ry="2.5" style="stroke:#000000;stroke-width:0.5;" width="120" x="617.5" y="600.8672"/><text fill="#000000" font-family="sans-serif" font-size="14" font-style="italic" lengthAdjust="spacing" textLength="106" x="624.5" y="622.4004">«Container(C4)»</text><text fill="#000000" font-family="sans-serif" font-size="14" lengthAdjust="spacing" textLength="55" x="650" y="640.0098">Logistics</text><rect fill="#FFFFFF" height="49.2188" rx="2.5" ry="2.5" style="stroke:#000000;stroke-width:0.5;" width="169" x="810" y="42.7031"/><text fill="#000000" font-family="sans-serif" font-size="14" font-style="italic" lengthAdjust="spacing" textLength="106" x="841.5" y="64.2363">«Container(C4)»</text><text fill="#000000" font-family="sans-serif" font-size="14" lengthAdjust="spacing" textLength="155" x="817" y="81.8457">WarehouseManagement</text><rect fill="#FFFFFF" height="49.2188" rx="2.5" ry="2.5" style="stroke:#000000;stroke-width:0.5;" width="169" x="810" y="600.8672"/><text fill="#000000" font-family="sans-serif" font-size="14" font-style="italic" lengthAdjust="spacing" textLength="106" x="841.5" y="622.4004">«Container(C4)»</text><text fill="#000000" font-family="sans-serif" font-size="14" lengthAdjust="spacing" textLength="155" x="817" y="640.0098">WarehouseManagement</text><rect fill="#FFFFFF" height="30.3516" style="stroke:#181818;stroke-width:1.0;" width="10" x="396.5" y="125.2734"/><rect fill="#FFFFFF" height="405.8906" style="stroke:#181818;stroke-width:1.0;" width="10" x="396.5" y="185.9766"/><rect fill="#FFFFFF" height="330.1875" style="stroke:#181818;stroke-width:1.0;" width="10" x="672.5" y="216.3281"/><rect fill="#FFFFFF" height="269.4844" style="stroke:#181818;stroke-width:1.0;" width="10" x="889.5" y="246.6797"/><polygon fill="#181818" points="384.5,121.2734,394.5,125.2734,384.5,129.2734,388.5,125.2734" style="stroke:#181818;stroke-width:1.0;"/><line style="stroke:#181818;stroke-width:1.0;" x1="80.5" x2="390.5" y1="125.2734" y2="125.2734"/><text fill="#000000" font-family="sans-serif" font-size="13" font-weight="bold" lengthAdjust="spacing" textLength="7" x="87.5" y="120.417">1</text><text fill="#000000" font-family="sans-serif" font-size="13" lengthAdjust="spacing" textLength="168" x="98.5" y="120.417">I want to update a Packaging</text><polygon fill="#181818" points="91.5,151.625,81.5,155.625,91.5,159.625,87.5,155.625" style="stroke:#181818;stroke-width:1.0;"/><line style="stroke:#181818;stroke-width:1.0;" x1="85.5" x2="400.5" y1="155.625" y2="155.625"/><text fill="#000000" font-family="sans-serif" font-size="13" font-weight="bold" lengthAdjust="spacing" textLength="7" x="97.5" y="150.7686">2</text><text fill="#000000" font-family="sans-serif" font-size="13" lengthAdjust="spacing" textLength="201" x="108.5" y="150.7686">asks for packaging ID and new info</text><polygon fill="#181818" points="384.5,181.9766,394.5,185.9766,384.5,189.9766,388.5,185.9766" style="stroke:#181818;stroke-width:1.0;"/><line style="stroke:#181818;stroke-width:1.0;" x1="80.5" x2="390.5" y1="185.9766" y2="185.9766"/><text fill="#000000" font-family="sans-serif" font-size="13" font-weight="bold" lengthAdjust="spacing" textLength="7" x="87.5" y="181.1201">3</text><text fill="#000000" font-family="sans-serif" font-size="13" lengthAdjust="spacing" textLength="251" x="98.5" y="181.1201">inserts the information about the Packaging</text><polygon fill="#181818" points="660.5,212.3281,670.5,216.3281,660.5,220.3281,664.5,216.3281" style="stroke:#181818;stroke-width:1.0;"/><line style="stroke:#181818;stroke-width:1.0;" x1="406.5" x2="666.5" y1="216.3281" y2="216.3281"/><text fill="#000000" font-family="sans-serif" font-size="13" font-weight="bold" lengthAdjust="spacing" textLength="7" x="413.5" y="211.4717">4</text><text fill="#000000" font-family="sans-serif" font-size="13" lengthAdjust="spacing" textLength="236" x="424.5" y="211.4717">PATCH updatePackaging(PackagingInfo)</text><polygon fill="#181818" points="877.5,242.6797,887.5,246.6797,877.5,250.6797,881.5,246.6797" style="stroke:#181818;stroke-width:1.0;"/><line style="stroke:#181818;stroke-width:1.0;" x1="682.5" x2="883.5" y1="246.6797" y2="246.6797"/><text fill="#000000" font-family="sans-serif" font-size="13" font-weight="bold" lengthAdjust="spacing" textLength="7" x="689.5" y="241.8232">5</text><text fill="#000000" font-family="sans-serif" font-size="13" lengthAdjust="spacing" textLength="177" x="700.5" y="241.8232">GET ExistsDelivery(DeliveryID)</text><path d="M10,261.6797 L71,261.6797 L71,270.0313 L61,280.0313 L10,280.0313 L10,261.6797 " fill="#EEEEEE" style="stroke:#000000;stroke-width:1.5;"/><rect fill="none" height="323.1875" style="stroke:#000000;stroke-width:1.5;" width="979" x="10" y="261.6797"/><text fill="#000000" font-family="sans-serif" font-size="13" font-weight="bold" lengthAdjust="spacing" textLength="16" x="25" y="276.1748">alt</text><text fill="#000000" font-family="sans-serif" font-size="11" font-weight="bold" lengthAdjust="spacing" textLength="208" x="86" y="275.0986">[Packaging exists and Delivery exists]</text><polygon fill="#181818" points="693.5,298.3828,683.5,302.3828,693.5,306.3828,689.5,302.3828" style="stroke:#181818;stroke-width:1.0;"/><line style="stroke:#181818;stroke-width:1.0;" x1="687.5" x2="888.5" y1="302.3828" y2="302.3828"/><text fill="#000000" font-family="sans-serif" font-size="13" font-weight="bold" lengthAdjust="spacing" textLength="7" x="699.5" y="297.5264">6</text><text fill="#000000" font-family="sans-serif" font-size="13" lengthAdjust="spacing" textLength="44" x="710.5" y="297.5264">200 OK</text><polygon fill="#181818" points="417.5,328.7344,407.5,332.7344,417.5,336.7344,413.5,332.7344" style="stroke:#181818;stroke-width:1.0;"/><line style="stroke:#181818;stroke-width:1.0;stroke-dasharray:2.0,2.0;" x1="411.5" x2="671.5" y1="332.7344" y2="332.7344"/><text fill="#000000" font-family="sans-serif" font-size="13" font-weight="bold" lengthAdjust="spacing" textLength="7" x="423.5" y="327.8779">7</text><text fill="#000000" font-family="sans-serif" font-size="13" lengthAdjust="spacing" textLength="44" x="434.5" y="327.8779">200 OK</text><polygon fill="#181818" points="91.5,359.0859,81.5,363.0859,91.5,367.0859,87.5,363.0859" style="stroke:#181818;stroke-width:1.0;"/><line style="stroke:#181818;stroke-width:1.0;stroke-dasharray:2.0,2.0;" x1="85.5" x2="395.5" y1="363.0859" y2="363.0859"/><text fill="#000000" font-family="sans-serif" font-size="13" font-weight="bold" lengthAdjust="spacing" textLength="7" x="97.5" y="358.2295">8</text><text fill="#000000" font-family="sans-serif" font-size="13" lengthAdjust="spacing" textLength="281" x="108.5" y="358.2295">shows information about packaging with new info</text><line style="stroke:#000000;stroke-width:1.0;stroke-dasharray:2.0,2.0;" x1="10" x2="989" y1="372.0859" y2="372.0859"/><text fill="#000000" font-family="sans-serif" font-size="11" font-weight="bold" lengthAdjust="spacing" textLength="246" x="15" y="383.5049">[Packaging doesn't exist and Delivery exists]</text><polygon fill="#181818" points="693.5,405.2734,683.5,409.2734,693.5,413.2734,689.5,409.2734" style="stroke:#181818;stroke-width:1.0;"/><line style="stroke:#181818;stroke-width:1.0;" x1="687.5" x2="888.5" y1="409.2734" y2="409.2734"/><text fill="#000000" font-family="sans-serif" font-size="13" font-weight="bold" lengthAdjust="spacing" textLength="7" x="699.5" y="404.417">9</text><text fill="#000000" font-family="sans-serif" font-size="13" lengthAdjust="spacing" textLength="44" x="710.5" y="404.417">200 OK</text><polygon fill="#181818" points="417.5,435.625,407.5,439.625,417.5,443.625,413.5,439.625" style="stroke:#181818;stroke-width:1.0;"/><line style="stroke:#181818;stroke-width:1.0;stroke-dasharray:2.0,2.0;" x1="411.5" x2="671.5" y1="439.625" y2="439.625"/><text fill="#000000" font-family="sans-serif" font-size="13" font-weight="bold" lengthAdjust="spacing" textLength="14" x="423.5" y="434.7686">10</text><text fill="#000000" font-family="sans-serif" font-size="13" lengthAdjust="spacing" textLength="68" x="441.5" y="434.7686">409 Conflict</text><polygon fill="#181818" points="91.5,465.9766,81.5,469.9766,91.5,473.9766,87.5,469.9766" style="stroke:#181818;stroke-width:1.0;"/><line style="stroke:#181818;stroke-width:1.0;stroke-dasharray:2.0,2.0;" x1="85.5" x2="395.5" y1="469.9766" y2="469.9766"/><text fill="#000000" font-family="sans-serif" font-size="13" font-weight="bold" lengthAdjust="spacing" textLength="14" x="97.5" y="465.1201">11</text><text fill="#000000" font-family="sans-serif" font-size="13" lengthAdjust="spacing" textLength="182" x="115.5" y="465.1201">informs packaging doesn't exist</text><line style="stroke:#000000;stroke-width:1.0;stroke-dasharray:2.0,2.0;" x1="10" x2="989" y1="478.9766" y2="478.9766"/><text fill="#000000" font-family="sans-serif" font-size="11" font-weight="bold" lengthAdjust="spacing" textLength="137" x="15" y="490.3955">[DeliveryID doesn't exist]</text><polygon fill="#181818" points="693.5,512.1641,683.5,516.1641,693.5,520.1641,689.5,516.1641" style="stroke:#181818;stroke-width:1.0;"/><line style="stroke:#181818;stroke-width:1.0;" x1="687.5" x2="893.5" y1="516.1641" y2="516.1641"/><text fill="#000000" font-family="sans-serif" font-size="13" font-weight="bold" lengthAdjust="spacing" textLength="14" x="699.5" y="511.3076">12</text><text fill="#000000" font-family="sans-serif" font-size="13" lengthAdjust="spacing" textLength="85" x="717.5" y="511.3076">404 Not Found</text><polygon fill="#181818" points="417.5,542.5156,407.5,546.5156,417.5,550.5156,413.5,546.5156" style="stroke:#181818;stroke-width:1.0;"/><line style="stroke:#181818;stroke-width:1.0;stroke-dasharray:2.0,2.0;" x1="411.5" x2="676.5" y1="546.5156" y2="546.5156"/><text fill="#000000" font-family="sans-serif" font-size="13" font-weight="bold" lengthAdjust="spacing" textLength="14" x="423.5" y="541.6592">13</text><text fill="#000000" font-family="sans-serif" font-size="13" lengthAdjust="spacing" textLength="85" x="441.5" y="541.6592">404 Not Found</text><polygon fill="#181818" points="91.5,572.8672,81.5,576.8672,91.5,580.8672,87.5,576.8672" style="stroke:#181818;stroke-width:1.0;"/><line style="stroke:#181818;stroke-width:1.0;stroke-dasharray:2.0,2.0;" x1="85.5" x2="395.5" y1="576.8672" y2="576.8672"/><text fill="#000000" font-family="sans-serif" font-size="13" font-weight="bold" lengthAdjust="spacing" textLength="14" x="97.5" y="572.0107">14</text><text fill="#000000" font-family="sans-serif" font-size="13" lengthAdjust="spacing" textLength="219" x="115.5" y="572.0107">informs about the incorrect Delivery ID</text><!--MD5=[e6b8606783929b5807aadb325a83300a]
@startuml updatePackagingSD
autonumber

skinparam sequence {
ParticipantBorderColor black
ParticipantBackgroundColor white
}

actor "Logistics Manager" as manager
box "<<System(C4)>>\n       System"
participant SPA as  SPA <<Container(C4)>>
participant Logistics as  Logistics <<Container(C4)>>
participant WarehouseManagement as  WarehouseManagement <<Container(C4)>>


manager -> SPA: I want to update a Packaging
activate SPA

SPA -> manager: asks for packaging ID and new info
deactivate SPA

manager -> SPA: inserts the information about the Packaging
activate SPA


SPA -> Logistics: PATCH updatePackaging(PackagingInfo)
activate Logistics
Logistics -> WarehouseManagement: GET ExistsDelivery(DeliveryID)
activate WarehouseManagement



alt Packaging exists and Delivery exists

WarehouseManagement -> Logistics: 200 OK

Logistics - -> SPA: 200 OK
SPA - -> manager: shows information about packaging with new info


else Packaging doesn't exist and Delivery exists

WarehouseManagement -> Logistics: 200 OK

Logistics - -> SPA: 409 Conflict

SPA - -> manager: informs packaging doesn't exist

else DeliveryID doesn't exist

WarehouseManagement -> Logistics: 404 Not Found
deactivate WarehouseManagement
Logistics - -> SPA: 404 Not Found
deactivate Logistics
SPA - -> manager: informs about the incorrect Delivery ID


end

deactivate SPA
deactivate manager


@enduml

PlantUML version 1.2022.7(Mon Aug 22 18:01:30 WEST 2022)
(GPL source distribution)
Java Runtime: Java(TM) SE Runtime Environment
JVM: Java HotSpot(TM) 64-Bit Server VM
Default Encoding: Cp1252
Language: en
Country: GB
--></g></svg>