<?xml version="1.0" encoding="UTF-8" standalone="no"?><svg xmlns="http://www.w3.org/2000/svg" xmlns:xlink="http://www.w3.org/1999/xlink" contentStyleType="text/css" height="901px" preserveAspectRatio="none" style="width:783px;height:901px;background:#FFFFFF;" version="1.1" viewBox="0 0 783 901" width="783px" zoomAndPan="magnify"><defs/><g><!--MD5=[a79645e74fdddf168a098e501fbfe8e0]
cluster c2--><g id="cluster_c2"><rect fill="none" height="724" rx="2.5" ry="2.5" style="stroke:#181818;stroke-width:1.0;" width="637" x="7" y="171"/><rect fill="none" height="10" style="stroke:#181818;stroke-width:1.0;" width="15" x="624" y="176"/><rect fill="none" height="2" style="stroke:#181818;stroke-width:1.0;" width="4" x="622" y="178"/><rect fill="none" height="2" style="stroke:#181818;stroke-width:1.0;" width="4" x="622" y="182"/><text fill="#000000" font-family="sans-serif" font-size="14" font-weight="bold" lengthAdjust="spacing" textLength="111" x="270" y="198.5332">&lt;&lt;component&gt;&gt;</text><text fill="#000000" font-family="sans-serif" font-size="14" font-weight="bold" lengthAdjust="spacing" textLength="115" x="268" y="216.1426">&lt;&lt;Context(C4)&gt;&gt;</text><text fill="#000000" font-family="sans-serif" font-size="14" font-weight="bold" lengthAdjust="spacing" textLength="65" x="293" y="233.752">EletricGo</text></g><!--MD5=[9681dc6e01e10c6b4fe06895ae94f592]
cluster UI--><g id="cluster_UI"><rect fill="none" height="180.5" rx="2.5" ry="2.5" style="stroke:#181818;stroke-width:1.0;" width="156" x="233" y="264.5"/><rect fill="none" height="10" style="stroke:#181818;stroke-width:1.0;" width="15" x="369" y="269.5"/><rect fill="none" height="2" style="stroke:#181818;stroke-width:1.0;" width="4" x="367" y="271.5"/><rect fill="none" height="2" style="stroke:#181818;stroke-width:1.0;" width="4" x="367" y="275.5"/><text fill="#000000" font-family="sans-serif" font-size="14" font-weight="bold" lengthAdjust="spacing" textLength="111" x="255.5" y="292.0332">&lt;&lt;component&gt;&gt;</text><text fill="#000000" font-family="sans-serif" font-size="14" font-weight="bold" lengthAdjust="spacing" textLength="129" x="246.5" y="309.6426">&lt;&lt;Container(C4)&gt;&gt;</text><text fill="#000000" font-family="sans-serif" font-size="14" font-weight="bold" lengthAdjust="spacing" textLength="100" x="263" y="327.252">User Interface</text></g><!--MD5=[b3b47143243fa1deeb350c407ecae48b]
entity AUTH--><g id="elem_AUTH"><rect fill="#F1F1F1" height="82.8281" rx="2.5" ry="2.5" style="stroke:#181818;stroke-width:0.5;" width="146" x="60" y="615"/><rect fill="#F1F1F1" height="10" style="stroke:#181818;stroke-width:0.5;" width="15" x="186" y="620"/><rect fill="#F1F1F1" height="2" style="stroke:#181818;stroke-width:0.5;" width="4" x="184" y="622"/><rect fill="#F1F1F1" height="2" style="stroke:#181818;stroke-width:0.5;" width="4" x="184" y="626"/><text fill="#000000" font-family="sans-serif" font-size="14" lengthAdjust="spacing" textLength="86" x="75" y="649.5332">«component»</text><text fill="#000000" font-family="sans-serif" font-size="14" lengthAdjust="spacing" textLength="106" x="75" y="667.1426">«Container(C4)»</text><text fill="#000000" font-family="sans-serif" font-size="14" lengthAdjust="spacing" textLength="90" x="79" y="684.752">Authentication</text></g><!--MD5=[b818f234363ed34254415f685cf4f1ee]
entity WMNG--><g id="elem_WMNG"><rect fill="#F1F1F1" height="82.8281" rx="2.5" ry="2.5" style="stroke:#181818;stroke-width:0.5;" width="199" x="422.5" y="615"/><rect fill="#F1F1F1" height="10" style="stroke:#181818;stroke-width:0.5;" width="15" x="601.5" y="620"/><rect fill="#F1F1F1" height="2" style="stroke:#181818;stroke-width:0.5;" width="4" x="599.5" y="622"/><rect fill="#F1F1F1" height="2" style="stroke:#181818;stroke-width:0.5;" width="4" x="599.5" y="626"/><text fill="#000000" font-family="sans-serif" font-size="14" lengthAdjust="spacing" textLength="86" x="437.5" y="649.5332">«component»</text><text fill="#000000" font-family="sans-serif" font-size="14" lengthAdjust="spacing" textLength="106" x="437.5" y="667.1426">«Container(C4)»</text><text fill="#000000" font-family="sans-serif" font-size="14" lengthAdjust="spacing" textLength="155" x="441.5" y="684.752">WarehouseManagement</text></g><!--MD5=[64e5d120c0f0a8db78d890cdffc75271]
entity LG--><g id="elem_LG"><rect fill="#F1F1F1" height="82.8281" rx="2.5" ry="2.5" style="stroke:#181818;stroke-width:0.5;" width="146" x="241" y="615"/><rect fill="#F1F1F1" height="10" style="stroke:#181818;stroke-width:0.5;" width="15" x="367" y="620"/><rect fill="#F1F1F1" height="2" style="stroke:#181818;stroke-width:0.5;" width="4" x="365" y="622"/><rect fill="#F1F1F1" height="2" style="stroke:#181818;stroke-width:0.5;" width="4" x="365" y="626"/><text fill="#000000" font-family="sans-serif" font-size="14" lengthAdjust="spacing" textLength="86" x="256" y="649.5332">«component»</text><text fill="#000000" font-family="sans-serif" font-size="14" lengthAdjust="spacing" textLength="106" x="256" y="667.1426">«Container(C4)»</text><text fill="#000000" font-family="sans-serif" font-size="14" lengthAdjust="spacing" textLength="55" x="260" y="684.752">Logistics</text></g><!--MD5=[992c48168928720dd6799105bba67e99]
entity PL--><g id="elem_PL"><rect fill="#F1F1F1" height="82.8281" rx="2.5" ry="2.5" style="stroke:#181818;stroke-width:0.5;" width="146" x="42" y="352"/><rect fill="#F1F1F1" height="10" style="stroke:#181818;stroke-width:0.5;" width="15" x="168" y="357"/><rect fill="#F1F1F1" height="2" style="stroke:#181818;stroke-width:0.5;" width="4" x="166" y="359"/><rect fill="#F1F1F1" height="2" style="stroke:#181818;stroke-width:0.5;" width="4" x="166" y="363"/><text fill="#000000" font-family="sans-serif" font-size="14" lengthAdjust="spacing" textLength="86" x="57" y="386.5332">«component»</text><text fill="#000000" font-family="sans-serif" font-size="14" lengthAdjust="spacing" textLength="106" x="57" y="404.1426">«Container(C4)»</text><text fill="#000000" font-family="sans-serif" font-size="14" lengthAdjust="spacing" textLength="55" x="61" y="421.752">Planning</text></g><!--MD5=[6422a1b380df52ed65758fa57aedbd14]
entity AUTHAPI--><g id="elem_AUTHAPI"><ellipse cx="133" cy="525" fill="#F1F1F1" rx="8" ry="8" style="stroke:#181818;stroke-width:0.5;"/><text fill="#000000" font-family="sans-serif" font-size="14" lengthAdjust="spacing" textLength="54" x="106" y="556.5332">Auth API</text></g><!--MD5=[75cc354800c00b8dd7065ad7d00f4ada]
entity WMAPI--><g id="elem_WMAPI"><ellipse cx="314" cy="849" fill="#F1F1F1" rx="8" ry="8" style="stroke:#181818;stroke-width:0.5;"/><text fill="#000000" font-family="sans-serif" font-size="14" lengthAdjust="spacing" textLength="49" x="289.5" y="880.5332">WM API</text></g><!--MD5=[24a8ce8cd78efd1cb9d11ef79a287267]
entity LOGAPI--><g id="elem_LOGAPI"><ellipse cx="192" cy="849" fill="#F1F1F1" rx="8" ry="8" style="stroke:#181818;stroke-width:0.5;"/><text fill="#000000" font-family="sans-serif" font-size="14" lengthAdjust="spacing" textLength="55" x="164.5" y="880.5332">LOG API</text></g><!--MD5=[cee1f2267fa193f6d7f2f8dfe24999c2]
entity PLNAPI--><g id="elem_PLNAPI"><ellipse cx="77" cy="849" fill="#F1F1F1" rx="8" ry="8" style="stroke:#181818;stroke-width:0.5;"/><text fill="#000000" font-family="sans-serif" font-size="14" lengthAdjust="spacing" textLength="51" x="51.5" y="880.5332">PLN API</text></g><text fill="#000000" font-family="sans-serif" font-size="14" lengthAdjust="spacing" textLength="8" x="463" y="149.9238">1</text><rect fill="#F1F1F1" height="12" style="stroke:#181818;stroke-width:1.5;" width="12" x="461" y="165"/><text fill="#000000" font-family="sans-serif" font-size="14" lengthAdjust="spacing" textLength="8" x="640" y="372.4238">2</text><rect fill="#F1F1F1" height="12" style="stroke:#181818;stroke-width:1.5;" width="12" x="638" y="387.5"/><text fill="#000000" font-family="sans-serif" font-size="14" lengthAdjust="spacing" textLength="8" x="367" y="243.4238">3</text><rect fill="#F1F1F1" height="12" style="stroke:#181818;stroke-width:1.5;" width="12" x="365" y="258.5"/><!--MD5=[5bb58f447e60c14e9d23282c6a4405f4]
entity ADM--><g id="elem_ADM"><ellipse cx="214" cy="14" fill="#F1F1F1" rx="8" ry="8" style="stroke:#181818;stroke-width:0.5;"/><text fill="#000000" font-family="sans-serif" font-size="14" lengthAdjust="spacing" textLength="95" x="166.5" y="45.5332">UIAdministrator</text></g><!--MD5=[6e3fdb3f3593ee9caf8c0bc1a533234e]
entity MNG--><g id="elem_MNG"><ellipse cx="382" cy="14" fill="#F1F1F1" rx="8" ry="8" style="stroke:#181818;stroke-width:0.5;"/><text fill="#000000" font-family="sans-serif" font-size="14" lengthAdjust="spacing" textLength="141" x="311.5" y="45.5332">UIWarehouseManager</text></g><!--MD5=[05104c5f25798aaf974b2e6ba6081c4e]
entity FMNG--><g id="elem_FMNG"><ellipse cx="553" cy="14" fill="#F1F1F1" rx="8" ry="8" style="stroke:#181818;stroke-width:0.5;"/><text fill="#000000" font-family="sans-serif" font-size="14" lengthAdjust="spacing" textLength="100" x="503" y="45.5332">UIFleetManager</text></g><!--MD5=[d9dc080aa4693f894a317bb84aa3ef5b]
entity LMNG--><g id="elem_LMNG"><ellipse cx="715" cy="14" fill="#F1F1F1" rx="8" ry="8" style="stroke:#181818;stroke-width:0.5;"/><text fill="#000000" font-family="sans-serif" font-size="14" lengthAdjust="spacing" textLength="123" x="653.5" y="45.5332">UILogisticsManager</text></g><!--MD5=[04a2755d6ffb15a43017208efc4c0c90]
entity SSOAPI--><g id="elem_SSOAPI"><ellipse cx="699" cy="525" fill="#F1F1F1" rx="8" ry="8" style="stroke:#181818;stroke-width:0.5;"/><text fill="#000000" font-family="sans-serif" font-size="14" lengthAdjust="spacing" textLength="50" x="674" y="556.5332">SSOAPI</text></g><!--MD5=[e980051145f4762152c072b5229f9cc8]
link ADM to 1--><g id="link_ADM_1"><path d="M223,20.52 C263.32,45.22 426.75,145.34 460.78,166.19 " fill="none" id="ADM-1" style="stroke:#181818;stroke-width:1.0;"/></g><!--MD5=[a59535af5bc27bb5b71f457c848bade9]
link MNG to 1--><g id="link_MNG_1"><path d="M386.57,23.33 C401.95,51.38 451.57,141.86 464.1,164.71 " fill="none" id="MNG-1" style="stroke:#181818;stroke-width:1.0;"/></g><!--MD5=[c6fed6526aa3a90bb6639375f61aa68e]
link FMNG to 1--><g id="link_FMNG_1"><path d="M548.38,23.33 C532.82,51.38 482.62,141.86 469.93,164.71 " fill="none" id="FMNG-1" style="stroke:#181818;stroke-width:1.0;"/></g><!--MD5=[39ca6a459db7f0ca9d5d219fdc1d7a2e]
link LMNG to 1--><g id="link_LMNG_1"><path d="M705.88,20.7 C665.86,45.72 506.29,145.44 473.08,166.2 " fill="none" id="LMNG-1" style="stroke:#181818;stroke-width:1.0;"/></g><!--MD5=[a502a44757b203e6e248f06f62979796]
link 2 to SSOAPI--><g id="link_2_SSOAPI"><path d="M646.22,399.74 C654.71,419.71 685.06,491.17 695.47,515.68 " fill="none" id="2-SSOAPI" style="stroke:#181818;stroke-width:1.0;"/><path d="M673.8688,446.7348 A10,10 0 0 0 660.8523 452.2637" fill="none" style="stroke:#181818;stroke-width:1.5;"/><ellipse cx="670.125" cy="456.0075" fill="#FFFFFF" rx="6" ry="6" style="stroke:#181818;stroke-width:1.5;"/></g><!--MD5=[4d444cbccd26e31ce172b5718b51e4cd]
link 3 to 1--><g id="link_3_1"><path d="M371.42,258.09 C372.21,250.83 374.5,237.84 381,229 C402.85,199.27 445.22,180.48 460.94,174.27 " fill="none" id="3-1" style="stroke:#181818;stroke-width:1.0;"/></g><!--MD5=[e57cdabf54ad158ce47c9b26193da413]
link AUTHAPI to AUTH--><g id="link_AUTHAPI_AUTH"><path d="M133,534.1 C133,549.99 133,586.21 133,614.98 " fill="none" id="AUTHAPI-AUTH" style="stroke:#181818;stroke-width:1.0;"/></g><!--MD5=[1bbeb88ddbf5d19030f9e11a004f9b35]
link LG to LOGAPI--><g id="link_LG_LOGAPI"><path d="M287.83,698.37 C258.42,744.28 212.78,815.56 197.32,839.69 " fill="none" id="LG-LOGAPI" style="stroke:#181818;stroke-width:1.0;"/></g><!--MD5=[5d20dcd543a4beaef025130b5ae3c9aa]
link WMNG to WMAPI--><g id="link_WMNG_WMAPI"><path d="M477.63,698.13 C427.52,744.03 349.51,815.47 323.1,839.67 " fill="none" id="WMNG-WMAPI" style="stroke:#181818;stroke-width:1.0;"/></g><!--MD5=[e8c06ee47ae0e4a2635931bcc70198d4]
link UI to AUTHAPI--><g id="link_UI_AUTHAPI"><path d="M265.4426,445.0523 C265.3263,445.1352 265.21,445.218 265.0938,445.3008 C261.3725,447.9494 257.6575,450.5325 254,453 C216.29,478.43 169.22,504.53 146.51,516.8 " fill="none" id="UI-to-AUTHAPI" style="stroke:#181818;stroke-width:1.0;stroke-dasharray:7.0,7.0;"/><polygon fill="#181818" points="142.04,519.2,151.8614,518.4645,146.4446,516.8338,148.0754,511.417,142.04,519.2" style="stroke:#181818;stroke-width:1.0;"/></g><!--MD5=[7449df41bf6c7c6a34d79a58640a436b]
link PL to AUTHAPI--><g id="link_PL_AUTHAPI"><path d="M120.65,435.12 C124.27,461.2 128.74,493.38 131.19,510.98 " fill="none" id="PL-to-AUTHAPI" style="stroke:#181818;stroke-width:1.0;stroke-dasharray:7.0,7.0;"/><polygon fill="#181818" points="131.88,515.95,134.6091,506.4868,131.1949,510.9972,126.6845,507.583,131.88,515.95" style="stroke:#181818;stroke-width:1.0;"/></g><!--MD5=[328d2fd0ebcb11ef3753ca263fca44b1]
link LG to WMAPI--><g id="link_LG_WMAPI"><path d="M314,698.37 C314,741.41 314,806.75 314,834.63 " fill="none" id="LG-to-WMAPI" style="stroke:#181818;stroke-width:1.0;stroke-dasharray:7.0,7.0;"/><polygon fill="#181818" points="314,839.69,318,830.69,314,834.69,310,830.69,314,839.69" style="stroke:#181818;stroke-width:1.0;"/></g><!--MD5=[9c388e0e9e643ade4116aefe59c7dae6]
link PL to PLNAPI--><g id="link_PL_PLNAPI"><path d="M100.43,435.48 C94.04,453.67 86.53,475.36 80,495 C62.35,548.09 50.54,559.71 42,615 C36.37,651.46 37.78,661.35 42,698 C48.36,753.26 67.49,817.74 74.44,839.99 " fill="none" id="PL-PLNAPI" style="stroke:#181818;stroke-width:1.0;"/></g><!--MD5=[53450cf2fc33f7d0841ed0a8242c7712]
link AUTH to LOGAPI--><g id="link_AUTH_LOGAPI"><path d="M145.66,698.37 C158.99,741.41 179.22,806.75 187.86,834.63 " fill="none" id="AUTH-to-LOGAPI" style="stroke:#181818;stroke-width:1.0;stroke-dasharray:7.0,7.0;"/><polygon fill="#181818" points="189.43,839.69,190.6002,829.9109,187.9566,834.912,182.9554,832.2684,189.43,839.69" style="stroke:#181818;stroke-width:1.0;"/></g><!--MD5=[a57e9744e5003f28695d8399df354ad9]
link AUTH to PLNAPI--><g id="link_AUTH_PLNAPI"><path d="M120.99,698.37 C108.33,741.41 89.13,806.75 80.93,834.63 " fill="none" id="AUTH-to-PLNAPI" style="stroke:#181818;stroke-width:1.0;stroke-dasharray:7.0,7.0;"/><polygon fill="#181818" points="79.44,839.69,85.8206,832.1875,80.8531,834.8939,78.1468,829.9264,79.44,839.69" style="stroke:#181818;stroke-width:1.0;"/></g><!--MD5=[800594d58e7316aab826d7ef87519f4d]
link AUTH to WMAPI--><g id="link_AUTH_WMAPI"><path d="M171.83,698.37 C213.41,742.13 276.88,808.93 302.59,835.99 " fill="none" id="AUTH-to-WMAPI" style="stroke:#181818;stroke-width:1.0;stroke-dasharray:7.0,7.0;"/><polygon fill="#181818" points="306.1,839.69,302.807,830.408,302.6585,836.0629,297.0036,835.9144,306.1,839.69" style="stroke:#181818;stroke-width:1.0;"/></g><!--MD5=[b6d57d82344c14d48b0c69ba5ef74575]
@startuml Level 2 - Logic View
component "<<component>>\n<<Context(C4)>>\nEletricGo" as c2 {
  component "<<component>>\n<<Container(C4)>>\n User Interface" as UI{
        portin 3
  }
  component "<<component>>\n<<Container(C4)>>\n Authentication" as AUTH
  component "<<component>>\n<<Container(C4)>>\n WarehouseManagement" as WMNG
  component "<<component>>\n<<Container(C4)>>\n Logistics" as LG
  component "<<component>>\n<<Container(C4)>>\n Planning" as PL
  interface "Auth API" as AUTHAPI
  interface "WM API" as WMAPI
  interface "LOG API" as LOGAPI
  interface "PLN API" as PLNAPI
  portin 1
  portout 2

}

interface UIAdministrator as ADM
interface UIWarehouseManager as MNG
interface UIFleetManager as FMNG
interface UILogisticsManager as LMNG

ADM - - - 1
MNG - - - 1
FMNG - - - 1
LMNG - - - 1

2 -(0- SSOAPI

3- -1

AUTHAPI - - AUTH
LG - - LOGAPI
WMNG - - - WMAPI
UI ..> AUTHAPI
PL ..> AUTHAPI
LG ...> WMAPI
PL - - - PLNAPI


AUTH ...> LOGAPI
AUTH ...> PLNAPI
AUTH ...> WMAPI


@enduml

PlantUML version 1.2022.7(Mon Aug 22 18:01:30 WEST 2022)
(GPL source distribution)
Java Runtime: Java(TM) SE Runtime Environment
JVM: Java HotSpot(TM) 64-Bit Server VM
Default Encoding: Cp1252
Language: en
Country: GB
--></g></svg>