<?xml version="1.0" encoding="UTF-8" standalone="no"?><svg xmlns="http://www.w3.org/2000/svg" xmlns:xlink="http://www.w3.org/1999/xlink" contentScriptType="application/ecmascript" contentStyleType="text/css" height="1013px" preserveAspectRatio="none" style="width:729px;height:1013px;background:#FFFFFF;" version="1.1" viewBox="0 0 729 1013" width="729px" zoomAndPan="magnify"><defs><filter height="300%" id="fszd52xanfz5t" width="300%" x="-1" y="-1"><feGaussianBlur result="blurOut" stdDeviation="2.0"/><feColorMatrix in="blurOut" result="blurOut2" type="matrix" values="0 0 0 0 0 0 0 0 0 0 0 0 0 0 0 0 0 0 .4 0"/><feOffset dx="4.0" dy="4.0" in="blurOut2" result="blurOut3"/><feBlend in="SourceGraphic" in2="blurOut3" mode="normal"/></filter></defs><g><!--MD5=[a79645e74fdddf168a098e501fbfe8e0]
cluster c2--><rect fill="#FFFFFF" filter="url(#fszd52xanfz5t)" height="828" style="stroke:#000000;stroke-width:1.5;" width="388" x="131" y="173"/><rect fill="#FFFFFF" height="10" style="stroke:#000000;stroke-width:1.5;" width="15" x="499" y="178"/><rect fill="#FFFFFF" height="2" style="stroke:#000000;stroke-width:1.5;" width="4" x="497" y="180"/><rect fill="#FFFFFF" height="2" style="stroke:#000000;stroke-width:1.5;" width="4" x="497" y="184"/><text fill="#000000" font-family="sans-serif" font-size="14" font-weight="bold" lengthAdjust="spacing" textLength="111" x="269.5" y="200.5332">&lt;&lt;component&gt;&gt;</text><text fill="#000000" font-family="sans-serif" font-size="14" font-weight="bold" lengthAdjust="spacing" textLength="115" x="267.5" y="218.1426">&lt;&lt;Context(C4)&gt;&gt;</text><text fill="#000000" font-family="sans-serif" font-size="14" font-weight="bold" lengthAdjust="spacing" textLength="65" x="292.5" y="235.752">EletricGo</text><!--MD5=[9681dc6e01e10c6b4fe06895ae94f592]
cluster UI--><rect fill="#FFFFFF" filter="url(#fszd52xanfz5t)" height="178.5" style="stroke:#000000;stroke-width:1.5;" width="163" x="155" y="267.5"/><rect fill="#FFFFFF" height="10" style="stroke:#000000;stroke-width:1.5;" width="15" x="298" y="272.5"/><rect fill="#FFFFFF" height="2" style="stroke:#000000;stroke-width:1.5;" width="4" x="296" y="274.5"/><rect fill="#FFFFFF" height="2" style="stroke:#000000;stroke-width:1.5;" width="4" x="296" y="278.5"/><text fill="#000000" font-family="sans-serif" font-size="14" font-weight="bold" lengthAdjust="spacing" textLength="111" x="181" y="295.0332">&lt;&lt;component&gt;&gt;</text><text fill="#000000" font-family="sans-serif" font-size="14" font-weight="bold" lengthAdjust="spacing" textLength="129" x="172" y="312.6426">&lt;&lt;Container(C4)&gt;&gt;</text><text fill="#000000" font-family="sans-serif" font-size="14" font-weight="bold" lengthAdjust="spacing" textLength="100" x="188.5" y="330.252">User Interface</text><!--MD5=[b818f234363ed34254415f685cf4f1ee]
entity WMNG--><rect fill="#FEFECE" filter="url(#fszd52xanfz5t)" height="82.8281" style="stroke:#A80036;stroke-width:1.5;" width="199" x="270.5" y="902"/><rect fill="#FEFECE" height="10" style="stroke:#A80036;stroke-width:1.5;" width="15" x="449.5" y="907"/><rect fill="#FEFECE" height="2" style="stroke:#A80036;stroke-width:1.5;" width="4" x="447.5" y="909"/><rect fill="#FEFECE" height="2" style="stroke:#A80036;stroke-width:1.5;" width="4" x="447.5" y="913"/><text fill="#000000" font-family="sans-serif" font-size="14" lengthAdjust="spacing" textLength="86" x="285.5" y="936.5332">«component»</text><text fill="#000000" font-family="sans-serif" font-size="14" lengthAdjust="spacing" textLength="106" x="285.5" y="954.1426">«Container(C4)»</text><text fill="#000000" font-family="sans-serif" font-size="14" lengthAdjust="spacing" textLength="155" x="289.5" y="971.752">WarehouseManagement</text><!--MD5=[64e5d120c0f0a8db78d890cdffc75271]
entity LG--><rect fill="#FEFECE" filter="url(#fszd52xanfz5t)" height="82.8281" style="stroke:#A80036;stroke-width:1.5;" width="146" x="201" y="552"/><rect fill="#FEFECE" height="10" style="stroke:#A80036;stroke-width:1.5;" width="15" x="327" y="557"/><rect fill="#FEFECE" height="2" style="stroke:#A80036;stroke-width:1.5;" width="4" x="325" y="559"/><rect fill="#FEFECE" height="2" style="stroke:#A80036;stroke-width:1.5;" width="4" x="325" y="563"/><text fill="#000000" font-family="sans-serif" font-size="14" lengthAdjust="spacing" textLength="86" x="216" y="586.5332">«component»</text><text fill="#000000" font-family="sans-serif" font-size="14" lengthAdjust="spacing" textLength="106" x="216" y="604.1426">«Container(C4)»</text><text fill="#000000" font-family="sans-serif" font-size="14" lengthAdjust="spacing" textLength="55" x="220" y="621.752">Logistics</text><!--MD5=[992c48168928720dd6799105bba67e99]
entity PL--><rect fill="#FEFECE" filter="url(#fszd52xanfz5t)" height="82.8281" style="stroke:#A80036;stroke-width:1.5;" width="146" x="154" y="727"/><rect fill="#FEFECE" height="10" style="stroke:#A80036;stroke-width:1.5;" width="15" x="280" y="732"/><rect fill="#FEFECE" height="2" style="stroke:#A80036;stroke-width:1.5;" width="4" x="278" y="734"/><rect fill="#FEFECE" height="2" style="stroke:#A80036;stroke-width:1.5;" width="4" x="278" y="738"/><text fill="#000000" font-family="sans-serif" font-size="14" lengthAdjust="spacing" textLength="86" x="169" y="761.5332">«component»</text><text fill="#000000" font-family="sans-serif" font-size="14" lengthAdjust="spacing" textLength="106" x="169" y="779.1426">«Container(C4)»</text><text fill="#000000" font-family="sans-serif" font-size="14" lengthAdjust="spacing" textLength="55" x="173" y="796.752">Planning</text><text fill="#000000" font-family="sans-serif" font-size="14" lengthAdjust="spacing" textLength="8" x="324" y="151.9238">1</text><rect fill="#A80036" height="12" style="stroke:#FEFECE;stroke-width:1.5;" width="12" x="322" y="167"/><text fill="#000000" font-family="sans-serif" font-size="14" lengthAdjust="spacing" textLength="8" x="515" y="309.9238">2</text><rect fill="#A80036" height="12" style="stroke:#FEFECE;stroke-width:1.5;" width="12" x="513" y="325"/><text fill="#000000" font-family="sans-serif" font-size="14" lengthAdjust="spacing" textLength="8" x="296" y="246.4238">3</text><rect fill="#A80036" height="12" style="stroke:#FEFECE;stroke-width:1.5;" width="12" x="294" y="261.5"/><!--MD5=[ff2d61647fb09ddd586bbb3af474de91]
entity CL--><ellipse cx="34" cy="14" fill="#FEFECE" filter="url(#fszd52xanfz5t)" rx="8" ry="8" style="stroke:#A80036;stroke-width:1.5;"/><text fill="#000000" font-family="sans-serif" font-size="14" lengthAdjust="spacing" textLength="56" x="6" y="45.5332">UICliente</text><!--MD5=[5bb58f447e60c14e9d23282c6a4405f4]
entity ADM--><ellipse cx="160" cy="14" fill="#FEFECE" filter="url(#fszd52xanfz5t)" rx="8" ry="8" style="stroke:#A80036;stroke-width:1.5;"/><text fill="#000000" font-family="sans-serif" font-size="14" lengthAdjust="spacing" textLength="95" x="112.5" y="45.5332">UIAdministrator</text><!--MD5=[6e3fdb3f3593ee9caf8c0bc1a533234e]
entity MNG--><ellipse cx="328" cy="14" fill="#FEFECE" filter="url(#fszd52xanfz5t)" rx="8" ry="8" style="stroke:#A80036;stroke-width:1.5;"/><text fill="#000000" font-family="sans-serif" font-size="14" lengthAdjust="spacing" textLength="141" x="257.5" y="45.5332">UIWarehouseManager</text><!--MD5=[05104c5f25798aaf974b2e6ba6081c4e]
entity FMNG--><ellipse cx="499" cy="14" fill="#FEFECE" filter="url(#fszd52xanfz5t)" rx="8" ry="8" style="stroke:#A80036;stroke-width:1.5;"/><text fill="#000000" font-family="sans-serif" font-size="14" lengthAdjust="spacing" textLength="100" x="449" y="45.5332">UIFleetManager</text><!--MD5=[d9dc080aa4693f894a317bb84aa3ef5b]
entity LMNG--><ellipse cx="661" cy="14" fill="#FEFECE" filter="url(#fszd52xanfz5t)" rx="8" ry="8" style="stroke:#A80036;stroke-width:1.5;"/><text fill="#000000" font-family="sans-serif" font-size="14" lengthAdjust="spacing" textLength="123" x="599.5" y="45.5332">UILogisticsManager</text><!--MD5=[04a2755d6ffb15a43017208efc4c0c90]
entity SSOAPI--><ellipse cx="574" cy="492" fill="#FEFECE" filter="url(#fszd52xanfz5t)" rx="8" ry="8" style="stroke:#A80036;stroke-width:1.5;"/><text fill="#000000" font-family="sans-serif" font-size="14" lengthAdjust="spacing" textLength="50" x="549" y="523.5332">SSOAPI</text><!--MD5=[805afcdc41c5422052def37f56c6fc59]
link CL to 1--><path d="M43.36,20.17 C53.94,26 71.67,35.74 87,44 C179.99,94.13 293.85,154.05 321.65,168.67 " fill="none" id="CL-1" style="stroke:#A80036;stroke-width:1.0;"/><!--MD5=[e980051145f4762152c072b5229f9cc8]
link ADM to 1--><path d="M168.56,23 C198.52,51 298.12,144.08 322.55,166.91 " fill="none" id="ADM-1" style="stroke:#A80036;stroke-width:1.0;"/><!--MD5=[a59535af5bc27bb5b71f457c848bade9]
link MNG to 1--><path d="M328,23 C328,51 328,144.08 328,166.91 " fill="none" id="MNG-1" style="stroke:#A80036;stroke-width:1.0;"/><!--MD5=[c6fed6526aa3a90bb6639375f61aa68e]
link FMNG to 1--><path d="M490.28,23 C459.79,51 358.41,144.08 333.54,166.91 " fill="none" id="FMNG-1" style="stroke:#A80036;stroke-width:1.0;"/><!--MD5=[39ca6a459db7f0ca9d5d219fdc1d7a2e]
link LMNG to 1--><path d="M651.75,19.36 C602.8,42.44 374.76,149.95 334.18,169.08 " fill="none" id="LMNG-1" style="stroke:#A80036;stroke-width:1.0;"/><!--MD5=[a502a44757b203e6e248f06f62979796]
link 2 to SSOAPI--><path d="M520.83,337.29 C528.88,360.57 561.2,453.99 571.1,482.62 " fill="none" id="2-SSOAPI" style="stroke:#A80036;stroke-width:1.0;"/><path d="M549.6421,398.9546 A10,10 0 0 0 536.2771 403.5779" fill="none" style="stroke:#A80036;stroke-width:1.5;"/><ellipse cx="545.2713" cy="407.9488" fill="#FFFFFF" rx="6" ry="6" style="stroke:#A80036;stroke-width:1.5;"/><!--MD5=[4d444cbccd26e31ce172b5718b51e4cd]
link 3 to 1--><path d="M301.53,261.11 C303.46,254.32 306.92,242.27 310,232 C315.88,212.41 323.18,189.2 326.38,179.11 " fill="none" id="3-1" style="stroke:#A80036;stroke-width:1.0;"/><!--MD5=[fa23b830e6cd4cbe60d470fda9587d35]
link UI to WMNG--><path d="M318.0166,432.4257 C318.0819,432.4738 318.1473,432.522 318.2126,432.5702 C318.3432,432.6666 318.4738,432.7631 318.6043,432.8598 C319.6486,433.6335 320.6894,434.4178 321.7254,435.2123 C323.7973,436.8014 325.85,438.4319 327.8725,440.1025 C335.9625,446.785 343.57,454.11 350,462 C430.58,560.83 435.07,601.94 460,727 C467.21,763.18 470.84,774.74 460,810 C449.54,844.02 427.04,877.15 407.15,901.77 " fill="none" id="UI-WMNG" style="stroke:#A80036;stroke-width:1.0;"/><text fill="#000000" font-family="sans-serif" font-size="13" lengthAdjust="spacing" textLength="49" x="466" y="686.4951">WM API</text><path d="M430.0146,575.5637 A10,10 0 0 0 416.7687 580.5179" fill="none" style="stroke:#A80036;stroke-width:1.5;"/><ellipse cx="425.8688" cy="584.6637" fill="#FFFFFF" rx="6" ry="6" style="stroke:#A80036;stroke-width:1.5;"/><!--MD5=[5040019a261ae02489d1e27ffda941e5]
link UI to LG--><path d="M257.689,446.4424 C257.7072,446.6052 257.7254,446.7683 257.7436,446.9315 C257.8894,448.2377 258.0369,449.5584 258.1858,450.8922 C259.3772,461.5625 260.6631,473.0738 261.9688,484.76 C264.58,508.1325 267.27,532.205 269.44,551.65 " fill="none" id="UI-LG" style="stroke:#A80036;stroke-width:1.0;"/><text fill="#000000" font-family="sans-serif" font-size="13" lengthAdjust="spacing" textLength="52" x="278" y="497.4951">LOG API</text><path d="M268.211,476.9475 A10,10 0 0 0 254.1563 478.5178" fill="none" style="stroke:#A80036;stroke-width:1.5;"/><ellipse cx="261.9688" cy="484.76" fill="#FFFFFF" rx="6" ry="6" style="stroke:#A80036;stroke-width:1.5;"/><!--MD5=[96069ffee40d38e9142fbc41d1f02560]
link PL to LG--><path d="M246.29,726.72 C250.28,717.13 254.14,706.83 257,697 C262.8,677.08 266.82,654.38 269.49,635.4 " fill="none" id="PL-LG" style="stroke:#A80036;stroke-width:1.0;"/><text fill="#000000" font-family="sans-serif" font-size="13" lengthAdjust="spacing" textLength="52" x="277" y="686.4951">LOG API</text><path d="M248.2351,701.8141 A10,10 0 0 0 261.8141 705.7649" fill="none" style="stroke:#A80036;stroke-width:1.5;"/><ellipse cx="257" cy="697" fill="#FFFFFF" rx="6" ry="6" style="stroke:#A80036;stroke-width:1.5;"/><!--MD5=[6b3771f2a171ff3438383301aac9db7e]
link LG to PL--><path d="M200.91,633.73 C190.47,642.59 181.19,653 175,665 C164.58,685.22 173.75,707.76 187.13,726.54 " fill="none" id="LG-PL" style="stroke:#A80036;stroke-width:1.0;"/><text fill="#000000" font-family="sans-serif" font-size="13" lengthAdjust="spacing" textLength="50" x="187" y="686.4951">PLN API</text><path d="M184.5259,661.9574 A10,10 0 0 0 171.9574 655.4741" fill="none" style="stroke:#A80036;stroke-width:1.5;"/><ellipse cx="175" cy="665" fill="#FFFFFF" rx="6" ry="6" style="stroke:#A80036;stroke-width:1.5;"/><!--MD5=[77956644c974de4bbc2b282a448b1f39]
link PL to WMNG--><path d="M247.36,810.43 C258.09,830.05 272.28,853.29 288,872 C296.7,882.35 306.99,892.45 317.29,901.63 " fill="none" id="PL-WMNG" style="stroke:#A80036;stroke-width:1.0;"/><text fill="#000000" font-family="sans-serif" font-size="13" lengthAdjust="spacing" textLength="49" x="300" y="861.4951">WM API</text><path d="M288.8652,862.0375 A10,10 0 0 0 278.0375 871.1348" fill="none" style="stroke:#A80036;stroke-width:1.5;"/><ellipse cx="288" cy="872" fill="#FFFFFF" rx="6" ry="6" style="stroke:#A80036;stroke-width:1.5;"/><!--MD5=[0f8fd8e00a41e4a5dd3d56022f87f2bf]
link LG to WMNG--><path d="M327.32,635.05 C335.88,643.98 343.67,654.08 349,665 C386.59,742.08 382.15,845.68 375.89,901.97 " fill="none" id="LG-WMNG" style="stroke:#A80036;stroke-width:1.0;"/><text fill="#000000" font-family="sans-serif" font-size="13" lengthAdjust="spacing" textLength="49" x="391" y="773.9951">WM API</text><path d="M385.4794,783.7604 A10,10 0 0 0 371.3679 784.6906" fill="none" style="stroke:#A80036;stroke-width:1.5;"/><ellipse cx="378.8887" cy="791.2813" fill="#FFFFFF" rx="6" ry="6" style="stroke:#A80036;stroke-width:1.5;"/><!--MD5=[e4a23d4502c4c95291af56be9b7b84db]
@startuml
component "<<component>>\n<<Context(C4)>>\nEletricGo" as c2 {
  component "<<component>>\n<<Container(C4)>>\n User Interface" as UI{
        portin 3
  }
  component "<<component>>\n<<Container(C4)>>\n WarehouseManagement" as WMNG
  component "<<component>>\n<<Container(C4)>>\n Logistics" as LG
  component "<<component>>\n<<Container(C4)>>\n Planning" as PL
  portin 1
  portout 2

}

interface UICliente as CL
interface UIAdministrator as ADM
interface UIWarehouseManager as MNG
interface UIFleetManager as FMNG
interface UILogisticsManager as LMNG

CL - - - 1
ADM - - - 1
MNG - - - 1
FMNG - - - 1
LMNG - - - 1

2 -(0- SSOAPI

3- -1

UI -(0- WMNG : "" WM API ""
UI -(0- LG: "" LOG API ""
PL -(0- LG : "" LOG API ""
LG -(0- PL : "" PLN API ""
PL -(0- WMNG : "" WM API ""
LG -(0- WMNG : "" WM API ""

@enduml

PlantUML version 1.2022.1(Tue Feb 01 18:19:58 GMT 2022)
(GPL source distribution)
Java Runtime: OpenJDK Runtime Environment
JVM: OpenJDK 64-Bit Server VM
Default Encoding: Cp1252
Language: pt
Country: BR
--></g></svg>