<?xml version="1.0" encoding="UTF-8" standalone="no"?><svg xmlns="http://www.w3.org/2000/svg" xmlns:xlink="http://www.w3.org/1999/xlink" contentScriptType="application/ecmascript" contentStyleType="text/css" height="818px" preserveAspectRatio="none" style="width:940px;height:818px;background:#FFFFFF;" version="1.1" viewBox="0 0 940 818" width="940px" zoomAndPan="magnify"><defs><filter height="300%" id="fj1qplhbsrum7" width="300%" x="-1" y="-1"><feGaussianBlur result="blurOut" stdDeviation="2.0"/><feColorMatrix in="blurOut" result="blurOut2" type="matrix" values="0 0 0 0 0 0 0 0 0 0 0 0 0 0 0 0 0 0 .4 0"/><feOffset dx="4.0" dy="4.0" in="blurOut2" result="blurOut3"/><feBlend in="SourceGraphic" in2="blurOut3" mode="normal"/></filter></defs><g><!--MD5=[a79645e74fdddf168a098e501fbfe8e0]
cluster c2--><rect fill="#FFFFFF" filter="url(#fj1qplhbsrum7)" height="635" style="stroke:#000000;stroke-width:1.5;" width="674" x="7" y="171"/><rect fill="#FFFFFF" height="10" style="stroke:#000000;stroke-width:1.5;" width="15" x="661" y="176"/><rect fill="#FFFFFF" height="2" style="stroke:#000000;stroke-width:1.5;" width="4" x="659" y="178"/><rect fill="#FFFFFF" height="2" style="stroke:#000000;stroke-width:1.5;" width="4" x="659" y="182"/><text fill="#000000" font-family="sans-serif" font-size="14" font-weight="bold" lengthAdjust="spacing" textLength="111" x="288.5" y="198.5332">&lt;&lt;component&gt;&gt;</text><text fill="#000000" font-family="sans-serif" font-size="14" font-weight="bold" lengthAdjust="spacing" textLength="115" x="286.5" y="216.1426">&lt;&lt;Context(C4)&gt;&gt;</text><text fill="#000000" font-family="sans-serif" font-size="14" font-weight="bold" lengthAdjust="spacing" textLength="65" x="311.5" y="233.752">EletricGo</text><!--MD5=[9681dc6e01e10c6b4fe06895ae94f592]
cluster UI--><rect fill="#FFFFFF" filter="url(#fj1qplhbsrum7)" height="166.5" style="stroke:#000000;stroke-width:1.5;" width="151" x="317" y="264.5"/><rect fill="#FFFFFF" height="10" style="stroke:#000000;stroke-width:1.5;" width="15" x="448" y="269.5"/><rect fill="#FFFFFF" height="2" style="stroke:#000000;stroke-width:1.5;" width="4" x="446" y="271.5"/><rect fill="#FFFFFF" height="2" style="stroke:#000000;stroke-width:1.5;" width="4" x="446" y="275.5"/><text fill="#000000" font-family="sans-serif" font-size="14" font-weight="bold" lengthAdjust="spacing" textLength="111" x="337" y="292.0332">&lt;&lt;component&gt;&gt;</text><text fill="#000000" font-family="sans-serif" font-size="14" font-weight="bold" lengthAdjust="spacing" textLength="129" x="328" y="309.6426">&lt;&lt;Container(C4)&gt;&gt;</text><text fill="#000000" font-family="sans-serif" font-size="14" font-weight="bold" lengthAdjust="spacing" textLength="100" x="344.5" y="327.252">User Interface</text><!--MD5=[b818f234363ed34254415f685cf4f1ee]
entity WMNG--><rect fill="#FEFECE" filter="url(#fj1qplhbsrum7)" height="82.8281" style="stroke:#A80036;stroke-width:1.5;" width="199" x="459.5" y="467"/><rect fill="#FEFECE" height="10" style="stroke:#A80036;stroke-width:1.5;" width="15" x="638.5" y="472"/><rect fill="#FEFECE" height="2" style="stroke:#A80036;stroke-width:1.5;" width="4" x="636.5" y="474"/><rect fill="#FEFECE" height="2" style="stroke:#A80036;stroke-width:1.5;" width="4" x="636.5" y="478"/><text fill="#000000" font-family="sans-serif" font-size="14" lengthAdjust="spacing" textLength="86" x="474.5" y="501.5332">«component»</text><text fill="#000000" font-family="sans-serif" font-size="14" lengthAdjust="spacing" textLength="106" x="474.5" y="519.1426">«Container(C4)»</text><text fill="#000000" font-family="sans-serif" font-size="14" lengthAdjust="spacing" textLength="155" x="478.5" y="536.752">WarehouseManagement</text><!--MD5=[64e5d120c0f0a8db78d890cdffc75271]
entity LG--><rect fill="#FEFECE" filter="url(#fj1qplhbsrum7)" height="82.8281" style="stroke:#A80036;stroke-width:1.5;" width="146" x="241" y="467"/><rect fill="#FEFECE" height="10" style="stroke:#A80036;stroke-width:1.5;" width="15" x="367" y="472"/><rect fill="#FEFECE" height="2" style="stroke:#A80036;stroke-width:1.5;" width="4" x="365" y="474"/><rect fill="#FEFECE" height="2" style="stroke:#A80036;stroke-width:1.5;" width="4" x="365" y="478"/><text fill="#000000" font-family="sans-serif" font-size="14" lengthAdjust="spacing" textLength="86" x="256" y="501.5332">«component»</text><text fill="#000000" font-family="sans-serif" font-size="14" lengthAdjust="spacing" textLength="106" x="256" y="519.1426">«Container(C4)»</text><text fill="#000000" font-family="sans-serif" font-size="14" lengthAdjust="spacing" textLength="55" x="260" y="536.752">Logistics</text><!--MD5=[992c48168928720dd6799105bba67e99]
entity PL--><rect fill="#FEFECE" filter="url(#fj1qplhbsrum7)" height="82.8281" style="stroke:#A80036;stroke-width:1.5;" width="146" x="23" y="467"/><rect fill="#FEFECE" height="10" style="stroke:#A80036;stroke-width:1.5;" width="15" x="149" y="472"/><rect fill="#FEFECE" height="2" style="stroke:#A80036;stroke-width:1.5;" width="4" x="147" y="474"/><rect fill="#FEFECE" height="2" style="stroke:#A80036;stroke-width:1.5;" width="4" x="147" y="478"/><text fill="#000000" font-family="sans-serif" font-size="14" lengthAdjust="spacing" textLength="86" x="38" y="501.5332">«component»</text><text fill="#000000" font-family="sans-serif" font-size="14" lengthAdjust="spacing" textLength="106" x="38" y="519.1426">«Container(C4)»</text><text fill="#000000" font-family="sans-serif" font-size="14" lengthAdjust="spacing" textLength="55" x="42" y="536.752">Planning</text><!--MD5=[34d31f55fcb8b2e5dee86c97beff104b]
entity WM--><ellipse cx="386" cy="760" fill="#FEFECE" filter="url(#fj1qplhbsrum7)" rx="8" ry="8" style="stroke:#A80036;stroke-width:1.5;"/><text fill="#000000" font-family="sans-serif" font-size="14" lengthAdjust="spacing" textLength="49" x="361.5" y="791.5332">WM API</text><!--MD5=[45a20a671fddef42c2c41794305c2e2c]
entity LOG--><ellipse cx="205" cy="640" fill="#FEFECE" filter="url(#fj1qplhbsrum7)" rx="8" ry="8" style="stroke:#A80036;stroke-width:1.5;"/><text fill="#000000" font-family="sans-serif" font-size="14" lengthAdjust="spacing" textLength="55" x="177.5" y="671.5332">LOG API</text><!--MD5=[ff28cbbf5c971ea2d53a1399faa36303]
entity PLN--><ellipse cx="228" cy="760" fill="#FEFECE" filter="url(#fj1qplhbsrum7)" rx="8" ry="8" style="stroke:#A80036;stroke-width:1.5;"/><text fill="#000000" font-family="sans-serif" font-size="14" lengthAdjust="spacing" textLength="51" x="202.5" y="791.5332">PLN API</text><text fill="#000000" font-family="sans-serif" font-size="14" lengthAdjust="spacing" textLength="8" x="535" y="149.9238">1</text><rect fill="#A80036" height="12" style="stroke:#FEFECE;stroke-width:1.5;" width="12" x="533" y="165"/><text fill="#000000" font-family="sans-serif" font-size="14" lengthAdjust="spacing" textLength="8" x="677" y="358.4238">2</text><rect fill="#A80036" height="12" style="stroke:#FEFECE;stroke-width:1.5;" width="12" x="675" y="373.5"/><text fill="#000000" font-family="sans-serif" font-size="14" lengthAdjust="spacing" textLength="8" x="446" y="243.4238">3</text><rect fill="#A80036" height="12" style="stroke:#FEFECE;stroke-width:1.5;" width="12" x="444" y="258.5"/><!--MD5=[ff2d61647fb09ddd586bbb3af474de91]
entity CL--><ellipse cx="245" cy="14" fill="#FEFECE" filter="url(#fj1qplhbsrum7)" rx="8" ry="8" style="stroke:#A80036;stroke-width:1.5;"/><text fill="#000000" font-family="sans-serif" font-size="14" lengthAdjust="spacing" textLength="56" x="217" y="45.5332">UICliente</text><!--MD5=[5bb58f447e60c14e9d23282c6a4405f4]
entity ADM--><ellipse cx="371" cy="14" fill="#FEFECE" filter="url(#fj1qplhbsrum7)" rx="8" ry="8" style="stroke:#A80036;stroke-width:1.5;"/><text fill="#000000" font-family="sans-serif" font-size="14" lengthAdjust="spacing" textLength="95" x="323.5" y="45.5332">UIAdministrator</text><!--MD5=[6e3fdb3f3593ee9caf8c0bc1a533234e]
entity MNG--><ellipse cx="539" cy="14" fill="#FEFECE" filter="url(#fj1qplhbsrum7)" rx="8" ry="8" style="stroke:#A80036;stroke-width:1.5;"/><text fill="#000000" font-family="sans-serif" font-size="14" lengthAdjust="spacing" textLength="141" x="468.5" y="45.5332">UIWarehouseManager</text><!--MD5=[05104c5f25798aaf974b2e6ba6081c4e]
entity FMNG--><ellipse cx="710" cy="14" fill="#FEFECE" filter="url(#fj1qplhbsrum7)" rx="8" ry="8" style="stroke:#A80036;stroke-width:1.5;"/><text fill="#000000" font-family="sans-serif" font-size="14" lengthAdjust="spacing" textLength="100" x="660" y="45.5332">UIFleetManager</text><!--MD5=[d9dc080aa4693f894a317bb84aa3ef5b]
entity LMNG--><ellipse cx="872" cy="14" fill="#FEFECE" filter="url(#fj1qplhbsrum7)" rx="8" ry="8" style="stroke:#A80036;stroke-width:1.5;"/><text fill="#000000" font-family="sans-serif" font-size="14" lengthAdjust="spacing" textLength="123" x="810.5" y="45.5332">UILogisticsManager</text><!--MD5=[04a2755d6ffb15a43017208efc4c0c90]
entity SSOAPI--><ellipse cx="736" cy="508.5" fill="#FEFECE" filter="url(#fj1qplhbsrum7)" rx="8" ry="8" style="stroke:#A80036;stroke-width:1.5;"/><text fill="#000000" font-family="sans-serif" font-size="14" lengthAdjust="spacing" textLength="50" x="711" y="540.0332">SSOAPI</text><!--MD5=[805afcdc41c5422052def37f56c6fc59]
link CL to 1--><path d="M254.35,20.19 C264.92,26.03 282.65,35.79 298,44 C390.84,93.66 504.81,152.41 532.65,166.73 " fill="none" id="CL-1" style="stroke:#A80036;stroke-width:1.0;"/><!--MD5=[e980051145f4762152c072b5229f9cc8]
link ADM to 1--><path d="M380.03,23.33 C410.43,51.38 508.49,141.86 533.27,164.71 " fill="none" id="ADM-1" style="stroke:#A80036;stroke-width:1.0;"/><!--MD5=[a59535af5bc27bb5b71f457c848bade9]
link MNG to 1--><path d="M539,23.33 C539,51.38 539,141.86 539,164.71 " fill="none" id="MNG-1" style="stroke:#A80036;stroke-width:1.0;"/><!--MD5=[c6fed6526aa3a90bb6639375f61aa68e]
link FMNG to 1--><path d="M700.81,23.33 C669.87,51.38 570.05,141.86 544.83,164.71 " fill="none" id="FMNG-1" style="stroke:#A80036;stroke-width:1.0;"/><!--MD5=[39ca6a459db7f0ca9d5d219fdc1d7a2e]
link LMNG to 1--><path d="M862.75,19.31 C813.8,42.09 585.76,148.23 545.18,167.12 " fill="none" id="LMNG-1" style="stroke:#A80036;stroke-width:1.0;"/><!--MD5=[a502a44757b203e6e248f06f62979796]
link 2 to SSOAPI--><path d="M683.22,385.64 C691.71,405.22 722.06,475.31 732.47,499.34 " fill="none" id="2-SSOAPI" style="stroke:#A80036;stroke-width:1.0;"/><path d="M710.8034,431.5224 A10,10 0 0 0 697.8261 437.1429" fill="none" style="stroke:#A80036;stroke-width:1.5;"/><ellipse cx="707.125" cy="440.8212" fill="#FFFFFF" rx="6" ry="6" style="stroke:#A80036;stroke-width:1.5;"/><!--MD5=[4d444cbccd26e31ce172b5718b51e4cd]
link 3 to 1--><path d="M450.47,258.13 C451.32,250.91 453.68,237.97 460,229 C479.68,201.08 517.49,181.73 532.56,174.81 " fill="none" id="3-1" style="stroke:#A80036;stroke-width:1.0;"/><!--MD5=[3e53dc9b36cad3ffea50eb79e0e5b1c0]
link LG to LOG--><path d="M279.81,550.12 C255.59,578.9 225.11,615.1 211.78,630.95 " fill="none" id="LG-LOG" style="stroke:#A80036;stroke-width:1.0;"/><!--MD5=[6d907cdc628a8d901558aad9b321fa94]
link UI to LOG--><path d="M316.8919,402.7375 C316.7227,402.8 316.5534,402.8627 316.3842,402.9256 C316.0457,403.0513 315.707,403.1777 315.3683,403.3048 C314.6908,403.559 314.0129,403.8159 313.3346,404.0755 C311.9781,404.5947 310.6204,405.125 309.2622,405.6664 C298.3969,409.9978 287.5063,415.0456 277.0425,420.9213 C256.115,432.6725 236.895,447.735 223,467 C187.61,516.06 196.77,594.42 202.28,625.59 " fill="none" id="UI-to-LOG" style="stroke:#A80036;stroke-width:1.0;stroke-dasharray:7.0,7.0;"/><polygon fill="#A80036" points="203.26,630.84,205.5463,621.2602,202.3455,625.9243,197.6813,622.7235,203.26,630.84" style="stroke:#A80036;stroke-width:1.0;"/><!--MD5=[a2db4ee620a81007cfad5d7c9830eec0]
link WMNG to WM--><path d="M530.82,550.14 C488.88,610.62 412.71,720.47 391.57,750.96 " fill="none" id="WMNG-WM" style="stroke:#A80036;stroke-width:1.0;"/><!--MD5=[41cdfc2c93e1d0935d138e367daf8553]
link UI to WM--><path d="M411.792,431.4655 C411.7764,431.7989 411.7606,432.1334 411.7449,432.469 C411.6817,433.8113 411.6173,435.1713 411.5517,436.548 C411.0272,447.5609 410.4269,459.6369 409.7587,472.2438 C408.4225,497.4575 406.815,524.795 405,550 C399.68,623.86 390.83,712.18 387.41,745.44 " fill="none" id="UI-to-WM" style="stroke:#A80036;stroke-width:1.0;stroke-dasharray:7.0,7.0;"/><polygon fill="#A80036" points="386.87,750.65,391.7749,742.1094,387.3845,745.6765,383.8173,741.2862,386.87,750.65" style="stroke:#A80036;stroke-width:1.0;"/><!--MD5=[8fca693267a59d9b2f4fc2f65dca128c]
link PL to WM--><path d="M108.24,550.21 C121.94,594.77 143.36,661.11 152,670 C184.4,703.31 325.9,743.06 371.67,755.26 " fill="none" id="PL-to-WM" style="stroke:#A80036;stroke-width:1.0;stroke-dasharray:7.0,7.0;"/><polygon fill="#A80036" points="376.76,756.61,369.0752,750.4501,371.9248,755.3368,367.0381,758.1864,376.76,756.61" style="stroke:#A80036;stroke-width:1.0;"/><!--MD5=[7c8c622bf4b117601ba96856d2426ab2]
link LG to WM--><path d="M325.73,550.14 C342.3,607.55 371.7,709.44 382.17,745.72 " fill="none" id="LG-to-WM" style="stroke:#A80036;stroke-width:1.0;stroke-dasharray:7.0,7.0;"/><polygon fill="#A80036" points="383.68,750.96,385.0345,741.2047,382.297,746.1551,377.3466,743.4176,383.68,750.96" style="stroke:#A80036;stroke-width:1.0;"/><!--MD5=[32e7a593ae918faf054418016b83c87f]
link PL to PLN--><path d="M95.97,550.29 C97.61,584.35 103.95,633.11 125,670 C148.42,711.05 198.11,742.28 218.73,753.98 " fill="none" id="PL-PLN" style="stroke:#A80036;stroke-width:1.0;"/><!--MD5=[83c35d8912935e09c29ba7eb2c4f1dcf]
link PL to LOG--><path d="M130.19,550.12 C152.52,576.65 180.16,609.49 194.8,626.88 " fill="none" id="PL-to-LOG" style="stroke:#A80036;stroke-width:1.0;stroke-dasharray:7.0,7.0;"/><polygon fill="#A80036" points="198.22,630.95,195.4792,621.4902,194.998,627.1266,189.3616,626.6454,198.22,630.95" style="stroke:#A80036;stroke-width:1.0;"/><!--MD5=[37795a1c679d85494ad97de046acfb7a]
link LG to PLN--><path d="M299.99,550.14 C280.12,607.79 244.79,710.28 232.42,746.17 " fill="none" id="LG-to-PLN" style="stroke:#A80036;stroke-width:1.0;stroke-dasharray:7.0,7.0;"/><polygon fill="#A80036" points="230.77,750.96,237.4894,743.7594,232.4026,746.234,229.9279,741.1472,230.77,750.96" style="stroke:#A80036;stroke-width:1.0;"/><!--MD5=[58765f6b75915b0d80cf547d395bf1bd]
@startuml
component "<<component>>\n<<Context(C4)>>\nEletricGo" as c2 {
  component "<<component>>\n<<Container(C4)>>\n User Interface" as UI{
        portin 3
  }
  component "<<component>>\n<<Container(C4)>>\n WarehouseManagement" as WMNG
  component "<<component>>\n<<Container(C4)>>\n Logistics" as LG
  component "<<component>>\n<<Container(C4)>>\n Planning" as PL
  interface "WM API" as WM 
  interface "LOG API" as LOG
  interface "PLN API" as PLN
  portin 1
  portout 2

}

interface UICliente as CL
interface UIAdministrator as ADM
interface UIWarehouseManager as MNG
interface UIFleetManager as FMNG
interface UILogisticsManager as LMNG

CL - - - 1
ADM - - - 1
MNG - - - 1
FMNG - - - 1
LMNG - - - 1

2 -(0- SSOAPI

3- -1


LG - - LOG
UI ...> LOG  
WMNG - - - WM 
UI ...> WM 
PL ..> WM 
LG ...> WM
PL - - - PLN
PL ..> LOG 
LG ...> PLN


@enduml

PlantUML version 1.2022.1(Tue Feb 01 18:19:58 GMT 2022)
(GPL source distribution)
Java Runtime: OpenJDK Runtime Environment
JVM: OpenJDK 64-Bit Server VM
Default Encoding: Cp1252
Language: pt
Country: BR
--></g></svg>