<?xml version="1.0" encoding="UTF-8" standalone="no"?><svg xmlns="http://www.w3.org/2000/svg" xmlns:xlink="http://www.w3.org/1999/xlink" contentStyleType="text/css" height="1425px" preserveAspectRatio="none" style="width:1688px;height:1425px;background:#FFFFFF;" version="1.1" viewBox="0 0 1688 1425" width="1688px" zoomAndPan="magnify"><defs/><g><rect fill="#FFD700" height="1413.9531" style="stroke:#181818;stroke-width:0.5;" width="1381.5" x="287.5" y="6"/><text fill="#000000" font-family="sans-serif" font-size="13" font-weight="bold" lengthAdjust="spacing" textLength="102" x="927.25" y="19.4951">&lt;&lt;System(C4)&gt;&gt;</text><text fill="#000000" font-family="sans-serif" font-size="13" font-weight="bold" lengthAdjust="spacing" textLength="46" x="955.25" y="35.8467">System</text><rect fill="#ADD8E6" height="1376.25" style="stroke:#181818;stroke-width:0.5;" width="939" x="541" y="43.7031"/><text fill="#000000" font-family="sans-serif" font-size="13" font-weight="bold" lengthAdjust="spacing" textLength="118" x="951.5" y="57.1982">&lt;&lt;Container(C4)&gt;&gt;</text><text fill="#000000" font-family="sans-serif" font-size="13" font-weight="bold" lengthAdjust="spacing" textLength="55" x="979.5" y="73.5498">Logistics</text><rect fill="none" height="929.8672" style="stroke:#000000;stroke-width:1.5;" width="1631.5" x="49.5" y="382.4766"/><line style="stroke:#181818;stroke-width:0.5;stroke-dasharray:5.0,5.0;" x1="65.5" x2="65.5" y1="158.0156" y2="1336.3438"/><line style="stroke:#181818;stroke-width:0.5;stroke-dasharray:5.0,5.0;" x1="351.5" x2="351.5" y1="158.0156" y2="1336.3438"/><rect fill="#FFFFFF" height="30.3516" style="stroke:#181818;stroke-width:1.0;" width="10" x="346.5" y="188.3672"/><rect fill="#FFFFFF" height="1082.2734" style="stroke:#181818;stroke-width:1.0;" width="10" x="346.5" y="249.0703"/><line style="stroke:#181818;stroke-width:0.5;stroke-dasharray:5.0,5.0;" x1="610.5" x2="610.5" y1="158.0156" y2="1336.3438"/><rect fill="#FFFFFF" height="994.5703" style="stroke:#181818;stroke-width:1.0;" width="10" x="605.5" y="279.4219"/><line style="stroke:#181818;stroke-width:0.5;stroke-dasharray:5.0,5.0;" x1="869.5" x2="869.5" y1="158.0156" y2="1336.3438"/><rect fill="#FFFFFF" height="933.8672" style="stroke:#181818;stroke-width:1.0;" width="10" x="864.5" y="309.7734"/><line style="stroke:#181818;stroke-width:0.5;stroke-dasharray:5.0,5.0;" x1="1067.5" x2="1067.5" y1="158.0156" y2="1336.3438"/><rect fill="#FFFFFF" height="602.5156" style="stroke:#181818;stroke-width:1.0;" width="10" x="1062.5" y="463.5313"/><line style="stroke:#181818;stroke-width:0.5;stroke-dasharray:5.0,5.0;" x1="1252.5" x2="1252.5" y1="158.0156" y2="1336.3438"/><rect fill="#FFFFFF" height="541.8125" style="stroke:#181818;stroke-width:1.0;" width="10" x="1247.5" y="493.8828"/><line style="stroke:#181818;stroke-width:0.5;stroke-dasharray:5.0,5.0;" x1="1410.5" x2="1410.5" y1="158.0156" y2="1336.3438"/><rect fill="#FFFFFF" height="481.1094" style="stroke:#181818;stroke-width:1.0;" width="10" x="1405.5" y="524.2344"/><line style="stroke:#181818;stroke-width:0.5;stroke-dasharray:5.0,5.0;" x1="1580.5" x2="1580.5" y1="158.0156" y2="1336.3438"/><rect fill="#FFFFFF" height="873.1641" style="stroke:#181818;stroke-width:1.0;" width="10" x="1575.5" y="340.125"/><text fill="#000000" font-family="sans-serif" font-size="14" lengthAdjust="spacing" textLength="115" x="5" y="154.9395">Logistics Manager</text><ellipse cx="65.5" cy="88.9063" fill="#E2E2F0" rx="8" ry="8" style="stroke:#181818;stroke-width:0.5;"/><path d="M65.5,96.9063 L65.5,123.9063 M52.5,104.9063 L78.5,104.9063 M65.5,123.9063 L52.5,138.9063 M65.5,123.9063 L78.5,138.9063 " fill="none" style="stroke:#181818;stroke-width:0.5;"/><rect fill="#FFFFFF" height="49.2188" rx="2.5" ry="2.5" style="stroke:#000000;stroke-width:0.5;" width="120" x="291.5" y="107.7969"/><text fill="#000000" font-family="sans-serif" font-size="14" font-style="italic" lengthAdjust="spacing" textLength="106" x="298.5" y="129.3301">«Container(C4)»</text><text fill="#000000" font-family="sans-serif" font-size="14" lengthAdjust="spacing" textLength="27" x="338" y="146.9395">SPA</text><rect fill="#FFFFFF" height="49.2188" rx="2.5" ry="2.5" style="stroke:#000000;stroke-width:0.5;" width="131" x="545" y="107.7969"/><text fill="#000000" font-family="sans-serif" font-size="14" font-style="italic" lengthAdjust="spacing" textLength="117" x="552" y="129.3301">«Component(C4)»</text><text fill="#000000" font-family="sans-serif" font-size="14" lengthAdjust="spacing" textLength="67" x="577" y="146.9395">PathRoute</text><rect fill="#FFFFFF" height="49.2188" rx="2.5" ry="2.5" style="stroke:#000000;stroke-width:0.5;" width="131" x="804" y="107.7969"/><text fill="#000000" font-family="sans-serif" font-size="14" font-style="italic" lengthAdjust="spacing" textLength="117" x="811" y="129.3301">«Component(C4)»</text><text fill="#000000" font-family="sans-serif" font-size="14" lengthAdjust="spacing" textLength="91" x="824" y="146.9395">PathController</text><rect fill="#FFFFFF" height="49.2188" rx="2.5" ry="2.5" style="stroke:#000000;stroke-width:0.5;" width="131" x="1002" y="107.7969"/><text fill="#000000" font-family="sans-serif" font-size="14" font-style="italic" lengthAdjust="spacing" textLength="117" x="1009" y="129.3301">«Component(C4)»</text><text fill="#000000" font-family="sans-serif" font-size="14" lengthAdjust="spacing" textLength="76" x="1029.5" y="146.9395">PathService</text><rect fill="#FFFFFF" height="49.2188" rx="2.5" ry="2.5" style="stroke:#000000;stroke-width:0.5;" width="131" x="1187" y="107.7969"/><text fill="#000000" font-family="sans-serif" font-size="14" font-style="italic" lengthAdjust="spacing" textLength="117" x="1194" y="129.3301">«Component(C4)»</text><text fill="#000000" font-family="sans-serif" font-size="14" lengthAdjust="spacing" textLength="97" x="1204" y="146.9395">PathRepository</text><rect fill="#FFFFFF" height="49.2188" rx="2.5" ry="2.5" style="stroke:#000000;stroke-width:0.5;" width="131" x="1345" y="107.7969"/><text fill="#000000" font-family="sans-serif" font-size="14" font-style="italic" lengthAdjust="spacing" textLength="117" x="1352" y="129.3301">«Component(C4)»</text><text fill="#000000" font-family="sans-serif" font-size="14" lengthAdjust="spacing" textLength="74" x="1373.5" y="146.9395">Persistence</text><rect fill="#FFFFFF" height="49.2188" rx="2.5" ry="2.5" style="stroke:#000000;stroke-width:0.5;" width="169" x="1496" y="107.7969"/><text fill="#000000" font-family="sans-serif" font-size="14" font-style="italic" lengthAdjust="spacing" textLength="106" x="1527.5" y="129.3301">«Container(C4)»</text><text fill="#000000" font-family="sans-serif" font-size="14" lengthAdjust="spacing" textLength="155" x="1503" y="146.9395">WarehouseManagement</text><text fill="#000000" font-family="sans-serif" font-size="14" lengthAdjust="spacing" textLength="115" x="5" y="1410.877">Logistics Manager</text><ellipse cx="65.5" cy="1344.8438" fill="#E2E2F0" rx="8" ry="8" style="stroke:#181818;stroke-width:0.5;"/><path d="M65.5,1352.8438 L65.5,1379.8438 M52.5,1360.8438 L78.5,1360.8438 M65.5,1379.8438 L52.5,1394.8438 M65.5,1379.8438 L78.5,1394.8438 " fill="none" style="stroke:#181818;stroke-width:0.5;"/><rect fill="#FFFFFF" height="49.2188" rx="2.5" ry="2.5" style="stroke:#000000;stroke-width:0.5;" width="120" x="291.5" y="1336.3438"/><text fill="#000000" font-family="sans-serif" font-size="14" font-style="italic" lengthAdjust="spacing" textLength="106" x="298.5" y="1357.877">«Container(C4)»</text><text fill="#000000" font-family="sans-serif" font-size="14" lengthAdjust="spacing" textLength="27" x="338" y="1375.4863">SPA</text><rect fill="#FFFFFF" height="49.2188" rx="2.5" ry="2.5" style="stroke:#000000;stroke-width:0.5;" width="131" x="545" y="1336.3438"/><text fill="#000000" font-family="sans-serif" font-size="14" font-style="italic" lengthAdjust="spacing" textLength="117" x="552" y="1357.877">«Component(C4)»</text><text fill="#000000" font-family="sans-serif" font-size="14" lengthAdjust="spacing" textLength="67" x="577" y="1375.4863">PathRoute</text><rect fill="#FFFFFF" height="49.2188" rx="2.5" ry="2.5" style="stroke:#000000;stroke-width:0.5;" width="131" x="804" y="1336.3438"/><text fill="#000000" font-family="sans-serif" font-size="14" font-style="italic" lengthAdjust="spacing" textLength="117" x="811" y="1357.877">«Component(C4)»</text><text fill="#000000" font-family="sans-serif" font-size="14" lengthAdjust="spacing" textLength="91" x="824" y="1375.4863">PathController</text><rect fill="#FFFFFF" height="49.2188" rx="2.5" ry="2.5" style="stroke:#000000;stroke-width:0.5;" width="131" x="1002" y="1336.3438"/><text fill="#000000" font-family="sans-serif" font-size="14" font-style="italic" lengthAdjust="spacing" textLength="117" x="1009" y="1357.877">«Component(C4)»</text><text fill="#000000" font-family="sans-serif" font-size="14" lengthAdjust="spacing" textLength="76" x="1029.5" y="1375.4863">PathService</text><rect fill="#FFFFFF" height="49.2188" rx="2.5" ry="2.5" style="stroke:#000000;stroke-width:0.5;" width="131" x="1187" y="1336.3438"/><text fill="#000000" font-family="sans-serif" font-size="14" font-style="italic" lengthAdjust="spacing" textLength="117" x="1194" y="1357.877">«Component(C4)»</text><text fill="#000000" font-family="sans-serif" font-size="14" lengthAdjust="spacing" textLength="97" x="1204" y="1375.4863">PathRepository</text><rect fill="#FFFFFF" height="49.2188" rx="2.5" ry="2.5" style="stroke:#000000;stroke-width:0.5;" width="131" x="1345" y="1336.3438"/><text fill="#000000" font-family="sans-serif" font-size="14" font-style="italic" lengthAdjust="spacing" textLength="117" x="1352" y="1357.877">«Component(C4)»</text><text fill="#000000" font-family="sans-serif" font-size="14" lengthAdjust="spacing" textLength="74" x="1373.5" y="1375.4863">Persistence</text><rect fill="#FFFFFF" height="49.2188" rx="2.5" ry="2.5" style="stroke:#000000;stroke-width:0.5;" width="169" x="1496" y="1336.3438"/><text fill="#000000" font-family="sans-serif" font-size="14" font-style="italic" lengthAdjust="spacing" textLength="106" x="1527.5" y="1357.877">«Container(C4)»</text><text fill="#000000" font-family="sans-serif" font-size="14" lengthAdjust="spacing" textLength="155" x="1503" y="1375.4863">WarehouseManagement</text><polygon fill="#181818" points="334.5,184.3672,344.5,188.3672,334.5,192.3672,338.5,188.3672" style="stroke:#181818;stroke-width:1.0;"/><line style="stroke:#181818;stroke-width:1.0;" x1="65.5" x2="340.5" y1="188.3672" y2="188.3672"/><text fill="#000000" font-family="sans-serif" font-size="13" font-weight="bold" lengthAdjust="spacing" textLength="7" x="72.5" y="183.5107">1</text><text fill="#000000" font-family="sans-serif" font-size="13" lengthAdjust="spacing" textLength="158" x="83.5" y="183.5107">I want to create a new Path</text><polygon fill="#181818" points="76.5,214.7188,66.5,218.7188,76.5,222.7188,72.5,218.7188" style="stroke:#181818;stroke-width:1.0;"/><line style="stroke:#181818;stroke-width:1.0;" x1="70.5" x2="345.5" y1="218.7188" y2="218.7188"/><text fill="#000000" font-family="sans-serif" font-size="13" font-weight="bold" lengthAdjust="spacing" textLength="7" x="82.5" y="213.8623">2</text><text fill="#000000" font-family="sans-serif" font-size="13" lengthAdjust="spacing" textLength="208" x="93.5" y="213.8623">asks for the details on the new Path</text><polygon fill="#181818" points="334.5,245.0703,344.5,249.0703,334.5,253.0703,338.5,249.0703" style="stroke:#181818;stroke-width:1.0;"/><line style="stroke:#181818;stroke-width:1.0;" x1="65.5" x2="340.5" y1="249.0703" y2="249.0703"/><text fill="#000000" font-family="sans-serif" font-size="13" font-weight="bold" lengthAdjust="spacing" textLength="7" x="72.5" y="244.2139">3</text><text fill="#000000" font-family="sans-serif" font-size="13" lengthAdjust="spacing" textLength="244" x="83.5" y="244.2139">inserts the information about the new Path</text><polygon fill="#181818" points="593.5,275.4219,603.5,279.4219,593.5,283.4219,597.5,279.4219" style="stroke:#181818;stroke-width:1.0;"/><line style="stroke:#181818;stroke-width:1.0;" x1="356.5" x2="599.5" y1="279.4219" y2="279.4219"/><text fill="#000000" font-family="sans-serif" font-size="13" font-weight="bold" lengthAdjust="spacing" textLength="7" x="363.5" y="274.5654">4</text><text fill="#000000" font-family="sans-serif" font-size="13" lengthAdjust="spacing" textLength="155" x="374.5" y="274.5654">POST createPath(pathInfo)</text><polygon fill="#181818" points="852.5,305.7734,862.5,309.7734,852.5,313.7734,856.5,309.7734" style="stroke:#181818;stroke-width:1.0;"/><line style="stroke:#181818;stroke-width:1.0;" x1="615.5" x2="858.5" y1="309.7734" y2="309.7734"/><text fill="#000000" font-family="sans-serif" font-size="13" font-weight="bold" lengthAdjust="spacing" textLength="7" x="622.5" y="304.917">5</text><text fill="#000000" font-family="sans-serif" font-size="13" lengthAdjust="spacing" textLength="155" x="633.5" y="304.917">POST createPath(pathInfo)</text><polygon fill="#181818" points="1563.5,336.125,1573.5,340.125,1563.5,344.125,1567.5,340.125" style="stroke:#181818;stroke-width:1.0;"/><line style="stroke:#181818;stroke-width:1.0;" x1="874.5" x2="1569.5" y1="340.125" y2="340.125"/><text fill="#000000" font-family="sans-serif" font-size="13" font-weight="bold" lengthAdjust="spacing" textLength="7" x="881.5" y="335.2686">6</text><text fill="#000000" font-family="sans-serif" font-size="13" lengthAdjust="spacing" textLength="158" x="892.5" y="335.2686">GET existsPath(startWhID)</text><polygon fill="#181818" points="1563.5,366.4766,1573.5,370.4766,1563.5,374.4766,1567.5,370.4766" style="stroke:#181818;stroke-width:1.0;"/><line style="stroke:#181818;stroke-width:1.0;" x1="874.5" x2="1569.5" y1="370.4766" y2="370.4766"/><text fill="#000000" font-family="sans-serif" font-size="13" font-weight="bold" lengthAdjust="spacing" textLength="7" x="881.5" y="365.6201">7</text><text fill="#000000" font-family="sans-serif" font-size="13" lengthAdjust="spacing" textLength="195" x="892.5" y="365.6201">GET existsPath(destinationWhID)</text><path d="M49.5,382.4766 L110.5,382.4766 L110.5,390.8281 L100.5,400.8281 L49.5,400.8281 L49.5,382.4766 " fill="#EEEEEE" style="stroke:#000000;stroke-width:1.5;"/><rect fill="none" height="929.8672" style="stroke:#000000;stroke-width:1.5;" width="1631.5" x="49.5" y="382.4766"/><text fill="#000000" font-family="sans-serif" font-size="13" font-weight="bold" lengthAdjust="spacing" textLength="16" x="64.5" y="396.9717">alt</text><text fill="#000000" font-family="sans-serif" font-size="11" font-weight="bold" lengthAdjust="spacing" textLength="233" x="125.5" y="395.8955">[Path doesn't exist and Warehouse exists]</text><line style="stroke:#000000;stroke-width:1.0;stroke-dasharray:2.0,2.0;" x1="49.5" x2="1681" y1="846.75" y2="846.75"/><text fill="#000000" font-family="sans-serif" font-size="11" font-weight="bold" lengthAdjust="spacing" textLength="238" x="54.5" y="858.1689">[Path already exists and Warehouse exists]</text><line style="stroke:#000000;stroke-width:1.0;stroke-dasharray:2.0,2.0;" x1="49.5" x2="1681" y1="1176.1016" y2="1176.1016"/><text fill="#000000" font-family="sans-serif" font-size="11" font-weight="bold" lengthAdjust="spacing" textLength="146" x="54.5" y="1187.5205">[warehouse doesn't exist]</text><polygon fill="#181818" points="885.5,429.1797,875.5,433.1797,885.5,437.1797,881.5,433.1797" style="stroke:#181818;stroke-width:1.0;"/><line style="stroke:#181818;stroke-width:1.0;" x1="879.5" x2="1574.5" y1="433.1797" y2="433.1797"/><text fill="#000000" font-family="sans-serif" font-size="13" font-weight="bold" lengthAdjust="spacing" textLength="7" x="891.5" y="428.3232">8</text><text fill="#000000" font-family="sans-serif" font-size="13" lengthAdjust="spacing" textLength="44" x="902.5" y="428.3232">200 OK</text><polygon fill="#181818" points="1050.5,459.5313,1060.5,463.5313,1050.5,467.5313,1054.5,463.5313" style="stroke:#181818;stroke-width:1.0;"/><line style="stroke:#181818;stroke-width:1.0;" x1="874.5" x2="1056.5" y1="463.5313" y2="463.5313"/><text fill="#000000" font-family="sans-serif" font-size="13" font-weight="bold" lengthAdjust="spacing" textLength="7" x="881.5" y="458.6748">9</text><text fill="#000000" font-family="sans-serif" font-size="13" lengthAdjust="spacing" textLength="116" x="892.5" y="458.6748">createPath(pathInfo)</text><polygon fill="#181818" points="1235.5,489.8828,1245.5,493.8828,1235.5,497.8828,1239.5,493.8828" style="stroke:#181818;stroke-width:1.0;"/><line style="stroke:#181818;stroke-width:1.0;" x1="1072.5" x2="1241.5" y1="493.8828" y2="493.8828"/><text fill="#000000" font-family="sans-serif" font-size="13" font-weight="bold" lengthAdjust="spacing" textLength="14" x="1079.5" y="489.0264">10</text><text fill="#000000" font-family="sans-serif" font-size="13" lengthAdjust="spacing" textLength="138" x="1097.5" y="489.0264">getPathById(pathInfo.id)</text><polygon fill="#181818" points="1393.5,520.2344,1403.5,524.2344,1393.5,528.2344,1397.5,524.2344" style="stroke:#181818;stroke-width:1.0;"/><line style="stroke:#181818;stroke-width:1.0;" x1="1257.5" x2="1399.5" y1="524.2344" y2="524.2344"/><text fill="#000000" font-family="sans-serif" font-size="13" font-weight="bold" lengthAdjust="spacing" textLength="14" x="1264.5" y="519.3779">11</text><text fill="#000000" font-family="sans-serif" font-size="13" lengthAdjust="spacing" textLength="111" x="1282.5" y="519.3779">findOne(pathInfo.id)</text><polygon fill="#181818" points="1268.5,550.5859,1258.5,554.5859,1268.5,558.5859,1264.5,554.5859" style="stroke:#181818;stroke-width:1.0;"/><line style="stroke:#181818;stroke-width:1.0;stroke-dasharray:2.0,2.0;" x1="1262.5" x2="1404.5" y1="554.5859" y2="554.5859"/><text fill="#000000" font-family="sans-serif" font-size="13" font-weight="bold" lengthAdjust="spacing" textLength="14" x="1274.5" y="549.7295">12</text><text fill="#000000" font-family="sans-serif" font-size="13" lengthAdjust="spacing" textLength="20" x="1292.5" y="549.7295">null</text><polygon fill="#181818" points="1083.5,580.9375,1073.5,584.9375,1083.5,588.9375,1079.5,584.9375" style="stroke:#181818;stroke-width:1.0;"/><line style="stroke:#181818;stroke-width:1.0;stroke-dasharray:2.0,2.0;" x1="1077.5" x2="1246.5" y1="584.9375" y2="584.9375"/><text fill="#000000" font-family="sans-serif" font-size="13" font-weight="bold" lengthAdjust="spacing" textLength="14" x="1089.5" y="580.0811">13</text><text fill="#000000" font-family="sans-serif" font-size="13" lengthAdjust="spacing" textLength="20" x="1107.5" y="580.0811">null</text><polygon fill="#181818" points="1235.5,611.2891,1245.5,615.2891,1235.5,619.2891,1239.5,615.2891" style="stroke:#181818;stroke-width:1.0;"/><line style="stroke:#181818;stroke-width:1.0;" x1="1072.5" x2="1241.5" y1="615.2891" y2="615.2891"/><text fill="#000000" font-family="sans-serif" font-size="13" font-weight="bold" lengthAdjust="spacing" textLength="14" x="1079.5" y="610.4326">14</text><text fill="#000000" font-family="sans-serif" font-size="13" lengthAdjust="spacing" textLength="79" x="1097.5" y="610.4326">save(pathInfo)</text><polygon fill="#181818" points="1393.5,641.6406,1403.5,645.6406,1393.5,649.6406,1397.5,645.6406" style="stroke:#181818;stroke-width:1.0;"/><line style="stroke:#181818;stroke-width:1.0;" x1="1257.5" x2="1399.5" y1="645.6406" y2="645.6406"/><text fill="#000000" font-family="sans-serif" font-size="13" font-weight="bold" lengthAdjust="spacing" textLength="14" x="1264.5" y="640.7842">15</text><text fill="#000000" font-family="sans-serif" font-size="13" lengthAdjust="spacing" textLength="79" x="1282.5" y="640.7842">save(pathInfo)</text><polygon fill="#181818" points="1268.5,671.9922,1258.5,675.9922,1268.5,679.9922,1264.5,675.9922" style="stroke:#181818;stroke-width:1.0;"/><line style="stroke:#181818;stroke-width:1.0;stroke-dasharray:2.0,2.0;" x1="1262.5" x2="1404.5" y1="675.9922" y2="675.9922"/><text fill="#000000" font-family="sans-serif" font-size="13" font-weight="bold" lengthAdjust="spacing" textLength="14" x="1274.5" y="671.1357">16</text><text fill="#000000" font-family="sans-serif" font-size="13" lengthAdjust="spacing" textLength="22" x="1292.5" y="671.1357">true</text><polygon fill="#181818" points="1083.5,702.3438,1073.5,706.3438,1083.5,710.3438,1079.5,706.3438" style="stroke:#181818;stroke-width:1.0;"/><line style="stroke:#181818;stroke-width:1.0;stroke-dasharray:2.0,2.0;" x1="1077.5" x2="1246.5" y1="706.3438" y2="706.3438"/><text fill="#000000" font-family="sans-serif" font-size="13" font-weight="bold" lengthAdjust="spacing" textLength="14" x="1089.5" y="701.4873">17</text><text fill="#000000" font-family="sans-serif" font-size="13" lengthAdjust="spacing" textLength="45" x="1107.5" y="701.4873">pathInfo</text><polygon fill="#181818" points="885.5,732.6953,875.5,736.6953,885.5,740.6953,881.5,736.6953" style="stroke:#181818;stroke-width:1.0;"/><line style="stroke:#181818;stroke-width:1.0;stroke-dasharray:2.0,2.0;" x1="879.5" x2="1061.5" y1="736.6953" y2="736.6953"/><text fill="#000000" font-family="sans-serif" font-size="13" font-weight="bold" lengthAdjust="spacing" textLength="14" x="891.5" y="731.8389">18</text><text fill="#000000" font-family="sans-serif" font-size="13" lengthAdjust="spacing" textLength="45" x="909.5" y="731.8389">pathInfo</text><polygon fill="#181818" points="626.5,763.0469,616.5,767.0469,626.5,771.0469,622.5,767.0469" style="stroke:#181818;stroke-width:1.0;"/><line style="stroke:#181818;stroke-width:1.0;stroke-dasharray:2.0,2.0;" x1="620.5" x2="863.5" y1="767.0469" y2="767.0469"/><text fill="#000000" font-family="sans-serif" font-size="13" font-weight="bold" lengthAdjust="spacing" textLength="14" x="632.5" y="762.1904">19</text><text fill="#000000" font-family="sans-serif" font-size="13" lengthAdjust="spacing" textLength="147" x="650.5" y="762.1904">201 CREATED + pathInfo</text><polygon fill="#181818" points="367.5,793.3984,357.5,797.3984,367.5,801.3984,363.5,797.3984" style="stroke:#181818;stroke-width:1.0;"/><line style="stroke:#181818;stroke-width:1.0;stroke-dasharray:2.0,2.0;" x1="361.5" x2="604.5" y1="797.3984" y2="797.3984"/><text fill="#000000" font-family="sans-serif" font-size="13" font-weight="bold" lengthAdjust="spacing" textLength="14" x="373.5" y="792.542">20</text><text fill="#000000" font-family="sans-serif" font-size="13" lengthAdjust="spacing" textLength="86" x="391.5" y="792.542">201 CREATED</text><polygon fill="#181818" points="76.5,823.75,66.5,827.75,76.5,831.75,72.5,827.75" style="stroke:#181818;stroke-width:1.0;"/><line style="stroke:#181818;stroke-width:1.0;stroke-dasharray:2.0,2.0;" x1="70.5" x2="345.5" y1="827.75" y2="827.75"/><text fill="#000000" font-family="sans-serif" font-size="13" font-weight="bold" lengthAdjust="spacing" textLength="14" x="82.5" y="822.8936">21</text><text fill="#000000" font-family="sans-serif" font-size="13" lengthAdjust="spacing" textLength="239" x="100.5" y="822.8936">informs about the success of the creation</text><polygon fill="#181818" points="885.5,879.9375,875.5,883.9375,885.5,887.9375,881.5,883.9375" style="stroke:#181818;stroke-width:1.0;"/><line style="stroke:#181818;stroke-width:1.0;" x1="879.5" x2="1574.5" y1="883.9375" y2="883.9375"/><text fill="#000000" font-family="sans-serif" font-size="13" font-weight="bold" lengthAdjust="spacing" textLength="14" x="891.5" y="879.0811">22</text><text fill="#000000" font-family="sans-serif" font-size="13" lengthAdjust="spacing" textLength="44" x="909.5" y="879.0811">200 OK</text><polygon fill="#181818" points="1050.5,910.2891,1060.5,914.2891,1050.5,918.2891,1054.5,914.2891" style="stroke:#181818;stroke-width:1.0;"/><line style="stroke:#181818;stroke-width:1.0;" x1="874.5" x2="1056.5" y1="914.2891" y2="914.2891"/><text fill="#000000" font-family="sans-serif" font-size="13" font-weight="bold" lengthAdjust="spacing" textLength="14" x="881.5" y="909.4326">23</text><text fill="#000000" font-family="sans-serif" font-size="13" lengthAdjust="spacing" textLength="116" x="899.5" y="909.4326">createPath(pathInfo)</text><polygon fill="#181818" points="1235.5,940.6406,1245.5,944.6406,1235.5,948.6406,1239.5,944.6406" style="stroke:#181818;stroke-width:1.0;"/><line style="stroke:#181818;stroke-width:1.0;" x1="1072.5" x2="1241.5" y1="944.6406" y2="944.6406"/><text fill="#000000" font-family="sans-serif" font-size="13" font-weight="bold" lengthAdjust="spacing" textLength="14" x="1079.5" y="939.7842">24</text><text fill="#000000" font-family="sans-serif" font-size="13" lengthAdjust="spacing" textLength="138" x="1097.5" y="939.7842">getPathById(pathInfo.id)</text><polygon fill="#181818" points="1393.5,970.9922,1403.5,974.9922,1393.5,978.9922,1397.5,974.9922" style="stroke:#181818;stroke-width:1.0;"/><line style="stroke:#181818;stroke-width:1.0;" x1="1257.5" x2="1399.5" y1="974.9922" y2="974.9922"/><text fill="#000000" font-family="sans-serif" font-size="13" font-weight="bold" lengthAdjust="spacing" textLength="14" x="1264.5" y="970.1357">25</text><text fill="#000000" font-family="sans-serif" font-size="13" lengthAdjust="spacing" textLength="111" x="1282.5" y="970.1357">findOne(pathInfo.id)</text><polygon fill="#181818" points="1268.5,1001.3438,1258.5,1005.3438,1268.5,1009.3438,1264.5,1005.3438" style="stroke:#181818;stroke-width:1.0;"/><line style="stroke:#181818;stroke-width:1.0;stroke-dasharray:2.0,2.0;" x1="1262.5" x2="1404.5" y1="1005.3438" y2="1005.3438"/><text fill="#000000" font-family="sans-serif" font-size="13" font-weight="bold" lengthAdjust="spacing" textLength="14" x="1274.5" y="1000.4873">26</text><text fill="#000000" font-family="sans-serif" font-size="13" lengthAdjust="spacing" textLength="27" x="1292.5" y="1000.4873">Path</text><polygon fill="#181818" points="1083.5,1031.6953,1073.5,1035.6953,1083.5,1039.6953,1079.5,1035.6953" style="stroke:#181818;stroke-width:1.0;"/><line style="stroke:#181818;stroke-width:1.0;stroke-dasharray:2.0,2.0;" x1="1077.5" x2="1246.5" y1="1035.6953" y2="1035.6953"/><text fill="#000000" font-family="sans-serif" font-size="13" font-weight="bold" lengthAdjust="spacing" textLength="14" x="1089.5" y="1030.8389">27</text><text fill="#000000" font-family="sans-serif" font-size="13" lengthAdjust="spacing" textLength="27" x="1107.5" y="1030.8389">Path</text><polygon fill="#181818" points="885.5,1062.0469,875.5,1066.0469,885.5,1070.0469,881.5,1066.0469" style="stroke:#181818;stroke-width:1.0;"/><line style="stroke:#181818;stroke-width:1.0;stroke-dasharray:2.0,2.0;" x1="879.5" x2="1061.5" y1="1066.0469" y2="1066.0469"/><text fill="#000000" font-family="sans-serif" font-size="13" font-weight="bold" lengthAdjust="spacing" textLength="14" x="891.5" y="1061.1904">28</text><text fill="#000000" font-family="sans-serif" font-size="13" lengthAdjust="spacing" textLength="146" x="909.5" y="1061.1904">error, Path already exists</text><polygon fill="#181818" points="626.5,1092.3984,616.5,1096.3984,626.5,1100.3984,622.5,1096.3984" style="stroke:#181818;stroke-width:1.0;"/><line style="stroke:#181818;stroke-width:1.0;stroke-dasharray:2.0,2.0;" x1="620.5" x2="863.5" y1="1096.3984" y2="1096.3984"/><text fill="#000000" font-family="sans-serif" font-size="13" font-weight="bold" lengthAdjust="spacing" textLength="14" x="632.5" y="1091.542">29</text><text fill="#000000" font-family="sans-serif" font-size="13" lengthAdjust="spacing" textLength="207" x="650.5" y="1091.542">409 CONFLICT, Path already exists</text><polygon fill="#181818" points="367.5,1122.75,357.5,1126.75,367.5,1130.75,363.5,1126.75" style="stroke:#181818;stroke-width:1.0;"/><line style="stroke:#181818;stroke-width:1.0;stroke-dasharray:2.0,2.0;" x1="361.5" x2="604.5" y1="1126.75" y2="1126.75"/><text fill="#000000" font-family="sans-serif" font-size="13" font-weight="bold" lengthAdjust="spacing" textLength="14" x="373.5" y="1121.8936">30</text><text fill="#000000" font-family="sans-serif" font-size="13" lengthAdjust="spacing" textLength="207" x="391.5" y="1121.8936">409 CONFLICT, Path already exists</text><polygon fill="#181818" points="76.5,1153.1016,66.5,1157.1016,76.5,1161.1016,72.5,1157.1016" style="stroke:#181818;stroke-width:1.0;"/><line style="stroke:#181818;stroke-width:1.0;stroke-dasharray:2.0,2.0;" x1="70.5" x2="345.5" y1="1157.1016" y2="1157.1016"/><text fill="#000000" font-family="sans-serif" font-size="13" font-weight="bold" lengthAdjust="spacing" textLength="14" x="82.5" y="1152.2451">31</text><text fill="#000000" font-family="sans-serif" font-size="13" lengthAdjust="spacing" textLength="224" x="100.5" y="1152.2451">informs about the failure of the creation</text><polygon fill="#181818" points="885.5,1209.2891,875.5,1213.2891,885.5,1217.2891,881.5,1213.2891" style="stroke:#181818;stroke-width:1.0;"/><line style="stroke:#181818;stroke-width:1.0;" x1="879.5" x2="1574.5" y1="1213.2891" y2="1213.2891"/><text fill="#000000" font-family="sans-serif" font-size="13" font-weight="bold" lengthAdjust="spacing" textLength="14" x="891.5" y="1208.4326">32</text><text fill="#000000" font-family="sans-serif" font-size="13" lengthAdjust="spacing" textLength="100" x="909.5" y="1208.4326">404 NOT FOUND</text><polygon fill="#181818" points="626.5,1239.6406,616.5,1243.6406,626.5,1247.6406,622.5,1243.6406" style="stroke:#181818;stroke-width:1.0;"/><line style="stroke:#181818;stroke-width:1.0;" x1="620.5" x2="863.5" y1="1243.6406" y2="1243.6406"/><text fill="#000000" font-family="sans-serif" font-size="13" font-weight="bold" lengthAdjust="spacing" textLength="14" x="632.5" y="1238.7842">33</text><text fill="#000000" font-family="sans-serif" font-size="13" lengthAdjust="spacing" textLength="100" x="650.5" y="1238.7842">404 NOT FOUND</text><polygon fill="#181818" points="367.5,1269.9922,357.5,1273.9922,367.5,1277.9922,363.5,1273.9922" style="stroke:#181818;stroke-width:1.0;"/><line style="stroke:#181818;stroke-width:1.0;stroke-dasharray:2.0,2.0;" x1="361.5" x2="604.5" y1="1273.9922" y2="1273.9922"/><text fill="#000000" font-family="sans-serif" font-size="13" font-weight="bold" lengthAdjust="spacing" textLength="14" x="373.5" y="1269.1357">34</text><text fill="#000000" font-family="sans-serif" font-size="13" lengthAdjust="spacing" textLength="100" x="391.5" y="1269.1357">404 NOT FOUND</text><polygon fill="#181818" points="76.5,1300.3438,66.5,1304.3438,76.5,1308.3438,72.5,1304.3438" style="stroke:#181818;stroke-width:1.0;"/><line style="stroke:#181818;stroke-width:1.0;stroke-dasharray:2.0,2.0;" x1="70.5" x2="345.5" y1="1304.3438" y2="1304.3438"/><text fill="#000000" font-family="sans-serif" font-size="13" font-weight="bold" lengthAdjust="spacing" textLength="14" x="82.5" y="1299.4873">35</text><text fill="#000000" font-family="sans-serif" font-size="13" lengthAdjust="spacing" textLength="185" x="100.5" y="1299.4873">informs warehouse doesn't exist</text><!--MD5=[fb665dd3c6a529e8b8c45dd7524aa1da]
@startuml createPathSD
autonumber
!pragma teoz true
skinparam sequence {
ParticipantBorderColor black
ParticipantBackgroundColor white
}
actor "Logistics Manager" as manager


box "<<System(C4)>>\n       System" #Gold
participant SPA as  SPA <<Container(C4)>>
box "<<Container(C4)>>\n       Logistics" #LightBlue
participant PathRoute as Route <<Component(C4)>>
participant PathController as Controller <<Component(C4)>>
participant PathService as Service <<Component(C4)>>
participant PathRepository as Repository <<Component(C4)>>
participant Persistence as Persistence <<Component(C4)>>
end box
participant WarehouseManagement as WarehouseManagement <<Container(C4)>>
end box


manager -> SPA: I want to create a new Path
activate SPA

SPA -> manager: asks for the details on the new Path
deactivate SPA

manager -> SPA: inserts the information about the new Path
activate SPA


SPA -> Route: POST createPath(pathInfo)
activate Route
Route -> Controller: POST createPath(pathInfo)
activate Controller

Controller -> WarehouseManagement: GET existsPath(startWhID)
activate WarehouseManagement
Controller -> WarehouseManagement: GET existsPath(destinationWhID)

alt Path doesn't exist and Warehouse exists

WarehouseManagement -> Controller: 200 OK

Controller -> Service: createPath(pathInfo)
activate Service
Service -> Repository: getPathById(pathInfo.id)
activate Repository
Repository -> Persistence: findOne(pathInfo.id)
activate Persistence
Persistence - -> Repository: null

Repository - -> Service: null

Service -> Repository: save(pathInfo)

Repository -> Persistence: save(pathInfo)

Persistence - -> Repository: true

Repository - -> Service: pathInfo

Service - -> Controller: pathInfo

Controller - -> Route: 201 CREATED + pathInfo

Route - -> SPA: 201 CREATED

SPA - -> manager: informs about the success of the creation

else Path already exists and Warehouse exists

WarehouseManagement -> Controller: 200 OK

Controller -> Service: createPath(pathInfo)

Service -> Repository: getPathById(pathInfo.id)

Repository -> Persistence: findOne(pathInfo.id)

Persistence - -> Repository: Path
deactivate Persistence
Repository - -> Service: Path
deactivate Repository
Service - -> Controller: error, Path already exists
deactivate Service
Controller - -> Route: 409 CONFLICT, Path already exists

Route - -> SPA: 409 CONFLICT, Path already exists

SPA - -> manager: informs about the failure of the creation


else warehouse doesn't exist

WarehouseManagement -> Controller: 404 NOT FOUND
deactivate WarehouseManagement
Controller -> Route: 404 NOT FOUND
deactivate Controller
Route - -> SPA: 404 NOT FOUND
deactivate Route

SPA - -> manager: informs warehouse doesn't exist


end

deactivate SPA
deactivate manager

@enduml

PlantUML version 1.2022.7(Mon Aug 22 18:01:30 BST 2022)
(GPL source distribution)
Java Runtime: Java(TM) SE Runtime Environment
JVM: Java HotSpot(TM) Client VM
Default Encoding: Cp1252
Language: pt
Country: PT
--></g></svg>