<?xml version="1.0" encoding="UTF-8" standalone="no"?><svg xmlns="http://www.w3.org/2000/svg" xmlns:xlink="http://www.w3.org/1999/xlink" contentStyleType="text/css" height="890px" preserveAspectRatio="none" style="width:1229px;height:890px;background:#FFFFFF;" version="1.1" viewBox="0 0 1229 890" width="1229px" zoomAndPan="magnify"><defs/><g><rect fill="#FFD700" height="878.0625" style="stroke:#181818;stroke-width:0.5;" width="1212.5" x="11" y="6"/><text fill="#000000" font-family="sans-serif" font-size="13" font-weight="bold" lengthAdjust="spacing" textLength="102" x="566.25" y="19.4951">&lt;&lt;System(C4)&gt;&gt;</text><text fill="#000000" font-family="sans-serif" font-size="13" font-weight="bold" lengthAdjust="spacing" textLength="46" x="594.25" y="35.8467">System</text><rect fill="#ADD8E6" height="840.3594" style="stroke:#181818;stroke-width:0.5;" width="866" x="267.5" y="43.7031"/><text fill="#000000" font-family="sans-serif" font-size="13" font-weight="bold" lengthAdjust="spacing" textLength="118" x="641.5" y="57.1982">&lt;&lt;Container(C4)&gt;&gt;</text><text fill="#000000" font-family="sans-serif" font-size="13" font-weight="bold" lengthAdjust="spacing" textLength="55" x="669.5" y="73.5498">Logistics</text><rect fill="none" height="418.4063" style="stroke:#000000;stroke-width:1.5;" width="1141.5" x="59" y="385.4375"/><line style="stroke:#181818;stroke-width:0.5;stroke-dasharray:5.0,5.0;" x1="75" x2="75" y1="130.625" y2="827.8438"/><rect fill="#FFFFFF" height="30.3516" style="stroke:#181818;stroke-width:1.0;" width="10" x="70" y="160.9766"/><rect fill="#FFFFFF" height="601.1641" style="stroke:#181818;stroke-width:1.0;" width="10" x="70" y="221.6797"/><line style="stroke:#181818;stroke-width:0.5;stroke-dasharray:5.0,5.0;" x1="337" x2="337" y1="130.625" y2="827.8438"/><rect fill="#FFFFFF" height="513.4609" style="stroke:#181818;stroke-width:1.0;" width="10" x="332" y="252.0313"/><line style="stroke:#181818;stroke-width:0.5;stroke-dasharray:5.0,5.0;" x1="599" x2="599" y1="130.625" y2="827.8438"/><rect fill="#FFFFFF" height="545.4609" style="stroke:#181818;stroke-width:1.0;" width="10" x="594" y="282.3828"/><line style="stroke:#181818;stroke-width:0.5;stroke-dasharray:5.0,5.0;" x1="782" x2="782" y1="130.625" y2="827.8438"/><line style="stroke:#181818;stroke-width:0.5;stroke-dasharray:5.0,5.0;" x1="923" x2="923" y1="130.625" y2="827.8438"/><line style="stroke:#181818;stroke-width:0.5;stroke-dasharray:5.0,5.0;" x1="1064" x2="1064" y1="130.625" y2="827.8438"/><line style="stroke:#181818;stroke-width:0.5;stroke-dasharray:5.0,5.0;" x1="1184.5" x2="1184.5" y1="130.625" y2="827.8438"/><rect fill="#FFFFFF" height="49.2188" rx="2.5" ry="2.5" style="stroke:#000000;stroke-width:0.5;" width="120" x="15" y="80.4063"/><text fill="#000000" font-family="sans-serif" font-size="14" font-style="italic" lengthAdjust="spacing" textLength="106" x="22" y="101.9395">«Container(C4)»</text><text fill="#000000" font-family="sans-serif" font-size="14" lengthAdjust="spacing" textLength="27" x="61.5" y="119.5488">SPA</text><rect fill="#FFFFFF" height="49.2188" rx="2.5" ry="2.5" style="stroke:#000000;stroke-width:0.5;" width="131" x="271.5" y="80.4063"/><text fill="#000000" font-family="sans-serif" font-size="14" font-style="italic" lengthAdjust="spacing" textLength="117" x="278.5" y="101.9395">«Component(C4)»</text><text fill="#000000" font-family="sans-serif" font-size="14" lengthAdjust="spacing" textLength="67" x="303.5" y="119.5488">PathRoute</text><rect fill="#FFFFFF" height="49.2188" rx="2.5" ry="2.5" style="stroke:#000000;stroke-width:0.5;" width="131" x="533.5" y="80.4063"/><text fill="#000000" font-family="sans-serif" font-size="14" font-style="italic" lengthAdjust="spacing" textLength="117" x="540.5" y="101.9395">«Component(C4)»</text><text fill="#000000" font-family="sans-serif" font-size="14" lengthAdjust="spacing" textLength="91" x="553.5" y="119.5488">PathController</text><rect fill="#FFFFFF" height="49.2188" rx="2.5" ry="2.5" style="stroke:#000000;stroke-width:0.5;" width="131" x="716.5" y="80.4063"/><text fill="#000000" font-family="sans-serif" font-size="14" font-style="italic" lengthAdjust="spacing" textLength="117" x="723.5" y="101.9395">«Component(C4)»</text><text fill="#000000" font-family="sans-serif" font-size="14" lengthAdjust="spacing" textLength="76" x="744" y="119.5488">PathService</text><rect fill="#FFFFFF" height="49.2188" rx="2.5" ry="2.5" style="stroke:#000000;stroke-width:0.5;" width="131" x="857.5" y="80.4063"/><text fill="#000000" font-family="sans-serif" font-size="14" font-style="italic" lengthAdjust="spacing" textLength="117" x="864.5" y="101.9395">«Component(C4)»</text><text fill="#000000" font-family="sans-serif" font-size="14" lengthAdjust="spacing" textLength="97" x="874.5" y="119.5488">PathRepository</text><rect fill="#FFFFFF" height="49.2188" rx="2.5" ry="2.5" style="stroke:#000000;stroke-width:0.5;" width="131" x="998.5" y="80.4063"/><text fill="#000000" font-family="sans-serif" font-size="14" font-style="italic" lengthAdjust="spacing" textLength="117" x="1005.5" y="101.9395">«Component(C4)»</text><text fill="#000000" font-family="sans-serif" font-size="14" lengthAdjust="spacing" textLength="74" x="1027" y="119.5488">Persistence</text><rect fill="#FFFFFF" height="31.6094" rx="2.5" ry="2.5" style="stroke:#000000;stroke-width:0.5;" width="70" x="1149.5" y="98.0156"/><text fill="#000000" font-family="sans-serif" font-size="14" lengthAdjust="spacing" textLength="56" x="1156.5" y="119.5488">manager</text><rect fill="#FFFFFF" height="49.2188" rx="2.5" ry="2.5" style="stroke:#000000;stroke-width:0.5;" width="120" x="15" y="827.8438"/><text fill="#000000" font-family="sans-serif" font-size="14" font-style="italic" lengthAdjust="spacing" textLength="106" x="22" y="849.377">«Container(C4)»</text><text fill="#000000" font-family="sans-serif" font-size="14" lengthAdjust="spacing" textLength="27" x="61.5" y="866.9863">SPA</text><rect fill="#FFFFFF" height="49.2188" rx="2.5" ry="2.5" style="stroke:#000000;stroke-width:0.5;" width="131" x="271.5" y="827.8438"/><text fill="#000000" font-family="sans-serif" font-size="14" font-style="italic" lengthAdjust="spacing" textLength="117" x="278.5" y="849.377">«Component(C4)»</text><text fill="#000000" font-family="sans-serif" font-size="14" lengthAdjust="spacing" textLength="67" x="303.5" y="866.9863">PathRoute</text><rect fill="#FFFFFF" height="49.2188" rx="2.5" ry="2.5" style="stroke:#000000;stroke-width:0.5;" width="131" x="533.5" y="827.8438"/><text fill="#000000" font-family="sans-serif" font-size="14" font-style="italic" lengthAdjust="spacing" textLength="117" x="540.5" y="849.377">«Component(C4)»</text><text fill="#000000" font-family="sans-serif" font-size="14" lengthAdjust="spacing" textLength="91" x="553.5" y="866.9863">PathController</text><rect fill="#FFFFFF" height="49.2188" rx="2.5" ry="2.5" style="stroke:#000000;stroke-width:0.5;" width="131" x="716.5" y="827.8438"/><text fill="#000000" font-family="sans-serif" font-size="14" font-style="italic" lengthAdjust="spacing" textLength="117" x="723.5" y="849.377">«Component(C4)»</text><text fill="#000000" font-family="sans-serif" font-size="14" lengthAdjust="spacing" textLength="76" x="744" y="866.9863">PathService</text><rect fill="#FFFFFF" height="49.2188" rx="2.5" ry="2.5" style="stroke:#000000;stroke-width:0.5;" width="131" x="857.5" y="827.8438"/><text fill="#000000" font-family="sans-serif" font-size="14" font-style="italic" lengthAdjust="spacing" textLength="117" x="864.5" y="849.377">«Component(C4)»</text><text fill="#000000" font-family="sans-serif" font-size="14" lengthAdjust="spacing" textLength="97" x="874.5" y="866.9863">PathRepository</text><rect fill="#FFFFFF" height="49.2188" rx="2.5" ry="2.5" style="stroke:#000000;stroke-width:0.5;" width="131" x="998.5" y="827.8438"/><text fill="#000000" font-family="sans-serif" font-size="14" font-style="italic" lengthAdjust="spacing" textLength="117" x="1005.5" y="849.377">«Component(C4)»</text><text fill="#000000" font-family="sans-serif" font-size="14" lengthAdjust="spacing" textLength="74" x="1027" y="866.9863">Persistence</text><rect fill="#FFFFFF" height="31.6094" rx="2.5" ry="2.5" style="stroke:#000000;stroke-width:0.5;" width="70" x="1149.5" y="827.8438"/><text fill="#000000" font-family="sans-serif" font-size="14" lengthAdjust="spacing" textLength="56" x="1156.5" y="849.377">manager</text><polygon fill="#181818" points="91,156.9766,81,160.9766,91,164.9766,87,160.9766" style="stroke:#181818;stroke-width:1.0;"/><line style="stroke:#181818;stroke-width:1.0;" x1="85" x2="1183.5" y1="160.9766" y2="160.9766"/><text fill="#000000" font-family="sans-serif" font-size="13" font-weight="bold" lengthAdjust="spacing" textLength="7" x="97" y="156.1201">1</text><text fill="#000000" font-family="sans-serif" font-size="13" lengthAdjust="spacing" textLength="115" x="108" y="156.1201">I  want to get a path</text><polygon fill="#181818" points="1172.5,187.3281,1182.5,191.3281,1172.5,195.3281,1176.5,191.3281" style="stroke:#181818;stroke-width:1.0;"/><line style="stroke:#181818;stroke-width:1.0;stroke-dasharray:2.0,2.0;" x1="80" x2="1178.5" y1="191.3281" y2="191.3281"/><text fill="#000000" font-family="sans-serif" font-size="13" font-weight="bold" lengthAdjust="spacing" textLength="7" x="87" y="186.4717">2</text><text fill="#000000" font-family="sans-serif" font-size="13" lengthAdjust="spacing" textLength="91" x="98" y="186.4717">asks for path ID</text><polygon fill="#181818" points="91,217.6797,81,221.6797,91,225.6797,87,221.6797" style="stroke:#181818;stroke-width:1.0;"/><line style="stroke:#181818;stroke-width:1.0;" x1="85" x2="1183.5" y1="221.6797" y2="221.6797"/><text fill="#000000" font-family="sans-serif" font-size="13" font-weight="bold" lengthAdjust="spacing" textLength="7" x="97" y="216.8232">3</text><text fill="#000000" font-family="sans-serif" font-size="13" lengthAdjust="spacing" textLength="84" x="108" y="216.8232">inserts path ID</text><polygon fill="#181818" points="320,248.0313,330,252.0313,320,256.0313,324,252.0313" style="stroke:#181818;stroke-width:1.0;"/><line style="stroke:#181818;stroke-width:1.0;" x1="80" x2="326" y1="252.0313" y2="252.0313"/><text fill="#000000" font-family="sans-serif" font-size="13" font-weight="bold" lengthAdjust="spacing" textLength="7" x="87" y="247.1748">4</text><text fill="#000000" font-family="sans-serif" font-size="13" lengthAdjust="spacing" textLength="120" x="98" y="247.1748">GET getPath(pathID)</text><polygon fill="#181818" points="582,278.3828,592,282.3828,582,286.3828,586,282.3828" style="stroke:#181818;stroke-width:1.0;"/><line style="stroke:#181818;stroke-width:1.0;" x1="342" x2="588" y1="282.3828" y2="282.3828"/><text fill="#000000" font-family="sans-serif" font-size="13" font-weight="bold" lengthAdjust="spacing" textLength="7" x="349" y="277.5264">5</text><text fill="#000000" font-family="sans-serif" font-size="13" lengthAdjust="spacing" textLength="120" x="360" y="277.5264">GET getPath(pathID)</text><polygon fill="#181818" points="770,308.7344,780,312.7344,770,316.7344,774,312.7344" style="stroke:#181818;stroke-width:1.0;"/><line style="stroke:#181818;stroke-width:1.0;" x1="604" x2="776" y1="312.7344" y2="312.7344"/><text fill="#000000" font-family="sans-serif" font-size="13" font-weight="bold" lengthAdjust="spacing" textLength="7" x="611" y="307.8779">6</text><text fill="#000000" font-family="sans-serif" font-size="13" lengthAdjust="spacing" textLength="90" x="622" y="307.8779">getPath(pathID)</text><polygon fill="#181818" points="911,339.0859,921,343.0859,911,347.0859,915,343.0859" style="stroke:#181818;stroke-width:1.0;"/><line style="stroke:#181818;stroke-width:1.0;" x1="782" x2="917" y1="343.0859" y2="343.0859"/><text fill="#000000" font-family="sans-serif" font-size="13" font-weight="bold" lengthAdjust="spacing" textLength="7" x="789" y="338.2295">7</text><text fill="#000000" font-family="sans-serif" font-size="13" lengthAdjust="spacing" textLength="90" x="800" y="338.2295">getPath(pathID)</text><polygon fill="#181818" points="1052,369.4375,1062,373.4375,1052,377.4375,1056,373.4375" style="stroke:#181818;stroke-width:1.0;"/><line style="stroke:#181818;stroke-width:1.0;" x1="923" x2="1058" y1="373.4375" y2="373.4375"/><text fill="#000000" font-family="sans-serif" font-size="13" font-weight="bold" lengthAdjust="spacing" textLength="7" x="930" y="368.5811">8</text><text fill="#000000" font-family="sans-serif" font-size="13" lengthAdjust="spacing" textLength="89" x="941" y="368.5811">findOne(pathID)</text><path d="M59,385.4375 L120,385.4375 L120,393.7891 L110,403.7891 L59,403.7891 L59,385.4375 " fill="#EEEEEE" style="stroke:#000000;stroke-width:1.5;"/><rect fill="none" height="418.4063" style="stroke:#000000;stroke-width:1.5;" width="1141.5" x="59" y="385.4375"/><text fill="#000000" font-family="sans-serif" font-size="13" font-weight="bold" lengthAdjust="spacing" textLength="16" x="74" y="399.9326">alt</text><text fill="#000000" font-family="sans-serif" font-size="11" font-weight="bold" lengthAdjust="spacing" textLength="69" x="135" y="398.8564">[path exists]</text><line style="stroke:#000000;stroke-width:1.0;stroke-dasharray:2.0,2.0;" x1="59" x2="1200.5" y1="606.8984" y2="606.8984"/><text fill="#000000" font-family="sans-serif" font-size="11" font-weight="bold" lengthAdjust="spacing" textLength="114" x="64" y="618.3174">[path doesn't exists]</text><polygon fill="#181818" points="934,432.1406,924,436.1406,934,440.1406,930,436.1406" style="stroke:#181818;stroke-width:1.0;"/><line style="stroke:#181818;stroke-width:1.0;stroke-dasharray:2.0,2.0;" x1="928" x2="1063" y1="436.1406" y2="436.1406"/><text fill="#000000" font-family="sans-serif" font-size="13" font-weight="bold" lengthAdjust="spacing" textLength="7" x="940" y="431.2842">9</text><text fill="#000000" font-family="sans-serif" font-size="13" lengthAdjust="spacing" textLength="45" x="951" y="431.2842">pathInfo</text><polygon fill="#181818" points="793,462.4922,783,466.4922,793,470.4922,789,466.4922" style="stroke:#181818;stroke-width:1.0;"/><line style="stroke:#181818;stroke-width:1.0;stroke-dasharray:2.0,2.0;" x1="787" x2="922" y1="466.4922" y2="466.4922"/><text fill="#000000" font-family="sans-serif" font-size="13" font-weight="bold" lengthAdjust="spacing" textLength="14" x="799" y="461.6357">10</text><text fill="#000000" font-family="sans-serif" font-size="13" lengthAdjust="spacing" textLength="45" x="817" y="461.6357">pathInfo</text><polygon fill="#181818" points="615,492.8438,605,496.8438,615,500.8438,611,496.8438" style="stroke:#181818;stroke-width:1.0;"/><line style="stroke:#181818;stroke-width:1.0;stroke-dasharray:2.0,2.0;" x1="609" x2="781" y1="496.8438" y2="496.8438"/><text fill="#000000" font-family="sans-serif" font-size="13" font-weight="bold" lengthAdjust="spacing" textLength="14" x="621" y="491.9873">11</text><text fill="#000000" font-family="sans-serif" font-size="13" lengthAdjust="spacing" textLength="45" x="639" y="491.9873">pathInfo</text><polygon fill="#181818" points="353,523.1953,343,527.1953,353,531.1953,349,527.1953" style="stroke:#181818;stroke-width:1.0;"/><line style="stroke:#181818;stroke-width:1.0;stroke-dasharray:2.0,2.0;" x1="347" x2="593" y1="527.1953" y2="527.1953"/><text fill="#000000" font-family="sans-serif" font-size="13" font-weight="bold" lengthAdjust="spacing" textLength="14" x="359" y="522.3389">12</text><text fill="#000000" font-family="sans-serif" font-size="13" lengthAdjust="spacing" textLength="105" x="377" y="522.3389">200 OK + pathInfo</text><polygon fill="#181818" points="91,553.5469,81,557.5469,91,561.5469,87,557.5469" style="stroke:#181818;stroke-width:1.0;"/><line style="stroke:#181818;stroke-width:1.0;stroke-dasharray:2.0,2.0;" x1="85" x2="331" y1="557.5469" y2="557.5469"/><text fill="#000000" font-family="sans-serif" font-size="13" font-weight="bold" lengthAdjust="spacing" textLength="14" x="97" y="552.6904">13</text><text fill="#000000" font-family="sans-serif" font-size="13" lengthAdjust="spacing" textLength="105" x="115" y="552.6904">200 OK + pathInfo</text><polygon fill="#181818" points="1172.5,583.8984,1182.5,587.8984,1172.5,591.8984,1176.5,587.8984" style="stroke:#181818;stroke-width:1.0;"/><line style="stroke:#181818;stroke-width:1.0;stroke-dasharray:2.0,2.0;" x1="80" x2="1178.5" y1="587.8984" y2="587.8984"/><text fill="#000000" font-family="sans-serif" font-size="13" font-weight="bold" lengthAdjust="spacing" textLength="14" x="87" y="583.042">14</text><text fill="#000000" font-family="sans-serif" font-size="13" lengthAdjust="spacing" textLength="169" x="105" y="583.042">shows information about path</text><polygon fill="#181818" points="934,640.0859,924,644.0859,934,648.0859,930,644.0859" style="stroke:#181818;stroke-width:1.0;"/><line style="stroke:#181818;stroke-width:1.0;stroke-dasharray:2.0,2.0;" x1="928" x2="1063" y1="644.0859" y2="644.0859"/><text fill="#000000" font-family="sans-serif" font-size="13" font-weight="bold" lengthAdjust="spacing" textLength="14" x="940" y="639.2295">15</text><text fill="#000000" font-family="sans-serif" font-size="13" lengthAdjust="spacing" textLength="20" x="958" y="639.2295">null</text><polygon fill="#181818" points="793,670.4375,783,674.4375,793,678.4375,789,674.4375" style="stroke:#181818;stroke-width:1.0;"/><line style="stroke:#181818;stroke-width:1.0;stroke-dasharray:2.0,2.0;" x1="787" x2="922" y1="674.4375" y2="674.4375"/><text fill="#000000" font-family="sans-serif" font-size="13" font-weight="bold" lengthAdjust="spacing" textLength="14" x="799" y="669.5811">16</text><text fill="#000000" font-family="sans-serif" font-size="13" lengthAdjust="spacing" textLength="20" x="817" y="669.5811">null</text><polygon fill="#181818" points="615,700.7891,605,704.7891,615,708.7891,611,704.7891" style="stroke:#181818;stroke-width:1.0;"/><line style="stroke:#181818;stroke-width:1.0;stroke-dasharray:2.0,2.0;" x1="609" x2="781" y1="704.7891" y2="704.7891"/><text fill="#000000" font-family="sans-serif" font-size="13" font-weight="bold" lengthAdjust="spacing" textLength="14" x="621" y="699.9326">17</text><text fill="#000000" font-family="sans-serif" font-size="13" lengthAdjust="spacing" textLength="136" x="639" y="699.9326">error, path doesn't exist</text><polygon fill="#181818" points="353,731.1406,343,735.1406,353,739.1406,349,735.1406" style="stroke:#181818;stroke-width:1.0;"/><line style="stroke:#181818;stroke-width:1.0;stroke-dasharray:2.0,2.0;" x1="347" x2="593" y1="735.1406" y2="735.1406"/><text fill="#000000" font-family="sans-serif" font-size="13" font-weight="bold" lengthAdjust="spacing" textLength="14" x="359" y="730.2842">18</text><text fill="#000000" font-family="sans-serif" font-size="13" lengthAdjust="spacing" textLength="210" x="377" y="730.2842">404 NOT FOUND, path doesn't exist</text><polygon fill="#181818" points="91,761.4922,81,765.4922,91,769.4922,87,765.4922" style="stroke:#181818;stroke-width:1.0;"/><line style="stroke:#181818;stroke-width:1.0;stroke-dasharray:2.0,2.0;" x1="85" x2="331" y1="765.4922" y2="765.4922"/><text fill="#000000" font-family="sans-serif" font-size="13" font-weight="bold" lengthAdjust="spacing" textLength="14" x="97" y="760.6357">19</text><text fill="#000000" font-family="sans-serif" font-size="13" lengthAdjust="spacing" textLength="210" x="115" y="760.6357">404 NOT FOUND, path doesn't exist</text><polygon fill="#181818" points="1172.5,791.8438,1182.5,795.8438,1172.5,799.8438,1176.5,795.8438" style="stroke:#181818;stroke-width:1.0;"/><line style="stroke:#181818;stroke-width:1.0;stroke-dasharray:2.0,2.0;" x1="80" x2="1178.5" y1="795.8438" y2="795.8438"/><text fill="#000000" font-family="sans-serif" font-size="13" font-weight="bold" lengthAdjust="spacing" textLength="14" x="87" y="790.9873">20</text><text fill="#000000" font-family="sans-serif" font-size="13" lengthAdjust="spacing" textLength="148" x="105" y="790.9873">informs path doesn't exist</text><!--MD5=[1b3691b382be8f3cedb065a1661f09e8]
@startuml getPathSD
autonumber
!pragma teoz true
skinparam sequence {
ParticipantBorderColor black
ParticipantBackgroundColor white
}



box "<<System(C4)>>\n       System" #Gold
participant SPA as  SPA <<Container(C4)>>
box "<<Container(C4)>>\n       Logistics" #LightBlue
participant PathRoute as Route <<Component(C4)>>
participant PathController as Controller <<Component(C4)>>
participant PathService as Service <<Component(C4)>>
participant PathRepository as Repository <<Component(C4)>>
participant Persistence as Persistence <<Component(C4)>>
end box

manager -> SPA: I  want to get a path
activate SPA

SPA - -> manager: asks for path ID
deactivate SPA

manager -> SPA: inserts path ID
activate SPA

SPA -> Route: GET getPath(pathID)
activate Route

Route -> Controller: GET getPath(pathID)
activate Controller

Controller -> Service: getPath(pathID)

Service -> Repository: getPath(pathID)

Repository -> Persistence: findOne(pathID)


alt path exists
Persistence - -> Repository: pathInfo

Repository - -> Service: pathInfo

Service - -> Controller: pathInfo

Controller - -> Route: 200 OK + pathInfo

Route - -> SPA: 200 OK + pathInfo
SPA - -> manager: shows information about path


else path doesn't exists
Persistence - -> Repository: null

Repository - -> Service: null

Service - -> Controller: error, path doesn't exist

Controller - -> Route: 404 NOT FOUND, path doesn't exist

Route - -> SPA: 404 NOT FOUND, path doesn't exist
deactivate Route
SPA - -> manager: informs path doesn't exist

end

deactivate SPA
deactivate manager

@enduml

PlantUML version 1.2022.7(Mon Aug 22 18:01:30 BST 2022)
(GPL source distribution)
Java Runtime: Java(TM) SE Runtime Environment
JVM: Java HotSpot(TM) Client VM
Default Encoding: Cp1252
Language: pt
Country: PT
--></g></svg>