<?xml version="1.0" encoding="UTF-8" standalone="no"?><svg xmlns="http://www.w3.org/2000/svg" xmlns:xlink="http://www.w3.org/1999/xlink" contentStyleType="text/css" height="1157px" preserveAspectRatio="none" style="width:1485px;height:1157px;background:#FFFFFF;" version="1.1" viewBox="0 0 1485 1157" width="1485px" zoomAndPan="magnify"><defs/><g><rect fill="#FFD700" height="1145.3047" style="stroke:#181818;stroke-width:0.5;" width="1188.5" x="277.5" y="6"/><text fill="#000000" font-family="sans-serif" font-size="13" font-weight="bold" lengthAdjust="spacing" textLength="102" x="820.75" y="19.4951">&lt;&lt;System(C4)&gt;&gt;</text><text fill="#000000" font-family="sans-serif" font-size="13" font-weight="bold" lengthAdjust="spacing" textLength="46" x="848.75" y="35.8467">System</text><rect fill="#ADD8E6" height="1107.6016" style="stroke:#181818;stroke-width:0.5;" width="932" x="534" y="43.7031"/><text fill="#000000" font-family="sans-serif" font-size="13" font-weight="bold" lengthAdjust="spacing" textLength="118" x="941" y="57.1982">&lt;&lt;Container(C4)&gt;&gt;</text><text fill="#000000" font-family="sans-serif" font-size="13" font-weight="bold" lengthAdjust="spacing" textLength="55" x="969" y="73.5498">Logistics</text><rect fill="none" height="721.9219" style="stroke:#000000;stroke-width:1.5;" width="1428.5" x="49.5" y="321.7734"/><line style="stroke:#181818;stroke-width:0.5;stroke-dasharray:5.0,5.0;" x1="65.5" x2="65.5" y1="158.0156" y2="1067.6953"/><rect fill="#FFFFFF" height="901.6797" style="stroke:#181818;stroke-width:1.0;" width="10" x="60.5" y="166.0156"/><line style="stroke:#181818;stroke-width:0.5;stroke-dasharray:5.0,5.0;" x1="341.5" x2="341.5" y1="158.0156" y2="1067.6953"/><rect fill="#FFFFFF" height="30.3516" style="stroke:#181818;stroke-width:1.0;" width="10" x="336.5" y="188.3672"/><rect fill="#FFFFFF" height="818.625" style="stroke:#181818;stroke-width:1.0;" width="10" x="336.5" y="249.0703"/><line style="stroke:#181818;stroke-width:0.5;stroke-dasharray:5.0,5.0;" x1="603.5" x2="603.5" y1="158.0156" y2="1067.6953"/><rect fill="#FFFFFF" height="788.2734" style="stroke:#181818;stroke-width:1.0;" width="10" x="598.5" y="279.4219"/><line style="stroke:#181818;stroke-width:0.5;stroke-dasharray:5.0,5.0;" x1="865.5" x2="865.5" y1="158.0156" y2="1067.6953"/><rect fill="#FFFFFF" height="757.9219" style="stroke:#181818;stroke-width:1.0;" width="10" x="860.5" y="309.7734"/><line style="stroke:#181818;stroke-width:0.5;stroke-dasharray:5.0,5.0;" x1="1053.5" x2="1053.5" y1="158.0156" y2="1067.6953"/><rect fill="#FFFFFF" height="572.1641" style="stroke:#181818;stroke-width:1.0;" width="10" x="1048.5" y="372.4766"/><line style="stroke:#181818;stroke-width:0.5;stroke-dasharray:5.0,5.0;" x1="1238.5" x2="1238.5" y1="158.0156" y2="1067.6953"/><rect fill="#FFFFFF" height="511.4609" style="stroke:#181818;stroke-width:1.0;" width="10" x="1233.5" y="402.8281"/><line style="stroke:#181818;stroke-width:0.5;stroke-dasharray:5.0,5.0;" x1="1396.5" x2="1396.5" y1="158.0156" y2="1067.6953"/><rect fill="#FFFFFF" height="450.7578" style="stroke:#181818;stroke-width:1.0;" width="10" x="1391.5" y="433.1797"/><text fill="#000000" font-family="sans-serif" font-size="14" lengthAdjust="spacing" textLength="115" x="5" y="154.9395">Logistics Manager</text><ellipse cx="65.5" cy="88.9063" fill="#E2E2F0" rx="8" ry="8" style="stroke:#181818;stroke-width:0.5;"/><path d="M65.5,96.9063 L65.5,123.9063 M52.5,104.9063 L78.5,104.9063 M65.5,123.9063 L52.5,138.9063 M65.5,123.9063 L78.5,138.9063 " fill="none" style="stroke:#181818;stroke-width:0.5;"/><rect fill="#FFFFFF" height="49.2188" rx="2.5" ry="2.5" style="stroke:#000000;stroke-width:0.5;" width="120" x="281.5" y="107.7969"/><text fill="#000000" font-family="sans-serif" font-size="14" font-style="italic" lengthAdjust="spacing" textLength="106" x="288.5" y="129.3301">«Container(C4)»</text><text fill="#000000" font-family="sans-serif" font-size="14" lengthAdjust="spacing" textLength="27" x="328" y="146.9395">SPA</text><rect fill="#FFFFFF" height="49.2188" rx="2.5" ry="2.5" style="stroke:#000000;stroke-width:0.5;" width="131" x="538" y="107.7969"/><text fill="#000000" font-family="sans-serif" font-size="14" font-style="italic" lengthAdjust="spacing" textLength="117" x="545" y="129.3301">«Component(C4)»</text><text fill="#000000" font-family="sans-serif" font-size="14" lengthAdjust="spacing" textLength="67" x="570" y="146.9395">PathRoute</text><rect fill="#FFFFFF" height="49.2188" rx="2.5" ry="2.5" style="stroke:#000000;stroke-width:0.5;" width="131" x="800" y="107.7969"/><text fill="#000000" font-family="sans-serif" font-size="14" font-style="italic" lengthAdjust="spacing" textLength="117" x="807" y="129.3301">«Component(C4)»</text><text fill="#000000" font-family="sans-serif" font-size="14" lengthAdjust="spacing" textLength="91" x="820" y="146.9395">PathController</text><rect fill="#FFFFFF" height="49.2188" rx="2.5" ry="2.5" style="stroke:#000000;stroke-width:0.5;" width="131" x="988" y="107.7969"/><text fill="#000000" font-family="sans-serif" font-size="14" font-style="italic" lengthAdjust="spacing" textLength="117" x="995" y="129.3301">«Component(C4)»</text><text fill="#000000" font-family="sans-serif" font-size="14" lengthAdjust="spacing" textLength="76" x="1015.5" y="146.9395">PathService</text><rect fill="#FFFFFF" height="49.2188" rx="2.5" ry="2.5" style="stroke:#000000;stroke-width:0.5;" width="131" x="1173" y="107.7969"/><text fill="#000000" font-family="sans-serif" font-size="14" font-style="italic" lengthAdjust="spacing" textLength="117" x="1180" y="129.3301">«Component(C4)»</text><text fill="#000000" font-family="sans-serif" font-size="14" lengthAdjust="spacing" textLength="97" x="1190" y="146.9395">PathRepository</text><rect fill="#FFFFFF" height="49.2188" rx="2.5" ry="2.5" style="stroke:#000000;stroke-width:0.5;" width="131" x="1331" y="107.7969"/><text fill="#000000" font-family="sans-serif" font-size="14" font-style="italic" lengthAdjust="spacing" textLength="117" x="1338" y="129.3301">«Component(C4)»</text><text fill="#000000" font-family="sans-serif" font-size="14" lengthAdjust="spacing" textLength="74" x="1359.5" y="146.9395">Persistence</text><text fill="#000000" font-family="sans-serif" font-size="14" lengthAdjust="spacing" textLength="115" x="5" y="1142.2285">Logistics Manager</text><ellipse cx="65.5" cy="1076.1953" fill="#E2E2F0" rx="8" ry="8" style="stroke:#181818;stroke-width:0.5;"/><path d="M65.5,1084.1953 L65.5,1111.1953 M52.5,1092.1953 L78.5,1092.1953 M65.5,1111.1953 L52.5,1126.1953 M65.5,1111.1953 L78.5,1126.1953 " fill="none" style="stroke:#181818;stroke-width:0.5;"/><rect fill="#FFFFFF" height="49.2188" rx="2.5" ry="2.5" style="stroke:#000000;stroke-width:0.5;" width="120" x="281.5" y="1067.6953"/><text fill="#000000" font-family="sans-serif" font-size="14" font-style="italic" lengthAdjust="spacing" textLength="106" x="288.5" y="1089.2285">«Container(C4)»</text><text fill="#000000" font-family="sans-serif" font-size="14" lengthAdjust="spacing" textLength="27" x="328" y="1106.8379">SPA</text><rect fill="#FFFFFF" height="49.2188" rx="2.5" ry="2.5" style="stroke:#000000;stroke-width:0.5;" width="131" x="538" y="1067.6953"/><text fill="#000000" font-family="sans-serif" font-size="14" font-style="italic" lengthAdjust="spacing" textLength="117" x="545" y="1089.2285">«Component(C4)»</text><text fill="#000000" font-family="sans-serif" font-size="14" lengthAdjust="spacing" textLength="67" x="570" y="1106.8379">PathRoute</text><rect fill="#FFFFFF" height="49.2188" rx="2.5" ry="2.5" style="stroke:#000000;stroke-width:0.5;" width="131" x="800" y="1067.6953"/><text fill="#000000" font-family="sans-serif" font-size="14" font-style="italic" lengthAdjust="spacing" textLength="117" x="807" y="1089.2285">«Component(C4)»</text><text fill="#000000" font-family="sans-serif" font-size="14" lengthAdjust="spacing" textLength="91" x="820" y="1106.8379">PathController</text><rect fill="#FFFFFF" height="49.2188" rx="2.5" ry="2.5" style="stroke:#000000;stroke-width:0.5;" width="131" x="988" y="1067.6953"/><text fill="#000000" font-family="sans-serif" font-size="14" font-style="italic" lengthAdjust="spacing" textLength="117" x="995" y="1089.2285">«Component(C4)»</text><text fill="#000000" font-family="sans-serif" font-size="14" lengthAdjust="spacing" textLength="76" x="1015.5" y="1106.8379">PathService</text><rect fill="#FFFFFF" height="49.2188" rx="2.5" ry="2.5" style="stroke:#000000;stroke-width:0.5;" width="131" x="1173" y="1067.6953"/><text fill="#000000" font-family="sans-serif" font-size="14" font-style="italic" lengthAdjust="spacing" textLength="117" x="1180" y="1089.2285">«Component(C4)»</text><text fill="#000000" font-family="sans-serif" font-size="14" lengthAdjust="spacing" textLength="97" x="1190" y="1106.8379">PathRepository</text><rect fill="#FFFFFF" height="49.2188" rx="2.5" ry="2.5" style="stroke:#000000;stroke-width:0.5;" width="131" x="1331" y="1067.6953"/><text fill="#000000" font-family="sans-serif" font-size="14" font-style="italic" lengthAdjust="spacing" textLength="117" x="1338" y="1089.2285">«Component(C4)»</text><text fill="#000000" font-family="sans-serif" font-size="14" lengthAdjust="spacing" textLength="74" x="1359.5" y="1106.8379">Persistence</text><polygon fill="#181818" points="324.5,184.3672,334.5,188.3672,324.5,192.3672,328.5,188.3672" style="stroke:#181818;stroke-width:1.0;"/><line style="stroke:#181818;stroke-width:1.0;" x1="70.5" x2="330.5" y1="188.3672" y2="188.3672"/><text fill="#000000" font-family="sans-serif" font-size="13" font-weight="bold" lengthAdjust="spacing" textLength="7" x="77.5" y="183.5107">1</text><text fill="#000000" font-family="sans-serif" font-size="13" lengthAdjust="spacing" textLength="132" x="88.5" y="183.5107">I want to update a path</text><polygon fill="#181818" points="81.5,214.7188,71.5,218.7188,81.5,222.7188,77.5,218.7188" style="stroke:#181818;stroke-width:1.0;"/><line style="stroke:#181818;stroke-width:1.0;" x1="75.5" x2="335.5" y1="218.7188" y2="218.7188"/><text fill="#000000" font-family="sans-serif" font-size="13" font-weight="bold" lengthAdjust="spacing" textLength="7" x="87.5" y="213.8623">2</text><text fill="#000000" font-family="sans-serif" font-size="13" lengthAdjust="spacing" textLength="167" x="98.5" y="213.8623">asks for path ID and new info</text><polygon fill="#181818" points="324.5,245.0703,334.5,249.0703,324.5,253.0703,328.5,249.0703" style="stroke:#181818;stroke-width:1.0;"/><line style="stroke:#181818;stroke-width:1.0;" x1="70.5" x2="330.5" y1="249.0703" y2="249.0703"/><text fill="#000000" font-family="sans-serif" font-size="13" font-weight="bold" lengthAdjust="spacing" textLength="7" x="77.5" y="244.2139">3</text><text fill="#000000" font-family="sans-serif" font-size="13" lengthAdjust="spacing" textLength="215" x="88.5" y="244.2139">inserts the information about the path</text><polygon fill="#181818" points="586.5,275.4219,596.5,279.4219,586.5,283.4219,590.5,279.4219" style="stroke:#181818;stroke-width:1.0;"/><line style="stroke:#181818;stroke-width:1.0;" x1="346.5" x2="592.5" y1="279.4219" y2="279.4219"/><text fill="#000000" font-family="sans-serif" font-size="13" font-weight="bold" lengthAdjust="spacing" textLength="7" x="353.5" y="274.5654">4</text><text fill="#000000" font-family="sans-serif" font-size="13" lengthAdjust="spacing" textLength="146" x="364.5" y="274.5654">PATCH updatePath(path)</text><polygon fill="#181818" points="848.5,305.7734,858.5,309.7734,848.5,313.7734,852.5,309.7734" style="stroke:#181818;stroke-width:1.0;"/><line style="stroke:#181818;stroke-width:1.0;" x1="608.5" x2="854.5" y1="309.7734" y2="309.7734"/><text fill="#000000" font-family="sans-serif" font-size="13" font-weight="bold" lengthAdjust="spacing" textLength="7" x="615.5" y="304.917">5</text><text fill="#000000" font-family="sans-serif" font-size="13" lengthAdjust="spacing" textLength="146" x="626.5" y="304.917">PATCH updatePath(path)</text><path d="M49.5,321.7734 L110.5,321.7734 L110.5,330.125 L100.5,340.125 L49.5,340.125 L49.5,321.7734 " fill="#EEEEEE" style="stroke:#000000;stroke-width:1.5;"/><rect fill="none" height="721.9219" style="stroke:#000000;stroke-width:1.5;" width="1428.5" x="49.5" y="321.7734"/><text fill="#000000" font-family="sans-serif" font-size="13" font-weight="bold" lengthAdjust="spacing" textLength="16" x="64.5" y="336.2686">alt</text><text fill="#000000" font-family="sans-serif" font-size="11" font-weight="bold" lengthAdjust="spacing" textLength="69" x="125.5" y="335.1924">[path exists]</text><line style="stroke:#000000;stroke-width:1.0;stroke-dasharray:2.0,2.0;" x1="49.5" x2="1478" y1="755.6953" y2="755.6953"/><text fill="#000000" font-family="sans-serif" font-size="11" font-weight="bold" lengthAdjust="spacing" textLength="107" x="54.5" y="767.1143">[path doesn't exist]</text><polygon fill="#181818" points="1036.5,368.4766,1046.5,372.4766,1036.5,376.4766,1040.5,372.4766" style="stroke:#181818;stroke-width:1.0;"/><line style="stroke:#181818;stroke-width:1.0;" x1="870.5" x2="1042.5" y1="372.4766" y2="372.4766"/><text fill="#000000" font-family="sans-serif" font-size="13" font-weight="bold" lengthAdjust="spacing" textLength="7" x="877.5" y="367.6201">6</text><text fill="#000000" font-family="sans-serif" font-size="13" lengthAdjust="spacing" textLength="99" x="888.5" y="367.6201">updatePath(path)</text><polygon fill="#181818" points="1221.5,398.8281,1231.5,402.8281,1221.5,406.8281,1225.5,402.8281" style="stroke:#181818;stroke-width:1.0;"/><line style="stroke:#181818;stroke-width:1.0;" x1="1058.5" x2="1227.5" y1="402.8281" y2="402.8281"/><text fill="#000000" font-family="sans-serif" font-size="13" font-weight="bold" lengthAdjust="spacing" textLength="7" x="1065.5" y="397.9717">7</text><text fill="#000000" font-family="sans-serif" font-size="13" lengthAdjust="spacing" textLength="138" x="1076.5" y="397.9717">getPathById(pathInfo.id)</text><polygon fill="#181818" points="1379.5,429.1797,1389.5,433.1797,1379.5,437.1797,1383.5,433.1797" style="stroke:#181818;stroke-width:1.0;"/><line style="stroke:#181818;stroke-width:1.0;" x1="1243.5" x2="1385.5" y1="433.1797" y2="433.1797"/><text fill="#000000" font-family="sans-serif" font-size="13" font-weight="bold" lengthAdjust="spacing" textLength="7" x="1250.5" y="428.3232">8</text><text fill="#000000" font-family="sans-serif" font-size="13" lengthAdjust="spacing" textLength="111" x="1261.5" y="428.3232">findOne(pathInfo.id)</text><polygon fill="#181818" points="1254.5,459.5313,1244.5,463.5313,1254.5,467.5313,1250.5,463.5313" style="stroke:#181818;stroke-width:1.0;"/><line style="stroke:#181818;stroke-width:1.0;stroke-dasharray:2.0,2.0;" x1="1248.5" x2="1390.5" y1="463.5313" y2="463.5313"/><text fill="#000000" font-family="sans-serif" font-size="13" font-weight="bold" lengthAdjust="spacing" textLength="7" x="1260.5" y="458.6748">9</text><text fill="#000000" font-family="sans-serif" font-size="13" lengthAdjust="spacing" textLength="25" x="1271.5" y="458.6748">path</text><polygon fill="#181818" points="1069.5,489.8828,1059.5,493.8828,1069.5,497.8828,1065.5,493.8828" style="stroke:#181818;stroke-width:1.0;"/><line style="stroke:#181818;stroke-width:1.0;stroke-dasharray:2.0,2.0;" x1="1063.5" x2="1232.5" y1="493.8828" y2="493.8828"/><text fill="#000000" font-family="sans-serif" font-size="13" font-weight="bold" lengthAdjust="spacing" textLength="14" x="1075.5" y="489.0264">10</text><text fill="#000000" font-family="sans-serif" font-size="13" lengthAdjust="spacing" textLength="25" x="1093.5" y="489.0264">path</text><polygon fill="#181818" points="1221.5,520.2344,1231.5,524.2344,1221.5,528.2344,1225.5,524.2344" style="stroke:#181818;stroke-width:1.0;"/><line style="stroke:#181818;stroke-width:1.0;" x1="1058.5" x2="1227.5" y1="524.2344" y2="524.2344"/><text fill="#000000" font-family="sans-serif" font-size="13" font-weight="bold" lengthAdjust="spacing" textLength="14" x="1065.5" y="519.3779">11</text><text fill="#000000" font-family="sans-serif" font-size="13" lengthAdjust="spacing" textLength="92" x="1083.5" y="519.3779">update(pathInfo)</text><polygon fill="#181818" points="1379.5,550.5859,1389.5,554.5859,1379.5,558.5859,1383.5,554.5859" style="stroke:#181818;stroke-width:1.0;"/><line style="stroke:#181818;stroke-width:1.0;" x1="1243.5" x2="1385.5" y1="554.5859" y2="554.5859"/><text fill="#000000" font-family="sans-serif" font-size="13" font-weight="bold" lengthAdjust="spacing" textLength="14" x="1250.5" y="549.7295">12</text><text fill="#000000" font-family="sans-serif" font-size="13" lengthAdjust="spacing" textLength="79" x="1268.5" y="549.7295">save(pathInfo)</text><polygon fill="#181818" points="1254.5,580.9375,1244.5,584.9375,1254.5,588.9375,1250.5,584.9375" style="stroke:#181818;stroke-width:1.0;"/><line style="stroke:#181818;stroke-width:1.0;stroke-dasharray:2.0,2.0;" x1="1248.5" x2="1390.5" y1="584.9375" y2="584.9375"/><text fill="#000000" font-family="sans-serif" font-size="13" font-weight="bold" lengthAdjust="spacing" textLength="14" x="1260.5" y="580.0811">13</text><text fill="#000000" font-family="sans-serif" font-size="13" lengthAdjust="spacing" textLength="22" x="1278.5" y="580.0811">true</text><polygon fill="#181818" points="1069.5,611.2891,1059.5,615.2891,1069.5,619.2891,1065.5,615.2891" style="stroke:#181818;stroke-width:1.0;"/><line style="stroke:#181818;stroke-width:1.0;stroke-dasharray:2.0,2.0;" x1="1063.5" x2="1232.5" y1="615.2891" y2="615.2891"/><text fill="#000000" font-family="sans-serif" font-size="13" font-weight="bold" lengthAdjust="spacing" textLength="14" x="1075.5" y="610.4326">14</text><text fill="#000000" font-family="sans-serif" font-size="13" lengthAdjust="spacing" textLength="45" x="1093.5" y="610.4326">pathInfo</text><polygon fill="#181818" points="881.5,641.6406,871.5,645.6406,881.5,649.6406,877.5,645.6406" style="stroke:#181818;stroke-width:1.0;"/><line style="stroke:#181818;stroke-width:1.0;stroke-dasharray:2.0,2.0;" x1="875.5" x2="1047.5" y1="645.6406" y2="645.6406"/><text fill="#000000" font-family="sans-serif" font-size="13" font-weight="bold" lengthAdjust="spacing" textLength="14" x="887.5" y="640.7842">15</text><text fill="#000000" font-family="sans-serif" font-size="13" lengthAdjust="spacing" textLength="45" x="905.5" y="640.7842">pathInfo</text><polygon fill="#181818" points="619.5,671.9922,609.5,675.9922,619.5,679.9922,615.5,675.9922" style="stroke:#181818;stroke-width:1.0;"/><line style="stroke:#181818;stroke-width:1.0;stroke-dasharray:2.0,2.0;" x1="613.5" x2="859.5" y1="675.9922" y2="675.9922"/><text fill="#000000" font-family="sans-serif" font-size="13" font-weight="bold" lengthAdjust="spacing" textLength="14" x="625.5" y="671.1357">16</text><text fill="#000000" font-family="sans-serif" font-size="13" lengthAdjust="spacing" textLength="105" x="643.5" y="671.1357">200 OK + pathInfo</text><polygon fill="#181818" points="357.5,702.3438,347.5,706.3438,357.5,710.3438,353.5,706.3438" style="stroke:#181818;stroke-width:1.0;"/><line style="stroke:#181818;stroke-width:1.0;stroke-dasharray:2.0,2.0;" x1="351.5" x2="597.5" y1="706.3438" y2="706.3438"/><text fill="#000000" font-family="sans-serif" font-size="13" font-weight="bold" lengthAdjust="spacing" textLength="14" x="363.5" y="701.4873">17</text><text fill="#000000" font-family="sans-serif" font-size="13" lengthAdjust="spacing" textLength="105" x="381.5" y="701.4873">200 OK + pathInfo</text><polygon fill="#181818" points="81.5,732.6953,71.5,736.6953,81.5,740.6953,77.5,736.6953" style="stroke:#181818;stroke-width:1.0;"/><line style="stroke:#181818;stroke-width:1.0;stroke-dasharray:2.0,2.0;" x1="75.5" x2="335.5" y1="736.6953" y2="736.6953"/><text fill="#000000" font-family="sans-serif" font-size="13" font-weight="bold" lengthAdjust="spacing" textLength="14" x="87.5" y="731.8389">18</text><text fill="#000000" font-family="sans-serif" font-size="13" lengthAdjust="spacing" textLength="154" x="105.5" y="731.8389">shows updated information</text><polygon fill="#181818" points="1036.5,788.8828,1046.5,792.8828,1036.5,796.8828,1040.5,792.8828" style="stroke:#181818;stroke-width:1.0;"/><line style="stroke:#181818;stroke-width:1.0;" x1="870.5" x2="1042.5" y1="792.8828" y2="792.8828"/><text fill="#000000" font-family="sans-serif" font-size="13" font-weight="bold" lengthAdjust="spacing" textLength="14" x="877.5" y="788.0264">19</text><text fill="#000000" font-family="sans-serif" font-size="13" lengthAdjust="spacing" textLength="99" x="895.5" y="788.0264">updatePath(path)</text><polygon fill="#181818" points="1221.5,819.2344,1231.5,823.2344,1221.5,827.2344,1225.5,823.2344" style="stroke:#181818;stroke-width:1.0;"/><line style="stroke:#181818;stroke-width:1.0;" x1="1058.5" x2="1227.5" y1="823.2344" y2="823.2344"/><text fill="#000000" font-family="sans-serif" font-size="13" font-weight="bold" lengthAdjust="spacing" textLength="14" x="1065.5" y="818.3779">20</text><text fill="#000000" font-family="sans-serif" font-size="13" lengthAdjust="spacing" textLength="138" x="1083.5" y="818.3779">getPathById(pathInfo.id)</text><polygon fill="#181818" points="1379.5,849.5859,1389.5,853.5859,1379.5,857.5859,1383.5,853.5859" style="stroke:#181818;stroke-width:1.0;"/><line style="stroke:#181818;stroke-width:1.0;" x1="1243.5" x2="1385.5" y1="853.5859" y2="853.5859"/><text fill="#000000" font-family="sans-serif" font-size="13" font-weight="bold" lengthAdjust="spacing" textLength="14" x="1250.5" y="848.7295">21</text><text fill="#000000" font-family="sans-serif" font-size="13" lengthAdjust="spacing" textLength="111" x="1268.5" y="848.7295">findOne(pathInfo.id)</text><polygon fill="#181818" points="1254.5,879.9375,1244.5,883.9375,1254.5,887.9375,1250.5,883.9375" style="stroke:#181818;stroke-width:1.0;"/><line style="stroke:#181818;stroke-width:1.0;stroke-dasharray:2.0,2.0;" x1="1248.5" x2="1390.5" y1="883.9375" y2="883.9375"/><text fill="#000000" font-family="sans-serif" font-size="13" font-weight="bold" lengthAdjust="spacing" textLength="14" x="1260.5" y="879.0811">22</text><text fill="#000000" font-family="sans-serif" font-size="13" lengthAdjust="spacing" textLength="20" x="1278.5" y="879.0811">null</text><polygon fill="#181818" points="1069.5,910.2891,1059.5,914.2891,1069.5,918.2891,1065.5,914.2891" style="stroke:#181818;stroke-width:1.0;"/><line style="stroke:#181818;stroke-width:1.0;stroke-dasharray:2.0,2.0;" x1="1063.5" x2="1232.5" y1="914.2891" y2="914.2891"/><text fill="#000000" font-family="sans-serif" font-size="13" font-weight="bold" lengthAdjust="spacing" textLength="14" x="1075.5" y="909.4326">23</text><text fill="#000000" font-family="sans-serif" font-size="13" lengthAdjust="spacing" textLength="20" x="1093.5" y="909.4326">null</text><polygon fill="#181818" points="881.5,940.6406,871.5,944.6406,881.5,948.6406,877.5,944.6406" style="stroke:#181818;stroke-width:1.0;"/><line style="stroke:#181818;stroke-width:1.0;" x1="875.5" x2="1047.5" y1="944.6406" y2="944.6406"/><text fill="#000000" font-family="sans-serif" font-size="13" font-weight="bold" lengthAdjust="spacing" textLength="14" x="887.5" y="939.7842">24</text><text fill="#000000" font-family="sans-serif" font-size="13" lengthAdjust="spacing" textLength="136" x="905.5" y="939.7842">error, path doesn't exist</text><polygon fill="#181818" points="619.5,970.9922,609.5,974.9922,619.5,978.9922,615.5,974.9922" style="stroke:#181818;stroke-width:1.0;"/><line style="stroke:#181818;stroke-width:1.0;stroke-dasharray:2.0,2.0;" x1="613.5" x2="859.5" y1="974.9922" y2="974.9922"/><text fill="#000000" font-family="sans-serif" font-size="13" font-weight="bold" lengthAdjust="spacing" textLength="14" x="625.5" y="970.1357">25</text><text fill="#000000" font-family="sans-serif" font-size="13" lengthAdjust="spacing" textLength="210" x="643.5" y="970.1357">404 NOT FOUND, path doesn't exist</text><polygon fill="#181818" points="357.5,1001.3438,347.5,1005.3438,357.5,1009.3438,353.5,1005.3438" style="stroke:#181818;stroke-width:1.0;"/><line style="stroke:#181818;stroke-width:1.0;stroke-dasharray:2.0,2.0;" x1="351.5" x2="597.5" y1="1005.3438" y2="1005.3438"/><text fill="#000000" font-family="sans-serif" font-size="13" font-weight="bold" lengthAdjust="spacing" textLength="14" x="363.5" y="1000.4873">26</text><text fill="#000000" font-family="sans-serif" font-size="13" lengthAdjust="spacing" textLength="210" x="381.5" y="1000.4873">404 NOT FOUND, path doesn't exist</text><polygon fill="#181818" points="81.5,1031.6953,71.5,1035.6953,81.5,1039.6953,77.5,1035.6953" style="stroke:#181818;stroke-width:1.0;"/><line style="stroke:#181818;stroke-width:1.0;stroke-dasharray:2.0,2.0;" x1="75.5" x2="335.5" y1="1035.6953" y2="1035.6953"/><text fill="#000000" font-family="sans-serif" font-size="13" font-weight="bold" lengthAdjust="spacing" textLength="14" x="87.5" y="1030.8389">27</text><text fill="#000000" font-family="sans-serif" font-size="13" lengthAdjust="spacing" textLength="224" x="105.5" y="1030.8389">informs about the failure of the creation</text><!--MD5=[240c99b4d9962836c5cec806b22482dc]
@startuml updatePathSD
autonumber
!pragma teoz true
skinparam sequence {
ParticipantBorderColor black
ParticipantBackgroundColor white
}

actor "Logistics Manager" as manager




box "<<System(C4)>>\n       System" #Gold
participant SPA as  SPA <<Container(C4)>>
box "<<Container(C4)>>\n       Logistics" #LightBlue
participant PathRoute as Route <<Component(C4)>>
participant PathController as Controller <<Component(C4)>>
participant PathService as Service <<Component(C4)>>
participant PathRepository as Repository <<Component(C4)>>
participant Persistence as Persistence <<Component(C4)>>
end box


activate manager
manager -> SPA: I want to update a path
activate SPA



SPA -> manager: asks for path ID and new info
deactivate SPA

manager -> SPA: inserts the information about the path
activate SPA


SPA -> Route: PATCH updatePath(path)
activate Route
Route -> Controller: PATCH updatePath(path)
activate Controller

alt path exists 


Controller -> Service: updatePath(path)
activate Service
Service -> Repository: getPathById(pathInfo.id)
activate Repository
Repository -> Persistence: findOne(pathInfo.id)
activate Persistence
Persistence - -> Repository: path


Repository - -> Service: path

Service -> Repository: update(pathInfo)

Repository -> Persistence: save(pathInfo)

Persistence - -> Repository: true

Repository - -> Service: pathInfo

Service - -> Controller: pathInfo

Controller - -> Route: 200 OK + pathInfo

Route - -> SPA: 200 OK + pathInfo

SPA - -> manager: shows updated information


else path doesn't exist 



Controller -> Service: updatePath(path)

Service -> Repository: getPathById(pathInfo.id)

Repository -> Persistence: findOne(pathInfo.id)

Persistence - -> Repository: null
deactivate Persistence
Repository - -> Service: null
deactivate Repository
Service -> Controller: error, path doesn't exist
deactivate Service
Controller - -> Route: 404 NOT FOUND, path doesn't exist

Route - -> SPA: 404 NOT FOUND, path doesn't exist

SPA - -> manager: informs about the failure of the creation

end




@enduml

PlantUML version 1.2022.7(Mon Aug 22 18:01:30 BST 2022)
(GPL source distribution)
Java Runtime: Java(TM) SE Runtime Environment
JVM: Java HotSpot(TM) Client VM
Default Encoding: Cp1252
Language: pt
Country: PT
--></g></svg>