<?xml version="1.0" encoding="UTF-8" standalone="no"?><svg xmlns="http://www.w3.org/2000/svg" xmlns:xlink="http://www.w3.org/1999/xlink" contentStyleType="text/css" height="1218px" preserveAspectRatio="none" style="width:1941px;height:1218px;background:#FFFFFF;" version="1.1" viewBox="0 0 1941 1218" width="1941px" zoomAndPan="magnify"><defs/><g><rect fill="#FFFFE0" height="1206.8672" style="stroke:#181818;stroke-width:0.5;" width="128" x="339.5" y="6"/><text fill="#000000" font-family="sans-serif" font-size="13" font-weight="bold" lengthAdjust="spacing" textLength="102" x="352.5" y="17.7686">&lt;&lt;System(C4)&gt;&gt;</text><text fill="#000000" font-family="sans-serif" font-size="13" font-weight="bold" lengthAdjust="spacing" textLength="58" x="380.5" y="32.292">EletricGo</text><rect fill="#90EE90" height="1206.8672" style="stroke:#181818;stroke-width:0.5;" width="1321.5" x="607" y="6"/><text fill="#000000" font-family="sans-serif" font-size="13" font-weight="bold" lengthAdjust="spacing" textLength="118" x="1180.25" y="17.7686">&lt;&lt;Container(C4)&gt;&gt;</text><text fill="#000000" font-family="sans-serif" font-size="13" font-weight="bold" lengthAdjust="spacing" textLength="159" x="1196.25" y="32.292">Warehouse Management</text><rect fill="#FFFFFF" height="28.5234" style="stroke:#181818;stroke-width:1.0;" width="10" x="398.5" y="115.8516"/><rect fill="#FFFFFF" height="394.3281" style="stroke:#181818;stroke-width:1.0;" width="10" x="398.5" y="172.8984"/><rect fill="#FFFFFF" height="28.5234" style="stroke:#181818;stroke-width:1.0;" width="10" x="398.5" y="838.2266"/><rect fill="#FFFFFF" height="28.5234" style="stroke:#181818;stroke-width:1.0;" width="10" x="398.5" y="1080.7031"/><rect fill="#FFFFFF" height="337.2813" style="stroke:#181818;stroke-width:1.0;" width="10" x="671.5" y="201.4219"/><rect fill="#FFFFFF" height="228.1875" style="stroke:#181818;stroke-width:1.0;" width="10" x="671.5" y="610.0391"/><rect fill="#FFFFFF" height="171.1406" style="stroke:#181818;stroke-width:1.0;" width="10" x="671.5" y="909.5625"/><rect fill="#FFFFFF" height="256.7109" style="stroke:#181818;stroke-width:1.0;" width="10" x="946.5" y="253.4688"/><rect fill="#FFFFFF" height="199.6641" style="stroke:#181818;stroke-width:1.0;" width="10" x="946.5" y="610.0391"/><rect fill="#FFFFFF" height="142.6172" style="stroke:#181818;stroke-width:1.0;" width="10" x="946.5" y="909.5625"/><rect fill="#FFFFFF" height="199.6641" style="stroke:#181818;stroke-width:1.0;" width="10" x="1193.5" y="281.9922"/><rect fill="#FFFFFF" height="142.6172" style="stroke:#181818;stroke-width:1.0;" width="10" x="1193.5" y="638.5625"/><rect fill="#FFFFFF" height="85.5703" style="stroke:#181818;stroke-width:1.0;" width="10" x="1193.5" y="938.0859"/><rect fill="#FFFFFF" height="28.5234" style="stroke:#181818;stroke-width:1.0;" width="10" x="1440.5" y="310.5156"/><rect fill="#FFFFFF" height="28.5234" style="stroke:#181818;stroke-width:1.0;" width="10" x="1440.5" y="424.6094"/><rect fill="#FFFFFF" height="28.5234" style="stroke:#181818;stroke-width:1.0;" width="10" x="1440.5" y="667.0859"/><rect fill="#FFFFFF" height="28.5234" style="stroke:#181818;stroke-width:1.0;" width="10" x="1440.5" y="966.6094"/><rect fill="#FFFFFF" height="28.5234" style="stroke:#181818;stroke-width:1.0;" width="10" x="1842" y="367.5625"/><rect fill="#FFFFFF" height="28.5234" style="stroke:#181818;stroke-width:1.0;" width="10" x="1842" y="724.1328"/><rect fill="none" height="900.8047" style="stroke:#000000;stroke-width:1.5;" width="1924.5" x="10" y="216.4219"/><line style="stroke:#181818;stroke-width:0.5;stroke-dasharray:5.0,5.0;" x1="89" x2="89" y1="85.3281" y2="1134.2266"/><line style="stroke:#181818;stroke-width:0.5;stroke-dasharray:5.0,5.0;" x1="403.5" x2="403.5" y1="85.3281" y2="1134.2266"/><line style="stroke:#181818;stroke-width:0.5;stroke-dasharray:5.0,5.0;" x1="676" x2="676" y1="85.3281" y2="1134.2266"/><line style="stroke:#181818;stroke-width:0.5;stroke-dasharray:5.0,5.0;" x1="951" x2="951" y1="85.3281" y2="1134.2266"/><line style="stroke:#181818;stroke-width:0.5;stroke-dasharray:5.0,5.0;" x1="1198.5" x2="1198.5" y1="85.3281" y2="1134.2266"/><line style="stroke:#181818;stroke-width:0.5;stroke-dasharray:5.0,5.0;" x1="1445.5" x2="1445.5" y1="85.3281" y2="1134.2266"/><line style="stroke:#181818;stroke-width:0.5;stroke-dasharray:5.0,5.0;" x1="1649.5" x2="1649.5" y1="85.3281" y2="1134.2266"/><line style="stroke:#181818;stroke-width:0.5;stroke-dasharray:5.0,5.0;" x1="1846.5" x2="1846.5" y1="85.3281" y2="1134.2266"/><text fill="#000000" font-family="sans-serif" font-size="14" lengthAdjust="spacing" textLength="133" x="20" y="82.3613">Warehouse Manager</text><ellipse cx="89.5" cy="18.1875" fill="#E2E2F0" rx="8" ry="8" style="stroke:#181818;stroke-width:0.5;"/><path d="M89.5,26.1875 L89.5,53.1875 M76.5,34.1875 L102.5,34.1875 M89.5,53.1875 L76.5,68.1875 M89.5,53.1875 L102.5,68.1875 " fill="none" style="stroke:#181818;stroke-width:0.5;"/><text fill="#000000" font-family="sans-serif" font-size="14" lengthAdjust="spacing" textLength="133" x="20" y="1145.9004">Warehouse Manager</text><ellipse cx="89.5" cy="1157.3672" fill="#E2E2F0" rx="8" ry="8" style="stroke:#181818;stroke-width:0.5;"/><path d="M89.5,1165.3672 L89.5,1192.3672 M76.5,1173.3672 L102.5,1173.3672 M89.5,1192.3672 L76.5,1207.3672 M89.5,1192.3672 L102.5,1207.3672 " fill="none" style="stroke:#181818;stroke-width:0.5;"/><rect fill="#FFFFFF" height="45.2813" rx="2.5" ry="2.5" style="stroke:#000000;stroke-width:0.5;" width="120" x="343.5" y="39.0469"/><text fill="#000000" font-family="sans-serif" font-size="14" font-style="italic" lengthAdjust="spacing" textLength="106" x="350.5" y="58.7207">«Container(C4)»</text><text fill="#000000" font-family="sans-serif" font-size="14" lengthAdjust="spacing" textLength="27" x="390" y="74.3613">SPA</text><rect fill="#FFFFFF" height="45.2813" rx="2.5" ry="2.5" style="stroke:#000000;stroke-width:0.5;" width="120" x="343.5" y="1133.2266"/><text fill="#000000" font-family="sans-serif" font-size="14" font-style="italic" lengthAdjust="spacing" textLength="106" x="350.5" y="1152.9004">«Container(C4)»</text><text fill="#000000" font-family="sans-serif" font-size="14" lengthAdjust="spacing" textLength="27" x="390" y="1168.541">SPA</text><rect fill="#FFFFFF" height="45.2813" rx="2.5" ry="2.5" style="stroke:#000000;stroke-width:0.5;" width="131" x="611" y="39.0469"/><text fill="#000000" font-family="sans-serif" font-size="14" font-style="italic" lengthAdjust="spacing" textLength="117" x="618" y="58.7207">«Component(C4)»</text><text fill="#000000" font-family="sans-serif" font-size="14" lengthAdjust="spacing" textLength="111" x="621" y="74.3613">WarehouseRoute</text><rect fill="#FFFFFF" height="45.2813" rx="2.5" ry="2.5" style="stroke:#000000;stroke-width:0.5;" width="131" x="611" y="1133.2266"/><text fill="#000000" font-family="sans-serif" font-size="14" font-style="italic" lengthAdjust="spacing" textLength="117" x="618" y="1152.9004">«Component(C4)»</text><text fill="#000000" font-family="sans-serif" font-size="14" lengthAdjust="spacing" textLength="111" x="621" y="1168.541">WarehouseRoute</text><rect fill="#FFFFFF" height="45.2813" rx="2.5" ry="2.5" style="stroke:#000000;stroke-width:0.5;" width="149" x="877" y="39.0469"/><text fill="#000000" font-family="sans-serif" font-size="14" font-style="italic" lengthAdjust="spacing" textLength="117" x="893" y="58.7207">«Component(C4)»</text><text fill="#000000" font-family="sans-serif" font-size="14" lengthAdjust="spacing" textLength="135" x="884" y="74.3613">WarehouseController</text><rect fill="#FFFFFF" height="45.2813" rx="2.5" ry="2.5" style="stroke:#000000;stroke-width:0.5;" width="149" x="877" y="1133.2266"/><text fill="#000000" font-family="sans-serif" font-size="14" font-style="italic" lengthAdjust="spacing" textLength="117" x="893" y="1152.9004">«Component(C4)»</text><text fill="#000000" font-family="sans-serif" font-size="14" lengthAdjust="spacing" textLength="135" x="884" y="1168.541">WarehouseController</text><rect fill="#FFFFFF" height="45.2813" rx="2.5" ry="2.5" style="stroke:#000000;stroke-width:0.5;" width="134" x="1131.5" y="39.0469"/><text fill="#000000" font-family="sans-serif" font-size="14" font-style="italic" lengthAdjust="spacing" textLength="117" x="1140" y="58.7207">«Component(C4)»</text><text fill="#000000" font-family="sans-serif" font-size="14" lengthAdjust="spacing" textLength="120" x="1138.5" y="74.3613">WarehouseService</text><rect fill="#FFFFFF" height="45.2813" rx="2.5" ry="2.5" style="stroke:#000000;stroke-width:0.5;" width="134" x="1131.5" y="1133.2266"/><text fill="#000000" font-family="sans-serif" font-size="14" font-style="italic" lengthAdjust="spacing" textLength="117" x="1140" y="1152.9004">«Component(C4)»</text><text fill="#000000" font-family="sans-serif" font-size="14" lengthAdjust="spacing" textLength="120" x="1138.5" y="1168.541">WarehouseService</text><rect fill="#FFFFFF" height="45.2813" rx="2.5" ry="2.5" style="stroke:#000000;stroke-width:0.5;" width="168" x="1361.5" y="39.0469"/><text fill="#000000" font-family="sans-serif" font-size="14" font-style="italic" lengthAdjust="spacing" textLength="117" x="1387" y="58.7207">«Component(C4)»</text><text fill="#000000" font-family="sans-serif" font-size="14" lengthAdjust="spacing" textLength="154" x="1368.5" y="74.3613">warehouse : Warehouse</text><rect fill="#FFFFFF" height="45.2813" rx="2.5" ry="2.5" style="stroke:#000000;stroke-width:0.5;" width="168" x="1361.5" y="1133.2266"/><text fill="#000000" font-family="sans-serif" font-size="14" font-style="italic" lengthAdjust="spacing" textLength="117" x="1387" y="1152.9004">«Component(C4)»</text><text fill="#000000" font-family="sans-serif" font-size="14" lengthAdjust="spacing" textLength="154" x="1368.5" y="1168.541">warehouse : Warehouse</text><rect fill="#FFFFFF" height="45.2813" rx="2.5" ry="2.5" style="stroke:#000000;stroke-width:0.5;" width="220" x="1539.5" y="39.0469"/><text fill="#000000" font-family="sans-serif" font-size="14" font-style="italic" lengthAdjust="spacing" textLength="117" x="1591" y="58.7207">«Component(C4)»</text><text fill="#000000" font-family="sans-serif" font-size="14" lengthAdjust="spacing" textLength="206" x="1546.5" y="74.3613">warehouseDto : WarehouseDTO</text><rect fill="#FFFFFF" height="45.2813" rx="2.5" ry="2.5" style="stroke:#000000;stroke-width:0.5;" width="220" x="1539.5" y="1133.2266"/><text fill="#000000" font-family="sans-serif" font-size="14" font-style="italic" lengthAdjust="spacing" textLength="117" x="1591" y="1152.9004">«Component(C4)»</text><text fill="#000000" font-family="sans-serif" font-size="14" lengthAdjust="spacing" textLength="206" x="1546.5" y="1168.541">warehouseDto : WarehouseDTO</text><rect fill="#FFFFFF" height="45.2813" rx="2.5" ry="2.5" style="stroke:#000000;stroke-width:0.5;" width="155" x="1769.5" y="39.0469"/><text fill="#000000" font-family="sans-serif" font-size="14" font-style="italic" lengthAdjust="spacing" textLength="117" x="1788.5" y="58.7207">«Component(C4)»</text><text fill="#000000" font-family="sans-serif" font-size="14" lengthAdjust="spacing" textLength="141" x="1776.5" y="74.3613">WarehouseRepository</text><rect fill="#FFFFFF" height="45.2813" rx="2.5" ry="2.5" style="stroke:#000000;stroke-width:0.5;" width="155" x="1769.5" y="1133.2266"/><text fill="#000000" font-family="sans-serif" font-size="14" font-style="italic" lengthAdjust="spacing" textLength="117" x="1788.5" y="1152.9004">«Component(C4)»</text><text fill="#000000" font-family="sans-serif" font-size="14" lengthAdjust="spacing" textLength="141" x="1776.5" y="1168.541">WarehouseRepository</text><rect fill="#FFFFFF" height="28.5234" style="stroke:#181818;stroke-width:1.0;" width="10" x="398.5" y="115.8516"/><rect fill="#FFFFFF" height="394.3281" style="stroke:#181818;stroke-width:1.0;" width="10" x="398.5" y="172.8984"/><rect fill="#FFFFFF" height="28.5234" style="stroke:#181818;stroke-width:1.0;" width="10" x="398.5" y="838.2266"/><rect fill="#FFFFFF" height="28.5234" style="stroke:#181818;stroke-width:1.0;" width="10" x="398.5" y="1080.7031"/><rect fill="#FFFFFF" height="337.2813" style="stroke:#181818;stroke-width:1.0;" width="10" x="671.5" y="201.4219"/><rect fill="#FFFFFF" height="228.1875" style="stroke:#181818;stroke-width:1.0;" width="10" x="671.5" y="610.0391"/><rect fill="#FFFFFF" height="171.1406" style="stroke:#181818;stroke-width:1.0;" width="10" x="671.5" y="909.5625"/><rect fill="#FFFFFF" height="256.7109" style="stroke:#181818;stroke-width:1.0;" width="10" x="946.5" y="253.4688"/><rect fill="#FFFFFF" height="199.6641" style="stroke:#181818;stroke-width:1.0;" width="10" x="946.5" y="610.0391"/><rect fill="#FFFFFF" height="142.6172" style="stroke:#181818;stroke-width:1.0;" width="10" x="946.5" y="909.5625"/><rect fill="#FFFFFF" height="199.6641" style="stroke:#181818;stroke-width:1.0;" width="10" x="1193.5" y="281.9922"/><rect fill="#FFFFFF" height="142.6172" style="stroke:#181818;stroke-width:1.0;" width="10" x="1193.5" y="638.5625"/><rect fill="#FFFFFF" height="85.5703" style="stroke:#181818;stroke-width:1.0;" width="10" x="1193.5" y="938.0859"/><rect fill="#FFFFFF" height="28.5234" style="stroke:#181818;stroke-width:1.0;" width="10" x="1440.5" y="310.5156"/><rect fill="#FFFFFF" height="28.5234" style="stroke:#181818;stroke-width:1.0;" width="10" x="1440.5" y="424.6094"/><rect fill="#FFFFFF" height="28.5234" style="stroke:#181818;stroke-width:1.0;" width="10" x="1440.5" y="667.0859"/><rect fill="#FFFFFF" height="28.5234" style="stroke:#181818;stroke-width:1.0;" width="10" x="1440.5" y="966.6094"/><rect fill="#FFFFFF" height="28.5234" style="stroke:#181818;stroke-width:1.0;" width="10" x="1842" y="367.5625"/><rect fill="#FFFFFF" height="28.5234" style="stroke:#181818;stroke-width:1.0;" width="10" x="1842" y="724.1328"/><polygon fill="#181818" points="386.5,111.8516,396.5,115.8516,386.5,119.8516,390.5,115.8516" style="stroke:#181818;stroke-width:1.0;"/><line style="stroke:#181818;stroke-width:1.0;" x1="89.5" x2="392.5" y1="115.8516" y2="115.8516"/><text fill="#000000" font-family="sans-serif" font-size="13" font-weight="bold" lengthAdjust="spacing" textLength="7" x="96.5" y="111.0967">1</text><text fill="#000000" font-family="sans-serif" font-size="13" lengthAdjust="spacing" textLength="193" x="107.5" y="111.0967">I want to create a new warehouse</text><polygon fill="#181818" points="100.5,140.375,90.5,144.375,100.5,148.375,96.5,144.375" style="stroke:#181818;stroke-width:1.0;"/><line style="stroke:#181818;stroke-width:1.0;" x1="94.5" x2="402.5" y1="144.375" y2="144.375"/><text fill="#000000" font-family="sans-serif" font-size="13" font-weight="bold" lengthAdjust="spacing" textLength="7" x="106.5" y="139.6201">2</text><text fill="#000000" font-family="sans-serif" font-size="13" lengthAdjust="spacing" textLength="243" x="117.5" y="139.6201">asks for the details on the new warehouse</text><polygon fill="#181818" points="386.5,168.8984,396.5,172.8984,386.5,176.8984,390.5,172.8984" style="stroke:#181818;stroke-width:1.0;"/><line style="stroke:#181818;stroke-width:1.0;" x1="89.5" x2="392.5" y1="172.8984" y2="172.8984"/><text fill="#000000" font-family="sans-serif" font-size="13" font-weight="bold" lengthAdjust="spacing" textLength="7" x="96.5" y="168.1436">3</text><text fill="#000000" font-family="sans-serif" font-size="13" lengthAdjust="spacing" textLength="279" x="107.5" y="168.1436">inserts the information about the new warehouse</text><polygon fill="#181818" points="659.5,197.4219,669.5,201.4219,659.5,205.4219,663.5,201.4219" style="stroke:#181818;stroke-width:1.0;"/><line style="stroke:#181818;stroke-width:1.0;" x1="408.5" x2="665.5" y1="201.4219" y2="201.4219"/><text fill="#000000" font-family="sans-serif" font-size="13" font-weight="bold" lengthAdjust="spacing" textLength="7" x="415.5" y="196.667">4</text><text fill="#000000" font-family="sans-serif" font-size="13" lengthAdjust="spacing" textLength="233" x="426.5" y="196.667">POST CreateWarehouse(warehouseDto)</text><path d="M10,216.4219 L71,216.4219 L71,222.9453 L61,232.9453 L10,232.9453 L10,216.4219 " fill="#EEEEEE" style="stroke:#000000;stroke-width:1.5;"/><rect fill="none" height="900.8047" style="stroke:#000000;stroke-width:1.5;" width="1924.5" x="10" y="216.4219"/><text fill="#000000" font-family="sans-serif" font-size="13" font-weight="bold" lengthAdjust="spacing" textLength="16" x="25" y="229.1904">alt</text><text fill="#000000" font-family="sans-serif" font-size="11" font-weight="bold" lengthAdjust="spacing" textLength="222" x="86" y="228.3799">[If warehouse don´t exist in the system]</text><polygon fill="#181818" points="934.5,249.4688,944.5,253.4688,934.5,257.4688,938.5,253.4688" style="stroke:#181818;stroke-width:1.0;"/><line style="stroke:#181818;stroke-width:1.0;" x1="681.5" x2="940.5" y1="253.4688" y2="253.4688"/><text fill="#000000" font-family="sans-serif" font-size="13" font-weight="bold" lengthAdjust="spacing" textLength="7" x="688.5" y="248.7139">5</text><text fill="#000000" font-family="sans-serif" font-size="13" lengthAdjust="spacing" textLength="233" x="699.5" y="248.7139">POST CreateWarehouse(warehouseDto)</text><polygon fill="#181818" points="1181.5,277.9922,1191.5,281.9922,1181.5,285.9922,1185.5,281.9922" style="stroke:#181818;stroke-width:1.0;"/><line style="stroke:#181818;stroke-width:1.0;" x1="956.5" x2="1187.5" y1="281.9922" y2="281.9922"/><text fill="#000000" font-family="sans-serif" font-size="13" font-weight="bold" lengthAdjust="spacing" textLength="7" x="963.5" y="277.2373">6</text><text fill="#000000" font-family="sans-serif" font-size="13" lengthAdjust="spacing" textLength="194" x="974.5" y="277.2373">CreateWarehouse(warehouseDto)</text><polygon fill="#181818" points="1428.5,306.5156,1438.5,310.5156,1428.5,314.5156,1432.5,310.5156" style="stroke:#181818;stroke-width:1.0;"/><line style="stroke:#181818;stroke-width:1.0;" x1="1203.5" x2="1434.5" y1="310.5156" y2="310.5156"/><text fill="#000000" font-family="sans-serif" font-size="13" font-weight="bold" lengthAdjust="spacing" textLength="7" x="1210.5" y="305.7607">7</text><text fill="#000000" font-family="sans-serif" font-size="13" lengthAdjust="spacing" textLength="128" x="1221.5" y="305.7607">Create(warehouseDto)</text><polygon fill="#181818" points="1214.5,335.0391,1204.5,339.0391,1214.5,343.0391,1210.5,339.0391" style="stroke:#181818;stroke-width:1.0;"/><line style="stroke:#181818;stroke-width:1.0;stroke-dasharray:2.0,2.0;" x1="1208.5" x2="1444.5" y1="339.0391" y2="339.0391"/><text fill="#000000" font-family="sans-serif" font-size="13" font-weight="bold" lengthAdjust="spacing" textLength="7" x="1220.5" y="334.2842">8</text><text fill="#000000" font-family="sans-serif" font-size="13" lengthAdjust="spacing" textLength="62" x="1231.5" y="334.2842">warehouse</text><polygon fill="#181818" points="1830,363.5625,1840,367.5625,1830,371.5625,1834,367.5625" style="stroke:#181818;stroke-width:1.0;"/><line style="stroke:#181818;stroke-width:1.0;" x1="1203.5" x2="1836" y1="367.5625" y2="367.5625"/><text fill="#000000" font-family="sans-serif" font-size="13" font-weight="bold" lengthAdjust="spacing" textLength="7" x="1210.5" y="362.8076">9</text><text fill="#000000" font-family="sans-serif" font-size="13" lengthAdjust="spacing" textLength="96" x="1221.5" y="362.8076">save(warehouse)</text><polygon fill="#181818" points="1214.5,392.0859,1204.5,396.0859,1214.5,400.0859,1210.5,396.0859" style="stroke:#181818;stroke-width:1.0;"/><line style="stroke:#181818;stroke-width:1.0;stroke-dasharray:2.0,2.0;" x1="1208.5" x2="1846" y1="396.0859" y2="396.0859"/><text fill="#000000" font-family="sans-serif" font-size="13" font-weight="bold" lengthAdjust="spacing" textLength="14" x="1220.5" y="391.3311">10</text><text fill="#000000" font-family="sans-serif" font-size="13" lengthAdjust="spacing" textLength="22" x="1238.5" y="391.3311">true</text><polygon fill="#181818" points="1428.5,420.6094,1438.5,424.6094,1428.5,428.6094,1432.5,424.6094" style="stroke:#181818;stroke-width:1.0;"/><line style="stroke:#181818;stroke-width:1.0;" x1="1203.5" x2="1434.5" y1="424.6094" y2="424.6094"/><text fill="#000000" font-family="sans-serif" font-size="13" font-weight="bold" lengthAdjust="spacing" textLength="14" x="1210.5" y="419.8545">11</text><text fill="#000000" font-family="sans-serif" font-size="13" lengthAdjust="spacing" textLength="111" x="1228.5" y="419.8545">toWarehouseDTO()</text><polygon fill="#181818" points="1214.5,449.1328,1204.5,453.1328,1214.5,457.1328,1210.5,453.1328" style="stroke:#181818;stroke-width:1.0;"/><line style="stroke:#181818;stroke-width:1.0;stroke-dasharray:2.0,2.0;" x1="1208.5" x2="1444.5" y1="453.1328" y2="453.1328"/><text fill="#000000" font-family="sans-serif" font-size="13" font-weight="bold" lengthAdjust="spacing" textLength="14" x="1220.5" y="448.3779">12</text><text fill="#000000" font-family="sans-serif" font-size="13" lengthAdjust="spacing" textLength="82" x="1238.5" y="448.3779">warehouseDto</text><polygon fill="#181818" points="967.5,477.6563,957.5,481.6563,967.5,485.6563,963.5,481.6563" style="stroke:#181818;stroke-width:1.0;"/><line style="stroke:#181818;stroke-width:1.0;stroke-dasharray:2.0,2.0;" x1="961.5" x2="1197.5" y1="481.6563" y2="481.6563"/><text fill="#000000" font-family="sans-serif" font-size="13" font-weight="bold" lengthAdjust="spacing" textLength="14" x="973.5" y="476.9014">13</text><text fill="#000000" font-family="sans-serif" font-size="13" lengthAdjust="spacing" textLength="82" x="991.5" y="476.9014">warehouseDto</text><polygon fill="#181818" points="692.5,506.1797,682.5,510.1797,692.5,514.1797,688.5,510.1797" style="stroke:#181818;stroke-width:1.0;"/><line style="stroke:#181818;stroke-width:1.0;stroke-dasharray:2.0,2.0;" x1="686.5" x2="950.5" y1="510.1797" y2="510.1797"/><text fill="#000000" font-family="sans-serif" font-size="13" font-weight="bold" lengthAdjust="spacing" textLength="14" x="698.5" y="505.4248">14</text><text fill="#000000" font-family="sans-serif" font-size="13" lengthAdjust="spacing" textLength="82" x="716.5" y="505.4248">warehouseDto</text><polygon fill="#181818" points="419.5,534.7031,409.5,538.7031,419.5,542.7031,415.5,538.7031" style="stroke:#181818;stroke-width:1.0;"/><line style="stroke:#181818;stroke-width:1.0;stroke-dasharray:2.0,2.0;" x1="413.5" x2="675.5" y1="538.7031" y2="538.7031"/><text fill="#000000" font-family="sans-serif" font-size="13" font-weight="bold" lengthAdjust="spacing" textLength="14" x="425.5" y="533.9482">15</text><text fill="#000000" font-family="sans-serif" font-size="13" lengthAdjust="spacing" textLength="44" x="443.5" y="533.9482">200 OK</text><polygon fill="#181818" points="100.5,563.2266,90.5,567.2266,100.5,571.2266,96.5,567.2266" style="stroke:#181818;stroke-width:1.0;"/><line style="stroke:#181818;stroke-width:1.0;" x1="94.5" x2="402.5" y1="567.2266" y2="567.2266"/><text fill="#000000" font-family="sans-serif" font-size="13" font-weight="bold" lengthAdjust="spacing" textLength="14" x="106.5" y="562.4717">16</text><text fill="#000000" font-family="sans-serif" font-size="13" lengthAdjust="spacing" textLength="246" x="124.5" y="562.4717">informs about the success of the operation</text><line style="stroke:#000000;stroke-width:1.0;stroke-dasharray:2.0,2.0;" x1="10" x2="1934.5" y1="576.2266" y2="576.2266"/><text fill="#000000" font-family="sans-serif" font-size="11" font-weight="bold" lengthAdjust="spacing" textLength="278" x="15" y="586.1846">[If a warehouse already exists with the id entered]</text><polygon fill="#181818" points="934.5,606.0391,944.5,610.0391,934.5,614.0391,938.5,610.0391" style="stroke:#181818;stroke-width:1.0;"/><line style="stroke:#181818;stroke-width:1.0;" x1="681.5" x2="940.5" y1="610.0391" y2="610.0391"/><text fill="#000000" font-family="sans-serif" font-size="13" font-weight="bold" lengthAdjust="spacing" textLength="14" x="688.5" y="605.2842">17</text><text fill="#000000" font-family="sans-serif" font-size="13" lengthAdjust="spacing" textLength="233" x="706.5" y="605.2842">POST CreateWarehouse(warehouseDto)</text><polygon fill="#181818" points="1181.5,634.5625,1191.5,638.5625,1181.5,642.5625,1185.5,638.5625" style="stroke:#181818;stroke-width:1.0;"/><line style="stroke:#181818;stroke-width:1.0;" x1="956.5" x2="1187.5" y1="638.5625" y2="638.5625"/><text fill="#000000" font-family="sans-serif" font-size="13" font-weight="bold" lengthAdjust="spacing" textLength="14" x="963.5" y="633.8076">18</text><text fill="#000000" font-family="sans-serif" font-size="13" lengthAdjust="spacing" textLength="194" x="981.5" y="633.8076">CreateWarehouse(warehouseDto)</text><polygon fill="#181818" points="1428.5,663.0859,1438.5,667.0859,1428.5,671.0859,1432.5,667.0859" style="stroke:#181818;stroke-width:1.0;"/><line style="stroke:#181818;stroke-width:1.0;" x1="1203.5" x2="1434.5" y1="667.0859" y2="667.0859"/><text fill="#000000" font-family="sans-serif" font-size="13" font-weight="bold" lengthAdjust="spacing" textLength="14" x="1210.5" y="662.3311">19</text><text fill="#000000" font-family="sans-serif" font-size="13" lengthAdjust="spacing" textLength="128" x="1228.5" y="662.3311">Create(warehouseDto)</text><polygon fill="#181818" points="1214.5,691.6094,1204.5,695.6094,1214.5,699.6094,1210.5,695.6094" style="stroke:#181818;stroke-width:1.0;"/><line style="stroke:#181818;stroke-width:1.0;stroke-dasharray:2.0,2.0;" x1="1208.5" x2="1444.5" y1="695.6094" y2="695.6094"/><text fill="#000000" font-family="sans-serif" font-size="13" font-weight="bold" lengthAdjust="spacing" textLength="14" x="1220.5" y="690.8545">20</text><text fill="#000000" font-family="sans-serif" font-size="13" lengthAdjust="spacing" textLength="62" x="1238.5" y="690.8545">warehouse</text><polygon fill="#181818" points="1830,720.1328,1840,724.1328,1830,728.1328,1834,724.1328" style="stroke:#181818;stroke-width:1.0;"/><line style="stroke:#181818;stroke-width:1.0;" x1="1203.5" x2="1836" y1="724.1328" y2="724.1328"/><text fill="#000000" font-family="sans-serif" font-size="13" font-weight="bold" lengthAdjust="spacing" textLength="14" x="1210.5" y="719.3779">21</text><text fill="#000000" font-family="sans-serif" font-size="13" lengthAdjust="spacing" textLength="96" x="1228.5" y="719.3779">save(warehouse)</text><polygon fill="#181818" points="1214.5,748.6563,1204.5,752.6563,1214.5,756.6563,1210.5,752.6563" style="stroke:#181818;stroke-width:1.0;"/><line style="stroke:#181818;stroke-width:1.0;stroke-dasharray:2.0,2.0;" x1="1208.5" x2="1846" y1="752.6563" y2="752.6563"/><text fill="#000000" font-family="sans-serif" font-size="13" font-weight="bold" lengthAdjust="spacing" textLength="14" x="1220.5" y="747.9014">22</text><text fill="#000000" font-family="sans-serif" font-size="13" lengthAdjust="spacing" textLength="27" x="1238.5" y="747.9014">false</text><polygon fill="#181818" points="967.5,777.1797,957.5,781.1797,967.5,785.1797,963.5,781.1797" style="stroke:#181818;stroke-width:1.0;"/><line style="stroke:#181818;stroke-width:1.0;stroke-dasharray:2.0,2.0;" x1="961.5" x2="1197.5" y1="781.1797" y2="781.1797"/><text fill="#000000" font-family="sans-serif" font-size="13" font-weight="bold" lengthAdjust="spacing" textLength="14" x="973.5" y="776.4248">23</text><text fill="#000000" font-family="sans-serif" font-size="13" lengthAdjust="spacing" textLength="149" x="991.5" y="776.4248">InvalidOperationException</text><polygon fill="#181818" points="692.5,805.7031,682.5,809.7031,692.5,813.7031,688.5,809.7031" style="stroke:#181818;stroke-width:1.0;"/><line style="stroke:#181818;stroke-width:1.0;stroke-dasharray:2.0,2.0;" x1="686.5" x2="950.5" y1="809.7031" y2="809.7031"/><text fill="#000000" font-family="sans-serif" font-size="13" font-weight="bold" lengthAdjust="spacing" textLength="14" x="698.5" y="804.9482">24</text><text fill="#000000" font-family="sans-serif" font-size="13" lengthAdjust="spacing" textLength="149" x="716.5" y="804.9482">InvalidOperationException</text><polygon fill="#181818" points="419.5,834.2266,409.5,838.2266,419.5,842.2266,415.5,838.2266" style="stroke:#181818;stroke-width:1.0;"/><line style="stroke:#181818;stroke-width:1.0;stroke-dasharray:2.0,2.0;" x1="413.5" x2="675.5" y1="838.2266" y2="838.2266"/><text fill="#000000" font-family="sans-serif" font-size="13" font-weight="bold" lengthAdjust="spacing" textLength="14" x="425.5" y="833.4717">25</text><text fill="#000000" font-family="sans-serif" font-size="13" lengthAdjust="spacing" textLength="87" x="443.5" y="833.4717">409 CONFLICT</text><polygon fill="#181818" points="100.5,862.75,90.5,866.75,100.5,870.75,96.5,866.75" style="stroke:#181818;stroke-width:1.0;"/><line style="stroke:#181818;stroke-width:1.0;" x1="94.5" x2="402.5" y1="866.75" y2="866.75"/><text fill="#000000" font-family="sans-serif" font-size="13" font-weight="bold" lengthAdjust="spacing" textLength="14" x="106.5" y="861.9951">26</text><text fill="#000000" font-family="sans-serif" font-size="13" lengthAdjust="spacing" textLength="213" x="124.5" y="861.9951">informs about the fail of the operation</text><line style="stroke:#000000;stroke-width:1.0;stroke-dasharray:2.0,2.0;" x1="10" x2="1934.5" y1="875.75" y2="875.75"/><text fill="#000000" font-family="sans-serif" font-size="11" font-weight="bold" lengthAdjust="spacing" textLength="285" x="15" y="885.708">[If the attributes do not respect the business rules]</text><polygon fill="#181818" points="934.5,905.5625,944.5,909.5625,934.5,913.5625,938.5,909.5625" style="stroke:#181818;stroke-width:1.0;"/><line style="stroke:#181818;stroke-width:1.0;" x1="681.5" x2="940.5" y1="909.5625" y2="909.5625"/><text fill="#000000" font-family="sans-serif" font-size="13" font-weight="bold" lengthAdjust="spacing" textLength="14" x="688.5" y="904.8076">27</text><text fill="#000000" font-family="sans-serif" font-size="13" lengthAdjust="spacing" textLength="233" x="706.5" y="904.8076">POST CreateWarehouse(warehouseDto)</text><polygon fill="#181818" points="1181.5,934.0859,1191.5,938.0859,1181.5,942.0859,1185.5,938.0859" style="stroke:#181818;stroke-width:1.0;"/><line style="stroke:#181818;stroke-width:1.0;" x1="956.5" x2="1187.5" y1="938.0859" y2="938.0859"/><text fill="#000000" font-family="sans-serif" font-size="13" font-weight="bold" lengthAdjust="spacing" textLength="14" x="963.5" y="933.3311">28</text><text fill="#000000" font-family="sans-serif" font-size="13" lengthAdjust="spacing" textLength="194" x="981.5" y="933.3311">CreateWarehouse(warehouseDto)</text><polygon fill="#181818" points="1428.5,962.6094,1438.5,966.6094,1428.5,970.6094,1432.5,966.6094" style="stroke:#181818;stroke-width:1.0;"/><line style="stroke:#181818;stroke-width:1.0;" x1="1203.5" x2="1434.5" y1="966.6094" y2="966.6094"/><text fill="#000000" font-family="sans-serif" font-size="13" font-weight="bold" lengthAdjust="spacing" textLength="14" x="1210.5" y="961.8545">29</text><text fill="#000000" font-family="sans-serif" font-size="13" lengthAdjust="spacing" textLength="128" x="1228.5" y="961.8545">Create(warehouseDto)</text><polygon fill="#181818" points="1214.5,991.1328,1204.5,995.1328,1214.5,999.1328,1210.5,995.1328" style="stroke:#181818;stroke-width:1.0;"/><line style="stroke:#181818;stroke-width:1.0;stroke-dasharray:2.0,2.0;" x1="1208.5" x2="1444.5" y1="995.1328" y2="995.1328"/><text fill="#000000" font-family="sans-serif" font-size="13" font-weight="bold" lengthAdjust="spacing" textLength="14" x="1220.5" y="990.3779">30</text><text fill="#000000" font-family="sans-serif" font-size="13" lengthAdjust="spacing" textLength="195" x="1238.5" y="990.3779">BusinessRuleValidationException</text><polygon fill="#181818" points="967.5,1019.6563,957.5,1023.6563,967.5,1027.6563,963.5,1023.6563" style="stroke:#181818;stroke-width:1.0;"/><line style="stroke:#181818;stroke-width:1.0;stroke-dasharray:2.0,2.0;" x1="961.5" x2="1197.5" y1="1023.6563" y2="1023.6563"/><text fill="#000000" font-family="sans-serif" font-size="13" font-weight="bold" lengthAdjust="spacing" textLength="14" x="973.5" y="1018.9014">31</text><text fill="#000000" font-family="sans-serif" font-size="13" lengthAdjust="spacing" textLength="195" x="991.5" y="1018.9014">BusinessRuleValidationException</text><polygon fill="#181818" points="692.5,1048.1797,682.5,1052.1797,692.5,1056.1797,688.5,1052.1797" style="stroke:#181818;stroke-width:1.0;"/><line style="stroke:#181818;stroke-width:1.0;stroke-dasharray:2.0,2.0;" x1="686.5" x2="950.5" y1="1052.1797" y2="1052.1797"/><text fill="#000000" font-family="sans-serif" font-size="13" font-weight="bold" lengthAdjust="spacing" textLength="14" x="698.5" y="1047.4248">32</text><text fill="#000000" font-family="sans-serif" font-size="13" lengthAdjust="spacing" textLength="195" x="716.5" y="1047.4248">BusinessRuleValidationException</text><polygon fill="#181818" points="419.5,1076.7031,409.5,1080.7031,419.5,1084.7031,415.5,1080.7031" style="stroke:#181818;stroke-width:1.0;"/><line style="stroke:#181818;stroke-width:1.0;stroke-dasharray:2.0,2.0;" x1="413.5" x2="675.5" y1="1080.7031" y2="1080.7031"/><text fill="#000000" font-family="sans-serif" font-size="13" font-weight="bold" lengthAdjust="spacing" textLength="14" x="425.5" y="1075.9482">33</text><text fill="#000000" font-family="sans-serif" font-size="13" lengthAdjust="spacing" textLength="87" x="443.5" y="1075.9482">409 CONFLICT</text><polygon fill="#181818" points="100.5,1105.2266,90.5,1109.2266,100.5,1113.2266,96.5,1109.2266" style="stroke:#181818;stroke-width:1.0;"/><line style="stroke:#181818;stroke-width:1.0;" x1="94.5" x2="402.5" y1="1109.2266" y2="1109.2266"/><text fill="#000000" font-family="sans-serif" font-size="13" font-weight="bold" lengthAdjust="spacing" textLength="14" x="106.5" y="1104.4717">34</text><text fill="#000000" font-family="sans-serif" font-size="13" lengthAdjust="spacing" textLength="213" x="124.5" y="1104.4717">informs about the fail of the operation</text><!--MD5=[0a91f4c9ef435f4f88745b7540f007be]
@startuml 
autonumber

skinparam sequence {
ParticipantBorderColor black
ParticipantBackgroundColor white
}

actor "Warehouse Manager" as admin


box "<<System(C4)>>\n       EletricGo" #LightYellow
participant SPA as ui <<Container(C4)>>
box "<<Container(C4)>>\n    Warehouse Management" #LightGreen
participant WarehouseRoute as  WM <<Component(C4)>>
participant WarehouseController as  CTL <<Component(C4)>>
participant WarehouseService as  SV <<Component(C4)>>
participant "warehouse : Warehouse" as  W <<Component(C4)>>
participant "warehouseDto : WarehouseDTO" as  DTO <<Component(C4)>>
participant WarehouseRepository as  WR <<Component(C4)>>
end box
end box

admin -> ui: I want to create a new warehouse
activate ui

ui -> admin: asks for the details on the new warehouse
deactivate ui

admin -> ui: inserts the information about the new warehouse

activate ui
ui -> WM: POST CreateWarehouse(warehouseDto)
activate WM
alt If warehouse don´t exist in the system 
WM -> CTL: POST CreateWarehouse(warehouseDto)
activate CTL
CTL -> SV : CreateWarehouse(warehouseDto)
activate SV

SV -> W : Create(warehouseDto)
activate W
W - -> SV : warehouse 
deactivate W

SV -> WR : save(warehouse)
activate WR
WR - -> SV : true 
deactivate WR

SV -> W : toWarehouseDTO()
activate W
W - -> SV : warehouseDto
deactivate W
SV - -> CTL : warehouseDto
deactivate SV
CTL - -> WM : warehouseDto
deactivate CTL


WM - -> ui: 200 OK
deactivate WM

ui -> admin: informs about the success of the operation
deactivate ui

else If a warehouse already exists with the id entered

WM -> CTL: POST CreateWarehouse(warehouseDto)
activate WM
activate CTL
CTL -> SV : CreateWarehouse(warehouseDto)
activate SV

SV -> W : Create(warehouseDto)
activate W
W - -> SV : warehouse 
deactivate W

SV -> WR : save(warehouse)
activate WR
WR - -> SV : false
deactivate WR
SV - -> CTL : InvalidOperationException
deactivate SV
CTL - -> WM : InvalidOperationException
deactivate CTL

WM - -> ui: 409 CONFLICT
deactivate WM

activate ui
ui -> admin: informs about the fail of the operation
deactivate ui 

else If the attributes do not respect the business rules
WM -> CTL: POST CreateWarehouse(warehouseDto)
activate WM
activate CTL
CTL -> SV : CreateWarehouse(warehouseDto)
activate SV

SV -> W : Create(warehouseDto)
activate W
W - -> SV : BusinessRuleValidationException
deactivate W

SV - -> CTL : BusinessRuleValidationException
deactivate SV
CTL - -> WM : BusinessRuleValidationException
deactivate CTL

WM - -> ui: 409 CONFLICT
deactivate WM

activate ui
ui -> admin: informs about the fail of the operation
deactivate ui 
end 
deactivate ui
deactivate admin

@enduml

PlantUML version 1.2022.12(Sun Oct 23 19:12:26 WEST 2022)
(GPL source distribution)
Java Runtime: OpenJDK Runtime Environment
JVM: OpenJDK 64-Bit Server VM
Default Encoding: Cp1252
Language: pt
Country: BR
--></g></svg>