<?xml version="1.0" encoding="UTF-8" standalone="no"?><svg xmlns="http://www.w3.org/2000/svg" xmlns:xlink="http://www.w3.org/1999/xlink" contentStyleType="text/css" height="811px" preserveAspectRatio="none" style="width:974px;height:811px;background:#FFFFFF;" version="1.1" viewBox="0 0 974 811" width="974px" zoomAndPan="magnify"><defs/><g><rect fill="#DDDDDD" height="799.8828" style="stroke:#181818;stroke-width:0.5;" width="551" x="296" y="6"/><text fill="#000000" font-family="sans-serif" font-size="13" font-weight="bold" lengthAdjust="spacing" textLength="102" x="520.5" y="19.4951">&lt;&lt;System(C4)&gt;&gt;</text><text fill="#000000" font-family="sans-serif" font-size="13" font-weight="bold" lengthAdjust="spacing" textLength="46" x="524.5" y="35.8467">System</text><rect fill="#FFFFFF" height="612.3516" style="stroke:#181818;stroke-width:1.0;" width="10" x="64" y="102.9219"/><rect fill="#FFFFFF" height="590" style="stroke:#181818;stroke-width:1.0;" width="10" x="355" y="125.2734"/><rect fill="#FFFFFF" height="30.3516" style="stroke:#181818;stroke-width:1.0;" width="10" x="567" y="180.9766"/><rect fill="#FFFFFF" height="269.6484" style="stroke:#181818;stroke-width:1.0;" width="10" x="567" y="446.625"/><rect fill="#FFFFFF" height="239.2969" style="stroke:#181818;stroke-width:1.0;" width="10" x="778" y="476.9766"/><rect fill="#FFFFFF" height="30.3516" style="stroke:#181818;stroke-width:1.0;" width="10" x="900" y="257.5156"/><rect fill="none" height="155.5938" style="stroke:#000000;stroke-width:1.5;" width="677" x="290" y="140.2734"/><rect fill="none" height="216.2969" style="stroke:#000000;stroke-width:1.5;" width="843" x="10" y="491.9766"/><line style="stroke:#181818;stroke-width:0.5;stroke-dasharray:5.0,5.0;" x1="69" x2="69" y1="92.9219" y2="725.2734"/><line style="stroke:#181818;stroke-width:0.5;stroke-dasharray:5.0,5.0;" x1="360" x2="360" y1="92.9219" y2="725.2734"/><line style="stroke:#181818;stroke-width:0.5;stroke-dasharray:5.0,5.0;" x1="572" x2="572" y1="92.9219" y2="725.2734"/><line style="stroke:#181818;stroke-width:0.5;stroke-dasharray:5.0,5.0;" x1="783" x2="783" y1="92.9219" y2="725.2734"/><line style="stroke:#181818;stroke-width:0.5;stroke-dasharray:5.0,5.0;" x1="905" x2="905" y1="92.9219" y2="725.2734"/><text fill="#000000" font-family="sans-serif" font-size="14" lengthAdjust="spacing" textLength="92" x="20" y="89.8457">Fleet Manager</text><ellipse cx="69" cy="23.8125" fill="#E2E2F0" rx="8" ry="8" style="stroke:#181818;stroke-width:0.5;"/><path d="M69,31.8125 L69,58.8125 M56,39.8125 L82,39.8125 M69,58.8125 L56,73.8125 M69,58.8125 L82,73.8125 " fill="none" style="stroke:#181818;stroke-width:0.5;"/><text fill="#000000" font-family="sans-serif" font-size="14" lengthAdjust="spacing" textLength="92" x="20" y="738.8066">Fleet Manager</text><ellipse cx="69" cy="750.3828" fill="#E2E2F0" rx="8" ry="8" style="stroke:#181818;stroke-width:0.5;"/><path d="M69,758.3828 L69,785.3828 M56,766.3828 L82,766.3828 M69,785.3828 L56,800.3828 M69,785.3828 L82,800.3828 " fill="none" style="stroke:#181818;stroke-width:0.5;"/><rect fill="#FFFFFF" height="49.2188" rx="2.5" ry="2.5" style="stroke:#000000;stroke-width:0.5;" width="120" x="300" y="42.7031"/><text fill="#000000" font-family="sans-serif" font-size="14" font-style="italic" lengthAdjust="spacing" textLength="106" x="307" y="64.2363">«Container(C4)»</text><text fill="#000000" font-family="sans-serif" font-size="14" lengthAdjust="spacing" textLength="12" x="354" y="81.8457">UI</text><rect fill="#FFFFFF" height="49.2188" rx="2.5" ry="2.5" style="stroke:#000000;stroke-width:0.5;" width="120" x="300" y="724.2734"/><text fill="#000000" font-family="sans-serif" font-size="14" font-style="italic" lengthAdjust="spacing" textLength="106" x="307" y="745.8066">«Container(C4)»</text><text fill="#000000" font-family="sans-serif" font-size="14" lengthAdjust="spacing" textLength="12" x="354" y="763.416">UI</text><rect fill="#FFFFFF" height="49.2188" rx="2.5" ry="2.5" style="stroke:#000000;stroke-width:0.5;" width="120" x="512" y="42.7031"/><text fill="#000000" font-family="sans-serif" font-size="14" font-style="italic" lengthAdjust="spacing" textLength="106" x="519" y="64.2363">«Container(C4)»</text><text fill="#000000" font-family="sans-serif" font-size="14" lengthAdjust="spacing" textLength="29" x="557.5" y="81.8457">Auth</text><rect fill="#FFFFFF" height="49.2188" rx="2.5" ry="2.5" style="stroke:#000000;stroke-width:0.5;" width="120" x="512" y="724.2734"/><text fill="#000000" font-family="sans-serif" font-size="14" font-style="italic" lengthAdjust="spacing" textLength="106" x="519" y="745.8066">«Container(C4)»</text><text fill="#000000" font-family="sans-serif" font-size="14" lengthAdjust="spacing" textLength="29" x="557.5" y="763.416">Auth</text><rect fill="#FFFFFF" height="49.2188" rx="2.5" ry="2.5" style="stroke:#000000;stroke-width:0.5;" width="120" x="723" y="42.7031"/><text fill="#000000" font-family="sans-serif" font-size="14" font-style="italic" lengthAdjust="spacing" textLength="106" x="730" y="64.2363">«Container(C4)»</text><text fill="#000000" font-family="sans-serif" font-size="14" lengthAdjust="spacing" textLength="55" x="755.5" y="81.8457">Logistics</text><rect fill="#FFFFFF" height="49.2188" rx="2.5" ry="2.5" style="stroke:#000000;stroke-width:0.5;" width="120" x="723" y="724.2734"/><text fill="#000000" font-family="sans-serif" font-size="14" font-style="italic" lengthAdjust="spacing" textLength="106" x="730" y="745.8066">«Container(C4)»</text><text fill="#000000" font-family="sans-serif" font-size="14" lengthAdjust="spacing" textLength="55" x="755.5" y="763.416">Logistics</text><rect fill="#FFFFFF" height="49.2188" rx="2.5" ry="2.5" style="stroke:#000000;stroke-width:0.5;" width="104" x="853" y="42.7031"/><text fill="#000000" font-family="sans-serif" font-size="14" font-style="italic" lengthAdjust="spacing" textLength="90" x="860" y="64.2363">«System(C4)»</text><text fill="#000000" font-family="sans-serif" font-size="14" lengthAdjust="spacing" textLength="46" x="882" y="81.8457">Google</text><rect fill="#FFFFFF" height="49.2188" rx="2.5" ry="2.5" style="stroke:#000000;stroke-width:0.5;" width="104" x="853" y="724.2734"/><text fill="#000000" font-family="sans-serif" font-size="14" font-style="italic" lengthAdjust="spacing" textLength="90" x="860" y="745.8066">«System(C4)»</text><text fill="#000000" font-family="sans-serif" font-size="14" lengthAdjust="spacing" textLength="46" x="882" y="763.416">Google</text><rect fill="#FFFFFF" height="612.3516" style="stroke:#181818;stroke-width:1.0;" width="10" x="64" y="102.9219"/><rect fill="#FFFFFF" height="590" style="stroke:#181818;stroke-width:1.0;" width="10" x="355" y="125.2734"/><rect fill="#FFFFFF" height="30.3516" style="stroke:#181818;stroke-width:1.0;" width="10" x="567" y="180.9766"/><rect fill="#FFFFFF" height="269.6484" style="stroke:#181818;stroke-width:1.0;" width="10" x="567" y="446.625"/><rect fill="#FFFFFF" height="239.2969" style="stroke:#181818;stroke-width:1.0;" width="10" x="778" y="476.9766"/><rect fill="#FFFFFF" height="30.3516" style="stroke:#181818;stroke-width:1.0;" width="10" x="900" y="257.5156"/><polygon fill="#181818" points="343,121.2734,353,125.2734,343,129.2734,347,125.2734" style="stroke:#181818;stroke-width:1.0;"/><line style="stroke:#181818;stroke-width:1.0;" x1="74" x2="349" y1="125.2734" y2="125.2734"/><text fill="#000000" font-family="sans-serif" font-size="13" font-weight="bold" lengthAdjust="spacing" textLength="7" x="81" y="120.417">1</text><text fill="#000000" font-family="sans-serif" font-size="13" lengthAdjust="spacing" textLength="80" x="92" y="120.417">I want to login</text><path d="M290,140.2734 L351,140.2734 L351,148.625 L341,158.625 L290,158.625 L290,140.2734 " fill="#EEEEEE" style="stroke:#000000;stroke-width:1.5;"/><rect fill="none" height="155.5938" style="stroke:#000000;stroke-width:1.5;" width="677" x="290" y="140.2734"/><text fill="#000000" font-family="sans-serif" font-size="13" font-weight="bold" lengthAdjust="spacing" textLength="16" x="305" y="154.7686">alt</text><text fill="#000000" font-family="sans-serif" font-size="11" font-weight="bold" lengthAdjust="spacing" textLength="266" x="366" y="153.6924">[Login through email and password in EletricGo]</text><polygon fill="#181818" points="555,176.9766,565,180.9766,555,184.9766,559,180.9766" style="stroke:#181818;stroke-width:1.0;"/><line style="stroke:#181818;stroke-width:1.0;" x1="365" x2="561" y1="180.9766" y2="180.9766"/><text fill="#000000" font-family="sans-serif" font-size="13" font-weight="bold" lengthAdjust="spacing" textLength="7" x="372" y="176.1201">2</text><text fill="#000000" font-family="sans-serif" font-size="13" lengthAdjust="spacing" textLength="172" x="383" y="176.1201">POST Login(email, password)</text><polygon fill="#181818" points="376,207.3281,366,211.3281,376,215.3281,372,211.3281" style="stroke:#181818;stroke-width:1.0;"/><line style="stroke:#181818;stroke-width:1.0;stroke-dasharray:2.0,2.0;" x1="370" x2="571" y1="211.3281" y2="211.3281"/><text fill="#000000" font-family="sans-serif" font-size="13" font-weight="bold" lengthAdjust="spacing" textLength="7" x="382" y="206.4717">3</text><text fill="#000000" font-family="sans-serif" font-size="13" lengthAdjust="spacing" textLength="44" x="393" y="206.4717">200 OK</text><line style="stroke:#000000;stroke-width:1.0;stroke-dasharray:2.0,2.0;" x1="290" x2="967" y1="220.3281" y2="220.3281"/><text fill="#000000" font-family="sans-serif" font-size="11" font-weight="bold" lengthAdjust="spacing" textLength="128" x="295" y="231.7471">[Login through Google]</text><polygon fill="#181818" points="888,253.5156,898,257.5156,888,261.5156,892,257.5156" style="stroke:#181818;stroke-width:1.0;"/><line style="stroke:#181818;stroke-width:1.0;" x1="365" x2="894" y1="257.5156" y2="257.5156"/><text fill="#000000" font-family="sans-serif" font-size="13" font-weight="bold" lengthAdjust="spacing" textLength="7" x="372" y="252.6592">4</text><text fill="#000000" font-family="sans-serif" font-size="13" lengthAdjust="spacing" textLength="153" x="383" y="252.6592">Login with Google account</text><polygon fill="#181818" points="376,283.8672,366,287.8672,376,291.8672,372,287.8672" style="stroke:#181818;stroke-width:1.0;"/><line style="stroke:#181818;stroke-width:1.0;stroke-dasharray:2.0,2.0;" x1="370" x2="904" y1="287.8672" y2="287.8672"/><text fill="#000000" font-family="sans-serif" font-size="13" font-weight="bold" lengthAdjust="spacing" textLength="7" x="382" y="283.0107">5</text><text fill="#000000" font-family="sans-serif" font-size="13" lengthAdjust="spacing" textLength="44" x="393" y="283.0107">200 OK</text><polygon fill="#181818" points="85,321.2188,75,325.2188,85,329.2188,81,325.2188" style="stroke:#181818;stroke-width:1.0;"/><line style="stroke:#181818;stroke-width:1.0;stroke-dasharray:2.0,2.0;" x1="79" x2="354" y1="325.2188" y2="325.2188"/><text fill="#000000" font-family="sans-serif" font-size="13" font-weight="bold" lengthAdjust="spacing" textLength="7" x="91" y="320.3623">6</text><text fill="#000000" font-family="sans-serif" font-size="13" lengthAdjust="spacing" textLength="198" x="102" y="320.3623">informs about the success of login</text><polygon fill="#181818" points="343,351.5703,353,355.5703,343,359.5703,347,355.5703" style="stroke:#181818;stroke-width:1.0;"/><line style="stroke:#181818;stroke-width:1.0;" x1="74" x2="349" y1="355.5703" y2="355.5703"/><text fill="#000000" font-family="sans-serif" font-size="13" font-weight="bold" lengthAdjust="spacing" textLength="7" x="81" y="350.7139">7</text><text fill="#000000" font-family="sans-serif" font-size="13" lengthAdjust="spacing" textLength="160" x="92" y="350.7139">I want to create a new truck</text><polygon fill="#181818" points="85,381.9219,75,385.9219,85,389.9219,81,385.9219" style="stroke:#181818;stroke-width:1.0;"/><line style="stroke:#181818;stroke-width:1.0;stroke-dasharray:2.0,2.0;" x1="79" x2="354" y1="385.9219" y2="385.9219"/><text fill="#000000" font-family="sans-serif" font-size="13" font-weight="bold" lengthAdjust="spacing" textLength="7" x="91" y="381.0654">8</text><text fill="#000000" font-family="sans-serif" font-size="13" lengthAdjust="spacing" textLength="210" x="102" y="381.0654">asks for the details on the new truck</text><polygon fill="#181818" points="343,412.2734,353,416.2734,343,420.2734,347,416.2734" style="stroke:#181818;stroke-width:1.0;"/><line style="stroke:#181818;stroke-width:1.0;" x1="74" x2="349" y1="416.2734" y2="416.2734"/><text fill="#000000" font-family="sans-serif" font-size="13" font-weight="bold" lengthAdjust="spacing" textLength="7" x="81" y="411.417">9</text><text fill="#000000" font-family="sans-serif" font-size="13" lengthAdjust="spacing" textLength="246" x="92" y="411.417">inserts the information about the new truck</text><polygon fill="#181818" points="555,442.625,565,446.625,555,450.625,559,446.625" style="stroke:#181818;stroke-width:1.0;"/><line style="stroke:#181818;stroke-width:1.0;" x1="365" x2="561" y1="446.625" y2="446.625"/><text fill="#000000" font-family="sans-serif" font-size="13" font-weight="bold" lengthAdjust="spacing" textLength="14" x="372" y="441.7686">10</text><text fill="#000000" font-family="sans-serif" font-size="13" lengthAdjust="spacing" textLength="164" x="390" y="441.7686">POST createTruck(truckInfo)</text><polygon fill="#181818" points="766,472.9766,776,476.9766,766,480.9766,770,476.9766" style="stroke:#181818;stroke-width:1.0;"/><line style="stroke:#181818;stroke-width:1.0;" x1="577" x2="772" y1="476.9766" y2="476.9766"/><text fill="#000000" font-family="sans-serif" font-size="13" font-weight="bold" lengthAdjust="spacing" textLength="14" x="584" y="472.1201">11</text><text fill="#000000" font-family="sans-serif" font-size="13" lengthAdjust="spacing" textLength="164" x="602" y="472.1201">POST createTruck(truckInfo)</text><path d="M10,491.9766 L71,491.9766 L71,500.3281 L61,510.3281 L10,510.3281 L10,491.9766 " fill="#EEEEEE" style="stroke:#000000;stroke-width:1.5;"/><rect fill="none" height="216.2969" style="stroke:#000000;stroke-width:1.5;" width="843" x="10" y="491.9766"/><text fill="#000000" font-family="sans-serif" font-size="13" font-weight="bold" lengthAdjust="spacing" textLength="16" x="25" y="506.4717">alt</text><text fill="#000000" font-family="sans-serif" font-size="11" font-weight="bold" lengthAdjust="spacing" textLength="112" x="86" y="505.3955">[truck doesn't exist]</text><polygon fill="#181818" points="588,528.6797,578,532.6797,588,536.6797,584,532.6797" style="stroke:#181818;stroke-width:1.0;"/><line style="stroke:#181818;stroke-width:1.0;stroke-dasharray:2.0,2.0;" x1="582" x2="777" y1="532.6797" y2="532.6797"/><text fill="#000000" font-family="sans-serif" font-size="13" font-weight="bold" lengthAdjust="spacing" textLength="14" x="594" y="527.8232">12</text><text fill="#000000" font-family="sans-serif" font-size="13" lengthAdjust="spacing" textLength="70" x="612" y="527.8232">201 Created</text><polygon fill="#181818" points="376,559.0313,366,563.0313,376,567.0313,372,563.0313" style="stroke:#181818;stroke-width:1.0;"/><line style="stroke:#181818;stroke-width:1.0;stroke-dasharray:2.0,2.0;" x1="370" x2="566" y1="563.0313" y2="563.0313"/><text fill="#000000" font-family="sans-serif" font-size="13" font-weight="bold" lengthAdjust="spacing" textLength="14" x="382" y="558.1748">13</text><text fill="#000000" font-family="sans-serif" font-size="13" lengthAdjust="spacing" textLength="70" x="400" y="558.1748">201 Created</text><polygon fill="#181818" points="85,589.3828,75,593.3828,85,597.3828,81,593.3828" style="stroke:#181818;stroke-width:1.0;"/><line style="stroke:#181818;stroke-width:1.0;stroke-dasharray:2.0,2.0;" x1="79" x2="354" y1="593.3828" y2="593.3828"/><text fill="#000000" font-family="sans-serif" font-size="13" font-weight="bold" lengthAdjust="spacing" textLength="14" x="91" y="588.5264">14</text><text fill="#000000" font-family="sans-serif" font-size="13" lengthAdjust="spacing" textLength="239" x="109" y="588.5264">informs about the success of the creation</text><line style="stroke:#000000;stroke-width:1.0;stroke-dasharray:2.0,2.0;" x1="10" x2="853" y1="602.3828" y2="602.3828"/><text fill="#000000" font-family="sans-serif" font-size="11" font-weight="bold" lengthAdjust="spacing" textLength="117" x="15" y="613.8018">[truck already exists]</text><polygon fill="#181818" points="588,635.5703,578,639.5703,588,643.5703,584,639.5703" style="stroke:#181818;stroke-width:1.0;"/><line style="stroke:#181818;stroke-width:1.0;stroke-dasharray:2.0,2.0;" x1="582" x2="777" y1="639.5703" y2="639.5703"/><text fill="#000000" font-family="sans-serif" font-size="13" font-weight="bold" lengthAdjust="spacing" textLength="14" x="594" y="634.7139">15</text><text fill="#000000" font-family="sans-serif" font-size="13" lengthAdjust="spacing" textLength="68" x="612" y="634.7139">409 Conflict</text><polygon fill="#181818" points="376,665.9219,366,669.9219,376,673.9219,372,669.9219" style="stroke:#181818;stroke-width:1.0;"/><line style="stroke:#181818;stroke-width:1.0;stroke-dasharray:2.0,2.0;" x1="370" x2="566" y1="669.9219" y2="669.9219"/><text fill="#000000" font-family="sans-serif" font-size="13" font-weight="bold" lengthAdjust="spacing" textLength="14" x="382" y="665.0654">16</text><text fill="#000000" font-family="sans-serif" font-size="13" lengthAdjust="spacing" textLength="68" x="400" y="665.0654">409 Conflict</text><polygon fill="#181818" points="85,696.2734,75,700.2734,85,704.2734,81,700.2734" style="stroke:#181818;stroke-width:1.0;"/><line style="stroke:#181818;stroke-width:1.0;stroke-dasharray:2.0,2.0;" x1="79" x2="354" y1="700.2734" y2="700.2734"/><text fill="#000000" font-family="sans-serif" font-size="13" font-weight="bold" lengthAdjust="spacing" textLength="14" x="91" y="695.417">17</text><text fill="#000000" font-family="sans-serif" font-size="13" lengthAdjust="spacing" textLength="224" x="109" y="695.417">informs about the failure of the creation</text><!--MD5=[d7402d1b23f83b94e06c9cc4eac638ac]
@startuml createTruckSD
autonumber

skinparam sequence {
ParticipantBorderColor black
ParticipantBackgroundColor white
}

actor "Fleet Manager" as manager
box "<<System(C4)>>\n System"
participant UI as UI <<Container(C4)>>
participant Auth as Auth <<Container(C4)>>
participant Logistics as Logistics <<Container(C4)>>
end box

participant Google as Google <<System(C4)>>


activate manager
manager->UI: I want to login
activate UI

alt Login through email and password in EletricGo

UI -> Auth: POST Login(email, password)
activate Auth

Auth - -> UI: 200 OK
deactivate Auth

else Login through Google

UI -> Google: Login with Google account
activate Google
Google - -> UI: 200 OK
deactivate Google

end



UI - -> manager: informs about the success of login

manager -> UI: I want to create a new truck

UI - -> manager: asks for the details on the new truck

manager -> UI: inserts the information about the new truck

UI -> Auth: POST createTruck(truckInfo)
activate Auth
Auth -> Logistics: POST createTruck(truckInfo)
activate Logistics

alt truck doesn't exist

Logistics - -> Auth: 201 Created
Auth - -> UI: 201 Created
UI - -> manager: informs about the success of the creation

else truck already exists

Logistics - -> Auth: 409 Conflict
Auth - -> UI: 409 Conflict
UI - -> manager: informs about the failure of the creation

end

deactivate UI
deactivate manager
@enduml

PlantUML version 1.2022.7(Mon Aug 22 18:01:30 WEST 2022)
(GPL source distribution)
Java Runtime: Java(TM) SE Runtime Environment
JVM: Java HotSpot(TM) 64-Bit Server VM
Default Encoding: Cp1252
Language: en
Country: GB
--></g></svg>