<?xml version="1.0" encoding="UTF-8" standalone="no"?><svg xmlns="http://www.w3.org/2000/svg" xmlns:xlink="http://www.w3.org/1999/xlink" contentStyleType="text/css" height="1188px" preserveAspectRatio="none" style="width:1949px;height:1188px;background:#FFFFFF;" version="1.1" viewBox="0 0 1949 1188" width="1949px" zoomAndPan="magnify"><defs/><g><rect fill="#FFFFE0" height="1176.6172" style="stroke:#181818;stroke-width:0.5;" width="684.5" x="165" y="6"/><text fill="#000000" font-family="sans-serif" font-size="13" font-weight="bold" lengthAdjust="spacing" textLength="118" x="448.25" y="19.4951">&lt;&lt;Container(C4)&gt;&gt;</text><text fill="#000000" font-family="sans-serif" font-size="13" font-weight="bold" lengthAdjust="spacing" textLength="88" x="476.25" y="35.8467">User Interface</text><rect fill="#808080" height="1176.6172" style="stroke:#181818;stroke-width:0.5;" width="128" x="927" y="6"/><text fill="#000000" font-family="sans-serif" font-size="13" font-weight="bold" lengthAdjust="spacing" textLength="102" x="940" y="19.4951">&lt;&lt;System(C4)&gt;&gt;</text><text fill="#000000" font-family="sans-serif" font-size="13" font-weight="bold" lengthAdjust="spacing" textLength="46" x="952" y="35.8467">System</text><rect fill="#90EE90" height="1176.6172" style="stroke:#181818;stroke-width:0.5;" width="836" x="1100.5" y="6"/><text fill="#000000" font-family="sans-serif" font-size="13" font-weight="bold" lengthAdjust="spacing" textLength="118" x="1439" y="19.4951">&lt;&lt;Container(C4)&gt;&gt;</text><text fill="#000000" font-family="sans-serif" font-size="13" font-weight="bold" lengthAdjust="spacing" textLength="159" x="1439" y="35.8467">Warehouse Management</text><rect fill="#FFFFFF" height="989.0859" style="stroke:#181818;stroke-width:1.0;" width="10" x="84.5" y="102.9219"/><rect fill="#FFFFFF" height="966.7344" style="stroke:#181818;stroke-width:1.0;" width="10" x="272" y="125.2734"/><rect fill="#FFFFFF" height="936.3828" style="stroke:#181818;stroke-width:1.0;" width="10" x="603" y="155.625"/><rect fill="#FFFFFF" height="845.3281" style="stroke:#181818;stroke-width:1.0;" width="10" x="775" y="246.6797"/><rect fill="#FFFFFF" height="814.9766" style="stroke:#181818;stroke-width:1.0;" width="10" x="986" y="277.0313"/><rect fill="#FFFFFF" height="303.5156" style="stroke:#181818;stroke-width:1.0;" width="10" x="1165" y="332.7344"/><rect fill="#FFFFFF" height="182.1094" style="stroke:#181818;stroke-width:1.0;" width="10" x="1165" y="803.8438"/><rect fill="#FFFFFF" height="212.4609" style="stroke:#181818;stroke-width:1.0;" width="10" x="1363" y="363.0859"/><rect fill="#FFFFFF" height="151.7578" style="stroke:#181818;stroke-width:1.0;" width="10" x="1363" y="803.8438"/><rect fill="#FFFFFF" height="30.3516" style="stroke:#181818;stroke-width:1.0;" width="10" x="1521" y="393.4375"/><rect fill="#FFFFFF" height="30.3516" style="stroke:#181818;stroke-width:1.0;" width="10" x="1521" y="514.8438"/><rect fill="#FFFFFF" height="30.3516" style="stroke:#181818;stroke-width:1.0;" width="10" x="1521" y="834.1953"/><rect fill="#FFFFFF" height="30.3516" style="stroke:#181818;stroke-width:1.0;" width="10" x="1861" y="454.1406"/><rect fill="#FFFFFF" height="30.3516" style="stroke:#181818;stroke-width:1.0;" width="10" x="1861" y="894.8984"/><rect fill="none" height="792.9766" style="stroke:#000000;stroke-width:1.5;" width="1932.5" x="10" y="292.0313"/><line style="stroke:#181818;stroke-width:0.5;stroke-dasharray:5.0,5.0;" x1="89" x2="89" y1="92.9219" y2="1102.0078"/><line style="stroke:#181818;stroke-width:0.5;stroke-dasharray:5.0,5.0;" x1="277" x2="277" y1="92.9219" y2="1102.0078"/><line style="stroke:#181818;stroke-width:0.5;stroke-dasharray:5.0,5.0;" x1="607.5" x2="607.5" y1="92.9219" y2="1102.0078"/><line style="stroke:#181818;stroke-width:0.5;stroke-dasharray:5.0,5.0;" x1="779.5" x2="779.5" y1="92.9219" y2="1102.0078"/><line style="stroke:#181818;stroke-width:0.5;stroke-dasharray:5.0,5.0;" x1="991" x2="991" y1="92.9219" y2="1102.0078"/><line style="stroke:#181818;stroke-width:0.5;stroke-dasharray:5.0,5.0;" x1="1169.5" x2="1169.5" y1="92.9219" y2="1102.0078"/><line style="stroke:#181818;stroke-width:0.5;stroke-dasharray:5.0,5.0;" x1="1367.5" x2="1367.5" y1="92.9219" y2="1102.0078"/><line style="stroke:#181818;stroke-width:0.5;stroke-dasharray:5.0,5.0;" x1="1525.5" x2="1525.5" y1="92.9219" y2="1102.0078"/><line style="stroke:#181818;stroke-width:0.5;stroke-dasharray:5.0,5.0;" x1="1695.5" x2="1695.5" y1="92.9219" y2="1102.0078"/><line style="stroke:#181818;stroke-width:0.5;stroke-dasharray:5.0,5.0;" x1="1865.5" x2="1865.5" y1="92.9219" y2="1102.0078"/><text fill="#000000" font-family="sans-serif" font-size="14" lengthAdjust="spacing" textLength="133" x="20" y="89.8457">Warehouse Manager</text><ellipse cx="89.5" cy="23.8125" fill="#E2E2F0" rx="8" ry="8" style="stroke:#181818;stroke-width:0.5;"/><path d="M89.5,31.8125 L89.5,58.8125 M76.5,39.8125 L102.5,39.8125 M89.5,58.8125 L76.5,73.8125 M89.5,58.8125 L102.5,73.8125 " fill="none" style="stroke:#181818;stroke-width:0.5;"/><text fill="#000000" font-family="sans-serif" font-size="14" lengthAdjust="spacing" textLength="133" x="20" y="1115.541">Warehouse Manager</text><ellipse cx="89.5" cy="1127.1172" fill="#E2E2F0" rx="8" ry="8" style="stroke:#181818;stroke-width:0.5;"/><path d="M89.5,1135.1172 L89.5,1162.1172 M76.5,1143.1172 L102.5,1143.1172 M89.5,1162.1172 L76.5,1177.1172 M89.5,1162.1172 L102.5,1177.1172 " fill="none" style="stroke:#181818;stroke-width:0.5;"/><rect fill="#FFFFFF" height="49.2188" rx="2.5" ry="2.5" style="stroke:#000000;stroke-width:0.5;" width="216" x="169" y="42.7031"/><text fill="#000000" font-family="sans-serif" font-size="14" font-style="italic" lengthAdjust="spacing" textLength="117" x="218.5" y="64.2363">«Component(C4)»</text><text fill="#000000" font-family="sans-serif" font-size="14" lengthAdjust="spacing" textLength="202" x="176" y="81.8457">WarehouseManagerComponent</text><rect fill="#FFFFFF" height="49.2188" rx="2.5" ry="2.5" style="stroke:#000000;stroke-width:0.5;" width="216" x="169" y="1101.0078"/><text fill="#000000" font-family="sans-serif" font-size="14" font-style="italic" lengthAdjust="spacing" textLength="117" x="218.5" y="1122.541">«Component(C4)»</text><text fill="#000000" font-family="sans-serif" font-size="14" lengthAdjust="spacing" textLength="202" x="176" y="1140.1504">WarehouseManagerComponent</text><rect fill="#FFFFFF" height="49.2188" rx="2.5" ry="2.5" style="stroke:#000000;stroke-width:0.5;" width="181" x="517.5" y="42.7031"/><text fill="#000000" font-family="sans-serif" font-size="14" font-style="italic" lengthAdjust="spacing" textLength="117" x="549.5" y="64.2363">«Component(C4)»</text><text fill="#000000" font-family="sans-serif" font-size="14" lengthAdjust="spacing" textLength="167" x="524.5" y="81.8457">CreateDeliveryComponent</text><rect fill="#FFFFFF" height="49.2188" rx="2.5" ry="2.5" style="stroke:#000000;stroke-width:0.5;" width="181" x="517.5" y="1101.0078"/><text fill="#000000" font-family="sans-serif" font-size="14" font-style="italic" lengthAdjust="spacing" textLength="117" x="549.5" y="1122.541">«Component(C4)»</text><text fill="#000000" font-family="sans-serif" font-size="14" lengthAdjust="spacing" textLength="167" x="524.5" y="1140.1504">CreateDeliveryComponent</text><rect fill="#FFFFFF" height="49.2188" rx="2.5" ry="2.5" style="stroke:#000000;stroke-width:0.5;" width="131" x="714.5" y="42.7031"/><text fill="#000000" font-family="sans-serif" font-size="14" font-style="italic" lengthAdjust="spacing" textLength="117" x="721.5" y="64.2363">«Component(C4)»</text><text fill="#000000" font-family="sans-serif" font-size="14" lengthAdjust="spacing" textLength="98" x="731" y="81.8457">DeliveryService</text><rect fill="#FFFFFF" height="49.2188" rx="2.5" ry="2.5" style="stroke:#000000;stroke-width:0.5;" width="131" x="714.5" y="1101.0078"/><text fill="#000000" font-family="sans-serif" font-size="14" font-style="italic" lengthAdjust="spacing" textLength="117" x="721.5" y="1122.541">«Component(C4)»</text><text fill="#000000" font-family="sans-serif" font-size="14" lengthAdjust="spacing" textLength="98" x="731" y="1140.1504">DeliveryService</text><rect fill="#FFFFFF" height="49.2188" rx="2.5" ry="2.5" style="stroke:#000000;stroke-width:0.5;" width="120" x="931" y="42.7031"/><text fill="#000000" font-family="sans-serif" font-size="14" font-style="italic" lengthAdjust="spacing" textLength="106" x="938" y="64.2363">«Container(C4)»</text><text fill="#000000" font-family="sans-serif" font-size="14" lengthAdjust="spacing" textLength="29" x="976.5" y="81.8457">Auth</text><rect fill="#FFFFFF" height="49.2188" rx="2.5" ry="2.5" style="stroke:#000000;stroke-width:0.5;" width="120" x="931" y="1101.0078"/><text fill="#000000" font-family="sans-serif" font-size="14" font-style="italic" lengthAdjust="spacing" textLength="106" x="938" y="1122.541">«Container(C4)»</text><text fill="#000000" font-family="sans-serif" font-size="14" lengthAdjust="spacing" textLength="29" x="976.5" y="1140.1504">Auth</text><rect fill="#FFFFFF" height="49.2188" rx="2.5" ry="2.5" style="stroke:#000000;stroke-width:0.5;" width="131" x="1104.5" y="42.7031"/><text fill="#000000" font-family="sans-serif" font-size="14" font-style="italic" lengthAdjust="spacing" textLength="117" x="1111.5" y="64.2363">«Component(C4)»</text><text fill="#000000" font-family="sans-serif" font-size="14" lengthAdjust="spacing" textLength="113" x="1113.5" y="81.8457">DeliveryController</text><rect fill="#FFFFFF" height="49.2188" rx="2.5" ry="2.5" style="stroke:#000000;stroke-width:0.5;" width="131" x="1104.5" y="1101.0078"/><text fill="#000000" font-family="sans-serif" font-size="14" font-style="italic" lengthAdjust="spacing" textLength="117" x="1111.5" y="1122.541">«Component(C4)»</text><text fill="#000000" font-family="sans-serif" font-size="14" lengthAdjust="spacing" textLength="113" x="1113.5" y="1140.1504">DeliveryController</text><rect fill="#FFFFFF" height="49.2188" rx="2.5" ry="2.5" style="stroke:#000000;stroke-width:0.5;" width="131" x="1302.5" y="42.7031"/><text fill="#000000" font-family="sans-serif" font-size="14" font-style="italic" lengthAdjust="spacing" textLength="117" x="1309.5" y="64.2363">«Component(C4)»</text><text fill="#000000" font-family="sans-serif" font-size="14" lengthAdjust="spacing" textLength="98" x="1319" y="81.8457">DeliveryService</text><rect fill="#FFFFFF" height="49.2188" rx="2.5" ry="2.5" style="stroke:#000000;stroke-width:0.5;" width="131" x="1302.5" y="1101.0078"/><text fill="#000000" font-family="sans-serif" font-size="14" font-style="italic" lengthAdjust="spacing" textLength="117" x="1309.5" y="1122.541">«Component(C4)»</text><text fill="#000000" font-family="sans-serif" font-size="14" lengthAdjust="spacing" textLength="98" x="1319" y="1140.1504">DeliveryService</text><rect fill="#FFFFFF" height="49.2188" rx="2.5" ry="2.5" style="stroke:#000000;stroke-width:0.5;" width="131" x="1460.5" y="42.7031"/><text fill="#000000" font-family="sans-serif" font-size="14" font-style="italic" lengthAdjust="spacing" textLength="117" x="1467.5" y="64.2363">«Component(C4)»</text><text fill="#000000" font-family="sans-serif" font-size="14" lengthAdjust="spacing" textLength="114" x="1469" y="81.8457">Delivery : Delivery</text><rect fill="#FFFFFF" height="49.2188" rx="2.5" ry="2.5" style="stroke:#000000;stroke-width:0.5;" width="131" x="1460.5" y="1101.0078"/><text fill="#000000" font-family="sans-serif" font-size="14" font-style="italic" lengthAdjust="spacing" textLength="117" x="1467.5" y="1122.541">«Component(C4)»</text><text fill="#000000" font-family="sans-serif" font-size="14" lengthAdjust="spacing" textLength="114" x="1469" y="1140.1504">Delivery : Delivery</text><rect fill="#FFFFFF" height="49.2188" rx="2.5" ry="2.5" style="stroke:#000000;stroke-width:0.5;" width="188" x="1601.5" y="42.7031"/><text fill="#000000" font-family="sans-serif" font-size="14" font-style="italic" lengthAdjust="spacing" textLength="117" x="1637" y="64.2363">«Component(C4)»</text><text fill="#000000" font-family="sans-serif" font-size="14" lengthAdjust="spacing" textLength="174" x="1608.5" y="81.8457">DeliveryDTO : DeliveryDTO</text><rect fill="#FFFFFF" height="49.2188" rx="2.5" ry="2.5" style="stroke:#000000;stroke-width:0.5;" width="188" x="1601.5" y="1101.0078"/><text fill="#000000" font-family="sans-serif" font-size="14" font-style="italic" lengthAdjust="spacing" textLength="117" x="1637" y="1122.541">«Component(C4)»</text><text fill="#000000" font-family="sans-serif" font-size="14" lengthAdjust="spacing" textLength="174" x="1608.5" y="1140.1504">DeliveryDTO : DeliveryDTO</text><rect fill="#FFFFFF" height="49.2188" rx="2.5" ry="2.5" style="stroke:#000000;stroke-width:0.5;" width="133" x="1799.5" y="42.7031"/><text fill="#000000" font-family="sans-serif" font-size="14" font-style="italic" lengthAdjust="spacing" textLength="117" x="1807.5" y="64.2363">«Component(C4)»</text><text fill="#000000" font-family="sans-serif" font-size="14" lengthAdjust="spacing" textLength="119" x="1806.5" y="81.8457">DeliveryRepository</text><rect fill="#FFFFFF" height="49.2188" rx="2.5" ry="2.5" style="stroke:#000000;stroke-width:0.5;" width="133" x="1799.5" y="1101.0078"/><text fill="#000000" font-family="sans-serif" font-size="14" font-style="italic" lengthAdjust="spacing" textLength="117" x="1807.5" y="1122.541">«Component(C4)»</text><text fill="#000000" font-family="sans-serif" font-size="14" lengthAdjust="spacing" textLength="119" x="1806.5" y="1140.1504">DeliveryRepository</text><rect fill="#FFFFFF" height="989.0859" style="stroke:#181818;stroke-width:1.0;" width="10" x="84.5" y="102.9219"/><rect fill="#FFFFFF" height="966.7344" style="stroke:#181818;stroke-width:1.0;" width="10" x="272" y="125.2734"/><rect fill="#FFFFFF" height="936.3828" style="stroke:#181818;stroke-width:1.0;" width="10" x="603" y="155.625"/><rect fill="#FFFFFF" height="845.3281" style="stroke:#181818;stroke-width:1.0;" width="10" x="775" y="246.6797"/><rect fill="#FFFFFF" height="814.9766" style="stroke:#181818;stroke-width:1.0;" width="10" x="986" y="277.0313"/><rect fill="#FFFFFF" height="303.5156" style="stroke:#181818;stroke-width:1.0;" width="10" x="1165" y="332.7344"/><rect fill="#FFFFFF" height="182.1094" style="stroke:#181818;stroke-width:1.0;" width="10" x="1165" y="803.8438"/><rect fill="#FFFFFF" height="212.4609" style="stroke:#181818;stroke-width:1.0;" width="10" x="1363" y="363.0859"/><rect fill="#FFFFFF" height="151.7578" style="stroke:#181818;stroke-width:1.0;" width="10" x="1363" y="803.8438"/><rect fill="#FFFFFF" height="30.3516" style="stroke:#181818;stroke-width:1.0;" width="10" x="1521" y="393.4375"/><rect fill="#FFFFFF" height="30.3516" style="stroke:#181818;stroke-width:1.0;" width="10" x="1521" y="514.8438"/><rect fill="#FFFFFF" height="30.3516" style="stroke:#181818;stroke-width:1.0;" width="10" x="1521" y="834.1953"/><rect fill="#FFFFFF" height="30.3516" style="stroke:#181818;stroke-width:1.0;" width="10" x="1861" y="454.1406"/><rect fill="#FFFFFF" height="30.3516" style="stroke:#181818;stroke-width:1.0;" width="10" x="1861" y="894.8984"/><polygon fill="#181818" points="260,121.2734,270,125.2734,260,129.2734,264,125.2734" style="stroke:#181818;stroke-width:1.0;"/><line style="stroke:#181818;stroke-width:1.0;" x1="94.5" x2="266" y1="125.2734" y2="125.2734"/><text fill="#000000" font-family="sans-serif" font-size="13" font-weight="bold" lengthAdjust="spacing" textLength="7" x="101.5" y="120.417">1</text><text fill="#000000" font-family="sans-serif" font-size="13" lengthAdjust="spacing" textLength="143" x="112.5" y="120.417">Asks to create a delivery</text><polygon fill="#181818" points="591,151.625,601,155.625,591,159.625,595,155.625" style="stroke:#181818;stroke-width:1.0;"/><line style="stroke:#181818;stroke-width:1.0;" x1="282" x2="597" y1="155.625" y2="155.625"/><text fill="#000000" font-family="sans-serif" font-size="13" font-weight="bold" lengthAdjust="spacing" textLength="7" x="289" y="150.7686">2</text><text fill="#000000" font-family="sans-serif" font-size="13" lengthAdjust="spacing" textLength="246" x="300" y="150.7686">Navigates to the CreateDeliveryComponent</text><polygon fill="#181818" points="105.5,181.9766,95.5,185.9766,105.5,189.9766,101.5,185.9766" style="stroke:#181818;stroke-width:1.0;"/><line style="stroke:#181818;stroke-width:1.0;stroke-dasharray:2.0,2.0;" x1="99.5" x2="602" y1="185.9766" y2="185.9766"/><text fill="#000000" font-family="sans-serif" font-size="13" font-weight="bold" lengthAdjust="spacing" textLength="7" x="111.5" y="181.1201">3</text><text fill="#000000" font-family="sans-serif" font-size="13" lengthAdjust="spacing" textLength="226" x="122.5" y="181.1201">asks for the details on the new Delivery</text><polygon fill="#181818" points="591,212.3281,601,216.3281,591,220.3281,595,216.3281" style="stroke:#181818;stroke-width:1.0;"/><line style="stroke:#181818;stroke-width:1.0;" x1="94.5" x2="597" y1="216.3281" y2="216.3281"/><text fill="#000000" font-family="sans-serif" font-size="13" font-weight="bold" lengthAdjust="spacing" textLength="7" x="101.5" y="211.4717">4</text><text fill="#000000" font-family="sans-serif" font-size="13" lengthAdjust="spacing" textLength="262" x="112.5" y="211.4717">inserts the information about the new Delivery</text><polygon fill="#181818" points="763,242.6797,773,246.6797,763,250.6797,767,246.6797" style="stroke:#181818;stroke-width:1.0;"/><line style="stroke:#181818;stroke-width:1.0;" x1="613" x2="769" y1="246.6797" y2="246.6797"/><text fill="#000000" font-family="sans-serif" font-size="13" font-weight="bold" lengthAdjust="spacing" textLength="7" x="620" y="241.8232">5</text><text fill="#000000" font-family="sans-serif" font-size="13" lengthAdjust="spacing" textLength="132" x="631" y="241.8232">createDelivery(delivery)</text><polygon fill="#181818" points="974,273.0313,984,277.0313,974,281.0313,978,277.0313" style="stroke:#181818;stroke-width:1.0;"/><line style="stroke:#181818;stroke-width:1.0;" x1="785" x2="980" y1="277.0313" y2="277.0313"/><text fill="#000000" font-family="sans-serif" font-size="13" font-weight="bold" lengthAdjust="spacing" textLength="7" x="792" y="272.1748">6</text><text fill="#000000" font-family="sans-serif" font-size="13" lengthAdjust="spacing" textLength="171" x="803" y="272.1748">POST createDelivery(delivery)</text><path d="M10,292.0313 L71,292.0313 L71,300.3828 L61,310.3828 L10,310.3828 L10,292.0313 " fill="#EEEEEE" style="stroke:#000000;stroke-width:1.5;"/><rect fill="none" height="792.9766" style="stroke:#000000;stroke-width:1.5;" width="1932.5" x="10" y="292.0313"/><text fill="#000000" font-family="sans-serif" font-size="13" font-weight="bold" lengthAdjust="spacing" textLength="16" x="25" y="306.5264">alt</text><text fill="#000000" font-family="sans-serif" font-size="11" font-weight="bold" lengthAdjust="spacing" textLength="237" x="86" y="305.4502">[If the Delivery doesn't exist in the system]</text><polygon fill="#181818" points="1153,328.7344,1163,332.7344,1153,336.7344,1157,332.7344" style="stroke:#181818;stroke-width:1.0;"/><line style="stroke:#181818;stroke-width:1.0;" x1="996" x2="1159" y1="332.7344" y2="332.7344"/><text fill="#000000" font-family="sans-serif" font-size="13" font-weight="bold" lengthAdjust="spacing" textLength="7" x="1003" y="327.8779">7</text><text fill="#000000" font-family="sans-serif" font-size="13" lengthAdjust="spacing" textLength="139" x="1014" y="327.8779">POST Post(DeliveryDto)</text><polygon fill="#181818" points="1351,359.0859,1361,363.0859,1351,367.0859,1355,363.0859" style="stroke:#181818;stroke-width:1.0;"/><line style="stroke:#181818;stroke-width:1.0;" x1="1175" x2="1357" y1="363.0859" y2="363.0859"/><text fill="#000000" font-family="sans-serif" font-size="13" font-weight="bold" lengthAdjust="spacing" textLength="7" x="1182" y="358.2295">8</text><text fill="#000000" font-family="sans-serif" font-size="13" lengthAdjust="spacing" textLength="156" x="1193" y="358.2295">CreateDelivery(DeliveryDto)</text><polygon fill="#181818" points="1509,389.4375,1519,393.4375,1509,397.4375,1513,393.4375" style="stroke:#181818;stroke-width:1.0;"/><line style="stroke:#181818;stroke-width:1.0;" x1="1373" x2="1515" y1="393.4375" y2="393.4375"/><text fill="#000000" font-family="sans-serif" font-size="13" font-weight="bold" lengthAdjust="spacing" textLength="7" x="1380" y="388.5811">9</text><text fill="#000000" font-family="sans-serif" font-size="13" lengthAdjust="spacing" textLength="111" x="1391" y="388.5811">Create(DeliveryDto)</text><polygon fill="#181818" points="1384,419.7891,1374,423.7891,1384,427.7891,1380,423.7891" style="stroke:#181818;stroke-width:1.0;"/><line style="stroke:#181818;stroke-width:1.0;stroke-dasharray:2.0,2.0;" x1="1378" x2="1525" y1="423.7891" y2="423.7891"/><text fill="#000000" font-family="sans-serif" font-size="13" font-weight="bold" lengthAdjust="spacing" textLength="14" x="1390" y="418.9326">10</text><text fill="#000000" font-family="sans-serif" font-size="13" lengthAdjust="spacing" textLength="45" x="1408" y="418.9326">Delivery</text><polygon fill="#181818" points="1849,450.1406,1859,454.1406,1849,458.1406,1853,454.1406" style="stroke:#181818;stroke-width:1.0;"/><line style="stroke:#181818;stroke-width:1.0;" x1="1373" x2="1855" y1="454.1406" y2="454.1406"/><text fill="#000000" font-family="sans-serif" font-size="13" font-weight="bold" lengthAdjust="spacing" textLength="14" x="1380" y="449.2842">11</text><text fill="#000000" font-family="sans-serif" font-size="13" lengthAdjust="spacing" textLength="79" x="1398" y="449.2842">save(Delivery)</text><polygon fill="#181818" points="1384,480.4922,1374,484.4922,1384,488.4922,1380,484.4922" style="stroke:#181818;stroke-width:1.0;"/><line style="stroke:#181818;stroke-width:1.0;stroke-dasharray:2.0,2.0;" x1="1378" x2="1865" y1="484.4922" y2="484.4922"/><text fill="#000000" font-family="sans-serif" font-size="13" font-weight="bold" lengthAdjust="spacing" textLength="14" x="1390" y="479.6357">12</text><text fill="#000000" font-family="sans-serif" font-size="13" lengthAdjust="spacing" textLength="22" x="1408" y="479.6357">true</text><polygon fill="#181818" points="1509,510.8438,1519,514.8438,1509,518.8438,1513,514.8438" style="stroke:#181818;stroke-width:1.0;"/><line style="stroke:#181818;stroke-width:1.0;" x1="1373" x2="1515" y1="514.8438" y2="514.8438"/><text fill="#000000" font-family="sans-serif" font-size="13" font-weight="bold" lengthAdjust="spacing" textLength="14" x="1380" y="509.9873">13</text><text fill="#000000" font-family="sans-serif" font-size="13" lengthAdjust="spacing" textLength="90" x="1398" y="509.9873">toDeliveryDTO()</text><polygon fill="#181818" points="1384,541.1953,1374,545.1953,1384,549.1953,1380,545.1953" style="stroke:#181818;stroke-width:1.0;"/><line style="stroke:#181818;stroke-width:1.0;stroke-dasharray:2.0,2.0;" x1="1378" x2="1525" y1="545.1953" y2="545.1953"/><text fill="#000000" font-family="sans-serif" font-size="13" font-weight="bold" lengthAdjust="spacing" textLength="14" x="1390" y="540.3389">14</text><text fill="#000000" font-family="sans-serif" font-size="13" lengthAdjust="spacing" textLength="65" x="1408" y="540.3389">DeliveryDto</text><polygon fill="#181818" points="1186,571.5469,1176,575.5469,1186,579.5469,1182,575.5469" style="stroke:#181818;stroke-width:1.0;"/><line style="stroke:#181818;stroke-width:1.0;stroke-dasharray:2.0,2.0;" x1="1180" x2="1367" y1="575.5469" y2="575.5469"/><text fill="#000000" font-family="sans-serif" font-size="13" font-weight="bold" lengthAdjust="spacing" textLength="14" x="1192" y="570.6904">15</text><text fill="#000000" font-family="sans-serif" font-size="13" lengthAdjust="spacing" textLength="65" x="1210" y="570.6904">DeliveryDto</text><polygon fill="#181818" points="1007,601.8984,997,605.8984,1007,609.8984,1003,605.8984" style="stroke:#181818;stroke-width:1.0;"/><line style="stroke:#181818;stroke-width:1.0;stroke-dasharray:2.0,2.0;" x1="1001" x2="1164" y1="605.8984" y2="605.8984"/><text fill="#000000" font-family="sans-serif" font-size="13" font-weight="bold" lengthAdjust="spacing" textLength="14" x="1013" y="601.042">16</text><text fill="#000000" font-family="sans-serif" font-size="13" lengthAdjust="spacing" textLength="65" x="1031" y="601.042">DeliveryDto</text><polygon fill="#181818" points="1007,632.25,997,636.25,1007,640.25,1003,636.25" style="stroke:#181818;stroke-width:1.0;"/><line style="stroke:#181818;stroke-width:1.0;stroke-dasharray:2.0,2.0;" x1="1001" x2="1169" y1="636.25" y2="636.25"/><text fill="#000000" font-family="sans-serif" font-size="13" font-weight="bold" lengthAdjust="spacing" textLength="14" x="1013" y="631.3936">17</text><text fill="#000000" font-family="sans-serif" font-size="13" lengthAdjust="spacing" textLength="44" x="1031" y="631.3936">201 OK</text><polygon fill="#181818" points="796,662.6016,786,666.6016,796,670.6016,792,666.6016" style="stroke:#181818;stroke-width:1.0;"/><line style="stroke:#181818;stroke-width:1.0;stroke-dasharray:2.0,2.0;" x1="790" x2="985" y1="666.6016" y2="666.6016"/><text fill="#000000" font-family="sans-serif" font-size="13" font-weight="bold" lengthAdjust="spacing" textLength="14" x="802" y="661.7451">18</text><text fill="#000000" font-family="sans-serif" font-size="13" lengthAdjust="spacing" textLength="86" x="820" y="661.7451">201 CREATED</text><polygon fill="#181818" points="624,692.9531,614,696.9531,624,700.9531,620,696.9531" style="stroke:#181818;stroke-width:1.0;"/><line style="stroke:#181818;stroke-width:1.0;stroke-dasharray:2.0,2.0;" x1="618" x2="774" y1="696.9531" y2="696.9531"/><text fill="#000000" font-family="sans-serif" font-size="13" font-weight="bold" lengthAdjust="spacing" textLength="14" x="630" y="692.0967">19</text><text fill="#000000" font-family="sans-serif" font-size="13" lengthAdjust="spacing" textLength="86" x="648" y="692.0967">201 CREATED</text><polygon fill="#181818" points="105.5,723.3047,95.5,727.3047,105.5,731.3047,101.5,727.3047" style="stroke:#181818;stroke-width:1.0;"/><line style="stroke:#181818;stroke-width:1.0;stroke-dasharray:2.0,2.0;" x1="99.5" x2="602" y1="727.3047" y2="727.3047"/><text fill="#000000" font-family="sans-serif" font-size="13" font-weight="bold" lengthAdjust="spacing" textLength="14" x="111.5" y="722.4482">20</text><text fill="#000000" font-family="sans-serif" font-size="13" lengthAdjust="spacing" textLength="246" x="129.5" y="722.4482">Informs about the success of the operation</text><polygon fill="#181818" points="293,753.6563,283,757.6563,293,761.6563,289,757.6563" style="stroke:#181818;stroke-width:1.0;"/><line style="stroke:#181818;stroke-width:1.0;stroke-dasharray:2.0,2.0;" x1="287" x2="602" y1="757.6563" y2="757.6563"/><text fill="#000000" font-family="sans-serif" font-size="13" font-weight="bold" lengthAdjust="spacing" textLength="14" x="299" y="752.7998">21</text><text fill="#000000" font-family="sans-serif" font-size="13" lengthAdjust="spacing" textLength="279" x="317" y="752.7998">Navigates to the WarehouseManagerComponent</text><line style="stroke:#000000;stroke-width:1.0;stroke-dasharray:2.0,2.0;" x1="10" x2="1942.5" y1="766.6563" y2="766.6563"/><text fill="#000000" font-family="sans-serif" font-size="11" font-weight="bold" lengthAdjust="spacing" textLength="259" x="15" y="778.0752">[If a Delivery already exists with the id entered]</text><polygon fill="#181818" points="1351,799.8438,1361,803.8438,1351,807.8438,1355,803.8438" style="stroke:#181818;stroke-width:1.0;"/><line style="stroke:#181818;stroke-width:1.0;" x1="1175" x2="1357" y1="803.8438" y2="803.8438"/><text fill="#000000" font-family="sans-serif" font-size="13" font-weight="bold" lengthAdjust="spacing" textLength="14" x="1182" y="798.9873">22</text><text fill="#000000" font-family="sans-serif" font-size="13" lengthAdjust="spacing" textLength="156" x="1200" y="798.9873">CreateDelivery(DeliveryDto)</text><polygon fill="#181818" points="1509,830.1953,1519,834.1953,1509,838.1953,1513,834.1953" style="stroke:#181818;stroke-width:1.0;"/><line style="stroke:#181818;stroke-width:1.0;" x1="1373" x2="1515" y1="834.1953" y2="834.1953"/><text fill="#000000" font-family="sans-serif" font-size="13" font-weight="bold" lengthAdjust="spacing" textLength="14" x="1380" y="829.3389">23</text><text fill="#000000" font-family="sans-serif" font-size="13" lengthAdjust="spacing" textLength="111" x="1398" y="829.3389">Create(DeliveryDto)</text><polygon fill="#181818" points="1384,860.5469,1374,864.5469,1384,868.5469,1380,864.5469" style="stroke:#181818;stroke-width:1.0;"/><line style="stroke:#181818;stroke-width:1.0;stroke-dasharray:2.0,2.0;" x1="1378" x2="1525" y1="864.5469" y2="864.5469"/><text fill="#000000" font-family="sans-serif" font-size="13" font-weight="bold" lengthAdjust="spacing" textLength="14" x="1390" y="859.6904">24</text><text fill="#000000" font-family="sans-serif" font-size="13" lengthAdjust="spacing" textLength="45" x="1408" y="859.6904">Delivery</text><polygon fill="#181818" points="1849,890.8984,1859,894.8984,1849,898.8984,1853,894.8984" style="stroke:#181818;stroke-width:1.0;"/><line style="stroke:#181818;stroke-width:1.0;" x1="1373" x2="1855" y1="894.8984" y2="894.8984"/><text fill="#000000" font-family="sans-serif" font-size="13" font-weight="bold" lengthAdjust="spacing" textLength="14" x="1380" y="890.042">25</text><text fill="#000000" font-family="sans-serif" font-size="13" lengthAdjust="spacing" textLength="79" x="1398" y="890.042">save(Delivery)</text><polygon fill="#181818" points="1384,921.25,1374,925.25,1384,929.25,1380,925.25" style="stroke:#181818;stroke-width:1.0;"/><line style="stroke:#181818;stroke-width:1.0;stroke-dasharray:2.0,2.0;" x1="1378" x2="1865" y1="925.25" y2="925.25"/><text fill="#000000" font-family="sans-serif" font-size="13" font-weight="bold" lengthAdjust="spacing" textLength="14" x="1390" y="920.3936">26</text><text fill="#000000" font-family="sans-serif" font-size="13" lengthAdjust="spacing" textLength="27" x="1408" y="920.3936">false</text><polygon fill="#181818" points="1186,951.6016,1176,955.6016,1186,959.6016,1182,955.6016" style="stroke:#181818;stroke-width:1.0;"/><line style="stroke:#181818;stroke-width:1.0;stroke-dasharray:2.0,2.0;" x1="1180" x2="1367" y1="955.6016" y2="955.6016"/><text fill="#000000" font-family="sans-serif" font-size="13" font-weight="bold" lengthAdjust="spacing" textLength="14" x="1192" y="950.7451">27</text><text fill="#000000" font-family="sans-serif" font-size="13" lengthAdjust="spacing" textLength="129" x="1210" y="950.7451">BadRequestException</text><polygon fill="#181818" points="1007,981.9531,997,985.9531,1007,989.9531,1003,985.9531" style="stroke:#181818;stroke-width:1.0;"/><line style="stroke:#181818;stroke-width:1.0;stroke-dasharray:2.0,2.0;" x1="1001" x2="1169" y1="985.9531" y2="985.9531"/><text fill="#000000" font-family="sans-serif" font-size="13" font-weight="bold" lengthAdjust="spacing" textLength="14" x="1013" y="981.0967">28</text><text fill="#000000" font-family="sans-serif" font-size="13" lengthAdjust="spacing" textLength="118" x="1031" y="981.0967">400 BAD REQUEST</text><polygon fill="#181818" points="796,1012.3047,786,1016.3047,796,1020.3047,792,1016.3047" style="stroke:#181818;stroke-width:1.0;"/><line style="stroke:#181818;stroke-width:1.0;stroke-dasharray:2.0,2.0;" x1="790" x2="985" y1="1016.3047" y2="1016.3047"/><text fill="#000000" font-family="sans-serif" font-size="13" font-weight="bold" lengthAdjust="spacing" textLength="14" x="802" y="1011.4482">29</text><text fill="#000000" font-family="sans-serif" font-size="13" lengthAdjust="spacing" textLength="118" x="820" y="1011.4482">400 BAD REQUEST</text><polygon fill="#181818" points="624,1042.6563,614,1046.6563,624,1050.6563,620,1046.6563" style="stroke:#181818;stroke-width:1.0;"/><line style="stroke:#181818;stroke-width:1.0;stroke-dasharray:2.0,2.0;" x1="618" x2="774" y1="1046.6563" y2="1046.6563"/><text fill="#000000" font-family="sans-serif" font-size="13" font-weight="bold" lengthAdjust="spacing" textLength="14" x="630" y="1041.7998">30</text><text fill="#000000" font-family="sans-serif" font-size="13" lengthAdjust="spacing" textLength="118" x="648" y="1041.7998">400 BAD REQUEST</text><polygon fill="#181818" points="105.5,1073.0078,95.5,1077.0078,105.5,1081.0078,101.5,1077.0078" style="stroke:#181818;stroke-width:1.0;"/><line style="stroke:#181818;stroke-width:1.0;stroke-dasharray:2.0,2.0;" x1="99.5" x2="602" y1="1077.0078" y2="1077.0078"/><text fill="#000000" font-family="sans-serif" font-size="13" font-weight="bold" lengthAdjust="spacing" textLength="14" x="111.5" y="1072.1514">31</text><text fill="#000000" font-family="sans-serif" font-size="13" lengthAdjust="spacing" textLength="213" x="129.5" y="1072.1514">Informs about the fail of the operation</text><!--MD5=[639f14d49678819f9264c00090797153]
@startuml createDeliverySD
autonumber

skinparam sequence {
ParticipantBorderColor black
ParticipantBackgroundColor white
}

actor "Warehouse Manager" as admin


box "<<Container(C4)>>\n       User Interface" #LightYellow
participant WarehouseManagerComponent as whComponent <<Component(C4)>>
participant CreateDeliveryComponent as createDeliveryComponent <<Component(C4)>>
participant DeliveryService as deliveryService <<Component(C4)>>
end box

box "<<System(C4)>>\n   System" #Grey
participant Auth as auth <<Container(C4)>>
box "<<Container(C4)>>\nWarehouse Management" #LightGreen
participant DeliveryController as  CTL <<Component(C4)>>
participant DeliveryService as  SV <<Component(C4)>>
participant "Delivery : Delivery" as  delivery <<Component(C4)>>
participant "DeliveryDTO : DeliveryDTO" as  DTO <<Component(C4)>>
participant DeliveryRepository as  DR <<Component(C4)>>
end box

activate admin

admin -> whComponent : Asks to create a delivery
activate whComponent

whComponent -> createDeliveryComponent : Navigates to the CreateDeliveryComponent
activate createDeliveryComponent

createDeliveryComponent - -> admin: asks for the details on the new Delivery

admin -> createDeliveryComponent: inserts the information about the new Delivery

createDeliveryComponent -> deliveryService : createDelivery(delivery)
activate deliveryService

deliveryService -> auth : POST createDelivery(delivery)
activate auth



alt If the Delivery doesn't exist in the system 
auth -> CTL: POST Post(DeliveryDto)
activate CTL
CTL -> SV : CreateDelivery(DeliveryDto)
activate SV

SV -> delivery : Create(DeliveryDto)
activate delivery
delivery - -> SV : Delivery 
deactivate delivery

SV -> DR : save(Delivery)
activate DR
DR - -> SV : true 
deactivate DR

SV -> delivery : toDeliveryDTO()
activate delivery
delivery - -> SV : DeliveryDto
deactivate delivery
SV - -> CTL : DeliveryDto
deactivate SV
CTL - -> auth : DeliveryDto

CTL - -> auth: 201 OK
deactivate CTL


auth - -> deliveryService: 201 CREATED

deliveryService - -> createDeliveryComponent: 201 CREATED



createDeliveryComponent - -> admin: Informs about the success of the operation

createDeliveryComponent - ->  whComponent: Navigates to the WarehouseManagerComponent



else If a Delivery already exists with the id entered




CTL -> SV : CreateDelivery(DeliveryDto)
activate CTL
activate SV

SV -> delivery : Create(DeliveryDto)
activate delivery
delivery - -> SV : Delivery 
deactivate delivery

SV -> DR : save(Delivery)
activate DR
DR - -> SV : false
deactivate DR
SV - -> CTL : BadRequestException
deactivate SV

CTL - -> auth: 400 BAD REQUEST
deactivate CTL


auth - -> deliveryService: 400 BAD REQUEST

deliveryService - -> createDeliveryComponent: 400 BAD REQUEST

createDeliveryComponent - -> admin: Informs about the fail of the operation
end

deactivate auth
deactivate deliveryService
deactivate createDeliveryComponent
deactivate whComponent

deactivate admin

@enduml

PlantUML version 1.2022.7(Mon Aug 22 18:01:30 WEST 2022)
(GPL source distribution)
Java Runtime: Java(TM) SE Runtime Environment
JVM: Java HotSpot(TM) 64-Bit Server VM
Default Encoding: Cp1252
Language: pt
Country: PT
--></g></svg>