<?xml version="1.0" encoding="UTF-8" standalone="no"?><svg xmlns="http://www.w3.org/2000/svg" xmlns:xlink="http://www.w3.org/1999/xlink" contentStyleType="text/css" height="1040px" preserveAspectRatio="none" style="width:1387px;height:1040px;background:#FFFFFF;" version="1.1" viewBox="0 0 1387 1040" width="1387px" zoomAndPan="magnify"><defs/><g><rect fill="#DDDDDD" height="1028.1797" style="stroke:#181818;stroke-width:0.5;" width="920.5" x="339.5" y="6"/><text fill="#000000" font-family="sans-serif" font-size="13" font-weight="bold" lengthAdjust="spacing" textLength="102" x="748.75" y="19.4951">&lt;&lt;System(C4)&gt;&gt;</text><text fill="#000000" font-family="sans-serif" font-size="13" font-weight="bold" lengthAdjust="spacing" textLength="46" x="776.75" y="35.8467">System</text><rect fill="#FFFFFF" height="840.6484" style="stroke:#181818;stroke-width:1.0;" width="10" x="75.5" y="102.9219"/><rect fill="#FFFFFF" height="818.2969" style="stroke:#181818;stroke-width:1.0;" width="10" x="398.5" y="125.2734"/><rect fill="#FFFFFF" height="30.3516" style="stroke:#181818;stroke-width:1.0;" width="10" x="670.5" y="180.9766"/><rect fill="#FFFFFF" height="497.9453" style="stroke:#181818;stroke-width:1.0;" width="10" x="670.5" y="446.625"/><rect fill="#FFFFFF" height="421.2422" style="stroke:#181818;stroke-width:1.0;" width="10" x="942.5" y="476.9766"/><rect fill="#FFFFFF" height="330.1875" style="stroke:#181818;stroke-width:1.0;" width="10" x="1166.5" y="507.3281"/><rect fill="#FFFFFF" height="30.3516" style="stroke:#181818;stroke-width:1.0;" width="10" x="1313" y="257.5156"/><rect fill="none" height="155.5938" style="stroke:#000000;stroke-width:1.5;" width="1046.5" x="333.5" y="140.2734"/><rect fill="none" height="414.2422" style="stroke:#000000;stroke-width:1.5;" width="1256" x="10" y="522.3281"/><line style="stroke:#181818;stroke-width:0.5;stroke-dasharray:5.0,5.0;" x1="80" x2="80" y1="92.9219" y2="953.5703"/><line style="stroke:#181818;stroke-width:0.5;stroke-dasharray:5.0,5.0;" x1="403.5" x2="403.5" y1="92.9219" y2="953.5703"/><line style="stroke:#181818;stroke-width:0.5;stroke-dasharray:5.0,5.0;" x1="675.5" x2="675.5" y1="92.9219" y2="953.5703"/><line style="stroke:#181818;stroke-width:0.5;stroke-dasharray:5.0,5.0;" x1="947.5" x2="947.5" y1="92.9219" y2="953.5703"/><line style="stroke:#181818;stroke-width:0.5;stroke-dasharray:5.0,5.0;" x1="1171" x2="1171" y1="92.9219" y2="953.5703"/><line style="stroke:#181818;stroke-width:0.5;stroke-dasharray:5.0,5.0;" x1="1318" x2="1318" y1="92.9219" y2="953.5703"/><text fill="#000000" font-family="sans-serif" font-size="14" lengthAdjust="spacing" textLength="115" x="20" y="89.8457">Logistics Manager</text><ellipse cx="80.5" cy="23.8125" fill="#E2E2F0" rx="8" ry="8" style="stroke:#181818;stroke-width:0.5;"/><path d="M80.5,31.8125 L80.5,58.8125 M67.5,39.8125 L93.5,39.8125 M80.5,58.8125 L67.5,73.8125 M80.5,58.8125 L93.5,73.8125 " fill="none" style="stroke:#181818;stroke-width:0.5;"/><text fill="#000000" font-family="sans-serif" font-size="14" lengthAdjust="spacing" textLength="115" x="20" y="967.1035">Logistics Manager</text><ellipse cx="80.5" cy="978.6797" fill="#E2E2F0" rx="8" ry="8" style="stroke:#181818;stroke-width:0.5;"/><path d="M80.5,986.6797 L80.5,1013.6797 M67.5,994.6797 L93.5,994.6797 M80.5,1013.6797 L67.5,1028.6797 M80.5,1013.6797 L93.5,1028.6797 " fill="none" style="stroke:#181818;stroke-width:0.5;"/><rect fill="#FFFFFF" height="49.2188" rx="2.5" ry="2.5" style="stroke:#000000;stroke-width:0.5;" width="120" x="343.5" y="42.7031"/><text fill="#000000" font-family="sans-serif" font-size="14" font-style="italic" lengthAdjust="spacing" textLength="106" x="350.5" y="64.2363">«Container(C4)»</text><text fill="#000000" font-family="sans-serif" font-size="14" lengthAdjust="spacing" textLength="12" x="397.5" y="81.8457">UI</text><rect fill="#FFFFFF" height="49.2188" rx="2.5" ry="2.5" style="stroke:#000000;stroke-width:0.5;" width="120" x="343.5" y="952.5703"/><text fill="#000000" font-family="sans-serif" font-size="14" font-style="italic" lengthAdjust="spacing" textLength="106" x="350.5" y="974.1035">«Container(C4)»</text><text fill="#000000" font-family="sans-serif" font-size="14" lengthAdjust="spacing" textLength="12" x="397.5" y="991.7129">UI</text><rect fill="#FFFFFF" height="49.2188" rx="2.5" ry="2.5" style="stroke:#000000;stroke-width:0.5;" width="120" x="615.5" y="42.7031"/><text fill="#000000" font-family="sans-serif" font-size="14" font-style="italic" lengthAdjust="spacing" textLength="106" x="622.5" y="64.2363">«Container(C4)»</text><text fill="#000000" font-family="sans-serif" font-size="14" lengthAdjust="spacing" textLength="29" x="661" y="81.8457">Auth</text><rect fill="#FFFFFF" height="49.2188" rx="2.5" ry="2.5" style="stroke:#000000;stroke-width:0.5;" width="120" x="615.5" y="952.5703"/><text fill="#000000" font-family="sans-serif" font-size="14" font-style="italic" lengthAdjust="spacing" textLength="106" x="622.5" y="974.1035">«Container(C4)»</text><text fill="#000000" font-family="sans-serif" font-size="14" lengthAdjust="spacing" textLength="29" x="661" y="991.7129">Auth</text><rect fill="#FFFFFF" height="49.2188" rx="2.5" ry="2.5" style="stroke:#000000;stroke-width:0.5;" width="120" x="887.5" y="42.7031"/><text fill="#000000" font-family="sans-serif" font-size="14" font-style="italic" lengthAdjust="spacing" textLength="106" x="894.5" y="64.2363">«Container(C4)»</text><text fill="#000000" font-family="sans-serif" font-size="14" lengthAdjust="spacing" textLength="55" x="920" y="81.8457">Logistics</text><rect fill="#FFFFFF" height="49.2188" rx="2.5" ry="2.5" style="stroke:#000000;stroke-width:0.5;" width="120" x="887.5" y="952.5703"/><text fill="#000000" font-family="sans-serif" font-size="14" font-style="italic" lengthAdjust="spacing" textLength="106" x="894.5" y="974.1035">«Container(C4)»</text><text fill="#000000" font-family="sans-serif" font-size="14" lengthAdjust="spacing" textLength="55" x="920" y="991.7129">Logistics</text><rect fill="#FFFFFF" height="49.2188" rx="2.5" ry="2.5" style="stroke:#000000;stroke-width:0.5;" width="169" x="1087" y="42.7031"/><text fill="#000000" font-family="sans-serif" font-size="14" font-style="italic" lengthAdjust="spacing" textLength="106" x="1118.5" y="64.2363">«Container(C4)»</text><text fill="#000000" font-family="sans-serif" font-size="14" lengthAdjust="spacing" textLength="155" x="1094" y="81.8457">WarehouseManagement</text><rect fill="#FFFFFF" height="49.2188" rx="2.5" ry="2.5" style="stroke:#000000;stroke-width:0.5;" width="169" x="1087" y="952.5703"/><text fill="#000000" font-family="sans-serif" font-size="14" font-style="italic" lengthAdjust="spacing" textLength="106" x="1118.5" y="974.1035">«Container(C4)»</text><text fill="#000000" font-family="sans-serif" font-size="14" lengthAdjust="spacing" textLength="155" x="1094" y="991.7129">WarehouseManagement</text><rect fill="#FFFFFF" height="49.2188" rx="2.5" ry="2.5" style="stroke:#000000;stroke-width:0.5;" width="104" x="1266" y="42.7031"/><text fill="#000000" font-family="sans-serif" font-size="14" font-style="italic" lengthAdjust="spacing" textLength="90" x="1273" y="64.2363">«System(C4)»</text><text fill="#000000" font-family="sans-serif" font-size="14" lengthAdjust="spacing" textLength="46" x="1295" y="81.8457">Google</text><rect fill="#FFFFFF" height="49.2188" rx="2.5" ry="2.5" style="stroke:#000000;stroke-width:0.5;" width="104" x="1266" y="952.5703"/><text fill="#000000" font-family="sans-serif" font-size="14" font-style="italic" lengthAdjust="spacing" textLength="90" x="1273" y="974.1035">«System(C4)»</text><text fill="#000000" font-family="sans-serif" font-size="14" lengthAdjust="spacing" textLength="46" x="1295" y="991.7129">Google</text><rect fill="#FFFFFF" height="840.6484" style="stroke:#181818;stroke-width:1.0;" width="10" x="75.5" y="102.9219"/><rect fill="#FFFFFF" height="818.2969" style="stroke:#181818;stroke-width:1.0;" width="10" x="398.5" y="125.2734"/><rect fill="#FFFFFF" height="30.3516" style="stroke:#181818;stroke-width:1.0;" width="10" x="670.5" y="180.9766"/><rect fill="#FFFFFF" height="497.9453" style="stroke:#181818;stroke-width:1.0;" width="10" x="670.5" y="446.625"/><rect fill="#FFFFFF" height="421.2422" style="stroke:#181818;stroke-width:1.0;" width="10" x="942.5" y="476.9766"/><rect fill="#FFFFFF" height="330.1875" style="stroke:#181818;stroke-width:1.0;" width="10" x="1166.5" y="507.3281"/><rect fill="#FFFFFF" height="30.3516" style="stroke:#181818;stroke-width:1.0;" width="10" x="1313" y="257.5156"/><polygon fill="#181818" points="386.5,121.2734,396.5,125.2734,386.5,129.2734,390.5,125.2734" style="stroke:#181818;stroke-width:1.0;"/><line style="stroke:#181818;stroke-width:1.0;" x1="85.5" x2="392.5" y1="125.2734" y2="125.2734"/><text fill="#000000" font-family="sans-serif" font-size="13" font-weight="bold" lengthAdjust="spacing" textLength="7" x="92.5" y="120.417">1</text><text fill="#000000" font-family="sans-serif" font-size="13" lengthAdjust="spacing" textLength="80" x="103.5" y="120.417">I want to login</text><path d="M333.5,140.2734 L394.5,140.2734 L394.5,148.625 L384.5,158.625 L333.5,158.625 L333.5,140.2734 " fill="#EEEEEE" style="stroke:#000000;stroke-width:1.5;"/><rect fill="none" height="155.5938" style="stroke:#000000;stroke-width:1.5;" width="1046.5" x="333.5" y="140.2734"/><text fill="#000000" font-family="sans-serif" font-size="13" font-weight="bold" lengthAdjust="spacing" textLength="16" x="348.5" y="154.7686">alt</text><text fill="#000000" font-family="sans-serif" font-size="11" font-weight="bold" lengthAdjust="spacing" textLength="266" x="409.5" y="153.6924">[Login through email and password in EletricGo]</text><polygon fill="#181818" points="658.5,176.9766,668.5,180.9766,658.5,184.9766,662.5,180.9766" style="stroke:#181818;stroke-width:1.0;"/><line style="stroke:#181818;stroke-width:1.0;" x1="408.5" x2="664.5" y1="180.9766" y2="180.9766"/><text fill="#000000" font-family="sans-serif" font-size="13" font-weight="bold" lengthAdjust="spacing" textLength="7" x="415.5" y="176.1201">2</text><text fill="#000000" font-family="sans-serif" font-size="13" lengthAdjust="spacing" textLength="172" x="426.5" y="176.1201">POST Login(email, password)</text><polygon fill="#181818" points="419.5,207.3281,409.5,211.3281,419.5,215.3281,415.5,211.3281" style="stroke:#181818;stroke-width:1.0;"/><line style="stroke:#181818;stroke-width:1.0;stroke-dasharray:2.0,2.0;" x1="413.5" x2="674.5" y1="211.3281" y2="211.3281"/><text fill="#000000" font-family="sans-serif" font-size="13" font-weight="bold" lengthAdjust="spacing" textLength="7" x="425.5" y="206.4717">3</text><text fill="#000000" font-family="sans-serif" font-size="13" lengthAdjust="spacing" textLength="44" x="436.5" y="206.4717">200 OK</text><line style="stroke:#000000;stroke-width:1.0;stroke-dasharray:2.0,2.0;" x1="333.5" x2="1380" y1="220.3281" y2="220.3281"/><text fill="#000000" font-family="sans-serif" font-size="11" font-weight="bold" lengthAdjust="spacing" textLength="128" x="338.5" y="231.7471">[Login through Google]</text><polygon fill="#181818" points="1301,253.5156,1311,257.5156,1301,261.5156,1305,257.5156" style="stroke:#181818;stroke-width:1.0;"/><line style="stroke:#181818;stroke-width:1.0;" x1="408.5" x2="1307" y1="257.5156" y2="257.5156"/><text fill="#000000" font-family="sans-serif" font-size="13" font-weight="bold" lengthAdjust="spacing" textLength="7" x="415.5" y="252.6592">4</text><text fill="#000000" font-family="sans-serif" font-size="13" lengthAdjust="spacing" textLength="153" x="426.5" y="252.6592">Login with Google account</text><polygon fill="#181818" points="419.5,283.8672,409.5,287.8672,419.5,291.8672,415.5,287.8672" style="stroke:#181818;stroke-width:1.0;"/><line style="stroke:#181818;stroke-width:1.0;stroke-dasharray:2.0,2.0;" x1="413.5" x2="1317" y1="287.8672" y2="287.8672"/><text fill="#000000" font-family="sans-serif" font-size="13" font-weight="bold" lengthAdjust="spacing" textLength="7" x="425.5" y="283.0107">5</text><text fill="#000000" font-family="sans-serif" font-size="13" lengthAdjust="spacing" textLength="44" x="436.5" y="283.0107">200 OK</text><polygon fill="#181818" points="96.5,321.2188,86.5,325.2188,96.5,329.2188,92.5,325.2188" style="stroke:#181818;stroke-width:1.0;"/><line style="stroke:#181818;stroke-width:1.0;stroke-dasharray:2.0,2.0;" x1="90.5" x2="397.5" y1="325.2188" y2="325.2188"/><text fill="#000000" font-family="sans-serif" font-size="13" font-weight="bold" lengthAdjust="spacing" textLength="7" x="102.5" y="320.3623">6</text><text fill="#000000" font-family="sans-serif" font-size="13" lengthAdjust="spacing" textLength="198" x="113.5" y="320.3623">informs about the success of login</text><polygon fill="#181818" points="386.5,351.5703,396.5,355.5703,386.5,359.5703,390.5,355.5703" style="stroke:#181818;stroke-width:1.0;"/><line style="stroke:#181818;stroke-width:1.0;" x1="85.5" x2="392.5" y1="355.5703" y2="355.5703"/><text fill="#000000" font-family="sans-serif" font-size="13" font-weight="bold" lengthAdjust="spacing" textLength="7" x="92.5" y="350.7139">7</text><text fill="#000000" font-family="sans-serif" font-size="13" lengthAdjust="spacing" textLength="192" x="103.5" y="350.7139">I want to create a new Packaging</text><polygon fill="#181818" points="96.5,381.9219,86.5,385.9219,96.5,389.9219,92.5,385.9219" style="stroke:#181818;stroke-width:1.0;"/><line style="stroke:#181818;stroke-width:1.0;" x1="90.5" x2="397.5" y1="385.9219" y2="385.9219"/><text fill="#000000" font-family="sans-serif" font-size="13" font-weight="bold" lengthAdjust="spacing" textLength="7" x="102.5" y="381.0654">8</text><text fill="#000000" font-family="sans-serif" font-size="13" lengthAdjust="spacing" textLength="242" x="113.5" y="381.0654">asks for the details on the new Packaging</text><polygon fill="#181818" points="386.5,412.2734,396.5,416.2734,386.5,420.2734,390.5,416.2734" style="stroke:#181818;stroke-width:1.0;"/><line style="stroke:#181818;stroke-width:1.0;" x1="85.5" x2="392.5" y1="416.2734" y2="416.2734"/><text fill="#000000" font-family="sans-serif" font-size="13" font-weight="bold" lengthAdjust="spacing" textLength="7" x="92.5" y="411.417">9</text><text fill="#000000" font-family="sans-serif" font-size="13" lengthAdjust="spacing" textLength="278" x="103.5" y="411.417">inserts the information about the new Packaging</text><polygon fill="#181818" points="658.5,442.625,668.5,446.625,658.5,450.625,662.5,446.625" style="stroke:#181818;stroke-width:1.0;"/><line style="stroke:#181818;stroke-width:1.0;" x1="408.5" x2="664.5" y1="446.625" y2="446.625"/><text fill="#000000" font-family="sans-serif" font-size="13" font-weight="bold" lengthAdjust="spacing" textLength="14" x="415.5" y="441.7686">10</text><text fill="#000000" font-family="sans-serif" font-size="13" lengthAdjust="spacing" textLength="225" x="433.5" y="441.7686">POST createPackaging(PackagingInfo)</text><polygon fill="#181818" points="930.5,472.9766,940.5,476.9766,930.5,480.9766,934.5,476.9766" style="stroke:#181818;stroke-width:1.0;"/><line style="stroke:#181818;stroke-width:1.0;" x1="680.5" x2="936.5" y1="476.9766" y2="476.9766"/><text fill="#000000" font-family="sans-serif" font-size="13" font-weight="bold" lengthAdjust="spacing" textLength="14" x="687.5" y="472.1201">11</text><text fill="#000000" font-family="sans-serif" font-size="13" lengthAdjust="spacing" textLength="225" x="705.5" y="472.1201">POST createPackaging(PackagingInfo)</text><polygon fill="#181818" points="1154.5,503.3281,1164.5,507.3281,1154.5,511.3281,1158.5,507.3281" style="stroke:#181818;stroke-width:1.0;"/><line style="stroke:#181818;stroke-width:1.0;" x1="952.5" x2="1160.5" y1="507.3281" y2="507.3281"/><text fill="#000000" font-family="sans-serif" font-size="13" font-weight="bold" lengthAdjust="spacing" textLength="14" x="959.5" y="502.4717">12</text><text fill="#000000" font-family="sans-serif" font-size="13" lengthAdjust="spacing" textLength="177" x="977.5" y="502.4717">GET ExistsDelivery(DeliveryID)</text><path d="M10,522.3281 L71,522.3281 L71,530.6797 L61,540.6797 L10,540.6797 L10,522.3281 " fill="#EEEEEE" style="stroke:#000000;stroke-width:1.5;"/><rect fill="none" height="414.2422" style="stroke:#000000;stroke-width:1.5;" width="1256" x="10" y="522.3281"/><text fill="#000000" font-family="sans-serif" font-size="13" font-weight="bold" lengthAdjust="spacing" textLength="16" x="25" y="536.8232">alt</text><text fill="#000000" font-family="sans-serif" font-size="11" font-weight="bold" lengthAdjust="spacing" textLength="246" x="86" y="535.7471">[Packaging doesn't exist and Delivery exists]</text><polygon fill="#181818" points="963.5,559.0313,953.5,563.0313,963.5,567.0313,959.5,563.0313" style="stroke:#181818;stroke-width:1.0;"/><line style="stroke:#181818;stroke-width:1.0;" x1="957.5" x2="1165.5" y1="563.0313" y2="563.0313"/><text fill="#000000" font-family="sans-serif" font-size="13" font-weight="bold" lengthAdjust="spacing" textLength="14" x="969.5" y="558.1748">13</text><text fill="#000000" font-family="sans-serif" font-size="13" lengthAdjust="spacing" textLength="44" x="987.5" y="558.1748">200 OK</text><polygon fill="#181818" points="691.5,589.3828,681.5,593.3828,691.5,597.3828,687.5,593.3828" style="stroke:#181818;stroke-width:1.0;"/><line style="stroke:#181818;stroke-width:1.0;stroke-dasharray:2.0,2.0;" x1="685.5" x2="941.5" y1="593.3828" y2="593.3828"/><text fill="#000000" font-family="sans-serif" font-size="13" font-weight="bold" lengthAdjust="spacing" textLength="14" x="697.5" y="588.5264">14</text><text fill="#000000" font-family="sans-serif" font-size="13" lengthAdjust="spacing" textLength="70" x="715.5" y="588.5264">201 Created</text><polygon fill="#181818" points="419.5,619.7344,409.5,623.7344,419.5,627.7344,415.5,623.7344" style="stroke:#181818;stroke-width:1.0;"/><line style="stroke:#181818;stroke-width:1.0;stroke-dasharray:2.0,2.0;" x1="413.5" x2="669.5" y1="623.7344" y2="623.7344"/><text fill="#000000" font-family="sans-serif" font-size="13" font-weight="bold" lengthAdjust="spacing" textLength="14" x="425.5" y="618.8779">15</text><text fill="#000000" font-family="sans-serif" font-size="13" lengthAdjust="spacing" textLength="70" x="443.5" y="618.8779">201 Created</text><polygon fill="#181818" points="96.5,650.0859,86.5,654.0859,96.5,658.0859,92.5,654.0859" style="stroke:#181818;stroke-width:1.0;"/><line style="stroke:#181818;stroke-width:1.0;stroke-dasharray:2.0,2.0;" x1="90.5" x2="397.5" y1="654.0859" y2="654.0859"/><text fill="#000000" font-family="sans-serif" font-size="13" font-weight="bold" lengthAdjust="spacing" textLength="14" x="102.5" y="649.2295">16</text><text fill="#000000" font-family="sans-serif" font-size="13" lengthAdjust="spacing" textLength="232" x="120.5" y="649.2295">shows information about new Packaging</text><line style="stroke:#000000;stroke-width:1.0;stroke-dasharray:2.0,2.0;" x1="10" x2="1266" y1="663.0859" y2="663.0859"/><text fill="#000000" font-family="sans-serif" font-size="11" font-weight="bold" lengthAdjust="spacing" textLength="251" x="15" y="674.5049">[Packaging already exists and Delivery exists]</text><polygon fill="#181818" points="963.5,696.2734,953.5,700.2734,963.5,704.2734,959.5,700.2734" style="stroke:#181818;stroke-width:1.0;"/><line style="stroke:#181818;stroke-width:1.0;" x1="957.5" x2="1165.5" y1="700.2734" y2="700.2734"/><text fill="#000000" font-family="sans-serif" font-size="13" font-weight="bold" lengthAdjust="spacing" textLength="14" x="969.5" y="695.417">17</text><text fill="#000000" font-family="sans-serif" font-size="13" lengthAdjust="spacing" textLength="44" x="987.5" y="695.417">200 OK</text><polygon fill="#181818" points="691.5,726.625,681.5,730.625,691.5,734.625,687.5,730.625" style="stroke:#181818;stroke-width:1.0;"/><line style="stroke:#181818;stroke-width:1.0;stroke-dasharray:2.0,2.0;" x1="685.5" x2="941.5" y1="730.625" y2="730.625"/><text fill="#000000" font-family="sans-serif" font-size="13" font-weight="bold" lengthAdjust="spacing" textLength="14" x="697.5" y="725.7686">18</text><text fill="#000000" font-family="sans-serif" font-size="13" lengthAdjust="spacing" textLength="68" x="715.5" y="725.7686">409 Conflict</text><polygon fill="#181818" points="419.5,756.9766,409.5,760.9766,419.5,764.9766,415.5,760.9766" style="stroke:#181818;stroke-width:1.0;"/><line style="stroke:#181818;stroke-width:1.0;stroke-dasharray:2.0,2.0;" x1="413.5" x2="669.5" y1="760.9766" y2="760.9766"/><text fill="#000000" font-family="sans-serif" font-size="13" font-weight="bold" lengthAdjust="spacing" textLength="14" x="425.5" y="756.1201">19</text><text fill="#000000" font-family="sans-serif" font-size="13" lengthAdjust="spacing" textLength="68" x="443.5" y="756.1201">409 Conflict</text><polygon fill="#181818" points="96.5,787.3281,86.5,791.3281,96.5,795.3281,92.5,791.3281" style="stroke:#181818;stroke-width:1.0;"/><line style="stroke:#181818;stroke-width:1.0;stroke-dasharray:2.0,2.0;" x1="90.5" x2="397.5" y1="791.3281" y2="791.3281"/><text fill="#000000" font-family="sans-serif" font-size="13" font-weight="bold" lengthAdjust="spacing" textLength="14" x="102.5" y="786.4717">20</text><text fill="#000000" font-family="sans-serif" font-size="13" lengthAdjust="spacing" textLength="224" x="120.5" y="786.4717">informs about the failure of the creation</text><line style="stroke:#000000;stroke-width:1.0;stroke-dasharray:2.0,2.0;" x1="10" x2="1266" y1="800.3281" y2="800.3281"/><text fill="#000000" font-family="sans-serif" font-size="11" font-weight="bold" lengthAdjust="spacing" textLength="137" x="15" y="811.7471">[DeliveryID doesn't exist]</text><polygon fill="#181818" points="963.5,833.5156,953.5,837.5156,963.5,841.5156,959.5,837.5156" style="stroke:#181818;stroke-width:1.0;"/><line style="stroke:#181818;stroke-width:1.0;" x1="957.5" x2="1170.5" y1="837.5156" y2="837.5156"/><text fill="#000000" font-family="sans-serif" font-size="13" font-weight="bold" lengthAdjust="spacing" textLength="14" x="969.5" y="832.6592">21</text><text fill="#000000" font-family="sans-serif" font-size="13" lengthAdjust="spacing" textLength="85" x="987.5" y="832.6592">404 Not Found</text><polygon fill="#181818" points="691.5,863.8672,681.5,867.8672,691.5,871.8672,687.5,867.8672" style="stroke:#181818;stroke-width:1.0;"/><line style="stroke:#181818;stroke-width:1.0;stroke-dasharray:2.0,2.0;" x1="685.5" x2="941.5" y1="867.8672" y2="867.8672"/><text fill="#000000" font-family="sans-serif" font-size="13" font-weight="bold" lengthAdjust="spacing" textLength="14" x="697.5" y="863.0107">22</text><text fill="#000000" font-family="sans-serif" font-size="13" lengthAdjust="spacing" textLength="85" x="715.5" y="863.0107">404 Not Found</text><polygon fill="#181818" points="419.5,894.2188,409.5,898.2188,419.5,902.2188,415.5,898.2188" style="stroke:#181818;stroke-width:1.0;"/><line style="stroke:#181818;stroke-width:1.0;stroke-dasharray:2.0,2.0;" x1="413.5" x2="669.5" y1="898.2188" y2="898.2188"/><text fill="#000000" font-family="sans-serif" font-size="13" font-weight="bold" lengthAdjust="spacing" textLength="14" x="425.5" y="893.3623">23</text><text fill="#000000" font-family="sans-serif" font-size="13" lengthAdjust="spacing" textLength="85" x="443.5" y="893.3623">404 Not Found</text><polygon fill="#181818" points="96.5,924.5703,86.5,928.5703,96.5,932.5703,92.5,928.5703" style="stroke:#181818;stroke-width:1.0;"/><line style="stroke:#181818;stroke-width:1.0;stroke-dasharray:2.0,2.0;" x1="90.5" x2="397.5" y1="928.5703" y2="928.5703"/><text fill="#000000" font-family="sans-serif" font-size="13" font-weight="bold" lengthAdjust="spacing" textLength="14" x="102.5" y="923.7139">24</text><text fill="#000000" font-family="sans-serif" font-size="13" lengthAdjust="spacing" textLength="219" x="120.5" y="923.7139">informs about the incorrect Delivery ID</text><!--MD5=[d0df738c7df356d065dcdafc5578766d]
@startuml createPackagingSD
autonumber

skinparam sequence {
ParticipantBorderColor black
ParticipantBackgroundColor white
}

actor "Logistics Manager" as manager
box "<<System(C4)>>\n       System"
participant UI as  UI <<Container(C4)>>
participant Auth as  Auth <<Container(C4)>>
participant Logistics as  Logistics <<Container(C4)>>
participant WarehouseManagement as  WarehouseManagement <<Container(C4)>>
end box

participant Google as Google <<System(C4)>>


activate manager
manager->UI: I want to login
activate UI

alt Login through email and password in EletricGo

UI -> Auth: POST Login(email, password)
activate Auth

Auth - -> UI: 200 OK
deactivate Auth

else Login through Google

UI -> Google: Login with Google account
activate Google
Google - -> UI: 200 OK
deactivate Google

end



UI - -> manager: informs about the success of login

manager -> UI: I want to create a new Packaging


UI -> manager: asks for the details on the new Packaging


manager -> UI: inserts the information about the new Packaging



UI -> Auth: POST createPackaging(PackagingInfo)
activate Auth
Auth -> Logistics: POST createPackaging(PackagingInfo)
activate Logistics
Logistics -> WarehouseManagement: GET ExistsDelivery(DeliveryID)
activate WarehouseManagement



alt Packaging doesn't exist and Delivery exists

WarehouseManagement -> Logistics: 200 OK

Logistics - -> Auth: 201 Created
Auth - -> UI: 201 Created
UI - -> manager:  shows information about new Packaging


else Packaging already exists and Delivery exists

WarehouseManagement -> Logistics: 200 OK

Logistics - -> Auth: 409 Conflict
Auth - -> UI: 409 Conflict

UI - -> manager: informs about the failure of the creation

else DeliveryID doesn't exist

WarehouseManagement -> Logistics: 404 Not Found
deactivate WarehouseManagement
Logistics - -> Auth: 404 Not Found
Auth - -> UI: 404 Not Found
deactivate Logistics
UI - -> manager: informs about the incorrect Delivery ID


end

deactivate UI
deactivate manager


@enduml

PlantUML version 1.2022.7(Mon Aug 22 18:01:30 WEST 2022)
(GPL source distribution)
Java Runtime: Java(TM) SE Runtime Environment
JVM: Java HotSpot(TM) 64-Bit Server VM
Default Encoding: Cp1252
Language: en
Country: GB
--></g></svg>