<?xml version="1.0" encoding="UTF-8" standalone="no"?><svg xmlns="http://www.w3.org/2000/svg" xmlns:xlink="http://www.w3.org/1999/xlink" contentStyleType="text/css" height="947px" preserveAspectRatio="none" style="width:1190px;height:947px;background:#FFFFFF;" version="1.1" viewBox="0 0 1190 947" width="1190px" zoomAndPan="magnify"><defs/><g><rect fill="#DDDDDD" height="935.7969" style="stroke:#181818;stroke-width:0.5;" width="666.5" x="396.5" y="6"/><text fill="#000000" font-family="sans-serif" font-size="13" font-weight="bold" lengthAdjust="spacing" textLength="114" x="672.75" y="19.4951">&lt;&lt;EletricGo(C4)&gt;&gt;</text><text fill="#000000" font-family="sans-serif" font-size="13" font-weight="bold" lengthAdjust="spacing" textLength="46" x="704.75" y="35.8467">System</text><rect fill="#FFFFFF" height="748.2656" style="stroke:#181818;stroke-width:1.0;" width="10" x="84.5" y="102.9219"/><rect fill="#FFFFFF" height="725.9141" style="stroke:#181818;stroke-width:1.0;" width="10" x="455.5" y="125.2734"/><rect fill="#FFFFFF" height="30.3516" style="stroke:#181818;stroke-width:1.0;" width="10" x="712.5" y="180.9766"/><rect fill="#FFFFFF" height="405.5625" style="stroke:#181818;stroke-width:1.0;" width="10" x="712.5" y="446.625"/><rect fill="#FFFFFF" height="98.7266" style="stroke:#181818;stroke-width:1.0;" width="10" x="969.5" y="476.9766"/><rect fill="#FFFFFF" height="76.5391" style="stroke:#181818;stroke-width:1.0;" width="10" x="969.5" y="622.4063"/><rect fill="#FFFFFF" height="76.5391" style="stroke:#181818;stroke-width:1.0;" width="10" x="969.5" y="729.2969"/><rect fill="#FFFFFF" height="30.3516" style="stroke:#181818;stroke-width:1.0;" width="10" x="1116" y="257.5156"/><rect fill="none" height="155.5938" style="stroke:#000000;stroke-width:1.5;" width="792.5" x="390.5" y="140.2734"/><rect fill="none" height="352.2109" style="stroke:#000000;stroke-width:1.5;" width="1059" x="10" y="491.9766"/><line style="stroke:#181818;stroke-width:0.5;stroke-dasharray:5.0,5.0;" x1="89" x2="89" y1="92.9219" y2="861.1875"/><line style="stroke:#181818;stroke-width:0.5;stroke-dasharray:5.0,5.0;" x1="460.5" x2="460.5" y1="92.9219" y2="861.1875"/><line style="stroke:#181818;stroke-width:0.5;stroke-dasharray:5.0,5.0;" x1="717.5" x2="717.5" y1="92.9219" y2="861.1875"/><line style="stroke:#181818;stroke-width:0.5;stroke-dasharray:5.0,5.0;" x1="974" x2="974" y1="92.9219" y2="861.1875"/><line style="stroke:#181818;stroke-width:0.5;stroke-dasharray:5.0,5.0;" x1="1121" x2="1121" y1="92.9219" y2="861.1875"/><text fill="#000000" font-family="sans-serif" font-size="14" lengthAdjust="spacing" textLength="133" x="20" y="89.8457">Warehouse Manager</text><ellipse cx="89.5" cy="23.8125" fill="#E2E2F0" rx="8" ry="8" style="stroke:#181818;stroke-width:0.5;"/><path d="M89.5,31.8125 L89.5,58.8125 M76.5,39.8125 L102.5,39.8125 M89.5,58.8125 L76.5,73.8125 M89.5,58.8125 L102.5,73.8125 " fill="none" style="stroke:#181818;stroke-width:0.5;"/><text fill="#000000" font-family="sans-serif" font-size="14" lengthAdjust="spacing" textLength="133" x="20" y="874.7207">Warehouse Manager</text><ellipse cx="89.5" cy="886.2969" fill="#E2E2F0" rx="8" ry="8" style="stroke:#181818;stroke-width:0.5;"/><path d="M89.5,894.2969 L89.5,921.2969 M76.5,902.2969 L102.5,902.2969 M89.5,921.2969 L76.5,936.2969 M89.5,921.2969 L102.5,936.2969 " fill="none" style="stroke:#181818;stroke-width:0.5;"/><rect fill="#FFFFFF" height="49.2188" rx="2.5" ry="2.5" style="stroke:#000000;stroke-width:0.5;" width="120" x="400.5" y="42.7031"/><text fill="#000000" font-family="sans-serif" font-size="14" font-style="italic" lengthAdjust="spacing" textLength="106" x="407.5" y="64.2363">«Container(C4)»</text><text fill="#000000" font-family="sans-serif" font-size="14" lengthAdjust="spacing" textLength="12" x="454.5" y="81.8457">UI</text><rect fill="#FFFFFF" height="49.2188" rx="2.5" ry="2.5" style="stroke:#000000;stroke-width:0.5;" width="120" x="400.5" y="860.1875"/><text fill="#000000" font-family="sans-serif" font-size="14" font-style="italic" lengthAdjust="spacing" textLength="106" x="407.5" y="881.7207">«Container(C4)»</text><text fill="#000000" font-family="sans-serif" font-size="14" lengthAdjust="spacing" textLength="12" x="454.5" y="899.3301">UI</text><rect fill="#FFFFFF" height="49.2188" rx="2.5" ry="2.5" style="stroke:#000000;stroke-width:0.5;" width="120" x="657.5" y="42.7031"/><text fill="#000000" font-family="sans-serif" font-size="14" font-style="italic" lengthAdjust="spacing" textLength="106" x="664.5" y="64.2363">«Container(C4)»</text><text fill="#000000" font-family="sans-serif" font-size="14" lengthAdjust="spacing" textLength="29" x="703" y="81.8457">Auth</text><rect fill="#FFFFFF" height="49.2188" rx="2.5" ry="2.5" style="stroke:#000000;stroke-width:0.5;" width="120" x="657.5" y="860.1875"/><text fill="#000000" font-family="sans-serif" font-size="14" font-style="italic" lengthAdjust="spacing" textLength="106" x="664.5" y="881.7207">«Container(C4)»</text><text fill="#000000" font-family="sans-serif" font-size="14" lengthAdjust="spacing" textLength="29" x="703" y="899.3301">Auth</text><rect fill="#FFFFFF" height="49.2188" rx="2.5" ry="2.5" style="stroke:#000000;stroke-width:0.5;" width="169" x="890" y="42.7031"/><text fill="#000000" font-family="sans-serif" font-size="14" font-style="italic" lengthAdjust="spacing" textLength="106" x="921.5" y="64.2363">«Container(C4)»</text><text fill="#000000" font-family="sans-serif" font-size="14" lengthAdjust="spacing" textLength="155" x="897" y="81.8457">WarehouseManagement</text><rect fill="#FFFFFF" height="49.2188" rx="2.5" ry="2.5" style="stroke:#000000;stroke-width:0.5;" width="169" x="890" y="860.1875"/><text fill="#000000" font-family="sans-serif" font-size="14" font-style="italic" lengthAdjust="spacing" textLength="106" x="921.5" y="881.7207">«Container(C4)»</text><text fill="#000000" font-family="sans-serif" font-size="14" lengthAdjust="spacing" textLength="155" x="897" y="899.3301">WarehouseManagement</text><rect fill="#FFFFFF" height="49.2188" rx="2.5" ry="2.5" style="stroke:#000000;stroke-width:0.5;" width="104" x="1069" y="42.7031"/><text fill="#000000" font-family="sans-serif" font-size="14" font-style="italic" lengthAdjust="spacing" textLength="90" x="1076" y="64.2363">«System(C4)»</text><text fill="#000000" font-family="sans-serif" font-size="14" lengthAdjust="spacing" textLength="46" x="1098" y="81.8457">Google</text><rect fill="#FFFFFF" height="49.2188" rx="2.5" ry="2.5" style="stroke:#000000;stroke-width:0.5;" width="104" x="1069" y="860.1875"/><text fill="#000000" font-family="sans-serif" font-size="14" font-style="italic" lengthAdjust="spacing" textLength="90" x="1076" y="881.7207">«System(C4)»</text><text fill="#000000" font-family="sans-serif" font-size="14" lengthAdjust="spacing" textLength="46" x="1098" y="899.3301">Google</text><rect fill="#FFFFFF" height="748.2656" style="stroke:#181818;stroke-width:1.0;" width="10" x="84.5" y="102.9219"/><rect fill="#FFFFFF" height="725.9141" style="stroke:#181818;stroke-width:1.0;" width="10" x="455.5" y="125.2734"/><rect fill="#FFFFFF" height="30.3516" style="stroke:#181818;stroke-width:1.0;" width="10" x="712.5" y="180.9766"/><rect fill="#FFFFFF" height="405.5625" style="stroke:#181818;stroke-width:1.0;" width="10" x="712.5" y="446.625"/><rect fill="#FFFFFF" height="98.7266" style="stroke:#181818;stroke-width:1.0;" width="10" x="969.5" y="476.9766"/><rect fill="#FFFFFF" height="76.5391" style="stroke:#181818;stroke-width:1.0;" width="10" x="969.5" y="622.4063"/><rect fill="#FFFFFF" height="76.5391" style="stroke:#181818;stroke-width:1.0;" width="10" x="969.5" y="729.2969"/><rect fill="#FFFFFF" height="30.3516" style="stroke:#181818;stroke-width:1.0;" width="10" x="1116" y="257.5156"/><polygon fill="#181818" points="443.5,121.2734,453.5,125.2734,443.5,129.2734,447.5,125.2734" style="stroke:#181818;stroke-width:1.0;"/><line style="stroke:#181818;stroke-width:1.0;" x1="94.5" x2="449.5" y1="125.2734" y2="125.2734"/><text fill="#000000" font-family="sans-serif" font-size="13" font-weight="bold" lengthAdjust="spacing" textLength="7" x="101.5" y="120.417">1</text><text fill="#000000" font-family="sans-serif" font-size="13" lengthAdjust="spacing" textLength="80" x="112.5" y="120.417">I want to login</text><path d="M390.5,140.2734 L451.5,140.2734 L451.5,148.625 L441.5,158.625 L390.5,158.625 L390.5,140.2734 " fill="#EEEEEE" style="stroke:#000000;stroke-width:1.5;"/><rect fill="none" height="155.5938" style="stroke:#000000;stroke-width:1.5;" width="792.5" x="390.5" y="140.2734"/><text fill="#000000" font-family="sans-serif" font-size="13" font-weight="bold" lengthAdjust="spacing" textLength="16" x="405.5" y="154.7686">alt</text><text fill="#000000" font-family="sans-serif" font-size="11" font-weight="bold" lengthAdjust="spacing" textLength="266" x="466.5" y="153.6924">[Login through email and password in EletricGo]</text><polygon fill="#181818" points="700.5,176.9766,710.5,180.9766,700.5,184.9766,704.5,180.9766" style="stroke:#181818;stroke-width:1.0;"/><line style="stroke:#181818;stroke-width:1.0;" x1="465.5" x2="706.5" y1="180.9766" y2="180.9766"/><text fill="#000000" font-family="sans-serif" font-size="13" font-weight="bold" lengthAdjust="spacing" textLength="7" x="472.5" y="176.1201">2</text><text fill="#000000" font-family="sans-serif" font-size="13" lengthAdjust="spacing" textLength="172" x="483.5" y="176.1201">POST Login(email, password)</text><polygon fill="#181818" points="476.5,207.3281,466.5,211.3281,476.5,215.3281,472.5,211.3281" style="stroke:#181818;stroke-width:1.0;"/><line style="stroke:#181818;stroke-width:1.0;stroke-dasharray:2.0,2.0;" x1="470.5" x2="716.5" y1="211.3281" y2="211.3281"/><text fill="#000000" font-family="sans-serif" font-size="13" font-weight="bold" lengthAdjust="spacing" textLength="7" x="482.5" y="206.4717">3</text><text fill="#000000" font-family="sans-serif" font-size="13" lengthAdjust="spacing" textLength="44" x="493.5" y="206.4717">200 OK</text><line style="stroke:#000000;stroke-width:1.0;stroke-dasharray:2.0,2.0;" x1="390.5" x2="1183" y1="220.3281" y2="220.3281"/><text fill="#000000" font-family="sans-serif" font-size="11" font-weight="bold" lengthAdjust="spacing" textLength="128" x="395.5" y="231.7471">[Login through Google]</text><polygon fill="#181818" points="1104,253.5156,1114,257.5156,1104,261.5156,1108,257.5156" style="stroke:#181818;stroke-width:1.0;"/><line style="stroke:#181818;stroke-width:1.0;" x1="465.5" x2="1110" y1="257.5156" y2="257.5156"/><text fill="#000000" font-family="sans-serif" font-size="13" font-weight="bold" lengthAdjust="spacing" textLength="7" x="472.5" y="252.6592">4</text><text fill="#000000" font-family="sans-serif" font-size="13" lengthAdjust="spacing" textLength="153" x="483.5" y="252.6592">Login with Google account</text><polygon fill="#181818" points="476.5,283.8672,466.5,287.8672,476.5,291.8672,472.5,287.8672" style="stroke:#181818;stroke-width:1.0;"/><line style="stroke:#181818;stroke-width:1.0;stroke-dasharray:2.0,2.0;" x1="470.5" x2="1120" y1="287.8672" y2="287.8672"/><text fill="#000000" font-family="sans-serif" font-size="13" font-weight="bold" lengthAdjust="spacing" textLength="7" x="482.5" y="283.0107">5</text><text fill="#000000" font-family="sans-serif" font-size="13" lengthAdjust="spacing" textLength="44" x="493.5" y="283.0107">200 OK</text><polygon fill="#181818" points="105.5,321.2188,95.5,325.2188,105.5,329.2188,101.5,325.2188" style="stroke:#181818;stroke-width:1.0;"/><line style="stroke:#181818;stroke-width:1.0;stroke-dasharray:2.0,2.0;" x1="99.5" x2="454.5" y1="325.2188" y2="325.2188"/><text fill="#000000" font-family="sans-serif" font-size="13" font-weight="bold" lengthAdjust="spacing" textLength="7" x="111.5" y="320.3623">6</text><text fill="#000000" font-family="sans-serif" font-size="13" lengthAdjust="spacing" textLength="198" x="122.5" y="320.3623">informs about the success of login</text><polygon fill="#181818" points="443.5,351.5703,453.5,355.5703,443.5,359.5703,447.5,355.5703" style="stroke:#181818;stroke-width:1.0;"/><line style="stroke:#181818;stroke-width:1.0;" x1="94.5" x2="449.5" y1="355.5703" y2="355.5703"/><text fill="#000000" font-family="sans-serif" font-size="13" font-weight="bold" lengthAdjust="spacing" textLength="7" x="101.5" y="350.7139">7</text><text fill="#000000" font-family="sans-serif" font-size="13" lengthAdjust="spacing" textLength="206" x="112.5" y="350.7139">I want to update an existing delivery</text><polygon fill="#181818" points="105.5,381.9219,95.5,385.9219,105.5,389.9219,101.5,385.9219" style="stroke:#181818;stroke-width:1.0;"/><line style="stroke:#181818;stroke-width:1.0;stroke-dasharray:2.0,2.0;" x1="99.5" x2="454.5" y1="385.9219" y2="385.9219"/><text fill="#000000" font-family="sans-serif" font-size="13" font-weight="bold" lengthAdjust="spacing" textLength="7" x="111.5" y="381.0654">8</text><text fill="#000000" font-family="sans-serif" font-size="13" lengthAdjust="spacing" textLength="326" x="122.5" y="381.0654">asks for the id and details which are going to be updated</text><polygon fill="#181818" points="443.5,412.2734,453.5,416.2734,443.5,420.2734,447.5,416.2734" style="stroke:#181818;stroke-width:1.0;"/><line style="stroke:#181818;stroke-width:1.0;" x1="94.5" x2="449.5" y1="416.2734" y2="416.2734"/><text fill="#000000" font-family="sans-serif" font-size="13" font-weight="bold" lengthAdjust="spacing" textLength="7" x="101.5" y="411.417">9</text><text fill="#000000" font-family="sans-serif" font-size="13" lengthAdjust="spacing" textLength="233" x="112.5" y="411.417">inserts the information about the delivery</text><polygon fill="#181818" points="700.5,442.625,710.5,446.625,700.5,450.625,704.5,446.625" style="stroke:#181818;stroke-width:1.0;"/><line style="stroke:#181818;stroke-width:1.0;" x1="465.5" x2="706.5" y1="446.625" y2="446.625"/><text fill="#000000" font-family="sans-serif" font-size="13" font-weight="bold" lengthAdjust="spacing" textLength="14" x="472.5" y="441.7686">10</text><text fill="#000000" font-family="sans-serif" font-size="13" lengthAdjust="spacing" textLength="210" x="490.5" y="441.7686">PATCH UpdateDelivery(deliveryDTO)</text><polygon fill="#181818" points="957.5,472.9766,967.5,476.9766,957.5,480.9766,961.5,476.9766" style="stroke:#181818;stroke-width:1.0;"/><line style="stroke:#181818;stroke-width:1.0;" x1="722.5" x2="963.5" y1="476.9766" y2="476.9766"/><text fill="#000000" font-family="sans-serif" font-size="13" font-weight="bold" lengthAdjust="spacing" textLength="14" x="729.5" y="472.1201">11</text><text fill="#000000" font-family="sans-serif" font-size="13" lengthAdjust="spacing" textLength="210" x="747.5" y="472.1201">PATCH UpdateDelivery(deliveryDTO)</text><path d="M10,491.9766 L71,491.9766 L71,500.3281 L61,510.3281 L10,510.3281 L10,491.9766 " fill="#EEEEEE" style="stroke:#000000;stroke-width:1.5;"/><rect fill="none" height="352.2109" style="stroke:#000000;stroke-width:1.5;" width="1059" x="10" y="491.9766"/><text fill="#000000" font-family="sans-serif" font-size="13" font-weight="bold" lengthAdjust="spacing" textLength="16" x="25" y="506.4717">alt</text><text fill="#000000" font-family="sans-serif" font-size="11" font-weight="bold" lengthAdjust="spacing" textLength="254" x="86" y="505.3955">[If the delivery ID matches and the information</text><text fill="#000000" font-family="sans-serif" font-size="11" font-weight="bold" lengthAdjust="spacing" textLength="141" x="89" y="519.2314">respects business rules]</text><polygon fill="#181818" points="733.5,541.3516,723.5,545.3516,733.5,549.3516,729.5,545.3516" style="stroke:#181818;stroke-width:1.0;"/><line style="stroke:#181818;stroke-width:1.0;stroke-dasharray:2.0,2.0;" x1="727.5" x2="968.5" y1="545.3516" y2="545.3516"/><text fill="#000000" font-family="sans-serif" font-size="13" font-weight="bold" lengthAdjust="spacing" textLength="14" x="739.5" y="540.4951">12</text><text fill="#000000" font-family="sans-serif" font-size="13" lengthAdjust="spacing" textLength="118" x="757.5" y="540.4951">200 OK(updatedObj)</text><polygon fill="#181818" points="476.5,571.7031,466.5,575.7031,476.5,579.7031,472.5,575.7031" style="stroke:#181818;stroke-width:1.0;"/><line style="stroke:#181818;stroke-width:1.0;stroke-dasharray:2.0,2.0;" x1="470.5" x2="711.5" y1="575.7031" y2="575.7031"/><text fill="#000000" font-family="sans-serif" font-size="13" font-weight="bold" lengthAdjust="spacing" textLength="14" x="482.5" y="570.8467">13</text><text fill="#000000" font-family="sans-serif" font-size="13" lengthAdjust="spacing" textLength="118" x="500.5" y="570.8467">200 OK(updatedObj)</text><polygon fill="#181818" points="105.5,618.4063,95.5,622.4063,105.5,626.4063,101.5,622.4063" style="stroke:#181818;stroke-width:1.0;"/><line style="stroke:#181818;stroke-width:1.0;stroke-dasharray:2.0,2.0;" x1="99.5" x2="454.5" y1="622.4063" y2="622.4063"/><text fill="#000000" font-family="sans-serif" font-size="13" font-weight="bold" lengthAdjust="spacing" textLength="14" x="111.5" y="609.374">14</text><text fill="#000000" font-family="sans-serif" font-size="13" lengthAdjust="spacing" textLength="246" x="129.5" y="601.1982">informs about the success of the operation</text><text fill="#000000" font-family="sans-serif" font-size="13" lengthAdjust="spacing" textLength="132" x="133.5" y="617.5498">and the delivery details</text><line style="stroke:#000000;stroke-width:1.0;stroke-dasharray:2.0,2.0;" x1="10" x2="1069" y1="631.4063" y2="631.4063"/><text fill="#000000" font-family="sans-serif" font-size="11" font-weight="bold" lengthAdjust="spacing" textLength="295" x="15" y="642.8252">[If the inserted info does not respect business rules]</text><polygon fill="#181818" points="733.5,664.5938,723.5,668.5938,733.5,672.5938,729.5,668.5938" style="stroke:#181818;stroke-width:1.0;"/><line style="stroke:#181818;stroke-width:1.0;stroke-dasharray:2.0,2.0;" x1="727.5" x2="968.5" y1="668.5938" y2="668.5938"/><text fill="#000000" font-family="sans-serif" font-size="13" font-weight="bold" lengthAdjust="spacing" textLength="14" x="739.5" y="663.7373">15</text><text fill="#000000" font-family="sans-serif" font-size="13" lengthAdjust="spacing" textLength="100" x="757.5" y="663.7373">400 Bad Request</text><polygon fill="#181818" points="476.5,694.9453,466.5,698.9453,476.5,702.9453,472.5,698.9453" style="stroke:#181818;stroke-width:1.0;"/><line style="stroke:#181818;stroke-width:1.0;stroke-dasharray:2.0,2.0;" x1="470.5" x2="711.5" y1="698.9453" y2="698.9453"/><text fill="#000000" font-family="sans-serif" font-size="13" font-weight="bold" lengthAdjust="spacing" textLength="14" x="482.5" y="694.0889">16</text><text fill="#000000" font-family="sans-serif" font-size="13" lengthAdjust="spacing" textLength="100" x="500.5" y="694.0889">400 Bad Request</text><polygon fill="#181818" points="105.5,725.2969,95.5,729.2969,105.5,733.2969,101.5,729.2969" style="stroke:#181818;stroke-width:1.0;"/><line style="stroke:#181818;stroke-width:1.0;stroke-dasharray:2.0,2.0;" x1="99.5" x2="454.5" y1="729.2969" y2="729.2969"/><text fill="#000000" font-family="sans-serif" font-size="13" font-weight="bold" lengthAdjust="spacing" textLength="14" x="111.5" y="724.4404">17</text><text fill="#000000" font-family="sans-serif" font-size="13" lengthAdjust="spacing" textLength="236" x="129.5" y="724.4404">informs that the delivery was not updated</text><line style="stroke:#000000;stroke-width:1.0;stroke-dasharray:2.0,2.0;" x1="10" x2="1069" y1="738.2969" y2="738.2969"/><text fill="#000000" font-family="sans-serif" font-size="11" font-weight="bold" lengthAdjust="spacing" textLength="207" x="15" y="749.7158">[If the ID does not match any delivery]</text><polygon fill="#181818" points="733.5,771.4844,723.5,775.4844,733.5,779.4844,729.5,775.4844" style="stroke:#181818;stroke-width:1.0;"/><line style="stroke:#181818;stroke-width:1.0;stroke-dasharray:2.0,2.0;" x1="727.5" x2="968.5" y1="775.4844" y2="775.4844"/><text fill="#000000" font-family="sans-serif" font-size="13" font-weight="bold" lengthAdjust="spacing" textLength="14" x="739.5" y="770.6279">18</text><text fill="#000000" font-family="sans-serif" font-size="13" lengthAdjust="spacing" textLength="100" x="757.5" y="770.6279">400 Bad Request</text><polygon fill="#181818" points="476.5,801.8359,466.5,805.8359,476.5,809.8359,472.5,805.8359" style="stroke:#181818;stroke-width:1.0;"/><line style="stroke:#181818;stroke-width:1.0;stroke-dasharray:2.0,2.0;" x1="470.5" x2="711.5" y1="805.8359" y2="805.8359"/><text fill="#000000" font-family="sans-serif" font-size="13" font-weight="bold" lengthAdjust="spacing" textLength="14" x="482.5" y="800.9795">19</text><text fill="#000000" font-family="sans-serif" font-size="13" lengthAdjust="spacing" textLength="100" x="500.5" y="800.9795">400 Bad Request</text><polygon fill="#181818" points="105.5,832.1875,95.5,836.1875,105.5,840.1875,101.5,836.1875" style="stroke:#181818;stroke-width:1.0;"/><line style="stroke:#181818;stroke-width:1.0;stroke-dasharray:2.0,2.0;" x1="99.5" x2="454.5" y1="836.1875" y2="836.1875"/><text fill="#000000" font-family="sans-serif" font-size="13" font-weight="bold" lengthAdjust="spacing" textLength="14" x="111.5" y="831.3311">20</text><text fill="#000000" font-family="sans-serif" font-size="13" lengthAdjust="spacing" textLength="243" x="129.5" y="831.3311">infroams that the delivery was not updated</text><!--MD5=[894b4db9e20ab2e32bb09ba50fc0acd0]
@startuml updateDeliverySD
autonumber

skinparam sequence {
ParticipantBorderColor black
ParticipantBackgroundColor white
}

actor "Warehouse Manager" as admin

box "<<EletricGo(C4)>>\n\tSystem"
participant UI as UI <<Container(C4)>>
participant Auth as AUTH <<Container(C4)>>
participant WarehouseManagement as WM <<Container(C4)>>
end box

participant Google as Google <<System(C4)>>


activate admin
admin->UI: I want to login
activate UI

alt Login through email and password in EletricGo

UI -> AUTH: POST Login(email, password)
activate AUTH

AUTH - -> UI: 200 OK
deactivate AUTH

else Login through Google

UI -> Google: Login with Google account
activate Google
Google - -> UI: 200 OK
deactivate Google

end



UI - -> admin: informs about the success of login

admin -> UI: I want to update an existing delivery


UI - -> admin: asks for the id and details which are going to be updated


admin -> UI: inserts the information about the delivery

UI -> AUTH: PATCH UpdateDelivery(deliveryDTO)
activate AUTH

AUTH -> WM: PATCH UpdateDelivery(deliveryDTO)
activate WM

alt If the delivery ID matches and the information\n respects business rules
WM - -> AUTH: 200 OK(updatedObj)
AUTH - -> UI: 200 OK(updatedObj)
deactivate WM

UI - -> admin: informs about the success of the operation \n and the delivery details

else If the inserted info does not respect business rules

activate WM
WM - -> AUTH: 400 Bad Request
AUTH - -> UI: 400 Bad Request
deactivate WM

UI - -> admin: informs that the delivery was not updated

else If the ID does not match any delivery

activate WM
WM - -> AUTH: 400 Bad Request
AUTH - -> UI: 400 Bad Request
deactivate WM

UI - -> admin: infroams that the delivery was not updated

end

deactivate UI
deactivate admin

@enduml

PlantUML version 1.2022.7(Mon Aug 22 18:01:30 WEST 2022)
(GPL source distribution)
Java Runtime: Java(TM) SE Runtime Environment
JVM: Java HotSpot(TM) 64-Bit Server VM
Default Encoding: Cp1252
Language: en
Country: GB
--></g></svg>