<?xml version="1.0" encoding="UTF-8" standalone="no"?><svg xmlns="http://www.w3.org/2000/svg" xmlns:xlink="http://www.w3.org/1999/xlink" contentStyleType="text/css" height="1430px" preserveAspectRatio="none" style="width:2279px;height:1430px;background:#FFFFFF;" version="1.1" viewBox="0 0 2279 1430" width="2279px" zoomAndPan="magnify"><defs/><g><rect fill="#F4A460" height="1418.4688" style="stroke:#181818;stroke-width:0.5;" width="679" x="161.5" y="6"/><text fill="#000000" font-family="sans-serif" font-size="13" font-weight="bold" lengthAdjust="spacing" textLength="118" x="442" y="19.4951">&lt;&lt;Container(C4)&gt;&gt;</text><text fill="#000000" font-family="sans-serif" font-size="13" font-weight="bold" lengthAdjust="spacing" textLength="13" x="486" y="35.8467">UI</text><rect fill="#D3D3D3" height="1418.4688" style="stroke:#181818;stroke-width:0.5;" width="1298.5" x="962" y="6"/><text fill="#000000" font-family="sans-serif" font-size="13" font-weight="bold" lengthAdjust="spacing" textLength="102" x="1560.25" y="19.4951">&lt;&lt;System(C4)&gt;&gt;</text><text fill="#000000" font-family="sans-serif" font-size="13" font-weight="bold" lengthAdjust="spacing" textLength="46" x="1588.25" y="35.8467">System</text><rect fill="#E0FFFF" height="1380.7656" style="stroke:#181818;stroke-width:0.5;" width="959" x="1211.5" y="43.7031"/><text fill="#000000" font-family="sans-serif" font-size="13" font-weight="bold" lengthAdjust="spacing" textLength="118" x="1632" y="57.1982">&lt;&lt;Container(C4)&gt;&gt;</text><text fill="#000000" font-family="sans-serif" font-size="13" font-weight="bold" lengthAdjust="spacing" textLength="55" x="1660" y="73.5498">Logistics</text><rect fill="none" height="904.0313" style="stroke:#000000;stroke-width:1.5;" width="2234.5" x="38" y="412.8281"/><line style="stroke:#181818;stroke-width:0.5;stroke-dasharray:5.0,5.0;" x1="54" x2="54" y1="158.0156" y2="1340.8594"/><rect fill="#FFFFFF" height="1174.8438" style="stroke:#181818;stroke-width:1.0;" width="10" x="49" y="166.0156"/><line style="stroke:#181818;stroke-width:0.5;stroke-dasharray:5.0,5.0;" x1="253" x2="253" y1="158.0156" y2="1340.8594"/><rect fill="#FFFFFF" height="1120.4922" style="stroke:#181818;stroke-width:1.0;" width="10" x="248" y="188.3672"/><line style="stroke:#181818;stroke-width:0.5;stroke-dasharray:5.0,5.0;" x1="516" x2="516" y1="158.0156" y2="1340.8594"/><rect fill="#FFFFFF" height="1103.1406" style="stroke:#181818;stroke-width:1.0;" width="10" x="511" y="218.7188"/><line style="stroke:#181818;stroke-width:0.5;stroke-dasharray:5.0,5.0;" x1="771" x2="771" y1="158.0156" y2="1340.8594"/><rect fill="#FFFFFF" height="938.3828" style="stroke:#181818;stroke-width:1.0;" width="10" x="766" y="309.7734"/><line style="stroke:#181818;stroke-width:0.5;stroke-dasharray:5.0,5.0;" x1="1026" x2="1026" y1="158.0156" y2="1340.8594"/><rect fill="#FFFFFF" height="877.6797" style="stroke:#181818;stroke-width:1.0;" width="10" x="1021" y="340.125"/><line style="stroke:#181818;stroke-width:0.5;stroke-dasharray:5.0,5.0;" x1="1281" x2="1281" y1="158.0156" y2="1340.8594"/><rect fill="#FFFFFF" height="816.9766" style="stroke:#181818;stroke-width:1.0;" width="10" x="1276" y="370.4766"/><line style="stroke:#181818;stroke-width:0.5;stroke-dasharray:5.0,5.0;" x1="1536" x2="1536" y1="158.0156" y2="1340.8594"/><rect fill="#FFFFFF" height="756.2734" style="stroke:#181818;stroke-width:1.0;" width="10" x="1531" y="400.8281"/><line style="stroke:#181818;stroke-width:0.5;stroke-dasharray:5.0,5.0;" x1="1739" x2="1739" y1="158.0156" y2="1340.8594"/><rect fill="#FFFFFF" height="663.2188" style="stroke:#181818;stroke-width:1.0;" width="10" x="1734" y="463.5313"/><line style="stroke:#181818;stroke-width:0.5;stroke-dasharray:5.0,5.0;" x1="1936" x2="1936" y1="158.0156" y2="1340.8594"/><rect fill="#FFFFFF" height="602.5156" style="stroke:#181818;stroke-width:1.0;" width="10" x="1931" y="493.8828"/><line style="stroke:#181818;stroke-width:0.5;stroke-dasharray:5.0,5.0;" x1="2101" x2="2101" y1="158.0156" y2="1340.8594"/><rect fill="#FFFFFF" height="541.8125" style="stroke:#181818;stroke-width:1.0;" width="10" x="2096" y="524.2344"/><line style="stroke:#181818;stroke-width:0.5;stroke-dasharray:5.0,5.0;" x1="2221.5" x2="2221.5" y1="158.0156" y2="1340.8594"/><text fill="#000000" font-family="sans-serif" font-size="14" lengthAdjust="spacing" textLength="92" x="5" y="154.9395">Fleet Manager</text><ellipse cx="54" cy="88.9063" fill="#E2E2F0" rx="8" ry="8" style="stroke:#181818;stroke-width:0.5;"/><path d="M54,96.9063 L54,123.9063 M41,104.9063 L67,104.9063 M54,123.9063 L41,138.9063 M54,123.9063 L67,138.9063 " fill="none" style="stroke:#181818;stroke-width:0.5;"/><rect fill="#FFFFFF" height="49.2188" rx="2.5" ry="2.5" style="stroke:#000000;stroke-width:0.5;" width="175" x="165.5" y="107.7969"/><text fill="#000000" font-family="sans-serif" font-size="14" font-style="italic" lengthAdjust="spacing" textLength="117" x="194.5" y="129.3301">«Component(C4)»</text><text fill="#000000" font-family="sans-serif" font-size="14" lengthAdjust="spacing" textLength="161" x="172.5" y="146.9395">FleetManagerComponent</text><rect fill="#FFFFFF" height="49.2188" rx="2.5" ry="2.5" style="stroke:#000000;stroke-width:0.5;" width="166" x="433" y="107.7969"/><text fill="#000000" font-family="sans-serif" font-size="14" font-style="italic" lengthAdjust="spacing" textLength="117" x="457.5" y="129.3301">«Component(C4)»</text><text fill="#000000" font-family="sans-serif" font-size="14" lengthAdjust="spacing" textLength="152" x="440" y="146.9395">CreateTruckComponent</text><rect fill="#FFFFFF" height="49.2188" rx="2.5" ry="2.5" style="stroke:#000000;stroke-width:0.5;" width="131" x="705.5" y="107.7969"/><text fill="#000000" font-family="sans-serif" font-size="14" font-style="italic" lengthAdjust="spacing" textLength="117" x="712.5" y="129.3301">«Component(C4)»</text><text fill="#000000" font-family="sans-serif" font-size="14" lengthAdjust="spacing" textLength="83" x="729.5" y="146.9395">TruckService</text><rect fill="#FFFFFF" height="49.2188" rx="2.5" ry="2.5" style="stroke:#000000;stroke-width:0.5;" width="120" x="966" y="107.7969"/><text fill="#000000" font-family="sans-serif" font-size="14" font-style="italic" lengthAdjust="spacing" textLength="106" x="973" y="129.3301">«Container(C4)»</text><text fill="#000000" font-family="sans-serif" font-size="14" lengthAdjust="spacing" textLength="29" x="1011.5" y="146.9395">Auth</text><rect fill="#FFFFFF" height="49.2188" rx="2.5" ry="2.5" style="stroke:#000000;stroke-width:0.5;" width="131" x="1215.5" y="107.7969"/><text fill="#000000" font-family="sans-serif" font-size="14" font-style="italic" lengthAdjust="spacing" textLength="117" x="1222.5" y="129.3301">«Component(C4)»</text><text fill="#000000" font-family="sans-serif" font-size="14" lengthAdjust="spacing" textLength="74" x="1244" y="146.9395">TruckRoute</text><rect fill="#FFFFFF" height="49.2188" rx="2.5" ry="2.5" style="stroke:#000000;stroke-width:0.5;" width="131" x="1470.5" y="107.7969"/><text fill="#000000" font-family="sans-serif" font-size="14" font-style="italic" lengthAdjust="spacing" textLength="117" x="1477.5" y="129.3301">«Component(C4)»</text><text fill="#000000" font-family="sans-serif" font-size="14" lengthAdjust="spacing" textLength="98" x="1487" y="146.9395">TruckController</text><rect fill="#FFFFFF" height="49.2188" rx="2.5" ry="2.5" style="stroke:#000000;stroke-width:0.5;" width="131" x="1673.5" y="107.7969"/><text fill="#000000" font-family="sans-serif" font-size="14" font-style="italic" lengthAdjust="spacing" textLength="117" x="1680.5" y="129.3301">«Component(C4)»</text><text fill="#000000" font-family="sans-serif" font-size="14" lengthAdjust="spacing" textLength="83" x="1697.5" y="146.9395">TruckService</text><rect fill="#FFFFFF" height="49.2188" rx="2.5" ry="2.5" style="stroke:#000000;stroke-width:0.5;" width="131" x="1870.5" y="107.7969"/><text fill="#000000" font-family="sans-serif" font-size="14" font-style="italic" lengthAdjust="spacing" textLength="117" x="1877.5" y="129.3301">«Component(C4)»</text><text fill="#000000" font-family="sans-serif" font-size="14" lengthAdjust="spacing" textLength="104" x="1884" y="146.9395">TruckRepository</text><rect fill="#FFFFFF" height="49.2188" rx="2.5" ry="2.5" style="stroke:#000000;stroke-width:0.5;" width="131" x="2035.5" y="107.7969"/><text fill="#000000" font-family="sans-serif" font-size="14" font-style="italic" lengthAdjust="spacing" textLength="117" x="2042.5" y="129.3301">«Component(C4)»</text><text fill="#000000" font-family="sans-serif" font-size="14" lengthAdjust="spacing" textLength="74" x="2064" y="146.9395">Persistance</text><rect fill="#FFFFFF" height="31.6094" rx="2.5" ry="2.5" style="stroke:#000000;stroke-width:0.5;" width="70" x="2186.5" y="125.4063"/><text fill="#000000" font-family="sans-serif" font-size="14" lengthAdjust="spacing" textLength="56" x="2193.5" y="146.9395">Manager</text><text fill="#000000" font-family="sans-serif" font-size="14" lengthAdjust="spacing" textLength="92" x="5" y="1415.3926">Fleet Manager</text><ellipse cx="54" cy="1349.3594" fill="#E2E2F0" rx="8" ry="8" style="stroke:#181818;stroke-width:0.5;"/><path d="M54,1357.3594 L54,1384.3594 M41,1365.3594 L67,1365.3594 M54,1384.3594 L41,1399.3594 M54,1384.3594 L67,1399.3594 " fill="none" style="stroke:#181818;stroke-width:0.5;"/><rect fill="#FFFFFF" height="49.2188" rx="2.5" ry="2.5" style="stroke:#000000;stroke-width:0.5;" width="175" x="165.5" y="1340.8594"/><text fill="#000000" font-family="sans-serif" font-size="14" font-style="italic" lengthAdjust="spacing" textLength="117" x="194.5" y="1362.3926">«Component(C4)»</text><text fill="#000000" font-family="sans-serif" font-size="14" lengthAdjust="spacing" textLength="161" x="172.5" y="1380.002">FleetManagerComponent</text><rect fill="#FFFFFF" height="49.2188" rx="2.5" ry="2.5" style="stroke:#000000;stroke-width:0.5;" width="166" x="433" y="1340.8594"/><text fill="#000000" font-family="sans-serif" font-size="14" font-style="italic" lengthAdjust="spacing" textLength="117" x="457.5" y="1362.3926">«Component(C4)»</text><text fill="#000000" font-family="sans-serif" font-size="14" lengthAdjust="spacing" textLength="152" x="440" y="1380.002">CreateTruckComponent</text><rect fill="#FFFFFF" height="49.2188" rx="2.5" ry="2.5" style="stroke:#000000;stroke-width:0.5;" width="131" x="705.5" y="1340.8594"/><text fill="#000000" font-family="sans-serif" font-size="14" font-style="italic" lengthAdjust="spacing" textLength="117" x="712.5" y="1362.3926">«Component(C4)»</text><text fill="#000000" font-family="sans-serif" font-size="14" lengthAdjust="spacing" textLength="83" x="729.5" y="1380.002">TruckService</text><rect fill="#FFFFFF" height="49.2188" rx="2.5" ry="2.5" style="stroke:#000000;stroke-width:0.5;" width="120" x="966" y="1340.8594"/><text fill="#000000" font-family="sans-serif" font-size="14" font-style="italic" lengthAdjust="spacing" textLength="106" x="973" y="1362.3926">«Container(C4)»</text><text fill="#000000" font-family="sans-serif" font-size="14" lengthAdjust="spacing" textLength="29" x="1011.5" y="1380.002">Auth</text><rect fill="#FFFFFF" height="49.2188" rx="2.5" ry="2.5" style="stroke:#000000;stroke-width:0.5;" width="131" x="1215.5" y="1340.8594"/><text fill="#000000" font-family="sans-serif" font-size="14" font-style="italic" lengthAdjust="spacing" textLength="117" x="1222.5" y="1362.3926">«Component(C4)»</text><text fill="#000000" font-family="sans-serif" font-size="14" lengthAdjust="spacing" textLength="74" x="1244" y="1380.002">TruckRoute</text><rect fill="#FFFFFF" height="49.2188" rx="2.5" ry="2.5" style="stroke:#000000;stroke-width:0.5;" width="131" x="1470.5" y="1340.8594"/><text fill="#000000" font-family="sans-serif" font-size="14" font-style="italic" lengthAdjust="spacing" textLength="117" x="1477.5" y="1362.3926">«Component(C4)»</text><text fill="#000000" font-family="sans-serif" font-size="14" lengthAdjust="spacing" textLength="98" x="1487" y="1380.002">TruckController</text><rect fill="#FFFFFF" height="49.2188" rx="2.5" ry="2.5" style="stroke:#000000;stroke-width:0.5;" width="131" x="1673.5" y="1340.8594"/><text fill="#000000" font-family="sans-serif" font-size="14" font-style="italic" lengthAdjust="spacing" textLength="117" x="1680.5" y="1362.3926">«Component(C4)»</text><text fill="#000000" font-family="sans-serif" font-size="14" lengthAdjust="spacing" textLength="83" x="1697.5" y="1380.002">TruckService</text><rect fill="#FFFFFF" height="49.2188" rx="2.5" ry="2.5" style="stroke:#000000;stroke-width:0.5;" width="131" x="1870.5" y="1340.8594"/><text fill="#000000" font-family="sans-serif" font-size="14" font-style="italic" lengthAdjust="spacing" textLength="117" x="1877.5" y="1362.3926">«Component(C4)»</text><text fill="#000000" font-family="sans-serif" font-size="14" lengthAdjust="spacing" textLength="104" x="1884" y="1380.002">TruckRepository</text><rect fill="#FFFFFF" height="49.2188" rx="2.5" ry="2.5" style="stroke:#000000;stroke-width:0.5;" width="131" x="2035.5" y="1340.8594"/><text fill="#000000" font-family="sans-serif" font-size="14" font-style="italic" lengthAdjust="spacing" textLength="117" x="2042.5" y="1362.3926">«Component(C4)»</text><text fill="#000000" font-family="sans-serif" font-size="14" lengthAdjust="spacing" textLength="74" x="2064" y="1380.002">Persistance</text><rect fill="#FFFFFF" height="31.6094" rx="2.5" ry="2.5" style="stroke:#000000;stroke-width:0.5;" width="70" x="2186.5" y="1340.8594"/><text fill="#000000" font-family="sans-serif" font-size="14" lengthAdjust="spacing" textLength="56" x="2193.5" y="1362.3926">Manager</text><polygon fill="#181818" points="236,184.3672,246,188.3672,236,192.3672,240,188.3672" style="stroke:#181818;stroke-width:1.0;"/><line style="stroke:#181818;stroke-width:1.0;" x1="59" x2="242" y1="188.3672" y2="188.3672"/><text fill="#000000" font-family="sans-serif" font-size="13" font-weight="bold" lengthAdjust="spacing" textLength="7" x="66" y="183.5107">1</text><text fill="#000000" font-family="sans-serif" font-size="13" lengthAdjust="spacing" textLength="159" x="77" y="183.5107">Asks to create a new Truck</text><polygon fill="#181818" points="499,214.7188,509,218.7188,499,222.7188,503,218.7188" style="stroke:#181818;stroke-width:1.0;"/><line style="stroke:#181818;stroke-width:1.0;" x1="258" x2="505" y1="218.7188" y2="218.7188"/><text fill="#000000" font-family="sans-serif" font-size="13" font-weight="bold" lengthAdjust="spacing" textLength="7" x="265" y="213.8623">2</text><text fill="#000000" font-family="sans-serif" font-size="13" lengthAdjust="spacing" textLength="202" x="276" y="213.8623">navigate to CreateTruckComponent</text><polygon fill="#181818" points="70,245.0703,60,249.0703,70,253.0703,66,249.0703" style="stroke:#181818;stroke-width:1.0;"/><line style="stroke:#181818;stroke-width:1.0;stroke-dasharray:2.0,2.0;" x1="64" x2="510" y1="249.0703" y2="249.0703"/><text fill="#000000" font-family="sans-serif" font-size="13" font-weight="bold" lengthAdjust="spacing" textLength="7" x="76" y="244.2139">3</text><text fill="#000000" font-family="sans-serif" font-size="13" lengthAdjust="spacing" textLength="171" x="87" y="244.2139">Asks for info about new Truck</text><polygon fill="#181818" points="499,275.4219,509,279.4219,499,283.4219,503,279.4219" style="stroke:#181818;stroke-width:1.0;"/><line style="stroke:#181818;stroke-width:1.0;" x1="59" x2="505" y1="279.4219" y2="279.4219"/><text fill="#000000" font-family="sans-serif" font-size="13" font-weight="bold" lengthAdjust="spacing" textLength="7" x="66" y="274.5654">4</text><text fill="#000000" font-family="sans-serif" font-size="13" lengthAdjust="spacing" textLength="99" x="77" y="274.5654">Inserts Truck info</text><polygon fill="#181818" points="754,305.7734,764,309.7734,754,313.7734,758,309.7734" style="stroke:#181818;stroke-width:1.0;"/><line style="stroke:#181818;stroke-width:1.0;" x1="521" x2="760" y1="309.7734" y2="309.7734"/><text fill="#000000" font-family="sans-serif" font-size="13" font-weight="bold" lengthAdjust="spacing" textLength="7" x="528" y="304.917">5</text><text fill="#000000" font-family="sans-serif" font-size="13" lengthAdjust="spacing" textLength="108" x="539" y="304.917">createTruck(Truck)</text><polygon fill="#181818" points="1009,336.125,1019,340.125,1009,344.125,1013,340.125" style="stroke:#181818;stroke-width:1.0;"/><line style="stroke:#181818;stroke-width:1.0;" x1="776" x2="1015" y1="340.125" y2="340.125"/><text fill="#000000" font-family="sans-serif" font-size="13" font-weight="bold" lengthAdjust="spacing" textLength="7" x="783" y="335.2686">6</text><text fill="#000000" font-family="sans-serif" font-size="13" lengthAdjust="spacing" textLength="167" x="794" y="335.2686">POST createTruck(TruckInfo)</text><polygon fill="#181818" points="1264,366.4766,1274,370.4766,1264,374.4766,1268,370.4766" style="stroke:#181818;stroke-width:1.0;"/><line style="stroke:#181818;stroke-width:1.0;" x1="1031" x2="1270" y1="370.4766" y2="370.4766"/><text fill="#000000" font-family="sans-serif" font-size="13" font-weight="bold" lengthAdjust="spacing" textLength="7" x="1038" y="365.6201">7</text><text fill="#000000" font-family="sans-serif" font-size="13" lengthAdjust="spacing" textLength="167" x="1049" y="365.6201">POST createTruck(TruckInfo)</text><polygon fill="#181818" points="1519,396.8281,1529,400.8281,1519,404.8281,1523,400.8281" style="stroke:#181818;stroke-width:1.0;"/><line style="stroke:#181818;stroke-width:1.0;" x1="1286" x2="1525" y1="400.8281" y2="400.8281"/><text fill="#000000" font-family="sans-serif" font-size="13" font-weight="bold" lengthAdjust="spacing" textLength="7" x="1293" y="395.9717">8</text><text fill="#000000" font-family="sans-serif" font-size="13" lengthAdjust="spacing" textLength="167" x="1304" y="395.9717">POST createTruck(TruckInfo)</text><path d="M38,412.8281 L99,412.8281 L99,421.1797 L89,431.1797 L38,431.1797 L38,412.8281 " fill="#EEEEEE" style="stroke:#000000;stroke-width:1.5;"/><rect fill="none" height="904.0313" style="stroke:#000000;stroke-width:1.5;" width="2234.5" x="38" y="412.8281"/><text fill="#000000" font-family="sans-serif" font-size="13" font-weight="bold" lengthAdjust="spacing" textLength="16" x="53" y="427.3232">alt</text><text fill="#000000" font-family="sans-serif" font-size="11" font-weight="bold" lengthAdjust="spacing" textLength="115" x="114" y="426.2471">[Truck doesn't exist]</text><line style="stroke:#000000;stroke-width:1.0;stroke-dasharray:2.0,2.0;" x1="38" x2="2272.5" y1="937.8047" y2="937.8047"/><text fill="#000000" font-family="sans-serif" font-size="11" font-weight="bold" lengthAdjust="spacing" textLength="120" x="43" y="949.2236">[Truck already exists]</text><polygon fill="#181818" points="1722,459.5313,1732,463.5313,1722,467.5313,1726,463.5313" style="stroke:#181818;stroke-width:1.0;"/><line style="stroke:#181818;stroke-width:1.0;" x1="1541" x2="1728" y1="463.5313" y2="463.5313"/><text fill="#000000" font-family="sans-serif" font-size="13" font-weight="bold" lengthAdjust="spacing" textLength="7" x="1548" y="458.6748">9</text><text fill="#000000" font-family="sans-serif" font-size="13" lengthAdjust="spacing" textLength="128" x="1559" y="458.6748">createTruck(TruckInfo)</text><polygon fill="#181818" points="1919,489.8828,1929,493.8828,1919,497.8828,1923,493.8828" style="stroke:#181818;stroke-width:1.0;"/><line style="stroke:#181818;stroke-width:1.0;" x1="1744" x2="1925" y1="493.8828" y2="493.8828"/><text fill="#000000" font-family="sans-serif" font-size="13" font-weight="bold" lengthAdjust="spacing" textLength="14" x="1751" y="489.0264">10</text><text fill="#000000" font-family="sans-serif" font-size="13" lengthAdjust="spacing" textLength="150" x="1769" y="489.0264">getTruckById(TruckInfo.id)</text><polygon fill="#181818" points="2084,520.2344,2094,524.2344,2084,528.2344,2088,524.2344" style="stroke:#181818;stroke-width:1.0;"/><line style="stroke:#181818;stroke-width:1.0;" x1="1941" x2="2090" y1="524.2344" y2="524.2344"/><text fill="#000000" font-family="sans-serif" font-size="13" font-weight="bold" lengthAdjust="spacing" textLength="14" x="1948" y="519.3779">11</text><text fill="#000000" font-family="sans-serif" font-size="13" lengthAdjust="spacing" textLength="118" x="1966" y="519.3779">findOne(TruckInfo.id)</text><polygon fill="#181818" points="1952,550.5859,1942,554.5859,1952,558.5859,1948,554.5859" style="stroke:#181818;stroke-width:1.0;"/><line style="stroke:#181818;stroke-width:1.0;" x1="1946" x2="2095" y1="554.5859" y2="554.5859"/><text fill="#000000" font-family="sans-serif" font-size="13" font-weight="bold" lengthAdjust="spacing" textLength="14" x="1958" y="549.7295">12</text><text fill="#000000" font-family="sans-serif" font-size="13" lengthAdjust="spacing" textLength="20" x="1976" y="549.7295">null</text><polygon fill="#181818" points="1755,580.9375,1745,584.9375,1755,588.9375,1751,584.9375" style="stroke:#181818;stroke-width:1.0;"/><line style="stroke:#181818;stroke-width:1.0;" x1="1749" x2="1930" y1="584.9375" y2="584.9375"/><text fill="#000000" font-family="sans-serif" font-size="13" font-weight="bold" lengthAdjust="spacing" textLength="14" x="1761" y="580.0811">13</text><text fill="#000000" font-family="sans-serif" font-size="13" lengthAdjust="spacing" textLength="20" x="1779" y="580.0811">null</text><polygon fill="#181818" points="1919,611.2891,1929,615.2891,1919,619.2891,1923,615.2891" style="stroke:#181818;stroke-width:1.0;"/><line style="stroke:#181818;stroke-width:1.0;" x1="1744" x2="1925" y1="615.2891" y2="615.2891"/><text fill="#000000" font-family="sans-serif" font-size="13" font-weight="bold" lengthAdjust="spacing" textLength="14" x="1751" y="610.4326">14</text><text fill="#000000" font-family="sans-serif" font-size="13" lengthAdjust="spacing" textLength="86" x="1769" y="610.4326">save(TruckInfo)</text><polygon fill="#181818" points="2084,641.6406,2094,645.6406,2084,649.6406,2088,645.6406" style="stroke:#181818;stroke-width:1.0;"/><line style="stroke:#181818;stroke-width:1.0;" x1="1941" x2="2090" y1="645.6406" y2="645.6406"/><text fill="#000000" font-family="sans-serif" font-size="13" font-weight="bold" lengthAdjust="spacing" textLength="14" x="1948" y="640.7842">15</text><text fill="#000000" font-family="sans-serif" font-size="13" lengthAdjust="spacing" textLength="86" x="1966" y="640.7842">save(TruckInfo)</text><polygon fill="#181818" points="1952,671.9922,1942,675.9922,1952,679.9922,1948,675.9922" style="stroke:#181818;stroke-width:1.0;"/><line style="stroke:#181818;stroke-width:1.0;" x1="1946" x2="2095" y1="675.9922" y2="675.9922"/><text fill="#000000" font-family="sans-serif" font-size="13" font-weight="bold" lengthAdjust="spacing" textLength="14" x="1958" y="671.1357">16</text><text fill="#000000" font-family="sans-serif" font-size="13" lengthAdjust="spacing" textLength="22" x="1976" y="671.1357">true</text><polygon fill="#181818" points="1755,702.3438,1745,706.3438,1755,710.3438,1751,706.3438" style="stroke:#181818;stroke-width:1.0;"/><line style="stroke:#181818;stroke-width:1.0;" x1="1749" x2="1930" y1="706.3438" y2="706.3438"/><text fill="#000000" font-family="sans-serif" font-size="13" font-weight="bold" lengthAdjust="spacing" textLength="14" x="1761" y="701.4873">17</text><text fill="#000000" font-family="sans-serif" font-size="13" lengthAdjust="spacing" textLength="52" x="1779" y="701.4873">TruckInfo</text><polygon fill="#181818" points="1552,732.6953,1542,736.6953,1552,740.6953,1548,736.6953" style="stroke:#181818;stroke-width:1.0;"/><line style="stroke:#181818;stroke-width:1.0;" x1="1546" x2="1733" y1="736.6953" y2="736.6953"/><text fill="#000000" font-family="sans-serif" font-size="13" font-weight="bold" lengthAdjust="spacing" textLength="14" x="1558" y="731.8389">18</text><text fill="#000000" font-family="sans-serif" font-size="13" lengthAdjust="spacing" textLength="52" x="1576" y="731.8389">TruckInfo</text><polygon fill="#181818" points="1297,763.0469,1287,767.0469,1297,771.0469,1293,767.0469" style="stroke:#181818;stroke-width:1.0;"/><line style="stroke:#181818;stroke-width:1.0;" x1="1291" x2="1530" y1="767.0469" y2="767.0469"/><text fill="#000000" font-family="sans-serif" font-size="13" font-weight="bold" lengthAdjust="spacing" textLength="14" x="1303" y="762.1904">19</text><text fill="#000000" font-family="sans-serif" font-size="13" lengthAdjust="spacing" textLength="154" x="1321" y="762.1904">201 CREATED + TruckInfo</text><polygon fill="#181818" points="1042,793.3984,1032,797.3984,1042,801.3984,1038,797.3984" style="stroke:#181818;stroke-width:1.0;"/><line style="stroke:#181818;stroke-width:1.0;" x1="1036" x2="1275" y1="797.3984" y2="797.3984"/><text fill="#000000" font-family="sans-serif" font-size="13" font-weight="bold" lengthAdjust="spacing" textLength="14" x="1048" y="792.542">20</text><text fill="#000000" font-family="sans-serif" font-size="13" lengthAdjust="spacing" textLength="86" x="1066" y="792.542">201 CREATED</text><polygon fill="#181818" points="787,823.75,777,827.75,787,831.75,783,827.75" style="stroke:#181818;stroke-width:1.0;"/><line style="stroke:#181818;stroke-width:1.0;" x1="781" x2="1020" y1="827.75" y2="827.75"/><text fill="#000000" font-family="sans-serif" font-size="13" font-weight="bold" lengthAdjust="spacing" textLength="14" x="793" y="822.8936">21</text><text fill="#000000" font-family="sans-serif" font-size="13" lengthAdjust="spacing" textLength="86" x="811" y="822.8936">201 CREATED</text><polygon fill="#181818" points="532,854.1016,522,858.1016,532,862.1016,528,858.1016" style="stroke:#181818;stroke-width:1.0;"/><line style="stroke:#181818;stroke-width:1.0;" x1="526" x2="765" y1="858.1016" y2="858.1016"/><text fill="#000000" font-family="sans-serif" font-size="13" font-weight="bold" lengthAdjust="spacing" textLength="14" x="538" y="853.2451">22</text><text fill="#000000" font-family="sans-serif" font-size="13" lengthAdjust="spacing" textLength="86" x="556" y="853.2451">201 CREATED</text><polygon fill="#181818" points="70,884.4531,60,888.4531,70,892.4531,66,888.4531" style="stroke:#181818;stroke-width:1.0;"/><line style="stroke:#181818;stroke-width:1.0;stroke-dasharray:2.0,2.0;" x1="64" x2="510" y1="888.4531" y2="888.4531"/><text fill="#000000" font-family="sans-serif" font-size="13" font-weight="bold" lengthAdjust="spacing" textLength="14" x="76" y="883.5967">23</text><text fill="#000000" font-family="sans-serif" font-size="13" lengthAdjust="spacing" textLength="234" x="94" y="883.5967">Informs about truck successfully created</text><polygon fill="#181818" points="269,914.8047,259,918.8047,269,922.8047,265,918.8047" style="stroke:#181818;stroke-width:1.0;"/><line style="stroke:#181818;stroke-width:1.0;" x1="263" x2="510" y1="918.8047" y2="918.8047"/><text fill="#000000" font-family="sans-serif" font-size="13" font-weight="bold" lengthAdjust="spacing" textLength="14" x="275" y="913.9482">24</text><text fill="#000000" font-family="sans-serif" font-size="13" lengthAdjust="spacing" textLength="211" x="293" y="913.9482">navigate to FleetManagerComponent</text><polygon fill="#181818" points="1722,970.9922,1732,974.9922,1722,978.9922,1726,974.9922" style="stroke:#181818;stroke-width:1.0;"/><line style="stroke:#181818;stroke-width:1.0;" x1="1541" x2="1728" y1="974.9922" y2="974.9922"/><text fill="#000000" font-family="sans-serif" font-size="13" font-weight="bold" lengthAdjust="spacing" textLength="14" x="1548" y="970.1357">25</text><text fill="#000000" font-family="sans-serif" font-size="13" lengthAdjust="spacing" textLength="128" x="1566" y="970.1357">createTruck(TruckInfo)</text><polygon fill="#181818" points="1919,1001.3438,1929,1005.3438,1919,1009.3438,1923,1005.3438" style="stroke:#181818;stroke-width:1.0;"/><line style="stroke:#181818;stroke-width:1.0;" x1="1744" x2="1925" y1="1005.3438" y2="1005.3438"/><text fill="#000000" font-family="sans-serif" font-size="13" font-weight="bold" lengthAdjust="spacing" textLength="14" x="1751" y="1000.4873">26</text><text fill="#000000" font-family="sans-serif" font-size="13" lengthAdjust="spacing" textLength="150" x="1769" y="1000.4873">getTruckById(TruckInfo.id)</text><polygon fill="#181818" points="2084,1031.6953,2094,1035.6953,2084,1039.6953,2088,1035.6953" style="stroke:#181818;stroke-width:1.0;"/><line style="stroke:#181818;stroke-width:1.0;" x1="1941" x2="2090" y1="1035.6953" y2="1035.6953"/><text fill="#000000" font-family="sans-serif" font-size="13" font-weight="bold" lengthAdjust="spacing" textLength="14" x="1948" y="1030.8389">27</text><text fill="#000000" font-family="sans-serif" font-size="13" lengthAdjust="spacing" textLength="118" x="1966" y="1030.8389">findOne(TruckInfo.id)</text><polygon fill="#181818" points="1952,1062.0469,1942,1066.0469,1952,1070.0469,1948,1066.0469" style="stroke:#181818;stroke-width:1.0;"/><line style="stroke:#181818;stroke-width:1.0;" x1="1946" x2="2095" y1="1066.0469" y2="1066.0469"/><text fill="#000000" font-family="sans-serif" font-size="13" font-weight="bold" lengthAdjust="spacing" textLength="14" x="1958" y="1061.1904">28</text><text fill="#000000" font-family="sans-serif" font-size="13" lengthAdjust="spacing" textLength="32" x="1976" y="1061.1904">Truck</text><polygon fill="#181818" points="1755,1092.3984,1745,1096.3984,1755,1100.3984,1751,1096.3984" style="stroke:#181818;stroke-width:1.0;"/><line style="stroke:#181818;stroke-width:1.0;" x1="1749" x2="1930" y1="1096.3984" y2="1096.3984"/><text fill="#000000" font-family="sans-serif" font-size="13" font-weight="bold" lengthAdjust="spacing" textLength="14" x="1761" y="1091.542">29</text><text fill="#000000" font-family="sans-serif" font-size="13" lengthAdjust="spacing" textLength="32" x="1779" y="1091.542">Truck</text><polygon fill="#181818" points="1552,1122.75,1542,1126.75,1552,1130.75,1548,1126.75" style="stroke:#181818;stroke-width:1.0;"/><line style="stroke:#181818;stroke-width:1.0;" x1="1546" x2="1733" y1="1126.75" y2="1126.75"/><text fill="#000000" font-family="sans-serif" font-size="13" font-weight="bold" lengthAdjust="spacing" textLength="14" x="1558" y="1121.8936">30</text><text fill="#000000" font-family="sans-serif" font-size="13" lengthAdjust="spacing" textLength="151" x="1576" y="1121.8936">error, Truck already exists</text><polygon fill="#181818" points="1297,1153.1016,1287,1157.1016,1297,1161.1016,1293,1157.1016" style="stroke:#181818;stroke-width:1.0;"/><line style="stroke:#181818;stroke-width:1.0;" x1="1291" x2="1530" y1="1157.1016" y2="1157.1016"/><text fill="#000000" font-family="sans-serif" font-size="13" font-weight="bold" lengthAdjust="spacing" textLength="14" x="1303" y="1152.2451">31</text><text fill="#000000" font-family="sans-serif" font-size="13" lengthAdjust="spacing" textLength="203" x="1321" y="1152.2451">409 CONFLIT, Truck already exists</text><polygon fill="#181818" points="1042,1183.4531,1032,1187.4531,1042,1191.4531,1038,1187.4531" style="stroke:#181818;stroke-width:1.0;"/><line style="stroke:#181818;stroke-width:1.0;" x1="1036" x2="1275" y1="1187.4531" y2="1187.4531"/><text fill="#000000" font-family="sans-serif" font-size="13" font-weight="bold" lengthAdjust="spacing" textLength="14" x="1048" y="1182.5967">32</text><text fill="#000000" font-family="sans-serif" font-size="13" lengthAdjust="spacing" textLength="203" x="1066" y="1182.5967">409 CONFLIT, Truck already exists</text><polygon fill="#181818" points="787,1213.8047,777,1217.8047,787,1221.8047,783,1217.8047" style="stroke:#181818;stroke-width:1.0;"/><line style="stroke:#181818;stroke-width:1.0;" x1="781" x2="1020" y1="1217.8047" y2="1217.8047"/><text fill="#000000" font-family="sans-serif" font-size="13" font-weight="bold" lengthAdjust="spacing" textLength="14" x="793" y="1212.9482">33</text><text fill="#000000" font-family="sans-serif" font-size="13" lengthAdjust="spacing" textLength="203" x="811" y="1212.9482">409 CONFLIT, Truck already exists</text><polygon fill="#181818" points="532,1244.1563,522,1248.1563,532,1252.1563,528,1248.1563" style="stroke:#181818;stroke-width:1.0;"/><line style="stroke:#181818;stroke-width:1.0;" x1="526" x2="765" y1="1248.1563" y2="1248.1563"/><text fill="#000000" font-family="sans-serif" font-size="13" font-weight="bold" lengthAdjust="spacing" textLength="14" x="538" y="1243.2998">34</text><text fill="#000000" font-family="sans-serif" font-size="13" lengthAdjust="spacing" textLength="203" x="556" y="1243.2998">409 CONFLIT, Truck already exists</text><polygon fill="#181818" points="70,1274.5078,60,1278.5078,70,1282.5078,66,1278.5078" style="stroke:#181818;stroke-width:1.0;"/><line style="stroke:#181818;stroke-width:1.0;stroke-dasharray:2.0,2.0;" x1="64" x2="510" y1="1278.5078" y2="1278.5078"/><text fill="#000000" font-family="sans-serif" font-size="13" font-weight="bold" lengthAdjust="spacing" textLength="14" x="76" y="1273.6514">35</text><text fill="#000000" font-family="sans-serif" font-size="13" lengthAdjust="spacing" textLength="229" x="94" y="1273.6514">Informs about failure creating new Truck</text><polygon fill="#181818" points="269,1304.8594,259,1308.8594,269,1312.8594,265,1308.8594" style="stroke:#181818;stroke-width:1.0;"/><line style="stroke:#181818;stroke-width:1.0;" x1="263" x2="510" y1="1308.8594" y2="1308.8594"/><text fill="#000000" font-family="sans-serif" font-size="13" font-weight="bold" lengthAdjust="spacing" textLength="14" x="275" y="1304.0029">36</text><text fill="#000000" font-family="sans-serif" font-size="13" lengthAdjust="spacing" textLength="211" x="293" y="1304.0029">navigate to FleetManagerComponent</text><!--MD5=[4caa4b62224b90c65b675a15d06c97ea]
@startuml createTruckSD

autonumber
!pragma teoz true

skinparam sequence {
ParticipantBorderColor black
ParticipantBackgroundColor white
}

actor "Fleet Manager" as manager

box "<<Container(C4)>>\n           UI" #SandyBrown
participant "FleetManagerComponent" as FleetManagerComponent <<Component(C4)>>
participant "CreateTruckComponent" as CreateTruckComponent <<Component(C4)>>
participant "TruckService" as TruckService <<Component(C4)>>
end box

box "<<System(C4)>>\n       System" #LightGray
participant Auth as  Auth <<Container(C4)>>
box "<<Container(C4)>>\n       Logistics" #LightCyan
participant TruckRoute as Route <<Component(C4)>>
participant TruckController as Controller <<Component(C4)>>
participant TruckService as Service <<Component(C4)>>
participant TruckRepository as Repository <<Component(C4)>>
participant Persistance as Persistance <<Component(C4)>>
end box



activate manager

manager -> FleetManagerComponent: Asks to create a new Truck
activate FleetManagerComponent
FleetManagerComponent -> CreateTruckComponent: navigate to CreateTruckComponent
activate CreateTruckComponent
CreateTruckComponent - -> manager: Asks for info about new Truck

manager ->CreateTruckComponent: Inserts Truck info

CreateTruckComponent -> TruckService: createTruck(Truck)
activate TruckService
TruckService -> Auth: POST createTruck(TruckInfo)

activate Auth

Auth -> Route: POST createTruck(TruckInfo)
activate Route
Route -> Controller :POST createTruck(TruckInfo)
activate Controller

alt Truck doesn't exist 

Controller -> Service: createTruck(TruckInfo)
activate Service

Service -> Repository: getTruckById(TruckInfo.id)
activate Repository

Repository -> Persistance: findOne(TruckInfo.id)
activate Persistance
Persistance -> Repository: null
Repository->Service: null

Service -> Repository: save(TruckInfo)
Repository -> Persistance:save(TruckInfo)
Persistance->Repository: true
Repository->Service: TruckInfo
Service->Controller: TruckInfo
Controller->Route: 201 CREATED + TruckInfo
Route->Auth: 201 CREATED
Auth->TruckService: 201 CREATED
TruckService->CreateTruckComponent: 201 CREATED

CreateTruckComponent- ->manager: Informs about truck successfully created
CreateTruckComponent->FleetManagerComponent: navigate to FleetManagerComponent



else Truck already exists

Controller -> Service: createTruck(TruckInfo)


Service -> Repository: getTruckById(TruckInfo.id)


Repository -> Persistance: findOne(TruckInfo.id)
Persistance-> Repository: Truck
deactivate Persistance
Repository->Service: Truck
deactivate Repository
Service->Controller: error, Truck already exists
deactivate Service
Controller->Route: 409 CONFLIT, Truck already exists
deactivate Controller
Route->Auth: 409 CONFLIT, Truck already exists
deactivate Route
Auth->TruckService: 409 CONFLIT, Truck already exists
deactivate Auth

TruckService->CreateTruckComponent: 409 CONFLIT, Truck already exists
deactivate TruckService
CreateTruckComponent- ->manager: Informs about failure creating new Truck
CreateTruckComponent->FleetManagerComponent: navigate to FleetManagerComponent
deactivate FleetManagerComponent
deactivate CreateTruckComponent
deactivate Manager
@enduml

PlantUML version 1.2022.7(Mon Aug 22 18:01:30 WEST 2022)
(GPL source distribution)
Java Runtime: Java(TM) SE Runtime Environment
JVM: Java HotSpot(TM) 64-Bit Server VM
Default Encoding: Cp1252
Language: en
Country: GB
--></g></svg>