<?xml version="1.0" encoding="UTF-8" standalone="no"?><svg xmlns="http://www.w3.org/2000/svg" xmlns:xlink="http://www.w3.org/1999/xlink" contentStyleType="text/css" height="1309px" preserveAspectRatio="none" style="width:1991px;height:1309px;background:#FFFFFF;" version="1.1" viewBox="0 0 1991 1309" width="1991px" zoomAndPan="magnify"><defs/><g><rect fill="#F4A460" height="1297.0625" style="stroke:#181818;stroke-width:0.5;" width="430" x="191.5" y="6"/><text fill="#000000" font-family="sans-serif" font-size="13" font-weight="bold" lengthAdjust="spacing" textLength="118" x="347.5" y="19.4951">&lt;&lt;Container(C4)&gt;&gt;</text><text fill="#000000" font-family="sans-serif" font-size="13" font-weight="bold" lengthAdjust="spacing" textLength="13" x="391.5" y="35.8467">UI</text><rect fill="#D3D3D3" height="1297.0625" style="stroke:#181818;stroke-width:0.5;" width="1228.5" x="757" y="6"/><text fill="#000000" font-family="sans-serif" font-size="13" font-weight="bold" lengthAdjust="spacing" textLength="102" x="1320.25" y="19.4951">&lt;&lt;System(C4)&gt;&gt;</text><text fill="#000000" font-family="sans-serif" font-size="13" font-weight="bold" lengthAdjust="spacing" textLength="46" x="1348.25" y="35.8467">System</text><rect fill="#E0FFFF" height="1259.3594" style="stroke:#181818;stroke-width:0.5;" width="965" x="1020.5" y="43.7031"/><text fill="#000000" font-family="sans-serif" font-size="13" font-weight="bold" lengthAdjust="spacing" textLength="118" x="1444" y="57.1982">&lt;&lt;Container(C4)&gt;&gt;</text><text fill="#000000" font-family="sans-serif" font-size="13" font-weight="bold" lengthAdjust="spacing" textLength="55" x="1472" y="73.5498">Logistics</text><rect fill="none" height="721.9219" style="stroke:#000000;stroke-width:1.5;" width="1894" x="38" y="473.5313"/><line style="stroke:#181818;stroke-width:0.5;stroke-dasharray:5.0,5.0;" x1="54" x2="54" y1="158.0156" y2="1219.4531"/><rect fill="#FFFFFF" height="1053.4375" style="stroke:#181818;stroke-width:1.0;" width="10" x="49" y="166.0156"/><line style="stroke:#181818;stroke-width:0.5;stroke-dasharray:5.0,5.0;" x1="283" x2="283" y1="158.0156" y2="1219.4531"/><rect fill="#FFFFFF" height="999.0859" style="stroke:#181818;stroke-width:1.0;" width="10" x="278" y="188.3672"/><line style="stroke:#181818;stroke-width:0.5;stroke-dasharray:5.0,5.0;" x1="552" x2="552" y1="158.0156" y2="1219.4531"/><rect fill="#FFFFFF" height="877.6797" style="stroke:#181818;stroke-width:1.0;" width="10" x="547" y="279.4219"/><line style="stroke:#181818;stroke-width:0.5;stroke-dasharray:5.0,5.0;" x1="821" x2="821" y1="158.0156" y2="1219.4531"/><rect fill="#FFFFFF" height="816.9766" style="stroke:#181818;stroke-width:1.0;" width="10" x="816" y="309.7734"/><line style="stroke:#181818;stroke-width:0.5;stroke-dasharray:5.0,5.0;" x1="1090" x2="1090" y1="158.0156" y2="1219.4531"/><rect fill="#FFFFFF" height="756.2734" style="stroke:#181818;stroke-width:1.0;" width="10" x="1085" y="340.125"/><line style="stroke:#181818;stroke-width:0.5;stroke-dasharray:5.0,5.0;" x1="1359" x2="1359" y1="158.0156" y2="1219.4531"/><rect fill="#FFFFFF" height="695.5703" style="stroke:#181818;stroke-width:1.0;" width="10" x="1354" y="370.4766"/><line style="stroke:#181818;stroke-width:0.5;stroke-dasharray:5.0,5.0;" x1="1554" x2="1554" y1="158.0156" y2="1219.4531"/><rect fill="#FFFFFF" height="634.8672" style="stroke:#181818;stroke-width:1.0;" width="10" x="1549" y="400.8281"/><line style="stroke:#181818;stroke-width:0.5;stroke-dasharray:5.0,5.0;" x1="1751" x2="1751" y1="158.0156" y2="1219.4531"/><rect fill="#FFFFFF" height="543.8125" style="stroke:#181818;stroke-width:1.0;" width="10" x="1746" y="431.1797"/><line style="stroke:#181818;stroke-width:0.5;stroke-dasharray:5.0,5.0;" x1="1916" x2="1916" y1="158.0156" y2="1219.4531"/><rect fill="#FFFFFF" height="757.9219" style="stroke:#181818;stroke-width:1.0;" width="10" x="1911" y="461.5313"/><text fill="#000000" font-family="sans-serif" font-size="14" lengthAdjust="spacing" textLength="92" x="5" y="154.9395">Fleet Manager</text><ellipse cx="54" cy="88.9063" fill="#E2E2F0" rx="8" ry="8" style="stroke:#181818;stroke-width:0.5;"/><path d="M54,96.9063 L54,123.9063 M41,104.9063 L67,104.9063 M54,123.9063 L41,138.9063 M54,123.9063 L67,138.9063 " fill="none" style="stroke:#181818;stroke-width:0.5;"/><rect fill="#FFFFFF" height="49.2188" rx="2.5" ry="2.5" style="stroke:#000000;stroke-width:0.5;" width="175" x="195.5" y="107.7969"/><text fill="#000000" font-family="sans-serif" font-size="14" font-style="italic" lengthAdjust="spacing" textLength="117" x="224.5" y="129.3301">«Component(C4)»</text><text fill="#000000" font-family="sans-serif" font-size="14" lengthAdjust="spacing" textLength="161" x="202.5" y="146.9395">FleetManagerComponent</text><rect fill="#FFFFFF" height="49.2188" rx="2.5" ry="2.5" style="stroke:#000000;stroke-width:0.5;" width="131" x="486.5" y="107.7969"/><text fill="#000000" font-family="sans-serif" font-size="14" font-style="italic" lengthAdjust="spacing" textLength="117" x="493.5" y="129.3301">«Component(C4)»</text><text fill="#000000" font-family="sans-serif" font-size="14" lengthAdjust="spacing" textLength="83" x="510.5" y="146.9395">TruckService</text><rect fill="#FFFFFF" height="49.2188" rx="2.5" ry="2.5" style="stroke:#000000;stroke-width:0.5;" width="120" x="761" y="107.7969"/><text fill="#000000" font-family="sans-serif" font-size="14" font-style="italic" lengthAdjust="spacing" textLength="106" x="768" y="129.3301">«Container(C4)»</text><text fill="#000000" font-family="sans-serif" font-size="14" lengthAdjust="spacing" textLength="29" x="806.5" y="146.9395">Auth</text><rect fill="#FFFFFF" height="49.2188" rx="2.5" ry="2.5" style="stroke:#000000;stroke-width:0.5;" width="131" x="1024.5" y="107.7969"/><text fill="#000000" font-family="sans-serif" font-size="14" font-style="italic" lengthAdjust="spacing" textLength="117" x="1031.5" y="129.3301">«Component(C4)»</text><text fill="#000000" font-family="sans-serif" font-size="14" lengthAdjust="spacing" textLength="74" x="1053" y="146.9395">TruckRoute</text><rect fill="#FFFFFF" height="49.2188" rx="2.5" ry="2.5" style="stroke:#000000;stroke-width:0.5;" width="131" x="1293.5" y="107.7969"/><text fill="#000000" font-family="sans-serif" font-size="14" font-style="italic" lengthAdjust="spacing" textLength="117" x="1300.5" y="129.3301">«Component(C4)»</text><text fill="#000000" font-family="sans-serif" font-size="14" lengthAdjust="spacing" textLength="98" x="1310" y="146.9395">TruckController</text><rect fill="#FFFFFF" height="49.2188" rx="2.5" ry="2.5" style="stroke:#000000;stroke-width:0.5;" width="131" x="1488.5" y="107.7969"/><text fill="#000000" font-family="sans-serif" font-size="14" font-style="italic" lengthAdjust="spacing" textLength="117" x="1495.5" y="129.3301">«Component(C4)»</text><text fill="#000000" font-family="sans-serif" font-size="14" lengthAdjust="spacing" textLength="83" x="1512.5" y="146.9395">TruckService</text><rect fill="#FFFFFF" height="49.2188" rx="2.5" ry="2.5" style="stroke:#000000;stroke-width:0.5;" width="131" x="1685.5" y="107.7969"/><text fill="#000000" font-family="sans-serif" font-size="14" font-style="italic" lengthAdjust="spacing" textLength="117" x="1692.5" y="129.3301">«Component(C4)»</text><text fill="#000000" font-family="sans-serif" font-size="14" lengthAdjust="spacing" textLength="104" x="1699" y="146.9395">TruckRepository</text><rect fill="#FFFFFF" height="49.2188" rx="2.5" ry="2.5" style="stroke:#000000;stroke-width:0.5;" width="131" x="1850.5" y="107.7969"/><text fill="#000000" font-family="sans-serif" font-size="14" font-style="italic" lengthAdjust="spacing" textLength="117" x="1857.5" y="129.3301">«Component(C4)»</text><text fill="#000000" font-family="sans-serif" font-size="14" lengthAdjust="spacing" textLength="74" x="1879" y="146.9395">Persistance</text><text fill="#000000" font-family="sans-serif" font-size="14" lengthAdjust="spacing" textLength="92" x="5" y="1293.9863">Fleet Manager</text><ellipse cx="54" cy="1227.9531" fill="#E2E2F0" rx="8" ry="8" style="stroke:#181818;stroke-width:0.5;"/><path d="M54,1235.9531 L54,1262.9531 M41,1243.9531 L67,1243.9531 M54,1262.9531 L41,1277.9531 M54,1262.9531 L67,1277.9531 " fill="none" style="stroke:#181818;stroke-width:0.5;"/><rect fill="#FFFFFF" height="49.2188" rx="2.5" ry="2.5" style="stroke:#000000;stroke-width:0.5;" width="175" x="195.5" y="1219.4531"/><text fill="#000000" font-family="sans-serif" font-size="14" font-style="italic" lengthAdjust="spacing" textLength="117" x="224.5" y="1240.9863">«Component(C4)»</text><text fill="#000000" font-family="sans-serif" font-size="14" lengthAdjust="spacing" textLength="161" x="202.5" y="1258.5957">FleetManagerComponent</text><rect fill="#FFFFFF" height="49.2188" rx="2.5" ry="2.5" style="stroke:#000000;stroke-width:0.5;" width="131" x="486.5" y="1219.4531"/><text fill="#000000" font-family="sans-serif" font-size="14" font-style="italic" lengthAdjust="spacing" textLength="117" x="493.5" y="1240.9863">«Component(C4)»</text><text fill="#000000" font-family="sans-serif" font-size="14" lengthAdjust="spacing" textLength="83" x="510.5" y="1258.5957">TruckService</text><rect fill="#FFFFFF" height="49.2188" rx="2.5" ry="2.5" style="stroke:#000000;stroke-width:0.5;" width="120" x="761" y="1219.4531"/><text fill="#000000" font-family="sans-serif" font-size="14" font-style="italic" lengthAdjust="spacing" textLength="106" x="768" y="1240.9863">«Container(C4)»</text><text fill="#000000" font-family="sans-serif" font-size="14" lengthAdjust="spacing" textLength="29" x="806.5" y="1258.5957">Auth</text><rect fill="#FFFFFF" height="49.2188" rx="2.5" ry="2.5" style="stroke:#000000;stroke-width:0.5;" width="131" x="1024.5" y="1219.4531"/><text fill="#000000" font-family="sans-serif" font-size="14" font-style="italic" lengthAdjust="spacing" textLength="117" x="1031.5" y="1240.9863">«Component(C4)»</text><text fill="#000000" font-family="sans-serif" font-size="14" lengthAdjust="spacing" textLength="74" x="1053" y="1258.5957">TruckRoute</text><rect fill="#FFFFFF" height="49.2188" rx="2.5" ry="2.5" style="stroke:#000000;stroke-width:0.5;" width="131" x="1293.5" y="1219.4531"/><text fill="#000000" font-family="sans-serif" font-size="14" font-style="italic" lengthAdjust="spacing" textLength="117" x="1300.5" y="1240.9863">«Component(C4)»</text><text fill="#000000" font-family="sans-serif" font-size="14" lengthAdjust="spacing" textLength="98" x="1310" y="1258.5957">TruckController</text><rect fill="#FFFFFF" height="49.2188" rx="2.5" ry="2.5" style="stroke:#000000;stroke-width:0.5;" width="131" x="1488.5" y="1219.4531"/><text fill="#000000" font-family="sans-serif" font-size="14" font-style="italic" lengthAdjust="spacing" textLength="117" x="1495.5" y="1240.9863">«Component(C4)»</text><text fill="#000000" font-family="sans-serif" font-size="14" lengthAdjust="spacing" textLength="83" x="1512.5" y="1258.5957">TruckService</text><rect fill="#FFFFFF" height="49.2188" rx="2.5" ry="2.5" style="stroke:#000000;stroke-width:0.5;" width="131" x="1685.5" y="1219.4531"/><text fill="#000000" font-family="sans-serif" font-size="14" font-style="italic" lengthAdjust="spacing" textLength="117" x="1692.5" y="1240.9863">«Component(C4)»</text><text fill="#000000" font-family="sans-serif" font-size="14" lengthAdjust="spacing" textLength="104" x="1699" y="1258.5957">TruckRepository</text><rect fill="#FFFFFF" height="49.2188" rx="2.5" ry="2.5" style="stroke:#000000;stroke-width:0.5;" width="131" x="1850.5" y="1219.4531"/><text fill="#000000" font-family="sans-serif" font-size="14" font-style="italic" lengthAdjust="spacing" textLength="117" x="1857.5" y="1240.9863">«Component(C4)»</text><text fill="#000000" font-family="sans-serif" font-size="14" lengthAdjust="spacing" textLength="74" x="1879" y="1258.5957">Persistance</text><polygon fill="#181818" points="266,184.3672,276,188.3672,266,192.3672,270,188.3672" style="stroke:#181818;stroke-width:1.0;"/><line style="stroke:#181818;stroke-width:1.0;" x1="59" x2="272" y1="188.3672" y2="188.3672"/><text fill="#000000" font-family="sans-serif" font-size="13" font-weight="bold" lengthAdjust="spacing" textLength="7" x="66" y="183.5107">1</text><text fill="#000000" font-family="sans-serif" font-size="13" lengthAdjust="spacing" textLength="120" x="77" y="183.5107">Asks to delete Truck</text><polygon fill="#181818" points="70,214.7188,60,218.7188,70,222.7188,66,218.7188" style="stroke:#181818;stroke-width:1.0;"/><line style="stroke:#181818;stroke-width:1.0;" x1="64" x2="277" y1="218.7188" y2="218.7188"/><text fill="#000000" font-family="sans-serif" font-size="13" font-weight="bold" lengthAdjust="spacing" textLength="7" x="76" y="213.8623">2</text><text fill="#000000" font-family="sans-serif" font-size="13" lengthAdjust="spacing" textLength="100" x="87" y="213.8623">Asks for Truck ID</text><polygon fill="#181818" points="266,245.0703,276,249.0703,266,253.0703,270,249.0703" style="stroke:#181818;stroke-width:1.0;"/><line style="stroke:#181818;stroke-width:1.0;" x1="59" x2="272" y1="249.0703" y2="249.0703"/><text fill="#000000" font-family="sans-serif" font-size="13" font-weight="bold" lengthAdjust="spacing" textLength="7" x="66" y="244.2139">3</text><text fill="#000000" font-family="sans-serif" font-size="13" lengthAdjust="spacing" textLength="91" x="77" y="244.2139">Inserts Truck ID</text><polygon fill="#181818" points="535,275.4219,545,279.4219,535,283.4219,539,279.4219" style="stroke:#181818;stroke-width:1.0;"/><line style="stroke:#181818;stroke-width:1.0;" x1="288" x2="541" y1="279.4219" y2="279.4219"/><text fill="#000000" font-family="sans-serif" font-size="13" font-weight="bold" lengthAdjust="spacing" textLength="7" x="295" y="274.5654">4</text><text fill="#000000" font-family="sans-serif" font-size="13" lengthAdjust="spacing" textLength="123" x="306" y="274.5654">deleteTruck(Truck ID)</text><polygon fill="#181818" points="804,305.7734,814,309.7734,804,313.7734,808,309.7734" style="stroke:#181818;stroke-width:1.0;"/><line style="stroke:#181818;stroke-width:1.0;" x1="557" x2="810" y1="309.7734" y2="309.7734"/><text fill="#000000" font-family="sans-serif" font-size="13" font-weight="bold" lengthAdjust="spacing" textLength="7" x="564" y="304.917">5</text><text fill="#000000" font-family="sans-serif" font-size="13" lengthAdjust="spacing" textLength="177" x="575" y="304.917">DELETE deleteTruck(Truck ID)</text><polygon fill="#181818" points="1073,336.125,1083,340.125,1073,344.125,1077,340.125" style="stroke:#181818;stroke-width:1.0;"/><line style="stroke:#181818;stroke-width:1.0;" x1="826" x2="1079" y1="340.125" y2="340.125"/><text fill="#000000" font-family="sans-serif" font-size="13" font-weight="bold" lengthAdjust="spacing" textLength="7" x="833" y="335.2686">6</text><text fill="#000000" font-family="sans-serif" font-size="13" lengthAdjust="spacing" textLength="170" x="844" y="335.2686">DELETE deleteTruck(truckID)</text><polygon fill="#181818" points="1342,366.4766,1352,370.4766,1342,374.4766,1346,370.4766" style="stroke:#181818;stroke-width:1.0;"/><line style="stroke:#181818;stroke-width:1.0;" x1="1095" x2="1348" y1="370.4766" y2="370.4766"/><text fill="#000000" font-family="sans-serif" font-size="13" font-weight="bold" lengthAdjust="spacing" textLength="7" x="1102" y="365.6201">7</text><text fill="#000000" font-family="sans-serif" font-size="13" lengthAdjust="spacing" textLength="170" x="1113" y="365.6201">DELETE deleteTruck(truckID)</text><polygon fill="#181818" points="1537,396.8281,1547,400.8281,1537,404.8281,1541,400.8281" style="stroke:#181818;stroke-width:1.0;"/><line style="stroke:#181818;stroke-width:1.0;" x1="1364" x2="1543" y1="400.8281" y2="400.8281"/><text fill="#000000" font-family="sans-serif" font-size="13" font-weight="bold" lengthAdjust="spacing" textLength="7" x="1371" y="395.9717">8</text><text fill="#000000" font-family="sans-serif" font-size="13" lengthAdjust="spacing" textLength="124" x="1382" y="395.9717">deleteTruck(truckInfo)</text><polygon fill="#181818" points="1734,427.1797,1744,431.1797,1734,435.1797,1738,431.1797" style="stroke:#181818;stroke-width:1.0;"/><line style="stroke:#181818;stroke-width:1.0;" x1="1559" x2="1740" y1="431.1797" y2="431.1797"/><text fill="#000000" font-family="sans-serif" font-size="13" font-weight="bold" lengthAdjust="spacing" textLength="7" x="1566" y="426.3232">9</text><text fill="#000000" font-family="sans-serif" font-size="13" lengthAdjust="spacing" textLength="150" x="1577" y="426.3232">getTruckById(TruckInfo.id)</text><polygon fill="#181818" points="1899,457.5313,1909,461.5313,1899,465.5313,1903,461.5313" style="stroke:#181818;stroke-width:1.0;"/><line style="stroke:#181818;stroke-width:1.0;" x1="1756" x2="1905" y1="461.5313" y2="461.5313"/><text fill="#000000" font-family="sans-serif" font-size="13" font-weight="bold" lengthAdjust="spacing" textLength="14" x="1763" y="456.6748">10</text><text fill="#000000" font-family="sans-serif" font-size="13" lengthAdjust="spacing" textLength="118" x="1781" y="456.6748">findOne(TruckInfo.id)</text><path d="M38,473.5313 L99,473.5313 L99,481.8828 L89,491.8828 L38,491.8828 L38,473.5313 " fill="#EEEEEE" style="stroke:#000000;stroke-width:1.5;"/><rect fill="none" height="721.9219" style="stroke:#000000;stroke-width:1.5;" width="1894" x="38" y="473.5313"/><text fill="#000000" font-family="sans-serif" font-size="13" font-weight="bold" lengthAdjust="spacing" textLength="16" x="53" y="488.0264">alt</text><text fill="#000000" font-family="sans-serif" font-size="11" font-weight="bold" lengthAdjust="spacing" textLength="77" x="114" y="486.9502">[Truck exists]</text><line style="stroke:#000000;stroke-width:1.0;stroke-dasharray:2.0,2.0;" x1="38" x2="1932" y1="877.1016" y2="877.1016"/><text fill="#000000" font-family="sans-serif" font-size="11" font-weight="bold" lengthAdjust="spacing" textLength="115" x="43" y="888.5205">[Truck doesn't exist]</text><polygon fill="#181818" points="1767,520.2344,1757,524.2344,1767,528.2344,1763,524.2344" style="stroke:#181818;stroke-width:1.0;"/><line style="stroke:#181818;stroke-width:1.0;" x1="1761" x2="1910" y1="524.2344" y2="524.2344"/><text fill="#000000" font-family="sans-serif" font-size="13" font-weight="bold" lengthAdjust="spacing" textLength="14" x="1773" y="519.3779">11</text><text fill="#000000" font-family="sans-serif" font-size="13" lengthAdjust="spacing" textLength="49" x="1791" y="519.3779">truckInfo</text><polygon fill="#181818" points="1570,550.5859,1560,554.5859,1570,558.5859,1566,554.5859" style="stroke:#181818;stroke-width:1.0;"/><line style="stroke:#181818;stroke-width:1.0;" x1="1564" x2="1745" y1="554.5859" y2="554.5859"/><text fill="#000000" font-family="sans-serif" font-size="13" font-weight="bold" lengthAdjust="spacing" textLength="14" x="1576" y="549.7295">12</text><text fill="#000000" font-family="sans-serif" font-size="13" lengthAdjust="spacing" textLength="49" x="1594" y="549.7295">truckInfo</text><polygon fill="#181818" points="1734,580.9375,1744,584.9375,1734,588.9375,1738,584.9375" style="stroke:#181818;stroke-width:1.0;"/><line style="stroke:#181818;stroke-width:1.0;" x1="1559" x2="1740" y1="584.9375" y2="584.9375"/><text fill="#000000" font-family="sans-serif" font-size="13" font-weight="bold" lengthAdjust="spacing" textLength="14" x="1566" y="580.0811">13</text><text fill="#000000" font-family="sans-serif" font-size="13" lengthAdjust="spacing" textLength="84" x="1584" y="580.0811">delete(truckID)</text><polygon fill="#181818" points="1899,611.2891,1909,615.2891,1899,619.2891,1903,615.2891" style="stroke:#181818;stroke-width:1.0;"/><line style="stroke:#181818;stroke-width:1.0;" x1="1756" x2="1905" y1="615.2891" y2="615.2891"/><text fill="#000000" font-family="sans-serif" font-size="13" font-weight="bold" lengthAdjust="spacing" textLength="14" x="1763" y="610.4326">14</text><text fill="#000000" font-family="sans-serif" font-size="13" lengthAdjust="spacing" textLength="116" x="1781" y="610.4326">deleteOne(truckInfo)</text><polygon fill="#181818" points="1767,641.6406,1757,645.6406,1767,649.6406,1763,645.6406" style="stroke:#181818;stroke-width:1.0;"/><line style="stroke:#181818;stroke-width:1.0;" x1="1761" x2="1910" y1="645.6406" y2="645.6406"/><text fill="#000000" font-family="sans-serif" font-size="13" font-weight="bold" lengthAdjust="spacing" textLength="14" x="1773" y="640.7842">15</text><text fill="#000000" font-family="sans-serif" font-size="13" lengthAdjust="spacing" textLength="22" x="1791" y="640.7842">true</text><polygon fill="#181818" points="1570,671.9922,1560,675.9922,1570,679.9922,1566,675.9922" style="stroke:#181818;stroke-width:1.0;"/><line style="stroke:#181818;stroke-width:1.0;" x1="1564" x2="1745" y1="675.9922" y2="675.9922"/><text fill="#000000" font-family="sans-serif" font-size="13" font-weight="bold" lengthAdjust="spacing" textLength="14" x="1576" y="671.1357">16</text><text fill="#000000" font-family="sans-serif" font-size="13" lengthAdjust="spacing" textLength="52" x="1594" y="671.1357">TruckInfo</text><polygon fill="#181818" points="1375,702.3438,1365,706.3438,1375,710.3438,1371,706.3438" style="stroke:#181818;stroke-width:1.0;"/><line style="stroke:#181818;stroke-width:1.0;" x1="1369" x2="1548" y1="706.3438" y2="706.3438"/><text fill="#000000" font-family="sans-serif" font-size="13" font-weight="bold" lengthAdjust="spacing" textLength="14" x="1381" y="701.4873">17</text><text fill="#000000" font-family="sans-serif" font-size="13" lengthAdjust="spacing" textLength="52" x="1399" y="701.4873">TruckInfo</text><polygon fill="#181818" points="1106,732.6953,1096,736.6953,1106,740.6953,1102,736.6953" style="stroke:#181818;stroke-width:1.0;"/><line style="stroke:#181818;stroke-width:1.0;" x1="1100" x2="1353" y1="736.6953" y2="736.6953"/><text fill="#000000" font-family="sans-serif" font-size="13" font-weight="bold" lengthAdjust="spacing" textLength="14" x="1112" y="731.8389">18</text><text fill="#000000" font-family="sans-serif" font-size="13" lengthAdjust="spacing" textLength="112" x="1130" y="731.8389">200 OK + TruckInfo</text><polygon fill="#181818" points="837,763.0469,827,767.0469,837,771.0469,833,767.0469" style="stroke:#181818;stroke-width:1.0;"/><line style="stroke:#181818;stroke-width:1.0;" x1="831" x2="1084" y1="767.0469" y2="767.0469"/><text fill="#000000" font-family="sans-serif" font-size="13" font-weight="bold" lengthAdjust="spacing" textLength="14" x="843" y="762.1904">19</text><text fill="#000000" font-family="sans-serif" font-size="13" lengthAdjust="spacing" textLength="97" x="861" y="762.1904">200 OK truckInfo</text><polygon fill="#181818" points="568,793.3984,558,797.3984,568,801.3984,564,797.3984" style="stroke:#181818;stroke-width:1.0;"/><line style="stroke:#181818;stroke-width:1.0;" x1="562" x2="815" y1="797.3984" y2="797.3984"/><text fill="#000000" font-family="sans-serif" font-size="13" font-weight="bold" lengthAdjust="spacing" textLength="14" x="574" y="792.542">20</text><text fill="#000000" font-family="sans-serif" font-size="13" lengthAdjust="spacing" textLength="109" x="592" y="792.542">200 OK + truckInfo</text><polygon fill="#181818" points="299,823.75,289,827.75,299,831.75,295,827.75" style="stroke:#181818;stroke-width:1.0;"/><line style="stroke:#181818;stroke-width:1.0;" x1="293" x2="546" y1="827.75" y2="827.75"/><text fill="#000000" font-family="sans-serif" font-size="13" font-weight="bold" lengthAdjust="spacing" textLength="14" x="305" y="822.8936">21</text><text fill="#000000" font-family="sans-serif" font-size="13" lengthAdjust="spacing" textLength="109" x="323" y="822.8936">200 OK + truckInfo</text><polygon fill="#181818" points="70,854.1016,60,858.1016,70,862.1016,66,858.1016" style="stroke:#181818;stroke-width:1.0;"/><line style="stroke:#181818;stroke-width:1.0;" x1="64" x2="277" y1="858.1016" y2="858.1016"/><text fill="#000000" font-family="sans-serif" font-size="13" font-weight="bold" lengthAdjust="spacing" textLength="14" x="76" y="853.2451">22</text><text fill="#000000" font-family="sans-serif" font-size="13" lengthAdjust="spacing" textLength="177" x="94" y="853.2451">Informs that Truck was deleted</text><polygon fill="#181818" points="1734,910.2891,1744,914.2891,1734,918.2891,1738,914.2891" style="stroke:#181818;stroke-width:1.0;"/><line style="stroke:#181818;stroke-width:1.0;" x1="1559" x2="1740" y1="914.2891" y2="914.2891"/><text fill="#000000" font-family="sans-serif" font-size="13" font-weight="bold" lengthAdjust="spacing" textLength="14" x="1566" y="909.4326">23</text><text fill="#000000" font-family="sans-serif" font-size="13" lengthAdjust="spacing" textLength="150" x="1584" y="909.4326">getTruckById(TruckInfo.id)</text><polygon fill="#181818" points="1899,940.6406,1909,944.6406,1899,948.6406,1903,944.6406" style="stroke:#181818;stroke-width:1.0;"/><line style="stroke:#181818;stroke-width:1.0;" x1="1756" x2="1905" y1="944.6406" y2="944.6406"/><text fill="#000000" font-family="sans-serif" font-size="13" font-weight="bold" lengthAdjust="spacing" textLength="14" x="1763" y="939.7842">24</text><text fill="#000000" font-family="sans-serif" font-size="13" lengthAdjust="spacing" textLength="118" x="1781" y="939.7842">findOne(TruckInfo.id)</text><polygon fill="#181818" points="1767,970.9922,1757,974.9922,1767,978.9922,1763,974.9922" style="stroke:#181818;stroke-width:1.0;"/><line style="stroke:#181818;stroke-width:1.0;" x1="1761" x2="1910" y1="974.9922" y2="974.9922"/><text fill="#000000" font-family="sans-serif" font-size="13" font-weight="bold" lengthAdjust="spacing" textLength="14" x="1773" y="970.1357">25</text><text fill="#000000" font-family="sans-serif" font-size="13" lengthAdjust="spacing" textLength="20" x="1791" y="970.1357">null</text><polygon fill="#181818" points="1570,1001.3438,1560,1005.3438,1570,1009.3438,1566,1005.3438" style="stroke:#181818;stroke-width:1.0;"/><line style="stroke:#181818;stroke-width:1.0;" x1="1564" x2="1750" y1="1005.3438" y2="1005.3438"/><text fill="#000000" font-family="sans-serif" font-size="13" font-weight="bold" lengthAdjust="spacing" textLength="14" x="1576" y="1000.4873">26</text><text fill="#000000" font-family="sans-serif" font-size="13" lengthAdjust="spacing" textLength="20" x="1594" y="1000.4873">null</text><polygon fill="#181818" points="1375,1031.6953,1365,1035.6953,1375,1039.6953,1371,1035.6953" style="stroke:#181818;stroke-width:1.0;"/><line style="stroke:#181818;stroke-width:1.0;" x1="1369" x2="1548" y1="1035.6953" y2="1035.6953"/><text fill="#000000" font-family="sans-serif" font-size="13" font-weight="bold" lengthAdjust="spacing" textLength="14" x="1381" y="1030.8389">27</text><text fill="#000000" font-family="sans-serif" font-size="13" lengthAdjust="spacing" textLength="143" x="1399" y="1030.8389">error, Truck doesn't exist</text><polygon fill="#181818" points="1106,1062.0469,1096,1066.0469,1106,1070.0469,1102,1066.0469" style="stroke:#181818;stroke-width:1.0;"/><line style="stroke:#181818;stroke-width:1.0;" x1="1100" x2="1353" y1="1066.0469" y2="1066.0469"/><text fill="#000000" font-family="sans-serif" font-size="13" font-weight="bold" lengthAdjust="spacing" textLength="14" x="1112" y="1061.1904">28</text><text fill="#000000" font-family="sans-serif" font-size="13" lengthAdjust="spacing" textLength="217" x="1130" y="1061.1904">404 NOT FOUND, Truck doesn't exist</text><polygon fill="#181818" points="837,1092.3984,827,1096.3984,837,1100.3984,833,1096.3984" style="stroke:#181818;stroke-width:1.0;"/><line style="stroke:#181818;stroke-width:1.0;" x1="831" x2="1084" y1="1096.3984" y2="1096.3984"/><text fill="#000000" font-family="sans-serif" font-size="13" font-weight="bold" lengthAdjust="spacing" textLength="14" x="843" y="1091.542">29</text><text fill="#000000" font-family="sans-serif" font-size="13" lengthAdjust="spacing" textLength="217" x="861" y="1091.542">404 NOT FOUND, Truck doesn't exist</text><polygon fill="#181818" points="568,1122.75,558,1126.75,568,1130.75,564,1126.75" style="stroke:#181818;stroke-width:1.0;"/><line style="stroke:#181818;stroke-width:1.0;" x1="562" x2="815" y1="1126.75" y2="1126.75"/><text fill="#000000" font-family="sans-serif" font-size="13" font-weight="bold" lengthAdjust="spacing" textLength="14" x="574" y="1121.8936">30</text><text fill="#000000" font-family="sans-serif" font-size="13" lengthAdjust="spacing" textLength="217" x="592" y="1121.8936">404 NOT FOUND, Truck doesn't exist</text><polygon fill="#181818" points="299,1153.1016,289,1157.1016,299,1161.1016,295,1157.1016" style="stroke:#181818;stroke-width:1.0;"/><line style="stroke:#181818;stroke-width:1.0;" x1="293" x2="546" y1="1157.1016" y2="1157.1016"/><text fill="#000000" font-family="sans-serif" font-size="13" font-weight="bold" lengthAdjust="spacing" textLength="14" x="305" y="1152.2451">31</text><text fill="#000000" font-family="sans-serif" font-size="13" lengthAdjust="spacing" textLength="217" x="323" y="1152.2451">404 NOT FOUND, Truck doesn't exist</text><polygon fill="#181818" points="70,1183.4531,60,1187.4531,70,1191.4531,66,1187.4531" style="stroke:#181818;stroke-width:1.0;"/><line style="stroke:#181818;stroke-width:1.0;" x1="64" x2="277" y1="1187.4531" y2="1187.4531"/><text fill="#000000" font-family="sans-serif" font-size="13" font-weight="bold" lengthAdjust="spacing" textLength="14" x="76" y="1182.5967">32</text><text fill="#000000" font-family="sans-serif" font-size="13" lengthAdjust="spacing" textLength="165" x="94" y="1182.5967">Informs about deletion failure</text><!--MD5=[e720e54c8fcd2594919de8f395d27120]
@startuml deleteTruckSD

autonumber
!pragma teoz true

skinparam sequence {
ParticipantBorderColor black
ParticipantBackgroundColor white
}

actor "Fleet Manager" as manager

box "<<Container(C4)>>\n           UI" #SandyBrown
participant "FleetManagerComponent" as FleetManagerComponent <<Component(C4)>>
participant "TruckService" as TruckService <<Component(C4)>>
end box

box "<<System(C4)>>\n       System" #LightGray
participant Auth as  Auth <<Container(C4)>>
box "<<Container(C4)>>\n       Logistics" #LightCyan
participant TruckRoute as Route <<Component(C4)>>
participant TruckController as Controller <<Component(C4)>>
participant TruckService as Service <<Component(C4)>>
participant TruckRepository as Repository <<Component(C4)>>
participant Persistance as Persistance <<Component(C4)>>
end box



activate manager

manager -> FleetManagerComponent: Asks to delete Truck
activate FleetManagerComponent
FleetManagerComponent -> manager: Asks for Truck ID

manager ->FleetManagerComponent: Inserts Truck ID

FleetManagerComponent -> TruckService: deleteTruck(Truck ID)
activate TruckService
TruckService -> Auth: DELETE deleteTruck(Truck ID)
activate Auth
Auth -> Route: DELETE deleteTruck(truckID)
activate Route
Route -> Controller :DELETE deleteTruck(truckID)
activate Controller



Controller -> Service: deleteTruck(truckInfo)
activate Service

Service -> Repository: getTruckById(TruckInfo.id)
activate Repository
Repository -> Persistance: findOne(TruckInfo.id)
activate Persistance

alt Truck exists

Persistance -> Repository: truckInfo
Repository->Service: truckInfo

Service -> Repository: delete(truckID)
Repository -> Persistance:deleteOne(truckInfo)

Persistance->Repository: true

Repository->Service: TruckInfo

Service->Controller: TruckInfo
Controller->Route: 200 OK + TruckInfo
Route->Auth: 200 OK truckInfo

Auth->TruckService: 200 OK + truckInfo
TruckService->FleetManagerComponent: 200 OK + truckInfo
FleetManagerComponent->manager: Informs that Truck was deleted

else Truck doesn't exist

Service -> Repository: getTruckById(TruckInfo.id)

Repository -> Persistance: findOne(TruckInfo.id)

Persistance->Repository: null
deactivate Repository
Repository->Service: null
deactivate Repository
Service->Controller: error, Truck doesn't exist
deactivate Service
Controller->Route: 404 NOT FOUND, Truck doesn't exist
deactivate Controller
Route->Auth: 404 NOT FOUND, Truck doesn't exist
deactivate Route

Auth->TruckService: 404 NOT FOUND, Truck doesn't exist
deactivate Auth
TruckService->FleetManagerComponent: 404 NOT FOUND, Truck doesn't exist
deactivate TruckService
FleetManagerComponent->manager: Informs about deletion failure
deactivate FleetManagerComponent


@enduml

PlantUML version 1.2022.7(Mon Aug 22 18:01:30 WEST 2022)
(GPL source distribution)
Java Runtime: Java(TM) SE Runtime Environment
JVM: Java HotSpot(TM) 64-Bit Server VM
Default Encoding: Cp1252
Language: en
Country: GB
--></g></svg>