<?xml version="1.0" encoding="UTF-8" standalone="no"?><svg xmlns="http://www.w3.org/2000/svg" xmlns:xlink="http://www.w3.org/1999/xlink" contentStyleType="text/css" height="751px" preserveAspectRatio="none" style="width:1383px;height:751px;background:#FFFFFF;" version="1.1" viewBox="0 0 1383 751" width="1383px" zoomAndPan="magnify"><defs/><g><rect fill="#F4A460" height="739.25" style="stroke:#181818;stroke-width:0.5;" width="327" x="129.5" y="6"/><text fill="#000000" font-family="sans-serif" font-size="13" font-weight="bold" lengthAdjust="spacing" textLength="118" x="234" y="19.4951">&lt;&lt;Container(C4)&gt;&gt;</text><text fill="#000000" font-family="sans-serif" font-size="13" font-weight="bold" lengthAdjust="spacing" textLength="13" x="278" y="35.8467">UI</text><rect fill="#D3D3D3" height="739.25" style="stroke:#181818;stroke-width:0.5;" width="888.5" x="489" y="6"/><text fill="#000000" font-family="sans-serif" font-size="13" font-weight="bold" lengthAdjust="spacing" textLength="102" x="882.25" y="19.4951">&lt;&lt;System(C4)&gt;&gt;</text><text fill="#000000" font-family="sans-serif" font-size="13" font-weight="bold" lengthAdjust="spacing" textLength="46" x="910.25" y="35.8467">System</text><rect fill="#E0FFFF" height="701.5469" style="stroke:#181818;stroke-width:0.5;" width="728" x="649.5" y="43.7031"/><text fill="#000000" font-family="sans-serif" font-size="13" font-weight="bold" lengthAdjust="spacing" textLength="118" x="954.5" y="57.1982">&lt;&lt;Container(C4)&gt;&gt;</text><text fill="#000000" font-family="sans-serif" font-size="13" font-weight="bold" lengthAdjust="spacing" textLength="55" x="982.5" y="73.5498">Logistics</text><line style="stroke:#181818;stroke-width:0.5;stroke-dasharray:5.0,5.0;" x1="54" x2="54" y1="158.0156" y2="661.6406"/><rect fill="#FFFFFF" height="490.625" style="stroke:#181818;stroke-width:1.0;" width="10" x="49" y="166.0156"/><line style="stroke:#181818;stroke-width:0.5;stroke-dasharray:5.0,5.0;" x1="221" x2="221" y1="158.0156" y2="661.6406"/><rect fill="#FFFFFF" height="455.2734" style="stroke:#181818;stroke-width:1.0;" width="10" x="216" y="188.3672"/><line style="stroke:#181818;stroke-width:0.5;stroke-dasharray:5.0,5.0;" x1="387" x2="387" y1="158.0156" y2="661.6406"/><rect fill="#FFFFFF" height="394.5703" style="stroke:#181818;stroke-width:1.0;" width="10" x="382" y="218.7188"/><line style="stroke:#181818;stroke-width:0.5;stroke-dasharray:5.0,5.0;" x1="553" x2="553" y1="158.0156" y2="661.6406"/><rect fill="#FFFFFF" height="333.8672" style="stroke:#181818;stroke-width:1.0;" width="10" x="548" y="249.0703"/><line style="stroke:#181818;stroke-width:0.5;stroke-dasharray:5.0,5.0;" x1="719" x2="719" y1="158.0156" y2="661.6406"/><rect fill="#FFFFFF" height="273.1641" style="stroke:#181818;stroke-width:1.0;" width="10" x="714" y="279.4219"/><line style="stroke:#181818;stroke-width:0.5;stroke-dasharray:5.0,5.0;" x1="885" x2="885" y1="158.0156" y2="661.6406"/><rect fill="#FFFFFF" height="212.4609" style="stroke:#181818;stroke-width:1.0;" width="10" x="880" y="309.7734"/><line style="stroke:#181818;stroke-width:0.5;stroke-dasharray:5.0,5.0;" x1="1026" x2="1026" y1="158.0156" y2="661.6406"/><rect fill="#FFFFFF" height="151.7578" style="stroke:#181818;stroke-width:1.0;" width="10" x="1021" y="340.125"/><line style="stroke:#181818;stroke-width:0.5;stroke-dasharray:5.0,5.0;" x1="1167" x2="1167" y1="158.0156" y2="661.6406"/><rect fill="#FFFFFF" height="91.0547" style="stroke:#181818;stroke-width:1.0;" width="10" x="1162" y="370.4766"/><line style="stroke:#181818;stroke-width:0.5;stroke-dasharray:5.0,5.0;" x1="1308" x2="1308" y1="158.0156" y2="661.6406"/><rect fill="#FFFFFF" height="30.3516" style="stroke:#181818;stroke-width:1.0;" width="10" x="1303" y="400.8281"/><text fill="#000000" font-family="sans-serif" font-size="14" lengthAdjust="spacing" textLength="92" x="5" y="154.9395">Fleet Manager</text><ellipse cx="54" cy="88.9063" fill="#E2E2F0" rx="8" ry="8" style="stroke:#181818;stroke-width:0.5;"/><path d="M54,96.9063 L54,123.9063 M41,104.9063 L67,104.9063 M54,123.9063 L41,138.9063 M54,123.9063 L67,138.9063 " fill="none" style="stroke:#181818;stroke-width:0.5;"/><rect fill="#FFFFFF" height="49.2188" rx="2.5" ry="2.5" style="stroke:#000000;stroke-width:0.5;" width="175" x="133.5" y="107.7969"/><text fill="#000000" font-family="sans-serif" font-size="14" font-style="italic" lengthAdjust="spacing" textLength="117" x="162.5" y="129.3301">«Component(C4)»</text><text fill="#000000" font-family="sans-serif" font-size="14" lengthAdjust="spacing" textLength="161" x="140.5" y="146.9395">FleetManagerComponent</text><rect fill="#FFFFFF" height="49.2188" rx="2.5" ry="2.5" style="stroke:#000000;stroke-width:0.5;" width="131" x="321.5" y="107.7969"/><text fill="#000000" font-family="sans-serif" font-size="14" font-style="italic" lengthAdjust="spacing" textLength="117" x="328.5" y="129.3301">«Component(C4)»</text><text fill="#000000" font-family="sans-serif" font-size="14" lengthAdjust="spacing" textLength="83" x="345.5" y="146.9395">TruckService</text><rect fill="#FFFFFF" height="49.2188" rx="2.5" ry="2.5" style="stroke:#000000;stroke-width:0.5;" width="120" x="493" y="107.7969"/><text fill="#000000" font-family="sans-serif" font-size="14" font-style="italic" lengthAdjust="spacing" textLength="106" x="500" y="129.3301">«Container(C4)»</text><text fill="#000000" font-family="sans-serif" font-size="14" lengthAdjust="spacing" textLength="29" x="538.5" y="146.9395">Auth</text><rect fill="#FFFFFF" height="49.2188" rx="2.5" ry="2.5" style="stroke:#000000;stroke-width:0.5;" width="131" x="653.5" y="107.7969"/><text fill="#000000" font-family="sans-serif" font-size="14" font-style="italic" lengthAdjust="spacing" textLength="117" x="660.5" y="129.3301">«Component(C4)»</text><text fill="#000000" font-family="sans-serif" font-size="14" lengthAdjust="spacing" textLength="74" x="682" y="146.9395">TruckRoute</text><rect fill="#FFFFFF" height="49.2188" rx="2.5" ry="2.5" style="stroke:#000000;stroke-width:0.5;" width="131" x="819.5" y="107.7969"/><text fill="#000000" font-family="sans-serif" font-size="14" font-style="italic" lengthAdjust="spacing" textLength="117" x="826.5" y="129.3301">«Component(C4)»</text><text fill="#000000" font-family="sans-serif" font-size="14" lengthAdjust="spacing" textLength="98" x="836" y="146.9395">TruckController</text><rect fill="#FFFFFF" height="49.2188" rx="2.5" ry="2.5" style="stroke:#000000;stroke-width:0.5;" width="131" x="960.5" y="107.7969"/><text fill="#000000" font-family="sans-serif" font-size="14" font-style="italic" lengthAdjust="spacing" textLength="117" x="967.5" y="129.3301">«Component(C4)»</text><text fill="#000000" font-family="sans-serif" font-size="14" lengthAdjust="spacing" textLength="83" x="984.5" y="146.9395">TruckService</text><rect fill="#FFFFFF" height="49.2188" rx="2.5" ry="2.5" style="stroke:#000000;stroke-width:0.5;" width="131" x="1101.5" y="107.7969"/><text fill="#000000" font-family="sans-serif" font-size="14" font-style="italic" lengthAdjust="spacing" textLength="117" x="1108.5" y="129.3301">«Component(C4)»</text><text fill="#000000" font-family="sans-serif" font-size="14" lengthAdjust="spacing" textLength="104" x="1115" y="146.9395">TruckRepository</text><rect fill="#FFFFFF" height="49.2188" rx="2.5" ry="2.5" style="stroke:#000000;stroke-width:0.5;" width="131" x="1242.5" y="107.7969"/><text fill="#000000" font-family="sans-serif" font-size="14" font-style="italic" lengthAdjust="spacing" textLength="117" x="1249.5" y="129.3301">«Component(C4)»</text><text fill="#000000" font-family="sans-serif" font-size="14" lengthAdjust="spacing" textLength="74" x="1271" y="146.9395">Persistance</text><text fill="#000000" font-family="sans-serif" font-size="14" lengthAdjust="spacing" textLength="92" x="5" y="736.1738">Fleet Manager</text><ellipse cx="54" cy="670.1406" fill="#E2E2F0" rx="8" ry="8" style="stroke:#181818;stroke-width:0.5;"/><path d="M54,678.1406 L54,705.1406 M41,686.1406 L67,686.1406 M54,705.1406 L41,720.1406 M54,705.1406 L67,720.1406 " fill="none" style="stroke:#181818;stroke-width:0.5;"/><rect fill="#FFFFFF" height="49.2188" rx="2.5" ry="2.5" style="stroke:#000000;stroke-width:0.5;" width="175" x="133.5" y="661.6406"/><text fill="#000000" font-family="sans-serif" font-size="14" font-style="italic" lengthAdjust="spacing" textLength="117" x="162.5" y="683.1738">«Component(C4)»</text><text fill="#000000" font-family="sans-serif" font-size="14" lengthAdjust="spacing" textLength="161" x="140.5" y="700.7832">FleetManagerComponent</text><rect fill="#FFFFFF" height="49.2188" rx="2.5" ry="2.5" style="stroke:#000000;stroke-width:0.5;" width="131" x="321.5" y="661.6406"/><text fill="#000000" font-family="sans-serif" font-size="14" font-style="italic" lengthAdjust="spacing" textLength="117" x="328.5" y="683.1738">«Component(C4)»</text><text fill="#000000" font-family="sans-serif" font-size="14" lengthAdjust="spacing" textLength="83" x="345.5" y="700.7832">TruckService</text><rect fill="#FFFFFF" height="49.2188" rx="2.5" ry="2.5" style="stroke:#000000;stroke-width:0.5;" width="120" x="493" y="661.6406"/><text fill="#000000" font-family="sans-serif" font-size="14" font-style="italic" lengthAdjust="spacing" textLength="106" x="500" y="683.1738">«Container(C4)»</text><text fill="#000000" font-family="sans-serif" font-size="14" lengthAdjust="spacing" textLength="29" x="538.5" y="700.7832">Auth</text><rect fill="#FFFFFF" height="49.2188" rx="2.5" ry="2.5" style="stroke:#000000;stroke-width:0.5;" width="131" x="653.5" y="661.6406"/><text fill="#000000" font-family="sans-serif" font-size="14" font-style="italic" lengthAdjust="spacing" textLength="117" x="660.5" y="683.1738">«Component(C4)»</text><text fill="#000000" font-family="sans-serif" font-size="14" lengthAdjust="spacing" textLength="74" x="682" y="700.7832">TruckRoute</text><rect fill="#FFFFFF" height="49.2188" rx="2.5" ry="2.5" style="stroke:#000000;stroke-width:0.5;" width="131" x="819.5" y="661.6406"/><text fill="#000000" font-family="sans-serif" font-size="14" font-style="italic" lengthAdjust="spacing" textLength="117" x="826.5" y="683.1738">«Component(C4)»</text><text fill="#000000" font-family="sans-serif" font-size="14" lengthAdjust="spacing" textLength="98" x="836" y="700.7832">TruckController</text><rect fill="#FFFFFF" height="49.2188" rx="2.5" ry="2.5" style="stroke:#000000;stroke-width:0.5;" width="131" x="960.5" y="661.6406"/><text fill="#000000" font-family="sans-serif" font-size="14" font-style="italic" lengthAdjust="spacing" textLength="117" x="967.5" y="683.1738">«Component(C4)»</text><text fill="#000000" font-family="sans-serif" font-size="14" lengthAdjust="spacing" textLength="83" x="984.5" y="700.7832">TruckService</text><rect fill="#FFFFFF" height="49.2188" rx="2.5" ry="2.5" style="stroke:#000000;stroke-width:0.5;" width="131" x="1101.5" y="661.6406"/><text fill="#000000" font-family="sans-serif" font-size="14" font-style="italic" lengthAdjust="spacing" textLength="117" x="1108.5" y="683.1738">«Component(C4)»</text><text fill="#000000" font-family="sans-serif" font-size="14" lengthAdjust="spacing" textLength="104" x="1115" y="700.7832">TruckRepository</text><rect fill="#FFFFFF" height="49.2188" rx="2.5" ry="2.5" style="stroke:#000000;stroke-width:0.5;" width="131" x="1242.5" y="661.6406"/><text fill="#000000" font-family="sans-serif" font-size="14" font-style="italic" lengthAdjust="spacing" textLength="117" x="1249.5" y="683.1738">«Component(C4)»</text><text fill="#000000" font-family="sans-serif" font-size="14" lengthAdjust="spacing" textLength="74" x="1271" y="700.7832">Persistance</text><polygon fill="#181818" points="204,184.3672,214,188.3672,204,192.3672,208,188.3672" style="stroke:#181818;stroke-width:1.0;"/><line style="stroke:#181818;stroke-width:1.0;" x1="59" x2="210" y1="188.3672" y2="188.3672"/><text fill="#000000" font-family="sans-serif" font-size="13" font-weight="bold" lengthAdjust="spacing" textLength="7" x="66" y="183.5107">1</text><text fill="#000000" font-family="sans-serif" font-size="13" lengthAdjust="spacing" textLength="127" x="77" y="183.5107">Asks to get all Trucks</text><polygon fill="#181818" points="370,214.7188,380,218.7188,370,222.7188,374,218.7188" style="stroke:#181818;stroke-width:1.0;"/><line style="stroke:#181818;stroke-width:1.0;" x1="226" x2="376" y1="218.7188" y2="218.7188"/><text fill="#000000" font-family="sans-serif" font-size="13" font-weight="bold" lengthAdjust="spacing" textLength="7" x="233" y="213.8623">2</text><text fill="#000000" font-family="sans-serif" font-size="13" lengthAdjust="spacing" textLength="80" x="244" y="213.8623">getAllTrucks()</text><polygon fill="#181818" points="536,245.0703,546,249.0703,536,253.0703,540,249.0703" style="stroke:#181818;stroke-width:1.0;"/><line style="stroke:#181818;stroke-width:1.0;" x1="392" x2="542" y1="249.0703" y2="249.0703"/><text fill="#000000" font-family="sans-serif" font-size="13" font-weight="bold" lengthAdjust="spacing" textLength="7" x="399" y="244.2139">3</text><text fill="#000000" font-family="sans-serif" font-size="13" lengthAdjust="spacing" textLength="110" x="410" y="244.2139">GET getAllTrucks()</text><polygon fill="#181818" points="702,275.4219,712,279.4219,702,283.4219,706,279.4219" style="stroke:#181818;stroke-width:1.0;"/><line style="stroke:#181818;stroke-width:1.0;" x1="558" x2="708" y1="279.4219" y2="279.4219"/><text fill="#000000" font-family="sans-serif" font-size="13" font-weight="bold" lengthAdjust="spacing" textLength="7" x="565" y="274.5654">4</text><text fill="#000000" font-family="sans-serif" font-size="13" lengthAdjust="spacing" textLength="110" x="576" y="274.5654">GET getAllTrucks()</text><polygon fill="#181818" points="868,305.7734,878,309.7734,868,313.7734,872,309.7734" style="stroke:#181818;stroke-width:1.0;"/><line style="stroke:#181818;stroke-width:1.0;" x1="724" x2="874" y1="309.7734" y2="309.7734"/><text fill="#000000" font-family="sans-serif" font-size="13" font-weight="bold" lengthAdjust="spacing" textLength="7" x="731" y="304.917">5</text><text fill="#000000" font-family="sans-serif" font-size="13" lengthAdjust="spacing" textLength="110" x="742" y="304.917">GET getAllTrucks()</text><polygon fill="#181818" points="1009,336.125,1019,340.125,1009,344.125,1013,340.125" style="stroke:#181818;stroke-width:1.0;"/><line style="stroke:#181818;stroke-width:1.0;" x1="890" x2="1015" y1="340.125" y2="340.125"/><text fill="#000000" font-family="sans-serif" font-size="13" font-weight="bold" lengthAdjust="spacing" textLength="7" x="897" y="335.2686">6</text><text fill="#000000" font-family="sans-serif" font-size="13" lengthAdjust="spacing" textLength="80" x="908" y="335.2686">getAllTrucks()</text><polygon fill="#181818" points="1150,366.4766,1160,370.4766,1150,374.4766,1154,370.4766" style="stroke:#181818;stroke-width:1.0;"/><line style="stroke:#181818;stroke-width:1.0;" x1="1031" x2="1156" y1="370.4766" y2="370.4766"/><text fill="#000000" font-family="sans-serif" font-size="13" font-weight="bold" lengthAdjust="spacing" textLength="7" x="1038" y="365.6201">7</text><text fill="#000000" font-family="sans-serif" font-size="13" lengthAdjust="spacing" textLength="80" x="1049" y="365.6201">getAllTrucks()</text><polygon fill="#181818" points="1291,396.8281,1301,400.8281,1291,404.8281,1295,400.8281" style="stroke:#181818;stroke-width:1.0;"/><line style="stroke:#181818;stroke-width:1.0;" x1="1172" x2="1297" y1="400.8281" y2="400.8281"/><text fill="#000000" font-family="sans-serif" font-size="13" font-weight="bold" lengthAdjust="spacing" textLength="7" x="1179" y="395.9717">8</text><text fill="#000000" font-family="sans-serif" font-size="13" lengthAdjust="spacing" textLength="28" x="1190" y="395.9717">find()</text><polygon fill="#181818" points="1183,427.1797,1173,431.1797,1183,435.1797,1179,431.1797" style="stroke:#181818;stroke-width:1.0;"/><line style="stroke:#181818;stroke-width:1.0;" x1="1177" x2="1302" y1="431.1797" y2="431.1797"/><text fill="#000000" font-family="sans-serif" font-size="13" font-weight="bold" lengthAdjust="spacing" textLength="7" x="1189" y="426.3232">9</text><text fill="#000000" font-family="sans-serif" font-size="13" lengthAdjust="spacing" textLength="54" x="1200" y="426.3232">AllTrucks</text><polygon fill="#181818" points="1042,457.5313,1032,461.5313,1042,465.5313,1038,461.5313" style="stroke:#181818;stroke-width:1.0;"/><line style="stroke:#181818;stroke-width:1.0;" x1="1036" x2="1161" y1="461.5313" y2="461.5313"/><text fill="#000000" font-family="sans-serif" font-size="13" font-weight="bold" lengthAdjust="spacing" textLength="14" x="1048" y="456.6748">10</text><text fill="#000000" font-family="sans-serif" font-size="13" lengthAdjust="spacing" textLength="54" x="1066" y="456.6748">AllTrucks</text><polygon fill="#181818" points="901,487.8828,891,491.8828,901,495.8828,897,491.8828" style="stroke:#181818;stroke-width:1.0;"/><line style="stroke:#181818;stroke-width:1.0;" x1="895" x2="1020" y1="491.8828" y2="491.8828"/><text fill="#000000" font-family="sans-serif" font-size="13" font-weight="bold" lengthAdjust="spacing" textLength="14" x="907" y="487.0264">11</text><text fill="#000000" font-family="sans-serif" font-size="13" lengthAdjust="spacing" textLength="54" x="925" y="487.0264">AllTrucks</text><polygon fill="#181818" points="735,518.2344,725,522.2344,735,526.2344,731,522.2344" style="stroke:#181818;stroke-width:1.0;"/><line style="stroke:#181818;stroke-width:1.0;" x1="729" x2="879" y1="522.2344" y2="522.2344"/><text fill="#000000" font-family="sans-serif" font-size="13" font-weight="bold" lengthAdjust="spacing" textLength="14" x="741" y="517.3779">12</text><text fill="#000000" font-family="sans-serif" font-size="13" lengthAdjust="spacing" textLength="114" x="759" y="517.3779">200 OK + AllTrucks</text><polygon fill="#181818" points="569,548.5859,559,552.5859,569,556.5859,565,552.5859" style="stroke:#181818;stroke-width:1.0;"/><line style="stroke:#181818;stroke-width:1.0;" x1="563" x2="713" y1="552.5859" y2="552.5859"/><text fill="#000000" font-family="sans-serif" font-size="13" font-weight="bold" lengthAdjust="spacing" textLength="14" x="575" y="547.7295">13</text><text fill="#000000" font-family="sans-serif" font-size="13" lengthAdjust="spacing" textLength="114" x="593" y="547.7295">200 OK + AllTrucks</text><polygon fill="#181818" points="403,578.9375,393,582.9375,403,586.9375,399,582.9375" style="stroke:#181818;stroke-width:1.0;"/><line style="stroke:#181818;stroke-width:1.0;" x1="397" x2="547" y1="582.9375" y2="582.9375"/><text fill="#000000" font-family="sans-serif" font-size="13" font-weight="bold" lengthAdjust="spacing" textLength="14" x="409" y="578.0811">14</text><text fill="#000000" font-family="sans-serif" font-size="13" lengthAdjust="spacing" textLength="114" x="427" y="578.0811">200 OK + AllTrucks</text><polygon fill="#181818" points="237,609.2891,227,613.2891,237,617.2891,233,613.2891" style="stroke:#181818;stroke-width:1.0;"/><line style="stroke:#181818;stroke-width:1.0;" x1="231" x2="381" y1="613.2891" y2="613.2891"/><text fill="#000000" font-family="sans-serif" font-size="13" font-weight="bold" lengthAdjust="spacing" textLength="14" x="243" y="608.4326">15</text><text fill="#000000" font-family="sans-serif" font-size="13" lengthAdjust="spacing" textLength="114" x="261" y="608.4326">200 OK + AllTrucks</text><polygon fill="#181818" points="70,639.6406,60,643.6406,70,647.6406,66,643.6406" style="stroke:#181818;stroke-width:1.0;"/><line style="stroke:#181818;stroke-width:1.0;" x1="64" x2="215" y1="643.6406" y2="643.6406"/><text fill="#000000" font-family="sans-serif" font-size="13" font-weight="bold" lengthAdjust="spacing" textLength="14" x="76" y="638.7842">16</text><text fill="#000000" font-family="sans-serif" font-size="13" lengthAdjust="spacing" textLength="99" x="94" y="638.7842">Shows all Trucks</text><!--MD5=[888c80f24f5b16095b479535e26ce6a1]
@startuml getAllTrucksSD

autonumber
!pragma teoz true

skinparam sequence {
ParticipantBorderColor black
ParticipantBackgroundColor white
}

actor "Fleet Manager" as manager

box "<<Container(C4)>>\n           UI" #SandyBrown
participant "FleetManagerComponent" as FleetManagerComponent <<Component(C4)>>
participant "TruckService" as TruckService <<Component(C4)>>
end box

box "<<System(C4)>>\n       System" #LightGray
participant Auth as  Auth <<Container(C4)>>
box "<<Container(C4)>>\n       Logistics" #LightCyan
participant TruckRoute as Route <<Component(C4)>>
participant TruckController as Controller <<Component(C4)>>
participant TruckService as Service <<Component(C4)>>
participant TruckRepository as Repository <<Component(C4)>>
participant Persistance as Persistance <<Component(C4)>>
end box



activate manager

manager -> FleetManagerComponent: Asks to get all Trucks
activate FleetManagerComponent
FleetManagerComponent -> TruckService: getAllTrucks()
activate TruckService
TruckService -> Auth: GET getAllTrucks()
activate Auth
Auth -> Route: GET getAllTrucks()
activate Route
Route -> Controller: GET getAllTrucks()
activate Controller



Controller -> Service: getAllTrucks()
activate Service

Service -> Repository: getAllTrucks()
activate Repository
Repository -> Persistance: find()
activate Persistance



Persistance -> Repository: AllTrucks
deactivate Persistance
Repository->Service: AllTrucks
deactivate Repository

Service -> Controller: AllTrucks
deactivate Service
Controller->Route: 200 OK + AllTrucks
deactivate Controller
Route->Auth: 200 OK + AllTrucks
deactivate Route


Auth->TruckService: 200 OK + AllTrucks
deactivate Auth
TruckService->FleetManagerComponent: 200 OK + AllTrucks
deactivate TruckService
FleetManagerComponent->manager: Shows all Trucks
deactivate FleetManagerComponent
deactivate manager





@enduml

PlantUML version 1.2022.7(Mon Aug 22 18:01:30 WEST 2022)
(GPL source distribution)
Java Runtime: Java(TM) SE Runtime Environment
JVM: Java HotSpot(TM) 64-Bit Server VM
Default Encoding: Cp1252
Language: en
Country: GB
--></g></svg>