<?xml version="1.0" encoding="UTF-8" standalone="no"?><svg xmlns="http://www.w3.org/2000/svg" xmlns:xlink="http://www.w3.org/1999/xlink" contentStyleType="text/css" height="1517px" preserveAspectRatio="none" style="width:2364px;height:1517px;background:#FFFFFF;" version="1.1" viewBox="0 0 2364 1517" width="2364px" zoomAndPan="magnify"><defs/><g><rect fill="#FFFFE0" height="1505.1719" style="stroke:#181818;stroke-width:0.5;" width="2034.5" x="323.5" y="6"/><text fill="#000000" font-family="sans-serif" font-size="13" font-weight="bold" lengthAdjust="spacing" textLength="102" x="1289.75" y="19.4951">&lt;&lt;System(C4)&gt;&gt;</text><text fill="#000000" font-family="sans-serif" font-size="13" font-weight="bold" lengthAdjust="spacing" textLength="46" x="1317.75" y="35.8467">System</text><rect fill="#E0FFFF" height="1467.4688" style="stroke:#181818;stroke-width:0.5;" width="615" x="323.5" y="43.7031"/><text fill="#000000" font-family="sans-serif" font-size="13" font-weight="bold" lengthAdjust="spacing" textLength="118" x="572" y="57.1982">&lt;&lt;Container(C4)&gt;&gt;</text><text fill="#000000" font-family="sans-serif" font-size="13" font-weight="bold" lengthAdjust="spacing" textLength="13" x="616" y="73.5498">UI</text><rect fill="#87CEFA" height="1467.4688" style="stroke:#181818;stroke-width:0.5;" width="647" x="950.5" y="43.7031"/><text fill="#000000" font-family="sans-serif" font-size="13" font-weight="bold" lengthAdjust="spacing" textLength="118" x="1215" y="57.1982">&lt;&lt;Container(C4)&gt;&gt;</text><text fill="#000000" font-family="sans-serif" font-size="13" font-weight="bold" lengthAdjust="spacing" textLength="92" x="1215" y="73.5498">Authentication</text><rect fill="#ADD8E6" height="1467.4688" style="stroke:#181818;stroke-width:0.5;" width="728" x="1630" y="43.7031"/><text fill="#000000" font-family="sans-serif" font-size="13" font-weight="bold" lengthAdjust="spacing" textLength="118" x="1935" y="57.1982">&lt;&lt;Container(C4)&gt;&gt;</text><text fill="#000000" font-family="sans-serif" font-size="13" font-weight="bold" lengthAdjust="spacing" textLength="55" x="1963" y="73.5498">Logistics</text><rect fill="none" height="643.8672" style="stroke:#000000;stroke-width:1.5;" width="1359.5" x="120" y="200.3672"/><line style="stroke:#181818;stroke-width:0.5;stroke-dasharray:5.0,5.0;" x1="65.5" x2="65.5" y1="158.0156" y2="1427.5625"/><rect fill="#FFFFFF" height="1256.5469" style="stroke:#181818;stroke-width:1.0;" width="10" x="60.5" y="166.0156"/><line style="stroke:#181818;stroke-width:0.5;stroke-dasharray:5.0,5.0;" x1="188" x2="188" y1="158.0156" y2="1427.5625"/><rect fill="#FFFFFF" height="30.3516" style="stroke:#181818;stroke-width:1.0;" width="10" x="183" y="563.0703"/><line style="stroke:#181818;stroke-width:0.5;stroke-dasharray:5.0,5.0;" x1="393" x2="393" y1="158.0156" y2="1427.5625"/><rect fill="#FFFFFF" height="692.2188" style="stroke:#181818;stroke-width:1.0;" width="10" x="388" y="188.3672"/><line style="stroke:#181818;stroke-width:0.5;stroke-dasharray:5.0,5.0;" x1="562" x2="562" y1="158.0156" y2="1427.5625"/><rect fill="#FFFFFF" height="255.8125" style="stroke:#181818;stroke-width:1.0;" width="10" x="557" y="251.0703"/><rect fill="#FFFFFF" height="212.4609" style="stroke:#181818;stroke-width:1.0;" width="10" x="557" y="623.7734"/><line style="stroke:#181818;stroke-width:0.5;stroke-dasharray:5.0,5.0;" x1="703" x2="703" y1="158.0156" y2="1427.5625"/><rect fill="#FFFFFF" height="498.625" style="stroke:#181818;stroke-width:1.0;" width="10" x="698" y="910.9375"/><line style="stroke:#181818;stroke-width:0.5;stroke-dasharray:5.0,5.0;" x1="869" x2="869" y1="158.0156" y2="1427.5625"/><rect fill="#FFFFFF" height="437.9219" style="stroke:#181818;stroke-width:1.0;" width="10" x="864" y="941.2891"/><line style="stroke:#181818;stroke-width:0.5;stroke-dasharray:5.0,5.0;" x1="1014.5" x2="1014.5" y1="158.0156" y2="1427.5625"/><rect fill="#FFFFFF" height="195.1094" style="stroke:#181818;stroke-width:1.0;" width="10" x="1009.5" y="281.4219"/><rect fill="#FFFFFF" height="151.7578" style="stroke:#181818;stroke-width:1.0;" width="10" x="1009.5" y="654.125"/><line style="stroke:#181818;stroke-width:0.5;stroke-dasharray:5.0,5.0;" x1="1183.5" x2="1183.5" y1="158.0156" y2="1427.5625"/><rect fill="#FFFFFF" height="134.4063" style="stroke:#181818;stroke-width:1.0;" width="10" x="1178.5" y="311.7734"/><rect fill="#FFFFFF" height="91.0547" style="stroke:#181818;stroke-width:1.0;" width="10" x="1178.5" y="684.4766"/><line style="stroke:#181818;stroke-width:0.5;stroke-dasharray:5.0,5.0;" x1="1403.5" x2="1403.5" y1="158.0156" y2="1427.5625"/><rect fill="#FFFFFF" height="30.3516" style="stroke:#181818;stroke-width:1.0;" width="10" x="1398.5" y="342.125"/><rect fill="#FFFFFF" height="30.3516" style="stroke:#181818;stroke-width:1.0;" width="10" x="1398.5" y="714.8281"/><line style="stroke:#181818;stroke-width:0.5;stroke-dasharray:5.0,5.0;" x1="1533.5" x2="1533.5" y1="158.0156" y2="1427.5625"/><rect fill="#FFFFFF" height="377.2188" style="stroke:#181818;stroke-width:1.0;" width="10" x="1528.5" y="971.6406"/><line style="stroke:#181818;stroke-width:0.5;stroke-dasharray:5.0,5.0;" x1="1699.5" x2="1699.5" y1="158.0156" y2="1427.5625"/><rect fill="#FFFFFF" height="273.1641" style="stroke:#181818;stroke-width:1.0;" width="10" x="1694.5" y="1045.3438"/><line style="stroke:#181818;stroke-width:0.5;stroke-dasharray:5.0,5.0;" x1="1865.5" x2="1865.5" y1="158.0156" y2="1427.5625"/><rect fill="#FFFFFF" height="212.4609" style="stroke:#181818;stroke-width:1.0;" width="10" x="1860.5" y="1075.6953"/><line style="stroke:#181818;stroke-width:0.5;stroke-dasharray:5.0,5.0;" x1="2006.5" x2="2006.5" y1="158.0156" y2="1427.5625"/><rect fill="#FFFFFF" height="151.7578" style="stroke:#181818;stroke-width:1.0;" width="10" x="2001.5" y="1106.0469"/><line style="stroke:#181818;stroke-width:0.5;stroke-dasharray:5.0,5.0;" x1="2147.5" x2="2147.5" y1="158.0156" y2="1427.5625"/><rect fill="#FFFFFF" height="91.0547" style="stroke:#181818;stroke-width:1.0;" width="10" x="2142.5" y="1136.3984"/><line style="stroke:#181818;stroke-width:0.5;stroke-dasharray:5.0,5.0;" x1="2288.5" x2="2288.5" y1="158.0156" y2="1427.5625"/><rect fill="#FFFFFF" height="30.3516" style="stroke:#181818;stroke-width:1.0;" width="10" x="2283.5" y="1166.75"/><text fill="#000000" font-family="sans-serif" font-size="14" lengthAdjust="spacing" textLength="115" x="5" y="154.9395">Logistics Manager</text><ellipse cx="65.5" cy="88.9063" fill="#E2E2F0" rx="8" ry="8" style="stroke:#181818;stroke-width:0.5;"/><path d="M65.5,96.9063 L65.5,123.9063 M52.5,104.9063 L78.5,104.9063 M65.5,123.9063 L52.5,138.9063 M65.5,123.9063 L78.5,138.9063 " fill="none" style="stroke:#181818;stroke-width:0.5;"/><rect fill="#FFFFFF" height="49.2188" rx="2.5" ry="2.5" style="stroke:#000000;stroke-width:0.5;" width="104" x="136" y="107.7969"/><text fill="#000000" font-family="sans-serif" font-size="14" font-style="italic" lengthAdjust="spacing" textLength="90" x="143" y="129.3301">«System(C4)»</text><text fill="#000000" font-family="sans-serif" font-size="14" lengthAdjust="spacing" textLength="46" x="165" y="146.9395">Google</text><rect fill="#FFFFFF" height="49.2188" rx="2.5" ry="2.5" style="stroke:#000000;stroke-width:0.5;" width="131" x="327.5" y="107.7969"/><text fill="#000000" font-family="sans-serif" font-size="14" font-style="italic" lengthAdjust="spacing" textLength="117" x="334.5" y="129.3301">«Component(C4)»</text><text fill="#000000" font-family="sans-serif" font-size="14" lengthAdjust="spacing" textLength="97" x="344.5" y="146.9395">LoginController</text><rect fill="#FFFFFF" height="49.2188" rx="2.5" ry="2.5" style="stroke:#000000;stroke-width:0.5;" width="131" x="496.5" y="107.7969"/><text fill="#000000" font-family="sans-serif" font-size="14" font-style="italic" lengthAdjust="spacing" textLength="117" x="503.5" y="129.3301">«Component(C4)»</text><text fill="#000000" font-family="sans-serif" font-size="14" lengthAdjust="spacing" textLength="82" x="521" y="146.9395">LoginService</text><rect fill="#FFFFFF" height="49.2188" rx="2.5" ry="2.5" style="stroke:#000000;stroke-width:0.5;" width="131" x="637.5" y="107.7969"/><text fill="#000000" font-family="sans-serif" font-size="14" font-style="italic" lengthAdjust="spacing" textLength="117" x="644.5" y="129.3301">«Component(C4)»</text><text fill="#000000" font-family="sans-serif" font-size="14" lengthAdjust="spacing" textLength="109" x="648.5" y="146.9395">TruckComponent</text><rect fill="#FFFFFF" height="49.2188" rx="2.5" ry="2.5" style="stroke:#000000;stroke-width:0.5;" width="131" x="803.5" y="107.7969"/><text fill="#000000" font-family="sans-serif" font-size="14" font-style="italic" lengthAdjust="spacing" textLength="117" x="810.5" y="129.3301">«Component(C4)»</text><text fill="#000000" font-family="sans-serif" font-size="14" lengthAdjust="spacing" textLength="45" x="846.5" y="146.9395">TruckS</text><rect fill="#FFFFFF" height="49.2188" rx="2.5" ry="2.5" style="stroke:#000000;stroke-width:0.5;" width="120" x="954.5" y="107.7969"/><text fill="#000000" font-family="sans-serif" font-size="14" font-style="italic" lengthAdjust="spacing" textLength="106" x="961.5" y="129.3301">«Container(C4)»</text><text fill="#000000" font-family="sans-serif" font-size="14" lengthAdjust="spacing" textLength="91" x="969" y="146.9395">UserController</text><rect fill="#FFFFFF" height="49.2188" rx="2.5" ry="2.5" style="stroke:#000000;stroke-width:0.5;" width="120" x="1123.5" y="107.7969"/><text fill="#000000" font-family="sans-serif" font-size="14" font-style="italic" lengthAdjust="spacing" textLength="106" x="1130.5" y="129.3301">«Container(C4)»</text><text fill="#000000" font-family="sans-serif" font-size="14" lengthAdjust="spacing" textLength="76" x="1145.5" y="146.9395">UserService</text><rect fill="#FFFFFF" height="49.2188" rx="2.5" ry="2.5" style="stroke:#000000;stroke-width:0.5;" width="120" x="1343.5" y="107.7969"/><text fill="#000000" font-family="sans-serif" font-size="14" font-style="italic" lengthAdjust="spacing" textLength="106" x="1350.5" y="129.3301">«Container(C4)»</text><text fill="#000000" font-family="sans-serif" font-size="14" lengthAdjust="spacing" textLength="97" x="1355" y="146.9395">UserRepository</text><rect fill="#FFFFFF" height="49.2188" rx="2.5" ry="2.5" style="stroke:#000000;stroke-width:0.5;" width="120" x="1473.5" y="107.7969"/><text fill="#000000" font-family="sans-serif" font-size="14" font-style="italic" lengthAdjust="spacing" textLength="106" x="1480.5" y="129.3301">«Container(C4)»</text><text fill="#000000" font-family="sans-serif" font-size="14" lengthAdjust="spacing" textLength="98" x="1484.5" y="146.9395">TruckController</text><rect fill="#FFFFFF" height="49.2188" rx="2.5" ry="2.5" style="stroke:#000000;stroke-width:0.5;" width="131" x="1634" y="107.7969"/><text fill="#000000" font-family="sans-serif" font-size="14" font-style="italic" lengthAdjust="spacing" textLength="117" x="1641" y="129.3301">«Component(C4)»</text><text fill="#000000" font-family="sans-serif" font-size="14" lengthAdjust="spacing" textLength="74" x="1662.5" y="146.9395">TruckRoute</text><rect fill="#FFFFFF" height="49.2188" rx="2.5" ry="2.5" style="stroke:#000000;stroke-width:0.5;" width="131" x="1800" y="107.7969"/><text fill="#000000" font-family="sans-serif" font-size="14" font-style="italic" lengthAdjust="spacing" textLength="117" x="1807" y="129.3301">«Component(C4)»</text><text fill="#000000" font-family="sans-serif" font-size="14" lengthAdjust="spacing" textLength="98" x="1816.5" y="146.9395">TruckController</text><rect fill="#FFFFFF" height="49.2188" rx="2.5" ry="2.5" style="stroke:#000000;stroke-width:0.5;" width="131" x="1941" y="107.7969"/><text fill="#000000" font-family="sans-serif" font-size="14" font-style="italic" lengthAdjust="spacing" textLength="117" x="1948" y="129.3301">«Component(C4)»</text><text fill="#000000" font-family="sans-serif" font-size="14" lengthAdjust="spacing" textLength="45" x="1984" y="146.9395">TruckS</text><rect fill="#FFFFFF" height="49.2188" rx="2.5" ry="2.5" style="stroke:#000000;stroke-width:0.5;" width="131" x="2082" y="107.7969"/><text fill="#000000" font-family="sans-serif" font-size="14" font-style="italic" lengthAdjust="spacing" textLength="117" x="2089" y="129.3301">«Component(C4)»</text><text fill="#000000" font-family="sans-serif" font-size="14" lengthAdjust="spacing" textLength="104" x="2095.5" y="146.9395">TruckRepository</text><rect fill="#FFFFFF" height="49.2188" rx="2.5" ry="2.5" style="stroke:#000000;stroke-width:0.5;" width="131" x="2223" y="107.7969"/><text fill="#000000" font-family="sans-serif" font-size="14" font-style="italic" lengthAdjust="spacing" textLength="117" x="2230" y="129.3301">«Component(C4)»</text><text fill="#000000" font-family="sans-serif" font-size="14" lengthAdjust="spacing" textLength="74" x="2251.5" y="146.9395">Persistence</text><text fill="#000000" font-family="sans-serif" font-size="14" lengthAdjust="spacing" textLength="115" x="5" y="1502.0957">Logistics Manager</text><ellipse cx="65.5" cy="1436.0625" fill="#E2E2F0" rx="8" ry="8" style="stroke:#181818;stroke-width:0.5;"/><path d="M65.5,1444.0625 L65.5,1471.0625 M52.5,1452.0625 L78.5,1452.0625 M65.5,1471.0625 L52.5,1486.0625 M65.5,1471.0625 L78.5,1486.0625 " fill="none" style="stroke:#181818;stroke-width:0.5;"/><rect fill="#FFFFFF" height="49.2188" rx="2.5" ry="2.5" style="stroke:#000000;stroke-width:0.5;" width="104" x="136" y="1427.5625"/><text fill="#000000" font-family="sans-serif" font-size="14" font-style="italic" lengthAdjust="spacing" textLength="90" x="143" y="1449.0957">«System(C4)»</text><text fill="#000000" font-family="sans-serif" font-size="14" lengthAdjust="spacing" textLength="46" x="165" y="1466.7051">Google</text><rect fill="#FFFFFF" height="49.2188" rx="2.5" ry="2.5" style="stroke:#000000;stroke-width:0.5;" width="131" x="327.5" y="1427.5625"/><text fill="#000000" font-family="sans-serif" font-size="14" font-style="italic" lengthAdjust="spacing" textLength="117" x="334.5" y="1449.0957">«Component(C4)»</text><text fill="#000000" font-family="sans-serif" font-size="14" lengthAdjust="spacing" textLength="97" x="344.5" y="1466.7051">LoginController</text><rect fill="#FFFFFF" height="49.2188" rx="2.5" ry="2.5" style="stroke:#000000;stroke-width:0.5;" width="131" x="496.5" y="1427.5625"/><text fill="#000000" font-family="sans-serif" font-size="14" font-style="italic" lengthAdjust="spacing" textLength="117" x="503.5" y="1449.0957">«Component(C4)»</text><text fill="#000000" font-family="sans-serif" font-size="14" lengthAdjust="spacing" textLength="82" x="521" y="1466.7051">LoginService</text><rect fill="#FFFFFF" height="49.2188" rx="2.5" ry="2.5" style="stroke:#000000;stroke-width:0.5;" width="131" x="637.5" y="1427.5625"/><text fill="#000000" font-family="sans-serif" font-size="14" font-style="italic" lengthAdjust="spacing" textLength="117" x="644.5" y="1449.0957">«Component(C4)»</text><text fill="#000000" font-family="sans-serif" font-size="14" lengthAdjust="spacing" textLength="109" x="648.5" y="1466.7051">TruckComponent</text><rect fill="#FFFFFF" height="49.2188" rx="2.5" ry="2.5" style="stroke:#000000;stroke-width:0.5;" width="131" x="803.5" y="1427.5625"/><text fill="#000000" font-family="sans-serif" font-size="14" font-style="italic" lengthAdjust="spacing" textLength="117" x="810.5" y="1449.0957">«Component(C4)»</text><text fill="#000000" font-family="sans-serif" font-size="14" lengthAdjust="spacing" textLength="45" x="846.5" y="1466.7051">TruckS</text><rect fill="#FFFFFF" height="49.2188" rx="2.5" ry="2.5" style="stroke:#000000;stroke-width:0.5;" width="120" x="954.5" y="1427.5625"/><text fill="#000000" font-family="sans-serif" font-size="14" font-style="italic" lengthAdjust="spacing" textLength="106" x="961.5" y="1449.0957">«Container(C4)»</text><text fill="#000000" font-family="sans-serif" font-size="14" lengthAdjust="spacing" textLength="91" x="969" y="1466.7051">UserController</text><rect fill="#FFFFFF" height="49.2188" rx="2.5" ry="2.5" style="stroke:#000000;stroke-width:0.5;" width="120" x="1123.5" y="1427.5625"/><text fill="#000000" font-family="sans-serif" font-size="14" font-style="italic" lengthAdjust="spacing" textLength="106" x="1130.5" y="1449.0957">«Container(C4)»</text><text fill="#000000" font-family="sans-serif" font-size="14" lengthAdjust="spacing" textLength="76" x="1145.5" y="1466.7051">UserService</text><rect fill="#FFFFFF" height="49.2188" rx="2.5" ry="2.5" style="stroke:#000000;stroke-width:0.5;" width="120" x="1343.5" y="1427.5625"/><text fill="#000000" font-family="sans-serif" font-size="14" font-style="italic" lengthAdjust="spacing" textLength="106" x="1350.5" y="1449.0957">«Container(C4)»</text><text fill="#000000" font-family="sans-serif" font-size="14" lengthAdjust="spacing" textLength="97" x="1355" y="1466.7051">UserRepository</text><rect fill="#FFFFFF" height="49.2188" rx="2.5" ry="2.5" style="stroke:#000000;stroke-width:0.5;" width="120" x="1473.5" y="1427.5625"/><text fill="#000000" font-family="sans-serif" font-size="14" font-style="italic" lengthAdjust="spacing" textLength="106" x="1480.5" y="1449.0957">«Container(C4)»</text><text fill="#000000" font-family="sans-serif" font-size="14" lengthAdjust="spacing" textLength="98" x="1484.5" y="1466.7051">TruckController</text><rect fill="#FFFFFF" height="49.2188" rx="2.5" ry="2.5" style="stroke:#000000;stroke-width:0.5;" width="131" x="1634" y="1427.5625"/><text fill="#000000" font-family="sans-serif" font-size="14" font-style="italic" lengthAdjust="spacing" textLength="117" x="1641" y="1449.0957">«Component(C4)»</text><text fill="#000000" font-family="sans-serif" font-size="14" lengthAdjust="spacing" textLength="74" x="1662.5" y="1466.7051">TruckRoute</text><rect fill="#FFFFFF" height="49.2188" rx="2.5" ry="2.5" style="stroke:#000000;stroke-width:0.5;" width="131" x="1800" y="1427.5625"/><text fill="#000000" font-family="sans-serif" font-size="14" font-style="italic" lengthAdjust="spacing" textLength="117" x="1807" y="1449.0957">«Component(C4)»</text><text fill="#000000" font-family="sans-serif" font-size="14" lengthAdjust="spacing" textLength="98" x="1816.5" y="1466.7051">TruckController</text><rect fill="#FFFFFF" height="49.2188" rx="2.5" ry="2.5" style="stroke:#000000;stroke-width:0.5;" width="131" x="1941" y="1427.5625"/><text fill="#000000" font-family="sans-serif" font-size="14" font-style="italic" lengthAdjust="spacing" textLength="117" x="1948" y="1449.0957">«Component(C4)»</text><text fill="#000000" font-family="sans-serif" font-size="14" lengthAdjust="spacing" textLength="45" x="1984" y="1466.7051">TruckS</text><rect fill="#FFFFFF" height="49.2188" rx="2.5" ry="2.5" style="stroke:#000000;stroke-width:0.5;" width="131" x="2082" y="1427.5625"/><text fill="#000000" font-family="sans-serif" font-size="14" font-style="italic" lengthAdjust="spacing" textLength="117" x="2089" y="1449.0957">«Component(C4)»</text><text fill="#000000" font-family="sans-serif" font-size="14" lengthAdjust="spacing" textLength="104" x="2095.5" y="1466.7051">TruckRepository</text><rect fill="#FFFFFF" height="49.2188" rx="2.5" ry="2.5" style="stroke:#000000;stroke-width:0.5;" width="131" x="2223" y="1427.5625"/><text fill="#000000" font-family="sans-serif" font-size="14" font-style="italic" lengthAdjust="spacing" textLength="117" x="2230" y="1449.0957">«Component(C4)»</text><text fill="#000000" font-family="sans-serif" font-size="14" lengthAdjust="spacing" textLength="74" x="2251.5" y="1466.7051">Persistence</text><polygon fill="#181818" points="376,184.3672,386,188.3672,376,192.3672,380,188.3672" style="stroke:#181818;stroke-width:1.0;"/><line style="stroke:#181818;stroke-width:1.0;" x1="70.5" x2="382" y1="188.3672" y2="188.3672"/><text fill="#000000" font-family="sans-serif" font-size="13" font-weight="bold" lengthAdjust="spacing" textLength="7" x="77.5" y="183.5107">1</text><text fill="#000000" font-family="sans-serif" font-size="13" lengthAdjust="spacing" textLength="80" x="88.5" y="183.5107">I want to login</text><path d="M120,200.3672 L181,200.3672 L181,208.7188 L171,218.7188 L120,218.7188 L120,200.3672 " fill="#EEEEEE" style="stroke:#000000;stroke-width:1.5;"/><rect fill="none" height="643.8672" style="stroke:#000000;stroke-width:1.5;" width="1359.5" x="120" y="200.3672"/><text fill="#000000" font-family="sans-serif" font-size="13" font-weight="bold" lengthAdjust="spacing" textLength="16" x="135" y="214.8623">alt</text><text fill="#000000" font-family="sans-serif" font-size="11" font-weight="bold" lengthAdjust="spacing" textLength="266" x="196" y="213.7861">[Login through email and password in EletricGo]</text><line style="stroke:#000000;stroke-width:1.0;stroke-dasharray:2.0,2.0;" x1="120" x2="1479.5" y1="525.8828" y2="525.8828"/><text fill="#000000" font-family="sans-serif" font-size="11" font-weight="bold" lengthAdjust="spacing" textLength="128" x="125" y="537.3018">[Login through Google]</text><polygon fill="#181818" points="545,247.0703,555,251.0703,545,255.0703,549,251.0703" style="stroke:#181818;stroke-width:1.0;"/><line style="stroke:#181818;stroke-width:1.0;" x1="398" x2="551" y1="251.0703" y2="251.0703"/><text fill="#000000" font-family="sans-serif" font-size="13" font-weight="bold" lengthAdjust="spacing" textLength="7" x="405" y="246.2139">2</text><text fill="#000000" font-family="sans-serif" font-size="13" lengthAdjust="spacing" textLength="129" x="416" y="246.2139">login(email, password)</text><polygon fill="#181818" points="997.5,277.4219,1007.5,281.4219,997.5,285.4219,1001.5,281.4219" style="stroke:#181818;stroke-width:1.0;"/><line style="stroke:#181818;stroke-width:1.0;" x1="567" x2="1003.5" y1="281.4219" y2="281.4219"/><text fill="#000000" font-family="sans-serif" font-size="13" font-weight="bold" lengthAdjust="spacing" textLength="7" x="574" y="276.5654">3</text><text fill="#000000" font-family="sans-serif" font-size="13" lengthAdjust="spacing" textLength="172" x="585" y="276.5654">POST Login(email, password)</text><polygon fill="#181818" points="1166.5,307.7734,1176.5,311.7734,1166.5,315.7734,1170.5,311.7734" style="stroke:#181818;stroke-width:1.0;"/><line style="stroke:#181818;stroke-width:1.0;" x1="1019.5" x2="1172.5" y1="311.7734" y2="311.7734"/><text fill="#000000" font-family="sans-serif" font-size="13" font-weight="bold" lengthAdjust="spacing" textLength="7" x="1026.5" y="306.917">4</text><text fill="#000000" font-family="sans-serif" font-size="13" lengthAdjust="spacing" textLength="129" x="1037.5" y="306.917">login(email, password)</text><polygon fill="#181818" points="1386.5,338.125,1396.5,342.125,1386.5,346.125,1390.5,342.125" style="stroke:#181818;stroke-width:1.0;"/><line style="stroke:#181818;stroke-width:1.0;" x1="1188.5" x2="1392.5" y1="342.125" y2="342.125"/><text fill="#000000" font-family="sans-serif" font-size="13" font-weight="bold" lengthAdjust="spacing" textLength="7" x="1195.5" y="337.2686">5</text><text fill="#000000" font-family="sans-serif" font-size="13" lengthAdjust="spacing" textLength="108" x="1206.5" y="337.2686">findByEmail(email)</text><polygon fill="#181818" points="1199.5,368.4766,1189.5,372.4766,1199.5,376.4766,1195.5,372.4766" style="stroke:#181818;stroke-width:1.0;"/><line style="stroke:#181818;stroke-width:1.0;stroke-dasharray:2.0,2.0;" x1="1193.5" x2="1397.5" y1="372.4766" y2="372.4766"/><text fill="#000000" font-family="sans-serif" font-size="13" font-weight="bold" lengthAdjust="spacing" textLength="7" x="1205.5" y="367.6201">6</text><text fill="#000000" font-family="sans-serif" font-size="13" lengthAdjust="spacing" textLength="27" x="1216.5" y="367.6201">User</text><line style="stroke:#181818;stroke-width:1.0;" x1="1188.5" x2="1230.5" y1="402.8281" y2="402.8281"/><line style="stroke:#181818;stroke-width:1.0;" x1="1230.5" x2="1230.5" y1="402.8281" y2="415.8281"/><line style="stroke:#181818;stroke-width:1.0;" x1="1189.5" x2="1230.5" y1="415.8281" y2="415.8281"/><polygon fill="#181818" points="1199.5,411.8281,1189.5,415.8281,1199.5,419.8281,1195.5,415.8281" style="stroke:#181818;stroke-width:1.0;"/><text fill="#000000" font-family="sans-serif" font-size="13" font-weight="bold" lengthAdjust="spacing" textLength="7" x="1195.5" y="397.9717">7</text><text fill="#000000" font-family="sans-serif" font-size="13" lengthAdjust="spacing" textLength="190" x="1206.5" y="397.9717">checkPassword(password, User)</text><polygon fill="#181818" points="1030.5,442.1797,1020.5,446.1797,1030.5,450.1797,1026.5,446.1797" style="stroke:#181818;stroke-width:1.0;"/><line style="stroke:#181818;stroke-width:1.0;stroke-dasharray:2.0,2.0;" x1="1024.5" x2="1177.5" y1="446.1797" y2="446.1797"/><text fill="#000000" font-family="sans-serif" font-size="13" font-weight="bold" lengthAdjust="spacing" textLength="7" x="1036.5" y="441.3232">8</text><text fill="#000000" font-family="sans-serif" font-size="13" lengthAdjust="spacing" textLength="51" x="1047.5" y="441.3232">Success</text><polygon fill="#181818" points="578,472.5313,568,476.5313,578,480.5313,574,476.5313" style="stroke:#181818;stroke-width:1.0;"/><line style="stroke:#181818;stroke-width:1.0;stroke-dasharray:2.0,2.0;" x1="572" x2="1008.5" y1="476.5313" y2="476.5313"/><text fill="#000000" font-family="sans-serif" font-size="13" font-weight="bold" lengthAdjust="spacing" textLength="7" x="584" y="471.6748">9</text><text fill="#000000" font-family="sans-serif" font-size="13" lengthAdjust="spacing" textLength="100" x="595" y="471.6748">200 OK + Cookie</text><polygon fill="#181818" points="409,502.8828,399,506.8828,409,510.8828,405,506.8828" style="stroke:#181818;stroke-width:1.0;"/><line style="stroke:#181818;stroke-width:1.0;stroke-dasharray:2.0,2.0;" x1="403" x2="556" y1="506.8828" y2="506.8828"/><text fill="#000000" font-family="sans-serif" font-size="13" font-weight="bold" lengthAdjust="spacing" textLength="14" x="415" y="502.0264">10</text><text fill="#000000" font-family="sans-serif" font-size="13" lengthAdjust="spacing" textLength="44" x="433" y="502.0264">200 OK</text><polygon fill="#181818" points="204,559.0703,194,563.0703,204,567.0703,200,563.0703" style="stroke:#181818;stroke-width:1.0;"/><line style="stroke:#181818;stroke-width:1.0;" x1="198" x2="387" y1="563.0703" y2="563.0703"/><text fill="#000000" font-family="sans-serif" font-size="13" font-weight="bold" lengthAdjust="spacing" textLength="14" x="210" y="558.2139">11</text><text fill="#000000" font-family="sans-serif" font-size="13" lengthAdjust="spacing" textLength="153" x="228" y="558.2139">Login with Google account</text><polygon fill="#181818" points="376,589.4219,386,593.4219,376,597.4219,380,593.4219" style="stroke:#181818;stroke-width:1.0;"/><line style="stroke:#181818;stroke-width:1.0;stroke-dasharray:2.0,2.0;" x1="193" x2="382" y1="593.4219" y2="593.4219"/><text fill="#000000" font-family="sans-serif" font-size="13" font-weight="bold" lengthAdjust="spacing" textLength="14" x="200" y="588.5654">12</text><text fill="#000000" font-family="sans-serif" font-size="13" lengthAdjust="spacing" textLength="44" x="218" y="588.5654">200 OK</text><polygon fill="#181818" points="545,619.7734,555,623.7734,545,627.7734,549,623.7734" style="stroke:#181818;stroke-width:1.0;"/><line style="stroke:#181818;stroke-width:1.0;" x1="398" x2="551" y1="623.7734" y2="623.7734"/><text fill="#000000" font-family="sans-serif" font-size="13" font-weight="bold" lengthAdjust="spacing" textLength="14" x="405" y="618.917">13</text><text fill="#000000" font-family="sans-serif" font-size="13" lengthAdjust="spacing" textLength="103" x="423" y="618.917">loginWithGoogle()</text><polygon fill="#181818" points="997.5,650.125,1007.5,654.125,997.5,658.125,1001.5,654.125" style="stroke:#181818;stroke-width:1.0;"/><line style="stroke:#181818;stroke-width:1.0;" x1="567" x2="1003.5" y1="654.125" y2="654.125"/><text fill="#000000" font-family="sans-serif" font-size="13" font-weight="bold" lengthAdjust="spacing" textLength="14" x="574" y="649.2686">14</text><text fill="#000000" font-family="sans-serif" font-size="13" lengthAdjust="spacing" textLength="146" x="592" y="649.2686">POST LoginWithGoogle()</text><polygon fill="#181818" points="1166.5,680.4766,1176.5,684.4766,1166.5,688.4766,1170.5,684.4766" style="stroke:#181818;stroke-width:1.0;"/><line style="stroke:#181818;stroke-width:1.0;" x1="1019.5" x2="1172.5" y1="684.4766" y2="684.4766"/><text fill="#000000" font-family="sans-serif" font-size="13" font-weight="bold" lengthAdjust="spacing" textLength="14" x="1026.5" y="679.6201">15</text><text fill="#000000" font-family="sans-serif" font-size="13" lengthAdjust="spacing" textLength="70" x="1044.5" y="679.6201">userExists()</text><polygon fill="#181818" points="1386.5,710.8281,1396.5,714.8281,1386.5,718.8281,1390.5,714.8281" style="stroke:#181818;stroke-width:1.0;"/><line style="stroke:#181818;stroke-width:1.0;" x1="1188.5" x2="1392.5" y1="714.8281" y2="714.8281"/><text fill="#000000" font-family="sans-serif" font-size="13" font-weight="bold" lengthAdjust="spacing" textLength="14" x="1195.5" y="709.9717">16</text><text fill="#000000" font-family="sans-serif" font-size="13" lengthAdjust="spacing" textLength="108" x="1213.5" y="709.9717">findByEmail(email)</text><polygon fill="#181818" points="1199.5,741.1797,1189.5,745.1797,1199.5,749.1797,1195.5,745.1797" style="stroke:#181818;stroke-width:1.0;"/><line style="stroke:#181818;stroke-width:1.0;stroke-dasharray:2.0,2.0;" x1="1193.5" x2="1397.5" y1="745.1797" y2="745.1797"/><text fill="#000000" font-family="sans-serif" font-size="13" font-weight="bold" lengthAdjust="spacing" textLength="14" x="1205.5" y="740.3232">17</text><text fill="#000000" font-family="sans-serif" font-size="13" lengthAdjust="spacing" textLength="27" x="1223.5" y="740.3232">User</text><polygon fill="#181818" points="1030.5,771.5313,1020.5,775.5313,1030.5,779.5313,1026.5,775.5313" style="stroke:#181818;stroke-width:1.0;"/><line style="stroke:#181818;stroke-width:1.0;stroke-dasharray:2.0,2.0;" x1="1024.5" x2="1177.5" y1="775.5313" y2="775.5313"/><text fill="#000000" font-family="sans-serif" font-size="13" font-weight="bold" lengthAdjust="spacing" textLength="14" x="1036.5" y="770.6748">18</text><text fill="#000000" font-family="sans-serif" font-size="13" lengthAdjust="spacing" textLength="27" x="1054.5" y="770.6748">User</text><polygon fill="#181818" points="578,801.8828,568,805.8828,578,809.8828,574,805.8828" style="stroke:#181818;stroke-width:1.0;"/><line style="stroke:#181818;stroke-width:1.0;stroke-dasharray:2.0,2.0;" x1="572" x2="1008.5" y1="805.8828" y2="805.8828"/><text fill="#000000" font-family="sans-serif" font-size="13" font-weight="bold" lengthAdjust="spacing" textLength="14" x="584" y="801.0264">19</text><text fill="#000000" font-family="sans-serif" font-size="13" lengthAdjust="spacing" textLength="100" x="602" y="801.0264">200 OK + Cookie</text><polygon fill="#181818" points="409,832.2344,399,836.2344,409,840.2344,405,836.2344" style="stroke:#181818;stroke-width:1.0;"/><line style="stroke:#181818;stroke-width:1.0;stroke-dasharray:2.0,2.0;" x1="403" x2="556" y1="836.2344" y2="836.2344"/><text fill="#000000" font-family="sans-serif" font-size="13" font-weight="bold" lengthAdjust="spacing" textLength="14" x="415" y="831.3779">20</text><text fill="#000000" font-family="sans-serif" font-size="13" lengthAdjust="spacing" textLength="44" x="433" y="831.3779">200 OK</text><polygon fill="#181818" points="81.5,876.5859,71.5,880.5859,81.5,884.5859,77.5,880.5859" style="stroke:#181818;stroke-width:1.0;"/><line style="stroke:#181818;stroke-width:1.0;stroke-dasharray:2.0,2.0;" x1="75.5" x2="387" y1="880.5859" y2="880.5859"/><text fill="#000000" font-family="sans-serif" font-size="13" font-weight="bold" lengthAdjust="spacing" textLength="14" x="87.5" y="875.7295">21</text><text fill="#000000" font-family="sans-serif" font-size="13" lengthAdjust="spacing" textLength="198" x="105.5" y="875.7295">informs about the success of login</text><polygon fill="#181818" points="686,906.9375,696,910.9375,686,914.9375,690,910.9375" style="stroke:#181818;stroke-width:1.0;"/><line style="stroke:#181818;stroke-width:1.0;" x1="70.5" x2="692" y1="910.9375" y2="910.9375"/><text fill="#000000" font-family="sans-serif" font-size="13" font-weight="bold" lengthAdjust="spacing" textLength="14" x="77.5" y="906.0811">22</text><text fill="#000000" font-family="sans-serif" font-size="13" lengthAdjust="spacing" textLength="127" x="95.5" y="906.0811">Asks to get all Trucks</text><polygon fill="#181818" points="852,937.2891,862,941.2891,852,945.2891,856,941.2891" style="stroke:#181818;stroke-width:1.0;"/><line style="stroke:#181818;stroke-width:1.0;" x1="708" x2="858" y1="941.2891" y2="941.2891"/><text fill="#000000" font-family="sans-serif" font-size="13" font-weight="bold" lengthAdjust="spacing" textLength="14" x="715" y="936.4326">23</text><text fill="#000000" font-family="sans-serif" font-size="13" lengthAdjust="spacing" textLength="80" x="733" y="936.4326">getAllTrucks()</text><polygon fill="#181818" points="1516.5,967.6406,1526.5,971.6406,1516.5,975.6406,1520.5,971.6406" style="stroke:#181818;stroke-width:1.0;"/><line style="stroke:#181818;stroke-width:1.0;" x1="874" x2="1522.5" y1="971.6406" y2="971.6406"/><text fill="#000000" font-family="sans-serif" font-size="13" font-weight="bold" lengthAdjust="spacing" textLength="14" x="881" y="966.7842">24</text><text fill="#000000" font-family="sans-serif" font-size="13" lengthAdjust="spacing" textLength="110" x="899" y="966.7842">GET getAllTrucks()</text><line style="stroke:#181818;stroke-width:1.0;" x1="1538.5" x2="1580.5" y1="1001.9922" y2="1001.9922"/><line style="stroke:#181818;stroke-width:1.0;" x1="1580.5" x2="1580.5" y1="1001.9922" y2="1014.9922"/><line style="stroke:#181818;stroke-width:1.0;" x1="1539.5" x2="1580.5" y1="1014.9922" y2="1014.9922"/><polygon fill="#181818" points="1549.5,1010.9922,1539.5,1014.9922,1549.5,1018.9922,1545.5,1014.9922" style="stroke:#181818;stroke-width:1.0;"/><text fill="#000000" font-family="sans-serif" font-size="13" font-weight="bold" lengthAdjust="spacing" textLength="14" x="1545.5" y="997.1357">25</text><text fill="#000000" font-family="sans-serif" font-size="13" lengthAdjust="spacing" textLength="70" x="1563.5" y="997.1357">checkAuth()</text><polygon fill="#181818" points="1682.5,1041.3438,1692.5,1045.3438,1682.5,1049.3438,1686.5,1045.3438" style="stroke:#181818;stroke-width:1.0;"/><line style="stroke:#181818;stroke-width:1.0;" x1="1538.5" x2="1688.5" y1="1045.3438" y2="1045.3438"/><text fill="#000000" font-family="sans-serif" font-size="13" font-weight="bold" lengthAdjust="spacing" textLength="14" x="1545.5" y="1040.4873">26</text><text fill="#000000" font-family="sans-serif" font-size="13" lengthAdjust="spacing" textLength="110" x="1563.5" y="1040.4873">GET getAllTrucks()</text><polygon fill="#181818" points="1848.5,1071.6953,1858.5,1075.6953,1848.5,1079.6953,1852.5,1075.6953" style="stroke:#181818;stroke-width:1.0;"/><line style="stroke:#181818;stroke-width:1.0;" x1="1704.5" x2="1854.5" y1="1075.6953" y2="1075.6953"/><text fill="#000000" font-family="sans-serif" font-size="13" font-weight="bold" lengthAdjust="spacing" textLength="14" x="1711.5" y="1070.8389">27</text><text fill="#000000" font-family="sans-serif" font-size="13" lengthAdjust="spacing" textLength="110" x="1729.5" y="1070.8389">GET getAllTrucks()</text><polygon fill="#181818" points="1989.5,1102.0469,1999.5,1106.0469,1989.5,1110.0469,1993.5,1106.0469" style="stroke:#181818;stroke-width:1.0;"/><line style="stroke:#181818;stroke-width:1.0;" x1="1870.5" x2="1995.5" y1="1106.0469" y2="1106.0469"/><text fill="#000000" font-family="sans-serif" font-size="13" font-weight="bold" lengthAdjust="spacing" textLength="14" x="1877.5" y="1101.1904">28</text><text fill="#000000" font-family="sans-serif" font-size="13" lengthAdjust="spacing" textLength="80" x="1895.5" y="1101.1904">getAllTrucks()</text><polygon fill="#181818" points="2130.5,1132.3984,2140.5,1136.3984,2130.5,1140.3984,2134.5,1136.3984" style="stroke:#181818;stroke-width:1.0;"/><line style="stroke:#181818;stroke-width:1.0;" x1="2011.5" x2="2136.5" y1="1136.3984" y2="1136.3984"/><text fill="#000000" font-family="sans-serif" font-size="13" font-weight="bold" lengthAdjust="spacing" textLength="14" x="2018.5" y="1131.542">29</text><text fill="#000000" font-family="sans-serif" font-size="13" lengthAdjust="spacing" textLength="80" x="2036.5" y="1131.542">getAllTrucks()</text><polygon fill="#181818" points="2271.5,1162.75,2281.5,1166.75,2271.5,1170.75,2275.5,1166.75" style="stroke:#181818;stroke-width:1.0;"/><line style="stroke:#181818;stroke-width:1.0;" x1="2152.5" x2="2277.5" y1="1166.75" y2="1166.75"/><text fill="#000000" font-family="sans-serif" font-size="13" font-weight="bold" lengthAdjust="spacing" textLength="14" x="2159.5" y="1161.8936">30</text><text fill="#000000" font-family="sans-serif" font-size="13" lengthAdjust="spacing" textLength="28" x="2177.5" y="1161.8936">find()</text><polygon fill="#181818" points="2163.5,1193.1016,2153.5,1197.1016,2163.5,1201.1016,2159.5,1197.1016" style="stroke:#181818;stroke-width:1.0;"/><line style="stroke:#181818;stroke-width:1.0;" x1="2157.5" x2="2282.5" y1="1197.1016" y2="1197.1016"/><text fill="#000000" font-family="sans-serif" font-size="13" font-weight="bold" lengthAdjust="spacing" textLength="14" x="2169.5" y="1192.2451">31</text><text fill="#000000" font-family="sans-serif" font-size="13" lengthAdjust="spacing" textLength="54" x="2187.5" y="1192.2451">AllTrucks</text><polygon fill="#181818" points="2022.5,1223.4531,2012.5,1227.4531,2022.5,1231.4531,2018.5,1227.4531" style="stroke:#181818;stroke-width:1.0;"/><line style="stroke:#181818;stroke-width:1.0;" x1="2016.5" x2="2141.5" y1="1227.4531" y2="1227.4531"/><text fill="#000000" font-family="sans-serif" font-size="13" font-weight="bold" lengthAdjust="spacing" textLength="14" x="2028.5" y="1222.5967">32</text><text fill="#000000" font-family="sans-serif" font-size="13" lengthAdjust="spacing" textLength="54" x="2046.5" y="1222.5967">AllTrucks</text><polygon fill="#181818" points="1881.5,1253.8047,1871.5,1257.8047,1881.5,1261.8047,1877.5,1257.8047" style="stroke:#181818;stroke-width:1.0;"/><line style="stroke:#181818;stroke-width:1.0;" x1="1875.5" x2="2000.5" y1="1257.8047" y2="1257.8047"/><text fill="#000000" font-family="sans-serif" font-size="13" font-weight="bold" lengthAdjust="spacing" textLength="14" x="1887.5" y="1252.9482">33</text><text fill="#000000" font-family="sans-serif" font-size="13" lengthAdjust="spacing" textLength="54" x="1905.5" y="1252.9482">AllTrucks</text><polygon fill="#181818" points="1715.5,1284.1563,1705.5,1288.1563,1715.5,1292.1563,1711.5,1288.1563" style="stroke:#181818;stroke-width:1.0;"/><line style="stroke:#181818;stroke-width:1.0;" x1="1709.5" x2="1859.5" y1="1288.1563" y2="1288.1563"/><text fill="#000000" font-family="sans-serif" font-size="13" font-weight="bold" lengthAdjust="spacing" textLength="14" x="1721.5" y="1283.2998">34</text><text fill="#000000" font-family="sans-serif" font-size="13" lengthAdjust="spacing" textLength="114" x="1739.5" y="1283.2998">200 OK + AllTrucks</text><polygon fill="#181818" points="1549.5,1314.5078,1539.5,1318.5078,1549.5,1322.5078,1545.5,1318.5078" style="stroke:#181818;stroke-width:1.0;"/><line style="stroke:#181818;stroke-width:1.0;" x1="1543.5" x2="1693.5" y1="1318.5078" y2="1318.5078"/><text fill="#000000" font-family="sans-serif" font-size="13" font-weight="bold" lengthAdjust="spacing" textLength="14" x="1555.5" y="1313.6514">35</text><text fill="#000000" font-family="sans-serif" font-size="13" lengthAdjust="spacing" textLength="114" x="1573.5" y="1313.6514">200 OK + AllTrucks</text><polygon fill="#181818" points="885,1344.8594,875,1348.8594,885,1352.8594,881,1348.8594" style="stroke:#181818;stroke-width:1.0;"/><line style="stroke:#181818;stroke-width:1.0;" x1="879" x2="1527.5" y1="1348.8594" y2="1348.8594"/><text fill="#000000" font-family="sans-serif" font-size="13" font-weight="bold" lengthAdjust="spacing" textLength="14" x="891" y="1344.0029">36</text><text fill="#000000" font-family="sans-serif" font-size="13" lengthAdjust="spacing" textLength="114" x="909" y="1344.0029">200 OK + AllTrucks</text><polygon fill="#181818" points="719,1375.2109,709,1379.2109,719,1383.2109,715,1379.2109" style="stroke:#181818;stroke-width:1.0;"/><line style="stroke:#181818;stroke-width:1.0;" x1="713" x2="863" y1="1379.2109" y2="1379.2109"/><text fill="#000000" font-family="sans-serif" font-size="13" font-weight="bold" lengthAdjust="spacing" textLength="14" x="725" y="1374.3545">37</text><text fill="#000000" font-family="sans-serif" font-size="13" lengthAdjust="spacing" textLength="114" x="743" y="1374.3545">200 OK + AllTrucks</text><polygon fill="#181818" points="81.5,1405.5625,71.5,1409.5625,81.5,1413.5625,77.5,1409.5625" style="stroke:#181818;stroke-width:1.0;"/><line style="stroke:#181818;stroke-width:1.0;" x1="75.5" x2="697" y1="1409.5625" y2="1409.5625"/><text fill="#000000" font-family="sans-serif" font-size="13" font-weight="bold" lengthAdjust="spacing" textLength="14" x="87.5" y="1404.7061">38</text><text fill="#000000" font-family="sans-serif" font-size="13" lengthAdjust="spacing" textLength="99" x="105.5" y="1404.7061">Shows all Trucks</text><!--MD5=[a8ca6b83261dc928f1ef4432cdeb8ce3]
@startuml getAllTrucksSD

autonumber
!pragma teoz true

skinparam sequence {
ParticipantBorderColor black
ParticipantBackgroundColor white
}

actor "Logistics Manager" as manager

participant Google as Google <<System(C4)>>
box "<<System(C4)>>\n       System" #LightYellow
    box "<<Container(C4)>>\n           UI" #LightCyan
        
        participant LoginController as LoginC <<Component(C4)>>
        participant LoginService as LoginS <<Component(C4)>>
    
    
    
        participant TruckComponent as TruckC <<Component(C4)>>
        participant TruckS as TruckS <<Component(C4)>>
        

    end box

    box "<<Container(C4)>>\nAuthentication" #LightSkyBlue

        participant UserController as UserCTRL <<Container(C4)>> 
        participant UserService as UserServ <<Container(C4)>> 
        participant UserRepository as UserRepo <<Container(C4)>> 

        participant TruckController as TruckCTRL <<Container(C4)>>

    end box
    box "<<Container(C4)>>\n       Logistics" #LightBlue
        participant TruckRoute as Route <<Component(C4)>>
        participant TruckController as Controller <<Component(C4)>>
        participant TruckS as Service <<Component(C4)>>
        participant TruckRepository as Repository <<Component(C4)>>
        participant Persistence as Persistence <<Component(C4)>>
    end box

end box


activate manager
manager->LoginC: I want to login
activate LoginC

alt Login through email and password in EletricGo


    LoginC -> LoginS: login(email, password)
    activate LoginS
    LoginS -> UserCTRL: POST Login(email, password)
    activate UserCTRL

    UserCTRL -> UserServ: login(email, password)
    activate UserServ
    UserServ -> UserRepo: findByEmail(email)
    activate UserRepo
    UserRepo - -> UserServ: User
    deactivate UserRepo
    UserServ -> UserServ: checkPassword(password, User)
    UserServ - -> UserCTRL: Success
    deactivate UserServ


    UserCTRL - -> LoginS: 200 OK + Cookie
    deactivate UserCTRL

    LoginS - -> LoginC: 200 OK
    deactivate LoginS

else Login through Google

    LoginC -> Google: Login with Google account
    activate Google
    Google - -> LoginC: 200 OK
    deactivate Google
    LoginC -> LoginS: loginWithGoogle()
    activate LoginS
    LoginS -> UserCTRL: POST LoginWithGoogle()
    activate UserCTRL
    UserCTRL -> UserServ: userExists()
    activate UserServ
    UserServ -> UserRepo: findByEmail(email)
    activate UserRepo
    UserRepo - -> UserServ: User
    deactivate UserRepo
    UserServ - -> UserCTRL: User
    deactivate UserServ
    UserCTRL - -> LoginS: 200 OK + Cookie
    deactivate UserCTRL
    LoginS - -> LoginC: 200 OK
    deactivate LoginS

    deactivate Google

end



LoginC - -> manager: informs about the success of login
deactivate LoginC


manager -> TruckC: Asks to get all Trucks
activate TruckC
TruckC -> TruckS: getAllTrucks()
activate TruckS
TruckS -> TruckCTRL: GET getAllTrucks()
activate TruckCTRL
TruckCTRL -> TruckCTRL: checkAuth()
TruckCTRL -> Route: GET getAllTrucks()
activate Route
Route -> Controller: GET getAllTrucks()
activate Controller



Controller -> Service: getAllTrucks()
activate Service

Service -> Repository: getAllTrucks()
activate Repository
Repository -> Persistence: find()
activate Persistence



Persistence -> Repository: AllTrucks
deactivate Persistence
Repository->Service: AllTrucks
deactivate Repository

Service -> Controller: AllTrucks
deactivate Service
Controller->Route: 200 OK + AllTrucks
deactivate Controller
Route->TruckCTRL: 200 OK + AllTrucks
deactivate Route
TruckCTRL->TruckS: 200 OK + AllTrucks
deactivate TruckCTRL
TruckS->TruckC: 200 OK + AllTrucks
deactivate TruckS
TruckC->manager: Shows all Trucks
deactivate TruckC
deactivate manager


@enduml

PlantUML version 1.2022.7(Mon Aug 22 18:01:30 WEST 2022)
(GPL source distribution)
Java Runtime: Java(TM) SE Runtime Environment
JVM: Java HotSpot(TM) 64-Bit Server VM
Default Encoding: Cp1252
Language: en
Country: GB
--></g></svg>