<?xml version="1.0" encoding="UTF-8" standalone="no"?><svg xmlns="http://www.w3.org/2000/svg" xmlns:xlink="http://www.w3.org/1999/xlink" contentStyleType="text/css" height="1460px" preserveAspectRatio="none" style="width:2211px;height:1460px;background:#FFFFFF;" version="1.1" viewBox="0 0 2211 1460" width="2211px" zoomAndPan="magnify"><defs/><g><rect fill="#F4A460" height="1448.8203" style="stroke:#181818;stroke-width:0.5;" width="700" x="137.5" y="6"/><text fill="#000000" font-family="sans-serif" font-size="13" font-weight="bold" lengthAdjust="spacing" textLength="118" x="428.5" y="19.4951">&lt;&lt;Container(C4)&gt;&gt;</text><text fill="#000000" font-family="sans-serif" font-size="13" font-weight="bold" lengthAdjust="spacing" textLength="13" x="472.5" y="35.8467">UI</text><rect fill="#D3D3D3" height="1448.8203" style="stroke:#181818;stroke-width:0.5;" width="1219.5" x="973" y="6"/><text fill="#000000" font-family="sans-serif" font-size="13" font-weight="bold" lengthAdjust="spacing" textLength="102" x="1531.75" y="19.4951">&lt;&lt;System(C4)&gt;&gt;</text><text fill="#000000" font-family="sans-serif" font-size="13" font-weight="bold" lengthAdjust="spacing" textLength="46" x="1559.75" y="35.8467">System</text><rect fill="#E0FFFF" height="1411.1172" style="stroke:#181818;stroke-width:0.5;" width="956" x="1236.5" y="43.7031"/><text fill="#000000" font-family="sans-serif" font-size="13" font-weight="bold" lengthAdjust="spacing" textLength="118" x="1655.5" y="57.1982">&lt;&lt;Container(C4)&gt;&gt;</text><text fill="#000000" font-family="sans-serif" font-size="13" font-weight="bold" lengthAdjust="spacing" textLength="55" x="1683.5" y="73.5498">Logistics</text><rect fill="none" height="873.6797" style="stroke:#000000;stroke-width:1.5;" width="2166.5" x="38" y="473.5313"/><line style="stroke:#181818;stroke-width:0.5;stroke-dasharray:5.0,5.0;" x1="54" x2="54" y1="158.0156" y2="1371.2109"/><rect fill="#FFFFFF" height="1205.1953" style="stroke:#181818;stroke-width:1.0;" width="10" x="49" y="166.0156"/><line style="stroke:#181818;stroke-width:0.5;stroke-dasharray:5.0,5.0;" x1="229" x2="229" y1="158.0156" y2="1371.2109"/><rect fill="#FFFFFF" height="813.4922" style="stroke:#181818;stroke-width:1.0;" width="10" x="224" y="166.0156"/><line style="stroke:#181818;stroke-width:0.5;stroke-dasharray:5.0,5.0;" x1="499" x2="499" y1="158.0156" y2="1371.2109"/><rect fill="#FFFFFF" height="1059.7891" style="stroke:#181818;stroke-width:1.0;" width="10" x="494" y="279.4219"/><line style="stroke:#181818;stroke-width:0.5;stroke-dasharray:5.0,5.0;" x1="768" x2="768" y1="158.0156" y2="1371.2109"/><rect fill="#FFFFFF" height="938.3828" style="stroke:#181818;stroke-width:1.0;" width="10" x="763" y="370.4766"/><line style="stroke:#181818;stroke-width:0.5;stroke-dasharray:5.0,5.0;" x1="1037" x2="1037" y1="158.0156" y2="1371.2109"/><rect fill="#FFFFFF" height="877.6797" style="stroke:#181818;stroke-width:1.0;" width="10" x="1032" y="400.8281"/><line style="stroke:#181818;stroke-width:0.5;stroke-dasharray:5.0,5.0;" x1="1306" x2="1306" y1="158.0156" y2="1371.2109"/><rect fill="#FFFFFF" height="816.9766" style="stroke:#181818;stroke-width:1.0;" width="10" x="1301" y="431.1797"/><line style="stroke:#181818;stroke-width:0.5;stroke-dasharray:5.0,5.0;" x1="1575" x2="1575" y1="158.0156" y2="1371.2109"/><rect fill="#FFFFFF" height="756.2734" style="stroke:#181818;stroke-width:1.0;" width="10" x="1570" y="461.5313"/><line style="stroke:#181818;stroke-width:0.5;stroke-dasharray:5.0,5.0;" x1="1767" x2="1767" y1="158.0156" y2="1371.2109"/><rect fill="#FFFFFF" height="663.2188" style="stroke:#181818;stroke-width:1.0;" width="10" x="1762" y="524.2344"/><line style="stroke:#181818;stroke-width:0.5;stroke-dasharray:5.0,5.0;" x1="1961" x2="1961" y1="158.0156" y2="1371.2109"/><rect fill="#FFFFFF" height="602.5156" style="stroke:#181818;stroke-width:1.0;" width="10" x="1956" y="554.5859"/><line style="stroke:#181818;stroke-width:0.5;stroke-dasharray:5.0,5.0;" x1="2123" x2="2123" y1="158.0156" y2="1371.2109"/><rect fill="#FFFFFF" height="541.8125" style="stroke:#181818;stroke-width:1.0;" width="10" x="2118" y="584.9375"/><text fill="#000000" font-family="sans-serif" font-size="14" lengthAdjust="spacing" textLength="92" x="5" y="154.9395">Fleet Manager</text><ellipse cx="54" cy="88.9063" fill="#E2E2F0" rx="8" ry="8" style="stroke:#181818;stroke-width:0.5;"/><path d="M54,96.9063 L54,123.9063 M41,104.9063 L67,104.9063 M54,123.9063 L41,138.9063 M54,123.9063 L67,138.9063 " fill="none" style="stroke:#181818;stroke-width:0.5;"/><rect fill="#FFFFFF" height="49.2188" rx="2.5" ry="2.5" style="stroke:#000000;stroke-width:0.5;" width="175" x="141.5" y="107.7969"/><text fill="#000000" font-family="sans-serif" font-size="14" font-style="italic" lengthAdjust="spacing" textLength="117" x="170.5" y="129.3301">«Component(C4)»</text><text fill="#000000" font-family="sans-serif" font-size="14" lengthAdjust="spacing" textLength="161" x="148.5" y="146.9395">FleetManagerComponent</text><rect fill="#FFFFFF" height="49.2188" rx="2.5" ry="2.5" style="stroke:#000000;stroke-width:0.5;" width="147" x="425.5" y="107.7969"/><text fill="#000000" font-family="sans-serif" font-size="14" font-style="italic" lengthAdjust="spacing" textLength="117" x="440.5" y="129.3301">«Component(C4)»</text><text fill="#000000" font-family="sans-serif" font-size="14" lengthAdjust="spacing" textLength="133" x="432.5" y="146.9395">EditTruckComponent</text><rect fill="#FFFFFF" height="49.2188" rx="2.5" ry="2.5" style="stroke:#000000;stroke-width:0.5;" width="131" x="702.5" y="107.7969"/><text fill="#000000" font-family="sans-serif" font-size="14" font-style="italic" lengthAdjust="spacing" textLength="117" x="709.5" y="129.3301">«Component(C4)»</text><text fill="#000000" font-family="sans-serif" font-size="14" lengthAdjust="spacing" textLength="83" x="726.5" y="146.9395">TruckService</text><rect fill="#FFFFFF" height="49.2188" rx="2.5" ry="2.5" style="stroke:#000000;stroke-width:0.5;" width="120" x="977" y="107.7969"/><text fill="#000000" font-family="sans-serif" font-size="14" font-style="italic" lengthAdjust="spacing" textLength="106" x="984" y="129.3301">«Container(C4)»</text><text fill="#000000" font-family="sans-serif" font-size="14" lengthAdjust="spacing" textLength="29" x="1022.5" y="146.9395">Auth</text><rect fill="#FFFFFF" height="49.2188" rx="2.5" ry="2.5" style="stroke:#000000;stroke-width:0.5;" width="131" x="1240.5" y="107.7969"/><text fill="#000000" font-family="sans-serif" font-size="14" font-style="italic" lengthAdjust="spacing" textLength="117" x="1247.5" y="129.3301">«Component(C4)»</text><text fill="#000000" font-family="sans-serif" font-size="14" lengthAdjust="spacing" textLength="74" x="1269" y="146.9395">TruckRoute</text><rect fill="#FFFFFF" height="49.2188" rx="2.5" ry="2.5" style="stroke:#000000;stroke-width:0.5;" width="131" x="1509.5" y="107.7969"/><text fill="#000000" font-family="sans-serif" font-size="14" font-style="italic" lengthAdjust="spacing" textLength="117" x="1516.5" y="129.3301">«Component(C4)»</text><text fill="#000000" font-family="sans-serif" font-size="14" lengthAdjust="spacing" textLength="98" x="1526" y="146.9395">TruckController</text><rect fill="#FFFFFF" height="49.2188" rx="2.5" ry="2.5" style="stroke:#000000;stroke-width:0.5;" width="131" x="1701.5" y="107.7969"/><text fill="#000000" font-family="sans-serif" font-size="14" font-style="italic" lengthAdjust="spacing" textLength="117" x="1708.5" y="129.3301">«Component(C4)»</text><text fill="#000000" font-family="sans-serif" font-size="14" lengthAdjust="spacing" textLength="83" x="1725.5" y="146.9395">TruckService</text><rect fill="#FFFFFF" height="49.2188" rx="2.5" ry="2.5" style="stroke:#000000;stroke-width:0.5;" width="131" x="1895.5" y="107.7969"/><text fill="#000000" font-family="sans-serif" font-size="14" font-style="italic" lengthAdjust="spacing" textLength="117" x="1902.5" y="129.3301">«Component(C4)»</text><text fill="#000000" font-family="sans-serif" font-size="14" lengthAdjust="spacing" textLength="104" x="1909" y="146.9395">TruckRepository</text><rect fill="#FFFFFF" height="49.2188" rx="2.5" ry="2.5" style="stroke:#000000;stroke-width:0.5;" width="131" x="2057.5" y="107.7969"/><text fill="#000000" font-family="sans-serif" font-size="14" font-style="italic" lengthAdjust="spacing" textLength="117" x="2064.5" y="129.3301">«Component(C4)»</text><text fill="#000000" font-family="sans-serif" font-size="14" lengthAdjust="spacing" textLength="74" x="2086" y="146.9395">Persistance</text><text fill="#000000" font-family="sans-serif" font-size="14" lengthAdjust="spacing" textLength="92" x="5" y="1445.7441">Fleet Manager</text><ellipse cx="54" cy="1379.7109" fill="#E2E2F0" rx="8" ry="8" style="stroke:#181818;stroke-width:0.5;"/><path d="M54,1387.7109 L54,1414.7109 M41,1395.7109 L67,1395.7109 M54,1414.7109 L41,1429.7109 M54,1414.7109 L67,1429.7109 " fill="none" style="stroke:#181818;stroke-width:0.5;"/><rect fill="#FFFFFF" height="49.2188" rx="2.5" ry="2.5" style="stroke:#000000;stroke-width:0.5;" width="175" x="141.5" y="1371.2109"/><text fill="#000000" font-family="sans-serif" font-size="14" font-style="italic" lengthAdjust="spacing" textLength="117" x="170.5" y="1392.7441">«Component(C4)»</text><text fill="#000000" font-family="sans-serif" font-size="14" lengthAdjust="spacing" textLength="161" x="148.5" y="1410.3535">FleetManagerComponent</text><rect fill="#FFFFFF" height="49.2188" rx="2.5" ry="2.5" style="stroke:#000000;stroke-width:0.5;" width="147" x="425.5" y="1371.2109"/><text fill="#000000" font-family="sans-serif" font-size="14" font-style="italic" lengthAdjust="spacing" textLength="117" x="440.5" y="1392.7441">«Component(C4)»</text><text fill="#000000" font-family="sans-serif" font-size="14" lengthAdjust="spacing" textLength="133" x="432.5" y="1410.3535">EditTruckComponent</text><rect fill="#FFFFFF" height="49.2188" rx="2.5" ry="2.5" style="stroke:#000000;stroke-width:0.5;" width="131" x="702.5" y="1371.2109"/><text fill="#000000" font-family="sans-serif" font-size="14" font-style="italic" lengthAdjust="spacing" textLength="117" x="709.5" y="1392.7441">«Component(C4)»</text><text fill="#000000" font-family="sans-serif" font-size="14" lengthAdjust="spacing" textLength="83" x="726.5" y="1410.3535">TruckService</text><rect fill="#FFFFFF" height="49.2188" rx="2.5" ry="2.5" style="stroke:#000000;stroke-width:0.5;" width="120" x="977" y="1371.2109"/><text fill="#000000" font-family="sans-serif" font-size="14" font-style="italic" lengthAdjust="spacing" textLength="106" x="984" y="1392.7441">«Container(C4)»</text><text fill="#000000" font-family="sans-serif" font-size="14" lengthAdjust="spacing" textLength="29" x="1022.5" y="1410.3535">Auth</text><rect fill="#FFFFFF" height="49.2188" rx="2.5" ry="2.5" style="stroke:#000000;stroke-width:0.5;" width="131" x="1240.5" y="1371.2109"/><text fill="#000000" font-family="sans-serif" font-size="14" font-style="italic" lengthAdjust="spacing" textLength="117" x="1247.5" y="1392.7441">«Component(C4)»</text><text fill="#000000" font-family="sans-serif" font-size="14" lengthAdjust="spacing" textLength="74" x="1269" y="1410.3535">TruckRoute</text><rect fill="#FFFFFF" height="49.2188" rx="2.5" ry="2.5" style="stroke:#000000;stroke-width:0.5;" width="131" x="1509.5" y="1371.2109"/><text fill="#000000" font-family="sans-serif" font-size="14" font-style="italic" lengthAdjust="spacing" textLength="117" x="1516.5" y="1392.7441">«Component(C4)»</text><text fill="#000000" font-family="sans-serif" font-size="14" lengthAdjust="spacing" textLength="98" x="1526" y="1410.3535">TruckController</text><rect fill="#FFFFFF" height="49.2188" rx="2.5" ry="2.5" style="stroke:#000000;stroke-width:0.5;" width="131" x="1701.5" y="1371.2109"/><text fill="#000000" font-family="sans-serif" font-size="14" font-style="italic" lengthAdjust="spacing" textLength="117" x="1708.5" y="1392.7441">«Component(C4)»</text><text fill="#000000" font-family="sans-serif" font-size="14" lengthAdjust="spacing" textLength="83" x="1725.5" y="1410.3535">TruckService</text><rect fill="#FFFFFF" height="49.2188" rx="2.5" ry="2.5" style="stroke:#000000;stroke-width:0.5;" width="131" x="1895.5" y="1371.2109"/><text fill="#000000" font-family="sans-serif" font-size="14" font-style="italic" lengthAdjust="spacing" textLength="117" x="1902.5" y="1392.7441">«Component(C4)»</text><text fill="#000000" font-family="sans-serif" font-size="14" lengthAdjust="spacing" textLength="104" x="1909" y="1410.3535">TruckRepository</text><rect fill="#FFFFFF" height="49.2188" rx="2.5" ry="2.5" style="stroke:#000000;stroke-width:0.5;" width="131" x="2057.5" y="1371.2109"/><text fill="#000000" font-family="sans-serif" font-size="14" font-style="italic" lengthAdjust="spacing" textLength="117" x="2064.5" y="1392.7441">«Component(C4)»</text><text fill="#000000" font-family="sans-serif" font-size="14" lengthAdjust="spacing" textLength="74" x="2086" y="1410.3535">Persistance</text><polygon fill="#181818" points="212,184.3672,222,188.3672,212,192.3672,216,188.3672" style="stroke:#181818;stroke-width:1.0;"/><line style="stroke:#181818;stroke-width:1.0;" x1="59" x2="218" y1="188.3672" y2="188.3672"/><text fill="#000000" font-family="sans-serif" font-size="13" font-weight="bold" lengthAdjust="spacing" textLength="7" x="66" y="183.5107">1</text><text fill="#000000" font-family="sans-serif" font-size="13" lengthAdjust="spacing" textLength="135" x="77" y="183.5107">Asks to update a Truck</text><polygon fill="#181818" points="70,214.7188,60,218.7188,70,222.7188,66,218.7188" style="stroke:#181818;stroke-width:1.0;"/><line style="stroke:#181818;stroke-width:1.0;" x1="64" x2="223" y1="218.7188" y2="218.7188"/><text fill="#000000" font-family="sans-serif" font-size="13" font-weight="bold" lengthAdjust="spacing" textLength="7" x="76" y="213.8623">2</text><text fill="#000000" font-family="sans-serif" font-size="13" lengthAdjust="spacing" textLength="100" x="87" y="213.8623">Asks for Truck ID</text><polygon fill="#181818" points="212,245.0703,222,249.0703,212,253.0703,216,249.0703" style="stroke:#181818;stroke-width:1.0;"/><line style="stroke:#181818;stroke-width:1.0;" x1="59" x2="218" y1="249.0703" y2="249.0703"/><text fill="#000000" font-family="sans-serif" font-size="13" font-weight="bold" lengthAdjust="spacing" textLength="7" x="66" y="244.2139">3</text><text fill="#000000" font-family="sans-serif" font-size="13" lengthAdjust="spacing" textLength="91" x="77" y="244.2139">Inserts Truck ID</text><polygon fill="#181818" points="482,275.4219,492,279.4219,482,283.4219,486,279.4219" style="stroke:#181818;stroke-width:1.0;"/><line style="stroke:#181818;stroke-width:1.0;" x1="234" x2="488" y1="279.4219" y2="279.4219"/><text fill="#000000" font-family="sans-serif" font-size="13" font-weight="bold" lengthAdjust="spacing" textLength="7" x="241" y="274.5654">4</text><text fill="#000000" font-family="sans-serif" font-size="13" lengthAdjust="spacing" textLength="194" x="252" y="274.5654">navigates to EditTruckComponent</text><polygon fill="#181818" points="70,305.7734,60,309.7734,70,313.7734,66,309.7734" style="stroke:#181818;stroke-width:1.0;"/><line style="stroke:#181818;stroke-width:1.0;" x1="64" x2="493" y1="309.7734" y2="309.7734"/><text fill="#000000" font-family="sans-serif" font-size="13" font-weight="bold" lengthAdjust="spacing" textLength="7" x="76" y="304.917">5</text><text fill="#000000" font-family="sans-serif" font-size="13" lengthAdjust="spacing" textLength="135" x="87" y="304.917">Asks for new Truck Info</text><polygon fill="#181818" points="482,336.125,492,340.125,482,344.125,486,340.125" style="stroke:#181818;stroke-width:1.0;"/><line style="stroke:#181818;stroke-width:1.0;" x1="59" x2="488" y1="340.125" y2="340.125"/><text fill="#000000" font-family="sans-serif" font-size="13" font-weight="bold" lengthAdjust="spacing" textLength="7" x="66" y="335.2686">6</text><text fill="#000000" font-family="sans-serif" font-size="13" lengthAdjust="spacing" textLength="126" x="77" y="335.2686">Inserts new Truck Info</text><polygon fill="#181818" points="751,366.4766,761,370.4766,751,374.4766,755,370.4766" style="stroke:#181818;stroke-width:1.0;"/><line style="stroke:#181818;stroke-width:1.0;" x1="504" x2="757" y1="370.4766" y2="370.4766"/><text fill="#000000" font-family="sans-serif" font-size="13" font-weight="bold" lengthAdjust="spacing" textLength="7" x="511" y="365.6201">7</text><text fill="#000000" font-family="sans-serif" font-size="13" lengthAdjust="spacing" textLength="111" x="522" y="365.6201">updateTruck(Truck)</text><polygon fill="#181818" points="1020,396.8281,1030,400.8281,1020,404.8281,1024,400.8281" style="stroke:#181818;stroke-width:1.0;"/><line style="stroke:#181818;stroke-width:1.0;" x1="773" x2="1026" y1="400.8281" y2="400.8281"/><text fill="#000000" font-family="sans-serif" font-size="13" font-weight="bold" lengthAdjust="spacing" textLength="7" x="780" y="395.9717">8</text><text fill="#000000" font-family="sans-serif" font-size="13" lengthAdjust="spacing" textLength="155" x="791" y="395.9717">PATCH updateTruck(truck)</text><polygon fill="#181818" points="1289,427.1797,1299,431.1797,1289,435.1797,1293,431.1797" style="stroke:#181818;stroke-width:1.0;"/><line style="stroke:#181818;stroke-width:1.0;" x1="1042" x2="1295" y1="431.1797" y2="431.1797"/><text fill="#000000" font-family="sans-serif" font-size="13" font-weight="bold" lengthAdjust="spacing" textLength="7" x="1049" y="426.3232">9</text><text fill="#000000" font-family="sans-serif" font-size="13" lengthAdjust="spacing" textLength="155" x="1060" y="426.3232">PATCH updateTruck(truck)</text><polygon fill="#181818" points="1558,457.5313,1568,461.5313,1558,465.5313,1562,461.5313" style="stroke:#181818;stroke-width:1.0;"/><line style="stroke:#181818;stroke-width:1.0;" x1="1311" x2="1564" y1="461.5313" y2="461.5313"/><text fill="#000000" font-family="sans-serif" font-size="13" font-weight="bold" lengthAdjust="spacing" textLength="14" x="1318" y="456.6748">10</text><text fill="#000000" font-family="sans-serif" font-size="13" lengthAdjust="spacing" textLength="155" x="1336" y="456.6748">PATCH updateTruck(truck)</text><path d="M38,473.5313 L99,473.5313 L99,481.8828 L89,491.8828 L38,491.8828 L38,473.5313 " fill="#EEEEEE" style="stroke:#000000;stroke-width:1.5;"/><rect fill="none" height="873.6797" style="stroke:#000000;stroke-width:1.5;" width="2166.5" x="38" y="473.5313"/><text fill="#000000" font-family="sans-serif" font-size="13" font-weight="bold" lengthAdjust="spacing" textLength="16" x="53" y="488.0264">alt</text><text fill="#000000" font-family="sans-serif" font-size="11" font-weight="bold" lengthAdjust="spacing" textLength="77" x="114" y="486.9502">[Truck exists]</text><line style="stroke:#000000;stroke-width:1.0;stroke-dasharray:2.0,2.0;" x1="38" x2="2204.5" y1="998.5078" y2="998.5078"/><text fill="#000000" font-family="sans-serif" font-size="11" font-weight="bold" lengthAdjust="spacing" textLength="122" x="43" y="1009.9268">[Truck doesn't exists]</text><polygon fill="#181818" points="1750,520.2344,1760,524.2344,1750,528.2344,1754,524.2344" style="stroke:#181818;stroke-width:1.0;"/><line style="stroke:#181818;stroke-width:1.0;" x1="1580" x2="1756" y1="524.2344" y2="524.2344"/><text fill="#000000" font-family="sans-serif" font-size="13" font-weight="bold" lengthAdjust="spacing" textLength="14" x="1587" y="519.3779">11</text><text fill="#000000" font-family="sans-serif" font-size="13" lengthAdjust="spacing" textLength="108" x="1605" y="519.3779">updateTruck(truck)</text><polygon fill="#181818" points="1944,550.5859,1954,554.5859,1944,558.5859,1948,554.5859" style="stroke:#181818;stroke-width:1.0;"/><line style="stroke:#181818;stroke-width:1.0;" x1="1772" x2="1950" y1="554.5859" y2="554.5859"/><text fill="#000000" font-family="sans-serif" font-size="13" font-weight="bold" lengthAdjust="spacing" textLength="14" x="1779" y="549.7295">12</text><text fill="#000000" font-family="sans-serif" font-size="13" lengthAdjust="spacing" textLength="147" x="1797" y="549.7295">getTruckById(truckInfo.id)</text><polygon fill="#181818" points="2106,580.9375,2116,584.9375,2106,588.9375,2110,584.9375" style="stroke:#181818;stroke-width:1.0;"/><line style="stroke:#181818;stroke-width:1.0;" x1="1966" x2="2112" y1="584.9375" y2="584.9375"/><text fill="#000000" font-family="sans-serif" font-size="13" font-weight="bold" lengthAdjust="spacing" textLength="14" x="1973" y="580.0811">13</text><text fill="#000000" font-family="sans-serif" font-size="13" lengthAdjust="spacing" textLength="115" x="1991" y="580.0811">findOne(truckInfo.id)</text><polygon fill="#181818" points="1977,611.2891,1967,615.2891,1977,619.2891,1973,615.2891" style="stroke:#181818;stroke-width:1.0;"/><line style="stroke:#181818;stroke-width:1.0;" x1="1971" x2="2117" y1="615.2891" y2="615.2891"/><text fill="#000000" font-family="sans-serif" font-size="13" font-weight="bold" lengthAdjust="spacing" textLength="14" x="1983" y="610.4326">14</text><text fill="#000000" font-family="sans-serif" font-size="13" lengthAdjust="spacing" textLength="29" x="2001" y="610.4326">truck</text><polygon fill="#181818" points="1783,641.6406,1773,645.6406,1783,649.6406,1779,645.6406" style="stroke:#181818;stroke-width:1.0;"/><line style="stroke:#181818;stroke-width:1.0;" x1="1777" x2="1955" y1="645.6406" y2="645.6406"/><text fill="#000000" font-family="sans-serif" font-size="13" font-weight="bold" lengthAdjust="spacing" textLength="14" x="1789" y="640.7842">15</text><text fill="#000000" font-family="sans-serif" font-size="13" lengthAdjust="spacing" textLength="29" x="1807" y="640.7842">truck</text><polygon fill="#181818" points="1944,671.9922,1954,675.9922,1944,679.9922,1948,675.9922" style="stroke:#181818;stroke-width:1.0;"/><line style="stroke:#181818;stroke-width:1.0;" x1="1772" x2="1950" y1="675.9922" y2="675.9922"/><text fill="#000000" font-family="sans-serif" font-size="13" font-weight="bold" lengthAdjust="spacing" textLength="14" x="1779" y="671.1357">16</text><text fill="#000000" font-family="sans-serif" font-size="13" lengthAdjust="spacing" textLength="96" x="1797" y="671.1357">update(truckInfo)</text><polygon fill="#181818" points="2106,702.3438,2116,706.3438,2106,710.3438,2110,706.3438" style="stroke:#181818;stroke-width:1.0;"/><line style="stroke:#181818;stroke-width:1.0;" x1="1966" x2="2112" y1="706.3438" y2="706.3438"/><text fill="#000000" font-family="sans-serif" font-size="13" font-weight="bold" lengthAdjust="spacing" textLength="14" x="1973" y="701.4873">17</text><text fill="#000000" font-family="sans-serif" font-size="13" lengthAdjust="spacing" textLength="83" x="1991" y="701.4873">save(truckInfo)</text><polygon fill="#181818" points="2106,732.6953,2116,736.6953,2106,740.6953,2110,736.6953" style="stroke:#181818;stroke-width:1.0;"/><line style="stroke:#181818;stroke-width:1.0;" x1="1966" x2="2112" y1="736.6953" y2="736.6953"/><text fill="#000000" font-family="sans-serif" font-size="13" font-weight="bold" lengthAdjust="spacing" textLength="14" x="1973" y="731.8389">18</text><text fill="#000000" font-family="sans-serif" font-size="13" lengthAdjust="spacing" textLength="22" x="1991" y="731.8389">true</text><polygon fill="#181818" points="1783,763.0469,1773,767.0469,1783,771.0469,1779,767.0469" style="stroke:#181818;stroke-width:1.0;"/><line style="stroke:#181818;stroke-width:1.0;" x1="1777" x2="1955" y1="767.0469" y2="767.0469"/><text fill="#000000" font-family="sans-serif" font-size="13" font-weight="bold" lengthAdjust="spacing" textLength="14" x="1789" y="762.1904">19</text><text fill="#000000" font-family="sans-serif" font-size="13" lengthAdjust="spacing" textLength="49" x="1807" y="762.1904">truckInfo</text><polygon fill="#181818" points="1591,793.3984,1581,797.3984,1591,801.3984,1587,797.3984" style="stroke:#181818;stroke-width:1.0;"/><line style="stroke:#181818;stroke-width:1.0;" x1="1585" x2="1761" y1="797.3984" y2="797.3984"/><text fill="#000000" font-family="sans-serif" font-size="13" font-weight="bold" lengthAdjust="spacing" textLength="14" x="1597" y="792.542">20</text><text fill="#000000" font-family="sans-serif" font-size="13" lengthAdjust="spacing" textLength="49" x="1615" y="792.542">truckInfo</text><polygon fill="#181818" points="1322,823.75,1312,827.75,1322,831.75,1318,827.75" style="stroke:#181818;stroke-width:1.0;"/><line style="stroke:#181818;stroke-width:1.0;" x1="1316" x2="1569" y1="827.75" y2="827.75"/><text fill="#000000" font-family="sans-serif" font-size="13" font-weight="bold" lengthAdjust="spacing" textLength="14" x="1328" y="822.8936">21</text><text fill="#000000" font-family="sans-serif" font-size="13" lengthAdjust="spacing" textLength="109" x="1346" y="822.8936">200 OK + truckInfo</text><polygon fill="#181818" points="1053,854.1016,1043,858.1016,1053,862.1016,1049,858.1016" style="stroke:#181818;stroke-width:1.0;"/><line style="stroke:#181818;stroke-width:1.0;" x1="1047" x2="1300" y1="858.1016" y2="858.1016"/><text fill="#000000" font-family="sans-serif" font-size="13" font-weight="bold" lengthAdjust="spacing" textLength="14" x="1059" y="853.2451">22</text><text fill="#000000" font-family="sans-serif" font-size="13" lengthAdjust="spacing" textLength="109" x="1077" y="853.2451">200 OK + truckInfo</text><polygon fill="#181818" points="784,884.4531,774,888.4531,784,892.4531,780,888.4531" style="stroke:#181818;stroke-width:1.0;"/><line style="stroke:#181818;stroke-width:1.0;" x1="778" x2="1031" y1="888.4531" y2="888.4531"/><text fill="#000000" font-family="sans-serif" font-size="13" font-weight="bold" lengthAdjust="spacing" textLength="14" x="790" y="883.5967">23</text><text fill="#000000" font-family="sans-serif" font-size="13" lengthAdjust="spacing" textLength="109" x="808" y="883.5967">200 OK + truckInfo</text><polygon fill="#181818" points="515,914.8047,505,918.8047,515,922.8047,511,918.8047" style="stroke:#181818;stroke-width:1.0;"/><line style="stroke:#181818;stroke-width:1.0;" x1="509" x2="762" y1="918.8047" y2="918.8047"/><text fill="#000000" font-family="sans-serif" font-size="13" font-weight="bold" lengthAdjust="spacing" textLength="14" x="521" y="913.9482">24</text><text fill="#000000" font-family="sans-serif" font-size="13" lengthAdjust="spacing" textLength="109" x="539" y="913.9482">200 OK + truckInfo</text><polygon fill="#181818" points="70,945.1563,60,949.1563,70,953.1563,66,949.1563" style="stroke:#181818;stroke-width:1.0;"/><line style="stroke:#181818;stroke-width:1.0;" x1="64" x2="493" y1="949.1563" y2="949.1563"/><text fill="#000000" font-family="sans-serif" font-size="13" font-weight="bold" lengthAdjust="spacing" textLength="14" x="76" y="944.2998">25</text><text fill="#000000" font-family="sans-serif" font-size="13" lengthAdjust="spacing" textLength="128" x="94" y="944.2998">informs Truck updated</text><polygon fill="#181818" points="245,975.5078,235,979.5078,245,983.5078,241,979.5078" style="stroke:#181818;stroke-width:1.0;"/><line style="stroke:#181818;stroke-width:1.0;" x1="239" x2="493" y1="979.5078" y2="979.5078"/><text fill="#000000" font-family="sans-serif" font-size="13" font-weight="bold" lengthAdjust="spacing" textLength="14" x="251" y="974.6514">26</text><text fill="#000000" font-family="sans-serif" font-size="13" lengthAdjust="spacing" textLength="218" x="269" y="974.6514">navigates to FleetManagerComponent</text><polygon fill="#181818" points="1750,1031.6953,1760,1035.6953,1750,1039.6953,1754,1035.6953" style="stroke:#181818;stroke-width:1.0;"/><line style="stroke:#181818;stroke-width:1.0;" x1="1580" x2="1756" y1="1035.6953" y2="1035.6953"/><text fill="#000000" font-family="sans-serif" font-size="13" font-weight="bold" lengthAdjust="spacing" textLength="14" x="1587" y="1030.8389">27</text><text fill="#000000" font-family="sans-serif" font-size="13" lengthAdjust="spacing" textLength="108" x="1605" y="1030.8389">updateTruck(truck)</text><polygon fill="#181818" points="1944,1062.0469,1954,1066.0469,1944,1070.0469,1948,1066.0469" style="stroke:#181818;stroke-width:1.0;"/><line style="stroke:#181818;stroke-width:1.0;" x1="1772" x2="1950" y1="1066.0469" y2="1066.0469"/><text fill="#000000" font-family="sans-serif" font-size="13" font-weight="bold" lengthAdjust="spacing" textLength="14" x="1779" y="1061.1904">28</text><text fill="#000000" font-family="sans-serif" font-size="13" lengthAdjust="spacing" textLength="147" x="1797" y="1061.1904">getTruckById(truckInfo.id)</text><polygon fill="#181818" points="2106,1092.3984,2116,1096.3984,2106,1100.3984,2110,1096.3984" style="stroke:#181818;stroke-width:1.0;"/><line style="stroke:#181818;stroke-width:1.0;" x1="1966" x2="2112" y1="1096.3984" y2="1096.3984"/><text fill="#000000" font-family="sans-serif" font-size="13" font-weight="bold" lengthAdjust="spacing" textLength="14" x="1973" y="1091.542">29</text><text fill="#000000" font-family="sans-serif" font-size="13" lengthAdjust="spacing" textLength="115" x="1991" y="1091.542">findOne(truckInfo.id)</text><polygon fill="#181818" points="1977,1122.75,1967,1126.75,1977,1130.75,1973,1126.75" style="stroke:#181818;stroke-width:1.0;"/><line style="stroke:#181818;stroke-width:1.0;" x1="1971" x2="2117" y1="1126.75" y2="1126.75"/><text fill="#000000" font-family="sans-serif" font-size="13" font-weight="bold" lengthAdjust="spacing" textLength="14" x="1983" y="1121.8936">30</text><text fill="#000000" font-family="sans-serif" font-size="13" lengthAdjust="spacing" textLength="20" x="2001" y="1121.8936">null</text><polygon fill="#181818" points="1783,1153.1016,1773,1157.1016,1783,1161.1016,1779,1157.1016" style="stroke:#181818;stroke-width:1.0;"/><line style="stroke:#181818;stroke-width:1.0;" x1="1777" x2="1955" y1="1157.1016" y2="1157.1016"/><text fill="#000000" font-family="sans-serif" font-size="13" font-weight="bold" lengthAdjust="spacing" textLength="14" x="1789" y="1152.2451">31</text><text fill="#000000" font-family="sans-serif" font-size="13" lengthAdjust="spacing" textLength="20" x="1807" y="1152.2451">null</text><polygon fill="#181818" points="1591,1183.4531,1581,1187.4531,1591,1191.4531,1587,1187.4531" style="stroke:#181818;stroke-width:1.0;"/><line style="stroke:#181818;stroke-width:1.0;" x1="1585" x2="1761" y1="1187.4531" y2="1187.4531"/><text fill="#000000" font-family="sans-serif" font-size="13" font-weight="bold" lengthAdjust="spacing" textLength="14" x="1597" y="1182.5967">32</text><text fill="#000000" font-family="sans-serif" font-size="13" lengthAdjust="spacing" textLength="140" x="1615" y="1182.5967">error, truck doesn't exist</text><polygon fill="#181818" points="1322,1213.8047,1312,1217.8047,1322,1221.8047,1318,1217.8047" style="stroke:#181818;stroke-width:1.0;"/><line style="stroke:#181818;stroke-width:1.0;" x1="1316" x2="1569" y1="1217.8047" y2="1217.8047"/><text fill="#000000" font-family="sans-serif" font-size="13" font-weight="bold" lengthAdjust="spacing" textLength="14" x="1328" y="1212.9482">33</text><text fill="#000000" font-family="sans-serif" font-size="13" lengthAdjust="spacing" textLength="217" x="1346" y="1212.9482">404 NOT FOUND, Truck doesn't exist</text><polygon fill="#181818" points="1053,1244.1563,1043,1248.1563,1053,1252.1563,1049,1248.1563" style="stroke:#181818;stroke-width:1.0;"/><line style="stroke:#181818;stroke-width:1.0;" x1="1047" x2="1300" y1="1248.1563" y2="1248.1563"/><text fill="#000000" font-family="sans-serif" font-size="13" font-weight="bold" lengthAdjust="spacing" textLength="14" x="1059" y="1243.2998">34</text><text fill="#000000" font-family="sans-serif" font-size="13" lengthAdjust="spacing" textLength="217" x="1077" y="1243.2998">404 NOT FOUND, Truck doesn't exist</text><polygon fill="#181818" points="784,1274.5078,774,1278.5078,784,1282.5078,780,1278.5078" style="stroke:#181818;stroke-width:1.0;"/><line style="stroke:#181818;stroke-width:1.0;" x1="778" x2="1031" y1="1278.5078" y2="1278.5078"/><text fill="#000000" font-family="sans-serif" font-size="13" font-weight="bold" lengthAdjust="spacing" textLength="14" x="790" y="1273.6514">35</text><text fill="#000000" font-family="sans-serif" font-size="13" lengthAdjust="spacing" textLength="217" x="808" y="1273.6514">404 NOT FOUND, Truck doesn't exist</text><polygon fill="#181818" points="515,1304.8594,505,1308.8594,515,1312.8594,511,1308.8594" style="stroke:#181818;stroke-width:1.0;"/><line style="stroke:#181818;stroke-width:1.0;" x1="509" x2="762" y1="1308.8594" y2="1308.8594"/><text fill="#000000" font-family="sans-serif" font-size="13" font-weight="bold" lengthAdjust="spacing" textLength="14" x="521" y="1304.0029">36</text><text fill="#000000" font-family="sans-serif" font-size="13" lengthAdjust="spacing" textLength="217" x="539" y="1304.0029">404 NOT FOUND, Truck doesn't exist</text><polygon fill="#181818" points="70,1335.2109,60,1339.2109,70,1343.2109,66,1339.2109" style="stroke:#181818;stroke-width:1.0;"/><line style="stroke:#181818;stroke-width:1.0;" x1="64" x2="493" y1="1339.2109" y2="1339.2109"/><text fill="#000000" font-family="sans-serif" font-size="13" font-weight="bold" lengthAdjust="spacing" textLength="14" x="76" y="1334.3545">37</text><text fill="#000000" font-family="sans-serif" font-size="13" lengthAdjust="spacing" textLength="159" x="94" y="1334.3545">informs about update failure</text><!--MD5=[2b060480d922b219cc2eef7ddeb766fd]
@startuml updateTruckSD

autonumber
!pragma teoz true

skinparam sequence {
ParticipantBorderColor black
ParticipantBackgroundColor white
}

actor "Fleet Manager" as manager

box "<<Container(C4)>>\n           UI" #SandyBrown
participant "FleetManagerComponent" as FleetManagerComponent <<Component(C4)>>
participant "EditTruckComponent" as EditTruckComponent <<Component(C4)>>
participant "TruckService" as TruckService <<Component(C4)>>
end box

box "<<System(C4)>>\n       System" #LightGray
participant Auth as  Auth <<Container(C4)>>
box "<<Container(C4)>>\n       Logistics" #LightCyan
participant TruckRoute as Route <<Component(C4)>>
participant TruckController as Controller <<Component(C4)>>
participant TruckService as Service <<Component(C4)>>
participant TruckRepository as Repository <<Component(C4)>>
participant Persistance as Persistance <<Component(C4)>>
end box



activate manager
activate FleetManagerComponent
manager -> FleetManagerComponent: Asks to update a Truck

FleetManagerComponent -> manager: Asks for Truck ID


manager ->FleetManagerComponent: Inserts Truck ID

FleetManagerComponent -> EditTruckComponent: navigates to EditTruckComponent
activate EditTruckComponent

EditTruckComponent -> manager: Asks for new Truck Info
manager -> EditTruckComponent: Inserts new Truck Info
EditTruckComponent -> TruckService: updateTruck(Truck)
activate TruckService
TruckService -> Auth: PATCH updateTruck(truck)

activate Auth

Auth -> Route: PATCH updateTruck(truck)
activate Route
Route -> Controller: PATCH updateTruck(truck)
activate Controller

alt Truck exists 

Controller -> Service: updateTruck(truck)
activate Service

Service -> Repository: getTruckById(truckInfo.id)
activate Repository

Repository -> Persistance: findOne(truckInfo.id)
activate Persistance
Persistance -> Repository: truck
Repository->Service: truck

Service -> Repository: update(truckInfo)
Repository -> Persistance:save(truckInfo)

Repository -> Persistance:true
Repository-> Service: truckInfo
Service-> Controller: truckInfo

Controller->Route: 200 OK + truckInfo
Route ->Auth: 200 OK + truckInfo
Auth -> TruckService: 200 OK + truckInfo
TruckService -> EditTruckComponent: 200 OK + truckInfo
EditTruckComponent -> manager: informs Truck updated
EditTruckComponent -> FleetManagerComponent: navigates to FleetManagerComponent
deactivate FleetManagerComponent
else Truck doesn't exists

Controller -> Service: updateTruck(truck)
Service -> Repository: getTruckById(truckInfo.id)
Repository->Persistance: findOne(truckInfo.id)
Persistance ->Repository: null
deactivate Persistance
Repository->Service: null
deactivate Repository
Service->Controller: error, truck doesn't exist
deactivate Service
Controller-> Route: 404 NOT FOUND, Truck doesn't exist
deactivate Controller
Route ->Auth: 404 NOT FOUND, Truck doesn't exist
deactivate Route
Auth->TruckService: 404 NOT FOUND, Truck doesn't exist
deactivate Auth
TruckService -> EditTruckComponent: 404 NOT FOUND, Truck doesn't exist
deactivate TruckService
EditTruckComponent->manager: informs about update failure
deactivate EditTruckComponent
@enduml

PlantUML version 1.2022.7(Mon Aug 22 18:01:30 WEST 2022)
(GPL source distribution)
Java Runtime: Java(TM) SE Runtime Environment
JVM: Java HotSpot(TM) 64-Bit Server VM
Default Encoding: Cp1252
Language: en
Country: GB
--></g></svg>