<?xml version="1.0" encoding="UTF-8" standalone="no"?><svg xmlns="http://www.w3.org/2000/svg" xmlns:xlink="http://www.w3.org/1999/xlink" contentStyleType="text/css" height="2724px" preserveAspectRatio="none" style="width:502px;height:2724px;background:#FFFFFF;" version="1.1" viewBox="0 0 502 2724" width="502px" zoomAndPan="magnify"><defs/><g><!--MD5=[e85bd8b7c3eef9e05b8e65fb9224b5e9]
cluster EletricGo--><g id="cluster_EletricGo"><rect fill="none" height="2711" rx="2.5" ry="2.5" style="stroke:#181818;stroke-width:1.0;" width="313" x="183" y="7"/><text fill="#000000" font-family="sans-serif" font-size="14" font-weight="bold" lengthAdjust="spacing" textLength="65" x="307" y="21.6738">EletricGo</text></g><g id="elem_UC1"><ellipse cx="339.4325" cy="437.8865" fill="#F1F1F1" rx="84.9325" ry="19.3865" style="stroke:#181818;stroke-width:0.5;"/><text fill="#000000" font-family="sans-serif" font-size="14" lengthAdjust="spacing" textLength="132" x="273.4325" y="440.74">Create a Warehouse</text></g><g id="elem_UC2"><ellipse cx="339.3175" cy="522.8635" fill="#F1F1F1" rx="137.3175" ry="29.8635" style="stroke:#181818;stroke-width:0.5;"/><text fill="#000000" font-family="sans-serif" font-size="14" lengthAdjust="spacing" textLength="245" x="216.8175" y="525.717">Reade information about a Warehouse</text></g><g id="elem_UC3"><ellipse cx="339.6696" cy="619.0339" fill="#F1F1F1" rx="140.6696" ry="30.5339" style="stroke:#181818;stroke-width:0.5;"/><text fill="#000000" font-family="sans-serif" font-size="14" lengthAdjust="spacing" textLength="248" x="213.6696" y="621.8874">Update information about a Warehouse</text></g><g id="elem_UC4"><ellipse cx="339.5551" cy="704.211" fill="#F1F1F1" rx="84.0551" ry="19.211" style="stroke:#181818;stroke-width:0.5;"/><text fill="#000000" font-family="sans-serif" font-size="14" lengthAdjust="spacing" textLength="130" x="274.5551" y="707.0645">Delete a Warehouse</text></g><g id="elem_UC5"><ellipse cx="339.5551" cy="777.211" fill="#F1F1F1" rx="84.0551" ry="19.211" style="stroke:#181818;stroke-width:0.5;"/><text fill="#000000" font-family="sans-serif" font-size="14" lengthAdjust="spacing" textLength="130" x="274.5551" y="780.0645">List the Warehouses</text></g><g id="elem_UC6"><ellipse cx="339.4564" cy="848.9913" fill="#F1F1F1" rx="75.4564" ry="17.4913" style="stroke:#181818;stroke-width:0.5;"/><text fill="#000000" font-family="sans-serif" font-size="14" lengthAdjust="spacing" textLength="110" x="284.4564" y="851.8448">Create a Delivery</text></g><g id="elem_UC7"><ellipse cx="339.3353" cy="929.7671" fill="#F1F1F1" rx="126.8353" ry="27.7671" style="stroke:#181818;stroke-width:0.5;"/><text fill="#000000" font-family="sans-serif" font-size="14" lengthAdjust="spacing" textLength="223" x="227.8353" y="932.6206">Reade information about a Delivery</text></g><g id="elem_UC8"><ellipse cx="339.4658" cy="1020.7932" fill="#F1F1F1" rx="124.4658" ry="27.2932" style="stroke:#181818;stroke-width:0.5;"/><text fill="#000000" font-family="sans-serif" font-size="14" lengthAdjust="spacing" textLength="214" x="230.4658" y="1023.6467">Update information about Delivery</text></g><g id="elem_UC9"><ellipse cx="339.6166" cy="1100.8233" fill="#F1F1F1" rx="74.6166" ry="17.3233" style="stroke:#181818;stroke-width:0.5;"/><text fill="#000000" font-family="sans-serif" font-size="14" lengthAdjust="spacing" textLength="108" x="285.6166" y="1103.6768">Delete a Delivery</text></g><g id="elem_UC10"><ellipse cx="339.3003" cy="1171.1601" fill="#F1F1F1" rx="76.3003" ry="17.6601" style="stroke:#181818;stroke-width:0.5;"/><text fill="#000000" font-family="sans-serif" font-size="14" lengthAdjust="spacing" textLength="112" x="283.3003" y="1174.0136">List the Deliveries</text></g><g id="elem_UC11"><ellipse cx="339.2756" cy="1239.7551" fill="#F1F1F1" rx="69.2756" ry="16.2551" style="stroke:#181818;stroke-width:0.5;"/><text fill="#000000" font-family="sans-serif" font-size="14" lengthAdjust="spacing" textLength="95" x="291.1105" y="1242.7906">Create a Truck</text></g><g id="elem_UC12"><ellipse cx="339.743" cy="1317.8486" fill="#F1F1F1" rx="119.743" ry="26.3486" style="stroke:#181818;stroke-width:0.5;"/><text fill="#000000" font-family="sans-serif" font-size="14" lengthAdjust="spacing" textLength="208" x="235.743" y="1320.7021">Reade information about a Truck</text></g><g id="elem_UC13"><ellipse cx="339.513" cy="1405.0026" fill="#F1F1F1" rx="115.513" ry="25.5026" style="stroke:#181818;stroke-width:0.5;"/><text fill="#000000" font-family="sans-serif" font-size="14" lengthAdjust="spacing" textLength="199" x="240.013" y="1407.8561">Update information about Truck</text></g><g id="elem_UC14"><ellipse cx="339.485" cy="1482.097" fill="#F1F1F1" rx="68.485" ry="16.097" style="stroke:#181818;stroke-width:0.5;"/><text fill="#000000" font-family="sans-serif" font-size="14" lengthAdjust="spacing" textLength="93" x="291.9334" y="1485.2329">Delete a Truck</text></g><g id="elem_UC15"><ellipse cx="339.485" cy="1549.097" fill="#F1F1F1" rx="68.485" ry="16.097" style="stroke:#181818;stroke-width:0.5;"/><text fill="#000000" font-family="sans-serif" font-size="14" lengthAdjust="spacing" textLength="93" x="291.9334" y="1552.2329">List the Trucks</text></g><g id="elem_UC16"><ellipse cx="339.5618" cy="1616.2124" fill="#F1F1F1" rx="66.5618" ry="15.7124" style="stroke:#181818;stroke-width:0.5;"/><text fill="#000000" font-family="sans-serif" font-size="14" lengthAdjust="spacing" textLength="88" x="293.5028" y="1619.5925">Create a Path</text></g><g id="elem_UC17"><ellipse cx="339.4512" cy="1692.1902" fill="#F1F1F1" rx="116.4512" ry="25.6902" style="stroke:#181818;stroke-width:0.5;"/><text fill="#000000" font-family="sans-serif" font-size="14" lengthAdjust="spacing" textLength="201" x="238.9512" y="1695.0438">Reade information about a Path</text></g><g id="elem_UC18"><ellipse cx="339.738" cy="1777.8476" fill="#F1F1F1" rx="112.238" ry="24.8476" style="stroke:#181818;stroke-width:0.5;"/><text fill="#000000" font-family="sans-serif" font-size="14" lengthAdjust="spacing" textLength="192" x="243.738" y="1780.7011">Update information about Path</text></g><g id="elem_UC19"><ellipse cx="339.3151" cy="1854.063" fill="#F1F1F1" rx="65.8151" ry="15.563" style="stroke:#181818;stroke-width:0.5;"/><text fill="#000000" font-family="sans-serif" font-size="14" lengthAdjust="spacing" textLength="86" x="293.8356" y="1857.5379">Delete a Path</text></g><g id="elem_UC20"><ellipse cx="339.3151" cy="1920.063" fill="#F1F1F1" rx="65.8151" ry="15.563" style="stroke:#181818;stroke-width:0.5;"/><text fill="#000000" font-family="sans-serif" font-size="14" lengthAdjust="spacing" textLength="86" x="293.8356" y="1923.5379">List the Paths</text></g><g id="elem_UC21"><ellipse cx="339.2756" cy="57.7551" fill="#F1F1F1" rx="69.2756" ry="16.2551" style="stroke:#181818;stroke-width:0.5;"/><text fill="#000000" font-family="sans-serif" font-size="14" lengthAdjust="spacing" textLength="95" x="291.1105" y="60.7906">Create a Client</text></g><g id="elem_UC22"><ellipse cx="339.743" cy="135.8486" fill="#F1F1F1" rx="119.743" ry="26.3486" style="stroke:#181818;stroke-width:0.5;"/><text fill="#000000" font-family="sans-serif" font-size="14" lengthAdjust="spacing" textLength="208" x="235.743" y="138.7021">Reade information about a Client</text></g><g id="elem_UC23"><ellipse cx="339.513" cy="223.0026" fill="#F1F1F1" rx="115.513" ry="25.5026" style="stroke:#181818;stroke-width:0.5;"/><text fill="#000000" font-family="sans-serif" font-size="14" lengthAdjust="spacing" textLength="199" x="240.013" y="225.8561">Update information about Client</text></g><g id="elem_UC24"><ellipse cx="339.485" cy="300.097" fill="#F1F1F1" rx="68.485" ry="16.097" style="stroke:#181818;stroke-width:0.5;"/><text fill="#000000" font-family="sans-serif" font-size="14" lengthAdjust="spacing" textLength="93" x="291.9334" y="303.2329">Delete a Client</text></g><g id="elem_UC25"><ellipse cx="339.485" cy="367.097" fill="#F1F1F1" rx="68.485" ry="16.097" style="stroke:#181818;stroke-width:0.5;"/><text fill="#000000" font-family="sans-serif" font-size="14" lengthAdjust="spacing" textLength="93" x="291.9334" y="370.2329">List the Clients</text></g><g id="elem_UC26"><ellipse cx="339.4406" cy="2355.1881" fill="#F1F1F1" rx="81.4406" ry="18.6881" style="stroke:#181818;stroke-width:0.5;"/><text fill="#000000" font-family="sans-serif" font-size="14" lengthAdjust="spacing" textLength="124" x="277.4406" y="2358.0416">Create a packaging</text></g><g id="elem_UC27"><ellipse cx="339.4959" cy="2438.0992" fill="#F1F1F1" rx="133.4959" ry="29.0992" style="stroke:#181818;stroke-width:0.5;"/><text fill="#000000" font-family="sans-serif" font-size="14" lengthAdjust="spacing" textLength="237" x="220.9959" y="2440.9527">Reade information about a packaging</text></g><g id="elem_UC28"><ellipse cx="339.7099" cy="2530.242" fill="#F1F1F1" rx="129.2099" ry="28.242" style="stroke:#181818;stroke-width:0.5;"/><text fill="#000000" font-family="sans-serif" font-size="14" lengthAdjust="spacing" textLength="228" x="225.7099" y="2533.0955">Update information about packaging</text></g><g id="elem_UC29"><ellipse cx="339.5753" cy="2612.0151" fill="#F1F1F1" rx="80.5753" ry="18.5151" style="stroke:#181818;stroke-width:0.5;"/><text fill="#000000" font-family="sans-serif" font-size="14" lengthAdjust="spacing" textLength="122" x="278.5753" y="2614.8686">Delete a packaging</text></g><g id="elem_UC30"><ellipse cx="339.5733" cy="2683.9147" fill="#F1F1F1" rx="77.5733" ry="17.9147" style="stroke:#181818;stroke-width:0.5;"/><text fill="#000000" font-family="sans-serif" font-size="14" lengthAdjust="spacing" textLength="115" x="282.0733" y="2686.7682">List the packaging</text></g><g id="elem_UC31"><ellipse cx="339.2943" cy="1986.0589" fill="#F1F1F1" rx="63.2943" ry="15.0589" style="stroke:#181818;stroke-width:0.5;"/><text fill="#000000" font-family="sans-serif" font-size="14" lengthAdjust="spacing" textLength="79" x="296.7943" y="1989.6458">Create a trip</text></g><g id="elem_UC32"><ellipse cx="339.738" cy="2060.8476" fill="#F1F1F1" rx="112.238" ry="24.8476" style="stroke:#181818;stroke-width:0.5;"/><text fill="#000000" font-family="sans-serif" font-size="14" lengthAdjust="spacing" textLength="192" x="243.738" y="2063.7011">Reade information about a trip</text></g><g id="elem_UC33"><ellipse cx="339.6399" cy="2146.128" fill="#F1F1F1" rx="113.6399" ry="25.128" style="stroke:#181818;stroke-width:0.5;"/><text fill="#000000" font-family="sans-serif" font-size="14" lengthAdjust="spacing" textLength="195" x="242.1399" y="2148.9815">Update information about a trip</text></g><g id="elem_UC34"><ellipse cx="339.5936" cy="2220.9187" fill="#F1F1F1" rx="62.5936" ry="14.9187" style="stroke:#181818;stroke-width:0.5;"/><text fill="#000000" font-family="sans-serif" font-size="14" lengthAdjust="spacing" textLength="77" x="298.0936" y="2224.5056">Delete a trip</text></g><g id="elem_UC35"><ellipse cx="339.5936" cy="2285.9187" fill="#F1F1F1" rx="62.5936" ry="14.9187" style="stroke:#181818;stroke-width:0.5;"/><text fill="#000000" font-family="sans-serif" font-size="14" lengthAdjust="spacing" textLength="77" x="298.0936" y="2289.5056">List the trips</text></g><!--MD5=[5bb58f447e60c14e9d23282c6a4405f4]
entity ADM--><g id="elem_ADM"><ellipse cx="72.5" cy="193.5" fill="#F1F1F1" rx="8" ry="8" style="stroke:#181818;stroke-width:0.5;"/><path d="M72.5,201.5 L72.5,228.5 M59.5,209.5 L85.5,209.5 M72.5,228.5 L59.5,243.5 M72.5,228.5 L85.5,243.5 " fill="none" style="stroke:#181818;stroke-width:0.5;"/><text fill="#000000" font-family="sans-serif" font-size="14" lengthAdjust="spacing" textLength="83" x="31" y="257.6738">Administrator</text></g><!--MD5=[6e3fdb3f3593ee9caf8c0bc1a533234e]
entity MNG--><g id="elem_MNG"><ellipse cx="72.5" cy="783.5" fill="#F1F1F1" rx="8" ry="8" style="stroke:#181818;stroke-width:0.5;"/><path d="M72.5,791.5 L72.5,818.5 M59.5,799.5 L85.5,799.5 M72.5,818.5 L59.5,833.5 M72.5,818.5 L85.5,833.5 " fill="none" style="stroke:#181818;stroke-width:0.5;"/><text fill="#000000" font-family="sans-serif" font-size="14" lengthAdjust="spacing" textLength="133" x="6" y="847.6738">Warehouse Manager</text></g><!--MD5=[05104c5f25798aaf974b2e6ba6081c4e]
entity FMNG--><g id="elem_FMNG"><ellipse cx="72.5" cy="1375.5" fill="#F1F1F1" rx="8" ry="8" style="stroke:#181818;stroke-width:0.5;"/><path d="M72.5,1383.5 L72.5,1410.5 M59.5,1391.5 L85.5,1391.5 M72.5,1410.5 L59.5,1425.5 M72.5,1410.5 L85.5,1425.5 " fill="none" style="stroke:#181818;stroke-width:0.5;"/><text fill="#000000" font-family="sans-serif" font-size="14" lengthAdjust="spacing" textLength="92" x="26.5" y="1439.6738">Fleet Manager</text></g><!--MD5=[d9dc080aa4693f894a317bb84aa3ef5b]
entity LMNG--><g id="elem_LMNG"><ellipse cx="72.5" cy="2116.5" fill="#F1F1F1" rx="8" ry="8" style="stroke:#181818;stroke-width:0.5;"/><path d="M72.5,2124.5 L72.5,2151.5 M59.5,2132.5 L85.5,2132.5 M72.5,2151.5 L59.5,2166.5 M72.5,2151.5 L85.5,2166.5 " fill="none" style="stroke:#181818;stroke-width:0.5;"/><text fill="#000000" font-family="sans-serif" font-size="14" lengthAdjust="spacing" textLength="115" x="15" y="2180.6738">Logistics Manager</text></g><!--MD5=[dbf8105ee9e089cba4146112f5298c1e]
link MNG to UC1--><g id="link_MNG_UC1"><path d="M73.24,774.96 C74.94,704.86 89.1,555.15 175,475 C195.23,456.12 222.99,446.16 249.89,441.1 " fill="none" id="MNG-to-UC1" style="stroke:#181818;stroke-width:1.0;"/><polygon fill="#181818" points="254.9,440.21,245.3344,437.865,249.9788,441.0944,246.7494,445.7388,254.9,440.21" style="stroke:#181818;stroke-width:1.0;"/></g><!--MD5=[4297386a56b30642a0de41476c154737]
link MNG to UC2--><g id="link_MNG_UC2"><path d="M79.11,774.8 C88.95,721.48 114.38,625.21 175,571 C188.81,558.65 205.64,549.47 223.2,542.65 " fill="none" id="MNG-to-UC2" style="stroke:#181818;stroke-width:1.0;"/><polygon fill="#181818" points="228.16,540.79,218.328,540.2147,223.4801,542.5503,221.1445,547.7025,228.16,540.79" style="stroke:#181818;stroke-width:1.0;"/></g><!--MD5=[4c81b60d2e65f45fb0644f8723a00b41]
link MNG to UC3--><g id="link_MNG_UC3"><path d="M90.8,774.85 C107.72,741.68 136.56,694.7 175,667 C190.47,655.85 208.51,647.28 226.84,640.69 " fill="none" id="MNG-to-UC3" style="stroke:#181818;stroke-width:1.0;"/><polygon fill="#181818" points="232.02,638.88,222.2057,638.0552,227.2969,640.5209,224.8312,645.6121,232.02,638.88" style="stroke:#181818;stroke-width:1.0;"/></g><!--MD5=[f5716777977613183f488d13c5173e1a]
link MNG to UC4--><g id="link_MNG_UC4"><path d="M118.06,774.96 C134.96,762.19 154.98,748.94 175,740 C201.86,728 233.03,719.87 260.91,714.41 " fill="none" id="MNG-to-UC4" style="stroke:#181818;stroke-width:1.0;"/><polygon fill="#181818" points="266.08,713.42,256.4938,711.1606,261.1669,714.3483,257.9792,719.0215,266.08,713.42" style="stroke:#181818;stroke-width:1.0;"/></g><!--MD5=[9dcb2792f13fe08e5e53b781e6b65b13]
link MNG to UC5--><g id="link_MNG_UC5"><path d="M139.01,804.1 C176.12,799.06 222.74,792.73 261.58,787.45 " fill="none" id="MNG-to-UC5" style="stroke:#181818;stroke-width:1.0;"/><polygon fill="#181818" points="266.77,786.74,257.3146,783.9842,261.8152,787.4111,258.3883,791.9118,266.77,786.74" style="stroke:#181818;stroke-width:1.0;"/></g><!--MD5=[eec3e792577d7c0fb3513d83aeec24c9]
link MNG to UC6--><g id="link_MNG_UC6"><path d="M139.01,821.9 C178.32,827.24 228.31,834.03 268.41,839.48 " fill="none" id="MNG-to-UC6" style="stroke:#181818;stroke-width:1.0;"/><polygon fill="#181818" points="273.75,840.2,265.3703,835.025,268.7955,839.527,264.2935,842.9522,273.75,840.2" style="stroke:#181818;stroke-width:1.0;"/></g><!--MD5=[13be12238b81e38663ad683843e5b58a]
link MNG to UC7--><g id="link_MNG_UC7"><path d="M121.02,851.18 C137.4,862.97 156.34,875.16 175,884 C196.4,894.13 220.45,902.44 243.4,909.06 " fill="none" id="MNG-to-UC7" style="stroke:#181818;stroke-width:1.0;"/><polygon fill="#181818" points="248.28,910.45,240.7202,904.1373,243.4713,909.0802,238.5285,911.8313,248.28,910.45" style="stroke:#181818;stroke-width:1.0;"/></g><!--MD5=[28ecde607ef3a8e55d48038d97da7472]
link MNG to UC8--><g id="link_MNG_UC8"><path d="M87.83,851.18 C103.65,888.19 132.62,943.27 175,975 C191.94,987.68 212.22,996.87 232.65,1003.52 " fill="none" id="MNG-to-UC8" style="stroke:#181818;stroke-width:1.0;"/><polygon fill="#181818" points="237.56,1005.07,230.1795,998.5487,232.7914,1003.5664,227.7737,1006.1784,237.56,1005.07" style="stroke:#181818;stroke-width:1.0;"/></g><!--MD5=[1a530b0fea76be6b39f477325ae2cc3c]
link MNG to UC9--><g id="link_MNG_UC9"><path d="M77.66,851.21 C85.87,907.19 109.49,1010.81 175,1066 C198.4,1085.71 230.25,1095.13 259.62,1099.38 " fill="none" id="MNG-to-UC9" style="stroke:#181818;stroke-width:1.0;"/><polygon fill="#181818" points="264.69,1100.07,256.3083,1094.8982,259.7352,1099.3989,255.2346,1102.8258,264.69,1100.07" style="stroke:#181818;stroke-width:1.0;"/></g><!--MD5=[cfee54499cac8fe44d7c32705a113f49]
link MNG to UC10--><g id="link_MNG_UC10"><path d="M73.78,851.08 C76.47,918.94 92.31,1060.71 175,1136 C197.32,1156.32 228.48,1165.91 257.62,1170.13 " fill="none" id="MNG-to-UC10" style="stroke:#181818;stroke-width:1.0;"/><polygon fill="#181818" points="262.66,1170.81,254.2783,1165.6382,257.7052,1170.1389,253.2046,1173.5658,262.66,1170.81" style="stroke:#181818;stroke-width:1.0;"/></g><!--MD5=[3dfd0f639586b9f578fe82aa6ee07e23]
link FMNG to UC11--><g id="link_FMNG_UC11"><path d="M93.17,1366.77 C110.6,1336.82 138.89,1296.56 175,1274 C202.08,1257.09 236.12,1248.43 266.12,1244.06 " fill="none" id="FMNG-to-UC11" style="stroke:#181818;stroke-width:1.0;"/><polygon fill="#181818" points="271.28,1243.35,261.8168,1240.6209,266.3272,1244.0351,262.913,1248.5455,271.28,1243.35" style="stroke:#181818;stroke-width:1.0;"/></g><!--MD5=[37665d95dbbc9d6fe1f15790e121d8f1]
link FMNG to UC12--><g id="link_FMNG_UC12"><path d="M118.71,1384.27 C136.1,1376.72 156.27,1368.45 175,1362 C199.88,1353.43 227.36,1345.47 252.57,1338.74 " fill="none" id="FMNG-to-UC12" style="stroke:#181818;stroke-width:1.0;"/><polygon fill="#181818" points="257.58,1337.42,247.8538,1335.8704,252.7484,1338.7065,249.9123,1343.6011,257.58,1337.42" style="stroke:#181818;stroke-width:1.0;"/></g><!--MD5=[7dcd461a6e0a8c63baa477b0730442d7]
link FMNG to UC13--><g id="link_FMNG_UC13"><path d="M118.75,1405 C146.37,1405 183.09,1405 218.59,1405 " fill="none" id="FMNG-to-UC13" style="stroke:#181818;stroke-width:1.0;"/><polygon fill="#181818" points="223.82,1405,214.82,1401,218.82,1405,214.82,1409,223.82,1405" style="stroke:#181818;stroke-width:1.0;"/></g><!--MD5=[4e55dd59cd11f4f35a5904f04aaa7583]
link FMNG to UC14--><g id="link_FMNG_UC14"><path d="M118.52,1426.31 C135.88,1433.93 156.09,1442.09 175,1448 C208.09,1458.34 245.94,1466.44 276.89,1472.13 " fill="none" id="FMNG-to-UC14" style="stroke:#181818;stroke-width:1.0;"/><polygon fill="#181818" points="282.19,1473.1,274.055,1467.5483,277.2713,1472.2018,272.6179,1475.4182,282.19,1473.1" style="stroke:#181818;stroke-width:1.0;"/></g><!--MD5=[60b8dca2a4acfca0dbd5b5fbb8224afb]
link FMNG to UC15--><g id="link_FMNG_UC15"><path d="M99.03,1443.1 C117.33,1467.41 144.14,1497.52 175,1515 C203.14,1530.94 237.8,1539.44 267.95,1543.96 " fill="none" id="FMNG-to-UC15" style="stroke:#181818;stroke-width:1.0;"/><polygon fill="#181818" points="273.14,1544.71,264.8046,1539.4639,268.1914,1543.9949,263.6604,1547.3817,273.14,1544.71" style="stroke:#181818;stroke-width:1.0;"/></g><!--MD5=[909ab351b7c04d6b0a824681b2a4c8d1]
link LMNG to UC16--><g id="link_LMNG_UC16"><path d="M75.97,2107.72 C83.55,2002.74 110.01,1713.84 175,1649 C199.32,1624.73 236.22,1615.87 268.82,1613.35 " fill="none" id="LMNG-to-UC16" style="stroke:#181818;stroke-width:1.0;"/><polygon fill="#181818" points="274.01,1613,264.7568,1609.6269,269.0218,1613.343,265.3056,1617.608,274.01,1613" style="stroke:#181818;stroke-width:1.0;"/></g><!--MD5=[e27d3ccf64a44f89f362a1b06ecc1448]
link LMNG to UC17--><g id="link_LMNG_UC17"><path d="M77.93,2107.96 C89.34,2016.56 122.52,1788.28 175,1735 C189.49,1720.29 208.37,1710.41 228.12,1703.83 " fill="none" id="LMNG-to-UC17" style="stroke:#181818;stroke-width:1.0;"/><polygon fill="#181818" points="232.89,1702.31,223.1017,1701.2199,228.1242,1703.8225,225.5216,1708.8451,232.89,1702.31" style="stroke:#181818;stroke-width:1.0;"/></g><!--MD5=[8faae149898810744f99869a7eb31a84]
link LMNG to UC18--><g id="link_LMNG_UC18"><path d="M74.07,2107.8 C77.22,2040.03 93.8,1898.59 175,1821 C190.62,1806.08 210.77,1796.18 231.56,1789.65 " fill="none" id="LMNG-to-UC18" style="stroke:#181818;stroke-width:1.0;"/><polygon fill="#181818" points="236.57,1788.15,226.8019,1786.8914,231.7789,1789.5802,229.0902,1794.5572,236.57,1788.15" style="stroke:#181818;stroke-width:1.0;"/></g><!--MD5=[d83d5c53bf068c9cece26bcf7be6e030]
link LMNG to UC19--><g id="link_LMNG_UC19"><path d="M77.16,2107.75 C84.78,2050.57 107.67,1943.51 175,1887 C200.69,1865.44 236.59,1856.64 268.21,1853.45 " fill="none" id="LMNG-to-UC19" style="stroke:#181818;stroke-width:1.0;"/><polygon fill="#181818" points="273.25,1852.99,263.9215,1849.8309,268.271,1853.4478,264.6541,1857.7973,273.25,1852.99" style="stroke:#181818;stroke-width:1.0;"/></g><!--MD5=[0e0ff5ccc4d726b8b73f08b674fb2104]
link LMNG to UC20--><g id="link_LMNG_UC20"><path d="M82.84,2107.96 C95.8,2063.61 123.64,1991.47 175,1953 C201.51,1933.14 236.97,1924.44 268.09,1920.89 " fill="none" id="LMNG-to-UC20" style="stroke:#181818;stroke-width:1.0;"/><polygon fill="#181818" points="273.45,1920.33,264.0775,1917.304,268.478,1920.8586,264.9233,1925.2591,273.45,1920.33" style="stroke:#181818;stroke-width:1.0;"/></g><!--MD5=[72552b9f8d976bf9034c19667ccc8674]
link LMNG to UC26--><g id="link_LMNG_UC26"><path d="M85.74,2184.06 C100.5,2223.7 129.2,2284.6 175,2318 C198.13,2334.87 227.63,2344.24 255.19,2349.38 " fill="none" id="LMNG-to-UC26" style="stroke:#181818;stroke-width:1.0;"/><polygon fill="#181818" points="260.31,2350.29,252.1439,2344.7841,255.3864,2349.4194,250.751,2352.6619,260.31,2350.29" style="stroke:#181818;stroke-width:1.0;"/></g><!--MD5=[b1ad1a57874c933e28e7cce54cbaba6a]
link LMNG to UC27--><g id="link_LMNG_UC27"><path d="M78.84,2184.26 C88.4,2238.19 113.53,2336.1 175,2391 C189.1,2403.59 206.36,2412.82 224.32,2419.59 " fill="none" id="LMNG-to-UC27" style="stroke:#181818;stroke-width:1.0;"/><polygon fill="#181818" points="229.41,2421.43,222.3255,2414.5882,224.7127,2419.7167,219.5842,2422.1039,229.41,2421.43" style="stroke:#181818;stroke-width:1.0;"/></g><!--MD5=[449caa8df56d093f2739fe1cabdee2cd]
link LMNG to UC28--><g id="link_LMNG_UC28"><path d="M73.65,2184.17 C76.07,2253.81 91.42,2401.87 175,2484 C188.55,2497.32 205.64,2506.85 223.63,2513.65 " fill="none" id="LMNG-to-UC28" style="stroke:#181818;stroke-width:1.0;"/><polygon fill="#181818" points="228.73,2515.5,221.6272,2508.6773,224.0281,2513.7993,218.9061,2516.2003,228.73,2515.5" style="stroke:#181818;stroke-width:1.0;"/></g><!--MD5=[8cd976a1987a01ddfe420e9ec97645a0]
link LMNG to UC29--><g id="link_LMNG_UC29"><path d="M77.38,2184.07 C87.78,2278.5 119.33,2519.87 175,2575 C195.73,2595.53 225.3,2605.66 253.61,2610.38 " fill="none" id="LMNG-to-UC29" style="stroke:#181818;stroke-width:1.0;"/><polygon fill="#181818" points="258.88,2611.2,250.6045,2605.86,253.9398,2610.429,249.3708,2613.7643,258.88,2611.2" style="stroke:#181818;stroke-width:1.0;"/></g><!--MD5=[b823ac8ef52a65130b8accf5bf61cdc3]
link LMNG to UC30--><g id="link_LMNG_UC30"><path d="M75.95,2184.23 C83.5,2289.78 109.94,2581.81 175,2648 C196.28,2669.65 227.42,2679.63 256.82,2683.85 " fill="none" id="LMNG-to-UC30" style="stroke:#181818;stroke-width:1.0;"/><polygon fill="#181818" points="261.91,2684.53,253.5137,2679.382,256.9534,2683.8729,252.4624,2687.3126,261.91,2684.53" style="stroke:#181818;stroke-width:1.0;"/></g><!--MD5=[e51e5eec3020519bb97e09aadb12acad]
link LMNG to UC31--><g id="link_LMNG_UC31"><path d="M93.67,2107.94 C111.21,2078.67 139.39,2039.68 175,2018 C203.61,2000.58 239.79,1992.38 270.84,1988.61 " fill="none" id="LMNG-to-UC31" style="stroke:#181818;stroke-width:1.0;"/><polygon fill="#181818" points="276.18,1988,266.7821,1985.0539,271.2127,1988.571,267.6956,1993.0016,276.18,1988" style="stroke:#181818;stroke-width:1.0;"/></g><!--MD5=[4c0f87165be1dbfd5a666cd321a8c763]
link LMNG to UC32--><g id="link_LMNG_UC32"><path d="M130.09,2120.26 C144.57,2114.17 160.22,2108 175,2103 C200.64,2094.33 229.05,2086.45 254.91,2079.92 " fill="none" id="LMNG-to-UC32" style="stroke:#181818;stroke-width:1.0;"/><polygon fill="#181818" points="260.04,2078.63,250.3374,2076.939,255.1901,2079.846,252.2831,2084.6988,260.04,2078.63" style="stroke:#181818;stroke-width:1.0;"/></g><!--MD5=[f0763bc023dae075c28544cace6a6c76]
link LMNG to UC33--><g id="link_LMNG_UC33"><path d="M130.02,2146 C156.57,2146 189.27,2146 220.83,2146 " fill="none" id="LMNG-to-UC33" style="stroke:#181818;stroke-width:1.0;"/><polygon fill="#181818" points="225.88,2146,216.88,2142,220.88,2146,216.88,2150,225.88,2146" style="stroke:#181818;stroke-width:1.0;"/></g><!--MD5=[a34ab38b67f480ebf9adeadf4ea039aa]
link LMNG to UC34--><g id="link_LMNG_UC34"><path d="M130.23,2171.73 C144.64,2177.64 160.22,2183.5 175,2188 C209.71,2198.58 249.61,2206.7 281.3,2212.25 " fill="none" id="LMNG-to-UC34" style="stroke:#181818;stroke-width:1.0;"/><polygon fill="#181818" points="286.32,2213.11,278.1385,2207.6271,281.3939,2212.2533,276.7677,2215.5088,286.32,2213.11" style="stroke:#181818;stroke-width:1.0;"/></g><!--MD5=[b8681511d8838635490e26cbf8a4e7bc]
link LMNG to UC35--><g id="link_LMNG_UC35"><path d="M100.03,2184.16 C118.38,2207.64 144.87,2236.32 175,2253 C204.94,2269.57 242.08,2277.87 273.39,2282.01 " fill="none" id="LMNG-to-UC35" style="stroke:#181818;stroke-width:1.0;"/><polygon fill="#181818" points="278.37,2282.64,269.9447,2277.5396,273.4097,2282.011,268.9383,2285.4761,278.37,2282.64" style="stroke:#181818;stroke-width:1.0;"/></g><!--MD5=[ff311a9c3b7793b3816ced15516060f0]
link ADM to UC21--><g id="link_ADM_UC21"><path d="M93.17,184.77 C110.6,154.82 138.89,114.56 175,92 C202.08,75.09 236.12,66.43 266.12,62.06 " fill="none" id="ADM-to-UC21" style="stroke:#181818;stroke-width:1.0;"/><polygon fill="#181818" points="271.28,61.35,261.8168,58.6209,266.3272,62.0351,262.913,66.5455,271.28,61.35" style="stroke:#181818;stroke-width:1.0;"/></g><!--MD5=[f12bd3c970679633d1f6a9612a3146a6]
link ADM to UC22--><g id="link_ADM_UC22"><path d="M114.48,204.12 C132.77,196.09 154.73,186.98 175,180 C199.88,171.43 227.36,163.47 252.57,156.74 " fill="none" id="ADM-to-UC22" style="stroke:#181818;stroke-width:1.0;"/><polygon fill="#181818" points="257.58,155.42,247.8538,153.8704,252.7484,156.7065,249.9123,161.6011,257.58,155.42" style="stroke:#181818;stroke-width:1.0;"/></g><!--MD5=[5ba4dc5c0b33c7d554ea7c211a6141b1]
link ADM to UC23--><g id="link_ADM_UC23"><path d="M114.04,223 C142.13,223 181.12,223 218.73,223 " fill="none" id="ADM-to-UC23" style="stroke:#181818;stroke-width:1.0;"/><polygon fill="#181818" points="223.78,223,214.78,219,218.78,223,214.78,227,223.78,223" style="stroke:#181818;stroke-width:1.0;"/></g><!--MD5=[9d681beb0fdcd4f497bca6f1f0c839bf]
link ADM to UC24--><g id="link_ADM_UC24"><path d="M114.3,242.44 C132.56,250.58 154.54,259.61 175,266 C208.09,276.34 245.94,284.44 276.89,290.13 " fill="none" id="ADM-to-UC24" style="stroke:#181818;stroke-width:1.0;"/><polygon fill="#181818" points="282.19,291.1,274.055,285.5483,277.2713,290.2018,272.6179,293.4182,282.19,291.1" style="stroke:#181818;stroke-width:1.0;"/></g><!--MD5=[3d26ced15f6ddbc11ae088adbfb8cc82]
link ADM to UC25--><g id="link_ADM_UC25"><path d="M99.03,261.1 C117.33,285.41 144.14,315.52 175,333 C203.14,348.94 237.8,357.44 267.95,361.96 " fill="none" id="ADM-to-UC25" style="stroke:#181818;stroke-width:1.0;"/><polygon fill="#181818" points="273.14,362.71,264.8046,357.4639,268.1914,361.9949,263.6604,365.3817,273.14,362.71" style="stroke:#181818;stroke-width:1.0;"/></g><!--MD5=[3438b4d69fc3a9ea012877bfc1378478]
@startuml

left to right direction
actor "Administrator" as ADM
actor "Warehouse Manager" as MNG
actor "Fleet Manager" as FMNG
actor "Logistics Manager" as LMNG

rectangle EletricGo {

    usecase "Create a Warehouse" as UC1
    usecase "Reade information about a Warehouse" as UC2
    usecase "Update information about a Warehouse " as UC3
    usecase "Delete a Warehouse" as UC4
    usecase "List the Warehouses" as UC5

    usecase "Create a Delivery" as UC6
    usecase "Reade information about a Delivery" as UC7
    usecase "Update information about Delivery " as UC8
    usecase "Delete a Delivery" as UC9
    usecase "List the Deliveries" as UC10

    usecase "Create a Truck" as UC11
    usecase "Reade information about a Truck" as UC12
    usecase "Update information about Truck" as UC13
    usecase "Delete a Truck" as UC14
    usecase "List the Trucks" as UC15

    usecase "Create a Path" as UC16
    usecase "Reade information about a Path" as UC17
    usecase "Update information about Path" as UC18
    usecase "Delete a Path" as UC19
    usecase "List the Paths" as UC20

    usecase "Create a Client" as UC21
    usecase "Reade information about a Client" as UC22
    usecase "Update information about Client" as UC23
    usecase "Delete a Client" as UC24
    usecase "List the Clients" as UC25
    
    usecase "Create a packaging" as UC26
    usecase "Reade information about a packaging" as UC27
    usecase "Update information about packaging" as UC28
    usecase "Delete a packaging" as UC29
    usecase "List the packaging" as UC30
    
    usecase "Create a trip" as UC31
    usecase "Reade information about a trip" as UC32
    usecase "Update information about a trip" as UC33
    usecase "Delete a trip" as UC34
    usecase "List the trips" as UC35


}


MNG - -> UC1
MNG - -> UC2
MNG - -> UC3
MNG - -> UC4
MNG - -> UC5

MNG - -> UC6
MNG - -> UC7
MNG - -> UC8
MNG - -> UC9
MNG - -> UC10

FMNG - -> UC11
FMNG - -> UC12
FMNG - -> UC13
FMNG - -> UC14
FMNG - -> UC15

LMNG - -> UC16
LMNG - -> UC17
LMNG - -> UC18
LMNG - -> UC19
LMNG - -> UC20

LMNG - -> UC26
LMNG - -> UC27
LMNG - -> UC28
LMNG - -> UC29
LMNG - -> UC30

LMNG - -> UC31
LMNG - -> UC32
LMNG - -> UC33
LMNG - -> UC34
LMNG - -> UC35

ADM - -> UC21
ADM - -> UC22
ADM - -> UC23
ADM - -> UC24
ADM - -> UC25


@enduml

PlantUML version 1.2022.12(Sun Oct 23 19:12:26 WEST 2022)
(GPL source distribution)
Java Runtime: OpenJDK Runtime Environment
JVM: OpenJDK 64-Bit Server VM
Default Encoding: Cp1252
Language: pt
Country: BR
--></g></svg>