<?xml version="1.0" encoding="UTF-8" standalone="no"?><svg xmlns="http://www.w3.org/2000/svg" xmlns:xlink="http://www.w3.org/1999/xlink" contentScriptType="application/ecmascript" contentStyleType="text/css" height="1996px" preserveAspectRatio="none" style="width:511px;height:1996px;background:#FFFFFF;" version="1.1" viewBox="0 0 511 1996" width="511px" zoomAndPan="magnify"><defs><filter height="300%" id="f3bb7pmx3utke" width="300%" x="-1" y="-1"><feGaussianBlur result="blurOut" stdDeviation="2.0"/><feColorMatrix in="blurOut" result="blurOut2" type="matrix" values="0 0 0 0 0 0 0 0 0 0 0 0 0 0 0 0 0 0 .4 0"/><feOffset dx="4.0" dy="4.0" in="blurOut2" result="blurOut3"/><feBlend in="SourceGraphic" in2="blurOut3" mode="normal"/></filter></defs><g><!--MD5=[e85bd8b7c3eef9e05b8e65fb9224b5e9]
cluster EletricGo--><rect fill="#FFFFFF" filter="url(#f3bb7pmx3utke)" height="1977" style="stroke:#000000;stroke-width:1.5;" width="316" x="183" y="7"/><text fill="#000000" font-family="sans-serif" font-size="14" font-weight="bold" lengthAdjust="spacing" textLength="65" x="308.5" y="23.5332">EletricGo</text><ellipse cx="340.8923" cy="445.8785" fill="#FEFECE" filter="url(#f3bb7pmx3utke)" rx="87.3923" ry="19.8785" style="stroke:#A80036;stroke-width:1.5;"/><text fill="#000000" font-family="sans-serif" font-size="14" lengthAdjust="spacing" textLength="132" x="274.8923" y="449.607">Create a Warehouse</text><ellipse cx="340.8319" cy="531.1664" fill="#FEFECE" filter="url(#f3bb7pmx3utke)" rx="138.8319" ry="30.1664" style="stroke:#A80036;stroke-width:1.5;"/><text fill="#000000" font-family="sans-serif" font-size="14" lengthAdjust="spacing" textLength="245" x="218.3319" y="534.8949">Reade information about a Warehouse</text><ellipse cx="341.1476" cy="626.8295" fill="#FEFECE" filter="url(#f3bb7pmx3utke)" rx="142.1476" ry="30.8295" style="stroke:#A80036;stroke-width:1.5;"/><text fill="#000000" font-family="sans-serif" font-size="14" lengthAdjust="spacing" textLength="248" x="215.1476" y="630.558">Update information about a Warehouse</text><ellipse cx="341.0408" cy="713.2082" fill="#FEFECE" filter="url(#f3bb7pmx3utke)" rx="86.5408" ry="19.7082" style="stroke:#A80036;stroke-width:1.5;"/><text fill="#000000" font-family="sans-serif" font-size="14" lengthAdjust="spacing" textLength="130" x="276.0408" y="716.9367">Delete a Warehouse</text><ellipse cx="341.0408" cy="787.2082" fill="#FEFECE" filter="url(#f3bb7pmx3utke)" rx="86.5408" ry="19.7082" style="stroke:#A80036;stroke-width:1.5;"/><text fill="#000000" font-family="sans-serif" font-size="14" lengthAdjust="spacing" textLength="130" x="276.0408" y="790.9367">List the Warehouses</text><ellipse cx="340.7877" cy="860.0575" fill="#FEFECE" filter="url(#f3bb7pmx3utke)" rx="78.2877" ry="18.0575" style="stroke:#A80036;stroke-width:1.5;"/><text fill="#000000" font-family="sans-serif" font-size="14" lengthAdjust="spacing" textLength="110" x="284.0149" y="864.2774">Create a Delivery</text><ellipse cx="340.9763" cy="941.0953" fill="#FEFECE" filter="url(#f3bb7pmx3utke)" rx="128.4763" ry="28.0953" style="stroke:#A80036;stroke-width:1.5;"/><text fill="#000000" font-family="sans-serif" font-size="14" lengthAdjust="spacing" textLength="223" x="229.4763" y="944.8238">Reade information about a Delivery</text><ellipse cx="341.1384" cy="1032.1277" fill="#FEFECE" filter="url(#f3bb7pmx3utke)" rx="126.1384" ry="27.6277" style="stroke:#A80036;stroke-width:1.5;"/><text fill="#000000" font-family="sans-serif" font-size="14" lengthAdjust="spacing" textLength="214" x="232.1384" y="1035.8562">Update information about Delivery</text><ellipse cx="341.0069" cy="1112.9014" fill="#FEFECE" filter="url(#f3bb7pmx3utke)" rx="77.5069" ry="17.9014" style="stroke:#A80036;stroke-width:1.5;"/><text fill="#000000" font-family="sans-serif" font-size="14" lengthAdjust="spacing" textLength="108" x="284.8567" y="1117.216">Delete a Delivery</text><ellipse cx="341.0785" cy="1184.2157" fill="#FEFECE" filter="url(#f3bb7pmx3utke)" rx="79.0785" ry="18.2157" style="stroke:#A80036;stroke-width:1.5;"/><text fill="#000000" font-family="sans-serif" font-size="14" lengthAdjust="spacing" textLength="112" x="283.6751" y="1188.3395">List the Deliveries</text><ellipse cx="341.1476" cy="1253.9295" fill="#FEFECE" filter="url(#f3bb7pmx3utke)" rx="72.6476" ry="16.9295" style="stroke:#A80036;stroke-width:1.5;"/><text fill="#000000" font-family="sans-serif" font-size="14" lengthAdjust="spacing" textLength="95" x="290.6476" y="1258.4461">Create a Truck</text><ellipse cx="340.9823" cy="1333.1965" fill="#FEFECE" filter="url(#f3bb7pmx3utke)" rx="121.4823" ry="26.6965" style="stroke:#A80036;stroke-width:1.5;"/><text fill="#000000" font-family="sans-serif" font-size="14" lengthAdjust="spacing" textLength="208" x="236.9823" y="1336.925">Reade information about a Truck</text><ellipse cx="340.8167" cy="1420.8633" fill="#FEFECE" filter="url(#f3bb7pmx3utke)" rx="117.3167" ry="25.8633" style="stroke:#A80036;stroke-width:1.5;"/><text fill="#000000" font-family="sans-serif" font-size="14" lengthAdjust="spacing" textLength="199" x="241.3167" y="1424.5919">Update information about Truck</text><ellipse cx="340.9259" cy="1498.7852" fill="#FEFECE" filter="url(#f3bb7pmx3utke)" rx="71.9259" ry="16.7852" style="stroke:#A80036;stroke-width:1.5;"/><text fill="#000000" font-family="sans-serif" font-size="14" lengthAdjust="spacing" textLength="93" x="291.4259" y="1503.3018">Delete a Truck</text><ellipse cx="340.9259" cy="1567.7852" fill="#FEFECE" filter="url(#f3bb7pmx3utke)" rx="71.9259" ry="16.7852" style="stroke:#A80036;stroke-width:1.5;"/><text fill="#000000" font-family="sans-serif" font-size="14" lengthAdjust="spacing" textLength="93" x="291.4259" y="1572.3018">List the Trucks</text><ellipse cx="340.876" cy="1637.0752" fill="#FEFECE" filter="url(#f3bb7pmx3utke)" rx="73.376" ry="17.0752" style="stroke:#A80036;stroke-width:1.5;"/><text fill="#000000" font-family="sans-serif" font-size="14" lengthAdjust="spacing" textLength="97" x="289.376" y="1641.5918">Create a Route</text><ellipse cx="340.9113" cy="1715.8823" fill="#FEFECE" filter="url(#f3bb7pmx3utke)" rx="122.4113" ry="26.8823" style="stroke:#A80036;stroke-width:1.5;"/><text fill="#000000" font-family="sans-serif" font-size="14" lengthAdjust="spacing" textLength="210" x="235.9113" y="1719.6108">Reade information about a Route</text><ellipse cx="341.2402" cy="1804.048" fill="#FEFECE" filter="url(#f3bb7pmx3utke)" rx="118.2402" ry="26.048" style="stroke:#A80036;stroke-width:1.5;"/><text fill="#000000" font-family="sans-serif" font-size="14" lengthAdjust="spacing" textLength="201" x="240.7402" y="1807.7766">Update information about Route</text><ellipse cx="341.1476" cy="1881.9295" fill="#FEFECE" filter="url(#f3bb7pmx3utke)" rx="72.6476" ry="16.9295" style="stroke:#A80036;stroke-width:1.5;"/><text fill="#000000" font-family="sans-serif" font-size="14" lengthAdjust="spacing" textLength="95" x="290.6476" y="1886.4461">Delete a Route</text><ellipse cx="341.1476" cy="1950.9295" fill="#FEFECE" filter="url(#f3bb7pmx3utke)" rx="72.6476" ry="16.9295" style="stroke:#A80036;stroke-width:1.5;"/><text fill="#000000" font-family="sans-serif" font-size="14" lengthAdjust="spacing" textLength="95" x="290.6476" y="1955.4461">List the Routes</text><ellipse cx="341.1476" cy="59.9295" fill="#FEFECE" filter="url(#f3bb7pmx3utke)" rx="72.6476" ry="16.9295" style="stroke:#A80036;stroke-width:1.5;"/><text fill="#000000" font-family="sans-serif" font-size="14" lengthAdjust="spacing" textLength="95" x="290.6476" y="64.4461">Create a Client</text><ellipse cx="340.9823" cy="139.1965" fill="#FEFECE" filter="url(#f3bb7pmx3utke)" rx="121.4823" ry="26.6965" style="stroke:#A80036;stroke-width:1.5;"/><text fill="#000000" font-family="sans-serif" font-size="14" lengthAdjust="spacing" textLength="208" x="236.9823" y="142.925">Reade information about a Client</text><ellipse cx="340.8167" cy="226.8633" fill="#FEFECE" filter="url(#f3bb7pmx3utke)" rx="117.3167" ry="25.8633" style="stroke:#A80036;stroke-width:1.5;"/><text fill="#000000" font-family="sans-serif" font-size="14" lengthAdjust="spacing" textLength="199" x="241.3167" y="230.5919">Update information about Client</text><ellipse cx="340.9259" cy="304.7852" fill="#FEFECE" filter="url(#f3bb7pmx3utke)" rx="71.9259" ry="16.7852" style="stroke:#A80036;stroke-width:1.5;"/><text fill="#000000" font-family="sans-serif" font-size="14" lengthAdjust="spacing" textLength="93" x="291.4259" y="309.3018">Delete a Client</text><ellipse cx="340.9259" cy="373.7852" fill="#FEFECE" filter="url(#f3bb7pmx3utke)" rx="71.9259" ry="16.7852" style="stroke:#A80036;stroke-width:1.5;"/><text fill="#000000" font-family="sans-serif" font-size="14" lengthAdjust="spacing" textLength="93" x="291.4259" y="378.3018">List the Clients</text><!--MD5=[5bb58f447e60c14e9d23282c6a4405f4]
entity ADM--><ellipse cx="72.5" cy="195" fill="#FEFECE" filter="url(#f3bb7pmx3utke)" rx="8" ry="8" style="stroke:#A80036;stroke-width:1.5;"/><path d="M72.5,203 L72.5,230 M59.5,211 L85.5,211 M72.5,230 L59.5,245 M72.5,230 L85.5,245 " fill="none" filter="url(#f3bb7pmx3utke)" style="stroke:#A80036;stroke-width:1.5;"/><text fill="#000000" font-family="sans-serif" font-size="14" lengthAdjust="spacing" textLength="83" x="31" y="265.0332">Administrator</text><!--MD5=[6e3fdb3f3593ee9caf8c0bc1a533234e]
entity MNG--><ellipse cx="72.5" cy="792" fill="#FEFECE" filter="url(#f3bb7pmx3utke)" rx="8" ry="8" style="stroke:#A80036;stroke-width:1.5;"/><path d="M72.5,800 L72.5,827 M59.5,808 L85.5,808 M72.5,827 L59.5,842 M72.5,827 L85.5,842 " fill="none" filter="url(#f3bb7pmx3utke)" style="stroke:#A80036;stroke-width:1.5;"/><text fill="#000000" font-family="sans-serif" font-size="14" lengthAdjust="spacing" textLength="133" x="6" y="862.0332">Warehouse Manager</text><!--MD5=[05104c5f25798aaf974b2e6ba6081c4e]
entity FMNG--><ellipse cx="72.5" cy="1389" fill="#FEFECE" filter="url(#f3bb7pmx3utke)" rx="8" ry="8" style="stroke:#A80036;stroke-width:1.5;"/><path d="M72.5,1397 L72.5,1424 M59.5,1405 L85.5,1405 M72.5,1424 L59.5,1439 M72.5,1424 L85.5,1439 " fill="none" filter="url(#f3bb7pmx3utke)" style="stroke:#A80036;stroke-width:1.5;"/><text fill="#000000" font-family="sans-serif" font-size="14" lengthAdjust="spacing" textLength="92" x="26.5" y="1459.0332">Fleet Manager</text><!--MD5=[d9dc080aa4693f894a317bb84aa3ef5b]
entity LMNG--><ellipse cx="72.5" cy="1772" fill="#FEFECE" filter="url(#f3bb7pmx3utke)" rx="8" ry="8" style="stroke:#A80036;stroke-width:1.5;"/><path d="M72.5,1780 L72.5,1807 M59.5,1788 L85.5,1788 M72.5,1807 L59.5,1822 M72.5,1807 L85.5,1822 " fill="none" filter="url(#f3bb7pmx3utke)" style="stroke:#A80036;stroke-width:1.5;"/><text fill="#000000" font-family="sans-serif" font-size="14" lengthAdjust="spacing" textLength="115" x="15" y="1842.0332">Logistics Manager</text><!--MD5=[dbf8105ee9e089cba4146112f5298c1e]
link MNG to UC1--><path d="M73.19,782.24 C75.05,710.17 89.78,562.56 175,483 C195,464.33 222.31,454.35 248.95,449.21 " fill="none" id="MNG-to-UC1" style="stroke:#A80036;stroke-width:1.0;"/><polygon fill="#A80036" points="253.91,448.3,244.3367,445.9867,248.9918,449.2007,245.7778,453.8559,253.91,448.3" style="stroke:#A80036;stroke-width:1.0;"/><!--MD5=[4297386a56b30642a0de41476c154737]
link MNG to UC2--><path d="M79.35,782.34 C89.25,727.56 114.5,631.98 175,578 C188.61,565.86 205.15,556.83 222.44,550.13 " fill="none" id="MNG-to-UC2" style="stroke:#A80036;stroke-width:1.0;"/><polygon fill="#A80036" points="227.34,548.3,217.5085,547.7148,222.6584,550.0556,220.3175,555.2054,227.34,548.3" style="stroke:#A80036;stroke-width:1.0;"/><!--MD5=[4c81b60d2e65f45fb0644f8723a00b41]
link MNG to UC3--><path d="M92.2,782.37 C109.24,748.97 137.47,703.32 175,676 C190.81,664.49 209.33,655.66 228.13,648.9 " fill="none" id="MNG-to-UC3" style="stroke:#A80036;stroke-width:1.0;"/><polygon fill="#A80036" points="232.91,647.22,223.0936,646.4217,228.1914,648.8737,225.7394,653.9715,232.91,647.22" style="stroke:#A80036;stroke-width:1.0;"/><!--MD5=[f5716777977613183f488d13c5173e1a]
link MNG to UC4--><path d="M122.08,782.38 C138.08,770.42 156.53,758.37 175,750 C201.81,737.86 232.93,729.55 260.87,723.94 " fill="none" id="MNG-to-UC4" style="stroke:#A80036;stroke-width:1.0;"/><polygon fill="#A80036" points="266.05,722.92,256.444,720.7466,261.1455,723.8923,257.9997,728.5938,266.05,722.92" style="stroke:#A80036;stroke-width:1.0;"/><!--MD5=[9dcb2792f13fe08e5e53b781e6b65b13]
link MNG to UC5--><path d="M139.03,814.9 C176.06,809.76 222.58,803.3 261.53,797.89 " fill="none" id="MNG-to-UC5" style="stroke:#A80036;stroke-width:1.0;"/><polygon fill="#A80036" points="266.73,797.17,257.2657,794.4447,261.7774,797.8571,258.365,802.3688,266.73,797.17" style="stroke:#A80036;stroke-width:1.0;"/><!--MD5=[eec3e792577d7c0fb3513d83aeec24c9]
link MNG to UC6--><path d="M139.03,832.85 C177.97,838.11 227.42,844.79 267.52,850.21 " fill="none" id="MNG-to-UC6" style="stroke:#A80036;stroke-width:1.0;"/><polygon fill="#A80036" points="272.86,850.93,264.4783,845.7582,267.9052,850.2589,263.4046,853.6858,272.86,850.93" style="stroke:#A80036;stroke-width:1.0;"/><!--MD5=[13be12238b81e38663ad683843e5b58a]
link MNG to UC7--><path d="M125.68,865.53 C140.94,876.25 158.08,887.01 175,895 C196.47,905.14 220.59,913.42 243.62,920.03 " fill="none" id="MNG-to-UC7" style="stroke:#A80036;stroke-width:1.0;"/><polygon fill="#A80036" points="248.52,921.41,240.9429,915.1181,243.7076,920.0534,238.7723,922.818,248.52,921.41" style="stroke:#A80036;stroke-width:1.0;"/><!--MD5=[28ecde607ef3a8e55d48038d97da7472]
link MNG to UC8--><path d="M89.34,865.73 C105.45,902.66 133.92,955.32 175,986 C191.98,998.69 212.3,1007.87 232.78,1014.53 " fill="none" id="MNG-to-UC8" style="stroke:#A80036;stroke-width:1.0;"/><polygon fill="#A80036" points="237.71,1016.08,230.3239,1009.565,232.9401,1014.5805,227.9247,1017.1968,237.71,1016.08" style="stroke:#A80036;stroke-width:1.0;"/><!--MD5=[1a530b0fea76be6b39f477325ae2cc3c]
link MNG to UC9--><path d="M78.26,865.96 C87,922.67 111.04,1022.9 175,1077 C198.07,1096.51 229.3,1106.15 258.38,1110.7 " fill="none" id="MNG-to-UC9" style="stroke:#A80036;stroke-width:1.0;"/><polygon fill="#A80036" points="263.4,1111.44,255.0795,1106.1703,258.4534,1110.7109,253.9129,1114.0848,263.4,1111.44" style="stroke:#A80036;stroke-width:1.0;"/><!--MD5=[cfee54499cac8fe44d7c32705a113f49]
link MNG to UC10--><path d="M73.92,865.71 C77,935.01 93.68,1073.59 175,1148 C197.08,1168.21 227.8,1178.02 256.74,1182.52 " fill="none" id="MNG-to-UC10" style="stroke:#A80036;stroke-width:1.0;"/><polygon fill="#A80036" points="261.75,1183.25,253.4146,1178.0039,256.8014,1182.5349,252.2704,1185.9217,261.75,1183.25" style="stroke:#A80036;stroke-width:1.0;"/><!--MD5=[3dfd0f639586b9f578fe82aa6ee07e23]
link FMNG to UC11--><path d="M94.93,1379.43 C112.45,1349.64 140.02,1311.03 175,1289 C201.7,1272.18 235.16,1263.32 264.96,1258.7 " fill="none" id="FMNG-to-UC11" style="stroke:#A80036;stroke-width:1.0;"/><polygon fill="#A80036" points="270.09,1257.94,260.6029,1255.2952,265.1434,1258.6691,261.7695,1263.2097,270.09,1257.94" style="stroke:#A80036;stroke-width:1.0;"/><!--MD5=[37665d95dbbc9d6fe1f15790e121d8f1]
link FMNG to UC12--><path d="M118.66,1399.71 C136.04,1391.97 156.23,1383.53 175,1377 C199.94,1368.32 227.49,1360.36 252.83,1353.66 " fill="none" id="FMNG-to-UC12" style="stroke:#A80036;stroke-width:1.0;"/><polygon fill="#A80036" points="257.87,1352.34,248.1525,1350.7366,253.0313,1353.5998,250.1682,1358.4786,257.87,1352.34" style="stroke:#A80036;stroke-width:1.0;"/><!--MD5=[7dcd461a6e0a8c63baa477b0730442d7]
link FMNG to UC13--><path d="M118.71,1421 C146.17,1421 182.66,1421 218.07,1421 " fill="none" id="FMNG-to-UC13" style="stroke:#A80036;stroke-width:1.0;"/><polygon fill="#A80036" points="223.28,1421,214.28,1417,218.28,1421,214.28,1425,223.28,1421" style="stroke:#A80036;stroke-width:1.0;"/><!--MD5=[4e55dd59cd11f4f35a5904f04aaa7583]
link FMNG to UC14--><path d="M118.53,1442.27 C135.9,1449.89 156.11,1458.05 175,1464 C207.74,1474.3 245.09,1482.51 275.97,1488.38 " fill="none" id="FMNG-to-UC14" style="stroke:#A80036;stroke-width:1.0;"/><polygon fill="#A80036" points="281.26,1489.37,273.1592,1483.7685,276.3469,1488.4417,271.6738,1491.6294,281.26,1489.37" style="stroke:#A80036;stroke-width:1.0;"/><!--MD5=[60b8dca2a4acfca0dbd5b5fbb8224afb]
link FMNG to UC15--><path d="M100.94,1462.5 C119.12,1486.72 145.08,1515.8 175,1533 C202.72,1548.94 236.81,1557.65 266.79,1562.39 " fill="none" id="FMNG-to-UC15" style="stroke:#A80036;stroke-width:1.0;"/><polygon fill="#A80036" points="271.95,1563.18,263.6594,1557.8634,267.0076,1562.4229,262.4481,1565.7712,271.95,1563.18" style="stroke:#A80036;stroke-width:1.0;"/><!--MD5=[909ab351b7c04d6b0a824681b2a4c8d1]
link LMNG to UC16--><path d="M94.63,1762.37 C112.09,1732.28 139.71,1693.18 175,1671 C201.34,1654.45 234.27,1645.78 263.77,1641.3 " fill="none" id="LMNG-to-UC16" style="stroke:#A80036;stroke-width:1.0;"/><polygon fill="#A80036" points="268.85,1640.57,259.3715,1637.8945,263.9011,1641.2831,260.5125,1645.8127,268.85,1640.57" style="stroke:#A80036;stroke-width:1.0;"/><!--MD5=[e27d3ccf64a44f89f362a1b06ecc1448]
link LMNG to UC17--><path d="M130.08,1777.71 C144.56,1771.47 160.22,1765.14 175,1760 C199.54,1751.46 226.63,1743.61 251.63,1736.98 " fill="none" id="LMNG-to-UC17" style="stroke:#A80036;stroke-width:1.0;"/><polygon fill="#A80036" points="256.6,1735.67,246.8781,1734.0936,251.7648,1736.9432,248.9152,1741.8299,256.6,1735.67" style="stroke:#A80036;stroke-width:1.0;"/><!--MD5=[8faae149898810744f99869a7eb31a84]
link LMNG to UC18--><path d="M130.02,1804 C155.65,1804 187.04,1804 217.65,1804 " fill="none" id="LMNG-to-UC18" style="stroke:#A80036;stroke-width:1.0;"/><polygon fill="#A80036" points="222.96,1804,213.96,1800,217.96,1804,213.96,1808,222.96,1804" style="stroke:#A80036;stroke-width:1.0;"/><!--MD5=[d83d5c53bf068c9cece26bcf7be6e030]
link LMNG to UC19--><path d="M130.22,1830.29 C144.62,1836.33 160.21,1842.35 175,1847 C207.61,1857.26 244.79,1865.44 275.6,1871.31 " fill="none" id="LMNG-to-UC19" style="stroke:#A80036;stroke-width:1.0;"/><polygon fill="#A80036" points="280.88,1872.3,272.7792,1866.6985,275.9669,1871.3717,271.2938,1874.5594,280.88,1872.3" style="stroke:#A80036;stroke-width:1.0;"/><!--MD5=[0e0ff5ccc4d726b8b73f08b674fb2104]
link LMNG to UC20--><path d="M100.94,1845.5 C119.12,1869.72 145.08,1898.8 175,1916 C202.6,1931.87 236.51,1940.57 266.4,1945.33 " fill="none" id="LMNG-to-UC20" style="stroke:#A80036;stroke-width:1.0;"/><polygon fill="#A80036" points="271.54,1946.12,263.2494,1940.8034,266.5976,1945.3629,262.0381,1948.7112,271.54,1946.12" style="stroke:#A80036;stroke-width:1.0;"/><!--MD5=[ff311a9c3b7793b3816ced15516060f0]
link ADM to UC21--><path d="M94.93,185.43 C112.45,155.64 140.02,117.03 175,95 C201.7,78.18 235.16,69.32 264.96,64.7 " fill="none" id="ADM-to-UC21" style="stroke:#A80036;stroke-width:1.0;"/><polygon fill="#A80036" points="270.09,63.94,260.6029,61.2952,265.1434,64.6691,261.7695,69.2097,270.09,63.94" style="stroke:#A80036;stroke-width:1.0;"/><!--MD5=[f12bd3c970679633d1f6a9612a3146a6]
link ADM to UC22--><path d="M114.43,207.61 C132.72,199.37 154.68,190.07 175,183 C199.94,174.32 227.49,166.36 252.83,159.66 " fill="none" id="ADM-to-UC22" style="stroke:#A80036;stroke-width:1.0;"/><polygon fill="#A80036" points="257.87,158.34,248.1525,156.7366,253.0313,159.5998,250.1682,164.4786,257.87,158.34" style="stroke:#A80036;stroke-width:1.0;"/><!--MD5=[5ba4dc5c0b33c7d554ea7c211a6141b1]
link ADM to UC23--><path d="M114.27,227 C142.24,227 180.96,227 218.43,227 " fill="none" id="ADM-to-UC23" style="stroke:#A80036;stroke-width:1.0;"/><polygon fill="#A80036" points="223.47,227,214.47,223,218.47,227,214.47,231,223.47,227" style="stroke:#A80036;stroke-width:1.0;"/><!--MD5=[9d681beb0fdcd4f497bca6f1f0c839bf]
link ADM to UC24--><path d="M114.31,246.4 C132.57,254.53 154.55,263.57 175,270 C207.74,280.3 245.09,288.51 275.97,294.38 " fill="none" id="ADM-to-UC24" style="stroke:#A80036;stroke-width:1.0;"/><polygon fill="#A80036" points="281.26,295.37,273.1592,289.7685,276.3469,294.4417,271.6738,297.6294,281.26,295.37" style="stroke:#A80036;stroke-width:1.0;"/><!--MD5=[3d26ced15f6ddbc11ae088adbfb8cc82]
link ADM to UC25--><path d="M100.94,268.5 C119.12,292.72 145.08,321.8 175,339 C202.72,354.94 236.81,363.65 266.79,368.39 " fill="none" id="ADM-to-UC25" style="stroke:#A80036;stroke-width:1.0;"/><polygon fill="#A80036" points="271.95,369.18,263.6594,363.8634,267.0076,368.4229,262.4481,371.7712,271.95,369.18" style="stroke:#A80036;stroke-width:1.0;"/><!--MD5=[530efecd298e7c63c8f3b38e4c6e984d]
@startuml

left to right direction
actor "Administrator" as ADM
actor "Warehouse Manager" as MNG
actor "Fleet Manager" as FMNG
actor "Logistics Manager" as LMNG
rectangle EletricGo {

    usecase "Create a Warehouse" as UC1
    usecase "Reade information about a Warehouse" as UC2
    usecase "Update information about a Warehouse " as UC3
    usecase "Delete a Warehouse" as UC4
    usecase "List the Warehouses" as UC5

    usecase "Create a Delivery" as UC6
    usecase "Reade information about a Delivery" as UC7
    usecase "Update information about Delivery " as UC8
    usecase "Delete a Delivery" as UC9
    usecase "List the Deliveries" as UC10

    usecase "Create a Truck" as UC11
    usecase "Reade information about a Truck" as UC12
    usecase "Update information about Truck" as UC13
    usecase "Delete a Truck" as UC14
    usecase "List the Trucks" as UC15

    usecase "Create a Route" as UC16
    usecase "Reade information about a Route" as UC17
    usecase "Update information about Route" as UC18
    usecase "Delete a Route" as UC19
    usecase "List the Routes" as UC20

    usecase "Create a Client" as UC21
    usecase "Reade information about a Client" as UC22
    usecase "Update information about Client" as UC23
    usecase "Delete a Client" as UC24
    usecase "List the Clients" as UC25


}


MNG - -> UC1
MNG - -> UC2
MNG - -> UC3
MNG - -> UC4
MNG - -> UC5

MNG - -> UC6
MNG - -> UC7
MNG - -> UC8
MNG - -> UC9
MNG - -> UC10

FMNG - -> UC11
FMNG - -> UC12
FMNG - -> UC13
FMNG - -> UC14
FMNG - -> UC15

LMNG - -> UC16
LMNG - -> UC17
LMNG - -> UC18
LMNG - -> UC19
LMNG - -> UC20

ADM - -> UC21
ADM - -> UC22
ADM - -> UC23
ADM - -> UC24
ADM - -> UC25


@enduml

PlantUML version 1.2022.1(Tue Feb 01 18:19:58 GMT 2022)
(GPL source distribution)
Java Runtime: OpenJDK Runtime Environment
JVM: OpenJDK 64-Bit Server VM
Default Encoding: Cp1252
Language: pt
Country: BR
--></g></svg>