<?xml version="1.0" encoding="UTF-8" standalone="no"?><svg xmlns="http://www.w3.org/2000/svg" xmlns:xlink="http://www.w3.org/1999/xlink" contentStyleType="text/css" height="1395px" preserveAspectRatio="none" style="width:1929px;height:1395px;background:#FFFFFF;" version="1.1" viewBox="0 0 1929 1395" width="1929px" zoomAndPan="magnify"><defs/><g><rect fill="#FFFFE0" height="1383.6016" style="stroke:#181818;stroke-width:0.5;" width="1590.5" x="319.5" y="6"/><text fill="#000000" font-family="sans-serif" font-size="13" font-weight="bold" lengthAdjust="spacing" textLength="102" x="1063.75" y="19.4951">&lt;&lt;System(C4)&gt;&gt;</text><text fill="#000000" font-family="sans-serif" font-size="13" font-weight="bold" lengthAdjust="spacing" textLength="46" x="1091.75" y="35.8467">System</text><rect fill="#ADD8E6" height="1345.8984" style="stroke:#181818;stroke-width:0.5;" width="1114" x="607" y="43.7031"/><text fill="#000000" font-family="sans-serif" font-size="13" font-weight="bold" lengthAdjust="spacing" textLength="118" x="1105" y="57.1982">&lt;&lt;Container(C4)&gt;&gt;</text><text fill="#000000" font-family="sans-serif" font-size="13" font-weight="bold" lengthAdjust="spacing" textLength="55" x="1133" y="73.5498">Logistics</text><rect fill="none" height="929.8672" style="stroke:#000000;stroke-width:1.5;" width="1872.5" x="49.5" y="352.125"/><line style="stroke:#181818;stroke-width:0.5;stroke-dasharray:5.0,5.0;" x1="65.5" x2="65.5" y1="158.0156" y2="1305.9922"/><line style="stroke:#181818;stroke-width:0.5;stroke-dasharray:5.0,5.0;" x1="383.5" x2="383.5" y1="158.0156" y2="1305.9922"/><rect fill="#FFFFFF" height="30.3516" style="stroke:#181818;stroke-width:1.0;" width="10" x="378.5" y="188.3672"/><rect fill="#FFFFFF" height="1051.9219" style="stroke:#181818;stroke-width:1.0;" width="10" x="378.5" y="249.0703"/><line style="stroke:#181818;stroke-width:0.5;stroke-dasharray:5.0,5.0;" x1="676.5" x2="676.5" y1="158.0156" y2="1305.9922"/><rect fill="#FFFFFF" height="964.2188" style="stroke:#181818;stroke-width:1.0;" width="10" x="671.5" y="279.4219"/><line style="stroke:#181818;stroke-width:0.5;stroke-dasharray:5.0,5.0;" x1="969.5" x2="969.5" y1="158.0156" y2="1305.9922"/><rect fill="#FFFFFF" height="903.5156" style="stroke:#181818;stroke-width:1.0;" width="10" x="964.5" y="309.7734"/><line style="stroke:#181818;stroke-width:0.5;stroke-dasharray:5.0,5.0;" x1="1202.5" x2="1202.5" y1="158.0156" y2="1305.9922"/><rect fill="#FFFFFF" height="602.5156" style="stroke:#181818;stroke-width:1.0;" width="10" x="1197.5" y="433.1797"/><line style="stroke:#181818;stroke-width:0.5;stroke-dasharray:5.0,5.0;" x1="1457.5" x2="1457.5" y1="158.0156" y2="1305.9922"/><rect fill="#FFFFFF" height="541.8125" style="stroke:#181818;stroke-width:1.0;" width="10" x="1452.5" y="463.5313"/><line style="stroke:#181818;stroke-width:0.5;stroke-dasharray:5.0,5.0;" x1="1651.5" x2="1651.5" y1="158.0156" y2="1305.9922"/><rect fill="#FFFFFF" height="481.1094" style="stroke:#181818;stroke-width:1.0;" width="10" x="1646.5" y="493.8828"/><line style="stroke:#181818;stroke-width:0.5;stroke-dasharray:5.0,5.0;" x1="1821.5" x2="1821.5" y1="158.0156" y2="1305.9922"/><rect fill="#FFFFFF" height="842.8125" style="stroke:#181818;stroke-width:1.0;" width="10" x="1816.5" y="340.125"/><text fill="#000000" font-family="sans-serif" font-size="14" lengthAdjust="spacing" textLength="115" x="5" y="154.9395">Logistics Manager</text><ellipse cx="65.5" cy="88.9063" fill="#E2E2F0" rx="8" ry="8" style="stroke:#181818;stroke-width:0.5;"/><path d="M65.5,96.9063 L65.5,123.9063 M52.5,104.9063 L78.5,104.9063 M65.5,123.9063 L52.5,138.9063 M65.5,123.9063 L78.5,138.9063 " fill="none" style="stroke:#181818;stroke-width:0.5;"/><rect fill="#FFFFFF" height="49.2188" rx="2.5" ry="2.5" style="stroke:#000000;stroke-width:0.5;" width="120" x="323.5" y="107.7969"/><text fill="#000000" font-family="sans-serif" font-size="14" font-style="italic" lengthAdjust="spacing" textLength="106" x="330.5" y="129.3301">«Container(C4)»</text><text fill="#000000" font-family="sans-serif" font-size="14" lengthAdjust="spacing" textLength="27" x="370" y="146.9395">SPA</text><rect fill="#FFFFFF" height="49.2188" rx="2.5" ry="2.5" style="stroke:#000000;stroke-width:0.5;" width="131" x="611" y="107.7969"/><text fill="#000000" font-family="sans-serif" font-size="14" font-style="italic" lengthAdjust="spacing" textLength="117" x="618" y="129.3301">«Component(C4)»</text><text fill="#000000" font-family="sans-serif" font-size="14" lengthAdjust="spacing" textLength="104" x="624.5" y="146.9395">PackagingRoute</text><rect fill="#FFFFFF" height="49.2188" rx="2.5" ry="2.5" style="stroke:#000000;stroke-width:0.5;" width="142" x="898.5" y="107.7969"/><text fill="#000000" font-family="sans-serif" font-size="14" font-style="italic" lengthAdjust="spacing" textLength="117" x="911" y="129.3301">«Component(C4)»</text><text fill="#000000" font-family="sans-serif" font-size="14" lengthAdjust="spacing" textLength="128" x="905.5" y="146.9395">PackagingController</text><rect fill="#FFFFFF" height="49.2188" rx="2.5" ry="2.5" style="stroke:#000000;stroke-width:0.5;" width="131" x="1137" y="107.7969"/><text fill="#000000" font-family="sans-serif" font-size="14" font-style="italic" lengthAdjust="spacing" textLength="117" x="1144" y="129.3301">«Component(C4)»</text><text fill="#000000" font-family="sans-serif" font-size="14" lengthAdjust="spacing" textLength="113" x="1146" y="146.9395">PackagingService</text><rect fill="#FFFFFF" height="49.2188" rx="2.5" ry="2.5" style="stroke:#000000;stroke-width:0.5;" width="148" x="1383.5" y="107.7969"/><text fill="#000000" font-family="sans-serif" font-size="14" font-style="italic" lengthAdjust="spacing" textLength="117" x="1399" y="129.3301">«Component(C4)»</text><text fill="#000000" font-family="sans-serif" font-size="14" lengthAdjust="spacing" textLength="134" x="1390.5" y="146.9395">PackagingRepository</text><rect fill="#FFFFFF" height="49.2188" rx="2.5" ry="2.5" style="stroke:#000000;stroke-width:0.5;" width="131" x="1586" y="107.7969"/><text fill="#000000" font-family="sans-serif" font-size="14" font-style="italic" lengthAdjust="spacing" textLength="117" x="1593" y="129.3301">«Component(C4)»</text><text fill="#000000" font-family="sans-serif" font-size="14" lengthAdjust="spacing" textLength="74" x="1614.5" y="146.9395">Persistence</text><rect fill="#FFFFFF" height="49.2188" rx="2.5" ry="2.5" style="stroke:#000000;stroke-width:0.5;" width="169" x="1737" y="107.7969"/><text fill="#000000" font-family="sans-serif" font-size="14" font-style="italic" lengthAdjust="spacing" textLength="106" x="1768.5" y="129.3301">«Container(C4)»</text><text fill="#000000" font-family="sans-serif" font-size="14" lengthAdjust="spacing" textLength="155" x="1744" y="146.9395">WarehouseManagement</text><text fill="#000000" font-family="sans-serif" font-size="14" lengthAdjust="spacing" textLength="115" x="5" y="1380.5254">Logistics Manager</text><ellipse cx="65.5" cy="1314.4922" fill="#E2E2F0" rx="8" ry="8" style="stroke:#181818;stroke-width:0.5;"/><path d="M65.5,1322.4922 L65.5,1349.4922 M52.5,1330.4922 L78.5,1330.4922 M65.5,1349.4922 L52.5,1364.4922 M65.5,1349.4922 L78.5,1364.4922 " fill="none" style="stroke:#181818;stroke-width:0.5;"/><rect fill="#FFFFFF" height="49.2188" rx="2.5" ry="2.5" style="stroke:#000000;stroke-width:0.5;" width="120" x="323.5" y="1305.9922"/><text fill="#000000" font-family="sans-serif" font-size="14" font-style="italic" lengthAdjust="spacing" textLength="106" x="330.5" y="1327.5254">«Container(C4)»</text><text fill="#000000" font-family="sans-serif" font-size="14" lengthAdjust="spacing" textLength="27" x="370" y="1345.1348">SPA</text><rect fill="#FFFFFF" height="49.2188" rx="2.5" ry="2.5" style="stroke:#000000;stroke-width:0.5;" width="131" x="611" y="1305.9922"/><text fill="#000000" font-family="sans-serif" font-size="14" font-style="italic" lengthAdjust="spacing" textLength="117" x="618" y="1327.5254">«Component(C4)»</text><text fill="#000000" font-family="sans-serif" font-size="14" lengthAdjust="spacing" textLength="104" x="624.5" y="1345.1348">PackagingRoute</text><rect fill="#FFFFFF" height="49.2188" rx="2.5" ry="2.5" style="stroke:#000000;stroke-width:0.5;" width="142" x="898.5" y="1305.9922"/><text fill="#000000" font-family="sans-serif" font-size="14" font-style="italic" lengthAdjust="spacing" textLength="117" x="911" y="1327.5254">«Component(C4)»</text><text fill="#000000" font-family="sans-serif" font-size="14" lengthAdjust="spacing" textLength="128" x="905.5" y="1345.1348">PackagingController</text><rect fill="#FFFFFF" height="49.2188" rx="2.5" ry="2.5" style="stroke:#000000;stroke-width:0.5;" width="131" x="1137" y="1305.9922"/><text fill="#000000" font-family="sans-serif" font-size="14" font-style="italic" lengthAdjust="spacing" textLength="117" x="1144" y="1327.5254">«Component(C4)»</text><text fill="#000000" font-family="sans-serif" font-size="14" lengthAdjust="spacing" textLength="113" x="1146" y="1345.1348">PackagingService</text><rect fill="#FFFFFF" height="49.2188" rx="2.5" ry="2.5" style="stroke:#000000;stroke-width:0.5;" width="148" x="1383.5" y="1305.9922"/><text fill="#000000" font-family="sans-serif" font-size="14" font-style="italic" lengthAdjust="spacing" textLength="117" x="1399" y="1327.5254">«Component(C4)»</text><text fill="#000000" font-family="sans-serif" font-size="14" lengthAdjust="spacing" textLength="134" x="1390.5" y="1345.1348">PackagingRepository</text><rect fill="#FFFFFF" height="49.2188" rx="2.5" ry="2.5" style="stroke:#000000;stroke-width:0.5;" width="131" x="1586" y="1305.9922"/><text fill="#000000" font-family="sans-serif" font-size="14" font-style="italic" lengthAdjust="spacing" textLength="117" x="1593" y="1327.5254">«Component(C4)»</text><text fill="#000000" font-family="sans-serif" font-size="14" lengthAdjust="spacing" textLength="74" x="1614.5" y="1345.1348">Persistence</text><rect fill="#FFFFFF" height="49.2188" rx="2.5" ry="2.5" style="stroke:#000000;stroke-width:0.5;" width="169" x="1737" y="1305.9922"/><text fill="#000000" font-family="sans-serif" font-size="14" font-style="italic" lengthAdjust="spacing" textLength="106" x="1768.5" y="1327.5254">«Container(C4)»</text><text fill="#000000" font-family="sans-serif" font-size="14" lengthAdjust="spacing" textLength="155" x="1744" y="1345.1348">WarehouseManagement</text><polygon fill="#181818" points="366.5,184.3672,376.5,188.3672,366.5,192.3672,370.5,188.3672" style="stroke:#181818;stroke-width:1.0;"/><line style="stroke:#181818;stroke-width:1.0;" x1="65.5" x2="372.5" y1="188.3672" y2="188.3672"/><text fill="#000000" font-family="sans-serif" font-size="13" font-weight="bold" lengthAdjust="spacing" textLength="7" x="72.5" y="183.5107">1</text><text fill="#000000" font-family="sans-serif" font-size="13" lengthAdjust="spacing" textLength="192" x="83.5" y="183.5107">I want to create a new Packaging</text><polygon fill="#181818" points="76.5,214.7188,66.5,218.7188,76.5,222.7188,72.5,218.7188" style="stroke:#181818;stroke-width:1.0;"/><line style="stroke:#181818;stroke-width:1.0;" x1="70.5" x2="377.5" y1="218.7188" y2="218.7188"/><text fill="#000000" font-family="sans-serif" font-size="13" font-weight="bold" lengthAdjust="spacing" textLength="7" x="82.5" y="213.8623">2</text><text fill="#000000" font-family="sans-serif" font-size="13" lengthAdjust="spacing" textLength="242" x="93.5" y="213.8623">asks for the details on the new Packaging</text><polygon fill="#181818" points="366.5,245.0703,376.5,249.0703,366.5,253.0703,370.5,249.0703" style="stroke:#181818;stroke-width:1.0;"/><line style="stroke:#181818;stroke-width:1.0;" x1="65.5" x2="372.5" y1="249.0703" y2="249.0703"/><text fill="#000000" font-family="sans-serif" font-size="13" font-weight="bold" lengthAdjust="spacing" textLength="7" x="72.5" y="244.2139">3</text><text fill="#000000" font-family="sans-serif" font-size="13" lengthAdjust="spacing" textLength="278" x="83.5" y="244.2139">inserts the information about the new Packaging</text><polygon fill="#181818" points="659.5,275.4219,669.5,279.4219,659.5,283.4219,663.5,279.4219" style="stroke:#181818;stroke-width:1.0;"/><line style="stroke:#181818;stroke-width:1.0;" x1="388.5" x2="665.5" y1="279.4219" y2="279.4219"/><text fill="#000000" font-family="sans-serif" font-size="13" font-weight="bold" lengthAdjust="spacing" textLength="7" x="395.5" y="274.5654">4</text><text fill="#000000" font-family="sans-serif" font-size="13" lengthAdjust="spacing" textLength="225" x="406.5" y="274.5654">POST createPackaging(PackagingInfo)</text><polygon fill="#181818" points="952.5,305.7734,962.5,309.7734,952.5,313.7734,956.5,309.7734" style="stroke:#181818;stroke-width:1.0;"/><line style="stroke:#181818;stroke-width:1.0;" x1="681.5" x2="958.5" y1="309.7734" y2="309.7734"/><text fill="#000000" font-family="sans-serif" font-size="13" font-weight="bold" lengthAdjust="spacing" textLength="7" x="688.5" y="304.917">5</text><text fill="#000000" font-family="sans-serif" font-size="13" lengthAdjust="spacing" textLength="225" x="699.5" y="304.917">POST createPackaging(PackagingInfo)</text><polygon fill="#181818" points="1804.5,336.125,1814.5,340.125,1804.5,344.125,1808.5,340.125" style="stroke:#181818;stroke-width:1.0;"/><line style="stroke:#181818;stroke-width:1.0;" x1="974.5" x2="1810.5" y1="340.125" y2="340.125"/><text fill="#000000" font-family="sans-serif" font-size="13" font-weight="bold" lengthAdjust="spacing" textLength="7" x="981.5" y="335.2686">6</text><text fill="#000000" font-family="sans-serif" font-size="13" lengthAdjust="spacing" textLength="182" x="992.5" y="335.2686">GET exiestsDelivery(DeliveryID)</text><path d="M49.5,352.125 L110.5,352.125 L110.5,360.4766 L100.5,370.4766 L49.5,370.4766 L49.5,352.125 " fill="#EEEEEE" style="stroke:#000000;stroke-width:1.5;"/><rect fill="none" height="929.8672" style="stroke:#000000;stroke-width:1.5;" width="1872.5" x="49.5" y="352.125"/><text fill="#000000" font-family="sans-serif" font-size="13" font-weight="bold" lengthAdjust="spacing" textLength="16" x="64.5" y="366.6201">alt</text><text fill="#000000" font-family="sans-serif" font-size="11" font-weight="bold" lengthAdjust="spacing" textLength="246" x="125.5" y="365.5439">[Packaging doesn't exist and Delivery exists]</text><line style="stroke:#000000;stroke-width:1.0;stroke-dasharray:2.0,2.0;" x1="49.5" x2="1922" y1="816.3984" y2="816.3984"/><text fill="#000000" font-family="sans-serif" font-size="11" font-weight="bold" lengthAdjust="spacing" textLength="251" x="54.5" y="827.8174">[Packaging already exists and Delivery exists]</text><line style="stroke:#000000;stroke-width:1.0;stroke-dasharray:2.0,2.0;" x1="49.5" x2="1922" y1="1145.75" y2="1145.75"/><text fill="#000000" font-family="sans-serif" font-size="11" font-weight="bold" lengthAdjust="spacing" textLength="127" x="54.5" y="1157.1689">[Delivery doesn't exist]</text><polygon fill="#181818" points="985.5,398.8281,975.5,402.8281,985.5,406.8281,981.5,402.8281" style="stroke:#181818;stroke-width:1.0;"/><line style="stroke:#181818;stroke-width:1.0;" x1="979.5" x2="1815.5" y1="402.8281" y2="402.8281"/><text fill="#000000" font-family="sans-serif" font-size="13" font-weight="bold" lengthAdjust="spacing" textLength="7" x="991.5" y="397.9717">7</text><text fill="#000000" font-family="sans-serif" font-size="13" lengthAdjust="spacing" textLength="44" x="1002.5" y="397.9717">200 OK</text><polygon fill="#181818" points="1185.5,429.1797,1195.5,433.1797,1185.5,437.1797,1189.5,433.1797" style="stroke:#181818;stroke-width:1.0;"/><line style="stroke:#181818;stroke-width:1.0;" x1="974.5" x2="1191.5" y1="433.1797" y2="433.1797"/><text fill="#000000" font-family="sans-serif" font-size="13" font-weight="bold" lengthAdjust="spacing" textLength="7" x="981.5" y="428.3232">8</text><text fill="#000000" font-family="sans-serif" font-size="13" lengthAdjust="spacing" textLength="186" x="992.5" y="428.3232">createPackaging(PackagingInfo)</text><polygon fill="#181818" points="1440.5,459.5313,1450.5,463.5313,1440.5,467.5313,1444.5,463.5313" style="stroke:#181818;stroke-width:1.0;"/><line style="stroke:#181818;stroke-width:1.0;" x1="1207.5" x2="1446.5" y1="463.5313" y2="463.5313"/><text fill="#000000" font-family="sans-serif" font-size="13" font-weight="bold" lengthAdjust="spacing" textLength="7" x="1214.5" y="458.6748">9</text><text fill="#000000" font-family="sans-serif" font-size="13" lengthAdjust="spacing" textLength="208" x="1225.5" y="458.6748">getPackagingById(PackagingInfo.id)</text><polygon fill="#181818" points="1634.5,489.8828,1644.5,493.8828,1634.5,497.8828,1638.5,493.8828" style="stroke:#181818;stroke-width:1.0;"/><line style="stroke:#181818;stroke-width:1.0;" x1="1462.5" x2="1640.5" y1="493.8828" y2="493.8828"/><text fill="#000000" font-family="sans-serif" font-size="13" font-weight="bold" lengthAdjust="spacing" textLength="14" x="1469.5" y="489.0264">10</text><text fill="#000000" font-family="sans-serif" font-size="13" lengthAdjust="spacing" textLength="147" x="1487.5" y="489.0264">findOne(PackagingInfo.id)</text><polygon fill="#181818" points="1473.5,520.2344,1463.5,524.2344,1473.5,528.2344,1469.5,524.2344" style="stroke:#181818;stroke-width:1.0;"/><line style="stroke:#181818;stroke-width:1.0;stroke-dasharray:2.0,2.0;" x1="1467.5" x2="1645.5" y1="524.2344" y2="524.2344"/><text fill="#000000" font-family="sans-serif" font-size="13" font-weight="bold" lengthAdjust="spacing" textLength="14" x="1479.5" y="519.3779">11</text><text fill="#000000" font-family="sans-serif" font-size="13" lengthAdjust="spacing" textLength="20" x="1497.5" y="519.3779">null</text><polygon fill="#181818" points="1218.5,550.5859,1208.5,554.5859,1218.5,558.5859,1214.5,554.5859" style="stroke:#181818;stroke-width:1.0;"/><line style="stroke:#181818;stroke-width:1.0;stroke-dasharray:2.0,2.0;" x1="1212.5" x2="1451.5" y1="554.5859" y2="554.5859"/><text fill="#000000" font-family="sans-serif" font-size="13" font-weight="bold" lengthAdjust="spacing" textLength="14" x="1224.5" y="549.7295">12</text><text fill="#000000" font-family="sans-serif" font-size="13" lengthAdjust="spacing" textLength="20" x="1242.5" y="549.7295">null</text><polygon fill="#181818" points="1440.5,580.9375,1450.5,584.9375,1440.5,588.9375,1444.5,584.9375" style="stroke:#181818;stroke-width:1.0;"/><line style="stroke:#181818;stroke-width:1.0;" x1="1207.5" x2="1446.5" y1="584.9375" y2="584.9375"/><text fill="#000000" font-family="sans-serif" font-size="13" font-weight="bold" lengthAdjust="spacing" textLength="14" x="1214.5" y="580.0811">13</text><text fill="#000000" font-family="sans-serif" font-size="13" lengthAdjust="spacing" textLength="115" x="1232.5" y="580.0811">save(PackagingInfo)</text><polygon fill="#181818" points="1634.5,611.2891,1644.5,615.2891,1634.5,619.2891,1638.5,615.2891" style="stroke:#181818;stroke-width:1.0;"/><line style="stroke:#181818;stroke-width:1.0;" x1="1462.5" x2="1640.5" y1="615.2891" y2="615.2891"/><text fill="#000000" font-family="sans-serif" font-size="13" font-weight="bold" lengthAdjust="spacing" textLength="14" x="1469.5" y="610.4326">14</text><text fill="#000000" font-family="sans-serif" font-size="13" lengthAdjust="spacing" textLength="115" x="1487.5" y="610.4326">save(PackagingInfo)</text><polygon fill="#181818" points="1473.5,641.6406,1463.5,645.6406,1473.5,649.6406,1469.5,645.6406" style="stroke:#181818;stroke-width:1.0;"/><line style="stroke:#181818;stroke-width:1.0;stroke-dasharray:2.0,2.0;" x1="1467.5" x2="1645.5" y1="645.6406" y2="645.6406"/><text fill="#000000" font-family="sans-serif" font-size="13" font-weight="bold" lengthAdjust="spacing" textLength="14" x="1479.5" y="640.7842">15</text><text fill="#000000" font-family="sans-serif" font-size="13" lengthAdjust="spacing" textLength="22" x="1497.5" y="640.7842">true</text><polygon fill="#181818" points="1218.5,671.9922,1208.5,675.9922,1218.5,679.9922,1214.5,675.9922" style="stroke:#181818;stroke-width:1.0;"/><line style="stroke:#181818;stroke-width:1.0;stroke-dasharray:2.0,2.0;" x1="1212.5" x2="1451.5" y1="675.9922" y2="675.9922"/><text fill="#000000" font-family="sans-serif" font-size="13" font-weight="bold" lengthAdjust="spacing" textLength="14" x="1224.5" y="671.1357">16</text><text fill="#000000" font-family="sans-serif" font-size="13" lengthAdjust="spacing" textLength="81" x="1242.5" y="671.1357">PackagingInfo</text><polygon fill="#181818" points="985.5,702.3438,975.5,706.3438,985.5,710.3438,981.5,706.3438" style="stroke:#181818;stroke-width:1.0;"/><line style="stroke:#181818;stroke-width:1.0;stroke-dasharray:2.0,2.0;" x1="979.5" x2="1196.5" y1="706.3438" y2="706.3438"/><text fill="#000000" font-family="sans-serif" font-size="13" font-weight="bold" lengthAdjust="spacing" textLength="14" x="991.5" y="701.4873">17</text><text fill="#000000" font-family="sans-serif" font-size="13" lengthAdjust="spacing" textLength="81" x="1009.5" y="701.4873">PackagingInfo</text><polygon fill="#181818" points="692.5,732.6953,682.5,736.6953,692.5,740.6953,688.5,736.6953" style="stroke:#181818;stroke-width:1.0;"/><line style="stroke:#181818;stroke-width:1.0;stroke-dasharray:2.0,2.0;" x1="686.5" x2="963.5" y1="736.6953" y2="736.6953"/><text fill="#000000" font-family="sans-serif" font-size="13" font-weight="bold" lengthAdjust="spacing" textLength="14" x="698.5" y="731.8389">18</text><text fill="#000000" font-family="sans-serif" font-size="13" lengthAdjust="spacing" textLength="183" x="716.5" y="731.8389">201 CREATED + PackagingInfo</text><polygon fill="#181818" points="399.5,763.0469,389.5,767.0469,399.5,771.0469,395.5,767.0469" style="stroke:#181818;stroke-width:1.0;"/><line style="stroke:#181818;stroke-width:1.0;stroke-dasharray:2.0,2.0;" x1="393.5" x2="670.5" y1="767.0469" y2="767.0469"/><text fill="#000000" font-family="sans-serif" font-size="13" font-weight="bold" lengthAdjust="spacing" textLength="14" x="405.5" y="762.1904">19</text><text fill="#000000" font-family="sans-serif" font-size="13" lengthAdjust="spacing" textLength="86" x="423.5" y="762.1904">201 CREATED</text><polygon fill="#181818" points="76.5,793.3984,66.5,797.3984,76.5,801.3984,72.5,797.3984" style="stroke:#181818;stroke-width:1.0;"/><line style="stroke:#181818;stroke-width:1.0;stroke-dasharray:2.0,2.0;" x1="70.5" x2="377.5" y1="797.3984" y2="797.3984"/><text fill="#000000" font-family="sans-serif" font-size="13" font-weight="bold" lengthAdjust="spacing" textLength="14" x="82.5" y="792.542">20</text><text fill="#000000" font-family="sans-serif" font-size="13" lengthAdjust="spacing" textLength="239" x="100.5" y="792.542">informs about the success of the creation</text><polygon fill="#181818" points="985.5,849.5859,975.5,853.5859,985.5,857.5859,981.5,853.5859" style="stroke:#181818;stroke-width:1.0;"/><line style="stroke:#181818;stroke-width:1.0;" x1="979.5" x2="1815.5" y1="853.5859" y2="853.5859"/><text fill="#000000" font-family="sans-serif" font-size="13" font-weight="bold" lengthAdjust="spacing" textLength="14" x="991.5" y="848.7295">21</text><text fill="#000000" font-family="sans-serif" font-size="13" lengthAdjust="spacing" textLength="44" x="1009.5" y="848.7295">200 OK</text><polygon fill="#181818" points="1185.5,879.9375,1195.5,883.9375,1185.5,887.9375,1189.5,883.9375" style="stroke:#181818;stroke-width:1.0;"/><line style="stroke:#181818;stroke-width:1.0;" x1="974.5" x2="1191.5" y1="883.9375" y2="883.9375"/><text fill="#000000" font-family="sans-serif" font-size="13" font-weight="bold" lengthAdjust="spacing" textLength="14" x="981.5" y="879.0811">22</text><text fill="#000000" font-family="sans-serif" font-size="13" lengthAdjust="spacing" textLength="186" x="999.5" y="879.0811">createPackaging(PackagingInfo)</text><polygon fill="#181818" points="1440.5,910.2891,1450.5,914.2891,1440.5,918.2891,1444.5,914.2891" style="stroke:#181818;stroke-width:1.0;"/><line style="stroke:#181818;stroke-width:1.0;" x1="1207.5" x2="1446.5" y1="914.2891" y2="914.2891"/><text fill="#000000" font-family="sans-serif" font-size="13" font-weight="bold" lengthAdjust="spacing" textLength="14" x="1214.5" y="909.4326">23</text><text fill="#000000" font-family="sans-serif" font-size="13" lengthAdjust="spacing" textLength="208" x="1232.5" y="909.4326">getPackagingById(PackagingInfo.id)</text><polygon fill="#181818" points="1634.5,940.6406,1644.5,944.6406,1634.5,948.6406,1638.5,944.6406" style="stroke:#181818;stroke-width:1.0;"/><line style="stroke:#181818;stroke-width:1.0;" x1="1462.5" x2="1640.5" y1="944.6406" y2="944.6406"/><text fill="#000000" font-family="sans-serif" font-size="13" font-weight="bold" lengthAdjust="spacing" textLength="14" x="1469.5" y="939.7842">24</text><text fill="#000000" font-family="sans-serif" font-size="13" lengthAdjust="spacing" textLength="147" x="1487.5" y="939.7842">findOne(PackagingInfo.id)</text><polygon fill="#181818" points="1473.5,970.9922,1463.5,974.9922,1473.5,978.9922,1469.5,974.9922" style="stroke:#181818;stroke-width:1.0;"/><line style="stroke:#181818;stroke-width:1.0;stroke-dasharray:2.0,2.0;" x1="1467.5" x2="1645.5" y1="974.9922" y2="974.9922"/><text fill="#000000" font-family="sans-serif" font-size="13" font-weight="bold" lengthAdjust="spacing" textLength="14" x="1479.5" y="970.1357">25</text><text fill="#000000" font-family="sans-serif" font-size="13" lengthAdjust="spacing" textLength="61" x="1497.5" y="970.1357">Packaging</text><polygon fill="#181818" points="1218.5,1001.3438,1208.5,1005.3438,1218.5,1009.3438,1214.5,1005.3438" style="stroke:#181818;stroke-width:1.0;"/><line style="stroke:#181818;stroke-width:1.0;stroke-dasharray:2.0,2.0;" x1="1212.5" x2="1451.5" y1="1005.3438" y2="1005.3438"/><text fill="#000000" font-family="sans-serif" font-size="13" font-weight="bold" lengthAdjust="spacing" textLength="14" x="1224.5" y="1000.4873">26</text><text fill="#000000" font-family="sans-serif" font-size="13" lengthAdjust="spacing" textLength="61" x="1242.5" y="1000.4873">Packaging</text><polygon fill="#181818" points="985.5,1031.6953,975.5,1035.6953,985.5,1039.6953,981.5,1035.6953" style="stroke:#181818;stroke-width:1.0;"/><line style="stroke:#181818;stroke-width:1.0;stroke-dasharray:2.0,2.0;" x1="979.5" x2="1196.5" y1="1035.6953" y2="1035.6953"/><text fill="#000000" font-family="sans-serif" font-size="13" font-weight="bold" lengthAdjust="spacing" textLength="14" x="991.5" y="1030.8389">27</text><text fill="#000000" font-family="sans-serif" font-size="13" lengthAdjust="spacing" textLength="180" x="1009.5" y="1030.8389">error, Packaging already exists</text><polygon fill="#181818" points="692.5,1062.0469,682.5,1066.0469,692.5,1070.0469,688.5,1066.0469" style="stroke:#181818;stroke-width:1.0;"/><line style="stroke:#181818;stroke-width:1.0;stroke-dasharray:2.0,2.0;" x1="686.5" x2="963.5" y1="1066.0469" y2="1066.0469"/><text fill="#000000" font-family="sans-serif" font-size="13" font-weight="bold" lengthAdjust="spacing" textLength="14" x="698.5" y="1061.1904">28</text><text fill="#000000" font-family="sans-serif" font-size="13" lengthAdjust="spacing" textLength="241" x="716.5" y="1061.1904">409 CONFLICT, Packaging already exists</text><polygon fill="#181818" points="399.5,1092.3984,389.5,1096.3984,399.5,1100.3984,395.5,1096.3984" style="stroke:#181818;stroke-width:1.0;"/><line style="stroke:#181818;stroke-width:1.0;stroke-dasharray:2.0,2.0;" x1="393.5" x2="670.5" y1="1096.3984" y2="1096.3984"/><text fill="#000000" font-family="sans-serif" font-size="13" font-weight="bold" lengthAdjust="spacing" textLength="14" x="405.5" y="1091.542">29</text><text fill="#000000" font-family="sans-serif" font-size="13" lengthAdjust="spacing" textLength="241" x="423.5" y="1091.542">409 CONFLICT, Packaging already exists</text><polygon fill="#181818" points="76.5,1122.75,66.5,1126.75,76.5,1130.75,72.5,1126.75" style="stroke:#181818;stroke-width:1.0;"/><line style="stroke:#181818;stroke-width:1.0;stroke-dasharray:2.0,2.0;" x1="70.5" x2="377.5" y1="1126.75" y2="1126.75"/><text fill="#000000" font-family="sans-serif" font-size="13" font-weight="bold" lengthAdjust="spacing" textLength="14" x="82.5" y="1121.8936">30</text><text fill="#000000" font-family="sans-serif" font-size="13" lengthAdjust="spacing" textLength="224" x="100.5" y="1121.8936">informs about the failure of the creation</text><polygon fill="#181818" points="985.5,1178.9375,975.5,1182.9375,985.5,1186.9375,981.5,1182.9375" style="stroke:#181818;stroke-width:1.0;"/><line style="stroke:#181818;stroke-width:1.0;" x1="979.5" x2="1815.5" y1="1182.9375" y2="1182.9375"/><text fill="#000000" font-family="sans-serif" font-size="13" font-weight="bold" lengthAdjust="spacing" textLength="14" x="991.5" y="1178.0811">31</text><text fill="#000000" font-family="sans-serif" font-size="13" lengthAdjust="spacing" textLength="100" x="1009.5" y="1178.0811">404 NOT FOUND</text><polygon fill="#181818" points="692.5,1209.2891,682.5,1213.2891,692.5,1217.2891,688.5,1213.2891" style="stroke:#181818;stroke-width:1.0;"/><line style="stroke:#181818;stroke-width:1.0;" x1="686.5" x2="963.5" y1="1213.2891" y2="1213.2891"/><text fill="#000000" font-family="sans-serif" font-size="13" font-weight="bold" lengthAdjust="spacing" textLength="14" x="698.5" y="1208.4326">32</text><text fill="#000000" font-family="sans-serif" font-size="13" lengthAdjust="spacing" textLength="100" x="716.5" y="1208.4326">404 NOT FOUND</text><polygon fill="#181818" points="399.5,1239.6406,389.5,1243.6406,399.5,1247.6406,395.5,1243.6406" style="stroke:#181818;stroke-width:1.0;"/><line style="stroke:#181818;stroke-width:1.0;stroke-dasharray:2.0,2.0;" x1="393.5" x2="670.5" y1="1243.6406" y2="1243.6406"/><text fill="#000000" font-family="sans-serif" font-size="13" font-weight="bold" lengthAdjust="spacing" textLength="14" x="405.5" y="1238.7842">33</text><text fill="#000000" font-family="sans-serif" font-size="13" lengthAdjust="spacing" textLength="100" x="423.5" y="1238.7842">404 NOT FOUND</text><polygon fill="#181818" points="76.5,1269.9922,66.5,1273.9922,76.5,1277.9922,72.5,1273.9922" style="stroke:#181818;stroke-width:1.0;"/><line style="stroke:#181818;stroke-width:1.0;stroke-dasharray:2.0,2.0;" x1="70.5" x2="377.5" y1="1273.9922" y2="1273.9922"/><text fill="#000000" font-family="sans-serif" font-size="13" font-weight="bold" lengthAdjust="spacing" textLength="14" x="82.5" y="1269.1357">34</text><text fill="#000000" font-family="sans-serif" font-size="13" lengthAdjust="spacing" textLength="166" x="100.5" y="1269.1357">informs delivery doesn't exist</text><!--MD5=[f8b07a67259214ef26c660ebd3c8ff9d]
@startuml createPackagingSD
autonumber
!pragma teoz true
skinparam sequence {
ParticipantBorderColor black
ParticipantBackgroundColor white
}
actor "Logistics Manager" as manager


box "<<System(C4)>>\n       System" #LightYellow
participant SPA as  SPA <<Container(C4)>>
box "<<Container(C4)>>\n       Logistics" #LightBlue
participant PackagingRoute as Route <<Component(C4)>>
participant PackagingController as Controller <<Component(C4)>>
participant PackagingService as Service <<Component(C4)>>
participant PackagingRepository as Repository <<Component(C4)>>
participant Persistence as Persistence <<Component(C4)>>
end box
participant WarehouseManagement as WarehouseManagement <<Container(C4)>>
end box


manager -> SPA: I want to create a new Packaging
activate SPA

SPA -> manager: asks for the details on the new Packaging
deactivate SPA

manager -> SPA: inserts the information about the new Packaging
activate SPA


SPA -> Route: POST createPackaging(PackagingInfo)
activate Route
Route -> Controller: POST createPackaging(PackagingInfo)
activate Controller

Controller -> WarehouseManagement: GET exiestsDelivery(DeliveryID)
activate WarehouseManagement
alt Packaging doesn't exist and Delivery exists

WarehouseManagement -> Controller: 200 OK

Controller -> Service: createPackaging(PackagingInfo)
activate Service
Service -> Repository: getPackagingById(PackagingInfo.id)
activate Repository
Repository -> Persistence: findOne(PackagingInfo.id)
activate Persistence
Persistence - -> Repository: null

Repository - -> Service: null

Service -> Repository: save(PackagingInfo)

Repository -> Persistence: save(PackagingInfo)

Persistence - -> Repository: true

Repository - -> Service: PackagingInfo

Service - -> Controller: PackagingInfo

Controller - -> Route: 201 CREATED + PackagingInfo

Route - -> SPA: 201 CREATED

SPA - -> manager: informs about the success of the creation

else Packaging already exists and Delivery exists

WarehouseManagement -> Controller: 200 OK

Controller -> Service: createPackaging(PackagingInfo)

Service -> Repository: getPackagingById(PackagingInfo.id)

Repository -> Persistence: findOne(PackagingInfo.id)

Persistence - -> Repository: Packaging
deactivate Persistence
Repository - -> Service: Packaging
deactivate Repository
Service - -> Controller: error, Packaging already exists
deactivate Service
Controller - -> Route: 409 CONFLICT, Packaging already exists

Route - -> SPA: 409 CONFLICT, Packaging already exists

SPA - -> manager: informs about the failure of the creation


else Delivery doesn't exist

WarehouseManagement -> Controller: 404 NOT FOUND
deactivate WarehouseManagement
Controller -> Route: 404 NOT FOUND
deactivate Controller
Route - -> SPA: 404 NOT FOUND
deactivate Route

SPA - -> manager: informs delivery doesn't exist


end

deactivate SPA
deactivate manager

@enduml

PlantUML version 1.2022.7(Mon Aug 22 18:01:30 WEST 2022)
(GPL source distribution)
Java Runtime: Java(TM) SE Runtime Environment
JVM: Java HotSpot(TM) 64-Bit Server VM
Default Encoding: Cp1252
Language: en
Country: GB
--></g></svg>