<?xml version="1.0" encoding="UTF-8" standalone="no"?><svg xmlns="http://www.w3.org/2000/svg" xmlns:xlink="http://www.w3.org/1999/xlink" contentScriptType="application/ecmascript" contentStyleType="text/css" height="363px" preserveAspectRatio="none" style="width:1242px;height:363px;background:#FFFFFF;" version="1.1" viewBox="0 0 1242 363" width="1242px" zoomAndPan="magnify"><defs><filter height="300%" id="fjgycycfljsxz" width="300%" x="-1" y="-1"><feGaussianBlur result="blurOut" stdDeviation="2.0"/><feColorMatrix in="blurOut" result="blurOut2" type="matrix" values="0 0 0 0 0 0 0 0 0 0 0 0 0 0 0 0 0 0 .4 0"/><feOffset dx="4.0" dy="4.0" in="blurOut2" result="blurOut3"/><feBlend in="SourceGraphic" in2="blurOut3" mode="normal"/></filter></defs><g><!--MD5=[b8d5ee1f547cc751e8cba8f63e6aaaf8]
cluster <<aggregate>> WarehouseManagement--><polygon fill="#FFFFFF" filter="url(#fjgycycfljsxz)" points="16,6,301,6,308,29.6094,1225,29.6094,1225,356,16,356,16,6" style="stroke:#000000;stroke-width:1.5;"/><line style="stroke:#000000;stroke-width:1.5;" x1="16" x2="308" y1="29.6094" y2="29.6094"/><text fill="#000000" font-family="sans-serif" font-size="14" font-weight="bold" lengthAdjust="spacing" textLength="279" x="20" y="22.5332">&lt;&lt;aggregate&gt;&gt; WarehouseManagement</text><!--MD5=[c5149b4909ffd2688ff51a939867f774]
class Warehouse--><rect codeLine="23" fill="#F5F5DC" filter="url(#fjgycycfljsxz)" height="63.2813" id="Warehouse" style="stroke:#A80036;stroke-width:1.5;" width="96" x="524" y="42"/><ellipse cx="539" cy="69.6406" fill="#ADD1B2" rx="11" ry="11" style="stroke:#A80036;stroke-width:1.0;"/><path d="M537.5,70.6406 L537.5,72.6406 L541.5,72.6406 L541.5,71.6406 L541.5,71.1563 L542.125,70.6406 L542.5,70.6406 L542.875,70.6406 L543.5,71.1563 L543.5,71.6406 L543.5,74.6406 L535.5,74.6406 L535.0156,74.6406 L534.5,74.0156 L534.5,73.6406 L534.5,73.2656 L535.0156,72.6406 L535.5,72.6406 L535.5,72.6406 L535.5,66.6406 L535.5,66.6406 L535.0156,66.6406 L534.5,66.0156 L534.5,65.6406 L534.5,65.2656 L535.0156,64.6406 L535.5,64.6406 L543.5,64.6406 L543.5,67.6406 L543.5,68.125 L542.875,68.6406 L542.5,68.6406 L542.125,68.6406 L541.5,68.125 L541.5,67.6406 L541.5,66.6406 L537.5,66.6406 L537.5,68.6406 L538.5,68.6406 L538.5,68.1563 L538.5,68.1563 L539.125,67.6406 L539.5,67.6406 L539.875,67.6406 L540.5,68.1563 L540.5,68.6406 L540.5,70.6406 L540.5,71.125 L539.875,71.6406 L539.875,71.6406 L539.5,71.6406 L539.125,71.6406 L538.5,71.125 L538.5,71.125 L538.5,70.6406 L537.5,70.6406 Z " fill="#000000"/><text fill="#000000" font-family="sans-serif" font-size="12" font-style="italic" lengthAdjust="spacing" textLength="43" x="563.5" y="59.457">«entity»</text><text fill="#000000" font-family="sans-serif" font-size="12" font-style="italic" lengthAdjust="spacing" textLength="40" x="565" y="74.5508">«Root»</text><text fill="#000000" font-family="sans-serif" font-size="12" lengthAdjust="spacing" textLength="64" x="553" y="89.6445">Warehouse</text><line style="stroke:#A80036;stroke-width:1.5;" x1="525" x2="619" y1="97.2813" y2="97.2813"/><!--MD5=[b4d3d50c0abf08df45181fececb9f04d]
class Store--><rect codeLine="29" fill="#F5F5DC" filter="url(#fjgycycfljsxz)" height="48.1875" id="Store" style="stroke:#A80036;stroke-width:1.5;" width="71" x="971.5" y="49.5"/><ellipse cx="986.5" cy="69.5938" fill="#ADD1B2" rx="11" ry="11" style="stroke:#A80036;stroke-width:1.0;"/><path d="M985,70.5938 L985,72.5938 L989,72.5938 L989,71.5938 L989,71.1094 L989.625,70.5938 L990,70.5938 L990.375,70.5938 L991,71.1094 L991,71.5938 L991,74.5938 L983,74.5938 L982.5156,74.5938 L982,73.9688 L982,73.5938 L982,73.2188 L982.5156,72.5938 L983,72.5938 L983,72.5938 L983,66.5938 L983,66.5938 L982.5156,66.5938 L982,65.9688 L982,65.5938 L982,65.2188 L982.5156,64.5938 L983,64.5938 L991,64.5938 L991,67.5938 L991,68.0781 L990.375,68.5938 L990,68.5938 L989.625,68.5938 L989,68.0781 L989,67.5938 L989,66.5938 L985,66.5938 L985,68.5938 L986,68.5938 L986,68.1094 L986,68.1094 L986.625,67.5938 L987,67.5938 L987.375,67.5938 L988,68.1094 L988,68.5938 L988,70.5938 L988,71.0781 L987.375,71.5938 L987.375,71.5938 L987,71.5938 L986.625,71.5938 L986,71.0781 L986,71.0781 L986,70.5938 L985,70.5938 Z " fill="#000000"/><text fill="#000000" font-family="sans-serif" font-size="12" font-style="italic" lengthAdjust="spacing" textLength="43" x="998.5" y="66.957">«entity»</text><text fill="#000000" font-family="sans-serif" font-size="12" lengthAdjust="spacing" textLength="29" x="1005.5" y="82.0508">Store</text><line style="stroke:#A80036;stroke-width:1.5;" x1="972.5" x2="1041.5" y1="89.6875" y2="89.6875"/><!--MD5=[7ca35fa42fdd2584ef5892c05d53c42e]
class ChargingStation--><rect codeLine="33" fill="#F5F5DC" filter="url(#fjgycycfljsxz)" height="48.1875" id="ChargingStation" style="stroke:#A80036;stroke-width:1.5;" width="121" x="32.5" y="183"/><ellipse cx="47.5" cy="203.0938" fill="#ADD1B2" rx="11" ry="11" style="stroke:#A80036;stroke-width:1.0;"/><path d="M46,204.0938 L46,206.0938 L50,206.0938 L50,205.0938 L50,204.6094 L50.625,204.0938 L51,204.0938 L51.375,204.0938 L52,204.6094 L52,205.0938 L52,208.0938 L44,208.0938 L43.5156,208.0938 L43,207.4688 L43,207.0938 L43,206.7188 L43.5156,206.0938 L44,206.0938 L44,206.0938 L44,200.0938 L44,200.0938 L43.5156,200.0938 L43,199.4688 L43,199.0938 L43,198.7188 L43.5156,198.0938 L44,198.0938 L52,198.0938 L52,201.0938 L52,201.5781 L51.375,202.0938 L51,202.0938 L50.625,202.0938 L50,201.5781 L50,201.0938 L50,200.0938 L46,200.0938 L46,202.0938 L47,202.0938 L47,201.6094 L47,201.6094 L47.625,201.0938 L48,201.0938 L48.375,201.0938 L49,201.6094 L49,202.0938 L49,204.0938 L49,204.5781 L48.375,205.0938 L48.375,205.0938 L48,205.0938 L47.625,205.0938 L47,204.5781 L47,204.5781 L47,204.0938 L46,204.0938 Z " fill="#000000"/><text fill="#000000" font-family="sans-serif" font-size="12" font-style="italic" lengthAdjust="spacing" textLength="43" x="84.5" y="200.457">«entity»</text><text fill="#000000" font-family="sans-serif" font-size="12" lengthAdjust="spacing" textLength="89" x="61.5" y="215.5508">ChargingStation</text><line style="stroke:#A80036;stroke-width:1.5;" x1="33.5" x2="152.5" y1="223.1875" y2="223.1875"/><!--MD5=[a81e698ada9b821103f36bc5d49e376e]
class WarehouseIndentifier--><rect codeLine="24" fill="#F5F5DC" filter="url(#fjgycycfljsxz)" height="48.1875" id="WarehouseIndentifier" style="stroke:#A80036;stroke-width:1.5;" width="150" x="189" y="183"/><ellipse cx="204" cy="203.0938" fill="#FF8B40" rx="11" ry="11" style="stroke:#A80036;stroke-width:1.0;"/><path d="M204,206.375 L205.5313,200.8438 L205.5313,200.8438 L205.0156,200.8438 L204.5,200.2188 L204.5,199.8438 L204.5,199.4688 L205.0156,198.8438 L205.5313,198.8438 L207.4063,198.8438 L207.9844,198.8438 L208.5,199.4688 L208.5,199.8438 L208.5,200.2188 L207.9844,200.8438 L207.9844,200.8438 L207.5313,200.8438 L205.1875,208.8438 L202.8125,208.8438 L200.3438,200.8438 L200.0156,200.8438 L200.0156,200.8438 L199.5,200.2188 L199.5,199.8438 L199.5,199.4688 L200.0156,198.8438 L200.5938,198.8438 L202.4688,198.8438 L202.9844,198.8438 L203.5,199.4688 L203.5,199.8438 L203.5,200.2188 L202.9844,200.8438 L202.4688,200.8438 L202.4688,200.8438 L204,206.375 Z " fill="#000000"/><text fill="#000000" font-family="sans-serif" font-size="12" font-style="italic" lengthAdjust="spacing" textLength="81" x="236.5" y="200.457">«value object»</text><text fill="#000000" font-family="sans-serif" font-size="12" lengthAdjust="spacing" textLength="118" x="218" y="215.5508">WarehouseIndentifier</text><line style="stroke:#A80036;stroke-width:1.5;" x1="190" x2="338" y1="223.1875" y2="223.1875"/><!--MD5=[210cbcca56bc29863c9dfa6d2a050332]
class WarehouseDesignation--><rect codeLine="25" fill="#F5F5DC" filter="url(#fjgycycfljsxz)" height="48.1875" id="WarehouseDesignation" style="stroke:#A80036;stroke-width:1.5;" width="163" x="374.5" y="183"/><ellipse cx="389.5" cy="203.0938" fill="#FF8B40" rx="11" ry="11" style="stroke:#A80036;stroke-width:1.0;"/><path d="M389.5,206.375 L391.0313,200.8438 L391.0313,200.8438 L390.5156,200.8438 L390,200.2188 L390,199.8438 L390,199.4688 L390.5156,198.8438 L391.0313,198.8438 L392.9063,198.8438 L393.4844,198.8438 L394,199.4688 L394,199.8438 L394,200.2188 L393.4844,200.8438 L393.4844,200.8438 L393.0313,200.8438 L390.6875,208.8438 L388.3125,208.8438 L385.8438,200.8438 L385.5156,200.8438 L385.5156,200.8438 L385,200.2188 L385,199.8438 L385,199.4688 L385.5156,198.8438 L386.0938,198.8438 L387.9688,198.8438 L388.4844,198.8438 L389,199.4688 L389,199.8438 L389,200.2188 L388.4844,200.8438 L387.9688,200.8438 L387.9688,200.8438 L389.5,206.375 Z " fill="#000000"/><text fill="#000000" font-family="sans-serif" font-size="12" font-style="italic" lengthAdjust="spacing" textLength="81" x="428.5" y="200.457">«value object»</text><text fill="#000000" font-family="sans-serif" font-size="12" lengthAdjust="spacing" textLength="131" x="403.5" y="215.5508">WarehouseDesignation</text><line style="stroke:#A80036;stroke-width:1.5;" x1="375.5" x2="536.5" y1="223.1875" y2="223.1875"/><!--MD5=[3ba557464ddf1e7ecaf9fea7de27626b]
class WarehouseAddress--><rect codeLine="26" fill="#F5F5DC" filter="url(#fjgycycfljsxz)" height="48.1875" id="WarehouseAddress" style="stroke:#A80036;stroke-width:1.5;" width="142" x="573" y="183"/><ellipse cx="588" cy="203.0938" fill="#FF8B40" rx="11" ry="11" style="stroke:#A80036;stroke-width:1.0;"/><path d="M588,206.375 L589.5313,200.8438 L589.5313,200.8438 L589.0156,200.8438 L588.5,200.2188 L588.5,199.8438 L588.5,199.4688 L589.0156,198.8438 L589.5313,198.8438 L591.4063,198.8438 L591.9844,198.8438 L592.5,199.4688 L592.5,199.8438 L592.5,200.2188 L591.9844,200.8438 L591.9844,200.8438 L591.5313,200.8438 L589.1875,208.8438 L586.8125,208.8438 L584.3438,200.8438 L584.0156,200.8438 L584.0156,200.8438 L583.5,200.2188 L583.5,199.8438 L583.5,199.4688 L584.0156,198.8438 L584.5938,198.8438 L586.4688,198.8438 L586.9844,198.8438 L587.5,199.4688 L587.5,199.8438 L587.5,200.2188 L586.9844,200.8438 L586.4688,200.8438 L586.4688,200.8438 L588,206.375 Z " fill="#000000"/><text fill="#000000" font-family="sans-serif" font-size="12" font-style="italic" lengthAdjust="spacing" textLength="81" x="616.5" y="200.457">«value object»</text><text fill="#000000" font-family="sans-serif" font-size="12" lengthAdjust="spacing" textLength="110" x="602" y="215.5508">WarehouseAddress</text><line style="stroke:#A80036;stroke-width:1.5;" x1="574" x2="714" y1="223.1875" y2="223.1875"/><!--MD5=[2ba209925a3aa0f479d78f4b6938c260]
class WarehouseCoordinates--><rect codeLine="27" fill="#F5F5DC" filter="url(#fjgycycfljsxz)" height="48.1875" id="WarehouseCoordinates" style="stroke:#A80036;stroke-width:1.5;" width="164" x="750" y="183"/><ellipse cx="765" cy="203.0938" fill="#FF8B40" rx="11" ry="11" style="stroke:#A80036;stroke-width:1.0;"/><path d="M765,206.375 L766.5313,200.8438 L766.5313,200.8438 L766.0156,200.8438 L765.5,200.2188 L765.5,199.8438 L765.5,199.4688 L766.0156,198.8438 L766.5313,198.8438 L768.4063,198.8438 L768.9844,198.8438 L769.5,199.4688 L769.5,199.8438 L769.5,200.2188 L768.9844,200.8438 L768.9844,200.8438 L768.5313,200.8438 L766.1875,208.8438 L763.8125,208.8438 L761.3438,200.8438 L761.0156,200.8438 L761.0156,200.8438 L760.5,200.2188 L760.5,199.8438 L760.5,199.4688 L761.0156,198.8438 L761.5938,198.8438 L763.4688,198.8438 L763.9844,198.8438 L764.5,199.4688 L764.5,199.8438 L764.5,200.2188 L763.9844,200.8438 L763.4688,200.8438 L763.4688,200.8438 L765,206.375 Z " fill="#000000"/><text fill="#000000" font-family="sans-serif" font-size="12" font-style="italic" lengthAdjust="spacing" textLength="81" x="804.5" y="200.457">«value object»</text><text fill="#000000" font-family="sans-serif" font-size="12" lengthAdjust="spacing" textLength="132" x="779" y="215.5508">WarehouseCoordinates</text><line style="stroke:#A80036;stroke-width:1.5;" x1="751" x2="913" y1="223.1875" y2="223.1875"/><!--MD5=[7c19c5caca2eede466ce38ae980bae3f]
class StoreName--><rect codeLine="30" fill="#F5F5DC" filter="url(#fjgycycfljsxz)" height="48.1875" id="StoreName" style="stroke:#A80036;stroke-width:1.5;" width="109" x="1099.5" y="183"/><ellipse cx="1114.5" cy="203.0938" fill="#FF8B40" rx="11" ry="11" style="stroke:#A80036;stroke-width:1.0;"/><path d="M1114.5,206.375 L1116.0313,200.8438 L1116.0313,200.8438 L1115.5156,200.8438 L1115,200.2188 L1115,199.8438 L1115,199.4688 L1115.5156,198.8438 L1116.0313,198.8438 L1117.9063,198.8438 L1118.4844,198.8438 L1119,199.4688 L1119,199.8438 L1119,200.2188 L1118.4844,200.8438 L1118.4844,200.8438 L1118.0313,200.8438 L1115.6875,208.8438 L1113.3125,208.8438 L1110.8438,200.8438 L1110.5156,200.8438 L1110.5156,200.8438 L1110,200.2188 L1110,199.8438 L1110,199.4688 L1110.5156,198.8438 L1111.0938,198.8438 L1112.9688,198.8438 L1113.4844,198.8438 L1114,199.4688 L1114,199.8438 L1114,200.2188 L1113.4844,200.8438 L1112.9688,200.8438 L1112.9688,200.8438 L1114.5,206.375 Z " fill="#000000"/><text fill="#000000" font-family="sans-serif" font-size="12" font-style="italic" lengthAdjust="spacing" textLength="81" x="1126.5" y="200.457">«value object»</text><text fill="#000000" font-family="sans-serif" font-size="12" lengthAdjust="spacing" textLength="63" x="1135.5" y="215.5508">StoreName</text><line style="stroke:#A80036;stroke-width:1.5;" x1="1100.5" x2="1207.5" y1="223.1875" y2="223.1875"/><!--MD5=[ff108ccad0f59c84530b9f5be2d99533]
class StoreIndentifier--><rect codeLine="31" fill="#F5F5DC" filter="url(#fjgycycfljsxz)" height="48.1875" id="StoreIndentifier" style="stroke:#A80036;stroke-width:1.5;" width="115" x="949.5" y="183"/><ellipse cx="964.5" cy="203.0938" fill="#FF8B40" rx="11" ry="11" style="stroke:#A80036;stroke-width:1.0;"/><path d="M964.5,206.375 L966.0313,200.8438 L966.0313,200.8438 L965.5156,200.8438 L965,200.2188 L965,199.8438 L965,199.4688 L965.5156,198.8438 L966.0313,198.8438 L967.9063,198.8438 L968.4844,198.8438 L969,199.4688 L969,199.8438 L969,200.2188 L968.4844,200.8438 L968.4844,200.8438 L968.0313,200.8438 L965.6875,208.8438 L963.3125,208.8438 L960.8438,200.8438 L960.5156,200.8438 L960.5156,200.8438 L960,200.2188 L960,199.8438 L960,199.4688 L960.5156,198.8438 L961.0938,198.8438 L962.9688,198.8438 L963.4844,198.8438 L964,199.4688 L964,199.8438 L964,200.2188 L963.4844,200.8438 L962.9688,200.8438 L962.9688,200.8438 L964.5,206.375 Z " fill="#000000"/><text fill="#000000" font-family="sans-serif" font-size="12" font-style="italic" lengthAdjust="spacing" textLength="81" x="979.5" y="200.457">«value object»</text><text fill="#000000" font-family="sans-serif" font-size="12" lengthAdjust="spacing" textLength="83" x="978.5" y="215.5508">StoreIndentifier</text><line style="stroke:#A80036;stroke-width:1.5;" x1="950.5" x2="1063.5" y1="223.1875" y2="223.1875"/><!--MD5=[b450bbf24faa48c33f8e81045f209469]
class CurrentOccupation--><rect codeLine="34" fill="#F5F5DC" filter="url(#fjgycycfljsxz)" height="48.1875" id="CurrentOccupation" style="stroke:#A80036;stroke-width:1.5;" width="135" x="32.5" y="292"/><ellipse cx="47.5" cy="312.0938" fill="#FF8B40" rx="11" ry="11" style="stroke:#A80036;stroke-width:1.0;"/><path d="M47.5,315.375 L49.0313,309.8438 L49.0313,309.8438 L48.5156,309.8438 L48,309.2188 L48,308.8438 L48,308.4688 L48.5156,307.8438 L49.0313,307.8438 L50.9063,307.8438 L51.4844,307.8438 L52,308.4688 L52,308.8438 L52,309.2188 L51.4844,309.8438 L51.4844,309.8438 L51.0313,309.8438 L48.6875,317.8438 L46.3125,317.8438 L43.8438,309.8438 L43.5156,309.8438 L43.5156,309.8438 L43,309.2188 L43,308.8438 L43,308.4688 L43.5156,307.8438 L44.0938,307.8438 L45.9688,307.8438 L46.4844,307.8438 L47,308.4688 L47,308.8438 L47,309.2188 L46.4844,309.8438 L45.9688,309.8438 L45.9688,309.8438 L47.5,315.375 Z " fill="#000000"/><text fill="#000000" font-family="sans-serif" font-size="12" font-style="italic" lengthAdjust="spacing" textLength="81" x="72.5" y="309.457">«value object»</text><text fill="#000000" font-family="sans-serif" font-size="12" lengthAdjust="spacing" textLength="103" x="61.5" y="324.5508">CurrentOccupation</text><line style="stroke:#A80036;stroke-width:1.5;" x1="33.5" x2="166.5" y1="332.1875" y2="332.1875"/><!--MD5=[252edd71a4be5f43065b911bb900d8ae]
class TotalOccupation--><rect codeLine="35" fill="#F5F5DC" filter="url(#fjgycycfljsxz)" height="48.1875" id="TotalOccupation" style="stroke:#A80036;stroke-width:1.5;" width="121" x="202.5" y="292"/><ellipse cx="217.5" cy="312.0938" fill="#FF8B40" rx="11" ry="11" style="stroke:#A80036;stroke-width:1.0;"/><path d="M217.5,315.375 L219.0313,309.8438 L219.0313,309.8438 L218.5156,309.8438 L218,309.2188 L218,308.8438 L218,308.4688 L218.5156,307.8438 L219.0313,307.8438 L220.9063,307.8438 L221.4844,307.8438 L222,308.4688 L222,308.8438 L222,309.2188 L221.4844,309.8438 L221.4844,309.8438 L221.0313,309.8438 L218.6875,317.8438 L216.3125,317.8438 L213.8438,309.8438 L213.5156,309.8438 L213.5156,309.8438 L213,309.2188 L213,308.8438 L213,308.4688 L213.5156,307.8438 L214.0938,307.8438 L215.9688,307.8438 L216.4844,307.8438 L217,308.4688 L217,308.8438 L217,309.2188 L216.4844,309.8438 L215.9688,309.8438 L215.9688,309.8438 L217.5,315.375 Z " fill="#000000"/><text fill="#000000" font-family="sans-serif" font-size="12" font-style="italic" lengthAdjust="spacing" textLength="81" x="235.5" y="309.457">«value object»</text><text fill="#000000" font-family="sans-serif" font-size="12" lengthAdjust="spacing" textLength="89" x="231.5" y="324.5508">TotalOccupation</text><line style="stroke:#A80036;stroke-width:1.5;" x1="203.5" x2="322.5" y1="332.1875" y2="332.1875"/><!--MD5=[ae60def7b647bcc25646f64758b2f8c8]
reverse link Warehouse to Store--><path codeLine="38" d="M625.22,73.5 C715.2,73.5 895.05,73.5 971.4,73.5 " fill="none" id="Warehouse-backto-Store" style="stroke:#222222;stroke-width:1.0;"/><polygon fill="#222222" points="620.21,73.5,629.21,77.5,625.21,73.5,629.21,69.5,620.21,73.5" style="stroke:#222222;stroke-width:1.0;"/><text fill="#000000" font-family="sans-serif" font-size="13" lengthAdjust="spacing" textLength="90" x="750.75" y="66.9951">associated with</text><text fill="#000000" font-family="sans-serif" font-size="13" lengthAdjust="spacing" textLength="7" x="628.1281" y="69.7755">1</text><text fill="#000000" font-family="sans-serif" font-size="13" lengthAdjust="spacing" textLength="7" x="956.3356" y="69.362">1</text><!--MD5=[dc32dc1351b98655976dc223324cbacb]
link Warehouse to ChargingStation--><path codeLine="39" d="M523.9,87.24 C448.69,107.23 298.76,147.36 172,183 C167.66,184.22 163.18,185.49 158.68,186.78 " fill="none" id="Warehouse-to-ChargingStation" style="stroke:#222222;stroke-width:1.0;"/><polygon fill="#222222" points="153.78,188.18,163.5315,189.5613,158.5887,186.8102,161.3398,181.8673,153.78,188.18" style="stroke:#222222;stroke-width:1.0;"/><text fill="#000000" font-family="sans-serif" font-size="13" lengthAdjust="spacing" textLength="21" x="337" y="149.4951">has</text><text fill="#000000" font-family="sans-serif" font-size="13" lengthAdjust="spacing" textLength="7" x="508.9988" y="85.6194">1</text><text fill="#000000" font-family="sans-serif" font-size="13" lengthAdjust="spacing" textLength="7" x="161.6141" y="182.4164">1</text><!--MD5=[acba53dabb83cff3918e642f9fb2e641]
link Warehouse to WarehouseIndentifier--><path codeLine="41" d="M523.88,95.05 C469.57,118.23 381.22,155.95 322.85,180.87 " fill="none" id="Warehouse-to-WarehouseIndentifier" style="stroke:#222222;stroke-width:1.0;"/><polygon fill="#222222" points="318,182.94,327.848,183.0713,322.5957,180.9704,324.6966,175.7181,318,182.94" style="stroke:#222222;stroke-width:1.0;"/><text fill="#000000" font-family="sans-serif" font-size="13" lengthAdjust="spacing" textLength="7" x="508.9757" y="113.0753">1</text><text fill="#000000" font-family="sans-serif" font-size="13" lengthAdjust="spacing" textLength="7" x="323.9406" y="172.2408">1</text><!--MD5=[408b3fa0744384405c2ff7e0b037b322]
link Warehouse to WarehouseDesignation--><path codeLine="42" d="M544.8,105.33 C525.13,127.63 498.81,157.47 479.93,178.87 " fill="none" id="Warehouse-to-WarehouseDesignation" style="stroke:#222222;stroke-width:1.0;"/><polygon fill="#222222" points="476.5,182.76,485.4612,178.6738,479.8147,179.0167,479.4718,173.3702,476.5,182.76" style="stroke:#222222;stroke-width:1.0;"/><text fill="#000000" font-family="sans-serif" font-size="13" lengthAdjust="spacing" textLength="7" x="531.7559" y="126.6736">1</text><text fill="#000000" font-family="sans-serif" font-size="13" lengthAdjust="spacing" textLength="7" x="473.8563" y="172.0146">1</text><!--MD5=[6fee932d99f90e2a2bf9abfdfede3fd4]
link Warehouse to WarehouseAddress--><path codeLine="43" d="M588.88,105.33 C600.99,127.44 617.16,156.98 628.85,178.33 " fill="none" id="Warehouse-to-WarehouseAddress" style="stroke:#222222;stroke-width:1.0;"/><polygon fill="#222222" points="631.28,182.76,630.4685,172.9446,628.8797,178.3738,623.4506,176.7851,631.28,182.76" style="stroke:#222222;stroke-width:1.0;"/><text fill="#000000" font-family="sans-serif" font-size="13" lengthAdjust="spacing" textLength="7" x="584.5142" y="126.6736">1</text><text fill="#000000" font-family="sans-serif" font-size="13" lengthAdjust="spacing" textLength="7" x="620.1236" y="172.0146">1</text><!--MD5=[e6395b872613880e86cf98f20ef06951]
link Warehouse to WarehouseCoordinates--><path codeLine="44" d="M620.29,98.93 C666.15,122.12 734.83,156.85 781.42,180.42 " fill="none" id="Warehouse-to-WarehouseCoordinates" style="stroke:#222222;stroke-width:1.0;"/><polygon fill="#222222" points="786.14,182.81,779.918,175.1754,781.6794,180.5511,776.3037,182.3125,786.14,182.81" style="stroke:#222222;stroke-width:1.0;"/><text fill="#000000" font-family="sans-serif" font-size="13" lengthAdjust="spacing" textLength="7" x="627.8967" y="98.9903">1</text><text fill="#000000" font-family="sans-serif" font-size="13" lengthAdjust="spacing" textLength="7" x="766.4915" y="172.0775">1</text><!--MD5=[ae3bd1fc9e00019e04897812083ba84e]
link Store to StoreName--><path codeLine="46" d="M1032.94,97.71 C1058.4,120.48 1097.18,155.17 1123.96,179.13 " fill="none" id="Store-to-StoreName" style="stroke:#222222;stroke-width:1.0;"/><polygon fill="#222222" points="1127.82,182.58,1123.7699,173.6024,1124.0901,179.2502,1118.4423,179.5703,1127.82,182.58" style="stroke:#222222;stroke-width:1.0;"/><text fill="#000000" font-family="sans-serif" font-size="13" lengthAdjust="spacing" textLength="7" x="1031.4098" y="119.0763">1</text><text fill="#000000" font-family="sans-serif" font-size="13" lengthAdjust="spacing" textLength="7" x="1113.5855" y="172.1927">1</text><!--MD5=[fef2d2ba648fbb8847e7d28f4575266f]
link Store to StoreIndentifier--><path codeLine="47" d="M1007,97.71 C1007,119.92 1007,153.48 1007,177.34 " fill="none" id="Store-to-StoreIndentifier" style="stroke:#222222;stroke-width:1.0;"/><polygon fill="#222222" points="1007,182.58,1011,173.58,1007,177.58,1003,173.58,1007,182.58" style="stroke:#222222;stroke-width:1.0;"/><text fill="#000000" font-family="sans-serif" font-size="13" lengthAdjust="spacing" textLength="7" x="999.1469" y="119.0763">1</text><text fill="#000000" font-family="sans-serif" font-size="13" lengthAdjust="spacing" textLength="7" x="999.1469" y="172.1927">1</text><!--MD5=[3a1645d93db7f0050e5d6caa5346b5bf]
link ChargingStation to CurrentOccupation--><path codeLine="49" d="M94.52,231.22 C95.58,247.48 97.01,269.32 98.14,286.62 " fill="none" id="ChargingStation-to-CurrentOccupation" style="stroke:#222222;stroke-width:1.0;"/><polygon fill="#222222" points="98.48,291.83,101.8795,282.5864,98.1512,286.8408,93.8968,283.1125,98.48,291.83" style="stroke:#222222;stroke-width:1.0;"/><text fill="#000000" font-family="sans-serif" font-size="13" lengthAdjust="spacing" textLength="7" x="87.0374" y="252.5887">1</text><text fill="#000000" font-family="sans-serif" font-size="13" lengthAdjust="spacing" textLength="7" x="90.1936" y="281.1026">1</text><!--MD5=[d7bd9df21f50b5584ceb49d06cc4597e]
link ChargingStation to TotalOccupation--><path codeLine="50" d="M129.89,231.22 C156.95,248.25 193.73,271.4 221.76,289.04 " fill="none" id="ChargingStation-to-TotalOccupation" style="stroke:#222222;stroke-width:1.0;"/><polygon fill="#222222" points="226.18,291.83,220.6952,283.6497,221.9488,289.1659,216.4327,290.4196,226.18,291.83" style="stroke:#222222;stroke-width:1.0;"/><text fill="#000000" font-family="sans-serif" font-size="13" lengthAdjust="spacing" textLength="7" x="131.0288" y="252.5887">1</text><text fill="#000000" font-family="sans-serif" font-size="13" lengthAdjust="spacing" textLength="7" x="208.848" y="281.1026">1</text><!--MD5=[54fcc3de20f137df1bfc1fe79ccc0d09]
@startuml DMWarehouseManagement

skinparam classAttributeIconSize 0
hide empty attributes
skinparam classBackgroundColor beige
skinparam ArrowColor #222222

package "<<aggregate>> WarehouseManagement"{
  entity Warehouse
  entity Store
  entity ChargingStation
  class WarehouseIndentifier
  class WarehouseDesignation
  class WarehouseAddress
  class WarehouseCoordinates
  class StoreName
  class StoreIndentifier
  class CurrentOccupation
  class TotalOccupation

}


entity Warehouse <<entity>> <<Root>>
class WarehouseIndentifier <<(V,#FF8B40) value object>>
class WarehouseDesignation <<(V,#FF8B40) value object>>
class WarehouseAddress <<(V,#FF8B40) value object>>
class WarehouseCoordinates <<(V,#FF8B40) value object>>

entity Store <<entity>>
class StoreName <<(V,#FF8B40) value object>>
class StoreIndentifier <<(V,#FF8B40) value object>>

entity ChargingStation <<entity>>
class CurrentOccupation <<(V,#FF8B40) value object>>
class TotalOccupation <<(V,#FF8B40) value object>>


Warehouse "1" <- "1" Store : associated with
Warehouse "1" - -> "1" ChargingStation: has

Warehouse "1" - -> "1" WarehouseIndentifier
Warehouse "1" - -> "1" WarehouseDesignation
Warehouse "1" - -> "1" WarehouseAddress
Warehouse "1" - -> "1" WarehouseCoordinates

Store "1" - -> "1" StoreName
Store "1" - -> "1" StoreIndentifier

ChargingStation "1" - -> "1" CurrentOccupation
ChargingStation "1" - -> "1" TotalOccupation

@enduml

PlantUML version 1.2022.1(Tue Feb 01 18:19:58 GMT 2022)
(GPL source distribution)
Java Runtime: OpenJDK Runtime Environment
JVM: OpenJDK 64-Bit Server VM
Default Encoding: Cp1252
Language: pt
Country: BR
--></g></svg>