<?xml version="1.0" encoding="UTF-8" standalone="no"?><svg xmlns="http://www.w3.org/2000/svg" xmlns:xlink="http://www.w3.org/1999/xlink" contentScriptType="application/ecmascript" contentStyleType="text/css" height="363px" preserveAspectRatio="none" style="width:1413px;height:363px;background:#FFFFFF;" version="1.1" viewBox="0 0 1413 363" width="1413px" zoomAndPan="magnify"><defs><filter height="300%" id="f1dnsf8bueyuk6" width="300%" x="-1" y="-1"><feGaussianBlur result="blurOut" stdDeviation="2.0"/><feColorMatrix in="blurOut" result="blurOut2" type="matrix" values="0 0 0 0 0 0 0 0 0 0 0 0 0 0 0 0 0 0 .4 0"/><feOffset dx="4.0" dy="4.0" in="blurOut2" result="blurOut3"/><feBlend in="SourceGraphic" in2="blurOut3" mode="normal"/></filter></defs><g><!--MD5=[b8d5ee1f547cc751e8cba8f63e6aaaf8]
cluster <<aggregate>> WarehouseManagement--><polygon fill="#FFFFFF" filter="url(#f1dnsf8bueyuk6)" points="16,6,301,6,308,29.6094,1396,29.6094,1396,356,16,356,16,6" style="stroke:#000000;stroke-width:1.5;"/><line style="stroke:#000000;stroke-width:1.5;" x1="16" x2="308" y1="29.6094" y2="29.6094"/><text fill="#000000" font-family="sans-serif" font-size="14" font-weight="bold" lengthAdjust="spacing" textLength="279" x="20" y="22.5332">&lt;&lt;aggregate&gt;&gt; WarehouseManagement</text><!--MD5=[c5149b4909ffd2688ff51a939867f774]
class Warehouse--><rect codeLine="24" fill="#F5F5DC" filter="url(#f1dnsf8bueyuk6)" height="63.2813" id="Warehouse" style="stroke:#A80036;stroke-width:1.5;" width="96" x="596" y="42"/><ellipse cx="611" cy="69.6406" fill="#ADD1B2" rx="11" ry="11" style="stroke:#A80036;stroke-width:1.0;"/><path d="M609.5,70.6406 L609.5,72.6406 L613.5,72.6406 L613.5,71.6406 L613.5,71.1563 L614.125,70.6406 L614.5,70.6406 L614.875,70.6406 L615.5,71.1563 L615.5,71.6406 L615.5,74.6406 L607.5,74.6406 L607.0156,74.6406 L606.5,74.0156 L606.5,73.6406 L606.5,73.2656 L607.0156,72.6406 L607.5,72.6406 L607.5,72.6406 L607.5,66.6406 L607.5,66.6406 L607.0156,66.6406 L606.5,66.0156 L606.5,65.6406 L606.5,65.2656 L607.0156,64.6406 L607.5,64.6406 L615.5,64.6406 L615.5,67.6406 L615.5,68.125 L614.875,68.6406 L614.5,68.6406 L614.125,68.6406 L613.5,68.125 L613.5,67.6406 L613.5,66.6406 L609.5,66.6406 L609.5,68.6406 L610.5,68.6406 L610.5,68.1563 L610.5,68.1563 L611.125,67.6406 L611.5,67.6406 L611.875,67.6406 L612.5,68.1563 L612.5,68.6406 L612.5,70.6406 L612.5,71.125 L611.875,71.6406 L611.875,71.6406 L611.5,71.6406 L611.125,71.6406 L610.5,71.125 L610.5,71.125 L610.5,70.6406 L609.5,70.6406 Z " fill="#000000"/><text fill="#000000" font-family="sans-serif" font-size="12" font-style="italic" lengthAdjust="spacing" textLength="43" x="635.5" y="59.457">«entity»</text><text fill="#000000" font-family="sans-serif" font-size="12" font-style="italic" lengthAdjust="spacing" textLength="40" x="637" y="74.5508">«Root»</text><text fill="#000000" font-family="sans-serif" font-size="12" lengthAdjust="spacing" textLength="64" x="625" y="89.6445">Warehouse</text><line style="stroke:#A80036;stroke-width:1.5;" x1="597" x2="691" y1="97.2813" y2="97.2813"/><!--MD5=[b4d3d50c0abf08df45181fececb9f04d]
class Store--><rect codeLine="31" fill="#F5F5DC" filter="url(#f1dnsf8bueyuk6)" height="48.1875" id="Store" style="stroke:#A80036;stroke-width:1.5;" width="71" x="1139.5" y="49.5"/><ellipse cx="1154.5" cy="69.5938" fill="#ADD1B2" rx="11" ry="11" style="stroke:#A80036;stroke-width:1.0;"/><path d="M1153,70.5938 L1153,72.5938 L1157,72.5938 L1157,71.5938 L1157,71.1094 L1157.625,70.5938 L1158,70.5938 L1158.375,70.5938 L1159,71.1094 L1159,71.5938 L1159,74.5938 L1151,74.5938 L1150.5156,74.5938 L1150,73.9688 L1150,73.5938 L1150,73.2188 L1150.5156,72.5938 L1151,72.5938 L1151,72.5938 L1151,66.5938 L1151,66.5938 L1150.5156,66.5938 L1150,65.9688 L1150,65.5938 L1150,65.2188 L1150.5156,64.5938 L1151,64.5938 L1159,64.5938 L1159,67.5938 L1159,68.0781 L1158.375,68.5938 L1158,68.5938 L1157.625,68.5938 L1157,68.0781 L1157,67.5938 L1157,66.5938 L1153,66.5938 L1153,68.5938 L1154,68.5938 L1154,68.1094 L1154,68.1094 L1154.625,67.5938 L1155,67.5938 L1155.375,67.5938 L1156,68.1094 L1156,68.5938 L1156,70.5938 L1156,71.0781 L1155.375,71.5938 L1155.375,71.5938 L1155,71.5938 L1154.625,71.5938 L1154,71.0781 L1154,71.0781 L1154,70.5938 L1153,70.5938 Z " fill="#000000"/><text fill="#000000" font-family="sans-serif" font-size="12" font-style="italic" lengthAdjust="spacing" textLength="43" x="1166.5" y="66.957">«entity»</text><text fill="#000000" font-family="sans-serif" font-size="12" lengthAdjust="spacing" textLength="29" x="1173.5" y="82.0508">Store</text><line style="stroke:#A80036;stroke-width:1.5;" x1="1140.5" x2="1209.5" y1="89.6875" y2="89.6875"/><!--MD5=[7ca35fa42fdd2584ef5892c05d53c42e]
class ChargingStation--><rect codeLine="35" fill="#F5F5DC" filter="url(#f1dnsf8bueyuk6)" height="48.1875" id="ChargingStation" style="stroke:#A80036;stroke-width:1.5;" width="121" x="32.5" y="183"/><ellipse cx="47.5" cy="203.0938" fill="#ADD1B2" rx="11" ry="11" style="stroke:#A80036;stroke-width:1.0;"/><path d="M46,204.0938 L46,206.0938 L50,206.0938 L50,205.0938 L50,204.6094 L50.625,204.0938 L51,204.0938 L51.375,204.0938 L52,204.6094 L52,205.0938 L52,208.0938 L44,208.0938 L43.5156,208.0938 L43,207.4688 L43,207.0938 L43,206.7188 L43.5156,206.0938 L44,206.0938 L44,206.0938 L44,200.0938 L44,200.0938 L43.5156,200.0938 L43,199.4688 L43,199.0938 L43,198.7188 L43.5156,198.0938 L44,198.0938 L52,198.0938 L52,201.0938 L52,201.5781 L51.375,202.0938 L51,202.0938 L50.625,202.0938 L50,201.5781 L50,201.0938 L50,200.0938 L46,200.0938 L46,202.0938 L47,202.0938 L47,201.6094 L47,201.6094 L47.625,201.0938 L48,201.0938 L48.375,201.0938 L49,201.6094 L49,202.0938 L49,204.0938 L49,204.5781 L48.375,205.0938 L48.375,205.0938 L48,205.0938 L47.625,205.0938 L47,204.5781 L47,204.5781 L47,204.0938 L46,204.0938 Z " fill="#000000"/><text fill="#000000" font-family="sans-serif" font-size="12" font-style="italic" lengthAdjust="spacing" textLength="43" x="84.5" y="200.457">«entity»</text><text fill="#000000" font-family="sans-serif" font-size="12" lengthAdjust="spacing" textLength="89" x="61.5" y="215.5508">ChargingStation</text><line style="stroke:#A80036;stroke-width:1.5;" x1="33.5" x2="152.5" y1="223.1875" y2="223.1875"/><!--MD5=[a81e698ada9b821103f36bc5d49e376e]
class WarehouseIndentifier--><rect codeLine="25" fill="#F5F5DC" filter="url(#f1dnsf8bueyuk6)" height="48.1875" id="WarehouseIndentifier" style="stroke:#A80036;stroke-width:1.5;" width="150" x="189" y="183"/><ellipse cx="204" cy="203.0938" fill="#FF8B40" rx="11" ry="11" style="stroke:#A80036;stroke-width:1.0;"/><path d="M204,206.375 L205.5313,200.8438 L205.5313,200.8438 L205.0156,200.8438 L204.5,200.2188 L204.5,199.8438 L204.5,199.4688 L205.0156,198.8438 L205.5313,198.8438 L207.4063,198.8438 L207.9844,198.8438 L208.5,199.4688 L208.5,199.8438 L208.5,200.2188 L207.9844,200.8438 L207.9844,200.8438 L207.5313,200.8438 L205.1875,208.8438 L202.8125,208.8438 L200.3438,200.8438 L200.0156,200.8438 L200.0156,200.8438 L199.5,200.2188 L199.5,199.8438 L199.5,199.4688 L200.0156,198.8438 L200.5938,198.8438 L202.4688,198.8438 L202.9844,198.8438 L203.5,199.4688 L203.5,199.8438 L203.5,200.2188 L202.9844,200.8438 L202.4688,200.8438 L202.4688,200.8438 L204,206.375 Z " fill="#000000"/><text fill="#000000" font-family="sans-serif" font-size="12" font-style="italic" lengthAdjust="spacing" textLength="81" x="236.5" y="200.457">«value object»</text><text fill="#000000" font-family="sans-serif" font-size="12" lengthAdjust="spacing" textLength="118" x="218" y="215.5508">WarehouseIndentifier</text><line style="stroke:#A80036;stroke-width:1.5;" x1="190" x2="338" y1="223.1875" y2="223.1875"/><!--MD5=[210cbcca56bc29863c9dfa6d2a050332]
class WarehouseDesignation--><rect codeLine="26" fill="#F5F5DC" filter="url(#f1dnsf8bueyuk6)" height="48.1875" id="WarehouseDesignation" style="stroke:#A80036;stroke-width:1.5;" width="163" x="374.5" y="183"/><ellipse cx="389.5" cy="203.0938" fill="#FF8B40" rx="11" ry="11" style="stroke:#A80036;stroke-width:1.0;"/><path d="M389.5,206.375 L391.0313,200.8438 L391.0313,200.8438 L390.5156,200.8438 L390,200.2188 L390,199.8438 L390,199.4688 L390.5156,198.8438 L391.0313,198.8438 L392.9063,198.8438 L393.4844,198.8438 L394,199.4688 L394,199.8438 L394,200.2188 L393.4844,200.8438 L393.4844,200.8438 L393.0313,200.8438 L390.6875,208.8438 L388.3125,208.8438 L385.8438,200.8438 L385.5156,200.8438 L385.5156,200.8438 L385,200.2188 L385,199.8438 L385,199.4688 L385.5156,198.8438 L386.0938,198.8438 L387.9688,198.8438 L388.4844,198.8438 L389,199.4688 L389,199.8438 L389,200.2188 L388.4844,200.8438 L387.9688,200.8438 L387.9688,200.8438 L389.5,206.375 Z " fill="#000000"/><text fill="#000000" font-family="sans-serif" font-size="12" font-style="italic" lengthAdjust="spacing" textLength="81" x="428.5" y="200.457">«value object»</text><text fill="#000000" font-family="sans-serif" font-size="12" lengthAdjust="spacing" textLength="131" x="403.5" y="215.5508">WarehouseDesignation</text><line style="stroke:#A80036;stroke-width:1.5;" x1="375.5" x2="536.5" y1="223.1875" y2="223.1875"/><!--MD5=[3ba557464ddf1e7ecaf9fea7de27626b]
class WarehouseAddress--><rect codeLine="27" fill="#F5F5DC" filter="url(#f1dnsf8bueyuk6)" height="48.1875" id="WarehouseAddress" style="stroke:#A80036;stroke-width:1.5;" width="142" x="573" y="183"/><ellipse cx="588" cy="203.0938" fill="#FF8B40" rx="11" ry="11" style="stroke:#A80036;stroke-width:1.0;"/><path d="M588,206.375 L589.5313,200.8438 L589.5313,200.8438 L589.0156,200.8438 L588.5,200.2188 L588.5,199.8438 L588.5,199.4688 L589.0156,198.8438 L589.5313,198.8438 L591.4063,198.8438 L591.9844,198.8438 L592.5,199.4688 L592.5,199.8438 L592.5,200.2188 L591.9844,200.8438 L591.9844,200.8438 L591.5313,200.8438 L589.1875,208.8438 L586.8125,208.8438 L584.3438,200.8438 L584.0156,200.8438 L584.0156,200.8438 L583.5,200.2188 L583.5,199.8438 L583.5,199.4688 L584.0156,198.8438 L584.5938,198.8438 L586.4688,198.8438 L586.9844,198.8438 L587.5,199.4688 L587.5,199.8438 L587.5,200.2188 L586.9844,200.8438 L586.4688,200.8438 L586.4688,200.8438 L588,206.375 Z " fill="#000000"/><text fill="#000000" font-family="sans-serif" font-size="12" font-style="italic" lengthAdjust="spacing" textLength="81" x="616.5" y="200.457">«value object»</text><text fill="#000000" font-family="sans-serif" font-size="12" lengthAdjust="spacing" textLength="110" x="602" y="215.5508">WarehouseAddress</text><line style="stroke:#A80036;stroke-width:1.5;" x1="574" x2="714" y1="223.1875" y2="223.1875"/><!--MD5=[2ba209925a3aa0f479d78f4b6938c260]
class WarehouseCoordinates--><rect codeLine="28" fill="#F5F5DC" filter="url(#f1dnsf8bueyuk6)" height="48.1875" id="WarehouseCoordinates" style="stroke:#A80036;stroke-width:1.5;" width="164" x="750" y="183"/><ellipse cx="765" cy="203.0938" fill="#FF8B40" rx="11" ry="11" style="stroke:#A80036;stroke-width:1.0;"/><path d="M765,206.375 L766.5313,200.8438 L766.5313,200.8438 L766.0156,200.8438 L765.5,200.2188 L765.5,199.8438 L765.5,199.4688 L766.0156,198.8438 L766.5313,198.8438 L768.4063,198.8438 L768.9844,198.8438 L769.5,199.4688 L769.5,199.8438 L769.5,200.2188 L768.9844,200.8438 L768.9844,200.8438 L768.5313,200.8438 L766.1875,208.8438 L763.8125,208.8438 L761.3438,200.8438 L761.0156,200.8438 L761.0156,200.8438 L760.5,200.2188 L760.5,199.8438 L760.5,199.4688 L761.0156,198.8438 L761.5938,198.8438 L763.4688,198.8438 L763.9844,198.8438 L764.5,199.4688 L764.5,199.8438 L764.5,200.2188 L763.9844,200.8438 L763.4688,200.8438 L763.4688,200.8438 L765,206.375 Z " fill="#000000"/><text fill="#000000" font-family="sans-serif" font-size="12" font-style="italic" lengthAdjust="spacing" textLength="81" x="804.5" y="200.457">«value object»</text><text fill="#000000" font-family="sans-serif" font-size="12" lengthAdjust="spacing" textLength="132" x="779" y="215.5508">WarehouseCoordinates</text><line style="stroke:#A80036;stroke-width:1.5;" x1="751" x2="913" y1="223.1875" y2="223.1875"/><!--MD5=[7c19c5caca2eede466ce38ae980bae3f]
class StoreName--><rect codeLine="32" fill="#F5F5DC" filter="url(#f1dnsf8bueyuk6)" height="48.1875" id="StoreName" style="stroke:#A80036;stroke-width:1.5;" width="109" x="1120.5" y="183"/><ellipse cx="1135.5" cy="203.0938" fill="#FF8B40" rx="11" ry="11" style="stroke:#A80036;stroke-width:1.0;"/><path d="M1135.5,206.375 L1137.0313,200.8438 L1137.0313,200.8438 L1136.5156,200.8438 L1136,200.2188 L1136,199.8438 L1136,199.4688 L1136.5156,198.8438 L1137.0313,198.8438 L1138.9063,198.8438 L1139.4844,198.8438 L1140,199.4688 L1140,199.8438 L1140,200.2188 L1139.4844,200.8438 L1139.4844,200.8438 L1139.0313,200.8438 L1136.6875,208.8438 L1134.3125,208.8438 L1131.8438,200.8438 L1131.5156,200.8438 L1131.5156,200.8438 L1131,200.2188 L1131,199.8438 L1131,199.4688 L1131.5156,198.8438 L1132.0938,198.8438 L1133.9688,198.8438 L1134.4844,198.8438 L1135,199.4688 L1135,199.8438 L1135,200.2188 L1134.4844,200.8438 L1133.9688,200.8438 L1133.9688,200.8438 L1135.5,206.375 Z " fill="#000000"/><text fill="#000000" font-family="sans-serif" font-size="12" font-style="italic" lengthAdjust="spacing" textLength="81" x="1147.5" y="200.457">«value object»</text><text fill="#000000" font-family="sans-serif" font-size="12" lengthAdjust="spacing" textLength="63" x="1156.5" y="215.5508">StoreName</text><line style="stroke:#A80036;stroke-width:1.5;" x1="1121.5" x2="1228.5" y1="223.1875" y2="223.1875"/><!--MD5=[ff108ccad0f59c84530b9f5be2d99533]
class StoreIndentifier--><rect codeLine="33" fill="#F5F5DC" filter="url(#f1dnsf8bueyuk6)" height="48.1875" id="StoreIndentifier" style="stroke:#A80036;stroke-width:1.5;" width="115" x="1264.5" y="183"/><ellipse cx="1279.5" cy="203.0938" fill="#FF8B40" rx="11" ry="11" style="stroke:#A80036;stroke-width:1.0;"/><path d="M1279.5,206.375 L1281.0313,200.8438 L1281.0313,200.8438 L1280.5156,200.8438 L1280,200.2188 L1280,199.8438 L1280,199.4688 L1280.5156,198.8438 L1281.0313,198.8438 L1282.9063,198.8438 L1283.4844,198.8438 L1284,199.4688 L1284,199.8438 L1284,200.2188 L1283.4844,200.8438 L1283.4844,200.8438 L1283.0313,200.8438 L1280.6875,208.8438 L1278.3125,208.8438 L1275.8438,200.8438 L1275.5156,200.8438 L1275.5156,200.8438 L1275,200.2188 L1275,199.8438 L1275,199.4688 L1275.5156,198.8438 L1276.0938,198.8438 L1277.9688,198.8438 L1278.4844,198.8438 L1279,199.4688 L1279,199.8438 L1279,200.2188 L1278.4844,200.8438 L1277.9688,200.8438 L1277.9688,200.8438 L1279.5,206.375 Z " fill="#000000"/><text fill="#000000" font-family="sans-serif" font-size="12" font-style="italic" lengthAdjust="spacing" textLength="81" x="1294.5" y="200.457">«value object»</text><text fill="#000000" font-family="sans-serif" font-size="12" lengthAdjust="spacing" textLength="83" x="1293.5" y="215.5508">StoreIndentifier</text><line style="stroke:#A80036;stroke-width:1.5;" x1="1265.5" x2="1378.5" y1="223.1875" y2="223.1875"/><!--MD5=[b450bbf24faa48c33f8e81045f209469]
class CurrentOccupation--><rect codeLine="36" fill="#F5F5DC" filter="url(#f1dnsf8bueyuk6)" height="48.1875" id="CurrentOccupation" style="stroke:#A80036;stroke-width:1.5;" width="135" x="32.5" y="292"/><ellipse cx="47.5" cy="312.0938" fill="#FF8B40" rx="11" ry="11" style="stroke:#A80036;stroke-width:1.0;"/><path d="M47.5,315.375 L49.0313,309.8438 L49.0313,309.8438 L48.5156,309.8438 L48,309.2188 L48,308.8438 L48,308.4688 L48.5156,307.8438 L49.0313,307.8438 L50.9063,307.8438 L51.4844,307.8438 L52,308.4688 L52,308.8438 L52,309.2188 L51.4844,309.8438 L51.4844,309.8438 L51.0313,309.8438 L48.6875,317.8438 L46.3125,317.8438 L43.8438,309.8438 L43.5156,309.8438 L43.5156,309.8438 L43,309.2188 L43,308.8438 L43,308.4688 L43.5156,307.8438 L44.0938,307.8438 L45.9688,307.8438 L46.4844,307.8438 L47,308.4688 L47,308.8438 L47,309.2188 L46.4844,309.8438 L45.9688,309.8438 L45.9688,309.8438 L47.5,315.375 Z " fill="#000000"/><text fill="#000000" font-family="sans-serif" font-size="12" font-style="italic" lengthAdjust="spacing" textLength="81" x="72.5" y="309.457">«value object»</text><text fill="#000000" font-family="sans-serif" font-size="12" lengthAdjust="spacing" textLength="103" x="61.5" y="324.5508">CurrentOccupation</text><line style="stroke:#A80036;stroke-width:1.5;" x1="33.5" x2="166.5" y1="332.1875" y2="332.1875"/><!--MD5=[252edd71a4be5f43065b911bb900d8ae]
class TotalOccupation--><rect codeLine="37" fill="#F5F5DC" filter="url(#f1dnsf8bueyuk6)" height="48.1875" id="TotalOccupation" style="stroke:#A80036;stroke-width:1.5;" width="121" x="202.5" y="292"/><ellipse cx="217.5" cy="312.0938" fill="#FF8B40" rx="11" ry="11" style="stroke:#A80036;stroke-width:1.0;"/><path d="M217.5,315.375 L219.0313,309.8438 L219.0313,309.8438 L218.5156,309.8438 L218,309.2188 L218,308.8438 L218,308.4688 L218.5156,307.8438 L219.0313,307.8438 L220.9063,307.8438 L221.4844,307.8438 L222,308.4688 L222,308.8438 L222,309.2188 L221.4844,309.8438 L221.4844,309.8438 L221.0313,309.8438 L218.6875,317.8438 L216.3125,317.8438 L213.8438,309.8438 L213.5156,309.8438 L213.5156,309.8438 L213,309.2188 L213,308.8438 L213,308.4688 L213.5156,307.8438 L214.0938,307.8438 L215.9688,307.8438 L216.4844,307.8438 L217,308.4688 L217,308.8438 L217,309.2188 L216.4844,309.8438 L215.9688,309.8438 L215.9688,309.8438 L217.5,315.375 Z " fill="#000000"/><text fill="#000000" font-family="sans-serif" font-size="12" font-style="italic" lengthAdjust="spacing" textLength="81" x="235.5" y="309.457">«value object»</text><text fill="#000000" font-family="sans-serif" font-size="12" lengthAdjust="spacing" textLength="89" x="231.5" y="324.5508">TotalOccupation</text><line style="stroke:#A80036;stroke-width:1.5;" x1="203.5" x2="322.5" y1="332.1875" y2="332.1875"/><!--MD5=[a68699f6f85ad614fd0386eaab93618a]
class WarehouseAltitude--><rect codeLine="29" fill="#F5F5DC" filter="url(#f1dnsf8bueyuk6)" height="48.1875" id="WarehouseAltitude" style="stroke:#A80036;stroke-width:1.5;" width="136" x="949" y="183"/><ellipse cx="964" cy="203.0938" fill="#FF8B40" rx="11" ry="11" style="stroke:#A80036;stroke-width:1.0;"/><path d="M964,206.375 L965.5313,200.8438 L965.5313,200.8438 L965.0156,200.8438 L964.5,200.2188 L964.5,199.8438 L964.5,199.4688 L965.0156,198.8438 L965.5313,198.8438 L967.4063,198.8438 L967.9844,198.8438 L968.5,199.4688 L968.5,199.8438 L968.5,200.2188 L967.9844,200.8438 L967.9844,200.8438 L967.5313,200.8438 L965.1875,208.8438 L962.8125,208.8438 L960.3438,200.8438 L960.0156,200.8438 L960.0156,200.8438 L959.5,200.2188 L959.5,199.8438 L959.5,199.4688 L960.0156,198.8438 L960.5938,198.8438 L962.4688,198.8438 L962.9844,198.8438 L963.5,199.4688 L963.5,199.8438 L963.5,200.2188 L962.9844,200.8438 L962.4688,200.8438 L962.4688,200.8438 L964,206.375 Z " fill="#000000"/><text fill="#000000" font-family="sans-serif" font-size="12" font-style="italic" lengthAdjust="spacing" textLength="81" x="989.5" y="200.457">«value object»</text><text fill="#000000" font-family="sans-serif" font-size="12" lengthAdjust="spacing" textLength="104" x="978" y="215.5508">WarehouseAltitude</text><line style="stroke:#A80036;stroke-width:1.5;" x1="950" x2="1084" y1="223.1875" y2="223.1875"/><!--MD5=[ae60def7b647bcc25646f64758b2f8c8]
reverse link Warehouse to Store--><path codeLine="40" d="M697.1,73.5 C805.11,73.5 1047.91,73.5 1139.3,73.5 " fill="none" id="Warehouse-backto-Store" style="stroke:#222222;stroke-width:1.0;"/><polygon fill="#222222" points="692.06,73.5,701.06,77.5,697.06,73.5,701.06,69.5,692.06,73.5" style="stroke:#222222;stroke-width:1.0;"/><text fill="#000000" font-family="sans-serif" font-size="13" lengthAdjust="spacing" textLength="90" x="870.75" y="66.9951">associated with</text><text fill="#000000" font-family="sans-serif" font-size="13" lengthAdjust="spacing" textLength="7" x="699.9551" y="69.7755">1</text><text fill="#000000" font-family="sans-serif" font-size="13" lengthAdjust="spacing" textLength="7" x="1124.5825" y="69.4363">1</text><!--MD5=[dc32dc1351b98655976dc223324cbacb]
link Warehouse to ChargingStation--><path codeLine="41" d="M595.87,84.61 C510.25,102.8 325.99,142.92 172,183 C167.63,184.14 163.14,185.34 158.63,186.58 " fill="none" id="Warehouse-to-ChargingStation" style="stroke:#222222;stroke-width:1.0;"/><polygon fill="#222222" points="153.72,187.94,163.4598,189.4017,158.5398,186.6099,161.3316,181.6899,153.72,187.94" style="stroke:#222222;stroke-width:1.0;"/><text fill="#000000" font-family="sans-serif" font-size="13" lengthAdjust="spacing" textLength="21" x="366" y="149.4951">has</text><text fill="#000000" font-family="sans-serif" font-size="13" lengthAdjust="spacing" textLength="7" x="580.9642" y="82.5867">1</text><text fill="#000000" font-family="sans-serif" font-size="13" lengthAdjust="spacing" textLength="7" x="161.5468" y="182.1472">1</text><!--MD5=[acba53dabb83cff3918e642f9fb2e641]
link Warehouse to WarehouseIndentifier--><path codeLine="43" d="M595.87,91.15 C530.11,113.91 411.68,154.9 335.51,181.25 " fill="none" id="Warehouse-to-WarehouseIndentifier" style="stroke:#222222;stroke-width:1.0;"/><polygon fill="#222222" points="330.56,182.97,340.3743,183.7948,335.2831,181.3291,337.7488,176.2379,330.56,182.97" style="stroke:#222222;stroke-width:1.0;"/><text fill="#000000" font-family="sans-serif" font-size="13" lengthAdjust="spacing" textLength="7" x="580.9642" y="108.5782">1</text><text fill="#000000" font-family="sans-serif" font-size="13" lengthAdjust="spacing" textLength="7" x="339.7191" y="172.2785">1</text><!--MD5=[408b3fa0744384405c2ff7e0b037b322]
link Warehouse to WarehouseDesignation--><path codeLine="44" d="M599.92,105.33 C567.54,127.98 524.04,158.41 493.36,179.87 " fill="none" id="Warehouse-to-WarehouseDesignation" style="stroke:#222222;stroke-width:1.0;"/><polygon fill="#222222" points="488.93,182.97,498.5965,181.0835,493.0255,180.1017,494.0073,174.5307,488.93,182.97" style="stroke:#222222;stroke-width:1.0;"/><text fill="#000000" font-family="sans-serif" font-size="13" lengthAdjust="spacing" textLength="7" x="591.9308" y="126.6736">1</text><text fill="#000000" font-family="sans-serif" font-size="13" lengthAdjust="spacing" textLength="7" x="489.4714" y="172.2785">1</text><!--MD5=[6fee932d99f90e2a2bf9abfdfede3fd4]
link Warehouse to WarehouseAddress--><path codeLine="45" d="M644,105.33 C644,127.17 644,156.24 644,177.52 " fill="none" id="Warehouse-to-WarehouseAddress" style="stroke:#222222;stroke-width:1.0;"/><polygon fill="#222222" points="644,182.76,648,173.76,644,177.76,640,173.76,644,182.76" style="stroke:#222222;stroke-width:1.0;"/><text fill="#000000" font-family="sans-serif" font-size="13" lengthAdjust="spacing" textLength="7" x="636.3109" y="126.6736">1</text><text fill="#000000" font-family="sans-serif" font-size="13" lengthAdjust="spacing" textLength="7" x="636.1031" y="172.0146">1</text><!--MD5=[e6395b872613880e86cf98f20ef06951]
link Warehouse to WarehouseCoordinates--><path codeLine="46" d="M688.08,105.33 C720.46,127.98 763.96,158.41 794.64,179.87 " fill="none" id="Warehouse-to-WarehouseCoordinates" style="stroke:#222222;stroke-width:1.0;"/><polygon fill="#222222" points="799.07,182.97,793.9927,174.5307,794.9745,180.1017,789.4035,181.0835,799.07,182.97" style="stroke:#222222;stroke-width:1.0;"/><text fill="#000000" font-family="sans-serif" font-size="13" lengthAdjust="spacing" textLength="7" x="689.0692" y="126.6736">1</text><text fill="#000000" font-family="sans-serif" font-size="13" lengthAdjust="spacing" textLength="7" x="782.7348" y="172.2785">1</text><!--MD5=[92f17753c6c300d26bc20ed650ab49b4]
link Warehouse to WarehouseAltitude--><path codeLine="47" d="M692.38,91.56 C757.09,114.37 872.28,154.98 946.61,181.18 " fill="none" id="Warehouse-to-WarehouseAltitude" style="stroke:#222222;stroke-width:1.0;"/><polygon fill="#222222" points="951.44,182.89,944.2758,176.1317,946.7229,181.2319,941.6228,183.679,951.44,182.89" style="stroke:#222222;stroke-width:1.0;"/><text fill="#000000" font-family="sans-serif" font-size="13" lengthAdjust="spacing" textLength="7" x="699.9999" y="90.5378">1</text><text fill="#000000" font-family="sans-serif" font-size="13" lengthAdjust="spacing" textLength="7" x="933.8652" y="175.4808">1</text><!--MD5=[ae3bd1fc9e00019e04897812083ba84e]
link Store to StoreName--><path codeLine="49" d="M1175,97.71 C1175,119.92 1175,153.48 1175,177.34 " fill="none" id="Store-to-StoreName" style="stroke:#222222;stroke-width:1.0;"/><polygon fill="#222222" points="1175,182.58,1179,173.58,1175,177.58,1171,173.58,1175,182.58" style="stroke:#222222;stroke-width:1.0;"/><text fill="#000000" font-family="sans-serif" font-size="13" lengthAdjust="spacing" textLength="7" x="1167.1469" y="119.0763">1</text><text fill="#000000" font-family="sans-serif" font-size="13" lengthAdjust="spacing" textLength="7" x="1167.1469" y="172.1927">1</text><!--MD5=[fef2d2ba648fbb8847e7d28f4575266f]
link Store to StoreIndentifier--><path codeLine="50" d="M1200.94,97.71 C1226.4,120.48 1265.18,155.17 1291.96,179.13 " fill="none" id="Store-to-StoreIndentifier" style="stroke:#222222;stroke-width:1.0;"/><polygon fill="#222222" points="1295.82,182.58,1291.7699,173.6024,1292.0901,179.2502,1286.4423,179.5703,1295.82,182.58" style="stroke:#222222;stroke-width:1.0;"/><text fill="#000000" font-family="sans-serif" font-size="13" lengthAdjust="spacing" textLength="7" x="1199.4098" y="119.0763">1</text><text fill="#000000" font-family="sans-serif" font-size="13" lengthAdjust="spacing" textLength="7" x="1281.5855" y="172.1927">1</text><!--MD5=[3a1645d93db7f0050e5d6caa5346b5bf]
link ChargingStation to CurrentOccupation--><path codeLine="52" d="M94.52,231.22 C95.58,247.48 97.01,269.32 98.14,286.62 " fill="none" id="ChargingStation-to-CurrentOccupation" style="stroke:#222222;stroke-width:1.0;"/><polygon fill="#222222" points="98.48,291.83,101.8795,282.5864,98.1512,286.8408,93.8968,283.1125,98.48,291.83" style="stroke:#222222;stroke-width:1.0;"/><text fill="#000000" font-family="sans-serif" font-size="13" lengthAdjust="spacing" textLength="7" x="87.0374" y="252.5887">1</text><text fill="#000000" font-family="sans-serif" font-size="13" lengthAdjust="spacing" textLength="7" x="90.1936" y="281.1026">1</text><!--MD5=[d7bd9df21f50b5584ceb49d06cc4597e]
link ChargingStation to TotalOccupation--><path codeLine="53" d="M129.89,231.22 C156.95,248.25 193.73,271.4 221.76,289.04 " fill="none" id="ChargingStation-to-TotalOccupation" style="stroke:#222222;stroke-width:1.0;"/><polygon fill="#222222" points="226.18,291.83,220.6952,283.6497,221.9488,289.1659,216.4327,290.4196,226.18,291.83" style="stroke:#222222;stroke-width:1.0;"/><text fill="#000000" font-family="sans-serif" font-size="13" lengthAdjust="spacing" textLength="7" x="131.0288" y="252.5887">1</text><text fill="#000000" font-family="sans-serif" font-size="13" lengthAdjust="spacing" textLength="7" x="208.848" y="281.1026">1</text><!--MD5=[9aac83d96793819da7651d0648d56cd8]
@startuml DMWarehouseManagement

skinparam classAttributeIconSize 0
hide empty attributes
skinparam classBackgroundColor beige
skinparam ArrowColor #222222

package "<<aggregate>> WarehouseManagement"{
  entity Warehouse
  entity Store
  entity ChargingStation
  class WarehouseIndentifier
  class WarehouseDesignation
  class WarehouseAddress
  class WarehouseCoordinates
  class StoreName
  class StoreIndentifier
  class CurrentOccupation
  class TotalOccupation
  class WarehouseAltitude

}


entity Warehouse <<entity>> <<Root>>
class WarehouseIndentifier <<(V,#FF8B40) value object>>
class WarehouseDesignation <<(V,#FF8B40) value object>>
class WarehouseAddress <<(V,#FF8B40) value object>>
class WarehouseCoordinates <<(V,#FF8B40) value object>>
class WarehouseAltitude <<(V,#FF8B40) value object>>

entity Store <<entity>>
class StoreName <<(V,#FF8B40) value object>>
class StoreIndentifier <<(V,#FF8B40) value object>>

entity ChargingStation <<entity>>
class CurrentOccupation <<(V,#FF8B40) value object>>
class TotalOccupation <<(V,#FF8B40) value object>>


Warehouse "1" <- "1" Store : associated with
Warehouse "1" - -> "1" ChargingStation: has

Warehouse "1" - -> "1" WarehouseIndentifier
Warehouse "1" - -> "1" WarehouseDesignation
Warehouse "1" - -> "1" WarehouseAddress
Warehouse "1" - -> "1" WarehouseCoordinates
Warehouse "1" - -> "1" WarehouseAltitude

Store "1" - -> "1" StoreName
Store "1" - -> "1" StoreIndentifier

ChargingStation "1" - -> "1" CurrentOccupation
ChargingStation "1" - -> "1" TotalOccupation

@enduml

PlantUML version 1.2022.1(Tue Feb 01 18:19:58 GMT 2022)
(GPL source distribution)
Java Runtime: OpenJDK Runtime Environment
JVM: OpenJDK 64-Bit Server VM
Default Encoding: Cp1252
Language: pt
Country: BR
--></g></svg>