<?xml version="1.0" encoding="UTF-8" standalone="no"?><svg xmlns="http://www.w3.org/2000/svg" xmlns:xlink="http://www.w3.org/1999/xlink" contentScriptType="application/ecmascript" contentStyleType="text/css" height="196px" preserveAspectRatio="none" style="width:987px;height:196px;background:#FFFFFF;" version="1.1" viewBox="0 0 987 196" width="987px" zoomAndPan="magnify"><defs><filter height="300%" id="ffo3187myjdmy" width="300%" x="-1" y="-1"><feGaussianBlur result="blurOut" stdDeviation="2.0"/><feColorMatrix in="blurOut" result="blurOut2" type="matrix" values="0 0 0 0 0 0 0 0 0 0 0 0 0 0 0 0 0 0 .4 0"/><feOffset dx="4.0" dy="4.0" in="blurOut2" result="blurOut3"/><feBlend in="SourceGraphic" in2="blurOut3" mode="normal"/></filter></defs><g><!--MD5=[97ab183161fd5d1db7fba7485cf76add]
entity Admin--><ellipse cx="501.5" cy="22" fill="#FEFECE" filter="url(#ffo3187myjdmy)" rx="16" ry="16" style="stroke:#A80036;stroke-width:1.5;"/><path d="M501.5,42 C505.5,42 508.5,42 512.5,38 C520.5,38 528.5,46 528.5,54 L528.5,58 C528.5,62 524.5,66 520.5,66 L482.5,66 C478.5,66 474.5,62 474.5,58 L474.5,54 C474.5,46 482.5,38 490.5,38 C494.5,42 497.5,42 501.5,42 " fill="#FEFECE" filter="url(#ffo3187myjdmy)" style="stroke:#A80036;stroke-width:1.5;"/><text fill="#000000" font-family="sans-serif" font-size="14" lengthAdjust="spacing" textLength="133" x="435" y="82.0332">Warehouse Manager</text><ellipse cx="91.2698" cy="164.954" fill="#FEFECE" filter="url(#ffo3187myjdmy)" rx="85.2698" ry="19.454" style="stroke:#A80036;stroke-width:1.5;"/><text fill="#000000" font-family="sans-serif" font-size="14" lengthAdjust="spacing" textLength="127" x="27.7698" y="168.6825">Create Warehouses</text><ellipse cx="298.6163" cy="165.1233" fill="#FEFECE" filter="url(#ffo3187myjdmy)" rx="86.1163" ry="19.6233" style="stroke:#A80036;stroke-width:1.5;"/><text fill="#000000" font-family="sans-serif" font-size="14" lengthAdjust="spacing" textLength="129" x="234.1163" y="168.8518">Update Warehouses</text><ellipse cx="501.5075" cy="165.2015" fill="#FEFECE" filter="url(#ffo3187myjdmy)" rx="81.5075" ry="18.7015" style="stroke:#A80036;stroke-width:1.5;"/><text fill="#000000" font-family="sans-serif" font-size="14" lengthAdjust="spacing" textLength="118" x="442.1675" y="169.0304">Read Warehouses</text><ellipse cx="702.4267" cy="164.7853" fill="#FEFECE" filter="url(#ffo3187myjdmy)" rx="84.4267" ry="19.2853" style="stroke:#A80036;stroke-width:1.5;"/><text fill="#000000" font-family="sans-serif" font-size="14" lengthAdjust="spacing" textLength="125" x="639.9267" y="168.5139">Delete Warehouses</text><ellipse cx="898.7363" cy="165.2473" fill="#FEFECE" filter="url(#ffo3187myjdmy)" rx="76.7363" ry="17.7473" style="stroke:#A80036;stroke-width:1.5;"/><text fill="#000000" font-family="sans-serif" font-size="14" lengthAdjust="spacing" textLength="106" x="843.2006" y="169.6555">List Warehouses</text><!--MD5=[010bdba11f7026484c94878b456da6d9]
link Admin to US1--><path d="M434.71,65.22 C354.78,88.23 222.37,126.33 147.53,147.87 " fill="none" id="Admin-to-US1" style="stroke:#A80036;stroke-width:1.0;"/><polygon fill="#A80036" points="142.69,149.27,152.4453,150.6245,147.4949,147.887,150.2324,142.9366,142.69,149.27" style="stroke:#A80036;stroke-width:1.0;"/><!--MD5=[0216801507526561d239633d456b6b8c]
link Admin to US2--><path d="M434.75,84.8 C400.63,104.63 360.56,127.92 332.75,144.09 " fill="none" id="Admin-to-US2" style="stroke:#A80036;stroke-width:1.0;"/><polygon fill="#A80036" points="328.39,146.62,338.1799,145.5443,332.7099,144.1024,334.1518,138.6324,328.39,146.62" style="stroke:#A80036;stroke-width:1.0;"/><!--MD5=[f1a67b75961a2c853b26dd5edbc417b0]
link Admin to US3--><path d="M501.5,85.62 C501.5,104.15 501.5,125.54 501.5,141.29 " fill="none" id="Admin-to-US3" style="stroke:#A80036;stroke-width:1.0;"/><polygon fill="#A80036" points="501.5,146.41,505.5,137.41,501.5,141.41,497.5,137.41,501.5,146.41" style="stroke:#A80036;stroke-width:1.0;"/><!--MD5=[2123d53f313ff7a4c1ca99c336ca3893]
link Admin to US4--><path d="M568.15,85.13 C601.64,104.79 640.8,127.78 668.18,143.85 " fill="none" id="Admin-to-US4" style="stroke:#A80036;stroke-width:1.0;"/><polygon fill="#A80036" points="672.81,146.57,667.0679,138.5682,668.4963,144.0418,663.0227,145.4701,672.81,146.57" style="stroke:#A80036;stroke-width:1.0;"/><!--MD5=[cd001ac715c3b3271e8905a63127b805]
link Admin to US5--><path d="M568.4,65.88 C647.7,89.46 778.02,128.19 848.87,149.25 " fill="none" id="Admin-to-US5" style="stroke:#A80036;stroke-width:1.0;"/><polygon fill="#A80036" points="853.87,150.73,846.3675,144.3494,849.0739,149.3169,844.1064,152.0232,853.87,150.73" style="stroke:#A80036;stroke-width:1.0;"/><!--MD5=[3ab506a9033dcfdefcc0e098edc8800f]
@startuml

skinparam actorStyle awesome
"Warehouse Manager" as Admin

"Create Warehouses" as (US1)
"Update Warehouses" as (US2)
"Read Warehouses" as (US3)
"Delete Warehouses" as (US4)
"List Warehouses" as (US5)

Admin - -> (US1)
Admin - -> (US2)
Admin - -> (US3)
Admin - -> (US4)
Admin - -> (US5)
@enduml

PlantUML version 1.2022.1(Tue Feb 01 18:19:58 GMT 2022)
(GPL source distribution)
Java Runtime: OpenJDK Runtime Environment
JVM: OpenJDK 64-Bit Server VM
Default Encoding: Cp1252
Language: pt
Country: BR
--></g></svg>