<?xml version="1.0" encoding="UTF-8" standalone="no"?><svg xmlns="http://www.w3.org/2000/svg" xmlns:xlink="http://www.w3.org/1999/xlink" contentStyleType="text/css" height="765px" preserveAspectRatio="none" style="width:970px;height:765px;background:#FFFFFF;" version="1.1" viewBox="0 0 970 765" width="970px" zoomAndPan="magnify"><defs/><g><rect fill="#DDDDDD" height="753.0156" style="stroke:#181818;stroke-width:0.5;" width="661.5" x="295.5" y="6"/><text fill="#000000" font-family="sans-serif" font-size="13" font-weight="bold" lengthAdjust="spacing" textLength="102" x="575.25" y="19.4951">&lt;&lt;System(C4)&gt;&gt;</text><text fill="#000000" font-family="sans-serif" font-size="13" font-weight="bold" lengthAdjust="spacing" textLength="46" x="603.25" y="35.8467">System</text><rect fill="#FFFFFF" height="30.3516" style="stroke:#181818;stroke-width:1.0;" width="10" x="354.5" y="125.2734"/><rect fill="#FFFFFF" height="482.4297" style="stroke:#181818;stroke-width:1.0;" width="10" x="354.5" y="185.9766"/><rect fill="#FFFFFF" height="406.7266" style="stroke:#181818;stroke-width:1.0;" width="10" x="549.5" y="216.3281"/><rect fill="#FFFFFF" height="422.7266" style="stroke:#181818;stroke-width:1.0;" width="10" x="863.5" y="246.6797"/><rect fill="none" height="399.7266" style="stroke:#000000;stroke-width:1.5;" width="953" x="10" y="261.6797"/><line style="stroke:#181818;stroke-width:0.5;stroke-dasharray:5.0,5.0;" x1="80" x2="80" y1="92.9219" y2="678.4063"/><line style="stroke:#181818;stroke-width:0.5;stroke-dasharray:5.0,5.0;" x1="359.5" x2="359.5" y1="92.9219" y2="678.4063"/><line style="stroke:#181818;stroke-width:0.5;stroke-dasharray:5.0,5.0;" x1="554.5" x2="554.5" y1="92.9219" y2="678.4063"/><line style="stroke:#181818;stroke-width:0.5;stroke-dasharray:5.0,5.0;" x1="868" x2="868" y1="92.9219" y2="678.4063"/><text fill="#000000" font-family="sans-serif" font-size="14" lengthAdjust="spacing" textLength="115" x="20" y="89.8457">Logistics Manager</text><ellipse cx="80.5" cy="23.8125" fill="#E2E2F0" rx="8" ry="8" style="stroke:#181818;stroke-width:0.5;"/><path d="M80.5,31.8125 L80.5,58.8125 M67.5,39.8125 L93.5,39.8125 M80.5,58.8125 L67.5,73.8125 M80.5,58.8125 L93.5,73.8125 " fill="none" style="stroke:#181818;stroke-width:0.5;"/><text fill="#000000" font-family="sans-serif" font-size="14" lengthAdjust="spacing" textLength="115" x="20" y="691.9395">Logistics Manager</text><ellipse cx="80.5" cy="703.5156" fill="#E2E2F0" rx="8" ry="8" style="stroke:#181818;stroke-width:0.5;"/><path d="M80.5,711.5156 L80.5,738.5156 M67.5,719.5156 L93.5,719.5156 M80.5,738.5156 L67.5,753.5156 M80.5,738.5156 L93.5,753.5156 " fill="none" style="stroke:#181818;stroke-width:0.5;"/><rect fill="#FFFFFF" height="49.2188" rx="2.5" ry="2.5" style="stroke:#000000;stroke-width:0.5;" width="120" x="299.5" y="42.7031"/><text fill="#000000" font-family="sans-serif" font-size="14" font-style="italic" lengthAdjust="spacing" textLength="106" x="306.5" y="64.2363">«Container(C4)»</text><text fill="#000000" font-family="sans-serif" font-size="14" lengthAdjust="spacing" textLength="27" x="346" y="81.8457">SPA</text><rect fill="#FFFFFF" height="49.2188" rx="2.5" ry="2.5" style="stroke:#000000;stroke-width:0.5;" width="120" x="299.5" y="677.4063"/><text fill="#000000" font-family="sans-serif" font-size="14" font-style="italic" lengthAdjust="spacing" textLength="106" x="306.5" y="698.9395">«Container(C4)»</text><text fill="#000000" font-family="sans-serif" font-size="14" lengthAdjust="spacing" textLength="27" x="346" y="716.5488">SPA</text><rect fill="#FFFFFF" height="49.2188" rx="2.5" ry="2.5" style="stroke:#000000;stroke-width:0.5;" width="120" x="494.5" y="42.7031"/><text fill="#000000" font-family="sans-serif" font-size="14" font-style="italic" lengthAdjust="spacing" textLength="106" x="501.5" y="64.2363">«Container(C4)»</text><text fill="#000000" font-family="sans-serif" font-size="14" lengthAdjust="spacing" textLength="55" x="527" y="81.8457">Logistics</text><rect fill="#FFFFFF" height="49.2188" rx="2.5" ry="2.5" style="stroke:#000000;stroke-width:0.5;" width="120" x="494.5" y="677.4063"/><text fill="#000000" font-family="sans-serif" font-size="14" font-style="italic" lengthAdjust="spacing" textLength="106" x="501.5" y="698.9395">«Container(C4)»</text><text fill="#000000" font-family="sans-serif" font-size="14" lengthAdjust="spacing" textLength="55" x="527" y="716.5488">Logistics</text><rect fill="#FFFFFF" height="49.2188" rx="2.5" ry="2.5" style="stroke:#000000;stroke-width:0.5;" width="169" x="784" y="42.7031"/><text fill="#000000" font-family="sans-serif" font-size="14" font-style="italic" lengthAdjust="spacing" textLength="106" x="815.5" y="64.2363">«Container(C4)»</text><text fill="#000000" font-family="sans-serif" font-size="14" lengthAdjust="spacing" textLength="155" x="791" y="81.8457">WarehouseManagement</text><rect fill="#FFFFFF" height="49.2188" rx="2.5" ry="2.5" style="stroke:#000000;stroke-width:0.5;" width="169" x="784" y="677.4063"/><text fill="#000000" font-family="sans-serif" font-size="14" font-style="italic" lengthAdjust="spacing" textLength="106" x="815.5" y="698.9395">«Container(C4)»</text><text fill="#000000" font-family="sans-serif" font-size="14" lengthAdjust="spacing" textLength="155" x="791" y="716.5488">WarehouseManagement</text><rect fill="#FFFFFF" height="30.3516" style="stroke:#181818;stroke-width:1.0;" width="10" x="354.5" y="125.2734"/><rect fill="#FFFFFF" height="482.4297" style="stroke:#181818;stroke-width:1.0;" width="10" x="354.5" y="185.9766"/><rect fill="#FFFFFF" height="406.7266" style="stroke:#181818;stroke-width:1.0;" width="10" x="549.5" y="216.3281"/><rect fill="#FFFFFF" height="422.7266" style="stroke:#181818;stroke-width:1.0;" width="10" x="863.5" y="246.6797"/><polygon fill="#181818" points="342.5,121.2734,352.5,125.2734,342.5,129.2734,346.5,125.2734" style="stroke:#181818;stroke-width:1.0;"/><line style="stroke:#181818;stroke-width:1.0;" x1="80.5" x2="348.5" y1="125.2734" y2="125.2734"/><text fill="#000000" font-family="sans-serif" font-size="13" font-weight="bold" lengthAdjust="spacing" textLength="7" x="87.5" y="120.417">1</text><text fill="#000000" font-family="sans-serif" font-size="13" lengthAdjust="spacing" textLength="156" x="98.5" y="120.417">I want to create a new path</text><polygon fill="#181818" points="91.5,151.625,81.5,155.625,91.5,159.625,87.5,155.625" style="stroke:#181818;stroke-width:1.0;"/><line style="stroke:#181818;stroke-width:1.0;stroke-dasharray:2.0,2.0;" x1="85.5" x2="358.5" y1="155.625" y2="155.625"/><text fill="#000000" font-family="sans-serif" font-size="13" font-weight="bold" lengthAdjust="spacing" textLength="7" x="97.5" y="150.7686">2</text><text fill="#000000" font-family="sans-serif" font-size="13" lengthAdjust="spacing" textLength="206" x="108.5" y="150.7686">asks for the details on the new path</text><polygon fill="#181818" points="342.5,181.9766,352.5,185.9766,342.5,189.9766,346.5,185.9766" style="stroke:#181818;stroke-width:1.0;"/><line style="stroke:#181818;stroke-width:1.0;" x1="80.5" x2="348.5" y1="185.9766" y2="185.9766"/><text fill="#000000" font-family="sans-serif" font-size="13" font-weight="bold" lengthAdjust="spacing" textLength="7" x="87.5" y="181.1201">3</text><text fill="#000000" font-family="sans-serif" font-size="13" lengthAdjust="spacing" textLength="242" x="98.5" y="181.1201">inserts the information about the new path</text><polygon fill="#181818" points="537.5,212.3281,547.5,216.3281,537.5,220.3281,541.5,216.3281" style="stroke:#181818;stroke-width:1.0;"/><line style="stroke:#181818;stroke-width:1.0;" x1="364.5" x2="543.5" y1="216.3281" y2="216.3281"/><text fill="#000000" font-family="sans-serif" font-size="13" font-weight="bold" lengthAdjust="spacing" textLength="7" x="371.5" y="211.4717">4</text><text fill="#000000" font-family="sans-serif" font-size="13" lengthAdjust="spacing" textLength="155" x="382.5" y="211.4717">POST createPath(pathInfo)</text><polygon fill="#181818" points="851.5,242.6797,861.5,246.6797,851.5,250.6797,855.5,246.6797" style="stroke:#181818;stroke-width:1.0;"/><line style="stroke:#181818;stroke-width:1.0;" x1="559.5" x2="857.5" y1="246.6797" y2="246.6797"/><text fill="#000000" font-family="sans-serif" font-size="13" font-weight="bold" lengthAdjust="spacing" textLength="7" x="566.5" y="241.8232">5</text><text fill="#000000" font-family="sans-serif" font-size="13" lengthAdjust="spacing" textLength="274" x="577.5" y="241.8232">Confirms warehouses existence(warehouseInfo)</text><path d="M10,261.6797 L71,261.6797 L71,270.0313 L61,280.0313 L10,280.0313 L10,261.6797 " fill="#EEEEEE" style="stroke:#000000;stroke-width:1.5;"/><rect fill="none" height="399.7266" style="stroke:#000000;stroke-width:1.5;" width="953" x="10" y="261.6797"/><text fill="#000000" font-family="sans-serif" font-size="13" font-weight="bold" lengthAdjust="spacing" textLength="16" x="25" y="276.1748">alt</text><text fill="#000000" font-family="sans-serif" font-size="11" font-weight="bold" lengthAdjust="spacing" textLength="227" x="86" y="275.0986">[path doesn't exist and warehouse does]</text><polygon fill="#181818" points="570.5,298.3828,560.5,302.3828,570.5,306.3828,566.5,302.3828" style="stroke:#181818;stroke-width:1.0;"/><line style="stroke:#181818;stroke-width:1.0;stroke-dasharray:2.0,2.0;" x1="564.5" x2="862.5" y1="302.3828" y2="302.3828"/><text fill="#000000" font-family="sans-serif" font-size="13" font-weight="bold" lengthAdjust="spacing" textLength="7" x="576.5" y="297.5264">6</text><text fill="#000000" font-family="sans-serif" font-size="13" lengthAdjust="spacing" textLength="44" x="587.5" y="297.5264">200 OK</text><polygon fill="#181818" points="375.5,328.7344,365.5,332.7344,375.5,336.7344,371.5,332.7344" style="stroke:#181818;stroke-width:1.0;"/><line style="stroke:#181818;stroke-width:1.0;stroke-dasharray:2.0,2.0;" x1="369.5" x2="548.5" y1="332.7344" y2="332.7344"/><text fill="#000000" font-family="sans-serif" font-size="13" font-weight="bold" lengthAdjust="spacing" textLength="7" x="381.5" y="327.8779">7</text><text fill="#000000" font-family="sans-serif" font-size="13" lengthAdjust="spacing" textLength="70" x="392.5" y="327.8779">201 Created</text><polygon fill="#181818" points="91.5,359.0859,81.5,363.0859,91.5,367.0859,87.5,363.0859" style="stroke:#181818;stroke-width:1.0;"/><line style="stroke:#181818;stroke-width:1.0;stroke-dasharray:2.0,2.0;" x1="85.5" x2="353.5" y1="363.0859" y2="363.0859"/><text fill="#000000" font-family="sans-serif" font-size="13" font-weight="bold" lengthAdjust="spacing" textLength="7" x="97.5" y="358.2295">8</text><text fill="#000000" font-family="sans-serif" font-size="13" lengthAdjust="spacing" textLength="239" x="108.5" y="358.2295">informs about the success of the creation</text><line style="stroke:#000000;stroke-width:1.0;stroke-dasharray:2.0,2.0;" x1="10" x2="963" y1="372.0859" y2="372.0859"/><text fill="#000000" font-family="sans-serif" font-size="11" font-weight="bold" lengthAdjust="spacing" textLength="232" x="15" y="383.5049">[path already exists and warehouse does]</text><polygon fill="#181818" points="570.5,405.2734,560.5,409.2734,570.5,413.2734,566.5,409.2734" style="stroke:#181818;stroke-width:1.0;"/><line style="stroke:#181818;stroke-width:1.0;stroke-dasharray:2.0,2.0;" x1="564.5" x2="862.5" y1="409.2734" y2="409.2734"/><text fill="#000000" font-family="sans-serif" font-size="13" font-weight="bold" lengthAdjust="spacing" textLength="7" x="576.5" y="404.417">9</text><text fill="#000000" font-family="sans-serif" font-size="13" lengthAdjust="spacing" textLength="44" x="587.5" y="404.417">200 OK</text><polygon fill="#181818" points="375.5,435.625,365.5,439.625,375.5,443.625,371.5,439.625" style="stroke:#181818;stroke-width:1.0;"/><line style="stroke:#181818;stroke-width:1.0;stroke-dasharray:2.0,2.0;" x1="369.5" x2="548.5" y1="439.625" y2="439.625"/><text fill="#000000" font-family="sans-serif" font-size="13" font-weight="bold" lengthAdjust="spacing" textLength="14" x="381.5" y="434.7686">10</text><text fill="#000000" font-family="sans-serif" font-size="13" lengthAdjust="spacing" textLength="68" x="399.5" y="434.7686">409 Conflict</text><polygon fill="#181818" points="91.5,465.9766,81.5,469.9766,91.5,473.9766,87.5,469.9766" style="stroke:#181818;stroke-width:1.0;"/><line style="stroke:#181818;stroke-width:1.0;stroke-dasharray:2.0,2.0;" x1="85.5" x2="353.5" y1="469.9766" y2="469.9766"/><text fill="#000000" font-family="sans-serif" font-size="13" font-weight="bold" lengthAdjust="spacing" textLength="14" x="97.5" y="465.1201">11</text><text fill="#000000" font-family="sans-serif" font-size="13" lengthAdjust="spacing" textLength="224" x="115.5" y="465.1201">informs about the failure of the creation</text><line style="stroke:#000000;stroke-width:1.0;stroke-dasharray:2.0,2.0;" x1="10" x2="963" y1="478.9766" y2="478.9766"/><text fill="#000000" font-family="sans-serif" font-size="11" font-weight="bold" lengthAdjust="spacing" textLength="246" x="15" y="490.3955">[path already exists and warehouse doesn't]</text><polygon fill="#181818" points="570.5,512.1641,560.5,516.1641,570.5,520.1641,566.5,516.1641" style="stroke:#181818;stroke-width:1.0;"/><line style="stroke:#181818;stroke-width:1.0;stroke-dasharray:2.0,2.0;" x1="564.5" x2="862.5" y1="516.1641" y2="516.1641"/><text fill="#000000" font-family="sans-serif" font-size="13" font-weight="bold" lengthAdjust="spacing" textLength="14" x="576.5" y="511.3076">12</text><text fill="#000000" font-family="sans-serif" font-size="13" lengthAdjust="spacing" textLength="80" x="594.5" y="511.3076">404 Not found</text><polygon fill="#181818" points="375.5,542.5156,365.5,546.5156,375.5,550.5156,371.5,546.5156" style="stroke:#181818;stroke-width:1.0;"/><line style="stroke:#181818;stroke-width:1.0;" x1="369.5" x2="548.5" y1="546.5156" y2="546.5156"/><text fill="#000000" font-family="sans-serif" font-size="13" font-weight="bold" lengthAdjust="spacing" textLength="14" x="381.5" y="541.6592">13</text><text fill="#000000" font-family="sans-serif" font-size="13" lengthAdjust="spacing" textLength="80" x="399.5" y="541.6592">404 Not found</text><line style="stroke:#000000;stroke-width:1.0;stroke-dasharray:2.0,2.0;" x1="10" x2="963" y1="555.5156" y2="555.5156"/><text fill="#000000" font-family="sans-serif" font-size="11" font-weight="bold" lengthAdjust="spacing" textLength="195" x="15" y="566.9346">[path doesn't exist nor warehouse]</text><polygon fill="#181818" points="570.5,588.7031,560.5,592.7031,570.5,596.7031,566.5,592.7031" style="stroke:#181818;stroke-width:1.0;"/><line style="stroke:#181818;stroke-width:1.0;stroke-dasharray:2.0,2.0;" x1="564.5" x2="862.5" y1="592.7031" y2="592.7031"/><text fill="#000000" font-family="sans-serif" font-size="13" font-weight="bold" lengthAdjust="spacing" textLength="14" x="576.5" y="587.8467">14</text><text fill="#000000" font-family="sans-serif" font-size="13" lengthAdjust="spacing" textLength="80" x="594.5" y="587.8467">404 Not found</text><polygon fill="#181818" points="375.5,619.0547,365.5,623.0547,375.5,627.0547,371.5,623.0547" style="stroke:#181818;stroke-width:1.0;"/><line style="stroke:#181818;stroke-width:1.0;" x1="369.5" x2="553.5" y1="623.0547" y2="623.0547"/><text fill="#000000" font-family="sans-serif" font-size="13" font-weight="bold" lengthAdjust="spacing" textLength="14" x="381.5" y="618.1982">15</text><text fill="#000000" font-family="sans-serif" font-size="13" lengthAdjust="spacing" textLength="80" x="399.5" y="618.1982">404 Not found</text><polygon fill="#181818" points="91.5,649.4063,81.5,653.4063,91.5,657.4063,87.5,653.4063" style="stroke:#181818;stroke-width:1.0;"/><line style="stroke:#181818;stroke-width:1.0;" x1="85.5" x2="353.5" y1="653.4063" y2="653.4063"/><text fill="#000000" font-family="sans-serif" font-size="13" font-weight="bold" lengthAdjust="spacing" textLength="14" x="97.5" y="648.5498">16</text><text fill="#000000" font-family="sans-serif" font-size="13" lengthAdjust="spacing" textLength="189" x="115.5" y="648.5498">Informs warehouse doesn't exist.</text><!--MD5=[90132f8392989d3aa83eb77cdae6f0f1]
@startuml createPathSD
autonumber

skinparam sequence {
ParticipantBorderColor black
ParticipantBackgroundColor white
}

actor "Logistics Manager" as manager


box "<<System(C4)>>\n       System"
participant SPA as  SPA <<Container(C4)>>
participant Logistics as  Logistics <<Container(C4)>>
participant WarehouseManagement as WarehouseManagement << Container(C4)>>



manager -> SPA: I want to create a new path
activate SPA

SPA - -> manager: asks for the details on the new path
deactivate SPA

manager -> SPA: inserts the information about the new path
activate SPA

SPA -> Logistics: POST createPath(pathInfo)
activate Logistics


Logistics -> WarehouseManagement: Confirms warehouses existence(warehouseInfo)
activate WarehouseManagement



alt path doesn't exist and warehouse does
WarehouseManagement - -> Logistics: 200 OK
Logistics - -> SPA: 201 Created
SPA - -> manager: informs about the success of the creation


else path already exists and warehouse does 
WarehouseManagement - -> Logistics: 200 OK
Logistics - -> SPA: 409 Conflict
SPA - -> manager: informs about the failure of the creation

else path already exists and warehouse doesn't
WarehouseManagement - -> Logistics: 404 Not found
Logistics -> SPA : 404 Not found 

else path doesn't exist nor warehouse
WarehouseManagement - -> Logistics: 404 Not found
Logistics -> SPA : 404 Not found 
deactivate Logistics
SPA-> manager: Informs warehouse doesn't exist.

end

deactivate SPA
deactivate manager

@enduml

PlantUML version 1.2022.7(Mon Aug 22 18:01:30 BST 2022)
(GPL source distribution)
Java Runtime: Java(TM) SE Runtime Environment
JVM: Java HotSpot(TM) Client VM
Default Encoding: Cp1252
Language: pt
Country: PT
--></g></svg>