<?xml version="1.0" encoding="UTF-8" standalone="no"?><svg xmlns="http://www.w3.org/2000/svg" xmlns:xlink="http://www.w3.org/1999/xlink" contentStyleType="text/css" height="918px" preserveAspectRatio="none" style="width:1189px;height:918px;background:#FFFFFF;" version="1.1" viewBox="0 0 1189 918" width="1189px" zoomAndPan="magnify"><defs/><g><rect fill="#DDDDDD" height="906.7734" style="stroke:#181818;stroke-width:0.5;" width="712.5" x="349.5" y="6"/><text fill="#000000" font-family="sans-serif" font-size="13" font-weight="bold" lengthAdjust="spacing" textLength="114" x="648.75" y="19.4951">&lt;&lt;EletricGo(C4)&gt;&gt;</text><text fill="#000000" font-family="sans-serif" font-size="13" font-weight="bold" lengthAdjust="spacing" textLength="46" x="676.75" y="35.8467">System</text><rect fill="#FFFFFF" height="719.2422" style="stroke:#181818;stroke-width:1.0;" width="10" x="84.5" y="102.9219"/><rect fill="#FFFFFF" height="696.8906" style="stroke:#181818;stroke-width:1.0;" width="10" x="408.5" y="125.2734"/><rect fill="#FFFFFF" height="30.3516" style="stroke:#181818;stroke-width:1.0;" width="10" x="688.5" y="180.9766"/><rect fill="#FFFFFF" height="376.5391" style="stroke:#181818;stroke-width:1.0;" width="10" x="688.5" y="446.625"/><rect fill="#FFFFFF" height="330.1875" style="stroke:#181818;stroke-width:1.0;" width="10" x="968.5" y="476.9766"/><rect fill="#FFFFFF" height="30.3516" style="stroke:#181818;stroke-width:1.0;" width="10" x="1115" y="257.5156"/><rect fill="none" height="155.5938" style="stroke:#000000;stroke-width:1.5;" width="838.5" x="343.5" y="140.2734"/><rect fill="none" height="323.1875" style="stroke:#000000;stroke-width:1.5;" width="1058" x="10" y="491.9766"/><line style="stroke:#181818;stroke-width:0.5;stroke-dasharray:5.0,5.0;" x1="89" x2="89" y1="92.9219" y2="832.1641"/><line style="stroke:#181818;stroke-width:0.5;stroke-dasharray:5.0,5.0;" x1="413.5" x2="413.5" y1="92.9219" y2="832.1641"/><line style="stroke:#181818;stroke-width:0.5;stroke-dasharray:5.0,5.0;" x1="693.5" x2="693.5" y1="92.9219" y2="832.1641"/><line style="stroke:#181818;stroke-width:0.5;stroke-dasharray:5.0,5.0;" x1="973" x2="973" y1="92.9219" y2="832.1641"/><line style="stroke:#181818;stroke-width:0.5;stroke-dasharray:5.0,5.0;" x1="1120" x2="1120" y1="92.9219" y2="832.1641"/><text fill="#000000" font-family="sans-serif" font-size="14" lengthAdjust="spacing" textLength="133" x="20" y="89.8457">Warehouse Manager</text><ellipse cx="89.5" cy="23.8125" fill="#E2E2F0" rx="8" ry="8" style="stroke:#181818;stroke-width:0.5;"/><path d="M89.5,31.8125 L89.5,58.8125 M76.5,39.8125 L102.5,39.8125 M89.5,58.8125 L76.5,73.8125 M89.5,58.8125 L102.5,73.8125 " fill="none" style="stroke:#181818;stroke-width:0.5;"/><text fill="#000000" font-family="sans-serif" font-size="14" lengthAdjust="spacing" textLength="133" x="20" y="845.6973">Warehouse Manager</text><ellipse cx="89.5" cy="857.2734" fill="#E2E2F0" rx="8" ry="8" style="stroke:#181818;stroke-width:0.5;"/><path d="M89.5,865.2734 L89.5,892.2734 M76.5,873.2734 L102.5,873.2734 M89.5,892.2734 L76.5,907.2734 M89.5,892.2734 L102.5,907.2734 " fill="none" style="stroke:#181818;stroke-width:0.5;"/><rect fill="#FFFFFF" height="49.2188" rx="2.5" ry="2.5" style="stroke:#000000;stroke-width:0.5;" width="120" x="353.5" y="42.7031"/><text fill="#000000" font-family="sans-serif" font-size="14" font-style="italic" lengthAdjust="spacing" textLength="106" x="360.5" y="64.2363">«Container(C4)»</text><text fill="#000000" font-family="sans-serif" font-size="14" lengthAdjust="spacing" textLength="12" x="407.5" y="81.8457">UI</text><rect fill="#FFFFFF" height="49.2188" rx="2.5" ry="2.5" style="stroke:#000000;stroke-width:0.5;" width="120" x="353.5" y="831.1641"/><text fill="#000000" font-family="sans-serif" font-size="14" font-style="italic" lengthAdjust="spacing" textLength="106" x="360.5" y="852.6973">«Container(C4)»</text><text fill="#000000" font-family="sans-serif" font-size="14" lengthAdjust="spacing" textLength="12" x="407.5" y="870.3066">UI</text><rect fill="#FFFFFF" height="49.2188" rx="2.5" ry="2.5" style="stroke:#000000;stroke-width:0.5;" width="120" x="633.5" y="42.7031"/><text fill="#000000" font-family="sans-serif" font-size="14" font-style="italic" lengthAdjust="spacing" textLength="106" x="640.5" y="64.2363">«Container(C4)»</text><text fill="#000000" font-family="sans-serif" font-size="14" lengthAdjust="spacing" textLength="29" x="679" y="81.8457">Auth</text><rect fill="#FFFFFF" height="49.2188" rx="2.5" ry="2.5" style="stroke:#000000;stroke-width:0.5;" width="120" x="633.5" y="831.1641"/><text fill="#000000" font-family="sans-serif" font-size="14" font-style="italic" lengthAdjust="spacing" textLength="106" x="640.5" y="852.6973">«Container(C4)»</text><text fill="#000000" font-family="sans-serif" font-size="14" lengthAdjust="spacing" textLength="29" x="679" y="870.3066">Auth</text><rect fill="#FFFFFF" height="49.2188" rx="2.5" ry="2.5" style="stroke:#000000;stroke-width:0.5;" width="169" x="889" y="42.7031"/><text fill="#000000" font-family="sans-serif" font-size="14" font-style="italic" lengthAdjust="spacing" textLength="106" x="920.5" y="64.2363">«Container(C4)»</text><text fill="#000000" font-family="sans-serif" font-size="14" lengthAdjust="spacing" textLength="155" x="896" y="81.8457">WarehouseManagement</text><rect fill="#FFFFFF" height="49.2188" rx="2.5" ry="2.5" style="stroke:#000000;stroke-width:0.5;" width="169" x="889" y="831.1641"/><text fill="#000000" font-family="sans-serif" font-size="14" font-style="italic" lengthAdjust="spacing" textLength="106" x="920.5" y="852.6973">«Container(C4)»</text><text fill="#000000" font-family="sans-serif" font-size="14" lengthAdjust="spacing" textLength="155" x="896" y="870.3066">WarehouseManagement</text><rect fill="#FFFFFF" height="49.2188" rx="2.5" ry="2.5" style="stroke:#000000;stroke-width:0.5;" width="104" x="1068" y="42.7031"/><text fill="#000000" font-family="sans-serif" font-size="14" font-style="italic" lengthAdjust="spacing" textLength="90" x="1075" y="64.2363">«System(C4)»</text><text fill="#000000" font-family="sans-serif" font-size="14" lengthAdjust="spacing" textLength="46" x="1097" y="81.8457">Google</text><rect fill="#FFFFFF" height="49.2188" rx="2.5" ry="2.5" style="stroke:#000000;stroke-width:0.5;" width="104" x="1068" y="831.1641"/><text fill="#000000" font-family="sans-serif" font-size="14" font-style="italic" lengthAdjust="spacing" textLength="90" x="1075" y="852.6973">«System(C4)»</text><text fill="#000000" font-family="sans-serif" font-size="14" lengthAdjust="spacing" textLength="46" x="1097" y="870.3066">Google</text><rect fill="#FFFFFF" height="719.2422" style="stroke:#181818;stroke-width:1.0;" width="10" x="84.5" y="102.9219"/><rect fill="#FFFFFF" height="696.8906" style="stroke:#181818;stroke-width:1.0;" width="10" x="408.5" y="125.2734"/><rect fill="#FFFFFF" height="30.3516" style="stroke:#181818;stroke-width:1.0;" width="10" x="688.5" y="180.9766"/><rect fill="#FFFFFF" height="376.5391" style="stroke:#181818;stroke-width:1.0;" width="10" x="688.5" y="446.625"/><rect fill="#FFFFFF" height="330.1875" style="stroke:#181818;stroke-width:1.0;" width="10" x="968.5" y="476.9766"/><rect fill="#FFFFFF" height="30.3516" style="stroke:#181818;stroke-width:1.0;" width="10" x="1115" y="257.5156"/><polygon fill="#181818" points="396.5,121.2734,406.5,125.2734,396.5,129.2734,400.5,125.2734" style="stroke:#181818;stroke-width:1.0;"/><line style="stroke:#181818;stroke-width:1.0;" x1="94.5" x2="402.5" y1="125.2734" y2="125.2734"/><text fill="#000000" font-family="sans-serif" font-size="13" font-weight="bold" lengthAdjust="spacing" textLength="7" x="101.5" y="120.417">1</text><text fill="#000000" font-family="sans-serif" font-size="13" lengthAdjust="spacing" textLength="80" x="112.5" y="120.417">I want to login</text><path d="M343.5,140.2734 L404.5,140.2734 L404.5,148.625 L394.5,158.625 L343.5,158.625 L343.5,140.2734 " fill="#EEEEEE" style="stroke:#000000;stroke-width:1.5;"/><rect fill="none" height="155.5938" style="stroke:#000000;stroke-width:1.5;" width="838.5" x="343.5" y="140.2734"/><text fill="#000000" font-family="sans-serif" font-size="13" font-weight="bold" lengthAdjust="spacing" textLength="16" x="358.5" y="154.7686">alt</text><text fill="#000000" font-family="sans-serif" font-size="11" font-weight="bold" lengthAdjust="spacing" textLength="266" x="419.5" y="153.6924">[Login through email and password in EletricGo]</text><polygon fill="#181818" points="676.5,176.9766,686.5,180.9766,676.5,184.9766,680.5,180.9766" style="stroke:#181818;stroke-width:1.0;"/><line style="stroke:#181818;stroke-width:1.0;" x1="418.5" x2="682.5" y1="180.9766" y2="180.9766"/><text fill="#000000" font-family="sans-serif" font-size="13" font-weight="bold" lengthAdjust="spacing" textLength="7" x="425.5" y="176.1201">2</text><text fill="#000000" font-family="sans-serif" font-size="13" lengthAdjust="spacing" textLength="172" x="436.5" y="176.1201">POST Login(email, password)</text><polygon fill="#181818" points="429.5,207.3281,419.5,211.3281,429.5,215.3281,425.5,211.3281" style="stroke:#181818;stroke-width:1.0;"/><line style="stroke:#181818;stroke-width:1.0;stroke-dasharray:2.0,2.0;" x1="423.5" x2="692.5" y1="211.3281" y2="211.3281"/><text fill="#000000" font-family="sans-serif" font-size="13" font-weight="bold" lengthAdjust="spacing" textLength="7" x="435.5" y="206.4717">3</text><text fill="#000000" font-family="sans-serif" font-size="13" lengthAdjust="spacing" textLength="44" x="446.5" y="206.4717">200 OK</text><line style="stroke:#000000;stroke-width:1.0;stroke-dasharray:2.0,2.0;" x1="343.5" x2="1182" y1="220.3281" y2="220.3281"/><text fill="#000000" font-family="sans-serif" font-size="11" font-weight="bold" lengthAdjust="spacing" textLength="128" x="348.5" y="231.7471">[Login through Google]</text><polygon fill="#181818" points="1103,253.5156,1113,257.5156,1103,261.5156,1107,257.5156" style="stroke:#181818;stroke-width:1.0;"/><line style="stroke:#181818;stroke-width:1.0;" x1="418.5" x2="1109" y1="257.5156" y2="257.5156"/><text fill="#000000" font-family="sans-serif" font-size="13" font-weight="bold" lengthAdjust="spacing" textLength="7" x="425.5" y="252.6592">4</text><text fill="#000000" font-family="sans-serif" font-size="13" lengthAdjust="spacing" textLength="153" x="436.5" y="252.6592">Login with Google account</text><polygon fill="#181818" points="429.5,283.8672,419.5,287.8672,429.5,291.8672,425.5,287.8672" style="stroke:#181818;stroke-width:1.0;"/><line style="stroke:#181818;stroke-width:1.0;stroke-dasharray:2.0,2.0;" x1="423.5" x2="1119" y1="287.8672" y2="287.8672"/><text fill="#000000" font-family="sans-serif" font-size="13" font-weight="bold" lengthAdjust="spacing" textLength="7" x="435.5" y="283.0107">5</text><text fill="#000000" font-family="sans-serif" font-size="13" lengthAdjust="spacing" textLength="44" x="446.5" y="283.0107">200 OK</text><polygon fill="#181818" points="105.5,321.2188,95.5,325.2188,105.5,329.2188,101.5,325.2188" style="stroke:#181818;stroke-width:1.0;"/><line style="stroke:#181818;stroke-width:1.0;stroke-dasharray:2.0,2.0;" x1="99.5" x2="407.5" y1="325.2188" y2="325.2188"/><text fill="#000000" font-family="sans-serif" font-size="13" font-weight="bold" lengthAdjust="spacing" textLength="7" x="111.5" y="320.3623">6</text><text fill="#000000" font-family="sans-serif" font-size="13" lengthAdjust="spacing" textLength="198" x="122.5" y="320.3623">informs about the success of login</text><polygon fill="#181818" points="396.5,351.5703,406.5,355.5703,396.5,359.5703,400.5,355.5703" style="stroke:#181818;stroke-width:1.0;"/><line style="stroke:#181818;stroke-width:1.0;" x1="94.5" x2="402.5" y1="355.5703" y2="355.5703"/><text fill="#000000" font-family="sans-serif" font-size="13" font-weight="bold" lengthAdjust="spacing" textLength="7" x="101.5" y="350.7139">7</text><text fill="#000000" font-family="sans-serif" font-size="13" lengthAdjust="spacing" textLength="193" x="112.5" y="350.7139">I want to create a new warehouse</text><polygon fill="#181818" points="105.5,381.9219,95.5,385.9219,105.5,389.9219,101.5,385.9219" style="stroke:#181818;stroke-width:1.0;"/><line style="stroke:#181818;stroke-width:1.0;" x1="99.5" x2="407.5" y1="385.9219" y2="385.9219"/><text fill="#000000" font-family="sans-serif" font-size="13" font-weight="bold" lengthAdjust="spacing" textLength="7" x="111.5" y="381.0654">8</text><text fill="#000000" font-family="sans-serif" font-size="13" lengthAdjust="spacing" textLength="243" x="122.5" y="381.0654">asks for the details on the new warehouse</text><polygon fill="#181818" points="396.5,412.2734,406.5,416.2734,396.5,420.2734,400.5,416.2734" style="stroke:#181818;stroke-width:1.0;"/><line style="stroke:#181818;stroke-width:1.0;" x1="94.5" x2="402.5" y1="416.2734" y2="416.2734"/><text fill="#000000" font-family="sans-serif" font-size="13" font-weight="bold" lengthAdjust="spacing" textLength="7" x="101.5" y="411.417">9</text><text fill="#000000" font-family="sans-serif" font-size="13" lengthAdjust="spacing" textLength="279" x="112.5" y="411.417">inserts the information about the new warehouse</text><polygon fill="#181818" points="676.5,442.625,686.5,446.625,676.5,450.625,680.5,446.625" style="stroke:#181818;stroke-width:1.0;"/><line style="stroke:#181818;stroke-width:1.0;" x1="418.5" x2="682.5" y1="446.625" y2="446.625"/><text fill="#000000" font-family="sans-serif" font-size="13" font-weight="bold" lengthAdjust="spacing" textLength="14" x="425.5" y="441.7686">10</text><text fill="#000000" font-family="sans-serif" font-size="13" lengthAdjust="spacing" textLength="233" x="443.5" y="441.7686">POST CreateWarehouse(warehouseDto)</text><polygon fill="#181818" points="956.5,472.9766,966.5,476.9766,956.5,480.9766,960.5,476.9766" style="stroke:#181818;stroke-width:1.0;"/><line style="stroke:#181818;stroke-width:1.0;" x1="698.5" x2="962.5" y1="476.9766" y2="476.9766"/><text fill="#000000" font-family="sans-serif" font-size="13" font-weight="bold" lengthAdjust="spacing" textLength="14" x="705.5" y="472.1201">11</text><text fill="#000000" font-family="sans-serif" font-size="13" lengthAdjust="spacing" textLength="233" x="723.5" y="472.1201">POST CreateWarehouse(warehouseDto)</text><path d="M10,491.9766 L71,491.9766 L71,500.3281 L61,510.3281 L10,510.3281 L10,491.9766 " fill="#EEEEEE" style="stroke:#000000;stroke-width:1.5;"/><rect fill="none" height="323.1875" style="stroke:#000000;stroke-width:1.5;" width="1058" x="10" y="491.9766"/><text fill="#000000" font-family="sans-serif" font-size="13" font-weight="bold" lengthAdjust="spacing" textLength="16" x="25" y="506.4717">alt</text><text fill="#000000" font-family="sans-serif" font-size="11" font-weight="bold" lengthAdjust="spacing" textLength="232" x="86" y="505.3955">[If warehouse doesnt exist in the system]</text><polygon fill="#181818" points="709.5,528.6797,699.5,532.6797,709.5,536.6797,705.5,532.6797" style="stroke:#181818;stroke-width:1.0;"/><line style="stroke:#181818;stroke-width:1.0;stroke-dasharray:2.0,2.0;" x1="703.5" x2="967.5" y1="532.6797" y2="532.6797"/><text fill="#000000" font-family="sans-serif" font-size="13" font-weight="bold" lengthAdjust="spacing" textLength="14" x="715.5" y="527.8232">12</text><text fill="#000000" font-family="sans-serif" font-size="13" lengthAdjust="spacing" textLength="44" x="733.5" y="527.8232">200 OK</text><polygon fill="#181818" points="429.5,559.0313,419.5,563.0313,429.5,567.0313,425.5,563.0313" style="stroke:#181818;stroke-width:1.0;"/><line style="stroke:#181818;stroke-width:1.0;stroke-dasharray:2.0,2.0;" x1="423.5" x2="687.5" y1="563.0313" y2="563.0313"/><text fill="#000000" font-family="sans-serif" font-size="13" font-weight="bold" lengthAdjust="spacing" textLength="14" x="435.5" y="558.1748">13</text><text fill="#000000" font-family="sans-serif" font-size="13" lengthAdjust="spacing" textLength="70" x="453.5" y="558.1748">201 Created</text><polygon fill="#181818" points="105.5,589.3828,95.5,593.3828,105.5,597.3828,101.5,593.3828" style="stroke:#181818;stroke-width:1.0;"/><line style="stroke:#181818;stroke-width:1.0;stroke-dasharray:2.0,2.0;" x1="99.5" x2="407.5" y1="593.3828" y2="593.3828"/><text fill="#000000" font-family="sans-serif" font-size="13" font-weight="bold" lengthAdjust="spacing" textLength="14" x="111.5" y="588.5264">14</text><text fill="#000000" font-family="sans-serif" font-size="13" lengthAdjust="spacing" textLength="233" x="129.5" y="588.5264">shows information about new warehouse</text><line style="stroke:#000000;stroke-width:1.0;stroke-dasharray:2.0,2.0;" x1="10" x2="1068" y1="602.3828" y2="602.3828"/><text fill="#000000" font-family="sans-serif" font-size="11" font-weight="bold" lengthAdjust="spacing" textLength="278" x="15" y="613.8018">[If a warehouse already exists with the id entered]</text><polygon fill="#181818" points="709.5,635.5703,699.5,639.5703,709.5,643.5703,705.5,639.5703" style="stroke:#181818;stroke-width:1.0;"/><line style="stroke:#181818;stroke-width:1.0;stroke-dasharray:2.0,2.0;" x1="703.5" x2="967.5" y1="639.5703" y2="639.5703"/><text fill="#000000" font-family="sans-serif" font-size="13" font-weight="bold" lengthAdjust="spacing" textLength="14" x="715.5" y="634.7139">15</text><text fill="#000000" font-family="sans-serif" font-size="13" lengthAdjust="spacing" textLength="87" x="733.5" y="634.7139">409 CONFLICT</text><polygon fill="#181818" points="429.5,665.9219,419.5,669.9219,429.5,673.9219,425.5,669.9219" style="stroke:#181818;stroke-width:1.0;"/><line style="stroke:#181818;stroke-width:1.0;stroke-dasharray:2.0,2.0;" x1="423.5" x2="687.5" y1="669.9219" y2="669.9219"/><text fill="#000000" font-family="sans-serif" font-size="13" font-weight="bold" lengthAdjust="spacing" textLength="14" x="435.5" y="665.0654">16</text><text fill="#000000" font-family="sans-serif" font-size="13" lengthAdjust="spacing" textLength="68" x="453.5" y="665.0654">409 Conflict</text><polygon fill="#181818" points="105.5,696.2734,95.5,700.2734,105.5,704.2734,101.5,700.2734" style="stroke:#181818;stroke-width:1.0;"/><line style="stroke:#181818;stroke-width:1.0;stroke-dasharray:2.0,2.0;" x1="99.5" x2="407.5" y1="700.2734" y2="700.2734"/><text fill="#000000" font-family="sans-serif" font-size="13" font-weight="bold" lengthAdjust="spacing" textLength="14" x="111.5" y="695.417">17</text><text fill="#000000" font-family="sans-serif" font-size="13" lengthAdjust="spacing" textLength="224" x="129.5" y="695.417">informs about the failure of the creation</text><line style="stroke:#000000;stroke-width:1.0;stroke-dasharray:2.0,2.0;" x1="10" x2="1068" y1="709.2734" y2="709.2734"/><text fill="#000000" font-family="sans-serif" font-size="11" font-weight="bold" lengthAdjust="spacing" textLength="285" x="15" y="720.6924">[If the attributes do not respect the business rules]</text><polygon fill="#181818" points="709.5,742.4609,699.5,746.4609,709.5,750.4609,705.5,746.4609" style="stroke:#181818;stroke-width:1.0;"/><line style="stroke:#181818;stroke-width:1.0;stroke-dasharray:2.0,2.0;" x1="703.5" x2="967.5" y1="746.4609" y2="746.4609"/><text fill="#000000" font-family="sans-serif" font-size="13" font-weight="bold" lengthAdjust="spacing" textLength="14" x="715.5" y="741.6045">18</text><text fill="#000000" font-family="sans-serif" font-size="13" lengthAdjust="spacing" textLength="87" x="733.5" y="741.6045">409 CONFLICT</text><polygon fill="#181818" points="429.5,772.8125,419.5,776.8125,429.5,780.8125,425.5,776.8125" style="stroke:#181818;stroke-width:1.0;"/><line style="stroke:#181818;stroke-width:1.0;stroke-dasharray:2.0,2.0;" x1="423.5" x2="687.5" y1="776.8125" y2="776.8125"/><text fill="#000000" font-family="sans-serif" font-size="13" font-weight="bold" lengthAdjust="spacing" textLength="14" x="435.5" y="771.9561">19</text><text fill="#000000" font-family="sans-serif" font-size="13" lengthAdjust="spacing" textLength="68" x="453.5" y="771.9561">409 Conflict</text><polygon fill="#181818" points="105.5,803.1641,95.5,807.1641,105.5,811.1641,101.5,807.1641" style="stroke:#181818;stroke-width:1.0;"/><line style="stroke:#181818;stroke-width:1.0;stroke-dasharray:2.0,2.0;" x1="99.5" x2="407.5" y1="807.1641" y2="807.1641"/><text fill="#000000" font-family="sans-serif" font-size="13" font-weight="bold" lengthAdjust="spacing" textLength="14" x="111.5" y="802.3076">20</text><text fill="#000000" font-family="sans-serif" font-size="13" lengthAdjust="spacing" textLength="224" x="129.5" y="802.3076">informs about the failure of the creation</text><!--MD5=[35b3e86fe3e14ec81980b4c1f5f6b0a6]
@startuml createWarehouseSD
autonumber

skinparam sequence {
ParticipantBorderColor black
ParticipantBackgroundColor white
}

actor "Warehouse Manager" as admin

box "<<EletricGo(C4)>>\n       System"
participant UI as UI <<Container(C4)>>
participant Auth as Auth <<Container(C4)>>
participant WarehouseManagement as  WM <<Container(C4)>>
end box

participant Google as Google <<System(C4)>>


activate admin
admin->UI: I want to login
activate UI

alt Login through email and password in EletricGo

UI -> Auth: POST Login(email, password)
activate Auth

Auth - -> UI: 200 OK
deactivate Auth

else Login through Google

UI -> Google: Login with Google account
activate Google
Google - -> UI: 200 OK
deactivate Google

end



UI - -> admin: informs about the success of login

admin -> UI: I want to create a new warehouse

UI -> admin: asks for the details on the new warehouse

admin -> UI: inserts the information about the new warehouse

UI -> Auth: POST CreateWarehouse(warehouseDto)
activate Auth
Auth -> WM: POST CreateWarehouse(warehouseDto)
activate WM

alt If warehouse doesnt exist in the system  
WM - -> Auth: 200 OK
Auth - -> UI: 201 Created
UI - -> admin:  shows information about new warehouse


else If a warehouse already exists with the id entered

WM - -> Auth: 409 CONFLICT
Auth - -> UI: 409 Conflict
UI - -> admin: informs about the failure of the creation


else If the attributes do not respect the business rules


WM - -> Auth: 409 CONFLICT
Auth - -> UI: 409 Conflict
UI - -> admin: informs about the failure of the creation
deactivate WM

end 

deactivate UI
deactivate admin
@enduml

PlantUML version 1.2022.7(Mon Aug 22 18:01:30 WEST 2022)
(GPL source distribution)
Java Runtime: Java(TM) SE Runtime Environment
JVM: Java HotSpot(TM) 64-Bit Server VM
Default Encoding: Cp1252
Language: en
Country: GB
--></g></svg>