<?xml version="1.0" encoding="UTF-8" standalone="no"?><svg xmlns="http://www.w3.org/2000/svg" xmlns:xlink="http://www.w3.org/1999/xlink" contentStyleType="text/css" height="872px" preserveAspectRatio="none" style="width:1149px;height:872px;background:#FFFFFF;" version="1.1" viewBox="0 0 1149 872" width="1149px" zoomAndPan="magnify"><defs/><g><rect fill="#DDDDDD" height="860.5859" style="stroke:#181818;stroke-width:0.5;" width="519" x="503.5" y="6"/><text fill="#000000" font-family="sans-serif" font-size="13" font-weight="bold" lengthAdjust="spacing" textLength="114" x="706" y="19.4951">&lt;&lt;EletricGo(C4)&gt;&gt;</text><text fill="#000000" font-family="sans-serif" font-size="13" font-weight="bold" lengthAdjust="spacing" textLength="46" x="734" y="35.8467">System</text><rect fill="#FFFFFF" height="673.0547" style="stroke:#181818;stroke-width:1.0;" width="10" x="84.5" y="102.9219"/><rect fill="#FFFFFF" height="650.7031" style="stroke:#181818;stroke-width:1.0;" width="10" x="562.5" y="125.2734"/><rect fill="#FFFFFF" height="30.3516" style="stroke:#181818;stroke-width:1.0;" width="10" x="774.5" y="180.9766"/><rect fill="#FFFFFF" height="269.6484" style="stroke:#181818;stroke-width:1.0;" width="10" x="774.5" y="507.3281"/><rect fill="#FFFFFF" height="223.2969" style="stroke:#181818;stroke-width:1.0;" width="10" x="929" y="537.6797"/><rect fill="#FFFFFF" height="30.3516" style="stroke:#181818;stroke-width:1.0;" width="10" x="1075.5" y="257.5156"/><rect fill="none" height="155.5938" style="stroke:#000000;stroke-width:1.5;" width="645" x="497.5" y="140.2734"/><rect fill="none" height="216.2969" style="stroke:#000000;stroke-width:1.5;" width="1018.5" x="10" y="552.6797"/><line style="stroke:#181818;stroke-width:0.5;stroke-dasharray:5.0,5.0;" x1="89" x2="89" y1="92.9219" y2="785.9766"/><line style="stroke:#181818;stroke-width:0.5;stroke-dasharray:5.0,5.0;" x1="567.5" x2="567.5" y1="92.9219" y2="785.9766"/><line style="stroke:#181818;stroke-width:0.5;stroke-dasharray:5.0,5.0;" x1="779.5" x2="779.5" y1="92.9219" y2="785.9766"/><line style="stroke:#181818;stroke-width:0.5;stroke-dasharray:5.0,5.0;" x1="933.5" x2="933.5" y1="92.9219" y2="785.9766"/><line style="stroke:#181818;stroke-width:0.5;stroke-dasharray:5.0,5.0;" x1="1080.5" x2="1080.5" y1="92.9219" y2="785.9766"/><text fill="#000000" font-family="sans-serif" font-size="14" lengthAdjust="spacing" textLength="133" x="20" y="89.8457">Warehouse Manager</text><ellipse cx="89.5" cy="23.8125" fill="#E2E2F0" rx="8" ry="8" style="stroke:#181818;stroke-width:0.5;"/><path d="M89.5,31.8125 L89.5,58.8125 M76.5,39.8125 L102.5,39.8125 M89.5,58.8125 L76.5,73.8125 M89.5,58.8125 L102.5,73.8125 " fill="none" style="stroke:#181818;stroke-width:0.5;"/><text fill="#000000" font-family="sans-serif" font-size="14" lengthAdjust="spacing" textLength="133" x="20" y="799.5098">Warehouse Manager</text><ellipse cx="89.5" cy="811.0859" fill="#E2E2F0" rx="8" ry="8" style="stroke:#181818;stroke-width:0.5;"/><path d="M89.5,819.0859 L89.5,846.0859 M76.5,827.0859 L102.5,827.0859 M89.5,846.0859 L76.5,861.0859 M89.5,846.0859 L102.5,861.0859 " fill="none" style="stroke:#181818;stroke-width:0.5;"/><rect fill="#FFFFFF" height="49.2188" rx="2.5" ry="2.5" style="stroke:#000000;stroke-width:0.5;" width="120" x="507.5" y="42.7031"/><text fill="#000000" font-family="sans-serif" font-size="14" font-style="italic" lengthAdjust="spacing" textLength="106" x="514.5" y="64.2363">«Container(C4)»</text><text fill="#000000" font-family="sans-serif" font-size="14" lengthAdjust="spacing" textLength="12" x="561.5" y="81.8457">UI</text><rect fill="#FFFFFF" height="49.2188" rx="2.5" ry="2.5" style="stroke:#000000;stroke-width:0.5;" width="120" x="507.5" y="784.9766"/><text fill="#000000" font-family="sans-serif" font-size="14" font-style="italic" lengthAdjust="spacing" textLength="106" x="514.5" y="806.5098">«Container(C4)»</text><text fill="#000000" font-family="sans-serif" font-size="14" lengthAdjust="spacing" textLength="12" x="561.5" y="824.1191">UI</text><rect fill="#FFFFFF" height="49.2188" rx="2.5" ry="2.5" style="stroke:#000000;stroke-width:0.5;" width="120" x="719.5" y="42.7031"/><text fill="#000000" font-family="sans-serif" font-size="14" font-style="italic" lengthAdjust="spacing" textLength="106" x="726.5" y="64.2363">«Container(C4)»</text><text fill="#000000" font-family="sans-serif" font-size="14" lengthAdjust="spacing" textLength="29" x="765" y="81.8457">Auth</text><rect fill="#FFFFFF" height="49.2188" rx="2.5" ry="2.5" style="stroke:#000000;stroke-width:0.5;" width="120" x="719.5" y="784.9766"/><text fill="#000000" font-family="sans-serif" font-size="14" font-style="italic" lengthAdjust="spacing" textLength="106" x="726.5" y="806.5098">«Container(C4)»</text><text fill="#000000" font-family="sans-serif" font-size="14" lengthAdjust="spacing" textLength="29" x="765" y="824.1191">Auth</text><rect fill="#FFFFFF" height="49.2188" rx="2.5" ry="2.5" style="stroke:#000000;stroke-width:0.5;" width="169" x="849.5" y="42.7031"/><text fill="#000000" font-family="sans-serif" font-size="14" font-style="italic" lengthAdjust="spacing" textLength="106" x="881" y="64.2363">«Container(C4)»</text><text fill="#000000" font-family="sans-serif" font-size="14" lengthAdjust="spacing" textLength="155" x="856.5" y="81.8457">WarehouseManagement</text><rect fill="#FFFFFF" height="49.2188" rx="2.5" ry="2.5" style="stroke:#000000;stroke-width:0.5;" width="169" x="849.5" y="784.9766"/><text fill="#000000" font-family="sans-serif" font-size="14" font-style="italic" lengthAdjust="spacing" textLength="106" x="881" y="806.5098">«Container(C4)»</text><text fill="#000000" font-family="sans-serif" font-size="14" lengthAdjust="spacing" textLength="155" x="856.5" y="824.1191">WarehouseManagement</text><rect fill="#FFFFFF" height="49.2188" rx="2.5" ry="2.5" style="stroke:#000000;stroke-width:0.5;" width="104" x="1028.5" y="42.7031"/><text fill="#000000" font-family="sans-serif" font-size="14" font-style="italic" lengthAdjust="spacing" textLength="90" x="1035.5" y="64.2363">«System(C4)»</text><text fill="#000000" font-family="sans-serif" font-size="14" lengthAdjust="spacing" textLength="46" x="1057.5" y="81.8457">Google</text><rect fill="#FFFFFF" height="49.2188" rx="2.5" ry="2.5" style="stroke:#000000;stroke-width:0.5;" width="104" x="1028.5" y="784.9766"/><text fill="#000000" font-family="sans-serif" font-size="14" font-style="italic" lengthAdjust="spacing" textLength="90" x="1035.5" y="806.5098">«System(C4)»</text><text fill="#000000" font-family="sans-serif" font-size="14" lengthAdjust="spacing" textLength="46" x="1057.5" y="824.1191">Google</text><rect fill="#FFFFFF" height="673.0547" style="stroke:#181818;stroke-width:1.0;" width="10" x="84.5" y="102.9219"/><rect fill="#FFFFFF" height="650.7031" style="stroke:#181818;stroke-width:1.0;" width="10" x="562.5" y="125.2734"/><rect fill="#FFFFFF" height="30.3516" style="stroke:#181818;stroke-width:1.0;" width="10" x="774.5" y="180.9766"/><rect fill="#FFFFFF" height="269.6484" style="stroke:#181818;stroke-width:1.0;" width="10" x="774.5" y="507.3281"/><rect fill="#FFFFFF" height="223.2969" style="stroke:#181818;stroke-width:1.0;" width="10" x="929" y="537.6797"/><rect fill="#FFFFFF" height="30.3516" style="stroke:#181818;stroke-width:1.0;" width="10" x="1075.5" y="257.5156"/><polygon fill="#181818" points="550.5,121.2734,560.5,125.2734,550.5,129.2734,554.5,125.2734" style="stroke:#181818;stroke-width:1.0;"/><line style="stroke:#181818;stroke-width:1.0;" x1="94.5" x2="556.5" y1="125.2734" y2="125.2734"/><text fill="#000000" font-family="sans-serif" font-size="13" font-weight="bold" lengthAdjust="spacing" textLength="7" x="101.5" y="120.417">1</text><text fill="#000000" font-family="sans-serif" font-size="13" lengthAdjust="spacing" textLength="80" x="112.5" y="120.417">I want to login</text><path d="M497.5,140.2734 L558.5,140.2734 L558.5,148.625 L548.5,158.625 L497.5,158.625 L497.5,140.2734 " fill="#EEEEEE" style="stroke:#000000;stroke-width:1.5;"/><rect fill="none" height="155.5938" style="stroke:#000000;stroke-width:1.5;" width="645" x="497.5" y="140.2734"/><text fill="#000000" font-family="sans-serif" font-size="13" font-weight="bold" lengthAdjust="spacing" textLength="16" x="512.5" y="154.7686">alt</text><text fill="#000000" font-family="sans-serif" font-size="11" font-weight="bold" lengthAdjust="spacing" textLength="266" x="573.5" y="153.6924">[Login through email and password in EletricGo]</text><polygon fill="#181818" points="762.5,176.9766,772.5,180.9766,762.5,184.9766,766.5,180.9766" style="stroke:#181818;stroke-width:1.0;"/><line style="stroke:#181818;stroke-width:1.0;" x1="572.5" x2="768.5" y1="180.9766" y2="180.9766"/><text fill="#000000" font-family="sans-serif" font-size="13" font-weight="bold" lengthAdjust="spacing" textLength="7" x="579.5" y="176.1201">2</text><text fill="#000000" font-family="sans-serif" font-size="13" lengthAdjust="spacing" textLength="172" x="590.5" y="176.1201">POST Login(email, password)</text><polygon fill="#181818" points="583.5,207.3281,573.5,211.3281,583.5,215.3281,579.5,211.3281" style="stroke:#181818;stroke-width:1.0;"/><line style="stroke:#181818;stroke-width:1.0;stroke-dasharray:2.0,2.0;" x1="577.5" x2="778.5" y1="211.3281" y2="211.3281"/><text fill="#000000" font-family="sans-serif" font-size="13" font-weight="bold" lengthAdjust="spacing" textLength="7" x="589.5" y="206.4717">3</text><text fill="#000000" font-family="sans-serif" font-size="13" lengthAdjust="spacing" textLength="44" x="600.5" y="206.4717">200 OK</text><line style="stroke:#000000;stroke-width:1.0;stroke-dasharray:2.0,2.0;" x1="497.5" x2="1142.5" y1="220.3281" y2="220.3281"/><text fill="#000000" font-family="sans-serif" font-size="11" font-weight="bold" lengthAdjust="spacing" textLength="128" x="502.5" y="231.7471">[Login through Google]</text><polygon fill="#181818" points="1063.5,253.5156,1073.5,257.5156,1063.5,261.5156,1067.5,257.5156" style="stroke:#181818;stroke-width:1.0;"/><line style="stroke:#181818;stroke-width:1.0;" x1="572.5" x2="1069.5" y1="257.5156" y2="257.5156"/><text fill="#000000" font-family="sans-serif" font-size="13" font-weight="bold" lengthAdjust="spacing" textLength="7" x="579.5" y="252.6592">4</text><text fill="#000000" font-family="sans-serif" font-size="13" lengthAdjust="spacing" textLength="153" x="590.5" y="252.6592">Login with Google account</text><polygon fill="#181818" points="583.5,283.8672,573.5,287.8672,583.5,291.8672,579.5,287.8672" style="stroke:#181818;stroke-width:1.0;"/><line style="stroke:#181818;stroke-width:1.0;stroke-dasharray:2.0,2.0;" x1="577.5" x2="1079.5" y1="287.8672" y2="287.8672"/><text fill="#000000" font-family="sans-serif" font-size="13" font-weight="bold" lengthAdjust="spacing" textLength="7" x="589.5" y="283.0107">5</text><text fill="#000000" font-family="sans-serif" font-size="13" lengthAdjust="spacing" textLength="44" x="600.5" y="283.0107">200 OK</text><polygon fill="#181818" points="105.5,321.2188,95.5,325.2188,105.5,329.2188,101.5,325.2188" style="stroke:#181818;stroke-width:1.0;"/><line style="stroke:#181818;stroke-width:1.0;stroke-dasharray:2.0,2.0;" x1="99.5" x2="561.5" y1="325.2188" y2="325.2188"/><text fill="#000000" font-family="sans-serif" font-size="13" font-weight="bold" lengthAdjust="spacing" textLength="7" x="111.5" y="320.3623">6</text><text fill="#000000" font-family="sans-serif" font-size="13" lengthAdjust="spacing" textLength="198" x="122.5" y="320.3623">informs about the success of login</text><polygon fill="#181818" points="550.5,351.5703,560.5,355.5703,550.5,359.5703,554.5,355.5703" style="stroke:#181818;stroke-width:1.0;"/><line style="stroke:#181818;stroke-width:1.0;" x1="94.5" x2="556.5" y1="355.5703" y2="355.5703"/><text fill="#000000" font-family="sans-serif" font-size="13" font-weight="bold" lengthAdjust="spacing" textLength="7" x="101.5" y="350.7139">7</text><text fill="#000000" font-family="sans-serif" font-size="13" lengthAdjust="spacing" textLength="247" x="112.5" y="350.7139">I want to update the details of a warehouse</text><polygon fill="#181818" points="105.5,381.9219,95.5,385.9219,105.5,389.9219,101.5,385.9219" style="stroke:#181818;stroke-width:1.0;"/><line style="stroke:#181818;stroke-width:1.0;stroke-dasharray:2.0,2.0;" x1="99.5" x2="561.5" y1="385.9219" y2="385.9219"/><text fill="#000000" font-family="sans-serif" font-size="13" font-weight="bold" lengthAdjust="spacing" textLength="7" x="111.5" y="381.0654">8</text><text fill="#000000" font-family="sans-serif" font-size="13" lengthAdjust="spacing" textLength="186" x="122.5" y="381.0654">asks for the ID of the warehouse</text><polygon fill="#181818" points="550.5,412.2734,560.5,416.2734,550.5,420.2734,554.5,416.2734" style="stroke:#181818;stroke-width:1.0;"/><line style="stroke:#181818;stroke-width:1.0;" x1="94.5" x2="556.5" y1="416.2734" y2="416.2734"/><text fill="#000000" font-family="sans-serif" font-size="13" font-weight="bold" lengthAdjust="spacing" textLength="7" x="101.5" y="411.417">9</text><text fill="#000000" font-family="sans-serif" font-size="13" lengthAdjust="spacing" textLength="179" x="112.5" y="411.417">inserts the ID of the warehouse</text><polygon fill="#181818" points="105.5,442.625,95.5,446.625,105.5,450.625,101.5,446.625" style="stroke:#181818;stroke-width:1.0;"/><line style="stroke:#181818;stroke-width:1.0;stroke-dasharray:2.0,2.0;" x1="99.5" x2="561.5" y1="446.625" y2="446.625"/><text fill="#000000" font-family="sans-serif" font-size="13" font-weight="bold" lengthAdjust="spacing" textLength="14" x="111.5" y="441.7686">10</text><text fill="#000000" font-family="sans-serif" font-size="13" lengthAdjust="spacing" textLength="193" x="129.5" y="441.7686">asks for the information to update</text><polygon fill="#181818" points="550.5,472.9766,560.5,476.9766,550.5,480.9766,554.5,476.9766" style="stroke:#181818;stroke-width:1.0;"/><line style="stroke:#181818;stroke-width:1.0;" x1="94.5" x2="556.5" y1="476.9766" y2="476.9766"/><text fill="#000000" font-family="sans-serif" font-size="13" font-weight="bold" lengthAdjust="spacing" textLength="14" x="101.5" y="472.1201">11</text><text fill="#000000" font-family="sans-serif" font-size="13" lengthAdjust="spacing" textLength="186" x="119.5" y="472.1201">inserts the information to update</text><polygon fill="#181818" points="762.5,503.3281,772.5,507.3281,762.5,511.3281,766.5,507.3281" style="stroke:#181818;stroke-width:1.0;"/><line style="stroke:#181818;stroke-width:1.0;" x1="572.5" x2="768.5" y1="507.3281" y2="507.3281"/><text fill="#000000" font-family="sans-serif" font-size="13" font-weight="bold" lengthAdjust="spacing" textLength="14" x="579.5" y="502.4717">12</text><text fill="#000000" font-family="sans-serif" font-size="13" lengthAdjust="spacing" textLength="78" x="597.5" y="502.4717">PUT Update()</text><polygon fill="#181818" points="917,533.6797,927,537.6797,917,541.6797,921,537.6797" style="stroke:#181818;stroke-width:1.0;"/><line style="stroke:#181818;stroke-width:1.0;" x1="784.5" x2="923" y1="537.6797" y2="537.6797"/><text fill="#000000" font-family="sans-serif" font-size="13" font-weight="bold" lengthAdjust="spacing" textLength="14" x="791.5" y="532.8232">13</text><text fill="#000000" font-family="sans-serif" font-size="13" lengthAdjust="spacing" textLength="78" x="809.5" y="532.8232">PUT Update()</text><path d="M10,552.6797 L71,552.6797 L71,561.0313 L61,571.0313 L10,571.0313 L10,552.6797 " fill="#EEEEEE" style="stroke:#000000;stroke-width:1.5;"/><rect fill="none" height="216.2969" style="stroke:#000000;stroke-width:1.5;" width="1018.5" x="10" y="552.6797"/><text fill="#000000" font-family="sans-serif" font-size="13" font-weight="bold" lengthAdjust="spacing" textLength="16" x="25" y="567.1748">alt</text><text fill="#000000" font-family="sans-serif" font-size="11" font-weight="bold" lengthAdjust="spacing" textLength="685" x="86" y="566.0986">[If the Id entered matches the Id of a warehouse in the system and the business rules for the new attributes are respected]</text><polygon fill="#181818" points="795.5,589.3828,785.5,593.3828,795.5,597.3828,791.5,593.3828" style="stroke:#181818;stroke-width:1.0;"/><line style="stroke:#181818;stroke-width:1.0;stroke-dasharray:2.0,2.0;" x1="789.5" x2="928" y1="593.3828" y2="593.3828"/><text fill="#000000" font-family="sans-serif" font-size="13" font-weight="bold" lengthAdjust="spacing" textLength="14" x="801.5" y="588.5264">14</text><text fill="#000000" font-family="sans-serif" font-size="13" lengthAdjust="spacing" textLength="44" x="819.5" y="588.5264">200 OK</text><polygon fill="#181818" points="583.5,619.7344,573.5,623.7344,583.5,627.7344,579.5,623.7344" style="stroke:#181818;stroke-width:1.0;"/><line style="stroke:#181818;stroke-width:1.0;stroke-dasharray:2.0,2.0;" x1="577.5" x2="773.5" y1="623.7344" y2="623.7344"/><text fill="#000000" font-family="sans-serif" font-size="13" font-weight="bold" lengthAdjust="spacing" textLength="14" x="589.5" y="618.8779">15</text><text fill="#000000" font-family="sans-serif" font-size="13" lengthAdjust="spacing" textLength="44" x="607.5" y="618.8779">200 OK</text><polygon fill="#181818" points="105.5,650.0859,95.5,654.0859,105.5,658.0859,101.5,654.0859" style="stroke:#181818;stroke-width:1.0;"/><line style="stroke:#181818;stroke-width:1.0;stroke-dasharray:2.0,2.0;" x1="99.5" x2="561.5" y1="654.0859" y2="654.0859"/><text fill="#000000" font-family="sans-serif" font-size="13" font-weight="bold" lengthAdjust="spacing" textLength="14" x="111.5" y="649.2295">16</text><text fill="#000000" font-family="sans-serif" font-size="13" lengthAdjust="spacing" textLength="426" x="129.5" y="649.2295">displays the updated information and informs about the operation success</text><line style="stroke:#000000;stroke-width:1.0;stroke-dasharray:2.0,2.0;" x1="10" x2="1028.5" y1="663.0859" y2="663.0859"/><text fill="#000000" font-family="sans-serif" font-size="11" font-weight="bold" lengthAdjust="spacing" textLength="736" x="15" y="674.5049">[If the Id entered does not match the Id of a warehouse in the system or the business rules for the new attributes are not respected]</text><polygon fill="#181818" points="795.5,696.2734,785.5,700.2734,795.5,704.2734,791.5,700.2734" style="stroke:#181818;stroke-width:1.0;"/><line style="stroke:#181818;stroke-width:1.0;stroke-dasharray:2.0,2.0;" x1="789.5" x2="928" y1="700.2734" y2="700.2734"/><text fill="#000000" font-family="sans-serif" font-size="13" font-weight="bold" lengthAdjust="spacing" textLength="14" x="801.5" y="695.417">17</text><text fill="#000000" font-family="sans-serif" font-size="13" lengthAdjust="spacing" textLength="87" x="819.5" y="695.417">409 CONFLICT</text><polygon fill="#181818" points="583.5,726.625,573.5,730.625,583.5,734.625,579.5,730.625" style="stroke:#181818;stroke-width:1.0;"/><line style="stroke:#181818;stroke-width:1.0;stroke-dasharray:2.0,2.0;" x1="577.5" x2="773.5" y1="730.625" y2="730.625"/><text fill="#000000" font-family="sans-serif" font-size="13" font-weight="bold" lengthAdjust="spacing" textLength="14" x="589.5" y="725.7686">18</text><text fill="#000000" font-family="sans-serif" font-size="13" lengthAdjust="spacing" textLength="68" x="607.5" y="725.7686">409 Conflict</text><polygon fill="#181818" points="105.5,756.9766,95.5,760.9766,105.5,764.9766,101.5,760.9766" style="stroke:#181818;stroke-width:1.0;"/><line style="stroke:#181818;stroke-width:1.0;stroke-dasharray:2.0,2.0;" x1="99.5" x2="561.5" y1="760.9766" y2="760.9766"/><text fill="#000000" font-family="sans-serif" font-size="13" font-weight="bold" lengthAdjust="spacing" textLength="14" x="111.5" y="756.1201">19</text><text fill="#000000" font-family="sans-serif" font-size="13" lengthAdjust="spacing" textLength="139" x="129.5" y="756.1201">display a message error</text><!--MD5=[d9bd456f165e161f49a76dd396819382]
@startuml updateWarehouseSD
autonumber

skinparam sequence {
ParticipantBorderColor black
ParticipantBackgroundColor white
}

actor "Warehouse Manager" as admin

box "<<EletricGo(C4)>>\n       System"
participant UI as UI <<Container(C4)>>
participant Auth as Auth <<Container(C4)>>
participant WarehouseManagement as  WM <<Container(C4)>>
end box
participant Google as Google <<System(C4)>>


activate admin
admin->UI: I want to login
activate UI

alt Login through email and password in EletricGo

UI -> Auth: POST Login(email, password)
activate Auth

Auth - -> UI: 200 OK
deactivate Auth

else Login through Google

UI -> Google: Login with Google account
activate Google
Google - -> UI: 200 OK
deactivate Google

end

UI - -> admin: informs about the success of login

admin -> UI: I want to update the details of a warehouse


UI - -> admin: asks for the ID of the warehouse


admin -> UI: inserts the ID of the warehouse


UI - -> admin: asks for the information to update


admin -> UI: inserts the information to update


UI -> Auth: PUT Update()
activate Auth
Auth -> WM: PUT Update()
activate WM

alt If the Id entered matches the Id of a warehouse in the system and the business rules for the new attributes are respected


WM - -> Auth : 200 OK 
Auth - -> UI: 200 OK
UI - -> admin: displays the updated information and informs about the operation success

else If the Id entered does not match the Id of a warehouse in the system or the business rules for the new attributes are not respected


WM - -> Auth : 409 CONFLICT
Auth - -> UI: 409 Conflict
UI - -> admin: display a message error
deactivate WM

end

deactivate UI
deactivate admin


@enduml

PlantUML version 1.2022.7(Mon Aug 22 18:01:30 WEST 2022)
(GPL source distribution)
Java Runtime: Java(TM) SE Runtime Environment
JVM: Java HotSpot(TM) 64-Bit Server VM
Default Encoding: Cp1252
Language: en
Country: GB
--></g></svg>