<?xml version="1.0" encoding="UTF-8" standalone="no"?><svg xmlns="http://www.w3.org/2000/svg" xmlns:xlink="http://www.w3.org/1999/xlink" contentStyleType="text/css" height="1697px" preserveAspectRatio="none" style="width:2681px;height:1697px;background:#FFFFFF;" version="1.1" viewBox="0 0 2681 1697" width="2681px" zoomAndPan="magnify"><defs/><g><rect fill="#FFFFE0" height="1685.7656" style="stroke:#181818;stroke-width:0.5;" width="2320.5" x="341.5" y="6"/><text fill="#000000" font-family="sans-serif" font-size="13" font-weight="bold" lengthAdjust="spacing" textLength="102" x="1450.75" y="19.4951">&lt;&lt;System(C4)&gt;&gt;</text><text fill="#000000" font-family="sans-serif" font-size="13" font-weight="bold" lengthAdjust="spacing" textLength="58" x="1478.75" y="35.8467">EletricGo</text><rect fill="#E0FFFF" height="1648.0625" style="stroke:#181818;stroke-width:0.5;" width="622" x="341.5" y="43.7031"/><text fill="#000000" font-family="sans-serif" font-size="13" font-weight="bold" lengthAdjust="spacing" textLength="118" x="593.5" y="57.1982">&lt;&lt;Container(C4)&gt;&gt;</text><text fill="#000000" font-family="sans-serif" font-size="13" font-weight="bold" lengthAdjust="spacing" textLength="13" x="637.5" y="73.5498">UI</text><rect fill="#87CEFA" height="1648.0625" style="stroke:#181818;stroke-width:0.5;" width="676" x="975.5" y="43.7031"/><text fill="#000000" font-family="sans-serif" font-size="13" font-weight="bold" lengthAdjust="spacing" textLength="118" x="1254.5" y="57.1982">&lt;&lt;Container(C4)&gt;&gt;</text><text fill="#000000" font-family="sans-serif" font-size="13" font-weight="bold" lengthAdjust="spacing" textLength="92" x="1254.5" y="73.5498">Authentication</text><rect fill="#90EE90" height="1648.0625" style="stroke:#181818;stroke-width:0.5;" width="998.5" x="1663.5" y="43.7031"/><text fill="#000000" font-family="sans-serif" font-size="13" font-weight="bold" lengthAdjust="spacing" textLength="118" x="2083.25" y="57.1982">&lt;&lt;Container(C4)&gt;&gt;</text><text fill="#000000" font-family="sans-serif" font-size="13" font-weight="bold" lengthAdjust="spacing" textLength="159" x="2083.25" y="73.5498">Warehouse Management</text><rect fill="none" height="643.8672" style="stroke:#000000;stroke-width:1.5;" width="1366.5" x="138" y="200.3672"/><rect fill="none" height="539.8125" style="stroke:#000000;stroke-width:1.5;" width="2615.5" x="58.5" y="1044.3438"/><line style="stroke:#181818;stroke-width:0.5;stroke-dasharray:5.0,5.0;" x1="74.5" x2="74.5" y1="158.0156" y2="1608.1563"/><rect fill="#FFFFFF" height="1437.1406" style="stroke:#181818;stroke-width:1.0;" width="10" x="69.5" y="166.0156"/><line style="stroke:#181818;stroke-width:0.5;stroke-dasharray:5.0,5.0;" x1="206" x2="206" y1="158.0156" y2="1608.1563"/><rect fill="#FFFFFF" height="30.3516" style="stroke:#181818;stroke-width:1.0;" width="10" x="201" y="563.0703"/><line style="stroke:#181818;stroke-width:0.5;stroke-dasharray:5.0,5.0;" x1="411" x2="411" y1="158.0156" y2="1608.1563"/><rect fill="#FFFFFF" height="692.2188" style="stroke:#181818;stroke-width:1.0;" width="10" x="406" y="188.3672"/><line style="stroke:#181818;stroke-width:0.5;stroke-dasharray:5.0,5.0;" x1="580" x2="580" y1="158.0156" y2="1608.1563"/><rect fill="#FFFFFF" height="255.8125" style="stroke:#181818;stroke-width:1.0;" width="10" x="575" y="251.0703"/><rect fill="#FFFFFF" height="212.4609" style="stroke:#181818;stroke-width:1.0;" width="10" x="575" y="623.7734"/><line style="stroke:#181818;stroke-width:0.5;stroke-dasharray:5.0,5.0;" x1="731.5" x2="731.5" y1="158.0156" y2="1608.1563"/><rect fill="#FFFFFF" height="665.2188" style="stroke:#181818;stroke-width:1.0;" width="10" x="726.5" y="910.9375"/><line style="stroke:#181818;stroke-width:0.5;stroke-dasharray:5.0,5.0;" x1="892.5" x2="892.5" y1="158.0156" y2="1608.1563"/><rect fill="#FFFFFF" height="604.5156" style="stroke:#181818;stroke-width:1.0;" width="10" x="887.5" y="941.2891"/><line style="stroke:#181818;stroke-width:0.5;stroke-dasharray:5.0,5.0;" x1="1039.5" x2="1039.5" y1="158.0156" y2="1608.1563"/><rect fill="#FFFFFF" height="195.1094" style="stroke:#181818;stroke-width:1.0;" width="10" x="1034.5" y="281.4219"/><rect fill="#FFFFFF" height="151.7578" style="stroke:#181818;stroke-width:1.0;" width="10" x="1034.5" y="654.125"/><line style="stroke:#181818;stroke-width:0.5;stroke-dasharray:5.0,5.0;" x1="1208.5" x2="1208.5" y1="158.0156" y2="1608.1563"/><rect fill="#FFFFFF" height="134.4063" style="stroke:#181818;stroke-width:1.0;" width="10" x="1203.5" y="311.7734"/><rect fill="#FFFFFF" height="91.0547" style="stroke:#181818;stroke-width:1.0;" width="10" x="1203.5" y="684.4766"/><line style="stroke:#181818;stroke-width:0.5;stroke-dasharray:5.0,5.0;" x1="1428.5" x2="1428.5" y1="158.0156" y2="1608.1563"/><rect fill="#FFFFFF" height="30.3516" style="stroke:#181818;stroke-width:1.0;" width="10" x="1423.5" y="342.125"/><rect fill="#FFFFFF" height="30.3516" style="stroke:#181818;stroke-width:1.0;" width="10" x="1423.5" y="714.8281"/><line style="stroke:#181818;stroke-width:0.5;stroke-dasharray:5.0,5.0;" x1="1573" x2="1573" y1="158.0156" y2="1608.1563"/><rect fill="#FFFFFF" height="543.8125" style="stroke:#181818;stroke-width:1.0;" width="10" x="1568" y="971.6406"/><line style="stroke:#181818;stroke-width:0.5;stroke-dasharray:5.0,5.0;" x1="1742" x2="1742" y1="158.0156" y2="1608.1563"/><rect fill="#FFFFFF" height="483.1094" style="stroke:#181818;stroke-width:1.0;" width="10" x="1737" y="1001.9922"/><line style="stroke:#181818;stroke-width:0.5;stroke-dasharray:5.0,5.0;" x1="1917" x2="1917" y1="158.0156" y2="1608.1563"/><rect fill="#FFFFFF" height="422.4063" style="stroke:#181818;stroke-width:1.0;" width="10" x="1912" y="1032.3438"/><line style="stroke:#181818;stroke-width:0.5;stroke-dasharray:5.0,5.0;" x1="2165" x2="2165" y1="158.0156" y2="1608.1563"/><rect fill="#FFFFFF" height="30.3516" style="stroke:#181818;stroke-width:1.0;" width="10" x="2160" y="1155.75"/><line style="stroke:#181818;stroke-width:0.5;stroke-dasharray:5.0,5.0;" x1="2377" x2="2377" y1="158.0156" y2="1608.1563"/><line style="stroke:#181818;stroke-width:0.5;stroke-dasharray:5.0,5.0;" x1="2580.5" x2="2580.5" y1="158.0156" y2="1608.1563"/><rect fill="#FFFFFF" height="329.3516" style="stroke:#181818;stroke-width:1.0;" width="10" x="2575.5" y="1095.0469"/><text fill="#000000" font-family="sans-serif" font-size="14" lengthAdjust="spacing" textLength="133" x="5" y="154.9395">Warehouse Manager</text><ellipse cx="74.5" cy="88.9063" fill="#E2E2F0" rx="8" ry="8" style="stroke:#181818;stroke-width:0.5;"/><path d="M74.5,96.9063 L74.5,123.9063 M61.5,104.9063 L87.5,104.9063 M74.5,123.9063 L61.5,138.9063 M74.5,123.9063 L87.5,138.9063 " fill="none" style="stroke:#181818;stroke-width:0.5;"/><rect fill="#E2E2F0" height="49.2188" rx="2.5" ry="2.5" style="stroke:#181818;stroke-width:0.5;" width="104" x="154" y="107.7969"/><text fill="#000000" font-family="sans-serif" font-size="14" font-style="italic" lengthAdjust="spacing" textLength="90" x="161" y="129.3301">«System(C4)»</text><text fill="#000000" font-family="sans-serif" font-size="14" lengthAdjust="spacing" textLength="46" x="183" y="146.9395">Google</text><rect fill="#E2E2F0" height="49.2188" rx="2.5" ry="2.5" style="stroke:#181818;stroke-width:0.5;" width="131" x="345.5" y="107.7969"/><text fill="#000000" font-family="sans-serif" font-size="14" font-style="italic" lengthAdjust="spacing" textLength="117" x="352.5" y="129.3301">«Component(C4)»</text><text fill="#000000" font-family="sans-serif" font-size="14" lengthAdjust="spacing" textLength="97" x="362.5" y="146.9395">LoginController</text><rect fill="#E2E2F0" height="49.2188" rx="2.5" ry="2.5" style="stroke:#181818;stroke-width:0.5;" width="131" x="514.5" y="107.7969"/><text fill="#000000" font-family="sans-serif" font-size="14" font-style="italic" lengthAdjust="spacing" textLength="117" x="521.5" y="129.3301">«Component(C4)»</text><text fill="#000000" font-family="sans-serif" font-size="14" lengthAdjust="spacing" textLength="82" x="539" y="146.9395">LoginService</text><rect fill="#E2E2F0" height="49.2188" rx="2.5" ry="2.5" style="stroke:#181818;stroke-width:0.5;" width="152" x="655.5" y="107.7969"/><text fill="#000000" font-family="sans-serif" font-size="14" font-style="italic" lengthAdjust="spacing" textLength="117" x="673" y="129.3301">«Component(C4)»</text><text fill="#000000" font-family="sans-serif" font-size="14" lengthAdjust="spacing" textLength="138" x="662.5" y="146.9395">WarehouseCompoent</text><rect fill="#E2E2F0" height="49.2188" rx="2.5" ry="2.5" style="stroke:#181818;stroke-width:0.5;" width="134" x="825.5" y="107.7969"/><text fill="#000000" font-family="sans-serif" font-size="14" font-style="italic" lengthAdjust="spacing" textLength="117" x="834" y="129.3301">«Component(C4)»</text><text fill="#000000" font-family="sans-serif" font-size="14" lengthAdjust="spacing" textLength="120" x="832.5" y="146.9395">WarehouseService</text><rect fill="#E2E2F0" height="49.2188" rx="2.5" ry="2.5" style="stroke:#181818;stroke-width:0.5;" width="120" x="979.5" y="107.7969"/><text fill="#000000" font-family="sans-serif" font-size="14" font-style="italic" lengthAdjust="spacing" textLength="106" x="986.5" y="129.3301">«Container(C4)»</text><text fill="#000000" font-family="sans-serif" font-size="14" lengthAdjust="spacing" textLength="91" x="994" y="146.9395">UserController</text><rect fill="#E2E2F0" height="49.2188" rx="2.5" ry="2.5" style="stroke:#181818;stroke-width:0.5;" width="120" x="1148.5" y="107.7969"/><text fill="#000000" font-family="sans-serif" font-size="14" font-style="italic" lengthAdjust="spacing" textLength="106" x="1155.5" y="129.3301">«Container(C4)»</text><text fill="#000000" font-family="sans-serif" font-size="14" lengthAdjust="spacing" textLength="76" x="1170.5" y="146.9395">UserService</text><rect fill="#E2E2F0" height="49.2188" rx="2.5" ry="2.5" style="stroke:#181818;stroke-width:0.5;" width="120" x="1368.5" y="107.7969"/><text fill="#000000" font-family="sans-serif" font-size="14" font-style="italic" lengthAdjust="spacing" textLength="106" x="1375.5" y="129.3301">«Container(C4)»</text><text fill="#000000" font-family="sans-serif" font-size="14" lengthAdjust="spacing" textLength="97" x="1380" y="146.9395">UserRepository</text><rect fill="#E2E2F0" height="49.2188" rx="2.5" ry="2.5" style="stroke:#181818;stroke-width:0.5;" width="149" x="1498.5" y="107.7969"/><text fill="#000000" font-family="sans-serif" font-size="14" font-style="italic" lengthAdjust="spacing" textLength="106" x="1520" y="129.3301">«Container(C4)»</text><text fill="#000000" font-family="sans-serif" font-size="14" lengthAdjust="spacing" textLength="135" x="1505.5" y="146.9395">WarehouseController</text><rect fill="#E2E2F0" height="49.2188" rx="2.5" ry="2.5" style="stroke:#181818;stroke-width:0.5;" width="149" x="1667.5" y="107.7969"/><text fill="#000000" font-family="sans-serif" font-size="14" font-style="italic" lengthAdjust="spacing" textLength="117" x="1683.5" y="129.3301">«Component(C4)»</text><text fill="#000000" font-family="sans-serif" font-size="14" lengthAdjust="spacing" textLength="135" x="1674.5" y="146.9395">WarehouseController</text><rect fill="#E2E2F0" height="49.2188" rx="2.5" ry="2.5" style="stroke:#181818;stroke-width:0.5;" width="134" x="1850" y="107.7969"/><text fill="#000000" font-family="sans-serif" font-size="14" font-style="italic" lengthAdjust="spacing" textLength="117" x="1858.5" y="129.3301">«Component(C4)»</text><text fill="#000000" font-family="sans-serif" font-size="14" lengthAdjust="spacing" textLength="120" x="1857" y="146.9395">WarehouseService</text><rect fill="#E2E2F0" height="49.2188" rx="2.5" ry="2.5" style="stroke:#181818;stroke-width:0.5;" width="172" x="2079" y="107.7969"/><text fill="#000000" font-family="sans-serif" font-size="14" font-style="italic" lengthAdjust="spacing" textLength="117" x="2106.5" y="129.3301">«Component(C4)»</text><text fill="#000000" font-family="sans-serif" font-size="14" lengthAdjust="spacing" textLength="158" x="2086" y="146.9395">Warehouse : Warehouse</text><rect fill="#E2E2F0" height="49.2188" rx="2.5" ry="2.5" style="stroke:#181818;stroke-width:0.5;" width="232" x="2261" y="107.7969"/><text fill="#000000" font-family="sans-serif" font-size="14" font-style="italic" lengthAdjust="spacing" textLength="117" x="2318.5" y="129.3301">«Component(C4)»</text><text fill="#000000" font-family="sans-serif" font-size="14" lengthAdjust="spacing" textLength="218" x="2268" y="146.9395">WarehouseDTO : WarehouseDTO</text><rect fill="#E2E2F0" height="49.2188" rx="2.5" ry="2.5" style="stroke:#181818;stroke-width:0.5;" width="155" x="2503" y="107.7969"/><text fill="#000000" font-family="sans-serif" font-size="14" font-style="italic" lengthAdjust="spacing" textLength="117" x="2522" y="129.3301">«Component(C4)»</text><text fill="#000000" font-family="sans-serif" font-size="14" lengthAdjust="spacing" textLength="141" x="2510" y="146.9395">WarehouseRepository</text><text fill="#000000" font-family="sans-serif" font-size="14" lengthAdjust="spacing" textLength="133" x="5" y="1682.6895">Warehouse Manager</text><ellipse cx="74.5" cy="1616.6563" fill="#E2E2F0" rx="8" ry="8" style="stroke:#181818;stroke-width:0.5;"/><path d="M74.5,1624.6563 L74.5,1651.6563 M61.5,1632.6563 L87.5,1632.6563 M74.5,1651.6563 L61.5,1666.6563 M74.5,1651.6563 L87.5,1666.6563 " fill="none" style="stroke:#181818;stroke-width:0.5;"/><rect fill="#E2E2F0" height="49.2188" rx="2.5" ry="2.5" style="stroke:#181818;stroke-width:0.5;" width="104" x="154" y="1608.1563"/><text fill="#000000" font-family="sans-serif" font-size="14" font-style="italic" lengthAdjust="spacing" textLength="90" x="161" y="1629.6895">«System(C4)»</text><text fill="#000000" font-family="sans-serif" font-size="14" lengthAdjust="spacing" textLength="46" x="183" y="1647.2988">Google</text><rect fill="#E2E2F0" height="49.2188" rx="2.5" ry="2.5" style="stroke:#181818;stroke-width:0.5;" width="131" x="345.5" y="1608.1563"/><text fill="#000000" font-family="sans-serif" font-size="14" font-style="italic" lengthAdjust="spacing" textLength="117" x="352.5" y="1629.6895">«Component(C4)»</text><text fill="#000000" font-family="sans-serif" font-size="14" lengthAdjust="spacing" textLength="97" x="362.5" y="1647.2988">LoginController</text><rect fill="#E2E2F0" height="49.2188" rx="2.5" ry="2.5" style="stroke:#181818;stroke-width:0.5;" width="131" x="514.5" y="1608.1563"/><text fill="#000000" font-family="sans-serif" font-size="14" font-style="italic" lengthAdjust="spacing" textLength="117" x="521.5" y="1629.6895">«Component(C4)»</text><text fill="#000000" font-family="sans-serif" font-size="14" lengthAdjust="spacing" textLength="82" x="539" y="1647.2988">LoginService</text><rect fill="#E2E2F0" height="49.2188" rx="2.5" ry="2.5" style="stroke:#181818;stroke-width:0.5;" width="152" x="655.5" y="1608.1563"/><text fill="#000000" font-family="sans-serif" font-size="14" font-style="italic" lengthAdjust="spacing" textLength="117" x="673" y="1629.6895">«Component(C4)»</text><text fill="#000000" font-family="sans-serif" font-size="14" lengthAdjust="spacing" textLength="138" x="662.5" y="1647.2988">WarehouseCompoent</text><rect fill="#E2E2F0" height="49.2188" rx="2.5" ry="2.5" style="stroke:#181818;stroke-width:0.5;" width="134" x="825.5" y="1608.1563"/><text fill="#000000" font-family="sans-serif" font-size="14" font-style="italic" lengthAdjust="spacing" textLength="117" x="834" y="1629.6895">«Component(C4)»</text><text fill="#000000" font-family="sans-serif" font-size="14" lengthAdjust="spacing" textLength="120" x="832.5" y="1647.2988">WarehouseService</text><rect fill="#E2E2F0" height="49.2188" rx="2.5" ry="2.5" style="stroke:#181818;stroke-width:0.5;" width="120" x="979.5" y="1608.1563"/><text fill="#000000" font-family="sans-serif" font-size="14" font-style="italic" lengthAdjust="spacing" textLength="106" x="986.5" y="1629.6895">«Container(C4)»</text><text fill="#000000" font-family="sans-serif" font-size="14" lengthAdjust="spacing" textLength="91" x="994" y="1647.2988">UserController</text><rect fill="#E2E2F0" height="49.2188" rx="2.5" ry="2.5" style="stroke:#181818;stroke-width:0.5;" width="120" x="1148.5" y="1608.1563"/><text fill="#000000" font-family="sans-serif" font-size="14" font-style="italic" lengthAdjust="spacing" textLength="106" x="1155.5" y="1629.6895">«Container(C4)»</text><text fill="#000000" font-family="sans-serif" font-size="14" lengthAdjust="spacing" textLength="76" x="1170.5" y="1647.2988">UserService</text><rect fill="#E2E2F0" height="49.2188" rx="2.5" ry="2.5" style="stroke:#181818;stroke-width:0.5;" width="120" x="1368.5" y="1608.1563"/><text fill="#000000" font-family="sans-serif" font-size="14" font-style="italic" lengthAdjust="spacing" textLength="106" x="1375.5" y="1629.6895">«Container(C4)»</text><text fill="#000000" font-family="sans-serif" font-size="14" lengthAdjust="spacing" textLength="97" x="1380" y="1647.2988">UserRepository</text><rect fill="#E2E2F0" height="49.2188" rx="2.5" ry="2.5" style="stroke:#181818;stroke-width:0.5;" width="149" x="1498.5" y="1608.1563"/><text fill="#000000" font-family="sans-serif" font-size="14" font-style="italic" lengthAdjust="spacing" textLength="106" x="1520" y="1629.6895">«Container(C4)»</text><text fill="#000000" font-family="sans-serif" font-size="14" lengthAdjust="spacing" textLength="135" x="1505.5" y="1647.2988">WarehouseController</text><rect fill="#E2E2F0" height="49.2188" rx="2.5" ry="2.5" style="stroke:#181818;stroke-width:0.5;" width="149" x="1667.5" y="1608.1563"/><text fill="#000000" font-family="sans-serif" font-size="14" font-style="italic" lengthAdjust="spacing" textLength="117" x="1683.5" y="1629.6895">«Component(C4)»</text><text fill="#000000" font-family="sans-serif" font-size="14" lengthAdjust="spacing" textLength="135" x="1674.5" y="1647.2988">WarehouseController</text><rect fill="#E2E2F0" height="49.2188" rx="2.5" ry="2.5" style="stroke:#181818;stroke-width:0.5;" width="134" x="1850" y="1608.1563"/><text fill="#000000" font-family="sans-serif" font-size="14" font-style="italic" lengthAdjust="spacing" textLength="117" x="1858.5" y="1629.6895">«Component(C4)»</text><text fill="#000000" font-family="sans-serif" font-size="14" lengthAdjust="spacing" textLength="120" x="1857" y="1647.2988">WarehouseService</text><rect fill="#E2E2F0" height="49.2188" rx="2.5" ry="2.5" style="stroke:#181818;stroke-width:0.5;" width="172" x="2079" y="1608.1563"/><text fill="#000000" font-family="sans-serif" font-size="14" font-style="italic" lengthAdjust="spacing" textLength="117" x="2106.5" y="1629.6895">«Component(C4)»</text><text fill="#000000" font-family="sans-serif" font-size="14" lengthAdjust="spacing" textLength="158" x="2086" y="1647.2988">Warehouse : Warehouse</text><rect fill="#E2E2F0" height="49.2188" rx="2.5" ry="2.5" style="stroke:#181818;stroke-width:0.5;" width="232" x="2261" y="1608.1563"/><text fill="#000000" font-family="sans-serif" font-size="14" font-style="italic" lengthAdjust="spacing" textLength="117" x="2318.5" y="1629.6895">«Component(C4)»</text><text fill="#000000" font-family="sans-serif" font-size="14" lengthAdjust="spacing" textLength="218" x="2268" y="1647.2988">WarehouseDTO : WarehouseDTO</text><rect fill="#E2E2F0" height="49.2188" rx="2.5" ry="2.5" style="stroke:#181818;stroke-width:0.5;" width="155" x="2503" y="1608.1563"/><text fill="#000000" font-family="sans-serif" font-size="14" font-style="italic" lengthAdjust="spacing" textLength="117" x="2522" y="1629.6895">«Component(C4)»</text><text fill="#000000" font-family="sans-serif" font-size="14" lengthAdjust="spacing" textLength="141" x="2510" y="1647.2988">WarehouseRepository</text><polygon fill="#181818" points="394,184.3672,404,188.3672,394,192.3672,398,188.3672" style="stroke:#181818;stroke-width:1.0;"/><line style="stroke:#181818;stroke-width:1.0;" x1="79.5" x2="400" y1="188.3672" y2="188.3672"/><text fill="#000000" font-family="sans-serif" font-size="13" font-weight="bold" lengthAdjust="spacing" textLength="7" x="86.5" y="183.5107">1</text><text fill="#000000" font-family="sans-serif" font-size="13" lengthAdjust="spacing" textLength="80" x="97.5" y="183.5107">I want to login</text><path d="M138,200.3672 L199,200.3672 L199,208.7188 L189,218.7188 L138,218.7188 L138,200.3672 " fill="#EEEEEE" style="stroke:#000000;stroke-width:1.5;"/><rect fill="none" height="643.8672" style="stroke:#000000;stroke-width:1.5;" width="1366.5" x="138" y="200.3672"/><text fill="#000000" font-family="sans-serif" font-size="13" font-weight="bold" lengthAdjust="spacing" textLength="16" x="153" y="214.8623">alt</text><text fill="#000000" font-family="sans-serif" font-size="11" font-weight="bold" lengthAdjust="spacing" textLength="266" x="214" y="213.7861">[Login through email and password in EletricGo]</text><line style="stroke:#000000;stroke-width:1.0;stroke-dasharray:2.0,2.0;" x1="138" x2="1504.5" y1="525.8828" y2="525.8828"/><text fill="#000000" font-family="sans-serif" font-size="11" font-weight="bold" lengthAdjust="spacing" textLength="128" x="143" y="537.3018">[Login through Google]</text><polygon fill="#181818" points="563,247.0703,573,251.0703,563,255.0703,567,251.0703" style="stroke:#181818;stroke-width:1.0;"/><line style="stroke:#181818;stroke-width:1.0;" x1="416" x2="569" y1="251.0703" y2="251.0703"/><text fill="#000000" font-family="sans-serif" font-size="13" font-weight="bold" lengthAdjust="spacing" textLength="7" x="423" y="246.2139">2</text><text fill="#000000" font-family="sans-serif" font-size="13" lengthAdjust="spacing" textLength="129" x="434" y="246.2139">login(email, password)</text><polygon fill="#181818" points="1022.5,277.4219,1032.5,281.4219,1022.5,285.4219,1026.5,281.4219" style="stroke:#181818;stroke-width:1.0;"/><line style="stroke:#181818;stroke-width:1.0;" x1="585" x2="1028.5" y1="281.4219" y2="281.4219"/><text fill="#000000" font-family="sans-serif" font-size="13" font-weight="bold" lengthAdjust="spacing" textLength="7" x="592" y="276.5654">3</text><text fill="#000000" font-family="sans-serif" font-size="13" lengthAdjust="spacing" textLength="172" x="603" y="276.5654">POST Login(email, password)</text><polygon fill="#181818" points="1191.5,307.7734,1201.5,311.7734,1191.5,315.7734,1195.5,311.7734" style="stroke:#181818;stroke-width:1.0;"/><line style="stroke:#181818;stroke-width:1.0;" x1="1044.5" x2="1197.5" y1="311.7734" y2="311.7734"/><text fill="#000000" font-family="sans-serif" font-size="13" font-weight="bold" lengthAdjust="spacing" textLength="7" x="1051.5" y="306.917">4</text><text fill="#000000" font-family="sans-serif" font-size="13" lengthAdjust="spacing" textLength="129" x="1062.5" y="306.917">login(email, password)</text><polygon fill="#181818" points="1411.5,338.125,1421.5,342.125,1411.5,346.125,1415.5,342.125" style="stroke:#181818;stroke-width:1.0;"/><line style="stroke:#181818;stroke-width:1.0;" x1="1213.5" x2="1417.5" y1="342.125" y2="342.125"/><text fill="#000000" font-family="sans-serif" font-size="13" font-weight="bold" lengthAdjust="spacing" textLength="7" x="1220.5" y="337.2686">5</text><text fill="#000000" font-family="sans-serif" font-size="13" lengthAdjust="spacing" textLength="108" x="1231.5" y="337.2686">findByEmail(email)</text><polygon fill="#181818" points="1224.5,368.4766,1214.5,372.4766,1224.5,376.4766,1220.5,372.4766" style="stroke:#181818;stroke-width:1.0;"/><line style="stroke:#181818;stroke-width:1.0;stroke-dasharray:2.0,2.0;" x1="1218.5" x2="1422.5" y1="372.4766" y2="372.4766"/><text fill="#000000" font-family="sans-serif" font-size="13" font-weight="bold" lengthAdjust="spacing" textLength="7" x="1230.5" y="367.6201">6</text><text fill="#000000" font-family="sans-serif" font-size="13" lengthAdjust="spacing" textLength="27" x="1241.5" y="367.6201">User</text><line style="stroke:#181818;stroke-width:1.0;" x1="1213.5" x2="1255.5" y1="402.8281" y2="402.8281"/><line style="stroke:#181818;stroke-width:1.0;" x1="1255.5" x2="1255.5" y1="402.8281" y2="415.8281"/><line style="stroke:#181818;stroke-width:1.0;" x1="1214.5" x2="1255.5" y1="415.8281" y2="415.8281"/><polygon fill="#181818" points="1224.5,411.8281,1214.5,415.8281,1224.5,419.8281,1220.5,415.8281" style="stroke:#181818;stroke-width:1.0;"/><text fill="#000000" font-family="sans-serif" font-size="13" font-weight="bold" lengthAdjust="spacing" textLength="7" x="1220.5" y="397.9717">7</text><text fill="#000000" font-family="sans-serif" font-size="13" lengthAdjust="spacing" textLength="190" x="1231.5" y="397.9717">checkPassword(password, User)</text><polygon fill="#181818" points="1055.5,442.1797,1045.5,446.1797,1055.5,450.1797,1051.5,446.1797" style="stroke:#181818;stroke-width:1.0;"/><line style="stroke:#181818;stroke-width:1.0;stroke-dasharray:2.0,2.0;" x1="1049.5" x2="1202.5" y1="446.1797" y2="446.1797"/><text fill="#000000" font-family="sans-serif" font-size="13" font-weight="bold" lengthAdjust="spacing" textLength="7" x="1061.5" y="441.3232">8</text><text fill="#000000" font-family="sans-serif" font-size="13" lengthAdjust="spacing" textLength="51" x="1072.5" y="441.3232">Success</text><polygon fill="#181818" points="596,472.5313,586,476.5313,596,480.5313,592,476.5313" style="stroke:#181818;stroke-width:1.0;"/><line style="stroke:#181818;stroke-width:1.0;stroke-dasharray:2.0,2.0;" x1="590" x2="1033.5" y1="476.5313" y2="476.5313"/><text fill="#000000" font-family="sans-serif" font-size="13" font-weight="bold" lengthAdjust="spacing" textLength="7" x="602" y="471.6748">9</text><text fill="#000000" font-family="sans-serif" font-size="13" lengthAdjust="spacing" textLength="100" x="613" y="471.6748">200 OK + Cookie</text><polygon fill="#181818" points="427,502.8828,417,506.8828,427,510.8828,423,506.8828" style="stroke:#181818;stroke-width:1.0;"/><line style="stroke:#181818;stroke-width:1.0;stroke-dasharray:2.0,2.0;" x1="421" x2="574" y1="506.8828" y2="506.8828"/><text fill="#000000" font-family="sans-serif" font-size="13" font-weight="bold" lengthAdjust="spacing" textLength="14" x="433" y="502.0264">10</text><text fill="#000000" font-family="sans-serif" font-size="13" lengthAdjust="spacing" textLength="44" x="451" y="502.0264">200 OK</text><polygon fill="#181818" points="222,559.0703,212,563.0703,222,567.0703,218,563.0703" style="stroke:#181818;stroke-width:1.0;"/><line style="stroke:#181818;stroke-width:1.0;" x1="216" x2="405" y1="563.0703" y2="563.0703"/><text fill="#000000" font-family="sans-serif" font-size="13" font-weight="bold" lengthAdjust="spacing" textLength="14" x="228" y="558.2139">11</text><text fill="#000000" font-family="sans-serif" font-size="13" lengthAdjust="spacing" textLength="153" x="246" y="558.2139">Login with Google account</text><polygon fill="#181818" points="394,589.4219,404,593.4219,394,597.4219,398,593.4219" style="stroke:#181818;stroke-width:1.0;"/><line style="stroke:#181818;stroke-width:1.0;stroke-dasharray:2.0,2.0;" x1="211" x2="400" y1="593.4219" y2="593.4219"/><text fill="#000000" font-family="sans-serif" font-size="13" font-weight="bold" lengthAdjust="spacing" textLength="14" x="218" y="588.5654">12</text><text fill="#000000" font-family="sans-serif" font-size="13" lengthAdjust="spacing" textLength="44" x="236" y="588.5654">200 OK</text><polygon fill="#181818" points="563,619.7734,573,623.7734,563,627.7734,567,623.7734" style="stroke:#181818;stroke-width:1.0;"/><line style="stroke:#181818;stroke-width:1.0;" x1="416" x2="569" y1="623.7734" y2="623.7734"/><text fill="#000000" font-family="sans-serif" font-size="13" font-weight="bold" lengthAdjust="spacing" textLength="14" x="423" y="618.917">13</text><text fill="#000000" font-family="sans-serif" font-size="13" lengthAdjust="spacing" textLength="103" x="441" y="618.917">loginWithGoogle()</text><polygon fill="#181818" points="1022.5,650.125,1032.5,654.125,1022.5,658.125,1026.5,654.125" style="stroke:#181818;stroke-width:1.0;"/><line style="stroke:#181818;stroke-width:1.0;" x1="585" x2="1028.5" y1="654.125" y2="654.125"/><text fill="#000000" font-family="sans-serif" font-size="13" font-weight="bold" lengthAdjust="spacing" textLength="14" x="592" y="649.2686">14</text><text fill="#000000" font-family="sans-serif" font-size="13" lengthAdjust="spacing" textLength="146" x="610" y="649.2686">POST LoginWithGoogle()</text><polygon fill="#181818" points="1191.5,680.4766,1201.5,684.4766,1191.5,688.4766,1195.5,684.4766" style="stroke:#181818;stroke-width:1.0;"/><line style="stroke:#181818;stroke-width:1.0;" x1="1044.5" x2="1197.5" y1="684.4766" y2="684.4766"/><text fill="#000000" font-family="sans-serif" font-size="13" font-weight="bold" lengthAdjust="spacing" textLength="14" x="1051.5" y="679.6201">15</text><text fill="#000000" font-family="sans-serif" font-size="13" lengthAdjust="spacing" textLength="70" x="1069.5" y="679.6201">userExists()</text><polygon fill="#181818" points="1411.5,710.8281,1421.5,714.8281,1411.5,718.8281,1415.5,714.8281" style="stroke:#181818;stroke-width:1.0;"/><line style="stroke:#181818;stroke-width:1.0;" x1="1213.5" x2="1417.5" y1="714.8281" y2="714.8281"/><text fill="#000000" font-family="sans-serif" font-size="13" font-weight="bold" lengthAdjust="spacing" textLength="14" x="1220.5" y="709.9717">16</text><text fill="#000000" font-family="sans-serif" font-size="13" lengthAdjust="spacing" textLength="108" x="1238.5" y="709.9717">findByEmail(email)</text><polygon fill="#181818" points="1224.5,741.1797,1214.5,745.1797,1224.5,749.1797,1220.5,745.1797" style="stroke:#181818;stroke-width:1.0;"/><line style="stroke:#181818;stroke-width:1.0;stroke-dasharray:2.0,2.0;" x1="1218.5" x2="1422.5" y1="745.1797" y2="745.1797"/><text fill="#000000" font-family="sans-serif" font-size="13" font-weight="bold" lengthAdjust="spacing" textLength="14" x="1230.5" y="740.3232">17</text><text fill="#000000" font-family="sans-serif" font-size="13" lengthAdjust="spacing" textLength="27" x="1248.5" y="740.3232">User</text><polygon fill="#181818" points="1055.5,771.5313,1045.5,775.5313,1055.5,779.5313,1051.5,775.5313" style="stroke:#181818;stroke-width:1.0;"/><line style="stroke:#181818;stroke-width:1.0;stroke-dasharray:2.0,2.0;" x1="1049.5" x2="1202.5" y1="775.5313" y2="775.5313"/><text fill="#000000" font-family="sans-serif" font-size="13" font-weight="bold" lengthAdjust="spacing" textLength="14" x="1061.5" y="770.6748">18</text><text fill="#000000" font-family="sans-serif" font-size="13" lengthAdjust="spacing" textLength="27" x="1079.5" y="770.6748">User</text><polygon fill="#181818" points="596,801.8828,586,805.8828,596,809.8828,592,805.8828" style="stroke:#181818;stroke-width:1.0;"/><line style="stroke:#181818;stroke-width:1.0;stroke-dasharray:2.0,2.0;" x1="590" x2="1033.5" y1="805.8828" y2="805.8828"/><text fill="#000000" font-family="sans-serif" font-size="13" font-weight="bold" lengthAdjust="spacing" textLength="14" x="602" y="801.0264">19</text><text fill="#000000" font-family="sans-serif" font-size="13" lengthAdjust="spacing" textLength="100" x="620" y="801.0264">200 OK + Cookie</text><polygon fill="#181818" points="427,832.2344,417,836.2344,427,840.2344,423,836.2344" style="stroke:#181818;stroke-width:1.0;"/><line style="stroke:#181818;stroke-width:1.0;stroke-dasharray:2.0,2.0;" x1="421" x2="574" y1="836.2344" y2="836.2344"/><text fill="#000000" font-family="sans-serif" font-size="13" font-weight="bold" lengthAdjust="spacing" textLength="14" x="433" y="831.3779">20</text><text fill="#000000" font-family="sans-serif" font-size="13" lengthAdjust="spacing" textLength="44" x="451" y="831.3779">200 OK</text><polygon fill="#181818" points="90.5,876.5859,80.5,880.5859,90.5,884.5859,86.5,880.5859" style="stroke:#181818;stroke-width:1.0;"/><line style="stroke:#181818;stroke-width:1.0;stroke-dasharray:2.0,2.0;" x1="84.5" x2="405" y1="880.5859" y2="880.5859"/><text fill="#000000" font-family="sans-serif" font-size="13" font-weight="bold" lengthAdjust="spacing" textLength="14" x="96.5" y="875.7295">21</text><text fill="#000000" font-family="sans-serif" font-size="13" lengthAdjust="spacing" textLength="198" x="114.5" y="875.7295">informs about the success of login</text><polygon fill="#181818" points="714.5,906.9375,724.5,910.9375,714.5,914.9375,718.5,910.9375" style="stroke:#181818;stroke-width:1.0;"/><line style="stroke:#181818;stroke-width:1.0;" x1="79.5" x2="720.5" y1="910.9375" y2="910.9375"/><text fill="#000000" font-family="sans-serif" font-size="13" font-weight="bold" lengthAdjust="spacing" textLength="14" x="86.5" y="906.0811">22</text><text fill="#000000" font-family="sans-serif" font-size="13" lengthAdjust="spacing" textLength="273" x="104.5" y="906.0811">I want to consult the warehouses in the system</text><polygon fill="#181818" points="875.5,937.2891,885.5,941.2891,875.5,945.2891,879.5,941.2891" style="stroke:#181818;stroke-width:1.0;"/><line style="stroke:#181818;stroke-width:1.0;" x1="736.5" x2="881.5" y1="941.2891" y2="941.2891"/><text fill="#000000" font-family="sans-serif" font-size="13" font-weight="bold" lengthAdjust="spacing" textLength="14" x="743.5" y="936.4326">23</text><text fill="#000000" font-family="sans-serif" font-size="13" lengthAdjust="spacing" textLength="114" x="761.5" y="936.4326">getAllWarehouses()</text><polygon fill="#181818" points="1556,967.6406,1566,971.6406,1556,975.6406,1560,971.6406" style="stroke:#181818;stroke-width:1.0;"/><line style="stroke:#181818;stroke-width:1.0;" x1="897.5" x2="1562" y1="971.6406" y2="971.6406"/><text fill="#000000" font-family="sans-serif" font-size="13" font-weight="bold" lengthAdjust="spacing" textLength="14" x="904.5" y="966.7842">24</text><text fill="#000000" font-family="sans-serif" font-size="13" lengthAdjust="spacing" textLength="137" x="922.5" y="966.7842">GET getAllWarehouse()</text><polygon fill="#181818" points="1725,997.9922,1735,1001.9922,1725,1005.9922,1729,1001.9922" style="stroke:#181818;stroke-width:1.0;"/><line style="stroke:#181818;stroke-width:1.0;" x1="1578" x2="1731" y1="1001.9922" y2="1001.9922"/><text fill="#000000" font-family="sans-serif" font-size="13" font-weight="bold" lengthAdjust="spacing" textLength="14" x="1585" y="997.1357">25</text><text fill="#000000" font-family="sans-serif" font-size="13" lengthAdjust="spacing" textLength="44" x="1603" y="997.1357">GetAll()</text><polygon fill="#181818" points="1900,1028.3438,1910,1032.3438,1900,1036.3438,1904,1032.3438" style="stroke:#181818;stroke-width:1.0;"/><line style="stroke:#181818;stroke-width:1.0;" x1="1747" x2="1906" y1="1032.3438" y2="1032.3438"/><text fill="#000000" font-family="sans-serif" font-size="13" font-weight="bold" lengthAdjust="spacing" textLength="14" x="1754" y="1027.4873">26</text><text fill="#000000" font-family="sans-serif" font-size="13" lengthAdjust="spacing" textLength="102" x="1772" y="1027.4873">GetWarehouses()</text><path d="M58.5,1044.3438 L119.5,1044.3438 L119.5,1052.6953 L109.5,1062.6953 L58.5,1062.6953 L58.5,1044.3438 " fill="#EEEEEE" style="stroke:#000000;stroke-width:1.5;"/><rect fill="none" height="539.8125" style="stroke:#000000;stroke-width:1.5;" width="2615.5" x="58.5" y="1044.3438"/><text fill="#000000" font-family="sans-serif" font-size="13" font-weight="bold" lengthAdjust="spacing" textLength="16" x="73.5" y="1058.8389">alt</text><text fill="#000000" font-family="sans-serif" font-size="11" font-weight="bold" lengthAdjust="spacing" textLength="221" x="134.5" y="1057.7627">[if there are warehouses in the system]</text><line style="stroke:#000000;stroke-width:1.0;stroke-dasharray:2.0,2.0;" x1="58.5" x2="2674" y1="1356.8594" y2="1356.8594"/><text fill="#000000" font-family="sans-serif" font-size="11" font-weight="bold" lengthAdjust="spacing" textLength="238" x="63.5" y="1368.2783">[If there are no warehouses in the system]</text><polygon fill="#181818" points="2563.5,1091.0469,2573.5,1095.0469,2563.5,1099.0469,2567.5,1095.0469" style="stroke:#181818;stroke-width:1.0;"/><line style="stroke:#181818;stroke-width:1.0;" x1="1922" x2="2569.5" y1="1095.0469" y2="1095.0469"/><text fill="#000000" font-family="sans-serif" font-size="13" font-weight="bold" lengthAdjust="spacing" textLength="14" x="1929" y="1090.1904">27</text><text fill="#000000" font-family="sans-serif" font-size="13" lengthAdjust="spacing" textLength="44" x="1947" y="1090.1904">GetAll()</text><polygon fill="#181818" points="1933,1121.3984,1923,1125.3984,1933,1129.3984,1929,1125.3984" style="stroke:#181818;stroke-width:1.0;"/><line style="stroke:#181818;stroke-width:1.0;stroke-dasharray:2.0,2.0;" x1="1927" x2="2574.5" y1="1125.3984" y2="1125.3984"/><text fill="#000000" font-family="sans-serif" font-size="13" font-weight="bold" lengthAdjust="spacing" textLength="14" x="1939" y="1120.542">28</text><text fill="#000000" font-family="sans-serif" font-size="13" lengthAdjust="spacing" textLength="103" x="1957" y="1120.542">listOfWarehouses</text><polygon fill="#181818" points="2148,1151.75,2158,1155.75,2148,1159.75,2152,1155.75" style="stroke:#181818;stroke-width:1.0;"/><line style="stroke:#181818;stroke-width:1.0;" x1="1922" x2="2154" y1="1155.75" y2="1155.75"/><text fill="#000000" font-family="sans-serif" font-size="13" font-weight="bold" lengthAdjust="spacing" textLength="14" x="1929" y="1150.8936">29</text><text fill="#000000" font-family="sans-serif" font-size="13" lengthAdjust="spacing" textLength="201" x="1947" y="1150.8936">toWarehouseDto(listOfWarehouse)</text><polygon fill="#181818" points="1933,1182.1016,1923,1186.1016,1933,1190.1016,1929,1186.1016" style="stroke:#181818;stroke-width:1.0;"/><line style="stroke:#181818;stroke-width:1.0;stroke-dasharray:2.0,2.0;" x1="1927" x2="2159" y1="1186.1016" y2="1186.1016"/><text fill="#000000" font-family="sans-serif" font-size="13" font-weight="bold" lengthAdjust="spacing" textLength="14" x="1939" y="1181.2451">30</text><text fill="#000000" font-family="sans-serif" font-size="13" lengthAdjust="spacing" textLength="123" x="1957" y="1181.2451">listOfWarehousesDto</text><polygon fill="#181818" points="1758,1212.4531,1748,1216.4531,1758,1220.4531,1754,1216.4531" style="stroke:#181818;stroke-width:1.0;"/><line style="stroke:#181818;stroke-width:1.0;stroke-dasharray:2.0,2.0;" x1="1752" x2="1911" y1="1216.4531" y2="1216.4531"/><text fill="#000000" font-family="sans-serif" font-size="13" font-weight="bold" lengthAdjust="spacing" textLength="14" x="1764" y="1211.5967">31</text><text fill="#000000" font-family="sans-serif" font-size="13" lengthAdjust="spacing" textLength="123" x="1782" y="1211.5967">listOfWarehousesDto</text><polygon fill="#181818" points="1589,1242.8047,1579,1246.8047,1589,1250.8047,1585,1246.8047" style="stroke:#181818;stroke-width:1.0;"/><line style="stroke:#181818;stroke-width:1.0;stroke-dasharray:2.0,2.0;" x1="1583" x2="1736" y1="1246.8047" y2="1246.8047"/><text fill="#000000" font-family="sans-serif" font-size="13" font-weight="bold" lengthAdjust="spacing" textLength="14" x="1595" y="1241.9482">32</text><text fill="#000000" font-family="sans-serif" font-size="13" lengthAdjust="spacing" textLength="44" x="1613" y="1241.9482">200 OK</text><polygon fill="#181818" points="908.5,1273.1563,898.5,1277.1563,908.5,1281.1563,904.5,1277.1563" style="stroke:#181818;stroke-width:1.0;"/><line style="stroke:#181818;stroke-width:1.0;stroke-dasharray:2.0,2.0;" x1="902.5" x2="1567" y1="1277.1563" y2="1277.1563"/><text fill="#000000" font-family="sans-serif" font-size="13" font-weight="bold" lengthAdjust="spacing" textLength="14" x="914.5" y="1272.2998">33</text><text fill="#000000" font-family="sans-serif" font-size="13" lengthAdjust="spacing" textLength="44" x="932.5" y="1272.2998">200 OK</text><polygon fill="#181818" points="747.5,1303.5078,737.5,1307.5078,747.5,1311.5078,743.5,1307.5078" style="stroke:#181818;stroke-width:1.0;"/><line style="stroke:#181818;stroke-width:1.0;stroke-dasharray:2.0,2.0;" x1="741.5" x2="886.5" y1="1307.5078" y2="1307.5078"/><text fill="#000000" font-family="sans-serif" font-size="13" font-weight="bold" lengthAdjust="spacing" textLength="14" x="753.5" y="1302.6514">34</text><text fill="#000000" font-family="sans-serif" font-size="13" lengthAdjust="spacing" textLength="44" x="771.5" y="1302.6514">200 OK</text><polygon fill="#181818" points="90.5,1333.8594,80.5,1337.8594,90.5,1341.8594,86.5,1337.8594" style="stroke:#181818;stroke-width:1.0;"/><line style="stroke:#181818;stroke-width:1.0;stroke-dasharray:2.0,2.0;" x1="84.5" x2="725.5" y1="1337.8594" y2="1337.8594"/><text fill="#000000" font-family="sans-serif" font-size="13" font-weight="bold" lengthAdjust="spacing" textLength="14" x="96.5" y="1333.0029">35</text><text fill="#000000" font-family="sans-serif" font-size="13" lengthAdjust="spacing" textLength="203" x="114.5" y="1333.0029">show all warehouses in the system</text><polygon fill="#181818" points="2563.5,1390.0469,2573.5,1394.0469,2563.5,1398.0469,2567.5,1394.0469" style="stroke:#181818;stroke-width:1.0;"/><line style="stroke:#181818;stroke-width:1.0;" x1="1922" x2="2569.5" y1="1394.0469" y2="1394.0469"/><text fill="#000000" font-family="sans-serif" font-size="13" font-weight="bold" lengthAdjust="spacing" textLength="14" x="1929" y="1389.1904">36</text><text fill="#000000" font-family="sans-serif" font-size="13" lengthAdjust="spacing" textLength="44" x="1947" y="1389.1904">GetAll()</text><polygon fill="#181818" points="1933,1420.3984,1923,1424.3984,1933,1428.3984,1929,1424.3984" style="stroke:#181818;stroke-width:1.0;"/><line style="stroke:#181818;stroke-width:1.0;stroke-dasharray:2.0,2.0;" x1="1927" x2="2574.5" y1="1424.3984" y2="1424.3984"/><text fill="#000000" font-family="sans-serif" font-size="13" font-weight="bold" lengthAdjust="spacing" textLength="14" x="1939" y="1419.542">37</text><text fill="#000000" font-family="sans-serif" font-size="13" lengthAdjust="spacing" textLength="20" x="1957" y="1419.542">null</text><polygon fill="#181818" points="1758,1450.75,1748,1454.75,1758,1458.75,1754,1454.75" style="stroke:#181818;stroke-width:1.0;"/><line style="stroke:#181818;stroke-width:1.0;stroke-dasharray:2.0,2.0;" x1="1752" x2="1911" y1="1454.75" y2="1454.75"/><text fill="#000000" font-family="sans-serif" font-size="13" font-weight="bold" lengthAdjust="spacing" textLength="14" x="1764" y="1449.8936">38</text><text fill="#000000" font-family="sans-serif" font-size="13" lengthAdjust="spacing" textLength="20" x="1782" y="1449.8936">null</text><polygon fill="#181818" points="1589,1481.1016,1579,1485.1016,1589,1489.1016,1585,1485.1016" style="stroke:#181818;stroke-width:1.0;"/><line style="stroke:#181818;stroke-width:1.0;stroke-dasharray:2.0,2.0;" x1="1583" x2="1736" y1="1485.1016" y2="1485.1016"/><text fill="#000000" font-family="sans-serif" font-size="13" font-weight="bold" lengthAdjust="spacing" textLength="14" x="1595" y="1480.2451">39</text><text fill="#000000" font-family="sans-serif" font-size="13" lengthAdjust="spacing" textLength="100" x="1613" y="1480.2451">404 NOT FOUND</text><polygon fill="#181818" points="908.5,1511.4531,898.5,1515.4531,908.5,1519.4531,904.5,1515.4531" style="stroke:#181818;stroke-width:1.0;"/><line style="stroke:#181818;stroke-width:1.0;stroke-dasharray:2.0,2.0;" x1="902.5" x2="1567" y1="1515.4531" y2="1515.4531"/><text fill="#000000" font-family="sans-serif" font-size="13" font-weight="bold" lengthAdjust="spacing" textLength="14" x="914.5" y="1510.5967">40</text><text fill="#000000" font-family="sans-serif" font-size="13" lengthAdjust="spacing" textLength="100" x="932.5" y="1510.5967">404 NOT FOUND</text><polygon fill="#181818" points="747.5,1541.8047,737.5,1545.8047,747.5,1549.8047,743.5,1545.8047" style="stroke:#181818;stroke-width:1.0;"/><line style="stroke:#181818;stroke-width:1.0;stroke-dasharray:2.0,2.0;" x1="741.5" x2="886.5" y1="1545.8047" y2="1545.8047"/><text fill="#000000" font-family="sans-serif" font-size="13" font-weight="bold" lengthAdjust="spacing" textLength="14" x="753.5" y="1540.9482">41</text><text fill="#000000" font-family="sans-serif" font-size="13" lengthAdjust="spacing" textLength="100" x="771.5" y="1540.9482">404 NOT FOUND</text><polygon fill="#181818" points="90.5,1572.1563,80.5,1576.1563,90.5,1580.1563,86.5,1576.1563" style="stroke:#181818;stroke-width:1.0;"/><line style="stroke:#181818;stroke-width:1.0;stroke-dasharray:2.0,2.0;" x1="84.5" x2="725.5" y1="1576.1563" y2="1576.1563"/><text fill="#000000" font-family="sans-serif" font-size="13" font-weight="bold" lengthAdjust="spacing" textLength="14" x="96.5" y="1571.2998">42</text><text fill="#000000" font-family="sans-serif" font-size="13" lengthAdjust="spacing" textLength="261" x="114.5" y="1571.2998">show message error "Warehouses not found"</text><!--MD5=[b1c8dbe8e3a31c8f0e0dbe3ef1bcc7b8]
@startuml ListWarehousesSD
autonumber
!pragma teoz true

actor "Warehouse Manager" as admin

participant Google as Google <<System(C4)>>

box "<<System(C4)>>\n       EletricGo" #LightYellow

    box "<<Container(C4)>>\n           UI" #LightCyan
        
        participant LoginController as LoginC <<Component(C4)>>
        participant LoginService as LoginS <<Component(C4)>>
    
    
    
        participant WarehouseCompoent as WarehouseC <<Component(C4)>>
        participant WarehouseService as WarehouseS <<Component(C4)>>
        

    end box

    box "<<Container(C4)>>\nAuthentication" #LightSkyBlue

        participant UserController as UserCTRL <<Container(C4)>> 
        participant UserService as UserServ <<Container(C4)>> 
        participant UserRepository as UserRepo <<Container(C4)>> 

        participant WarehouseController as WarehouseCTRL <<Container(C4)>>

    end box


    box "<<Container(C4)>>\nWarehouse Management" #LightGreen
        participant WarehouseController as  CTL <<Component(C4)>>
        participant WarehouseService as  SV <<Component(C4)>>
        participant "Warehouse : Warehouse" as  Warehouse <<Component(C4)>>
        participant "WarehouseDTO : WarehouseDTO" as  DTO <<Component(C4)>>
        participant WarehouseRepository as  WR <<Component(C4)>>
    end box
end box

activate admin
admin->LoginC: I want to login
activate LoginC

alt Login through email and password in EletricGo


    LoginC -> LoginS: login(email, password)
    activate LoginS
    LoginS -> UserCTRL: POST Login(email, password)
    activate UserCTRL

    UserCTRL -> UserServ: login(email, password)
    activate UserServ
    UserServ -> UserRepo: findByEmail(email)
    activate UserRepo
    UserRepo - -> UserServ: User
    deactivate UserRepo
    UserServ -> UserServ: checkPassword(password, User)
    UserServ - -> UserCTRL: Success
    deactivate UserServ


    UserCTRL - -> LoginS: 200 OK + Cookie
    deactivate UserCTRL

    LoginS - -> LoginC: 200 OK
    deactivate LoginS

else Login through Google

    LoginC -> Google: Login with Google account
    activate Google
    Google - -> LoginC: 200 OK
    deactivate
    LoginC -> LoginS: loginWithGoogle()
    activate LoginS
    LoginS -> UserCTRL: POST LoginWithGoogle()
    activate UserCTRL
    UserCTRL -> UserServ: userExists()
    activate UserServ
    UserServ -> UserRepo: findByEmail(email)
    activate UserRepo
    UserRepo - -> UserServ: User
    deactivate UserRepo
    UserServ - -> UserCTRL: User
    deactivate UserServ
    UserCTRL - -> LoginS: 200 OK + Cookie
    deactivate UserCTRL
    LoginS - -> LoginC: 200 OK
    deactivate LoginS


end



LoginC - -> admin: informs about the success of login
deactivate LoginC

admin -> WarehouseC: I want to consult the warehouses in the system
activate WarehouseC

WarehouseC -> WarehouseS : getAllWarehouses()
activate WarehouseS

WarehouseS -> WarehouseCTRL : GET getAllWarehouse()
activate WarehouseCTRL
WarehouseCTRL -> CTL : GetAll()
activate CTL
CTL -> SV : GetWarehouses()
activate SV 
alt if there are warehouses in the system


    
    SV -> WR : GetAll()
    activate WR
    
    WR - -> SV : listOfWarehouses
    
    SV -> Warehouse : toWarehouseDto(listOfWarehouse)
    activate Warehouse

    Warehouse - -> SV : listOfWarehousesDto
    deactivate Warehouse
    SV - -> CTL : listOfWarehousesDto

    CTL - -> WarehouseCTRL : 200 OK

    WarehouseCTRL - -> WarehouseS : 200 OK

    WarehouseS - -> WarehouseC : 200 OK


    WarehouseC - -> admin: show all warehouses in the system


else If there are no warehouses in the system



    SV -> WR : GetAll()

    WR - -> SV : null
    deactivate WR
    SV - -> CTL : null
    deactivate SV
    CTL - -> WarehouseCTRL : 404 NOT FOUND
    deactivate CTL

    WarehouseCTRL - -> WarehouseS : 404 NOT FOUND
    deactivate WarehouseCTRL

    WarehouseS - -> WarehouseC : 404 NOT FOUND
    deactivate WarehouseS
    
    WarehouseC - -> admin: show message error "Warehouses not found"
    deactivate WarehouseC 


end

deactivate admin
@enduml

PlantUML version 1.2022.7(Mon Aug 22 18:01:30 WEST 2022)
(GPL source distribution)
Java Runtime: Java(TM) SE Runtime Environment
JVM: Java HotSpot(TM) 64-Bit Server VM
Default Encoding: Cp1252
Language: en
Country: GB
--></g></svg>