<?xml version="1.0" encoding="UTF-8" standalone="no"?><svg xmlns="http://www.w3.org/2000/svg" xmlns:xlink="http://www.w3.org/1999/xlink" contentStyleType="text/css" height="594px" preserveAspectRatio="none" style="width:664px;height:594px;background:#FFFFFF;" version="1.1" viewBox="0 0 664 594" width="664px" zoomAndPan="magnify"><defs/><g><!--MD5=[058ee174e53f4d5e43b0ff6bb9b97aa3]
cluster <<aggregate>> Logistics--><g id="cluster_&lt;&lt;aggregate&gt;&gt; Logistics"><path d="M8.5,340 L180.5,340 A3.75,3.75 0 0 1 183,342.5 L190,363.6094 L282.5,363.6094 A2.5,2.5 0 0 1 285,366.1094 L285,584.5 A2.5,2.5 0 0 1 282.5,587 L8.5,587 A2.5,2.5 0 0 1 6,584.5 L6,342.5 A2.5,2.5 0 0 1 8.5,340 " fill="none" style="stroke:#000000;stroke-width:1.5;"/><line style="stroke:#000000;stroke-width:1.5;" x1="6" x2="190" y1="363.6094" y2="363.6094"/><text fill="#000000" font-family="sans-serif" font-size="14" font-weight="bold" lengthAdjust="spacing" textLength="171" x="10" y="356.5332">&lt;&lt;aggregate&gt;&gt; Logistics</text></g><!--MD5=[fd2c6941327600dfcb9810e16d42f054]
cluster <<aggregate>> Planning--><g id="cluster_&lt;&lt;aggregate&gt;&gt; Planning"><path d="M13.5,172 L183.5,172 A3.75,3.75 0 0 1 186,174.5 L193,195.6094 L294.5,195.6094 A2.5,2.5 0 0 1 297,198.1094 L297,287.5 A2.5,2.5 0 0 1 294.5,290 L13.5,290 A2.5,2.5 0 0 1 11,287.5 L11,174.5 A2.5,2.5 0 0 1 13.5,172 " fill="none" style="stroke:#000000;stroke-width:1.5;"/><line style="stroke:#000000;stroke-width:1.5;" x1="11" x2="193" y1="195.6094" y2="195.6094"/><text fill="#000000" font-family="sans-serif" font-size="14" font-weight="bold" lengthAdjust="spacing" textLength="169" x="15" y="188.5332">&lt;&lt;aggregate&gt;&gt; Planning</text></g><!--MD5=[b8d5ee1f547cc751e8cba8f63e6aaaf8]
cluster <<aggregate>> WarehouseManagement--><g id="cluster_&lt;&lt;aggregate&gt;&gt; WarehouseManagement"><path d="M323.5,6 L603.5,6 A3.75,3.75 0 0 1 606,8.5 L613,29.6094 L654.5,29.6094 A2.5,2.5 0 0 1 657,32.1094 L657,280 A2.5,2.5 0 0 1 654.5,282.5 L323.5,282.5 A2.5,2.5 0 0 1 321,280 L321,8.5 A2.5,2.5 0 0 1 323.5,6 " fill="none" style="stroke:#000000;stroke-width:1.5;"/><line style="stroke:#000000;stroke-width:1.5;" x1="321" x2="613" y1="29.6094" y2="29.6094"/><text fill="#000000" font-family="sans-serif" font-size="14" font-weight="bold" lengthAdjust="spacing" textLength="279" x="325" y="22.5332">&lt;&lt;aggregate&gt;&gt; WarehouseManagement</text></g><!--MD5=[6013b76828f9e37bf607739d3a6706d0]
class DeliveryPlan--><g id="elem_DeliveryPlan"><rect codeLine="14" fill="#F5F5DC" height="65.7969" id="DeliveryPlan" rx="2.5" ry="2.5" style="stroke:#181818;stroke-width:0.5;" width="111" x="22.5" y="376"/><ellipse cx="37.5" cy="404.8984" fill="#ADD1B2" rx="11" ry="11" style="stroke:#181818;stroke-width:1.0;"/><path d="M36.3594,405.6953 L36.3594,408.1953 L40.6875,408.1953 L40.6875,407.2734 Q40.6875,406.6641 40.9219,406.3984 Q41.1719,406.1328 41.5469,406.1328 Q41.9219,406.1328 42.1563,406.3984 Q42.3906,406.6641 42.3906,407.2734 L42.3906,409.8984 L34.3906,409.8984 Q33.7656,409.8984 33.5,409.6641 Q33.25,409.4297 33.25,409.0391 Q33.25,408.6641 33.5156,408.4297 Q33.7813,408.1953 34.3906,408.1953 L34.6563,408.1953 L34.6563,401.5391 L34.3906,401.5391 Q33.7656,401.5391 33.5,401.3047 Q33.25,401.0703 33.25,400.6797 Q33.25,400.3047 33.5,400.0703 Q33.7656,399.8359 34.3906,399.8359 L42.0156,399.8359 L42.0156,402.4297 Q42.0156,403.0391 41.7813,403.3047 Q41.5625,403.5547 41.1719,403.5547 Q40.7969,403.5547 40.5625,403.3047 Q40.3281,403.0391 40.3281,402.4297 L40.3281,401.5391 L36.3594,401.5391 L36.3594,403.9922 L37.8438,403.9922 Q37.8438,403.3359 37.9688,403.1484 Q38.2344,402.7422 38.7031,402.7422 Q39.0781,402.7422 39.3125,403.0078 Q39.5469,403.2578 39.5469,403.8672 L39.5469,405.8359 Q39.5469,406.3828 39.4219,406.5703 Q39.1563,406.9609 38.7031,406.9609 Q38.2344,406.9609 37.9688,406.5547 Q37.8438,406.3672 37.8438,405.6953 L36.3594,405.6953 Z " fill="#000000"/><text fill="#000000" font-family="sans-serif" font-size="12" font-style="italic" lengthAdjust="spacing" textLength="43" x="69.5" y="393.457">«entity»</text><text fill="#000000" font-family="sans-serif" font-size="12" font-style="italic" lengthAdjust="spacing" textLength="40" x="71" y="408.5508">«Root»</text><text fill="#000000" font-family="sans-serif" font-size="14" lengthAdjust="spacing" textLength="79" x="51.5" y="425.7207">DeliveryPlan</text><line style="stroke:#181818;stroke-width:0.5;" x1="23.5" x2="132.5" y1="433.7969" y2="433.7969"/></g><!--MD5=[fff5db4abcb6eec6574b9ea9c3ee0eae]
class Delivery--><g id="elem_Delivery"><rect codeLine="18" fill="#F5F5DC" height="50.7031" id="Delivery" rx="2.5" ry="2.5" style="stroke:#181818;stroke-width:0.5;" width="83" x="22.5" y="520"/><ellipse cx="37.5" cy="541.3516" fill="#ADD1B2" rx="11" ry="11" style="stroke:#181818;stroke-width:1.0;"/><path d="M36.3594,542.1484 L36.3594,544.6484 L40.6875,544.6484 L40.6875,543.7266 Q40.6875,543.1172 40.9219,542.8516 Q41.1719,542.5859 41.5469,542.5859 Q41.9219,542.5859 42.1563,542.8516 Q42.3906,543.1172 42.3906,543.7266 L42.3906,546.3516 L34.3906,546.3516 Q33.7656,546.3516 33.5,546.1172 Q33.25,545.8828 33.25,545.4922 Q33.25,545.1172 33.5156,544.8828 Q33.7813,544.6484 34.3906,544.6484 L34.6563,544.6484 L34.6563,537.9922 L34.3906,537.9922 Q33.7656,537.9922 33.5,537.7578 Q33.25,537.5234 33.25,537.1328 Q33.25,536.7578 33.5,536.5234 Q33.7656,536.2891 34.3906,536.2891 L42.0156,536.2891 L42.0156,538.8828 Q42.0156,539.4922 41.7813,539.7578 Q41.5625,540.0078 41.1719,540.0078 Q40.7969,540.0078 40.5625,539.7578 Q40.3281,539.4922 40.3281,538.8828 L40.3281,537.9922 L36.3594,537.9922 L36.3594,540.4453 L37.8438,540.4453 Q37.8438,539.7891 37.9688,539.6016 Q38.2344,539.1953 38.7031,539.1953 Q39.0781,539.1953 39.3125,539.4609 Q39.5469,539.7109 39.5469,540.3203 L39.5469,542.2891 Q39.5469,542.8359 39.4219,543.0234 Q39.1563,543.4141 38.7031,543.4141 Q38.2344,543.4141 37.9688,543.0078 Q37.8438,542.8203 37.8438,542.1484 L36.3594,542.1484 Z " fill="#000000"/><text fill="#000000" font-family="sans-serif" font-size="12" font-style="italic" lengthAdjust="spacing" textLength="43" x="55.5" y="537.457">«entity»</text><text fill="#000000" font-family="sans-serif" font-size="14" lengthAdjust="spacing" textLength="51" x="51.5" y="554.627">Delivery</text><line style="stroke:#181818;stroke-width:0.5;" x1="23.5" x2="104.5" y1="562.7031" y2="562.7031"/></g><!--MD5=[f2ba7f6ab60af8dd0d3e354f91729b14]
class Truck--><g id="elem_Truck"><rect codeLine="22" fill="#F5F5DC" height="50.7031" id="Truck" rx="2.5" ry="2.5" style="stroke:#181818;stroke-width:0.5;" width="71" x="169.5" y="520"/><ellipse cx="184.5" cy="541.3516" fill="#ADD1B2" rx="11" ry="11" style="stroke:#181818;stroke-width:1.0;"/><path d="M183.3594,542.1484 L183.3594,544.6484 L187.6875,544.6484 L187.6875,543.7266 Q187.6875,543.1172 187.9219,542.8516 Q188.1719,542.5859 188.5469,542.5859 Q188.9219,542.5859 189.1563,542.8516 Q189.3906,543.1172 189.3906,543.7266 L189.3906,546.3516 L181.3906,546.3516 Q180.7656,546.3516 180.5,546.1172 Q180.25,545.8828 180.25,545.4922 Q180.25,545.1172 180.5156,544.8828 Q180.7813,544.6484 181.3906,544.6484 L181.6563,544.6484 L181.6563,537.9922 L181.3906,537.9922 Q180.7656,537.9922 180.5,537.7578 Q180.25,537.5234 180.25,537.1328 Q180.25,536.7578 180.5,536.5234 Q180.7656,536.2891 181.3906,536.2891 L189.0156,536.2891 L189.0156,538.8828 Q189.0156,539.4922 188.7813,539.7578 Q188.5625,540.0078 188.1719,540.0078 Q187.7969,540.0078 187.5625,539.7578 Q187.3281,539.4922 187.3281,538.8828 L187.3281,537.9922 L183.3594,537.9922 L183.3594,540.4453 L184.8438,540.4453 Q184.8438,539.7891 184.9688,539.6016 Q185.2344,539.1953 185.7031,539.1953 Q186.0781,539.1953 186.3125,539.4609 Q186.5469,539.7109 186.5469,540.3203 L186.5469,542.2891 Q186.5469,542.8359 186.4219,543.0234 Q186.1563,543.4141 185.7031,543.4141 Q185.2344,543.4141 184.9688,543.0078 Q184.8438,542.8203 184.8438,542.1484 L183.3594,542.1484 Z " fill="#000000"/><text fill="#000000" font-family="sans-serif" font-size="12" font-style="italic" lengthAdjust="spacing" textLength="43" x="196.5" y="537.457">«entity»</text><text fill="#000000" font-family="sans-serif" font-size="14" lengthAdjust="spacing" textLength="36" x="200" y="554.627">Truck</text><line style="stroke:#181818;stroke-width:0.5;" x1="170.5" x2="239.5" y1="562.7031" y2="562.7031"/></g><!--MD5=[fc92a9f5bb5fae84dd7fa4034e6b4444]
class Route--><g id="elem_Route"><rect codeLine="31" fill="#F5F5DC" height="65.7969" id="Route" rx="2.5" ry="2.5" style="stroke:#181818;stroke-width:0.5;" width="71" x="27.5" y="208"/><ellipse cx="42.5" cy="236.8984" fill="#ADD1B2" rx="11" ry="11" style="stroke:#181818;stroke-width:1.0;"/><path d="M41.3594,237.6953 L41.3594,240.1953 L45.6875,240.1953 L45.6875,239.2734 Q45.6875,238.6641 45.9219,238.3984 Q46.1719,238.1328 46.5469,238.1328 Q46.9219,238.1328 47.1563,238.3984 Q47.3906,238.6641 47.3906,239.2734 L47.3906,241.8984 L39.3906,241.8984 Q38.7656,241.8984 38.5,241.6641 Q38.25,241.4297 38.25,241.0391 Q38.25,240.6641 38.5156,240.4297 Q38.7813,240.1953 39.3906,240.1953 L39.6563,240.1953 L39.6563,233.5391 L39.3906,233.5391 Q38.7656,233.5391 38.5,233.3047 Q38.25,233.0703 38.25,232.6797 Q38.25,232.3047 38.5,232.0703 Q38.7656,231.8359 39.3906,231.8359 L47.0156,231.8359 L47.0156,234.4297 Q47.0156,235.0391 46.7813,235.3047 Q46.5625,235.5547 46.1719,235.5547 Q45.7969,235.5547 45.5625,235.3047 Q45.3281,235.0391 45.3281,234.4297 L45.3281,233.5391 L41.3594,233.5391 L41.3594,235.9922 L42.8438,235.9922 Q42.8438,235.3359 42.9688,235.1484 Q43.2344,234.7422 43.7031,234.7422 Q44.0781,234.7422 44.3125,235.0078 Q44.5469,235.2578 44.5469,235.8672 L44.5469,237.8359 Q44.5469,238.3828 44.4219,238.5703 Q44.1563,238.9609 43.7031,238.9609 Q43.2344,238.9609 42.9688,238.5547 Q42.8438,238.3672 42.8438,237.6953 L41.3594,237.6953 Z " fill="#000000"/><text fill="#000000" font-family="sans-serif" font-size="12" font-style="italic" lengthAdjust="spacing" textLength="43" x="54.5" y="225.457">«entity»</text><text fill="#000000" font-family="sans-serif" font-size="12" font-style="italic" lengthAdjust="spacing" textLength="35" x="58.5" y="240.5508">«root»</text><text fill="#000000" font-family="sans-serif" font-size="14" lengthAdjust="spacing" textLength="38" x="57" y="257.7207">Route</text><line style="stroke:#181818;stroke-width:0.5;" x1="28.5" x2="97.5" y1="265.7969" y2="265.7969"/></g><!--MD5=[7ca803bc4fdfed48b4fe860ad95890cb]
class Trail--><g id="elem_Trail"><rect codeLine="35" fill="#F5F5DC" height="50.7031" id="Trail" rx="2.5" ry="2.5" style="stroke:#181818;stroke-width:0.5;" width="71" x="209.5" y="215.5"/><ellipse cx="224.5" cy="236.8516" fill="#ADD1B2" rx="11" ry="11" style="stroke:#181818;stroke-width:1.0;"/><path d="M223.3594,237.6484 L223.3594,240.1484 L227.6875,240.1484 L227.6875,239.2266 Q227.6875,238.6172 227.9219,238.3516 Q228.1719,238.0859 228.5469,238.0859 Q228.9219,238.0859 229.1563,238.3516 Q229.3906,238.6172 229.3906,239.2266 L229.3906,241.8516 L221.3906,241.8516 Q220.7656,241.8516 220.5,241.6172 Q220.25,241.3828 220.25,240.9922 Q220.25,240.6172 220.5156,240.3828 Q220.7813,240.1484 221.3906,240.1484 L221.6563,240.1484 L221.6563,233.4922 L221.3906,233.4922 Q220.7656,233.4922 220.5,233.2578 Q220.25,233.0234 220.25,232.6328 Q220.25,232.2578 220.5,232.0234 Q220.7656,231.7891 221.3906,231.7891 L229.0156,231.7891 L229.0156,234.3828 Q229.0156,234.9922 228.7813,235.2578 Q228.5625,235.5078 228.1719,235.5078 Q227.7969,235.5078 227.5625,235.2578 Q227.3281,234.9922 227.3281,234.3828 L227.3281,233.4922 L223.3594,233.4922 L223.3594,235.9453 L224.8438,235.9453 Q224.8438,235.2891 224.9688,235.1016 Q225.2344,234.6953 225.7031,234.6953 Q226.0781,234.6953 226.3125,234.9609 Q226.5469,235.2109 226.5469,235.8203 L226.5469,237.7891 Q226.5469,238.3359 226.4219,238.5234 Q226.1563,238.9141 225.7031,238.9141 Q225.2344,238.9141 224.9688,238.5078 Q224.8438,238.3203 224.8438,237.6484 L223.3594,237.6484 Z " fill="#000000"/><text fill="#000000" font-family="sans-serif" font-size="12" font-style="italic" lengthAdjust="spacing" textLength="43" x="236.5" y="232.957">«entity»</text><text fill="#000000" font-family="sans-serif" font-size="14" lengthAdjust="spacing" textLength="28" x="244" y="250.127">Trail</text><line style="stroke:#181818;stroke-width:0.5;" x1="210.5" x2="279.5" y1="258.2031" y2="258.2031"/></g><!--MD5=[c5149b4909ffd2688ff51a939867f774]
class Warehouse--><g id="elem_Warehouse"><rect codeLine="46" fill="#F5F5DC" height="65.7969" id="Warehouse" rx="2.5" ry="2.5" style="stroke:#181818;stroke-width:0.5;" width="105" x="337.5" y="42"/><ellipse cx="352.5" cy="70.8984" fill="#ADD1B2" rx="11" ry="11" style="stroke:#181818;stroke-width:1.0;"/><path d="M351.3594,71.6953 L351.3594,74.1953 L355.6875,74.1953 L355.6875,73.2734 Q355.6875,72.6641 355.9219,72.3984 Q356.1719,72.1328 356.5469,72.1328 Q356.9219,72.1328 357.1563,72.3984 Q357.3906,72.6641 357.3906,73.2734 L357.3906,75.8984 L349.3906,75.8984 Q348.7656,75.8984 348.5,75.6641 Q348.25,75.4297 348.25,75.0391 Q348.25,74.6641 348.5156,74.4297 Q348.7813,74.1953 349.3906,74.1953 L349.6563,74.1953 L349.6563,67.5391 L349.3906,67.5391 Q348.7656,67.5391 348.5,67.3047 Q348.25,67.0703 348.25,66.6797 Q348.25,66.3047 348.5,66.0703 Q348.7656,65.8359 349.3906,65.8359 L357.0156,65.8359 L357.0156,68.4297 Q357.0156,69.0391 356.7813,69.3047 Q356.5625,69.5547 356.1719,69.5547 Q355.7969,69.5547 355.5625,69.3047 Q355.3281,69.0391 355.3281,68.4297 L355.3281,67.5391 L351.3594,67.5391 L351.3594,69.9922 L352.8438,69.9922 Q352.8438,69.3359 352.9688,69.1484 Q353.2344,68.7422 353.7031,68.7422 Q354.0781,68.7422 354.3125,69.0078 Q354.5469,69.2578 354.5469,69.8672 L354.5469,71.8359 Q354.5469,72.3828 354.4219,72.5703 Q354.1563,72.9609 353.7031,72.9609 Q353.2344,72.9609 352.9688,72.5547 Q352.8438,72.3672 352.8438,71.6953 L351.3594,71.6953 Z " fill="#000000"/><text fill="#000000" font-family="sans-serif" font-size="12" font-style="italic" lengthAdjust="spacing" textLength="43" x="381.5" y="59.457">«entity»</text><text fill="#000000" font-family="sans-serif" font-size="12" font-style="italic" lengthAdjust="spacing" textLength="35" x="385.5" y="74.5508">«root»</text><text fill="#000000" font-family="sans-serif" font-size="14" lengthAdjust="spacing" textLength="73" x="366.5" y="91.7207">Warehouse</text><line style="stroke:#181818;stroke-width:0.5;" x1="338.5" x2="441.5" y1="99.7969" y2="99.7969"/></g><!--MD5=[b4d3d50c0abf08df45181fececb9f04d]
class Store--><g id="elem_Store"><rect codeLine="50" fill="#F5F5DC" height="50.7031" id="Store" rx="2.5" ry="2.5" style="stroke:#181818;stroke-width:0.5;" width="71" x="569.5" y="49.5"/><ellipse cx="584.5" cy="70.8516" fill="#ADD1B2" rx="11" ry="11" style="stroke:#181818;stroke-width:1.0;"/><path d="M583.3594,71.6484 L583.3594,74.1484 L587.6875,74.1484 L587.6875,73.2266 Q587.6875,72.6172 587.9219,72.3516 Q588.1719,72.0859 588.5469,72.0859 Q588.9219,72.0859 589.1563,72.3516 Q589.3906,72.6172 589.3906,73.2266 L589.3906,75.8516 L581.3906,75.8516 Q580.7656,75.8516 580.5,75.6172 Q580.25,75.3828 580.25,74.9922 Q580.25,74.6172 580.5156,74.3828 Q580.7813,74.1484 581.3906,74.1484 L581.6563,74.1484 L581.6563,67.4922 L581.3906,67.4922 Q580.7656,67.4922 580.5,67.2578 Q580.25,67.0234 580.25,66.6328 Q580.25,66.2578 580.5,66.0234 Q580.7656,65.7891 581.3906,65.7891 L589.0156,65.7891 L589.0156,68.3828 Q589.0156,68.9922 588.7813,69.2578 Q588.5625,69.5078 588.1719,69.5078 Q587.7969,69.5078 587.5625,69.2578 Q587.3281,68.9922 587.3281,68.3828 L587.3281,67.4922 L583.3594,67.4922 L583.3594,69.9453 L584.8438,69.9453 Q584.8438,69.2891 584.9688,69.1016 Q585.2344,68.6953 585.7031,68.6953 Q586.0781,68.6953 586.3125,68.9609 Q586.5469,69.2109 586.5469,69.8203 L586.5469,71.7891 Q586.5469,72.3359 586.4219,72.5234 Q586.1563,72.9141 585.7031,72.9141 Q585.2344,72.9141 584.9688,72.5078 Q584.8438,72.3203 584.8438,71.6484 L583.3594,71.6484 Z " fill="#000000"/><text fill="#000000" font-family="sans-serif" font-size="12" font-style="italic" lengthAdjust="spacing" textLength="43" x="596.5" y="66.957">«entity»</text><text fill="#000000" font-family="sans-serif" font-size="14" lengthAdjust="spacing" textLength="34" x="601" y="84.127">Store</text><line style="stroke:#181818;stroke-width:0.5;" x1="570.5" x2="639.5" y1="92.2031" y2="92.2031"/></g><!--MD5=[7ca35fa42fdd2584ef5892c05d53c42e]
class ChargingStation--><g id="elem_ChargingStation"><rect codeLine="54" fill="#F5F5DC" height="50.7031" id="ChargingStation" rx="2.5" ry="2.5" style="stroke:#181818;stroke-width:0.5;" width="134" x="337" y="215.5"/><ellipse cx="352" cy="236.8516" fill="#ADD1B2" rx="11" ry="11" style="stroke:#181818;stroke-width:1.0;"/><path d="M350.8594,237.6484 L350.8594,240.1484 L355.1875,240.1484 L355.1875,239.2266 Q355.1875,238.6172 355.4219,238.3516 Q355.6719,238.0859 356.0469,238.0859 Q356.4219,238.0859 356.6563,238.3516 Q356.8906,238.6172 356.8906,239.2266 L356.8906,241.8516 L348.8906,241.8516 Q348.2656,241.8516 348,241.6172 Q347.75,241.3828 347.75,240.9922 Q347.75,240.6172 348.0156,240.3828 Q348.2813,240.1484 348.8906,240.1484 L349.1563,240.1484 L349.1563,233.4922 L348.8906,233.4922 Q348.2656,233.4922 348,233.2578 Q347.75,233.0234 347.75,232.6328 Q347.75,232.2578 348,232.0234 Q348.2656,231.7891 348.8906,231.7891 L356.5156,231.7891 L356.5156,234.3828 Q356.5156,234.9922 356.2813,235.2578 Q356.0625,235.5078 355.6719,235.5078 Q355.2969,235.5078 355.0625,235.2578 Q354.8281,234.9922 354.8281,234.3828 L354.8281,233.4922 L350.8594,233.4922 L350.8594,235.9453 L352.3438,235.9453 Q352.3438,235.2891 352.4688,235.1016 Q352.7344,234.6953 353.2031,234.6953 Q353.5781,234.6953 353.8125,234.9609 Q354.0469,235.2109 354.0469,235.8203 L354.0469,237.7891 Q354.0469,238.3359 353.9219,238.5234 Q353.6563,238.9141 353.2031,238.9141 Q352.7344,238.9141 352.4688,238.5078 Q352.3438,238.3203 352.3438,237.6484 L350.8594,237.6484 Z " fill="#000000"/><text fill="#000000" font-family="sans-serif" font-size="12" font-style="italic" lengthAdjust="spacing" textLength="43" x="395.5" y="232.957">«entity»</text><text fill="#000000" font-family="sans-serif" font-size="14" lengthAdjust="spacing" textLength="102" x="366" y="250.127">ChargingStation</text><line style="stroke:#181818;stroke-width:0.5;" x1="338" x2="470" y1="258.2031" y2="258.2031"/></g><!--MD5=[9e30bc0d07b954d9511b75c221f93fa0]
link DeliveryPlan to Delivery--><g id="link_DeliveryPlan_Delivery"><path codeLine="58" d="M62.97,442.16 C59.28,451.57 55.87,462.02 54,472 C51.38,486 52.98,501.65 55.6,514.81 " fill="none" id="DeliveryPlan-to-Delivery" style="stroke:#222222;stroke-width:1.0;"/><polygon fill="#222222" points="56.68,519.91,58.7131,510.2733,55.6363,515.0202,50.8894,511.9433,56.68,519.91" style="stroke:#222222;stroke-width:1.0;"/><text fill="#000000" font-family="sans-serif" font-size="13" lengthAdjust="spacing" textLength="78" x="55" y="486.4951">composed by</text><text fill="#000000" font-family="sans-serif" font-size="13" lengthAdjust="spacing" textLength="20" x="32.4583" y="509.2966">1..*</text></g><!--MD5=[2993afe1754ba26a4c064f211341f5fa]
link DeliveryPlan to Truck--><g id="link_DeliveryPlan_Truck"><path codeLine="59" d="M109.28,442.04 C118.57,451.63 128.74,462.21 138,472 C151.67,486.46 166.72,502.71 179.09,516.16 " fill="none" id="DeliveryPlan-to-Truck" style="stroke:#222222;stroke-width:1.0;"/><polygon fill="#222222" points="182.5,519.87,179.3769,510.5294,179.1253,516.1807,173.474,515.929,182.5,519.87" style="stroke:#222222;stroke-width:1.0;"/><text fill="#000000" font-family="sans-serif" font-size="13" lengthAdjust="spacing" textLength="90" x="155" y="486.4951">associated with</text><text fill="#000000" font-family="sans-serif" font-size="13" lengthAdjust="spacing" textLength="22" x="91.1459" y="463.4112">0..1</text><text fill="#000000" font-family="sans-serif" font-size="13" lengthAdjust="spacing" textLength="7" x="169.1625" y="509.2468">1</text></g><!--MD5=[12ca2643794eeb890221b14aef2d95c0]
link Route to Trail--><g id="link_Route_Trail"><path codeLine="61" d="M98.52,241 C128.74,241 172.16,241 203.87,241 " fill="none" id="Route-to-Trail" style="stroke:#222222;stroke-width:1.0;"/><polygon fill="#222222" points="209.26,241,200.26,237,204.26,241,200.26,245,209.26,241" style="stroke:#222222;stroke-width:1.0;"/><text fill="#000000" font-family="sans-serif" font-size="13" lengthAdjust="spacing" textLength="74" x="117" y="234.4951">is composed</text><text fill="#000000" font-family="sans-serif" font-size="13" lengthAdjust="spacing" textLength="20" x="106.6283" y="255.9695">1..*</text><text fill="#000000" font-family="sans-serif" font-size="13" lengthAdjust="spacing" textLength="20" x="181.3984" y="255.9258">1..*</text></g><!--MD5=[8f9d023e308bfb9eeffcb71979428fbd]
reverse link Route to DeliveryPlan--><g id="link_Route_DeliveryPlan"><path codeLine="62" d="M66.37,279.29 C68.99,308.32 72.59,348.17 75.09,375.81 " fill="none" id="Route-backto-DeliveryPlan" style="stroke:#222222;stroke-width:1.0;"/><polygon fill="#222222" points="65.89,274.01,62.702,283.3286,66.3324,278.9904,70.6706,282.6208,65.89,274.01" style="stroke:#222222;stroke-width:1.0;"/><text fill="#000000" font-family="sans-serif" font-size="13" lengthAdjust="spacing" textLength="39" x="72" y="320.4951">follows</text><text fill="#000000" font-family="sans-serif" font-size="13" lengthAdjust="spacing" textLength="7" x="58.7737" y="295.3755">1</text><text fill="#000000" font-family="sans-serif" font-size="13" lengthAdjust="spacing" textLength="7" x="66.828" y="365.2504">1</text></g><!--MD5=[ae60def7b647bcc25646f64758b2f8c8]
reverse link Warehouse to Store--><g id="link_Warehouse_Store"><path codeLine="64" d="M447.75,75 C486.51,75 536.35,75 569.42,75 " fill="none" id="Warehouse-backto-Store" style="stroke:#222222;stroke-width:1.0;"/><polygon fill="#222222" points="442.59,75,451.59,79,447.59,75,451.59,71,442.59,75" style="stroke:#222222;stroke-width:1.0;"/><text fill="#000000" font-family="sans-serif" font-size="13" lengthAdjust="spacing" textLength="90" x="461" y="68.4951">associated with</text><text fill="#000000" font-family="sans-serif" font-size="13" lengthAdjust="spacing" textLength="7" x="450.4777" y="71.4091">1</text><text fill="#000000" font-family="sans-serif" font-size="13" lengthAdjust="spacing" textLength="7" x="554.3598" y="70.912">1</text></g><!--MD5=[dc32dc1351b98655976dc223324cbacb]
link Warehouse to ChargingStation--><g id="link_Warehouse_ChargingStation"><path codeLine="65" d="M392.73,108.01 C395.26,137.58 398.98,181.18 401.45,210.07 " fill="none" id="Warehouse-to-ChargingStation" style="stroke:#222222;stroke-width:1.0;"/><polygon fill="#222222" points="401.89,215.29,405.1045,205.9805,401.4618,210.3084,397.1339,206.6656,401.89,215.29" style="stroke:#222222;stroke-width:1.0;"/><text fill="#000000" font-family="sans-serif" font-size="13" lengthAdjust="spacing" textLength="21" x="397" y="152.4951">has</text><text fill="#000000" font-family="sans-serif" font-size="13" lengthAdjust="spacing" textLength="7" x="385.5832" y="129.3755">1</text><text fill="#000000" font-family="sans-serif" font-size="13" lengthAdjust="spacing" textLength="7" x="393.5226" y="204.6473">1</text></g><!--MD5=[dc249d33753b1da84bd3420ab25b53fd]
reverse link ChargingStation to Truck--><g id="link_ChargingStation_Truck"><path codeLine="66" d="M388.79,271 C363.39,318.48 309.61,415.02 254,490 C246.42,500.22 237.29,510.77 228.97,519.84 " fill="none" id="ChargingStation-backto-Truck" style="stroke:#222222;stroke-width:1.0;"/><polygon fill="#222222" points="391.16,266.56,383.3841,272.6044,388.7989,270.9674,390.4359,276.3822,391.16,266.56" style="stroke:#222222;stroke-width:1.0;"/><text fill="#000000" font-family="sans-serif" font-size="13" lengthAdjust="spacing" textLength="47" x="354" y="414.4951">parks at</text><text fill="#000000" font-family="sans-serif" font-size="13" lengthAdjust="spacing" textLength="7" x="380.3814" y="287.8908">1</text><text fill="#000000" font-family="sans-serif" font-size="13" lengthAdjust="spacing" textLength="5" x="229.2033" y="509.2095">*</text></g><!--MD5=[2629323944f5961ed2d4e57f2eb2da6f]
@startuml DM

skinparam classAttributeIconSize 0
hide empty attributes
skinparam classBackgroundColor beige
skinparam ArrowColor #222222

package "<<aggregate>> Logistics"{
    entity DeliveryPlan
    entity Delivery
    entity Truck

}

entity DeliveryPlan <<entity>> <<Root>>{

}

entity Delivery <<entity>>{

}

entity Truck <<entity>>{

}

package "<<aggregate>> Planning"{
    entity Route
    entity Trail
}

entity Route <<entity>> <<root>>{

}

entity Trail <<entity>> {

}

package "<<aggregate>> WarehouseManagement"{
  entity Warehouse
  entity Store
  entity ChargingStation

}

entity Warehouse <<entity>> <<root>>{

}

entity Store <<entity>>{

}

entity ChargingStation <<entity>> {

}

DeliveryPlan - -> "1..*" Delivery : composed by
DeliveryPlan "0..1"- -> "1" Truck : associated with

Route "1..*" -> "1..*" Trail : is composed
Route "1" <- - "1" DeliveryPlan : follows

Warehouse "1" <- "1" Store : associated with
Warehouse "1" - -> "1" ChargingStation: has
ChargingStation "1" <- - -  "*" Truck : parks at



@enduml

PlantUML version 1.2022.7(Mon Aug 22 18:01:30 WEST 2022)
(GPL source distribution)
Java Runtime: Java(TM) SE Runtime Environment
JVM: Java HotSpot(TM) 64-Bit Server VM
Default Encoding: Cp1252
Language: en
Country: GB
--></g></svg>