<?xml version="1.0" encoding="UTF-8" standalone="no"?><svg xmlns="http://www.w3.org/2000/svg" xmlns:xlink="http://www.w3.org/1999/xlink" contentStyleType="text/css" height="608px" preserveAspectRatio="none" style="width:898px;height:608px;background:#FFFFFF;" version="1.1" viewBox="0 0 898 608" width="898px" zoomAndPan="magnify"><defs/><g><!--MD5=[5967b065a2c2066b90b18afb620035e0]
cluster <<aggregate>> Authz--><g id="cluster_&lt;&lt;aggregate&gt;&gt; Authz"><path d="M320.5,199 L468.5,199 A3.75,3.75 0 0 1 471,201.5 L478,222.6094 L888.5,222.6094 A2.5,2.5 0 0 1 891,225.1094 L891,598.5 A2.5,2.5 0 0 1 888.5,601 L320.5,601 A2.5,2.5 0 0 1 318,598.5 L318,201.5 A2.5,2.5 0 0 1 320.5,199 " fill="none" style="stroke:#000000;stroke-width:1.5;"/><line style="stroke:#000000;stroke-width:1.5;" x1="318" x2="478" y1="222.6094" y2="222.6094"/><text fill="#000000" font-family="sans-serif" font-size="14" font-weight="bold" lengthAdjust="spacing" textLength="147" x="322" y="215.5332">&lt;&lt;aggregate&gt;&gt; Authz</text></g><!--MD5=[db53c58abe70499843a85815d88add8b]
cluster <<aggregate>> Employee--><g id="cluster_&lt;&lt;aggregate&gt;&gt; Employee"><path d="M468.5,6 L645.5,6 A3.75,3.75 0 0 1 648,8.5 L655,29.6094 L655.5,29.6094 A2.5,2.5 0 0 1 658,32.1094 L658,146.5 A2.5,2.5 0 0 1 655.5,149 L468.5,149 A2.5,2.5 0 0 1 466,146.5 L466,8.5 A2.5,2.5 0 0 1 468.5,6 " fill="none" style="stroke:#000000;stroke-width:1.5;"/><line style="stroke:#000000;stroke-width:1.5;" x1="466" x2="655" y1="29.6094" y2="29.6094"/><text fill="#000000" font-family="sans-serif" font-size="14" font-weight="bold" lengthAdjust="spacing" textLength="176" x="470" y="22.5332">&lt;&lt;aggregate&gt;&gt; Employee</text></g><!--MD5=[3fd616f346a44cd59a91eb10b19e157c]
class User--><g id="elem_User"><rect codeLine="23" fill="#F5F5DC" height="109.0156" id="User" rx="2.5" ry="2.5" style="stroke:#181818;stroke-width:0.5;" width="124" x="500" y="235"/><ellipse cx="538.85" cy="263.8984" fill="#ADD1B2" rx="11" ry="11" style="stroke:#181818;stroke-width:1.0;"/><path d="M537.7094,264.6953 L537.7094,267.1953 L542.0375,267.1953 L542.0375,266.2734 Q542.0375,265.6641 542.2719,265.3984 Q542.5219,265.1328 542.8969,265.1328 Q543.2719,265.1328 543.5063,265.3984 Q543.7406,265.6641 543.7406,266.2734 L543.7406,268.8984 L535.7406,268.8984 Q535.1156,268.8984 534.85,268.6641 Q534.6,268.4297 534.6,268.0391 Q534.6,267.6641 534.8656,267.4297 Q535.1313,267.1953 535.7406,267.1953 L536.0063,267.1953 L536.0063,260.5391 L535.7406,260.5391 Q535.1156,260.5391 534.85,260.3047 Q534.6,260.0703 534.6,259.6797 Q534.6,259.3047 534.85,259.0703 Q535.1156,258.8359 535.7406,258.8359 L543.3656,258.8359 L543.3656,261.4297 Q543.3656,262.0391 543.1313,262.3047 Q542.9125,262.5547 542.5219,262.5547 Q542.1469,262.5547 541.9125,262.3047 Q541.6781,262.0391 541.6781,261.4297 L541.6781,260.5391 L537.7094,260.5391 L537.7094,262.9922 L539.1938,262.9922 Q539.1938,262.3359 539.3188,262.1484 Q539.5844,261.7422 540.0531,261.7422 Q540.4281,261.7422 540.6625,262.0078 Q540.8969,262.2578 540.8969,262.8672 L540.8969,264.8359 Q540.8969,265.3828 540.7719,265.5703 Q540.5063,265.9609 540.0531,265.9609 Q539.5844,265.9609 539.3188,265.5547 Q539.1938,265.3672 539.1938,264.6953 L537.7094,264.6953 Z " fill="#000000"/><text fill="#000000" font-family="sans-serif" font-size="12" font-style="italic" lengthAdjust="spacing" textLength="43" x="556.15" y="252.457">«entity»</text><text fill="#000000" font-family="sans-serif" font-size="12" font-style="italic" lengthAdjust="spacing" textLength="35" x="560.15" y="267.5508">«root»</text><text fill="#000000" font-family="sans-serif" font-size="14" lengthAdjust="spacing" textLength="29" x="563.15" y="284.7207">User</text><line style="stroke:#181818;stroke-width:0.5;" x1="501" x2="623" y1="292.7969" y2="292.7969"/><text fill="#000000" font-family="sans-serif" font-size="14" lengthAdjust="spacing" textLength="53" x="506" y="311.3301">-isActive</text><text fill="#000000" font-family="sans-serif" font-size="14" lengthAdjust="spacing" textLength="112" x="506" y="328.9395">-isExternalSystem</text><line style="stroke:#181818;stroke-width:0.5;" x1="501" x2="623" y1="336.0156" y2="336.0156"/></g><!--MD5=[2f01b1126ff33a0669651ec2488a5ef9]
class Password--><g id="elem_Password"><rect codeLine="26" fill="#F5F5DC" height="50.7031" id="Password" rx="2.5" ry="2.5" style="stroke:#181818;stroke-width:0.5;" width="109" x="334.5" y="534"/><ellipse cx="349.5" cy="555.3516" fill="#FF8B40" rx="11" ry="11" style="stroke:#181818;stroke-width:1.0;"/><path d="M350.0938,558.6172 L352.5625,552.7422 L352.1719,552.7422 Q351.5625,552.7422 351.2969,552.5078 Q351.0313,552.2734 351.0313,551.8828 Q351.0313,551.5078 351.2969,551.2734 Q351.5625,551.0391 352.1719,551.0391 L354.4531,551.0391 Q355.0625,551.0391 355.3281,551.2734 Q355.5938,551.5078 355.5938,551.8828 Q355.5938,552.3516 355.1875,552.6172 Q355,552.7422 354.4063,552.7422 L350.9219,561.1016 L349.2813,561.1016 L345.7969,552.7422 Q345.2031,552.7422 345.0156,552.6172 Q344.6094,552.3516 344.6094,551.8828 Q344.6094,551.5078 344.875,551.2734 Q345.1406,551.0391 345.75,551.0391 L348.0469,551.0391 Q348.6563,551.0391 348.9063,551.2734 Q349.1719,551.5078 349.1719,551.8828 Q349.1719,552.2734 348.9063,552.5078 Q348.6563,552.7422 348.0469,552.7422 L347.6406,552.7422 L350.0938,558.6172 Z " fill="#000000"/><text fill="#000000" font-family="sans-serif" font-size="12" font-style="italic" lengthAdjust="spacing" textLength="81" x="361.5" y="551.457">«value object»</text><text fill="#000000" font-family="sans-serif" font-size="14" lengthAdjust="spacing" textLength="61" x="371.5" y="568.627">Password</text><line style="stroke:#181818;stroke-width:0.5;" x1="335.5" x2="442.5" y1="576.7031" y2="576.7031"/></g><!--MD5=[78bec0fde86ad92ec1dc3fb343b83709]
class Email--><g id="elem_Email"><rect codeLine="29" fill="#F5F5DC" height="50.7031" id="Email" rx="2.5" ry="2.5" style="stroke:#181818;stroke-width:0.5;" width="109" x="507.5" y="422"/><ellipse cx="522.5" cy="443.3516" fill="#FF8B40" rx="11" ry="11" style="stroke:#181818;stroke-width:1.0;"/><path d="M523.0938,446.6172 L525.5625,440.7422 L525.1719,440.7422 Q524.5625,440.7422 524.2969,440.5078 Q524.0313,440.2734 524.0313,439.8828 Q524.0313,439.5078 524.2969,439.2734 Q524.5625,439.0391 525.1719,439.0391 L527.4531,439.0391 Q528.0625,439.0391 528.3281,439.2734 Q528.5938,439.5078 528.5938,439.8828 Q528.5938,440.3516 528.1875,440.6172 Q528,440.7422 527.4063,440.7422 L523.9219,449.1016 L522.2813,449.1016 L518.7969,440.7422 Q518.2031,440.7422 518.0156,440.6172 Q517.6094,440.3516 517.6094,439.8828 Q517.6094,439.5078 517.875,439.2734 Q518.1406,439.0391 518.75,439.0391 L521.0469,439.0391 Q521.6563,439.0391 521.9063,439.2734 Q522.1719,439.5078 522.1719,439.8828 Q522.1719,440.2734 521.9063,440.5078 Q521.6563,440.7422 521.0469,440.7422 L520.6406,440.7422 L523.0938,446.6172 Z " fill="#000000"/><text fill="#000000" font-family="sans-serif" font-size="12" font-style="italic" lengthAdjust="spacing" textLength="81" x="534.5" y="439.457">«value object»</text><text fill="#000000" font-family="sans-serif" font-size="14" lengthAdjust="spacing" textLength="34" x="558" y="456.627">Email</text><line style="stroke:#181818;stroke-width:0.5;" x1="508.5" x2="615.5" y1="464.7031" y2="464.7031"/></g><!--MD5=[53f6a92bd21ca2f2960392a061f3a1c6]
class Name--><g id="elem_Name"><rect codeLine="28" fill="#F5F5DC" height="50.7031" id="Name" rx="2.5" ry="2.5" style="stroke:#181818;stroke-width:0.5;" width="109" x="651.5" y="422"/><ellipse cx="666.5" cy="443.3516" fill="#FF8B40" rx="11" ry="11" style="stroke:#181818;stroke-width:1.0;"/><path d="M667.0938,446.6172 L669.5625,440.7422 L669.1719,440.7422 Q668.5625,440.7422 668.2969,440.5078 Q668.0313,440.2734 668.0313,439.8828 Q668.0313,439.5078 668.2969,439.2734 Q668.5625,439.0391 669.1719,439.0391 L671.4531,439.0391 Q672.0625,439.0391 672.3281,439.2734 Q672.5938,439.5078 672.5938,439.8828 Q672.5938,440.3516 672.1875,440.6172 Q672,440.7422 671.4063,440.7422 L667.9219,449.1016 L666.2813,449.1016 L662.7969,440.7422 Q662.2031,440.7422 662.0156,440.6172 Q661.6094,440.3516 661.6094,439.8828 Q661.6094,439.5078 661.875,439.2734 Q662.1406,439.0391 662.75,439.0391 L665.0469,439.0391 Q665.6563,439.0391 665.9063,439.2734 Q666.1719,439.5078 666.1719,439.8828 Q666.1719,440.2734 665.9063,440.5078 Q665.6563,440.7422 665.0469,440.7422 L664.6406,440.7422 L667.0938,446.6172 Z " fill="#000000"/><text fill="#000000" font-family="sans-serif" font-size="12" font-style="italic" lengthAdjust="spacing" textLength="81" x="678.5" y="439.457">«value object»</text><text fill="#000000" font-family="sans-serif" font-size="14" lengthAdjust="spacing" textLength="36" x="701" y="456.627">Name</text><line style="stroke:#181818;stroke-width:0.5;" x1="652.5" x2="759.5" y1="464.7031" y2="464.7031"/></g><!--MD5=[a3638c1e5b65d287ecad7f06f5c0f212]
class Role--><g id="elem_Role"><rect codeLine="27" fill="#F5F5DC" height="50.7031" id="Role" rx="2.5" ry="2.5" style="stroke:#181818;stroke-width:0.5;" width="109" x="765.5" y="534"/><ellipse cx="780.5" cy="555.3516" fill="#FF8B40" rx="11" ry="11" style="stroke:#181818;stroke-width:1.0;"/><path d="M781.0938,558.6172 L783.5625,552.7422 L783.1719,552.7422 Q782.5625,552.7422 782.2969,552.5078 Q782.0313,552.2734 782.0313,551.8828 Q782.0313,551.5078 782.2969,551.2734 Q782.5625,551.0391 783.1719,551.0391 L785.4531,551.0391 Q786.0625,551.0391 786.3281,551.2734 Q786.5938,551.5078 786.5938,551.8828 Q786.5938,552.3516 786.1875,552.6172 Q786,552.7422 785.4063,552.7422 L781.9219,561.1016 L780.2813,561.1016 L776.7969,552.7422 Q776.2031,552.7422 776.0156,552.6172 Q775.6094,552.3516 775.6094,551.8828 Q775.6094,551.5078 775.875,551.2734 Q776.1406,551.0391 776.75,551.0391 L779.0469,551.0391 Q779.6563,551.0391 779.9063,551.2734 Q780.1719,551.5078 780.1719,551.8828 Q780.1719,552.2734 779.9063,552.5078 Q779.6563,552.7422 779.0469,552.7422 L778.6406,552.7422 L781.0938,558.6172 Z " fill="#000000"/><text fill="#000000" font-family="sans-serif" font-size="12" font-style="italic" lengthAdjust="spacing" textLength="81" x="792.5" y="551.457">«value object»</text><text fill="#000000" font-family="sans-serif" font-size="14" lengthAdjust="spacing" textLength="29" x="818.5" y="568.627">Role</text><line style="stroke:#181818;stroke-width:0.5;" x1="766.5" x2="873.5" y1="576.7031" y2="576.7031"/></g><!--MD5=[7421f545a0d8420c5bec41e74b387d9c]
class Employee--><g id="elem_Employee"><rect codeLine="42" fill="#F5F5DC" height="91.4063" id="Employee" rx="2.5" ry="2.5" style="stroke:#181818;stroke-width:0.5;" width="94" x="515" y="42"/><ellipse cx="530" cy="70.8984" fill="#ADD1B2" rx="11" ry="11" style="stroke:#181818;stroke-width:1.0;"/><path d="M528.8594,71.6953 L528.8594,74.1953 L533.1875,74.1953 L533.1875,73.2734 Q533.1875,72.6641 533.4219,72.3984 Q533.6719,72.1328 534.0469,72.1328 Q534.4219,72.1328 534.6563,72.3984 Q534.8906,72.6641 534.8906,73.2734 L534.8906,75.8984 L526.8906,75.8984 Q526.2656,75.8984 526,75.6641 Q525.75,75.4297 525.75,75.0391 Q525.75,74.6641 526.0156,74.4297 Q526.2813,74.1953 526.8906,74.1953 L527.1563,74.1953 L527.1563,67.5391 L526.8906,67.5391 Q526.2656,67.5391 526,67.3047 Q525.75,67.0703 525.75,66.6797 Q525.75,66.3047 526,66.0703 Q526.2656,65.8359 526.8906,65.8359 L534.5156,65.8359 L534.5156,68.4297 Q534.5156,69.0391 534.2813,69.3047 Q534.0625,69.5547 533.6719,69.5547 Q533.2969,69.5547 533.0625,69.3047 Q532.8281,69.0391 532.8281,68.4297 L532.8281,67.5391 L528.8594,67.5391 L528.8594,69.9922 L530.3438,69.9922 Q530.3438,69.3359 530.4688,69.1484 Q530.7344,68.7422 531.2031,68.7422 Q531.5781,68.7422 531.8125,69.0078 Q532.0469,69.2578 532.0469,69.8672 L532.0469,71.8359 Q532.0469,72.3828 531.9219,72.5703 Q531.6563,72.9609 531.2031,72.9609 Q530.7344,72.9609 530.4688,72.5547 Q530.3438,72.3672 530.3438,71.6953 L528.8594,71.6953 Z " fill="#000000"/><text fill="#000000" font-family="sans-serif" font-size="12" font-style="italic" lengthAdjust="spacing" textLength="43" x="553.5" y="59.457">«entity»</text><text fill="#000000" font-family="sans-serif" font-size="12" font-style="italic" lengthAdjust="spacing" textLength="35" x="557.5" y="74.5508">«root»</text><text fill="#000000" font-family="sans-serif" font-size="14" lengthAdjust="spacing" textLength="62" x="544" y="91.7207">Employee</text><line style="stroke:#181818;stroke-width:0.5;" x1="516" x2="608" y1="99.7969" y2="99.7969"/><text fill="#000000" font-family="sans-serif" font-size="14" lengthAdjust="spacing" textLength="59" x="521" y="118.3301">-identifier</text><line style="stroke:#181818;stroke-width:0.5;" x1="516" x2="608" y1="125.4063" y2="125.4063"/></g><g id="elem_GMN8"><path d="M6,276.5 L6,302.8516 A0,0 0 0 0 6,302.8516 L302,302.8516 A0,0 0 0 0 302,302.8516 L302,294.5 L499.85,289.5 L302,286.5 L302,286.5 L292,276.5 L6,276.5 A0,0 0 0 0 6,276.5 " fill="#FEFFDD" style="stroke:#181818;stroke-width:0.5;"/><path d="M292,276.5 L292,286.5 L302,286.5 L292,276.5 " fill="#FEFFDD" style="stroke:#181818;stroke-width:0.5;"/><text fill="#000000" font-family="sans-serif" font-size="13" lengthAdjust="spacing" textLength="275" x="12" y="294.9951">User can represent people or external systems.</text></g><!--MD5=[5ab1f46e477a8163e64d30b24bef4255]
link User to Password--><g id="link_User_Password"><path codeLine="31" d="M499.67,318.66 C459.45,340.53 410.43,375.08 387,422 C370.25,455.53 374.96,499.73 381.01,528.62 " fill="none" id="User-to-Password" style="stroke:#222222;stroke-width:1.0;"/><polygon fill="#222222" points="382.15,533.83,384.1293,524.1821,381.079,528.9461,376.315,525.8957,382.15,533.83" style="stroke:#222222;stroke-width:1.0;"/><text fill="#000000" font-family="sans-serif" font-size="13" lengthAdjust="spacing" textLength="101" x="388" y="452.9951">associated with a</text><text fill="#000000" font-family="sans-serif" font-size="13" lengthAdjust="spacing" textLength="7" x="372.6272" y="523.1971">1</text></g><!--MD5=[0a0c22abab0b6a2b3d71e15ac743b391]
link User to Name--><g id="link_User_Name"><path codeLine="32" d="M613.21,344.2 C622.5,354.07 632.08,364.31 641,374 C654.18,388.31 668.65,404.41 680.58,417.79 " fill="none" id="User-to-Name" style="stroke:#222222;stroke-width:1.0;"/><polygon fill="#222222" points="684.2,421.85,681.2104,412.4659,680.8782,418.113,675.2311,417.7808,684.2,421.85" style="stroke:#222222;stroke-width:1.0;"/><text fill="#000000" font-family="sans-serif" font-size="13" lengthAdjust="spacing" textLength="96" x="658" y="388.4951">characterized by</text><text fill="#000000" font-family="sans-serif" font-size="13" lengthAdjust="spacing" textLength="7" x="671.0331" y="411.222">1</text></g><!--MD5=[dbc364445409b51c9b407d19a07b4adf]
link User to Email--><g id="link_User_Email"><path codeLine="33" d="M562,344.19 C562,368.4 562,396.08 562,416.54 " fill="none" id="User-to-Email" style="stroke:#222222;stroke-width:1.0;"/><polygon fill="#222222" points="562,421.58,566,412.58,562,416.58,558,412.58,562,421.58" style="stroke:#222222;stroke-width:1.0;"/><text fill="#000000" font-family="sans-serif" font-size="13" lengthAdjust="spacing" textLength="69" x="563" y="388.4951">identified by</text><text fill="#000000" font-family="sans-serif" font-size="13" lengthAdjust="spacing" textLength="7" x="554.1906" y="411.3061">1</text></g><!--MD5=[70c37dc9bfbc8656942103c36f1181e4]
link User to Role--><g id="link_User_Role"><path codeLine="34" d="M624.09,301.74 C668.53,312.87 726.69,334.24 763,374 C802.81,417.6 814.82,488.51 818.44,528.54 " fill="none" id="User-to-Role" style="stroke:#222222;stroke-width:1.0;"/><polygon fill="#222222" points="818.88,533.74,822.1188,524.4389,818.4648,528.7573,814.1464,525.1033,818.88,533.74" style="stroke:#222222;stroke-width:1.0;"/><text fill="#000000" font-family="sans-serif" font-size="13" lengthAdjust="spacing" textLength="42" x="810" y="452.9951">plays a</text><text fill="#000000" font-family="sans-serif" font-size="13" lengthAdjust="spacing" textLength="20" x="796.1695" y="523.0851">1..*</text></g><!--MD5=[22fb9506fac029fc1d2ae00f0eb8d606]
link Employee to User--><g id="link_Employee_User"><path codeLine="46" d="M562,133.38 C562,161.8 562,198.85 562,229.61 " fill="none" id="Employee-to-User" style="stroke:#222222;stroke-width:1.0;"/><polygon fill="#222222" points="562,234.89,566,225.89,562,229.89,558,225.89,562,234.89" style="stroke:#222222;stroke-width:1.0;"/><text fill="#000000" font-family="sans-serif" font-size="13" lengthAdjust="spacing" textLength="21" x="563" y="179.4951">is a</text><text fill="#000000" font-family="sans-serif" font-size="13" lengthAdjust="spacing" textLength="7" x="554.5297" y="223.9945">1</text></g><!--MD5=[d6af05e2401633aef1027557e50efb5c]
@startuml DMAuthz
'https://plantuml.com/class-diagram

skinparam classAttributeIconSize 0
hide empty attributes
skinparam classBackgroundColor beige
skinparam ArrowColor #222222


package "<<aggregate>> Authz" {
    entity User
    class Password
    class Email
    class Name
    class Role
}

entity User <<entity>> <<root>> {
    - isActive
    - isExternalSystem

}

entity User
note left: User can represent people or external systems.

class Password <<(V,#FF8B40) value object>> {}
class Role <<(V,#FF8B40) value object>> {}
class Name <<(V,#FF8B40) value object>> {}
class Email <<(V,#FF8B40) value object>> {}

User - - -> "1" Password : associated with a
User - -> "1" Name : characterized by
User - -> "1" Email : identified by
User - - -> "1..*" Role : plays a



package "<<aggregate>> Employee" {
    entity Employee
}

entity Employee <<entity>> <<root>> {
    -identifier
}

Employee - -> "1" User : is a

@enduml

@startuml DMAuthz

skinparam classAttributeIconSize 0
hide empty attributes
skinparam classBackgroundColor beige
skinparam ArrowColor #222222


package "<<aggregate>> Authz" {
    entity User
    class Password
    class Email
    class Name
    class Role
}

entity User <<entity>> <<root>> {
    - isActive
    - isExternalSystem

}

entity User
note left: User can represent people or external systems.

class Password <<(V,#FF8B40) value object>> {}
class Role <<(V,#FF8B40) value object>> {}
class Name <<(V,#FF8B40) value object>> {}
class Email <<(V,#FF8B40) value object>> {}

User - - -> "1" Password : associated with a
User - -> "1" Name : characterized by
User - -> "1" Email : identified by
User - - -> "1..*" Role : plays a



package "<<aggregate>> Employee" {
    entity Employee
}

entity Employee <<entity>> <<root>> {
    -identifier
}

Employee - -> "1" User : is a

@enduml

PlantUML version 1.2022.7(Mon Aug 22 18:01:30 WEST 2022)
(GPL source distribution)
Java Runtime: Java(TM) SE Runtime Environment
JVM: Java HotSpot(TM) 64-Bit Server VM
Default Encoding: Cp1252
Language: en
Country: GB
--></g></svg>