<?xml version="1.0" encoding="UTF-8" standalone="no"?><svg xmlns="http://www.w3.org/2000/svg" xmlns:xlink="http://www.w3.org/1999/xlink" contentStyleType="text/css" height="484px" preserveAspectRatio="none" style="width:1500px;height:484px;background:#FFFFFF;" version="1.1" viewBox="0 0 1500 484" width="1500px" zoomAndPan="magnify"><defs/><g><!--MD5=[058ee174e53f4d5e43b0ff6bb9b97aa3]
cluster <<aggregate>> Logistics--><g id="cluster_&lt;&lt;aggregate&gt;&gt; Logistics"><path d="M8.5,6 L180.5,6 A3.75,3.75 0 0 1 183,8.5 L190,29.6094 L1490.5,29.6094 A2.5,2.5 0 0 1 1493,32.1094 L1493,474.5 A2.5,2.5 0 0 1 1490.5,477 L8.5,477 A2.5,2.5 0 0 1 6,474.5 L6,8.5 A2.5,2.5 0 0 1 8.5,6 " fill="none" style="stroke:#000000;stroke-width:1.5;"/><line style="stroke:#000000;stroke-width:1.5;" x1="6" x2="190" y1="29.6094" y2="29.6094"/><text fill="#000000" font-family="sans-serif" font-size="14" font-weight="bold" lengthAdjust="spacing" textLength="171" x="10" y="22.5332">&lt;&lt;aggregate&gt;&gt; Logistics</text></g><!--MD5=[6013b76828f9e37bf607739d3a6706d0]
class DeliveryPlan--><g id="elem_DeliveryPlan"><rect codeLine="25" fill="#F5F5DC" height="65.7969" id="DeliveryPlan" rx="2.5" ry="2.5" style="stroke:#181818;stroke-width:0.5;" width="111" x="572.5" y="42"/><ellipse cx="587.5" cy="70.8984" fill="#ADD1B2" rx="11" ry="11" style="stroke:#181818;stroke-width:1.0;"/><path d="M586.3594,71.6953 L586.3594,74.1953 L590.6875,74.1953 L590.6875,73.2734 Q590.6875,72.6641 590.9219,72.3984 Q591.1719,72.1328 591.5469,72.1328 Q591.9219,72.1328 592.1563,72.3984 Q592.3906,72.6641 592.3906,73.2734 L592.3906,75.8984 L584.3906,75.8984 Q583.7656,75.8984 583.5,75.6641 Q583.25,75.4297 583.25,75.0391 Q583.25,74.6641 583.5156,74.4297 Q583.7813,74.1953 584.3906,74.1953 L584.6563,74.1953 L584.6563,67.5391 L584.3906,67.5391 Q583.7656,67.5391 583.5,67.3047 Q583.25,67.0703 583.25,66.6797 Q583.25,66.3047 583.5,66.0703 Q583.7656,65.8359 584.3906,65.8359 L592.0156,65.8359 L592.0156,68.4297 Q592.0156,69.0391 591.7813,69.3047 Q591.5625,69.5547 591.1719,69.5547 Q590.7969,69.5547 590.5625,69.3047 Q590.3281,69.0391 590.3281,68.4297 L590.3281,67.5391 L586.3594,67.5391 L586.3594,69.9922 L587.8438,69.9922 Q587.8438,69.3359 587.9688,69.1484 Q588.2344,68.7422 588.7031,68.7422 Q589.0781,68.7422 589.3125,69.0078 Q589.5469,69.2578 589.5469,69.8672 L589.5469,71.8359 Q589.5469,72.3828 589.4219,72.5703 Q589.1563,72.9609 588.7031,72.9609 Q588.2344,72.9609 587.9688,72.5547 Q587.8438,72.3672 587.8438,71.6953 L586.3594,71.6953 Z " fill="#000000"/><text fill="#000000" font-family="sans-serif" font-size="12" font-style="italic" lengthAdjust="spacing" textLength="43" x="619.5" y="59.457">«entity»</text><text fill="#000000" font-family="sans-serif" font-size="12" font-style="italic" lengthAdjust="spacing" textLength="40" x="621" y="74.5508">«Root»</text><text fill="#000000" font-family="sans-serif" font-size="14" lengthAdjust="spacing" textLength="79" x="601.5" y="91.7207">DeliveryPlan</text><line style="stroke:#181818;stroke-width:0.5;" x1="573.5" x2="682.5" y1="99.7969" y2="99.7969"/></g><!--MD5=[fff5db4abcb6eec6574b9ea9c3ee0eae]
class Delivery--><g id="elem_Delivery"><rect codeLine="29" fill="#F5F5DC" height="50.7031" id="Delivery" rx="2.5" ry="2.5" style="stroke:#181818;stroke-width:0.5;" width="83" x="422.5" y="186"/><ellipse cx="437.5" cy="207.3516" fill="#ADD1B2" rx="11" ry="11" style="stroke:#181818;stroke-width:1.0;"/><path d="M436.3594,208.1484 L436.3594,210.6484 L440.6875,210.6484 L440.6875,209.7266 Q440.6875,209.1172 440.9219,208.8516 Q441.1719,208.5859 441.5469,208.5859 Q441.9219,208.5859 442.1563,208.8516 Q442.3906,209.1172 442.3906,209.7266 L442.3906,212.3516 L434.3906,212.3516 Q433.7656,212.3516 433.5,212.1172 Q433.25,211.8828 433.25,211.4922 Q433.25,211.1172 433.5156,210.8828 Q433.7813,210.6484 434.3906,210.6484 L434.6563,210.6484 L434.6563,203.9922 L434.3906,203.9922 Q433.7656,203.9922 433.5,203.7578 Q433.25,203.5234 433.25,203.1328 Q433.25,202.7578 433.5,202.5234 Q433.7656,202.2891 434.3906,202.2891 L442.0156,202.2891 L442.0156,204.8828 Q442.0156,205.4922 441.7813,205.7578 Q441.5625,206.0078 441.1719,206.0078 Q440.7969,206.0078 440.5625,205.7578 Q440.3281,205.4922 440.3281,204.8828 L440.3281,203.9922 L436.3594,203.9922 L436.3594,206.4453 L437.8438,206.4453 Q437.8438,205.7891 437.9688,205.6016 Q438.2344,205.1953 438.7031,205.1953 Q439.0781,205.1953 439.3125,205.4609 Q439.5469,205.7109 439.5469,206.3203 L439.5469,208.2891 Q439.5469,208.8359 439.4219,209.0234 Q439.1563,209.4141 438.7031,209.4141 Q438.2344,209.4141 437.9688,209.0078 Q437.8438,208.8203 437.8438,208.1484 L436.3594,208.1484 Z " fill="#000000"/><text fill="#000000" font-family="sans-serif" font-size="12" font-style="italic" lengthAdjust="spacing" textLength="43" x="455.5" y="203.457">«entity»</text><text fill="#000000" font-family="sans-serif" font-size="14" lengthAdjust="spacing" textLength="51" x="451.5" y="220.627">Delivery</text><line style="stroke:#181818;stroke-width:0.5;" x1="423.5" x2="504.5" y1="228.7031" y2="228.7031"/></g><!--MD5=[f2ba7f6ab60af8dd0d3e354f91729b14]
class Truck--><g id="elem_Truck"><rect codeLine="41" fill="#F5F5DC" height="50.7031" id="Truck" rx="2.5" ry="2.5" style="stroke:#181818;stroke-width:0.5;" width="71" x="935.5" y="186"/><ellipse cx="950.5" cy="207.3516" fill="#ADD1B2" rx="11" ry="11" style="stroke:#181818;stroke-width:1.0;"/><path d="M949.3594,208.1484 L949.3594,210.6484 L953.6875,210.6484 L953.6875,209.7266 Q953.6875,209.1172 953.9219,208.8516 Q954.1719,208.5859 954.5469,208.5859 Q954.9219,208.5859 955.1563,208.8516 Q955.3906,209.1172 955.3906,209.7266 L955.3906,212.3516 L947.3906,212.3516 Q946.7656,212.3516 946.5,212.1172 Q946.25,211.8828 946.25,211.4922 Q946.25,211.1172 946.5156,210.8828 Q946.7813,210.6484 947.3906,210.6484 L947.6563,210.6484 L947.6563,203.9922 L947.3906,203.9922 Q946.7656,203.9922 946.5,203.7578 Q946.25,203.5234 946.25,203.1328 Q946.25,202.7578 946.5,202.5234 Q946.7656,202.2891 947.3906,202.2891 L955.0156,202.2891 L955.0156,204.8828 Q955.0156,205.4922 954.7813,205.7578 Q954.5625,206.0078 954.1719,206.0078 Q953.7969,206.0078 953.5625,205.7578 Q953.3281,205.4922 953.3281,204.8828 L953.3281,203.9922 L949.3594,203.9922 L949.3594,206.4453 L950.8438,206.4453 Q950.8438,205.7891 950.9688,205.6016 Q951.2344,205.1953 951.7031,205.1953 Q952.0781,205.1953 952.3125,205.4609 Q952.5469,205.7109 952.5469,206.3203 L952.5469,208.2891 Q952.5469,208.8359 952.4219,209.0234 Q952.1563,209.4141 951.7031,209.4141 Q951.2344,209.4141 950.9688,209.0078 Q950.8438,208.8203 950.8438,208.1484 L949.3594,208.1484 Z " fill="#000000"/><text fill="#000000" font-family="sans-serif" font-size="12" font-style="italic" lengthAdjust="spacing" textLength="43" x="962.5" y="203.457">«entity»</text><text fill="#000000" font-family="sans-serif" font-size="14" lengthAdjust="spacing" textLength="36" x="966" y="220.627">Truck</text><line style="stroke:#181818;stroke-width:0.5;" x1="936.5" x2="1005.5" y1="228.7031" y2="228.7031"/></g><!--MD5=[8cc77c1ec6f93b99af9357403afc9a8e]
class DeliveryIndentifier--><g id="elem_DeliveryIndentifier"><rect codeLine="33" fill="#F5F5DC" height="50.7031" id="DeliveryIndentifier" rx="2.5" ry="2.5" style="stroke:#181818;stroke-width:0.5;" width="145" x="22.5" y="298"/><ellipse cx="37.5" cy="319.3516" fill="#FF8B40" rx="11" ry="11" style="stroke:#181818;stroke-width:1.0;"/><path d="M38.0938,322.6172 L40.5625,316.7422 L40.1719,316.7422 Q39.5625,316.7422 39.2969,316.5078 Q39.0313,316.2734 39.0313,315.8828 Q39.0313,315.5078 39.2969,315.2734 Q39.5625,315.0391 40.1719,315.0391 L42.4531,315.0391 Q43.0625,315.0391 43.3281,315.2734 Q43.5938,315.5078 43.5938,315.8828 Q43.5938,316.3516 43.1875,316.6172 Q43,316.7422 42.4063,316.7422 L38.9219,325.1016 L37.2813,325.1016 L33.7969,316.7422 Q33.2031,316.7422 33.0156,316.6172 Q32.6094,316.3516 32.6094,315.8828 Q32.6094,315.5078 32.875,315.2734 Q33.1406,315.0391 33.75,315.0391 L36.0469,315.0391 Q36.6563,315.0391 36.9063,315.2734 Q37.1719,315.5078 37.1719,315.8828 Q37.1719,316.2734 36.9063,316.5078 Q36.6563,316.7422 36.0469,316.7422 L35.6406,316.7422 L38.0938,322.6172 Z " fill="#000000"/><text fill="#000000" font-family="sans-serif" font-size="12" font-style="italic" lengthAdjust="spacing" textLength="81" x="67.5" y="315.457">«value object»</text><text fill="#000000" font-family="sans-serif" font-size="14" lengthAdjust="spacing" textLength="113" x="51.5" y="332.627">DeliveryIndentifier</text><line style="stroke:#181818;stroke-width:0.5;" x1="23.5" x2="166.5" y1="340.7031" y2="340.7031"/></g><!--MD5=[c0109763c6886e90c54a3ff04296d3ae]
class DeliveryDate--><g id="elem_DeliveryDate"><rect codeLine="34" fill="#F5F5DC" height="50.7031" id="DeliveryDate" rx="2.5" ry="2.5" style="stroke:#181818;stroke-width:0.5;" width="113" x="540.5" y="186"/><ellipse cx="555.5" cy="207.3516" fill="#FF8B40" rx="11" ry="11" style="stroke:#181818;stroke-width:1.0;"/><path d="M556.0938,210.6172 L558.5625,204.7422 L558.1719,204.7422 Q557.5625,204.7422 557.2969,204.5078 Q557.0313,204.2734 557.0313,203.8828 Q557.0313,203.5078 557.2969,203.2734 Q557.5625,203.0391 558.1719,203.0391 L560.4531,203.0391 Q561.0625,203.0391 561.3281,203.2734 Q561.5938,203.5078 561.5938,203.8828 Q561.5938,204.3516 561.1875,204.6172 Q561,204.7422 560.4063,204.7422 L556.9219,213.1016 L555.2813,213.1016 L551.7969,204.7422 Q551.2031,204.7422 551.0156,204.6172 Q550.6094,204.3516 550.6094,203.8828 Q550.6094,203.5078 550.875,203.2734 Q551.1406,203.0391 551.75,203.0391 L554.0469,203.0391 Q554.6563,203.0391 554.9063,203.2734 Q555.1719,203.5078 555.1719,203.8828 Q555.1719,204.2734 554.9063,204.5078 Q554.6563,204.7422 554.0469,204.7422 L553.6406,204.7422 L556.0938,210.6172 Z " fill="#000000"/><text fill="#000000" font-family="sans-serif" font-size="12" font-style="italic" lengthAdjust="spacing" textLength="81" x="569.5" y="203.457">«value object»</text><text fill="#000000" font-family="sans-serif" font-size="14" lengthAdjust="spacing" textLength="81" x="569.5" y="220.627">DeliveryDate</text><line style="stroke:#181818;stroke-width:0.5;" x1="541.5" x2="652.5" y1="228.7031" y2="228.7031"/></g><!--MD5=[251baaeb1cb950a4848d55ebdfd8d6b8]
class DeliveryMass--><g id="elem_DeliveryMass"><rect codeLine="35" fill="#F5F5DC" height="50.7031" id="DeliveryMass" rx="2.5" ry="2.5" style="stroke:#181818;stroke-width:0.5;" width="116" x="203" y="298"/><ellipse cx="218" cy="319.3516" fill="#FF8B40" rx="11" ry="11" style="stroke:#181818;stroke-width:1.0;"/><path d="M218.5938,322.6172 L221.0625,316.7422 L220.6719,316.7422 Q220.0625,316.7422 219.7969,316.5078 Q219.5313,316.2734 219.5313,315.8828 Q219.5313,315.5078 219.7969,315.2734 Q220.0625,315.0391 220.6719,315.0391 L222.9531,315.0391 Q223.5625,315.0391 223.8281,315.2734 Q224.0938,315.5078 224.0938,315.8828 Q224.0938,316.3516 223.6875,316.6172 Q223.5,316.7422 222.9063,316.7422 L219.4219,325.1016 L217.7813,325.1016 L214.2969,316.7422 Q213.7031,316.7422 213.5156,316.6172 Q213.1094,316.3516 213.1094,315.8828 Q213.1094,315.5078 213.375,315.2734 Q213.6406,315.0391 214.25,315.0391 L216.5469,315.0391 Q217.1563,315.0391 217.4063,315.2734 Q217.6719,315.5078 217.6719,315.8828 Q217.6719,316.2734 217.4063,316.5078 Q217.1563,316.7422 216.5469,316.7422 L216.1406,316.7422 L218.5938,322.6172 Z " fill="#000000"/><text fill="#000000" font-family="sans-serif" font-size="12" font-style="italic" lengthAdjust="spacing" textLength="81" x="233.5" y="315.457">«value object»</text><text fill="#000000" font-family="sans-serif" font-size="14" lengthAdjust="spacing" textLength="84" x="232" y="332.627">DeliveryMass</text><line style="stroke:#181818;stroke-width:0.5;" x1="204" x2="318" y1="340.7031" y2="340.7031"/></g><!--MD5=[18a836c23c0e4d04592ec32f5657da5f]
class Destination--><g id="elem_Destination"><rect codeLine="36" fill="#F5F5DC" height="50.7031" id="Destination" rx="2.5" ry="2.5" style="stroke:#181818;stroke-width:0.5;" width="109" x="354.5" y="298"/><ellipse cx="369.5" cy="319.3516" fill="#FF8B40" rx="11" ry="11" style="stroke:#181818;stroke-width:1.0;"/><path d="M370.0938,322.6172 L372.5625,316.7422 L372.1719,316.7422 Q371.5625,316.7422 371.2969,316.5078 Q371.0313,316.2734 371.0313,315.8828 Q371.0313,315.5078 371.2969,315.2734 Q371.5625,315.0391 372.1719,315.0391 L374.4531,315.0391 Q375.0625,315.0391 375.3281,315.2734 Q375.5938,315.5078 375.5938,315.8828 Q375.5938,316.3516 375.1875,316.6172 Q375,316.7422 374.4063,316.7422 L370.9219,325.1016 L369.2813,325.1016 L365.7969,316.7422 Q365.2031,316.7422 365.0156,316.6172 Q364.6094,316.3516 364.6094,315.8828 Q364.6094,315.5078 364.875,315.2734 Q365.1406,315.0391 365.75,315.0391 L368.0469,315.0391 Q368.6563,315.0391 368.9063,315.2734 Q369.1719,315.5078 369.1719,315.8828 Q369.1719,316.2734 368.9063,316.5078 Q368.6563,316.7422 368.0469,316.7422 L367.6406,316.7422 L370.0938,322.6172 Z " fill="#000000"/><text fill="#000000" font-family="sans-serif" font-size="12" font-style="italic" lengthAdjust="spacing" textLength="81" x="381.5" y="315.457">«value object»</text><text fill="#000000" font-family="sans-serif" font-size="14" lengthAdjust="spacing" textLength="71" x="386.5" y="332.627">Destination</text><line style="stroke:#181818;stroke-width:0.5;" x1="355.5" x2="462.5" y1="340.7031" y2="340.7031"/></g><!--MD5=[3a08e910d794fe5c2696dd9d3f8af374]
class LoadTime--><g id="elem_LoadTime"><rect codeLine="37" fill="#F5F5DC" height="50.7031" id="LoadTime" rx="2.5" ry="2.5" style="stroke:#181818;stroke-width:0.5;" width="109" x="498.5" y="298"/><ellipse cx="513.5" cy="319.3516" fill="#FF8B40" rx="11" ry="11" style="stroke:#181818;stroke-width:1.0;"/><path d="M514.0938,322.6172 L516.5625,316.7422 L516.1719,316.7422 Q515.5625,316.7422 515.2969,316.5078 Q515.0313,316.2734 515.0313,315.8828 Q515.0313,315.5078 515.2969,315.2734 Q515.5625,315.0391 516.1719,315.0391 L518.4531,315.0391 Q519.0625,315.0391 519.3281,315.2734 Q519.5938,315.5078 519.5938,315.8828 Q519.5938,316.3516 519.1875,316.6172 Q519,316.7422 518.4063,316.7422 L514.9219,325.1016 L513.2813,325.1016 L509.7969,316.7422 Q509.2031,316.7422 509.0156,316.6172 Q508.6094,316.3516 508.6094,315.8828 Q508.6094,315.5078 508.875,315.2734 Q509.1406,315.0391 509.75,315.0391 L512.0469,315.0391 Q512.6563,315.0391 512.9063,315.2734 Q513.1719,315.5078 513.1719,315.8828 Q513.1719,316.2734 512.9063,316.5078 Q512.6563,316.7422 512.0469,316.7422 L511.6406,316.7422 L514.0938,322.6172 Z " fill="#000000"/><text fill="#000000" font-family="sans-serif" font-size="12" font-style="italic" lengthAdjust="spacing" textLength="81" x="525.5" y="315.457">«value object»</text><text fill="#000000" font-family="sans-serif" font-size="14" lengthAdjust="spacing" textLength="63" x="534.5" y="332.627">LoadTime</text><line style="stroke:#181818;stroke-width:0.5;" x1="499.5" x2="606.5" y1="340.7031" y2="340.7031"/></g><!--MD5=[f5f140be8459aac66cee29382f39c9d5]
class DownloadTime--><g id="elem_DownloadTime"><rect codeLine="38" fill="#F5F5DC" height="50.7031" id="DownloadTime" rx="2.5" ry="2.5" style="stroke:#181818;stroke-width:0.5;" width="125" x="581.5" y="410"/><ellipse cx="596.5" cy="431.3516" fill="#FF8B40" rx="11" ry="11" style="stroke:#181818;stroke-width:1.0;"/><path d="M597.0938,434.6172 L599.5625,428.7422 L599.1719,428.7422 Q598.5625,428.7422 598.2969,428.5078 Q598.0313,428.2734 598.0313,427.8828 Q598.0313,427.5078 598.2969,427.2734 Q598.5625,427.0391 599.1719,427.0391 L601.4531,427.0391 Q602.0625,427.0391 602.3281,427.2734 Q602.5938,427.5078 602.5938,427.8828 Q602.5938,428.3516 602.1875,428.6172 Q602,428.7422 601.4063,428.7422 L597.9219,437.1016 L596.2813,437.1016 L592.7969,428.7422 Q592.2031,428.7422 592.0156,428.6172 Q591.6094,428.3516 591.6094,427.8828 Q591.6094,427.5078 591.875,427.2734 Q592.1406,427.0391 592.75,427.0391 L595.0469,427.0391 Q595.6563,427.0391 595.9063,427.2734 Q596.1719,427.5078 596.1719,427.8828 Q596.1719,428.2734 595.9063,428.5078 Q595.6563,428.7422 595.0469,428.7422 L594.6406,428.7422 L597.0938,434.6172 Z " fill="#000000"/><text fill="#000000" font-family="sans-serif" font-size="12" font-style="italic" lengthAdjust="spacing" textLength="81" x="616.5" y="427.457">«value object»</text><text fill="#000000" font-family="sans-serif" font-size="14" lengthAdjust="spacing" textLength="93" x="610.5" y="444.627">DownloadTime</text><line style="stroke:#181818;stroke-width:0.5;" x1="582.5" x2="705.5" y1="452.7031" y2="452.7031"/></g><!--MD5=[cd7f37554007b9f11101944b457a48b1]
class Tare--><g id="elem_Tare"><rect codeLine="44" fill="#F5F5DC" height="50.7031" id="Tare" rx="2.5" ry="2.5" style="stroke:#181818;stroke-width:0.5;" width="109" x="680.5" y="298"/><ellipse cx="695.5" cy="319.3516" fill="#FF8B40" rx="11" ry="11" style="stroke:#181818;stroke-width:1.0;"/><path d="M696.0938,322.6172 L698.5625,316.7422 L698.1719,316.7422 Q697.5625,316.7422 697.2969,316.5078 Q697.0313,316.2734 697.0313,315.8828 Q697.0313,315.5078 697.2969,315.2734 Q697.5625,315.0391 698.1719,315.0391 L700.4531,315.0391 Q701.0625,315.0391 701.3281,315.2734 Q701.5938,315.5078 701.5938,315.8828 Q701.5938,316.3516 701.1875,316.6172 Q701,316.7422 700.4063,316.7422 L696.9219,325.1016 L695.2813,325.1016 L691.7969,316.7422 Q691.2031,316.7422 691.0156,316.6172 Q690.6094,316.3516 690.6094,315.8828 Q690.6094,315.5078 690.875,315.2734 Q691.1406,315.0391 691.75,315.0391 L694.0469,315.0391 Q694.6563,315.0391 694.9063,315.2734 Q695.1719,315.5078 695.1719,315.8828 Q695.1719,316.2734 694.9063,316.5078 Q694.6563,316.7422 694.0469,316.7422 L693.6406,316.7422 L696.0938,322.6172 Z " fill="#000000"/><text fill="#000000" font-family="sans-serif" font-size="12" font-style="italic" lengthAdjust="spacing" textLength="81" x="707.5" y="315.457">«value object»</text><text fill="#000000" font-family="sans-serif" font-size="14" lengthAdjust="spacing" textLength="30" x="733" y="332.627">Tare</text><line style="stroke:#181818;stroke-width:0.5;" x1="681.5" x2="788.5" y1="340.7031" y2="340.7031"/></g><!--MD5=[f6a23ce3a300b49f1448f5d1d44095f1]
class Capacity--><g id="elem_Capacity"><rect codeLine="45" fill="#F5F5DC" height="50.7031" id="Capacity" rx="2.5" ry="2.5" style="stroke:#181818;stroke-width:0.5;" width="109" x="824.5" y="298"/><ellipse cx="839.5" cy="319.3516" fill="#FF8B40" rx="11" ry="11" style="stroke:#181818;stroke-width:1.0;"/><path d="M840.0938,322.6172 L842.5625,316.7422 L842.1719,316.7422 Q841.5625,316.7422 841.2969,316.5078 Q841.0313,316.2734 841.0313,315.8828 Q841.0313,315.5078 841.2969,315.2734 Q841.5625,315.0391 842.1719,315.0391 L844.4531,315.0391 Q845.0625,315.0391 845.3281,315.2734 Q845.5938,315.5078 845.5938,315.8828 Q845.5938,316.3516 845.1875,316.6172 Q845,316.7422 844.4063,316.7422 L840.9219,325.1016 L839.2813,325.1016 L835.7969,316.7422 Q835.2031,316.7422 835.0156,316.6172 Q834.6094,316.3516 834.6094,315.8828 Q834.6094,315.5078 834.875,315.2734 Q835.1406,315.0391 835.75,315.0391 L838.0469,315.0391 Q838.6563,315.0391 838.9063,315.2734 Q839.1719,315.5078 839.1719,315.8828 Q839.1719,316.2734 838.9063,316.5078 Q838.6563,316.7422 838.0469,316.7422 L837.6406,316.7422 L840.0938,322.6172 Z " fill="#000000"/><text fill="#000000" font-family="sans-serif" font-size="12" font-style="italic" lengthAdjust="spacing" textLength="81" x="851.5" y="315.457">«value object»</text><text fill="#000000" font-family="sans-serif" font-size="14" lengthAdjust="spacing" textLength="55" x="864.5" y="332.627">Capacity</text><line style="stroke:#181818;stroke-width:0.5;" x1="825.5" x2="932.5" y1="340.7031" y2="340.7031"/></g><!--MD5=[2a3409c6df6971d1d90229c9ee7ddb82]
class MaximumBatteryCapacity--><g id="elem_MaximumBatteryCapacity"><rect codeLine="46" fill="#F5F5DC" height="50.7031" id="MaximumBatteryCapacity" rx="2.5" ry="2.5" style="stroke:#181818;stroke-width:0.5;" width="190" x="969" y="298"/><ellipse cx="984" cy="319.3516" fill="#FF8B40" rx="11" ry="11" style="stroke:#181818;stroke-width:1.0;"/><path d="M984.5938,322.6172 L987.0625,316.7422 L986.6719,316.7422 Q986.0625,316.7422 985.7969,316.5078 Q985.5313,316.2734 985.5313,315.8828 Q985.5313,315.5078 985.7969,315.2734 Q986.0625,315.0391 986.6719,315.0391 L988.9531,315.0391 Q989.5625,315.0391 989.8281,315.2734 Q990.0938,315.5078 990.0938,315.8828 Q990.0938,316.3516 989.6875,316.6172 Q989.5,316.7422 988.9063,316.7422 L985.4219,325.1016 L983.7813,325.1016 L980.2969,316.7422 Q979.7031,316.7422 979.5156,316.6172 Q979.1094,316.3516 979.1094,315.8828 Q979.1094,315.5078 979.375,315.2734 Q979.6406,315.0391 980.25,315.0391 L982.5469,315.0391 Q983.1563,315.0391 983.4063,315.2734 Q983.6719,315.5078 983.6719,315.8828 Q983.6719,316.2734 983.4063,316.5078 Q983.1563,316.7422 982.5469,316.7422 L982.1406,316.7422 L984.5938,322.6172 Z " fill="#000000"/><text fill="#000000" font-family="sans-serif" font-size="12" font-style="italic" lengthAdjust="spacing" textLength="81" x="1036.5" y="315.457">«value object»</text><text fill="#000000" font-family="sans-serif" font-size="14" lengthAdjust="spacing" textLength="158" x="998" y="332.627">MaximumBatteryCapacity</text><line style="stroke:#181818;stroke-width:0.5;" x1="970" x2="1158" y1="340.7031" y2="340.7031"/></g><!--MD5=[b2ffe6464b620e310f115679b4550325]
class Autonomy--><g id="elem_Autonomy"><rect codeLine="47" fill="#F5F5DC" height="50.7031" id="Autonomy" rx="2.5" ry="2.5" style="stroke:#181818;stroke-width:0.5;" width="109" x="1194.5" y="298"/><ellipse cx="1209.5" cy="319.3516" fill="#FF8B40" rx="11" ry="11" style="stroke:#181818;stroke-width:1.0;"/><path d="M1210.0938,322.6172 L1212.5625,316.7422 L1212.1719,316.7422 Q1211.5625,316.7422 1211.2969,316.5078 Q1211.0313,316.2734 1211.0313,315.8828 Q1211.0313,315.5078 1211.2969,315.2734 Q1211.5625,315.0391 1212.1719,315.0391 L1214.4531,315.0391 Q1215.0625,315.0391 1215.3281,315.2734 Q1215.5938,315.5078 1215.5938,315.8828 Q1215.5938,316.3516 1215.1875,316.6172 Q1215,316.7422 1214.4063,316.7422 L1210.9219,325.1016 L1209.2813,325.1016 L1205.7969,316.7422 Q1205.2031,316.7422 1205.0156,316.6172 Q1204.6094,316.3516 1204.6094,315.8828 Q1204.6094,315.5078 1204.875,315.2734 Q1205.1406,315.0391 1205.75,315.0391 L1208.0469,315.0391 Q1208.6563,315.0391 1208.9063,315.2734 Q1209.1719,315.5078 1209.1719,315.8828 Q1209.1719,316.2734 1208.9063,316.5078 Q1208.6563,316.7422 1208.0469,316.7422 L1207.6406,316.7422 L1210.0938,322.6172 Z " fill="#000000"/><text fill="#000000" font-family="sans-serif" font-size="12" font-style="italic" lengthAdjust="spacing" textLength="81" x="1221.5" y="315.457">«value object»</text><text fill="#000000" font-family="sans-serif" font-size="14" lengthAdjust="spacing" textLength="63" x="1230.5" y="332.627">Autonomy</text><line style="stroke:#181818;stroke-width:0.5;" x1="1195.5" x2="1302.5" y1="340.7031" y2="340.7031"/></g><!--MD5=[497f8a81fab373b5d50e161fd534cef1]
class FastChargeTime--><g id="elem_FastChargeTime"><rect codeLine="48" fill="#F5F5DC" height="50.7031" id="FastChargeTime" rx="2.5" ry="2.5" style="stroke:#181818;stroke-width:0.5;" width="138" x="1339" y="298"/><ellipse cx="1354" cy="319.3516" fill="#FF8B40" rx="11" ry="11" style="stroke:#181818;stroke-width:1.0;"/><path d="M1354.5938,322.6172 L1357.0625,316.7422 L1356.6719,316.7422 Q1356.0625,316.7422 1355.7969,316.5078 Q1355.5313,316.2734 1355.5313,315.8828 Q1355.5313,315.5078 1355.7969,315.2734 Q1356.0625,315.0391 1356.6719,315.0391 L1358.9531,315.0391 Q1359.5625,315.0391 1359.8281,315.2734 Q1360.0938,315.5078 1360.0938,315.8828 Q1360.0938,316.3516 1359.6875,316.6172 Q1359.5,316.7422 1358.9063,316.7422 L1355.4219,325.1016 L1353.7813,325.1016 L1350.2969,316.7422 Q1349.7031,316.7422 1349.5156,316.6172 Q1349.1094,316.3516 1349.1094,315.8828 Q1349.1094,315.5078 1349.375,315.2734 Q1349.6406,315.0391 1350.25,315.0391 L1352.5469,315.0391 Q1353.1563,315.0391 1353.4063,315.2734 Q1353.6719,315.5078 1353.6719,315.8828 Q1353.6719,316.2734 1353.4063,316.5078 Q1353.1563,316.7422 1352.5469,316.7422 L1352.1406,316.7422 L1354.5938,322.6172 Z " fill="#000000"/><text fill="#000000" font-family="sans-serif" font-size="12" font-style="italic" lengthAdjust="spacing" textLength="81" x="1380.5" y="315.457">«value object»</text><text fill="#000000" font-family="sans-serif" font-size="14" lengthAdjust="spacing" textLength="106" x="1368" y="332.627">FastChargeTime</text><line style="stroke:#181818;stroke-width:0.5;" x1="1340" x2="1476" y1="340.7031" y2="340.7031"/></g><!--MD5=[9e30bc0d07b954d9511b75c221f93fa0]
link DeliveryPlan to Delivery--><g id="link_DeliveryPlan_Delivery"><path codeLine="50" d="M588.72,108.22 C561.1,130.86 524.52,160.86 498.13,182.51 " fill="none" id="DeliveryPlan-to-Delivery" style="stroke:#222222;stroke-width:1.0;"/><polygon fill="#222222" points="493.98,185.91,503.477,183.301,497.8479,182.7415,498.4074,177.1124,493.98,185.91" style="stroke:#222222;stroke-width:1.0;"/><text fill="#000000" font-family="sans-serif" font-size="13" lengthAdjust="spacing" textLength="78" x="551" y="152.4951">composed by</text><text fill="#000000" font-family="sans-serif" font-size="13" lengthAdjust="spacing" textLength="20" x="478.8501" y="175.2966">1..*</text></g><!--MD5=[2993afe1754ba26a4c064f211341f5fa]
link DeliveryPlan to Truck--><g id="link_DeliveryPlan_Truck"><path codeLine="51" d="M683.87,97.91 C753.07,125.04 869.26,170.61 930.47,194.61 " fill="none" id="DeliveryPlan-to-Truck" style="stroke:#222222;stroke-width:1.0;"/><polygon fill="#222222" points="935.14,196.44,928.2059,189.4459,930.4811,194.625,925.3019,196.9002,935.14,196.44" style="stroke:#222222;stroke-width:1.0;"/><text fill="#000000" font-family="sans-serif" font-size="13" lengthAdjust="spacing" textLength="90" x="831" y="152.4951">associated with</text><text fill="#000000" font-family="sans-serif" font-size="13" lengthAdjust="spacing" textLength="22" x="691.6018" y="97.1612">0..1</text><text fill="#000000" font-family="sans-serif" font-size="13" lengthAdjust="spacing" textLength="7" x="920.391" y="189.459">1</text></g><!--MD5=[de7cab7e0a14e8137bfe130b812cb64d]
link Delivery to DeliveryDate--><g id="link_Delivery_DeliveryDate"><path codeLine="54" d="M505.56,211.5 C515.4,211.5 525.23,211.5 535.07,211.5 " fill="none" id="Delivery-to-DeliveryDate" style="stroke:#222222;stroke-width:1.0;"/><polygon fill="#222222" points="540.21,211.5,531.21,207.5,535.21,211.5,531.21,215.5,540.21,211.5" style="stroke:#222222;stroke-width:1.0;"/><text fill="#000000" font-family="sans-serif" font-size="13" lengthAdjust="spacing" textLength="7" x="525.4853" y="208.0117">1</text></g><!--MD5=[ae360636ad3bb53ec8568595fe6787c3]
link Delivery to DeliveryIndentifier--><g id="link_Delivery_DeliveryIndentifier"><path codeLine="55" d="M422.39,224.9 C361.89,242.94 248.59,276.71 172.46,299.41 " fill="none" id="Delivery-to-DeliveryIndentifier" style="stroke:#222222;stroke-width:1.0;"/><polygon fill="#222222" points="167.5,300.89,177.2671,302.1565,172.2923,299.4637,174.9851,294.4889,167.5,300.89" style="stroke:#222222;stroke-width:1.0;"/><text fill="#000000" font-family="sans-serif" font-size="13" lengthAdjust="spacing" textLength="7" x="175.3375" y="295.2619">1</text></g><!--MD5=[b3ffb707517fb1b081127e1c6ff27c4c]
link Delivery to DeliveryMass--><g id="link_Delivery_DeliveryMass"><path codeLine="56" d="M422.43,235.03 C390.13,252.53 345.2,276.87 310.95,295.44 " fill="none" id="Delivery-to-DeliveryMass" style="stroke:#222222;stroke-width:1.0;"/><polygon fill="#222222" points="306.4,297.9,316.2184,297.1265,310.7955,295.5167,312.4052,290.0938,306.4,297.9" style="stroke:#222222;stroke-width:1.0;"/><text fill="#000000" font-family="sans-serif" font-size="13" lengthAdjust="spacing" textLength="7" x="309.6131" y="287.2841">1</text></g><!--MD5=[e609cd58dd77647f3c3731c0f86c3b9c]
link Delivery to Destination--><g id="link_Delivery_Destination"><path codeLine="57" d="M451.66,237.19 C443.38,253.75 432.43,275.64 423.7,293.1 " fill="none" id="Delivery-to-Destination" style="stroke:#222222;stroke-width:1.0;"/><polygon fill="#222222" points="421.3,297.9,428.9106,291.6487,423.5418,293.4307,421.7598,288.0619,421.3,297.9" style="stroke:#222222;stroke-width:1.0;"/><text fill="#000000" font-family="sans-serif" font-size="13" lengthAdjust="spacing" textLength="7" x="416.445" y="287.2841">1</text></g><!--MD5=[ce05569784bc561b49fc23afabe7a012]
link Delivery to LoadTime--><g id="link_Delivery_LoadTime"><path codeLine="58" d="M483.97,237.19 C497.6,254.03 515.69,276.39 529.93,293.99 " fill="none" id="Delivery-to-LoadTime" style="stroke:#222222;stroke-width:1.0;"/><polygon fill="#222222" points="533.09,297.9,530.5402,288.3869,529.9457,294.0124,524.3201,293.4179,533.09,297.9" style="stroke:#222222;stroke-width:1.0;"/><text fill="#000000" font-family="sans-serif" font-size="13" lengthAdjust="spacing" textLength="7" x="520.3838" y="287.2841">1</text></g><!--MD5=[a1c836083592c41185929bf1857a85cc]
link Delivery to DownloadTime--><g id="link_Delivery_DownloadTime"><path codeLine="59" d="M505.67,229.45 C548.23,247.63 610.12,276.74 625,298 C646.95,329.38 648.88,374.87 647.25,404.57 " fill="none" id="Delivery-to-DownloadTime" style="stroke:#222222;stroke-width:1.0;"/><polygon fill="#222222" points="646.9,409.92,651.4583,401.1895,647.2146,404.9299,643.4741,400.6862,646.9,409.92" style="stroke:#222222;stroke-width:1.0;"/><text fill="#000000" font-family="sans-serif" font-size="13" lengthAdjust="spacing" textLength="7" x="639.7538" y="399.309">1</text></g><!--MD5=[d2e49ee8f205cadc7bdc347b4a3591ac]
link Truck to Tare--><g id="link_Truck_Tare"><path codeLine="61" d="M935.41,229.09 C897.57,246.73 837.13,274.9 792.51,295.69 " fill="none" id="Truck-to-Tare" style="stroke:#222222;stroke-width:1.0;"/><polygon fill="#222222" points="787.97,297.81,797.8172,297.6271,792.5006,295.6948,794.4328,290.3782,787.97,297.81" style="stroke:#222222;stroke-width:1.0;"/><text fill="#000000" font-family="sans-serif" font-size="13" lengthAdjust="spacing" textLength="7" x="793.0283" y="287.1722">1</text></g><!--MD5=[e854a048fc879ecdb8c690b8d25dc5f6]
link Truck to Capacity--><g id="link_Truck_Capacity"><path codeLine="62" d="M950.35,237.19 C936.27,254.03 917.57,276.39 902.85,293.99 " fill="none" id="Truck-to-Capacity" style="stroke:#222222;stroke-width:1.0;"/><polygon fill="#222222" points="899.58,297.9,908.413,293.5435,902.7795,294.0577,902.2653,288.4243,899.58,297.9" style="stroke:#222222;stroke-width:1.0;"/><text fill="#000000" font-family="sans-serif" font-size="13" lengthAdjust="spacing" textLength="7" x="896.7433" y="287.2841">1</text></g><!--MD5=[b86734464f4014d459383a3272448c64]
link Truck to MaximumBatteryCapacity--><g id="link_Truck_MaximumBatteryCapacity"><path codeLine="63" d="M991.87,237.19 C1006.11,254.03 1025.01,276.39 1039.89,293.99 " fill="none" id="Truck-to-MaximumBatteryCapacity" style="stroke:#222222;stroke-width:1.0;"/><polygon fill="#222222" points="1043.2,297.9,1040.4559,288.4411,1039.9767,294.0777,1034.3402,293.5984,1043.2,297.9" style="stroke:#222222;stroke-width:1.0;"/><text fill="#000000" font-family="sans-serif" font-size="13" lengthAdjust="spacing" textLength="7" x="1030.2769" y="287.2841">1</text></g><!--MD5=[700c761c5be81b9344a4cb04ea6dc39b]
link Truck to Autonomy--><g id="link_Truck_Autonomy"><path codeLine="64" d="M1006.77,226.66 C1052.97,244.93 1134,277 1189.53,298.97 " fill="none" id="Truck-to-Autonomy" style="stroke:#222222;stroke-width:1.0;"/><polygon fill="#222222" points="1194.48,300.93,1187.5832,293.8991,1189.8308,299.0903,1184.6396,301.3379,1194.48,300.93" style="stroke:#222222;stroke-width:1.0;"/><text fill="#000000" font-family="sans-serif" font-size="13" lengthAdjust="spacing" textLength="7" x="1179.3209" y="294.1718">1</text></g><!--MD5=[b33eab119b079972d29036f635413610]
link Truck to FastChargeTime--><g id="link_Truck_FastChargeTime"><path codeLine="65" d="M1006.63,220.77 C1070.02,235.58 1206.51,267.91 1321,298 C1325.14,299.09 1329.4,300.23 1333.68,301.39 " fill="none" id="Truck-to-FastChargeTime" style="stroke:#222222;stroke-width:1.0;"/><polygon fill="#222222" points="1338.73,302.76,1331.1012,296.531,1333.9065,301.4432,1328.9943,304.2486,1338.73,302.76" style="stroke:#222222;stroke-width:1.0;"/><text fill="#000000" font-family="sans-serif" font-size="13" lengthAdjust="spacing" textLength="7" x="1324.2256" y="297.3247">1</text></g><!--MD5=[30dd3fa33c5cad698850b69d9e6cfcee]
@startuml DMLogistics

skinparam classAttributeIconSize 0
hide empty attributes
skinparam classBackgroundColor beige
skinparam ArrowColor #222222

package "<<aggregate>> Logistics"{
    entity DeliveryPlan
    entity Delivery 
    entity Truck 
    class DeliveryIndentifier
    class DeliveryDate
    class DeliveryMass
    class Destination
    class LoadTime
    class DownloadTime
    class Tare
    class Capacity
    class MaximumBatteryCapacity
    class Autonomy
    class FastChargeTime

}

entity DeliveryPlan <<entity>> <<Root>>{

}

entity Delivery <<entity>>{
  
}

class DeliveryIndentifier <<(V,#FF8B40) value object>>
class DeliveryDate <<(V,#FF8B40) value object>>
class DeliveryMass <<(V,#FF8B40) value object>>
class Destination <<(V,#FF8B40) value object>>
class LoadTime <<(V,#FF8B40) value object>>
class DownloadTime <<(V,#FF8B40) value object>>


entity Truck <<entity>>{

}
class Tare <<(V,#FF8B40) value object>>
class Capacity <<(V,#FF8B40) value object>>
class MaximumBatteryCapacity <<(V,#FF8B40) value object>>
class Autonomy <<(V,#FF8B40) value object>>
class FastChargeTime <<(V,#FF8B40) value object>>

DeliveryPlan - -> "1..*" Delivery : composed by 
DeliveryPlan "0..1"- -> "1" Truck : associated with 


Delivery ->"1" DeliveryDate
Delivery - -> "1" DeliveryIndentifier
Delivery - -> "1" DeliveryMass
Delivery - -> "1" Destination
Delivery - -> "1" LoadTime
Delivery - - ->"1" DownloadTime

Truck - -> "1" Tare
Truck - -> "1" Capacity 
Truck - -> "1" MaximumBatteryCapacity
Truck - -> "1" Autonomy
Truck - -> "1" FastChargeTime

@enduml

PlantUML version 1.2022.7(Mon Aug 22 18:01:30 WEST 2022)
(GPL source distribution)
Java Runtime: Java(TM) SE Runtime Environment
JVM: Java HotSpot(TM) 64-Bit Server VM
Default Encoding: Cp1252
Language: en
Country: GB
--></g></svg>