<?xml version="1.0" encoding="UTF-8" standalone="no"?><svg xmlns="http://www.w3.org/2000/svg" xmlns:xlink="http://www.w3.org/1999/xlink" contentStyleType="text/css" height="307px" preserveAspectRatio="none" style="width:654px;height:307px;background:#FFFFFF;" version="1.1" viewBox="0 0 654 307" width="654px" zoomAndPan="magnify"><defs/><g><!--MD5=[fd2c6941327600dfcb9810e16d42f054]
cluster <<aggregate>> Planning--><g id="cluster_&lt;&lt;aggregate&gt;&gt; Planning"><path d="M8.5,6 L178.5,6 A3.75,3.75 0 0 1 181,8.5 L188,29.6094 L433.5,29.6094 A2.5,2.5 0 0 1 436,32.1094 L436,290 A2.5,2.5 0 0 1 433.5,292.5 L8.5,292.5 A2.5,2.5 0 0 1 6,290 L6,8.5 A2.5,2.5 0 0 1 8.5,6 " fill="none" style="stroke:#000000;stroke-width:1.5;"/><line style="stroke:#000000;stroke-width:1.5;" x1="6" x2="188" y1="29.6094" y2="29.6094"/><text fill="#000000" font-family="sans-serif" font-size="14" font-weight="bold" lengthAdjust="spacing" textLength="169" x="10" y="22.5332">&lt;&lt;aggregate&gt;&gt; Planning</text></g><!--MD5=[058ee174e53f4d5e43b0ff6bb9b97aa3]
cluster <<aggregate>> Logistics--><g id="cluster_&lt;&lt;aggregate&gt;&gt; Logistics"><path d="M462.5,182 L634.5,182 A3.75,3.75 0 0 1 637,184.5 L644,205.6094 L644.5,205.6094 A2.5,2.5 0 0 1 647,208.1094 L647,297.5 A2.5,2.5 0 0 1 644.5,300 L462.5,300 A2.5,2.5 0 0 1 460,297.5 L460,184.5 A2.5,2.5 0 0 1 462.5,182 " fill="none" style="stroke:#000000;stroke-width:1.5;"/><line style="stroke:#000000;stroke-width:1.5;" x1="460" x2="644" y1="205.6094" y2="205.6094"/><text fill="#000000" font-family="sans-serif" font-size="14" font-weight="bold" lengthAdjust="spacing" textLength="171" x="464" y="198.5332">&lt;&lt;aggregate&gt;&gt; Logistics</text></g><!--MD5=[fc92a9f5bb5fae84dd7fa4034e6b4444]
class Route--><g id="elem_Route"><rect codeLine="23" fill="#F5F5DC" height="65.7969" id="Route" rx="2.5" ry="2.5" style="stroke:#181818;stroke-width:0.5;" width="71" x="348.5" y="47"/><ellipse cx="363.5" cy="75.8984" fill="#ADD1B2" rx="11" ry="11" style="stroke:#181818;stroke-width:1.0;"/><path d="M362.3594,76.6953 L362.3594,79.1953 L366.6875,79.1953 L366.6875,78.2734 Q366.6875,77.6641 366.9219,77.3984 Q367.1719,77.1328 367.5469,77.1328 Q367.9219,77.1328 368.1563,77.3984 Q368.3906,77.6641 368.3906,78.2734 L368.3906,80.8984 L360.3906,80.8984 Q359.7656,80.8984 359.5,80.6641 Q359.25,80.4297 359.25,80.0391 Q359.25,79.6641 359.5156,79.4297 Q359.7813,79.1953 360.3906,79.1953 L360.6563,79.1953 L360.6563,72.5391 L360.3906,72.5391 Q359.7656,72.5391 359.5,72.3047 Q359.25,72.0703 359.25,71.6797 Q359.25,71.3047 359.5,71.0703 Q359.7656,70.8359 360.3906,70.8359 L368.0156,70.8359 L368.0156,73.4297 Q368.0156,74.0391 367.7813,74.3047 Q367.5625,74.5547 367.1719,74.5547 Q366.7969,74.5547 366.5625,74.3047 Q366.3281,74.0391 366.3281,73.4297 L366.3281,72.5391 L362.3594,72.5391 L362.3594,74.9922 L363.8438,74.9922 Q363.8438,74.3359 363.9688,74.1484 Q364.2344,73.7422 364.7031,73.7422 Q365.0781,73.7422 365.3125,74.0078 Q365.5469,74.2578 365.5469,74.8672 L365.5469,76.8359 Q365.5469,77.3828 365.4219,77.5703 Q365.1563,77.9609 364.7031,77.9609 Q364.2344,77.9609 363.9688,77.5547 Q363.8438,77.3672 363.8438,76.6953 L362.3594,76.6953 Z " fill="#000000"/><text fill="#000000" font-family="sans-serif" font-size="12" font-style="italic" lengthAdjust="spacing" textLength="43" x="375.5" y="64.457">«entity»</text><text fill="#000000" font-family="sans-serif" font-size="12" font-style="italic" lengthAdjust="spacing" textLength="35" x="379.5" y="79.5508">«root»</text><text fill="#000000" font-family="sans-serif" font-size="14" lengthAdjust="spacing" textLength="38" x="378" y="96.7207">Route</text><line style="stroke:#181818;stroke-width:0.5;" x1="349.5" x2="418.5" y1="104.7969" y2="104.7969"/></g><!--MD5=[7ca803bc4fdfed48b4fe860ad95890cb]
class Trail--><g id="elem_Trail"><rect codeLine="27" fill="#F5F5DC" height="76.3125" id="Trail" rx="2.5" ry="2.5" style="stroke:#181818;stroke-width:0.5;" width="74" x="164" y="42"/><ellipse cx="180.35" cy="63.3516" fill="#ADD1B2" rx="11" ry="11" style="stroke:#181818;stroke-width:1.0;"/><path d="M179.2094,64.1484 L179.2094,66.6484 L183.5375,66.6484 L183.5375,65.7266 Q183.5375,65.1172 183.7719,64.8516 Q184.0219,64.5859 184.3969,64.5859 Q184.7719,64.5859 185.0063,64.8516 Q185.2406,65.1172 185.2406,65.7266 L185.2406,68.3516 L177.2406,68.3516 Q176.6156,68.3516 176.35,68.1172 Q176.1,67.8828 176.1,67.4922 Q176.1,67.1172 176.3656,66.8828 Q176.6313,66.6484 177.2406,66.6484 L177.5063,66.6484 L177.5063,59.9922 L177.2406,59.9922 Q176.6156,59.9922 176.35,59.7578 Q176.1,59.5234 176.1,59.1328 Q176.1,58.7578 176.35,58.5234 Q176.6156,58.2891 177.2406,58.2891 L184.8656,58.2891 L184.8656,60.8828 Q184.8656,61.4922 184.6313,61.7578 Q184.4125,62.0078 184.0219,62.0078 Q183.6469,62.0078 183.4125,61.7578 Q183.1781,61.4922 183.1781,60.8828 L183.1781,59.9922 L179.2094,59.9922 L179.2094,62.4453 L180.6938,62.4453 Q180.6938,61.7891 180.8188,61.6016 Q181.0844,61.1953 181.5531,61.1953 Q181.9281,61.1953 182.1625,61.4609 Q182.3969,61.7109 182.3969,62.3203 L182.3969,64.2891 Q182.3969,64.8359 182.2719,65.0234 Q182.0063,65.4141 181.5531,65.4141 Q181.0844,65.4141 180.8188,65.0078 Q180.6938,64.8203 180.6938,64.1484 L179.2094,64.1484 Z " fill="#000000"/><text fill="#000000" font-family="sans-serif" font-size="12" font-style="italic" lengthAdjust="spacing" textLength="43" x="192.65" y="59.457">«entity»</text><text fill="#000000" font-family="sans-serif" font-size="14" lengthAdjust="spacing" textLength="28" x="200.15" y="76.627">Trail</text><line style="stroke:#181818;stroke-width:0.5;" x1="165" x2="237" y1="84.7031" y2="84.7031"/><text fill="#000000" font-family="sans-serif" font-size="14" lengthAdjust="spacing" textLength="62" x="170" y="103.2363">-Available</text><line style="stroke:#181818;stroke-width:0.5;" x1="165" x2="237" y1="110.3125" y2="110.3125"/></g><!--MD5=[c58354b9fb5ca7036c9572f89adb08db]
class InitialPoint--><g id="elem_InitialPoint"><rect codeLine="31" fill="#F5F5DC" height="50.7031" id="InitialPoint" rx="2.5" ry="2.5" style="stroke:#181818;stroke-width:0.5;" width="109" x="310.5" y="225.5"/><ellipse cx="325.5" cy="246.8516" fill="#FF8B40" rx="11" ry="11" style="stroke:#181818;stroke-width:1.0;"/><path d="M326.0938,250.1172 L328.5625,244.2422 L328.1719,244.2422 Q327.5625,244.2422 327.2969,244.0078 Q327.0313,243.7734 327.0313,243.3828 Q327.0313,243.0078 327.2969,242.7734 Q327.5625,242.5391 328.1719,242.5391 L330.4531,242.5391 Q331.0625,242.5391 331.3281,242.7734 Q331.5938,243.0078 331.5938,243.3828 Q331.5938,243.8516 331.1875,244.1172 Q331,244.2422 330.4063,244.2422 L326.9219,252.6016 L325.2813,252.6016 L321.7969,244.2422 Q321.2031,244.2422 321.0156,244.1172 Q320.6094,243.8516 320.6094,243.3828 Q320.6094,243.0078 320.875,242.7734 Q321.1406,242.5391 321.75,242.5391 L324.0469,242.5391 Q324.6563,242.5391 324.9063,242.7734 Q325.1719,243.0078 325.1719,243.3828 Q325.1719,243.7734 324.9063,244.0078 Q324.6563,244.2422 324.0469,244.2422 L323.6406,244.2422 L326.0938,250.1172 Z " fill="#000000"/><text fill="#000000" font-family="sans-serif" font-size="12" font-style="italic" lengthAdjust="spacing" textLength="81" x="337.5" y="242.957">«value object»</text><text fill="#000000" font-family="sans-serif" font-size="14" lengthAdjust="spacing" textLength="64" x="346" y="260.127">InitialPoint</text><line style="stroke:#181818;stroke-width:0.5;" x1="311.5" x2="418.5" y1="268.2031" y2="268.2031"/></g><!--MD5=[bb6a7d41caf3e6d4a3a160c8924815d5]
class EndPoint--><g id="elem_EndPoint"><rect codeLine="32" fill="#F5F5DC" height="50.7031" id="EndPoint" rx="2.5" ry="2.5" style="stroke:#181818;stroke-width:0.5;" width="109" x="22.5" y="225.5"/><ellipse cx="37.5" cy="246.8516" fill="#FF8B40" rx="11" ry="11" style="stroke:#181818;stroke-width:1.0;"/><path d="M38.0938,250.1172 L40.5625,244.2422 L40.1719,244.2422 Q39.5625,244.2422 39.2969,244.0078 Q39.0313,243.7734 39.0313,243.3828 Q39.0313,243.0078 39.2969,242.7734 Q39.5625,242.5391 40.1719,242.5391 L42.4531,242.5391 Q43.0625,242.5391 43.3281,242.7734 Q43.5938,243.0078 43.5938,243.3828 Q43.5938,243.8516 43.1875,244.1172 Q43,244.2422 42.4063,244.2422 L38.9219,252.6016 L37.2813,252.6016 L33.7969,244.2422 Q33.2031,244.2422 33.0156,244.1172 Q32.6094,243.8516 32.6094,243.3828 Q32.6094,243.0078 32.875,242.7734 Q33.1406,242.5391 33.75,242.5391 L36.0469,242.5391 Q36.6563,242.5391 36.9063,242.7734 Q37.1719,243.0078 37.1719,243.3828 Q37.1719,243.7734 36.9063,244.0078 Q36.6563,244.2422 36.0469,244.2422 L35.6406,244.2422 L38.0938,250.1172 Z " fill="#000000"/><text fill="#000000" font-family="sans-serif" font-size="12" font-style="italic" lengthAdjust="spacing" textLength="81" x="49.5" y="242.957">«value object»</text><text fill="#000000" font-family="sans-serif" font-size="14" lengthAdjust="spacing" textLength="57" x="61.5" y="260.127">EndPoint</text><line style="stroke:#181818;stroke-width:0.5;" x1="23.5" x2="130.5" y1="268.2031" y2="268.2031"/></g><!--MD5=[cc15daeb8b4e6bacf34831777829d2c1]
class Distance--><g id="elem_Distance"><rect codeLine="33" fill="#F5F5DC" height="50.7031" id="Distance" rx="2.5" ry="2.5" style="stroke:#181818;stroke-width:0.5;" width="109" x="166.5" y="225.5"/><ellipse cx="181.5" cy="246.8516" fill="#FF8B40" rx="11" ry="11" style="stroke:#181818;stroke-width:1.0;"/><path d="M182.0938,250.1172 L184.5625,244.2422 L184.1719,244.2422 Q183.5625,244.2422 183.2969,244.0078 Q183.0313,243.7734 183.0313,243.3828 Q183.0313,243.0078 183.2969,242.7734 Q183.5625,242.5391 184.1719,242.5391 L186.4531,242.5391 Q187.0625,242.5391 187.3281,242.7734 Q187.5938,243.0078 187.5938,243.3828 Q187.5938,243.8516 187.1875,244.1172 Q187,244.2422 186.4063,244.2422 L182.9219,252.6016 L181.2813,252.6016 L177.7969,244.2422 Q177.2031,244.2422 177.0156,244.1172 Q176.6094,243.8516 176.6094,243.3828 Q176.6094,243.0078 176.875,242.7734 Q177.1406,242.5391 177.75,242.5391 L180.0469,242.5391 Q180.6563,242.5391 180.9063,242.7734 Q181.1719,243.0078 181.1719,243.3828 Q181.1719,243.7734 180.9063,244.0078 Q180.6563,244.2422 180.0469,244.2422 L179.6406,244.2422 L182.0938,250.1172 Z " fill="#000000"/><text fill="#000000" font-family="sans-serif" font-size="12" font-style="italic" lengthAdjust="spacing" textLength="81" x="193.5" y="242.957">«value object»</text><text fill="#000000" font-family="sans-serif" font-size="14" lengthAdjust="spacing" textLength="55" x="206.5" y="260.127">Distance</text><line style="stroke:#181818;stroke-width:0.5;" x1="167.5" x2="274.5" y1="268.2031" y2="268.2031"/></g><!--MD5=[6013b76828f9e37bf607739d3a6706d0]
class DeliveryPlan--><g id="elem_DeliveryPlan"><rect codeLine="19" fill="#F5F5DC" height="65.7969" id="DeliveryPlan" rx="2.5" ry="2.5" style="stroke:#181818;stroke-width:0.5;" width="111" x="476.5" y="218"/><ellipse cx="491.5" cy="246.8984" fill="#ADD1B2" rx="11" ry="11" style="stroke:#181818;stroke-width:1.0;"/><path d="M490.3594,247.6953 L490.3594,250.1953 L494.6875,250.1953 L494.6875,249.2734 Q494.6875,248.6641 494.9219,248.3984 Q495.1719,248.1328 495.5469,248.1328 Q495.9219,248.1328 496.1563,248.3984 Q496.3906,248.6641 496.3906,249.2734 L496.3906,251.8984 L488.3906,251.8984 Q487.7656,251.8984 487.5,251.6641 Q487.25,251.4297 487.25,251.0391 Q487.25,250.6641 487.5156,250.4297 Q487.7813,250.1953 488.3906,250.1953 L488.6563,250.1953 L488.6563,243.5391 L488.3906,243.5391 Q487.7656,243.5391 487.5,243.3047 Q487.25,243.0703 487.25,242.6797 Q487.25,242.3047 487.5,242.0703 Q487.7656,241.8359 488.3906,241.8359 L496.0156,241.8359 L496.0156,244.4297 Q496.0156,245.0391 495.7813,245.3047 Q495.5625,245.5547 495.1719,245.5547 Q494.7969,245.5547 494.5625,245.3047 Q494.3281,245.0391 494.3281,244.4297 L494.3281,243.5391 L490.3594,243.5391 L490.3594,245.9922 L491.8438,245.9922 Q491.8438,245.3359 491.9688,245.1484 Q492.2344,244.7422 492.7031,244.7422 Q493.0781,244.7422 493.3125,245.0078 Q493.5469,245.2578 493.5469,245.8672 L493.5469,247.8359 Q493.5469,248.3828 493.4219,248.5703 Q493.1563,248.9609 492.7031,248.9609 Q492.2344,248.9609 491.9688,248.5547 Q491.8438,248.3672 491.8438,247.6953 L490.3594,247.6953 Z " fill="#000000"/><text fill="#000000" font-family="sans-serif" font-size="12" font-style="italic" lengthAdjust="spacing" textLength="43" x="523.5" y="235.457">«entity»</text><text fill="#000000" font-family="sans-serif" font-size="12" font-style="italic" lengthAdjust="spacing" textLength="40" x="525" y="250.5508">«Root»</text><text fill="#000000" font-family="sans-serif" font-size="14" lengthAdjust="spacing" textLength="79" x="505.5" y="267.7207">DeliveryPlan</text><line style="stroke:#181818;stroke-width:0.5;" x1="477.5" x2="586.5" y1="275.7969" y2="275.7969"/></g><!--MD5=[12ca2643794eeb890221b14aef2d95c0]
link Route to Trail--><g id="link_Route_Trail"><path codeLine="37" d="M348.27,80 C318.1,80 274.86,80 243.04,80 " fill="none" id="Route-to-Trail" style="stroke:#222222;stroke-width:1.0;"/><polygon fill="#222222" points="238.03,80,247.03,84,243.03,80,247.03,76,238.03,80" style="stroke:#222222;stroke-width:1.0;"/><text fill="#000000" font-family="sans-serif" font-size="13" lengthAdjust="spacing" textLength="74" x="256.25" y="73.4951">is composed</text><text fill="#000000" font-family="sans-serif" font-size="13" lengthAdjust="spacing" textLength="20" x="320.4102" y="94.9178">1..*</text><text fill="#000000" font-family="sans-serif" font-size="13" lengthAdjust="spacing" textLength="20" x="246.1133" y="94.8735">1..*</text></g><!--MD5=[8f9d023e308bfb9eeffcb71979428fbd]
reverse link Route to DeliveryPlan--><g id="link_Route_DeliveryPlan"><path codeLine="38" d="M415.65,117.14 C441.86,147.07 478.75,189.19 503.92,217.93 " fill="none" id="Route-backto-DeliveryPlan" style="stroke:#222222;stroke-width:1.0;"/><polygon fill="#222222" points="412.19,113.19,415.1062,122.5972,415.4825,116.9529,421.1268,117.3292,412.19,113.19" style="stroke:#222222;stroke-width:1.0;"/><text fill="#000000" font-family="sans-serif" font-size="13" lengthAdjust="spacing" textLength="39" x="459" y="162.4951">follows</text><text fill="#000000" font-family="sans-serif" font-size="13" lengthAdjust="spacing" textLength="7" x="409.7422" y="134.3307">1</text><text fill="#000000" font-family="sans-serif" font-size="13" lengthAdjust="spacing" textLength="7" x="490.4066" y="207.0116">1</text></g><!--MD5=[4b3eb65436f642cfdf973a2b35b292fa]
link Trail to InitialPoint--><g id="link_Trail_InitialPoint"><path codeLine="40" d="M238.34,118.38 C255.13,135.28 275.15,155.56 293,174 C308.02,189.52 324.61,207 338.08,221.29 " fill="none" id="Trail-to-InitialPoint" style="stroke:#222222;stroke-width:1.0;"/><polygon fill="#222222" points="341.79,225.23,338.5163,215.9411,338.356,221.5957,332.7015,221.4355,341.79,225.23" style="stroke:#222222;stroke-width:1.0;"/><text fill="#000000" font-family="sans-serif" font-size="13" lengthAdjust="spacing" textLength="7" x="328.2794" y="214.5727">1</text></g><!--MD5=[be520ba5fd2f898e5d82731710bd7f18]
link Trail to EndPoint--><g id="link_Trail_EndPoint"><path codeLine="41" d="M173.79,118.09 C151.02,149.11 119.01,192.74 98.14,221.19 " fill="none" id="Trail-to-EndPoint" style="stroke:#222222;stroke-width:1.0;"/><polygon fill="#222222" points="95.14,225.28,103.6901,220.3918,98.0987,221.2493,97.2411,215.6579,95.14,225.28" style="stroke:#222222;stroke-width:1.0;"/><text fill="#000000" font-family="sans-serif" font-size="13" lengthAdjust="spacing" textLength="7" x="91.7085" y="214.6349">1</text></g><!--MD5=[45e4607de6420fcd0ccfa6cfe5321cb9]
link Trail to Distance--><g id="link_Trail_Distance"><path codeLine="42" d="M205.39,118.09 C209.02,148.73 214.1,191.67 217.47,220.14 " fill="none" id="Trail-to-Distance" style="stroke:#222222;stroke-width:1.0;"/><polygon fill="#222222" points="218.07,225.28,220.9596,215.8646,217.4692,220.3162,213.0175,216.8259,218.07,225.28" style="stroke:#222222;stroke-width:1.0;"/><text fill="#000000" font-family="sans-serif" font-size="13" lengthAdjust="spacing" textLength="7" x="209.5027" y="214.6349">1</text></g><!--MD5=[d8efe406e9bd4929bfbba32585e38568]
@startuml 
skinparam classAttributeIconSize 0
hide empty attributes
skinparam classBackgroundColor beige
skinparam ArrowColor #222222

package "<<aggregate>> Planning"{
    entity Route
    entity Trail
    class InitialPoint
    class EndPoint
    class Distance
}

package "<<aggregate>> Logistics"{
    entity DeliveryPlan

}

entity DeliveryPlan <<entity>> <<Root>>{

}

entity Route <<entity>> <<root>>{

}

entity Trail <<entity>> {
    -Available
}

class InitialPoint <<(V,#FF8B40) value object>>
class EndPoint <<(V,#FF8B40) value object>>
class Distance <<(V,#FF8B40) value object>>



Route "1..*" -> "1..*" Trail : is composed 
Route "1" <- - "1" DeliveryPlan : follows     

Trail - -> "1" InitialPoint
Trail - -> "1" EndPoint
Trail - -> "1" Distance
@enduml

PlantUML version 1.2022.7(Mon Aug 22 18:01:30 WEST 2022)
(GPL source distribution)
Java Runtime: Java(TM) SE Runtime Environment
JVM: Java HotSpot(TM) 64-Bit Server VM
Default Encoding: Cp1252
Language: en
Country: GB
--></g></svg>