<?xml version="1.0" encoding="UTF-8" standalone="no"?><svg xmlns="http://www.w3.org/2000/svg" xmlns:xlink="http://www.w3.org/1999/xlink" contentStyleType="text/css" height="620px" preserveAspectRatio="none" style="width:1502px;height:620px;background:#FFFFFF;" version="1.1" viewBox="0 0 1502 620" width="1502px" zoomAndPan="magnify"><defs/><g><!--MD5=[b8d5ee1f547cc751e8cba8f63e6aaaf8]
cluster <<aggregate>> WarehouseManagement--><g id="cluster_&lt;&lt;aggregate&gt;&gt; WarehouseManagement"><path d="M8.5,6 L288.5,6 A3.75,3.75 0 0 1 291,8.5 L298,29.6094 L1492.5,29.6094 A2.5,2.5 0 0 1 1495,32.1094 L1495,362.5 A2.5,2.5 0 0 1 1492.5,365 L8.5,365 A2.5,2.5 0 0 1 6,362.5 L6,8.5 A2.5,2.5 0 0 1 8.5,6 " fill="none" style="stroke:#000000;stroke-width:1.5;"/><line style="stroke:#000000;stroke-width:1.5;" x1="6" x2="298" y1="29.6094" y2="29.6094"/><text fill="#000000" font-family="sans-serif" font-size="14" font-weight="bold" lengthAdjust="spacing" textLength="279" x="10" y="22.5332">&lt;&lt;aggregate&gt;&gt; WarehouseManagement</text></g><!--MD5=[058ee174e53f4d5e43b0ff6bb9b97aa3]
cluster <<aggregate>> Logistics--><g id="cluster_&lt;&lt;aggregate&gt;&gt; Logistics"><path d="M17.5,398 L189.5,398 A3.75,3.75 0 0 1 192,400.5 L199,421.6094 L841.5,421.6094 A2.5,2.5 0 0 1 844,424.1094 L844,610.5 A2.5,2.5 0 0 1 841.5,613 L17.5,613 A2.5,2.5 0 0 1 15,610.5 L15,400.5 A2.5,2.5 0 0 1 17.5,398 " fill="none" style="stroke:#000000;stroke-width:1.5;"/><line style="stroke:#000000;stroke-width:1.5;" x1="15" x2="199" y1="421.6094" y2="421.6094"/><text fill="#000000" font-family="sans-serif" font-size="14" font-weight="bold" lengthAdjust="spacing" textLength="171" x="19" y="414.5332">&lt;&lt;aggregate&gt;&gt; Logistics</text></g><!--MD5=[c5149b4909ffd2688ff51a939867f774]
class Warehouse--><g id="elem_Warehouse"><rect codeLine="33" fill="#F5F5DC" height="65.7969" id="Warehouse" rx="2.5" ry="2.5" style="stroke:#181818;stroke-width:0.5;" width="105" x="635.5" y="42"/><ellipse cx="650.5" cy="70.8984" fill="#ADD1B2" rx="11" ry="11" style="stroke:#181818;stroke-width:1.0;"/><path d="M649.3594,71.6953 L649.3594,74.1953 L653.6875,74.1953 L653.6875,73.2734 Q653.6875,72.6641 653.9219,72.3984 Q654.1719,72.1328 654.5469,72.1328 Q654.9219,72.1328 655.1563,72.3984 Q655.3906,72.6641 655.3906,73.2734 L655.3906,75.8984 L647.3906,75.8984 Q646.7656,75.8984 646.5,75.6641 Q646.25,75.4297 646.25,75.0391 Q646.25,74.6641 646.5156,74.4297 Q646.7813,74.1953 647.3906,74.1953 L647.6563,74.1953 L647.6563,67.5391 L647.3906,67.5391 Q646.7656,67.5391 646.5,67.3047 Q646.25,67.0703 646.25,66.6797 Q646.25,66.3047 646.5,66.0703 Q646.7656,65.8359 647.3906,65.8359 L655.0156,65.8359 L655.0156,68.4297 Q655.0156,69.0391 654.7813,69.3047 Q654.5625,69.5547 654.1719,69.5547 Q653.7969,69.5547 653.5625,69.3047 Q653.3281,69.0391 653.3281,68.4297 L653.3281,67.5391 L649.3594,67.5391 L649.3594,69.9922 L650.8438,69.9922 Q650.8438,69.3359 650.9688,69.1484 Q651.2344,68.7422 651.7031,68.7422 Q652.0781,68.7422 652.3125,69.0078 Q652.5469,69.2578 652.5469,69.8672 L652.5469,71.8359 Q652.5469,72.3828 652.4219,72.5703 Q652.1563,72.9609 651.7031,72.9609 Q651.2344,72.9609 650.9688,72.5547 Q650.8438,72.3672 650.8438,71.6953 L649.3594,71.6953 Z " fill="#000000"/><text fill="#000000" font-family="sans-serif" font-size="12" font-style="italic" lengthAdjust="spacing" textLength="43" x="679.5" y="59.457">«entity»</text><text fill="#000000" font-family="sans-serif" font-size="12" font-style="italic" lengthAdjust="spacing" textLength="40" x="681" y="74.5508">«Root»</text><text fill="#000000" font-family="sans-serif" font-size="14" lengthAdjust="spacing" textLength="73" x="664.5" y="91.7207">Warehouse</text><line style="stroke:#181818;stroke-width:0.5;" x1="636.5" x2="739.5" y1="99.7969" y2="99.7969"/></g><!--MD5=[b4d3d50c0abf08df45181fececb9f04d]
class Store--><g id="elem_Store"><rect codeLine="40" fill="#F5F5DC" height="50.7031" id="Store" rx="2.5" ry="2.5" style="stroke:#181818;stroke-width:0.5;" width="71" x="1225.5" y="49.5"/><ellipse cx="1240.5" cy="70.8516" fill="#ADD1B2" rx="11" ry="11" style="stroke:#181818;stroke-width:1.0;"/><path d="M1239.3594,71.6484 L1239.3594,74.1484 L1243.6875,74.1484 L1243.6875,73.2266 Q1243.6875,72.6172 1243.9219,72.3516 Q1244.1719,72.0859 1244.5469,72.0859 Q1244.9219,72.0859 1245.1563,72.3516 Q1245.3906,72.6172 1245.3906,73.2266 L1245.3906,75.8516 L1237.3906,75.8516 Q1236.7656,75.8516 1236.5,75.6172 Q1236.25,75.3828 1236.25,74.9922 Q1236.25,74.6172 1236.5156,74.3828 Q1236.7813,74.1484 1237.3906,74.1484 L1237.6563,74.1484 L1237.6563,67.4922 L1237.3906,67.4922 Q1236.7656,67.4922 1236.5,67.2578 Q1236.25,67.0234 1236.25,66.6328 Q1236.25,66.2578 1236.5,66.0234 Q1236.7656,65.7891 1237.3906,65.7891 L1245.0156,65.7891 L1245.0156,68.3828 Q1245.0156,68.9922 1244.7813,69.2578 Q1244.5625,69.5078 1244.1719,69.5078 Q1243.7969,69.5078 1243.5625,69.2578 Q1243.3281,68.9922 1243.3281,68.3828 L1243.3281,67.4922 L1239.3594,67.4922 L1239.3594,69.9453 L1240.8438,69.9453 Q1240.8438,69.2891 1240.9688,69.1016 Q1241.2344,68.6953 1241.7031,68.6953 Q1242.0781,68.6953 1242.3125,68.9609 Q1242.5469,69.2109 1242.5469,69.8203 L1242.5469,71.7891 Q1242.5469,72.3359 1242.4219,72.5234 Q1242.1563,72.9141 1241.7031,72.9141 Q1241.2344,72.9141 1240.9688,72.5078 Q1240.8438,72.3203 1240.8438,71.6484 L1239.3594,71.6484 Z " fill="#000000"/><text fill="#000000" font-family="sans-serif" font-size="12" font-style="italic" lengthAdjust="spacing" textLength="43" x="1252.5" y="66.957">«entity»</text><text fill="#000000" font-family="sans-serif" font-size="14" lengthAdjust="spacing" textLength="34" x="1257" y="84.127">Store</text><line style="stroke:#181818;stroke-width:0.5;" x1="1226.5" x2="1295.5" y1="92.2031" y2="92.2031"/></g><!--MD5=[7ca35fa42fdd2584ef5892c05d53c42e]
class ChargingStation--><g id="elem_ChargingStation"><rect codeLine="44" fill="#F5F5DC" height="50.7031" id="ChargingStation" rx="2.5" ry="2.5" style="stroke:#181818;stroke-width:0.5;" width="134" x="22" y="186"/><ellipse cx="37" cy="207.3516" fill="#ADD1B2" rx="11" ry="11" style="stroke:#181818;stroke-width:1.0;"/><path d="M35.8594,208.1484 L35.8594,210.6484 L40.1875,210.6484 L40.1875,209.7266 Q40.1875,209.1172 40.4219,208.8516 Q40.6719,208.5859 41.0469,208.5859 Q41.4219,208.5859 41.6563,208.8516 Q41.8906,209.1172 41.8906,209.7266 L41.8906,212.3516 L33.8906,212.3516 Q33.2656,212.3516 33,212.1172 Q32.75,211.8828 32.75,211.4922 Q32.75,211.1172 33.0156,210.8828 Q33.2813,210.6484 33.8906,210.6484 L34.1563,210.6484 L34.1563,203.9922 L33.8906,203.9922 Q33.2656,203.9922 33,203.7578 Q32.75,203.5234 32.75,203.1328 Q32.75,202.7578 33,202.5234 Q33.2656,202.2891 33.8906,202.2891 L41.5156,202.2891 L41.5156,204.8828 Q41.5156,205.4922 41.2813,205.7578 Q41.0625,206.0078 40.6719,206.0078 Q40.2969,206.0078 40.0625,205.7578 Q39.8281,205.4922 39.8281,204.8828 L39.8281,203.9922 L35.8594,203.9922 L35.8594,206.4453 L37.3438,206.4453 Q37.3438,205.7891 37.4688,205.6016 Q37.7344,205.1953 38.2031,205.1953 Q38.5781,205.1953 38.8125,205.4609 Q39.0469,205.7109 39.0469,206.3203 L39.0469,208.2891 Q39.0469,208.8359 38.9219,209.0234 Q38.6563,209.4141 38.2031,209.4141 Q37.7344,209.4141 37.4688,209.0078 Q37.3438,208.8203 37.3438,208.1484 L35.8594,208.1484 Z " fill="#000000"/><text fill="#000000" font-family="sans-serif" font-size="12" font-style="italic" lengthAdjust="spacing" textLength="43" x="80.5" y="203.457">«entity»</text><text fill="#000000" font-family="sans-serif" font-size="14" lengthAdjust="spacing" textLength="102" x="51" y="220.627">ChargingStation</text><line style="stroke:#181818;stroke-width:0.5;" x1="23" x2="155" y1="228.7031" y2="228.7031"/></g><!--MD5=[a81e698ada9b821103f36bc5d49e376e]
class WarehouseIndentifier--><g id="elem_WarehouseIndentifier"><rect codeLine="34" fill="#F5F5DC" height="50.7031" id="WarehouseIndentifier" rx="2.5" ry="2.5" style="stroke:#181818;stroke-width:0.5;" width="167" x="191.5" y="186"/><ellipse cx="206.5" cy="207.3516" fill="#FF8B40" rx="11" ry="11" style="stroke:#181818;stroke-width:1.0;"/><path d="M207.0938,210.6172 L209.5625,204.7422 L209.1719,204.7422 Q208.5625,204.7422 208.2969,204.5078 Q208.0313,204.2734 208.0313,203.8828 Q208.0313,203.5078 208.2969,203.2734 Q208.5625,203.0391 209.1719,203.0391 L211.4531,203.0391 Q212.0625,203.0391 212.3281,203.2734 Q212.5938,203.5078 212.5938,203.8828 Q212.5938,204.3516 212.1875,204.6172 Q212,204.7422 211.4063,204.7422 L207.9219,213.1016 L206.2813,213.1016 L202.7969,204.7422 Q202.2031,204.7422 202.0156,204.6172 Q201.6094,204.3516 201.6094,203.8828 Q201.6094,203.5078 201.875,203.2734 Q202.1406,203.0391 202.75,203.0391 L205.0469,203.0391 Q205.6563,203.0391 205.9063,203.2734 Q206.1719,203.5078 206.1719,203.8828 Q206.1719,204.2734 205.9063,204.5078 Q205.6563,204.7422 205.0469,204.7422 L204.6406,204.7422 L207.0938,210.6172 Z " fill="#000000"/><text fill="#000000" font-family="sans-serif" font-size="12" font-style="italic" lengthAdjust="spacing" textLength="81" x="247.5" y="203.457">«value object»</text><text fill="#000000" font-family="sans-serif" font-size="14" lengthAdjust="spacing" textLength="135" x="220.5" y="220.627">WarehouseIndentifier</text><line style="stroke:#181818;stroke-width:0.5;" x1="192.5" x2="357.5" y1="228.7031" y2="228.7031"/></g><!--MD5=[210cbcca56bc29863c9dfa6d2a050332]
class WarehouseDesignation--><g id="elem_WarehouseDesignation"><rect codeLine="35" fill="#F5F5DC" height="50.7031" id="WarehouseDesignation" rx="2.5" ry="2.5" style="stroke:#181818;stroke-width:0.5;" width="180" x="394" y="186"/><ellipse cx="409" cy="207.3516" fill="#FF8B40" rx="11" ry="11" style="stroke:#181818;stroke-width:1.0;"/><path d="M409.5938,210.6172 L412.0625,204.7422 L411.6719,204.7422 Q411.0625,204.7422 410.7969,204.5078 Q410.5313,204.2734 410.5313,203.8828 Q410.5313,203.5078 410.7969,203.2734 Q411.0625,203.0391 411.6719,203.0391 L413.9531,203.0391 Q414.5625,203.0391 414.8281,203.2734 Q415.0938,203.5078 415.0938,203.8828 Q415.0938,204.3516 414.6875,204.6172 Q414.5,204.7422 413.9063,204.7422 L410.4219,213.1016 L408.7813,213.1016 L405.2969,204.7422 Q404.7031,204.7422 404.5156,204.6172 Q404.1094,204.3516 404.1094,203.8828 Q404.1094,203.5078 404.375,203.2734 Q404.6406,203.0391 405.25,203.0391 L407.5469,203.0391 Q408.1563,203.0391 408.4063,203.2734 Q408.6719,203.5078 408.6719,203.8828 Q408.6719,204.2734 408.4063,204.5078 Q408.1563,204.7422 407.5469,204.7422 L407.1406,204.7422 L409.5938,210.6172 Z " fill="#000000"/><text fill="#000000" font-family="sans-serif" font-size="12" font-style="italic" lengthAdjust="spacing" textLength="81" x="456.5" y="203.457">«value object»</text><text fill="#000000" font-family="sans-serif" font-size="14" lengthAdjust="spacing" textLength="148" x="423" y="220.627">WarehouseDesignation</text><line style="stroke:#181818;stroke-width:0.5;" x1="395" x2="573" y1="228.7031" y2="228.7031"/></g><!--MD5=[3ba557464ddf1e7ecaf9fea7de27626b]
class WarehouseAddress--><g id="elem_WarehouseAddress"><rect codeLine="36" fill="#F5F5DC" height="50.7031" id="WarehouseAddress" rx="2.5" ry="2.5" style="stroke:#181818;stroke-width:0.5;" width="157" x="609.5" y="186"/><ellipse cx="624.5" cy="207.3516" fill="#FF8B40" rx="11" ry="11" style="stroke:#181818;stroke-width:1.0;"/><path d="M625.0938,210.6172 L627.5625,204.7422 L627.1719,204.7422 Q626.5625,204.7422 626.2969,204.5078 Q626.0313,204.2734 626.0313,203.8828 Q626.0313,203.5078 626.2969,203.2734 Q626.5625,203.0391 627.1719,203.0391 L629.4531,203.0391 Q630.0625,203.0391 630.3281,203.2734 Q630.5938,203.5078 630.5938,203.8828 Q630.5938,204.3516 630.1875,204.6172 Q630,204.7422 629.4063,204.7422 L625.9219,213.1016 L624.2813,213.1016 L620.7969,204.7422 Q620.2031,204.7422 620.0156,204.6172 Q619.6094,204.3516 619.6094,203.8828 Q619.6094,203.5078 619.875,203.2734 Q620.1406,203.0391 620.75,203.0391 L623.0469,203.0391 Q623.6563,203.0391 623.9063,203.2734 Q624.1719,203.5078 624.1719,203.8828 Q624.1719,204.2734 623.9063,204.5078 Q623.6563,204.7422 623.0469,204.7422 L622.6406,204.7422 L625.0938,210.6172 Z " fill="#000000"/><text fill="#000000" font-family="sans-serif" font-size="12" font-style="italic" lengthAdjust="spacing" textLength="81" x="660.5" y="203.457">«value object»</text><text fill="#000000" font-family="sans-serif" font-size="14" lengthAdjust="spacing" textLength="125" x="638.5" y="220.627">WarehouseAddress</text><line style="stroke:#181818;stroke-width:0.5;" x1="610.5" x2="765.5" y1="228.7031" y2="228.7031"/></g><!--MD5=[2ba209925a3aa0f479d78f4b6938c260]
class WarehouseCoordinates--><g id="elem_WarehouseCoordinates"><rect codeLine="37" fill="#F5F5DC" height="50.7031" id="WarehouseCoordinates" rx="2.5" ry="2.5" style="stroke:#181818;stroke-width:0.5;" width="182" x="802" y="186"/><ellipse cx="817" cy="207.3516" fill="#FF8B40" rx="11" ry="11" style="stroke:#181818;stroke-width:1.0;"/><path d="M817.5938,210.6172 L820.0625,204.7422 L819.6719,204.7422 Q819.0625,204.7422 818.7969,204.5078 Q818.5313,204.2734 818.5313,203.8828 Q818.5313,203.5078 818.7969,203.2734 Q819.0625,203.0391 819.6719,203.0391 L821.9531,203.0391 Q822.5625,203.0391 822.8281,203.2734 Q823.0938,203.5078 823.0938,203.8828 Q823.0938,204.3516 822.6875,204.6172 Q822.5,204.7422 821.9063,204.7422 L818.4219,213.1016 L816.7813,213.1016 L813.2969,204.7422 Q812.7031,204.7422 812.5156,204.6172 Q812.1094,204.3516 812.1094,203.8828 Q812.1094,203.5078 812.375,203.2734 Q812.6406,203.0391 813.25,203.0391 L815.5469,203.0391 Q816.1563,203.0391 816.4063,203.2734 Q816.6719,203.5078 816.6719,203.8828 Q816.6719,204.2734 816.4063,204.5078 Q816.1563,204.7422 815.5469,204.7422 L815.1406,204.7422 L817.5938,210.6172 Z " fill="#000000"/><text fill="#000000" font-family="sans-serif" font-size="12" font-style="italic" lengthAdjust="spacing" textLength="81" x="865.5" y="203.457">«value object»</text><text fill="#000000" font-family="sans-serif" font-size="14" lengthAdjust="spacing" textLength="150" x="831" y="220.627">WarehouseCoordinates</text><line style="stroke:#181818;stroke-width:0.5;" x1="803" x2="983" y1="228.7031" y2="228.7031"/></g><!--MD5=[7c19c5caca2eede466ce38ae980bae3f]
class StoreName--><g id="elem_StoreName"><rect codeLine="41" fill="#F5F5DC" height="50.7031" id="StoreName" rx="2.5" ry="2.5" style="stroke:#181818;stroke-width:0.5;" width="109" x="1206.5" y="186"/><ellipse cx="1221.5" cy="207.3516" fill="#FF8B40" rx="11" ry="11" style="stroke:#181818;stroke-width:1.0;"/><path d="M1222.0938,210.6172 L1224.5625,204.7422 L1224.1719,204.7422 Q1223.5625,204.7422 1223.2969,204.5078 Q1223.0313,204.2734 1223.0313,203.8828 Q1223.0313,203.5078 1223.2969,203.2734 Q1223.5625,203.0391 1224.1719,203.0391 L1226.4531,203.0391 Q1227.0625,203.0391 1227.3281,203.2734 Q1227.5938,203.5078 1227.5938,203.8828 Q1227.5938,204.3516 1227.1875,204.6172 Q1227,204.7422 1226.4063,204.7422 L1222.9219,213.1016 L1221.2813,213.1016 L1217.7969,204.7422 Q1217.2031,204.7422 1217.0156,204.6172 Q1216.6094,204.3516 1216.6094,203.8828 Q1216.6094,203.5078 1216.875,203.2734 Q1217.1406,203.0391 1217.75,203.0391 L1220.0469,203.0391 Q1220.6563,203.0391 1220.9063,203.2734 Q1221.1719,203.5078 1221.1719,203.8828 Q1221.1719,204.2734 1220.9063,204.5078 Q1220.6563,204.7422 1220.0469,204.7422 L1219.6406,204.7422 L1222.0938,210.6172 Z " fill="#000000"/><text fill="#000000" font-family="sans-serif" font-size="12" font-style="italic" lengthAdjust="spacing" textLength="81" x="1233.5" y="203.457">«value object»</text><text fill="#000000" font-family="sans-serif" font-size="14" lengthAdjust="spacing" textLength="70" x="1239" y="220.627">StoreName</text><line style="stroke:#181818;stroke-width:0.5;" x1="1207.5" x2="1314.5" y1="228.7031" y2="228.7031"/></g><!--MD5=[ff108ccad0f59c84530b9f5be2d99533]
class StoreIndentifier--><g id="elem_StoreIndentifier"><rect codeLine="42" fill="#F5F5DC" height="50.7031" id="StoreIndentifier" rx="2.5" ry="2.5" style="stroke:#181818;stroke-width:0.5;" width="128" x="1351" y="186"/><ellipse cx="1366" cy="207.3516" fill="#FF8B40" rx="11" ry="11" style="stroke:#181818;stroke-width:1.0;"/><path d="M1366.5938,210.6172 L1369.0625,204.7422 L1368.6719,204.7422 Q1368.0625,204.7422 1367.7969,204.5078 Q1367.5313,204.2734 1367.5313,203.8828 Q1367.5313,203.5078 1367.7969,203.2734 Q1368.0625,203.0391 1368.6719,203.0391 L1370.9531,203.0391 Q1371.5625,203.0391 1371.8281,203.2734 Q1372.0938,203.5078 1372.0938,203.8828 Q1372.0938,204.3516 1371.6875,204.6172 Q1371.5,204.7422 1370.9063,204.7422 L1367.4219,213.1016 L1365.7813,213.1016 L1362.2969,204.7422 Q1361.7031,204.7422 1361.5156,204.6172 Q1361.1094,204.3516 1361.1094,203.8828 Q1361.1094,203.5078 1361.375,203.2734 Q1361.6406,203.0391 1362.25,203.0391 L1364.5469,203.0391 Q1365.1563,203.0391 1365.4063,203.2734 Q1365.6719,203.5078 1365.6719,203.8828 Q1365.6719,204.2734 1365.4063,204.5078 Q1365.1563,204.7422 1364.5469,204.7422 L1364.1406,204.7422 L1366.5938,210.6172 Z " fill="#000000"/><text fill="#000000" font-family="sans-serif" font-size="12" font-style="italic" lengthAdjust="spacing" textLength="81" x="1387.5" y="203.457">«value object»</text><text fill="#000000" font-family="sans-serif" font-size="14" lengthAdjust="spacing" textLength="96" x="1380" y="220.627">StoreIndentifier</text><line style="stroke:#181818;stroke-width:0.5;" x1="1352" x2="1478" y1="228.7031" y2="228.7031"/></g><!--MD5=[b450bbf24faa48c33f8e81045f209469]
class CurrentOccupation--><g id="elem_CurrentOccupation"><rect codeLine="45" fill="#F5F5DC" height="50.7031" id="CurrentOccupation" rx="2.5" ry="2.5" style="stroke:#181818;stroke-width:0.5;" width="152" x="22" y="298"/><ellipse cx="37" cy="319.3516" fill="#FF8B40" rx="11" ry="11" style="stroke:#181818;stroke-width:1.0;"/><path d="M37.5938,322.6172 L40.0625,316.7422 L39.6719,316.7422 Q39.0625,316.7422 38.7969,316.5078 Q38.5313,316.2734 38.5313,315.8828 Q38.5313,315.5078 38.7969,315.2734 Q39.0625,315.0391 39.6719,315.0391 L41.9531,315.0391 Q42.5625,315.0391 42.8281,315.2734 Q43.0938,315.5078 43.0938,315.8828 Q43.0938,316.3516 42.6875,316.6172 Q42.5,316.7422 41.9063,316.7422 L38.4219,325.1016 L36.7813,325.1016 L33.2969,316.7422 Q32.7031,316.7422 32.5156,316.6172 Q32.1094,316.3516 32.1094,315.8828 Q32.1094,315.5078 32.375,315.2734 Q32.6406,315.0391 33.25,315.0391 L35.5469,315.0391 Q36.1563,315.0391 36.4063,315.2734 Q36.6719,315.5078 36.6719,315.8828 Q36.6719,316.2734 36.4063,316.5078 Q36.1563,316.7422 35.5469,316.7422 L35.1406,316.7422 L37.5938,322.6172 Z " fill="#000000"/><text fill="#000000" font-family="sans-serif" font-size="12" font-style="italic" lengthAdjust="spacing" textLength="81" x="70.5" y="315.457">«value object»</text><text fill="#000000" font-family="sans-serif" font-size="14" lengthAdjust="spacing" textLength="120" x="51" y="332.627">CurrentOccupation</text><line style="stroke:#181818;stroke-width:0.5;" x1="23" x2="173" y1="340.7031" y2="340.7031"/></g><!--MD5=[252edd71a4be5f43065b911bb900d8ae]
class TotalOccupation--><g id="elem_TotalOccupation"><rect codeLine="46" fill="#F5F5DC" height="50.7031" id="TotalOccupation" rx="2.5" ry="2.5" style="stroke:#181818;stroke-width:0.5;" width="136" x="209" y="298"/><ellipse cx="224" cy="319.3516" fill="#FF8B40" rx="11" ry="11" style="stroke:#181818;stroke-width:1.0;"/><path d="M224.5938,322.6172 L227.0625,316.7422 L226.6719,316.7422 Q226.0625,316.7422 225.7969,316.5078 Q225.5313,316.2734 225.5313,315.8828 Q225.5313,315.5078 225.7969,315.2734 Q226.0625,315.0391 226.6719,315.0391 L228.9531,315.0391 Q229.5625,315.0391 229.8281,315.2734 Q230.0938,315.5078 230.0938,315.8828 Q230.0938,316.3516 229.6875,316.6172 Q229.5,316.7422 228.9063,316.7422 L225.4219,325.1016 L223.7813,325.1016 L220.2969,316.7422 Q219.7031,316.7422 219.5156,316.6172 Q219.1094,316.3516 219.1094,315.8828 Q219.1094,315.5078 219.375,315.2734 Q219.6406,315.0391 220.25,315.0391 L222.5469,315.0391 Q223.1563,315.0391 223.4063,315.2734 Q223.6719,315.5078 223.6719,315.8828 Q223.6719,316.2734 223.4063,316.5078 Q223.1563,316.7422 222.5469,316.7422 L222.1406,316.7422 L224.5938,322.6172 Z " fill="#000000"/><text fill="#000000" font-family="sans-serif" font-size="12" font-style="italic" lengthAdjust="spacing" textLength="81" x="249.5" y="315.457">«value object»</text><text fill="#000000" font-family="sans-serif" font-size="14" lengthAdjust="spacing" textLength="104" x="238" y="332.627">TotalOccupation</text><line style="stroke:#181818;stroke-width:0.5;" x1="210" x2="344" y1="340.7031" y2="340.7031"/></g><!--MD5=[a68699f6f85ad614fd0386eaab93618a]
class WarehouseAltitude--><g id="elem_WarehouseAltitude"><rect codeLine="38" fill="#F5F5DC" height="50.7031" id="WarehouseAltitude" rx="2.5" ry="2.5" style="stroke:#181818;stroke-width:0.5;" width="152" x="1019" y="186"/><ellipse cx="1034" cy="207.3516" fill="#FF8B40" rx="11" ry="11" style="stroke:#181818;stroke-width:1.0;"/><path d="M1034.5938,210.6172 L1037.0625,204.7422 L1036.6719,204.7422 Q1036.0625,204.7422 1035.7969,204.5078 Q1035.5313,204.2734 1035.5313,203.8828 Q1035.5313,203.5078 1035.7969,203.2734 Q1036.0625,203.0391 1036.6719,203.0391 L1038.9531,203.0391 Q1039.5625,203.0391 1039.8281,203.2734 Q1040.0938,203.5078 1040.0938,203.8828 Q1040.0938,204.3516 1039.6875,204.6172 Q1039.5,204.7422 1038.9063,204.7422 L1035.4219,213.1016 L1033.7813,213.1016 L1030.2969,204.7422 Q1029.7031,204.7422 1029.5156,204.6172 Q1029.1094,204.3516 1029.1094,203.8828 Q1029.1094,203.5078 1029.375,203.2734 Q1029.6406,203.0391 1030.25,203.0391 L1032.5469,203.0391 Q1033.1563,203.0391 1033.4063,203.2734 Q1033.6719,203.5078 1033.6719,203.8828 Q1033.6719,204.2734 1033.4063,204.5078 Q1033.1563,204.7422 1032.5469,204.7422 L1032.1406,204.7422 L1034.5938,210.6172 Z " fill="#000000"/><text fill="#000000" font-family="sans-serif" font-size="12" font-style="italic" lengthAdjust="spacing" textLength="81" x="1067.5" y="203.457">«value object»</text><text fill="#000000" font-family="sans-serif" font-size="14" lengthAdjust="spacing" textLength="120" x="1048" y="220.627">WarehouseAltitude</text><line style="stroke:#181818;stroke-width:0.5;" x1="1020" x2="1170" y1="228.7031" y2="228.7031"/></g><!--MD5=[f2ba7f6ab60af8dd0d3e354f91729b14]
class Truck--><g id="elem_Truck"><rect codeLine="48" fill="#F5F5DC" height="50.7031" id="Truck" rx="2.5" ry="2.5" style="stroke:#181818;stroke-width:0.5;" width="71" x="379.5" y="434"/><ellipse cx="394.5" cy="455.3516" fill="#ADD1B2" rx="11" ry="11" style="stroke:#181818;stroke-width:1.0;"/><path d="M393.3594,456.1484 L393.3594,458.6484 L397.6875,458.6484 L397.6875,457.7266 Q397.6875,457.1172 397.9219,456.8516 Q398.1719,456.5859 398.5469,456.5859 Q398.9219,456.5859 399.1563,456.8516 Q399.3906,457.1172 399.3906,457.7266 L399.3906,460.3516 L391.3906,460.3516 Q390.7656,460.3516 390.5,460.1172 Q390.25,459.8828 390.25,459.4922 Q390.25,459.1172 390.5156,458.8828 Q390.7813,458.6484 391.3906,458.6484 L391.6563,458.6484 L391.6563,451.9922 L391.3906,451.9922 Q390.7656,451.9922 390.5,451.7578 Q390.25,451.5234 390.25,451.1328 Q390.25,450.7578 390.5,450.5234 Q390.7656,450.2891 391.3906,450.2891 L399.0156,450.2891 L399.0156,452.8828 Q399.0156,453.4922 398.7813,453.7578 Q398.5625,454.0078 398.1719,454.0078 Q397.7969,454.0078 397.5625,453.7578 Q397.3281,453.4922 397.3281,452.8828 L397.3281,451.9922 L393.3594,451.9922 L393.3594,454.4453 L394.8438,454.4453 Q394.8438,453.7891 394.9688,453.6016 Q395.2344,453.1953 395.7031,453.1953 Q396.0781,453.1953 396.3125,453.4609 Q396.5469,453.7109 396.5469,454.3203 L396.5469,456.2891 Q396.5469,456.8359 396.4219,457.0234 Q396.1563,457.4141 395.7031,457.4141 Q395.2344,457.4141 394.9688,457.0078 Q394.8438,456.8203 394.8438,456.1484 L393.3594,456.1484 Z " fill="#000000"/><text fill="#000000" font-family="sans-serif" font-size="12" font-style="italic" lengthAdjust="spacing" textLength="43" x="406.5" y="451.457">«entity»</text><text fill="#000000" font-family="sans-serif" font-size="14" lengthAdjust="spacing" textLength="36" x="410" y="468.627">Truck</text><line style="stroke:#181818;stroke-width:0.5;" x1="380.5" x2="449.5" y1="476.7031" y2="476.7031"/></g><!--MD5=[cd7f37554007b9f11101944b457a48b1]
class Tare--><g id="elem_Tare"><rect codeLine="49" fill="#F5F5DC" height="50.7031" id="Tare" rx="2.5" ry="2.5" style="stroke:#181818;stroke-width:0.5;" width="109" x="31.5" y="546"/><ellipse cx="46.5" cy="567.3516" fill="#FF8B40" rx="11" ry="11" style="stroke:#181818;stroke-width:1.0;"/><path d="M47.0938,570.6172 L49.5625,564.7422 L49.1719,564.7422 Q48.5625,564.7422 48.2969,564.5078 Q48.0313,564.2734 48.0313,563.8828 Q48.0313,563.5078 48.2969,563.2734 Q48.5625,563.0391 49.1719,563.0391 L51.4531,563.0391 Q52.0625,563.0391 52.3281,563.2734 Q52.5938,563.5078 52.5938,563.8828 Q52.5938,564.3516 52.1875,564.6172 Q52,564.7422 51.4063,564.7422 L47.9219,573.1016 L46.2813,573.1016 L42.7969,564.7422 Q42.2031,564.7422 42.0156,564.6172 Q41.6094,564.3516 41.6094,563.8828 Q41.6094,563.5078 41.875,563.2734 Q42.1406,563.0391 42.75,563.0391 L45.0469,563.0391 Q45.6563,563.0391 45.9063,563.2734 Q46.1719,563.5078 46.1719,563.8828 Q46.1719,564.2734 45.9063,564.5078 Q45.6563,564.7422 45.0469,564.7422 L44.6406,564.7422 L47.0938,570.6172 Z " fill="#000000"/><text fill="#000000" font-family="sans-serif" font-size="12" font-style="italic" lengthAdjust="spacing" textLength="81" x="58.5" y="563.457">«value object»</text><text fill="#000000" font-family="sans-serif" font-size="14" lengthAdjust="spacing" textLength="30" x="84" y="580.627">Tare</text><line style="stroke:#181818;stroke-width:0.5;" x1="32.5" x2="139.5" y1="588.7031" y2="588.7031"/></g><!--MD5=[f6a23ce3a300b49f1448f5d1d44095f1]
class Capacity--><g id="elem_Capacity"><rect codeLine="50" fill="#F5F5DC" height="50.7031" id="Capacity" rx="2.5" ry="2.5" style="stroke:#181818;stroke-width:0.5;" width="109" x="175.5" y="546"/><ellipse cx="190.5" cy="567.3516" fill="#FF8B40" rx="11" ry="11" style="stroke:#181818;stroke-width:1.0;"/><path d="M191.0938,570.6172 L193.5625,564.7422 L193.1719,564.7422 Q192.5625,564.7422 192.2969,564.5078 Q192.0313,564.2734 192.0313,563.8828 Q192.0313,563.5078 192.2969,563.2734 Q192.5625,563.0391 193.1719,563.0391 L195.4531,563.0391 Q196.0625,563.0391 196.3281,563.2734 Q196.5938,563.5078 196.5938,563.8828 Q196.5938,564.3516 196.1875,564.6172 Q196,564.7422 195.4063,564.7422 L191.9219,573.1016 L190.2813,573.1016 L186.7969,564.7422 Q186.2031,564.7422 186.0156,564.6172 Q185.6094,564.3516 185.6094,563.8828 Q185.6094,563.5078 185.875,563.2734 Q186.1406,563.0391 186.75,563.0391 L189.0469,563.0391 Q189.6563,563.0391 189.9063,563.2734 Q190.1719,563.5078 190.1719,563.8828 Q190.1719,564.2734 189.9063,564.5078 Q189.6563,564.7422 189.0469,564.7422 L188.6406,564.7422 L191.0938,570.6172 Z " fill="#000000"/><text fill="#000000" font-family="sans-serif" font-size="12" font-style="italic" lengthAdjust="spacing" textLength="81" x="202.5" y="563.457">«value object»</text><text fill="#000000" font-family="sans-serif" font-size="14" lengthAdjust="spacing" textLength="55" x="215.5" y="580.627">Capacity</text><line style="stroke:#181818;stroke-width:0.5;" x1="176.5" x2="283.5" y1="588.7031" y2="588.7031"/></g><!--MD5=[2a3409c6df6971d1d90229c9ee7ddb82]
class MaximumBatteryCapacity--><g id="elem_MaximumBatteryCapacity"><rect codeLine="51" fill="#F5F5DC" height="50.7031" id="MaximumBatteryCapacity" rx="2.5" ry="2.5" style="stroke:#181818;stroke-width:0.5;" width="190" x="320" y="546"/><ellipse cx="335" cy="567.3516" fill="#FF8B40" rx="11" ry="11" style="stroke:#181818;stroke-width:1.0;"/><path d="M335.5938,570.6172 L338.0625,564.7422 L337.6719,564.7422 Q337.0625,564.7422 336.7969,564.5078 Q336.5313,564.2734 336.5313,563.8828 Q336.5313,563.5078 336.7969,563.2734 Q337.0625,563.0391 337.6719,563.0391 L339.9531,563.0391 Q340.5625,563.0391 340.8281,563.2734 Q341.0938,563.5078 341.0938,563.8828 Q341.0938,564.3516 340.6875,564.6172 Q340.5,564.7422 339.9063,564.7422 L336.4219,573.1016 L334.7813,573.1016 L331.2969,564.7422 Q330.7031,564.7422 330.5156,564.6172 Q330.1094,564.3516 330.1094,563.8828 Q330.1094,563.5078 330.375,563.2734 Q330.6406,563.0391 331.25,563.0391 L333.5469,563.0391 Q334.1563,563.0391 334.4063,563.2734 Q334.6719,563.5078 334.6719,563.8828 Q334.6719,564.2734 334.4063,564.5078 Q334.1563,564.7422 333.5469,564.7422 L333.1406,564.7422 L335.5938,570.6172 Z " fill="#000000"/><text fill="#000000" font-family="sans-serif" font-size="12" font-style="italic" lengthAdjust="spacing" textLength="81" x="387.5" y="563.457">«value object»</text><text fill="#000000" font-family="sans-serif" font-size="14" lengthAdjust="spacing" textLength="158" x="349" y="580.627">MaximumBatteryCapacity</text><line style="stroke:#181818;stroke-width:0.5;" x1="321" x2="509" y1="588.7031" y2="588.7031"/></g><!--MD5=[b2ffe6464b620e310f115679b4550325]
class Autonomy--><g id="elem_Autonomy"><rect codeLine="52" fill="#F5F5DC" height="50.7031" id="Autonomy" rx="2.5" ry="2.5" style="stroke:#181818;stroke-width:0.5;" width="109" x="545.5" y="546"/><ellipse cx="560.5" cy="567.3516" fill="#FF8B40" rx="11" ry="11" style="stroke:#181818;stroke-width:1.0;"/><path d="M561.0938,570.6172 L563.5625,564.7422 L563.1719,564.7422 Q562.5625,564.7422 562.2969,564.5078 Q562.0313,564.2734 562.0313,563.8828 Q562.0313,563.5078 562.2969,563.2734 Q562.5625,563.0391 563.1719,563.0391 L565.4531,563.0391 Q566.0625,563.0391 566.3281,563.2734 Q566.5938,563.5078 566.5938,563.8828 Q566.5938,564.3516 566.1875,564.6172 Q566,564.7422 565.4063,564.7422 L561.9219,573.1016 L560.2813,573.1016 L556.7969,564.7422 Q556.2031,564.7422 556.0156,564.6172 Q555.6094,564.3516 555.6094,563.8828 Q555.6094,563.5078 555.875,563.2734 Q556.1406,563.0391 556.75,563.0391 L559.0469,563.0391 Q559.6563,563.0391 559.9063,563.2734 Q560.1719,563.5078 560.1719,563.8828 Q560.1719,564.2734 559.9063,564.5078 Q559.6563,564.7422 559.0469,564.7422 L558.6406,564.7422 L561.0938,570.6172 Z " fill="#000000"/><text fill="#000000" font-family="sans-serif" font-size="12" font-style="italic" lengthAdjust="spacing" textLength="81" x="572.5" y="563.457">«value object»</text><text fill="#000000" font-family="sans-serif" font-size="14" lengthAdjust="spacing" textLength="63" x="581.5" y="580.627">Autonomy</text><line style="stroke:#181818;stroke-width:0.5;" x1="546.5" x2="653.5" y1="588.7031" y2="588.7031"/></g><!--MD5=[497f8a81fab373b5d50e161fd534cef1]
class FastChargeTime--><g id="elem_FastChargeTime"><rect codeLine="53" fill="#F5F5DC" height="50.7031" id="FastChargeTime" rx="2.5" ry="2.5" style="stroke:#181818;stroke-width:0.5;" width="138" x="690" y="546"/><ellipse cx="705" cy="567.3516" fill="#FF8B40" rx="11" ry="11" style="stroke:#181818;stroke-width:1.0;"/><path d="M705.5938,570.6172 L708.0625,564.7422 L707.6719,564.7422 Q707.0625,564.7422 706.7969,564.5078 Q706.5313,564.2734 706.5313,563.8828 Q706.5313,563.5078 706.7969,563.2734 Q707.0625,563.0391 707.6719,563.0391 L709.9531,563.0391 Q710.5625,563.0391 710.8281,563.2734 Q711.0938,563.5078 711.0938,563.8828 Q711.0938,564.3516 710.6875,564.6172 Q710.5,564.7422 709.9063,564.7422 L706.4219,573.1016 L704.7813,573.1016 L701.2969,564.7422 Q700.7031,564.7422 700.5156,564.6172 Q700.1094,564.3516 700.1094,563.8828 Q700.1094,563.5078 700.375,563.2734 Q700.6406,563.0391 701.25,563.0391 L703.5469,563.0391 Q704.1563,563.0391 704.4063,563.2734 Q704.6719,563.5078 704.6719,563.8828 Q704.6719,564.2734 704.4063,564.5078 Q704.1563,564.7422 703.5469,564.7422 L703.1406,564.7422 L705.5938,570.6172 Z " fill="#000000"/><text fill="#000000" font-family="sans-serif" font-size="12" font-style="italic" lengthAdjust="spacing" textLength="81" x="731.5" y="563.457">«value object»</text><text fill="#000000" font-family="sans-serif" font-size="14" lengthAdjust="spacing" textLength="106" x="719" y="580.627">FastChargeTime</text><line style="stroke:#181818;stroke-width:0.5;" x1="691" x2="827" y1="588.7031" y2="588.7031"/></g><!--MD5=[92f17753c6c300d26bc20ed650ab49b4]
link Warehouse to WarehouseAltitude--><g id="link_Warehouse_WarehouseAltitude"><path codeLine="56" d="M740.79,93.45 C810.7,116.55 934.59,157.49 1015.76,184.31 " fill="none" id="Warehouse-to-WarehouseAltitude" style="stroke:#222222;stroke-width:1.0;"/><polygon fill="#222222" points="1020.56,185.9,1013.2748,179.2724,1015.8137,184.3274,1010.7587,186.8664,1020.56,185.9" style="stroke:#222222;stroke-width:1.0;"/><text fill="#000000" font-family="sans-serif" font-size="13" lengthAdjust="spacing" textLength="7" x="748.354" y="92.3866">1</text></g><!--MD5=[ae60def7b647bcc25646f64758b2f8c8]
reverse link Warehouse to Store--><g id="link_Warehouse_Store"><path codeLine="57" d="M745.79,75 C863.79,75 1129.39,75 1225.47,75 " fill="none" id="Warehouse-backto-Store" style="stroke:#222222;stroke-width:1.0;"/><polygon fill="#222222" points="740.62,75,749.62,79,745.62,75,749.62,71,740.62,75" style="stroke:#222222;stroke-width:1.0;"/><text fill="#000000" font-family="sans-serif" font-size="13" lengthAdjust="spacing" textLength="90" x="938" y="68.4951">associated with</text><text fill="#000000" font-family="sans-serif" font-size="13" lengthAdjust="spacing" textLength="7" x="748.5119" y="71.4091">1</text><text fill="#000000" font-family="sans-serif" font-size="13" lengthAdjust="spacing" textLength="7" x="1210.4201" y="70.912">1</text></g><!--MD5=[dc32dc1351b98655976dc223324cbacb]
link Warehouse to ChargingStation--><g id="link_Warehouse_ChargingStation"><path codeLine="58" d="M635.18,86.04 C541.73,104.08 341.29,144.04 174,186 C169.82,187.05 165.54,188.16 161.23,189.31 " fill="none" id="Warehouse-to-ChargingStation" style="stroke:#222222;stroke-width:1.0;"/><polygon fill="#222222" points="156.16,190.67,165.8904,192.1927,160.9881,189.3701,163.8106,184.4678,156.16,190.67" style="stroke:#222222;stroke-width:1.0;"/><text fill="#000000" font-family="sans-serif" font-size="13" lengthAdjust="spacing" textLength="21" x="372" y="152.4951">has</text><text fill="#000000" font-family="sans-serif" font-size="13" lengthAdjust="spacing" textLength="7" x="620.612" y="83.9809">1</text><text fill="#000000" font-family="sans-serif" font-size="13" lengthAdjust="spacing" textLength="7" x="163.8884" y="185.0473">1</text></g><!--MD5=[dc249d33753b1da84bd3420ab25b53fd]
reverse link ChargingStation to Truck--><g id="link_ChargingStation_Truck"><path codeLine="59" d="M161.42,234.22 C241.33,258.31 359.26,294.3 363,298 C400.38,334.98 410.9,399.01 413.86,433.97 " fill="none" id="ChargingStation-backto-Truck" style="stroke:#222222;stroke-width:1.0;"/><polygon fill="#222222" points="156.22,232.65,163.6823,239.0777,161.0072,234.0933,165.9915,231.4182,156.22,232.65" style="stroke:#222222;stroke-width:1.0;"/><text fill="#000000" font-family="sans-serif" font-size="13" lengthAdjust="spacing" textLength="47" x="404" y="328.9951">parks at</text><text fill="#000000" font-family="sans-serif" font-size="13" lengthAdjust="spacing" textLength="7" x="163.955" y="231.6189">1</text><text fill="#000000" font-family="sans-serif" font-size="13" lengthAdjust="spacing" textLength="5" x="407.9273" y="422.9561">*</text></g><!--MD5=[acba53dabb83cff3918e642f9fb2e641]
link Warehouse to WarehouseIndentifier--><g id="link_Warehouse_WarehouseIndentifier"><path codeLine="61" d="M635.27,93.17 C564.49,116.22 438.08,157.39 355.4,184.32 " fill="none" id="Warehouse-to-WarehouseIndentifier" style="stroke:#222222;stroke-width:1.0;"/><polygon fill="#222222" points="350.51,185.91,360.305,186.9383,355.2661,184.3675,357.837,179.3286,350.51,185.91" style="stroke:#222222;stroke-width:1.0;"/><text fill="#000000" font-family="sans-serif" font-size="13" lengthAdjust="spacing" textLength="7" x="620.3627" y="110.3843">1</text><text fill="#000000" font-family="sans-serif" font-size="13" lengthAdjust="spacing" textLength="7" x="361.0624" y="175.2966">1</text></g><!--MD5=[408b3fa0744384405c2ff7e0b037b322]
link Warehouse to WarehouseDesignation--><g id="link_Warehouse_WarehouseDesignation"><path codeLine="62" d="M639.4,108.05 C604.77,130.87 558.71,161.24 525.75,182.98 " fill="none" id="Warehouse-to-WarehouseDesignation" style="stroke:#222222;stroke-width:1.0;"/><polygon fill="#222222" points="521.39,185.85,531.1076,184.2476,525.5678,183.103,526.7124,177.5631,521.39,185.85" style="stroke:#222222;stroke-width:1.0;"/><text fill="#000000" font-family="sans-serif" font-size="13" lengthAdjust="spacing" textLength="7" x="631.0847" y="129.1648">1</text><text fill="#000000" font-family="sans-serif" font-size="13" lengthAdjust="spacing" textLength="7" x="522.6507" y="175.222">1</text></g><!--MD5=[6fee932d99f90e2a2bf9abfdfede3fd4]
link Warehouse to WarehouseAddress--><g id="link_Warehouse_WarehouseAddress"><path codeLine="63" d="M688,108.22 C688,130.23 688,159.2 688,180.68 " fill="none" id="Warehouse-to-WarehouseAddress" style="stroke:#222222;stroke-width:1.0;"/><polygon fill="#222222" points="688,185.7,692,176.7,688,180.7,684,176.7,688,185.7" style="stroke:#222222;stroke-width:1.0;"/><text fill="#000000" font-family="sans-serif" font-size="13" lengthAdjust="spacing" textLength="7" x="680.3547" y="129.3662">1</text><text fill="#000000" font-family="sans-serif" font-size="13" lengthAdjust="spacing" textLength="7" x="680.1469" y="175.0354">1</text></g><!--MD5=[e6395b872613880e86cf98f20ef06951]
link Warehouse to WarehouseCoordinates--><g id="link_Warehouse_WarehouseCoordinates"><path codeLine="64" d="M736.84,108.05 C771.64,130.87 817.92,161.24 851.05,182.98 " fill="none" id="Warehouse-to-WarehouseCoordinates" style="stroke:#222222;stroke-width:1.0;"/><polygon fill="#222222" points="855.43,185.85,850.0946,177.5715,851.2479,183.1095,845.7099,184.2628,855.43,185.85" style="stroke:#222222;stroke-width:1.0;"/><text fill="#000000" font-family="sans-serif" font-size="13" lengthAdjust="spacing" textLength="7" x="738.1996" y="129.1648">1</text><text fill="#000000" font-family="sans-serif" font-size="13" lengthAdjust="spacing" textLength="7" x="838.4192" y="175.222">1</text></g><!--MD5=[d2e49ee8f205cadc7bdc347b4a3591ac]
link Truck to Tare--><g id="link_Truck_Tare"><path codeLine="66" d="M379.22,472.32 C329.54,488.75 236.88,519.46 158,546 C153.95,547.36 149.78,548.77 145.57,550.19 " fill="none" id="Truck-to-Tare" style="stroke:#222222;stroke-width:1.0;"/><polygon fill="#222222" points="140.63,551.87,150.4373,552.7743,145.3662,550.2674,147.8731,545.1964,140.63,551.87" style="stroke:#222222;stroke-width:1.0;"/><text fill="#000000" font-family="sans-serif" font-size="13" lengthAdjust="spacing" textLength="7" x="364.4868" y="470.8279">1</text><text fill="#000000" font-family="sans-serif" font-size="13" lengthAdjust="spacing" textLength="7" x="148.4412" y="545.6959">1</text></g><!--MD5=[e854a048fc879ecdb8c690b8d25dc5f6]
link Truck to Capacity--><g id="link_Truck_Capacity"><path codeLine="67" d="M379.33,481.71 C349.91,499.2 307.96,524.14 276.01,543.14 " fill="none" id="Truck-to-Capacity" style="stroke:#222222;stroke-width:1.0;"/><polygon fill="#222222" points="271.37,545.9,281.15,544.7378,275.6675,543.3443,277.061,537.8618,271.37,545.9" style="stroke:#222222;stroke-width:1.0;"/><text fill="#000000" font-family="sans-serif" font-size="13" lengthAdjust="spacing" textLength="7" x="364.6184" y="501.2165">1</text><text fill="#000000" font-family="sans-serif" font-size="13" lengthAdjust="spacing" textLength="7" x="273.6008" y="535.2841">1</text></g><!--MD5=[b86734464f4014d459383a3272448c64]
link Truck to MaximumBatteryCapacity--><g id="link_Truck_MaximumBatteryCapacity"><path codeLine="68" d="M415,485.19 C415,501.6 415,523.26 415,540.65 " fill="none" id="Truck-to-MaximumBatteryCapacity" style="stroke:#222222;stroke-width:1.0;"/><polygon fill="#222222" points="415,545.9,419,536.9,415,540.9,411,536.9,415,545.9" style="stroke:#222222;stroke-width:1.0;"/><text fill="#000000" font-family="sans-serif" font-size="13" lengthAdjust="spacing" textLength="7" x="407.2344" y="506.1257">1</text><text fill="#000000" font-family="sans-serif" font-size="13" lengthAdjust="spacing" textLength="7" x="407.1469" y="535.2841">1</text></g><!--MD5=[700c761c5be81b9344a4cb04ea6dc39b]
link Truck to Autonomy--><g id="link_Truck_Autonomy"><path codeLine="69" d="M450.67,481.71 C480.09,499.2 522.04,524.14 553.99,543.14 " fill="none" id="Truck-to-Autonomy" style="stroke:#222222;stroke-width:1.0;"/><polygon fill="#222222" points="558.63,545.9,552.939,537.8618,554.3325,543.3443,548.85,544.7378,558.63,545.9" style="stroke:#222222;stroke-width:1.0;"/><text fill="#000000" font-family="sans-serif" font-size="13" lengthAdjust="spacing" textLength="7" x="458.3816" y="482.0665">1</text><text fill="#000000" font-family="sans-serif" font-size="13" lengthAdjust="spacing" textLength="7" x="540.6929" y="535.2841">1</text></g><!--MD5=[b33eab119b079972d29036f635413610]
link Truck to FastChargeTime--><g id="link_Truck_FastChargeTime"><path codeLine="70" d="M450.52,471.86 C505.5,489.44 612.43,523.63 684.78,546.77 " fill="none" id="Truck-to-FastChargeTime" style="stroke:#222222;stroke-width:1.0;"/><polygon fill="#222222" points="689.93,548.41,682.5794,541.8549,685.1684,546.8846,680.1387,549.4735,689.93,548.41" style="stroke:#222222;stroke-width:1.0;"/><text fill="#000000" font-family="sans-serif" font-size="13" lengthAdjust="spacing" textLength="7" x="458.5679" y="470.3212">1</text><text fill="#000000" font-family="sans-serif" font-size="13" lengthAdjust="spacing" textLength="7" x="674.9927" y="542.5401">1</text></g><!--MD5=[ae3bd1fc9e00019e04897812083ba84e]
link Store to StoreName--><g id="link_Store_StoreName"><path codeLine="72" d="M1261,100.67 C1261,123.23 1261,156.66 1261,180.7 " fill="none" id="Store-to-StoreName" style="stroke:#222222;stroke-width:1.0;"/><polygon fill="#222222" points="1261,185.99,1265,176.99,1261,180.99,1257,176.99,1261,185.99" style="stroke:#222222;stroke-width:1.0;"/><text fill="#000000" font-family="sans-serif" font-size="13" lengthAdjust="spacing" textLength="7" x="1253.2344" y="121.6014">1</text><text fill="#000000" font-family="sans-serif" font-size="13" lengthAdjust="spacing" textLength="7" x="1253.1031" y="174.9813">1</text></g><!--MD5=[fef2d2ba648fbb8847e7d28f4575266f]
link Store to StoreIndentifier--><g id="link_Store_StoreIndentifier"><path codeLine="73" d="M1289.25,100.67 C1315.73,123.8 1355.29,158.35 1382.94,182.5 " fill="none" id="Store-to-StoreIndentifier" style="stroke:#222222;stroke-width:1.0;"/><polygon fill="#222222" points="1386.93,185.99,1382.7716,177.0621,1383.16,182.7056,1377.5165,183.094,1386.93,185.99" style="stroke:#222222;stroke-width:1.0;"/><text fill="#000000" font-family="sans-serif" font-size="13" lengthAdjust="spacing" textLength="7" x="1287.6641" y="121.6014">1</text><text fill="#000000" font-family="sans-serif" font-size="13" lengthAdjust="spacing" textLength="7" x="1371.8402" y="174.9813">1</text></g><!--MD5=[3a1645d93db7f0050e5d6caa5346b5bf]
link ChargingStation to CurrentOccupation--><g id="link_ChargingStation_CurrentOccupation"><path codeLine="75" d="M91.02,237.19 C92.36,253.6 94.14,275.26 95.56,292.65 " fill="none" id="ChargingStation-to-CurrentOccupation" style="stroke:#222222;stroke-width:1.0;"/><polygon fill="#222222" points="95.99,297.9,99.231,288.5997,95.576,292.9172,91.2585,289.2621,95.99,297.9" style="stroke:#222222;stroke-width:1.0;"/><text fill="#000000" font-family="sans-serif" font-size="13" lengthAdjust="spacing" textLength="7" x="83.6962" y="258.1257">1</text><text fill="#000000" font-family="sans-serif" font-size="13" lengthAdjust="spacing" textLength="7" x="87.6469" y="287.2841">1</text></g><!--MD5=[d7bd9df21f50b5584ceb49d06cc4597e]
link ChargingStation to TotalOccupation--><g id="link_ChargingStation_TotalOccupation"><path codeLine="76" d="M131.19,237.19 C160.7,254.45 200.12,277.52 230.53,295.31 " fill="none" id="ChargingStation-to-TotalOccupation" style="stroke:#222222;stroke-width:1.0;"/><polygon fill="#222222" points="234.95,297.9,229.2079,289.8982,230.6363,295.3718,225.1627,296.8001,234.95,297.9" style="stroke:#222222;stroke-width:1.0;"/><text fill="#000000" font-family="sans-serif" font-size="13" lengthAdjust="spacing" textLength="7" x="132.6534" y="258.1257">1</text><text fill="#000000" font-family="sans-serif" font-size="13" lengthAdjust="spacing" textLength="7" x="216.8472" y="287.2841">1</text></g><!--MD5=[16f4ba7502ec254ad30022ee5cb0266d]
@startuml DMWarehouseManagement

skinparam classAttributeIconSize 0
hide empty attributes
skinparam classBackgroundColor beige
skinparam ArrowColor #222222

package "<<aggregate>> WarehouseManagement"{
  entity Warehouse
  entity Store
  entity ChargingStation
  class WarehouseIndentifier
  class WarehouseDesignation
  class WarehouseAddress
  class WarehouseCoordinates
  class StoreName
  class StoreIndentifier 
  class CurrentOccupation
  class TotalOccupation
  class WarehouseAltitude

}

package "<<aggregate>> Logistics"{
  entity Truck 
  class Tare
  class Capacity
  class MaximumBatteryCapacity
  class Autonomy
  class FastChargeTime

}

entity Warehouse <<entity>> <<Root>>
class WarehouseIndentifier <<(V,#FF8B40) value object>>
class WarehouseDesignation <<(V,#FF8B40) value object>>
class WarehouseAddress <<(V,#FF8B40) value object>>
class WarehouseCoordinates <<(V,#FF8B40) value object>>
class WarehouseAltitude <<(V,#FF8B40) value object>>

entity Store <<entity>>
class StoreName <<(V,#FF8B40) value object>> 
class StoreIndentifier <<(V,#FF8B40) value object>> 

entity ChargingStation <<entity>> 
class CurrentOccupation <<(V,#FF8B40) value object>> 
class TotalOccupation <<(V,#FF8B40) value object>> 

entity Truck <<entity>>
class Tare <<(V,#FF8B40) value object>>
class Capacity <<(V,#FF8B40) value object>>
class MaximumBatteryCapacity <<(V,#FF8B40) value object>>
class Autonomy <<(V,#FF8B40) value object>>
class FastChargeTime <<(V,#FF8B40) value object>>


Warehouse "1" - -> WarehouseAltitude
Warehouse "1" <- "1" Store : associated with
Warehouse "1" - -> "1" ChargingStation: has
ChargingStation "1" <- - -  "*" Truck : parks at

Warehouse "1" - -> "1" WarehouseIndentifier 
Warehouse "1" - -> "1" WarehouseDesignation 
Warehouse "1" - -> "1" WarehouseAddress 
Warehouse "1" - -> "1" WarehouseCoordinates 

Truck "1" - -> "1" Tare
Truck "1" - -> "1" Capacity 
Truck "1" - -> "1" MaximumBatteryCapacity
Truck "1" - -> "1" Autonomy
Truck "1" - -> "1" FastChargeTime

Store "1" - -> "1" StoreName
Store "1" - -> "1" StoreIndentifier

ChargingStation "1" - -> "1" CurrentOccupation
ChargingStation "1" - -> "1" TotalOccupation

@enduml

PlantUML version 1.2022.7(Mon Aug 22 18:01:30 WEST 2022)
(GPL source distribution)
Java Runtime: Java(TM) SE Runtime Environment
JVM: Java HotSpot(TM) 64-Bit Server VM
Default Encoding: Cp1252
Language: en
Country: GB
--></g></svg>