<?xml version="1.0" encoding="UTF-8" standalone="no"?><svg xmlns="http://www.w3.org/2000/svg" xmlns:xlink="http://www.w3.org/1999/xlink" contentStyleType="text/css" height="241px" preserveAspectRatio="none" style="width:1119px;height:241px;background:#FFFFFF;" version="1.1" viewBox="0 0 1119 241" width="1119px" zoomAndPan="magnify"><defs/><g><!--MD5=[fd2c6941327600dfcb9810e16d42f054]
cluster <<aggregate>> Planning--><g id="cluster_&lt;&lt;aggregate&gt;&gt; Planning"><path d="M8.5,6 L178.5,6 A3.75,3.75 0 0 1 181,8.5 L188,27.6406 L1109.5,27.6406 A2.5,2.5 0 0 1 1112,30.1406 L1112,231.5 A2.5,2.5 0 0 1 1109.5,234 L8.5,234 A2.5,2.5 0 0 1 6,231.5 L6,8.5 A2.5,2.5 0 0 1 8.5,6 " fill="none" style="stroke:#000000;stroke-width:1.5;"/><line style="stroke:#000000;stroke-width:1.5;" x1="6" x2="188" y1="27.6406" y2="27.6406"/><text fill="#000000" font-family="sans-serif" font-size="14" font-weight="bold" lengthAdjust="spacing" textLength="169" x="10" y="20.6738">&lt;&lt;aggregate&gt;&gt; Planning</text></g><!--MD5=[db94511ff73c25040c57072aa4771965]
class Path--><g id="elem_Path"><rect codeLine="21" fill="#F5F5DC" height="70.6875" id="Path" rx="2.5" ry="2.5" style="stroke:#181818;stroke-width:0.5;" width="71" x="504.5" y="40"/><ellipse cx="519.5" cy="59.5234" fill="#ADD1B2" rx="11" ry="11" style="stroke:#181818;stroke-width:1.0;"/><path d="M518,60.5234 L518,62.5234 L522,62.5234 L522,61.5234 L522,61.0391 L522.625,60.5234 L523,60.5234 L523.375,60.5234 L524,61.0391 L524,61.5234 L524,64.5234 L516,64.5234 L515.5156,64.5234 L515,63.8984 L515,63.5234 L515,63.1484 L515.5156,62.5234 L516,62.5234 L516,62.5234 L516,56.5234 L516,56.5234 L515.5156,56.5234 L515,55.8984 L515,55.5234 L515,55.1484 L515.5156,54.5234 L516,54.5234 L524,54.5234 L524,57.5234 L524,58.0078 L523.375,58.5234 L523,58.5234 L522.625,58.5234 L522,58.0078 L522,57.5234 L522,56.5234 L518,56.5234 L518,58.5234 L519,58.5234 L519,58.0391 L519,58.0391 L519.625,57.5234 L520,57.5234 L520.375,57.5234 L521,58.0391 L521,58.5234 L521,60.5234 L521,61.0078 L520.375,61.5234 L520.375,61.5234 L520,61.5234 L519.625,61.5234 L519,61.0078 L519,61.0078 L519,60.5234 L518,60.5234 Z " fill="#000000"/><text fill="#000000" font-family="sans-serif" font-size="12" font-style="italic" lengthAdjust="spacing" textLength="43" x="531.5" y="55.8633">«entity»</text><text fill="#000000" font-family="sans-serif" font-size="14" lengthAdjust="spacing" textLength="29" x="538.5" y="71.0801">Path</text><line style="stroke:#181818;stroke-width:0.5;" x1="505.5" x2="574.5" y1="79.0469" y2="79.0469"/><text fill="#000000" font-family="sans-serif" font-size="14" lengthAdjust="spacing" textLength="43" x="510.5" y="95.7207">-Active</text><line style="stroke:#181818;stroke-width:0.5;" x1="505.5" x2="574.5" y1="102.6875" y2="102.6875"/></g><!--MD5=[d843d94a459c059db443f03cd5e8b239]
class PathID--><g id="elem_PathID"><rect codeLine="25" fill="#F5F5DC" height="47.0469" id="PathID" rx="2.5" ry="2.5" style="stroke:#181818;stroke-width:0.5;" width="109" x="22.5" y="171"/><ellipse cx="37.5" cy="190.5234" fill="#FF8B40" rx="11" ry="11" style="stroke:#181818;stroke-width:1.0;"/><path d="M37.5,193.8047 L39.0313,188.2734 L39.0313,188.2734 L38.5156,188.2734 L38,187.6484 L38,187.2734 L38,186.8984 L38.5156,186.2734 L39.0313,186.2734 L40.9063,186.2734 L41.4844,186.2734 L42,186.8984 L42,187.2734 L42,187.6484 L41.4844,188.2734 L41.4844,188.2734 L41.0313,188.2734 L38.6875,196.2734 L36.3125,196.2734 L33.8438,188.2734 L33.5156,188.2734 L33.5156,188.2734 L33,187.6484 L33,187.2734 L33,186.8984 L33.5156,186.2734 L34.0938,186.2734 L35.9688,186.2734 L36.4844,186.2734 L37,186.8984 L37,187.2734 L37,187.6484 L36.4844,188.2734 L35.9688,188.2734 L35.9688,188.2734 L37.5,193.8047 Z " fill="#000000"/><text fill="#000000" font-family="sans-serif" font-size="12" font-style="italic" lengthAdjust="spacing" textLength="81" x="49.5" y="186.8633">«value object»</text><text fill="#000000" font-family="sans-serif" font-size="14" lengthAdjust="spacing" textLength="42" x="69" y="202.0801">PathID</text><line style="stroke:#181818;stroke-width:0.5;" x1="23.5" x2="130.5" y1="210.0469" y2="210.0469"/></g><!--MD5=[b4244576e61cbdbc5ed2fc8b8ad4d931]
class StartWHId--><g id="elem_StartWHId"><rect codeLine="26" fill="#F5F5DC" height="47.0469" id="StartWHId" rx="2.5" ry="2.5" style="stroke:#181818;stroke-width:0.5;" width="109" x="166.5" y="171"/><ellipse cx="181.5" cy="190.5234" fill="#FF8B40" rx="11" ry="11" style="stroke:#181818;stroke-width:1.0;"/><path d="M181.5,193.8047 L183.0313,188.2734 L183.0313,188.2734 L182.5156,188.2734 L182,187.6484 L182,187.2734 L182,186.8984 L182.5156,186.2734 L183.0313,186.2734 L184.9063,186.2734 L185.4844,186.2734 L186,186.8984 L186,187.2734 L186,187.6484 L185.4844,188.2734 L185.4844,188.2734 L185.0313,188.2734 L182.6875,196.2734 L180.3125,196.2734 L177.8438,188.2734 L177.5156,188.2734 L177.5156,188.2734 L177,187.6484 L177,187.2734 L177,186.8984 L177.5156,186.2734 L178.0938,186.2734 L179.9688,186.2734 L180.4844,186.2734 L181,186.8984 L181,187.2734 L181,187.6484 L180.4844,188.2734 L179.9688,188.2734 L179.9688,188.2734 L181.5,193.8047 Z " fill="#000000"/><text fill="#000000" font-family="sans-serif" font-size="12" font-style="italic" lengthAdjust="spacing" textLength="81" x="193.5" y="186.8633">«value object»</text><text fill="#000000" font-family="sans-serif" font-size="14" lengthAdjust="spacing" textLength="63" x="202.5" y="202.0801">StartWHId</text><line style="stroke:#181818;stroke-width:0.5;" x1="167.5" x2="274.5" y1="210.0469" y2="210.0469"/></g><!--MD5=[f42977f4458a125c8767e2a90524f334]
class DestinationWHId--><g id="elem_DestinationWHId"><rect codeLine="27" fill="#F5F5DC" height="47.0469" id="DestinationWHId" rx="2.5" ry="2.5" style="stroke:#181818;stroke-width:0.5;" width="136" x="311" y="171"/><ellipse cx="326" cy="190.5234" fill="#FF8B40" rx="11" ry="11" style="stroke:#181818;stroke-width:1.0;"/><path d="M326,193.8047 L327.5313,188.2734 L327.5313,188.2734 L327.0156,188.2734 L326.5,187.6484 L326.5,187.2734 L326.5,186.8984 L327.0156,186.2734 L327.5313,186.2734 L329.4063,186.2734 L329.9844,186.2734 L330.5,186.8984 L330.5,187.2734 L330.5,187.6484 L329.9844,188.2734 L329.9844,188.2734 L329.5313,188.2734 L327.1875,196.2734 L324.8125,196.2734 L322.3438,188.2734 L322.0156,188.2734 L322.0156,188.2734 L321.5,187.6484 L321.5,187.2734 L321.5,186.8984 L322.0156,186.2734 L322.5938,186.2734 L324.4688,186.2734 L324.9844,186.2734 L325.5,186.8984 L325.5,187.2734 L325.5,187.6484 L324.9844,188.2734 L324.4688,188.2734 L324.4688,188.2734 L326,193.8047 Z " fill="#000000"/><text fill="#000000" font-family="sans-serif" font-size="12" font-style="italic" lengthAdjust="spacing" textLength="81" x="351.5" y="186.8633">«value object»</text><text fill="#000000" font-family="sans-serif" font-size="14" lengthAdjust="spacing" textLength="104" x="340" y="202.0801">DestinationWHId</text><line style="stroke:#181818;stroke-width:0.5;" x1="312" x2="446" y1="210.0469" y2="210.0469"/></g><!--MD5=[3613d68a5b209073ec9e1f3505f6a232]
class PathDistance--><g id="elem_PathDistance"><rect codeLine="28" fill="#F5F5DC" height="47.0469" id="PathDistance" rx="2.5" ry="2.5" style="stroke:#181818;stroke-width:0.5;" width="116" x="482" y="171"/><ellipse cx="497" cy="190.5234" fill="#FF8B40" rx="11" ry="11" style="stroke:#181818;stroke-width:1.0;"/><path d="M497,193.8047 L498.5313,188.2734 L498.5313,188.2734 L498.0156,188.2734 L497.5,187.6484 L497.5,187.2734 L497.5,186.8984 L498.0156,186.2734 L498.5313,186.2734 L500.4063,186.2734 L500.9844,186.2734 L501.5,186.8984 L501.5,187.2734 L501.5,187.6484 L500.9844,188.2734 L500.9844,188.2734 L500.5313,188.2734 L498.1875,196.2734 L495.8125,196.2734 L493.3438,188.2734 L493.0156,188.2734 L493.0156,188.2734 L492.5,187.6484 L492.5,187.2734 L492.5,186.8984 L493.0156,186.2734 L493.5938,186.2734 L495.4688,186.2734 L495.9844,186.2734 L496.5,186.8984 L496.5,187.2734 L496.5,187.6484 L495.9844,188.2734 L495.4688,188.2734 L495.4688,188.2734 L497,193.8047 Z " fill="#000000"/><text fill="#000000" font-family="sans-serif" font-size="12" font-style="italic" lengthAdjust="spacing" textLength="81" x="512.5" y="186.8633">«value object»</text><text fill="#000000" font-family="sans-serif" font-size="14" lengthAdjust="spacing" textLength="84" x="511" y="202.0801">PathDistance</text><line style="stroke:#181818;stroke-width:0.5;" x1="483" x2="597" y1="210.0469" y2="210.0469"/></g><!--MD5=[a715ffeef76facbe3a3474b34ccddd56]
class PathTravelTime--><g id="elem_PathTravelTime"><rect codeLine="29" fill="#F5F5DC" height="47.0469" id="PathTravelTime" rx="2.5" ry="2.5" style="stroke:#181818;stroke-width:0.5;" width="132" x="633" y="171"/><ellipse cx="648" cy="190.5234" fill="#FF8B40" rx="11" ry="11" style="stroke:#181818;stroke-width:1.0;"/><path d="M648,193.8047 L649.5313,188.2734 L649.5313,188.2734 L649.0156,188.2734 L648.5,187.6484 L648.5,187.2734 L648.5,186.8984 L649.0156,186.2734 L649.5313,186.2734 L651.4063,186.2734 L651.9844,186.2734 L652.5,186.8984 L652.5,187.2734 L652.5,187.6484 L651.9844,188.2734 L651.9844,188.2734 L651.5313,188.2734 L649.1875,196.2734 L646.8125,196.2734 L644.3438,188.2734 L644.0156,188.2734 L644.0156,188.2734 L643.5,187.6484 L643.5,187.2734 L643.5,186.8984 L644.0156,186.2734 L644.5938,186.2734 L646.4688,186.2734 L646.9844,186.2734 L647.5,186.8984 L647.5,187.2734 L647.5,187.6484 L646.9844,188.2734 L646.4688,188.2734 L646.4688,188.2734 L648,193.8047 Z " fill="#000000"/><text fill="#000000" font-family="sans-serif" font-size="12" font-style="italic" lengthAdjust="spacing" textLength="81" x="671.5" y="186.8633">«value object»</text><text fill="#000000" font-family="sans-serif" font-size="14" lengthAdjust="spacing" textLength="100" x="662" y="202.0801">PathTravelTime</text><line style="stroke:#181818;stroke-width:0.5;" x1="634" x2="764" y1="210.0469" y2="210.0469"/></g><!--MD5=[2b02fe2153dd4cf0e9bfa137af381b1b]
class WastedEnergy--><g id="elem_WastedEnergy"><rect codeLine="30" fill="#F5F5DC" height="47.0469" id="WastedEnergy" rx="2.5" ry="2.5" style="stroke:#181818;stroke-width:0.5;" width="125" x="800.5" y="171"/><ellipse cx="815.5" cy="190.5234" fill="#FF8B40" rx="11" ry="11" style="stroke:#181818;stroke-width:1.0;"/><path d="M815.5,193.8047 L817.0313,188.2734 L817.0313,188.2734 L816.5156,188.2734 L816,187.6484 L816,187.2734 L816,186.8984 L816.5156,186.2734 L817.0313,186.2734 L818.9063,186.2734 L819.4844,186.2734 L820,186.8984 L820,187.2734 L820,187.6484 L819.4844,188.2734 L819.4844,188.2734 L819.0313,188.2734 L816.6875,196.2734 L814.3125,196.2734 L811.8438,188.2734 L811.5156,188.2734 L811.5156,188.2734 L811,187.6484 L811,187.2734 L811,186.8984 L811.5156,186.2734 L812.0938,186.2734 L813.9688,186.2734 L814.4844,186.2734 L815,186.8984 L815,187.2734 L815,187.6484 L814.4844,188.2734 L813.9688,188.2734 L813.9688,188.2734 L815.5,193.8047 Z " fill="#000000"/><text fill="#000000" font-family="sans-serif" font-size="12" font-style="italic" lengthAdjust="spacing" textLength="81" x="835.5" y="186.8633">«value object»</text><text fill="#000000" font-family="sans-serif" font-size="14" lengthAdjust="spacing" textLength="93" x="829.5" y="202.0801">WastedEnergy</text><line style="stroke:#181818;stroke-width:0.5;" x1="801.5" x2="924.5" y1="210.0469" y2="210.0469"/></g><!--MD5=[b6c52d5a026123778d924e0c4b204db7]
class ExtraTravelTime--><g id="elem_ExtraTravelTime"><rect codeLine="31" fill="#F5F5DC" height="47.0469" id="ExtraTravelTime" rx="2.5" ry="2.5" style="stroke:#181818;stroke-width:0.5;" width="135" x="960.5" y="171"/><ellipse cx="975.5" cy="190.5234" fill="#FF8B40" rx="11" ry="11" style="stroke:#181818;stroke-width:1.0;"/><path d="M975.5,193.8047 L977.0313,188.2734 L977.0313,188.2734 L976.5156,188.2734 L976,187.6484 L976,187.2734 L976,186.8984 L976.5156,186.2734 L977.0313,186.2734 L978.9063,186.2734 L979.4844,186.2734 L980,186.8984 L980,187.2734 L980,187.6484 L979.4844,188.2734 L979.4844,188.2734 L979.0313,188.2734 L976.6875,196.2734 L974.3125,196.2734 L971.8438,188.2734 L971.5156,188.2734 L971.5156,188.2734 L971,187.6484 L971,187.2734 L971,186.8984 L971.5156,186.2734 L972.0938,186.2734 L973.9688,186.2734 L974.4844,186.2734 L975,186.8984 L975,187.2734 L975,187.6484 L974.4844,188.2734 L973.9688,188.2734 L973.9688,188.2734 L975.5,193.8047 Z " fill="#000000"/><text fill="#000000" font-family="sans-serif" font-size="12" font-style="italic" lengthAdjust="spacing" textLength="81" x="1000.5" y="186.8633">«value object»</text><text fill="#000000" font-family="sans-serif" font-size="14" lengthAdjust="spacing" textLength="103" x="989.5" y="202.0801">ExtraTravelTime</text><line style="stroke:#181818;stroke-width:0.5;" x1="961.5" x2="1094.5" y1="210.0469" y2="210.0469"/></g><!--MD5=[b45be50e624c5b0e3ce12351d23e7531]
link Path to ExtraTravelTime--><g id="link_Path_ExtraTravelTime"><path codeLine="33" d="M575.66,84.5 C646.05,100.38 807.73,137.24 943,171 C947.05,172.01 951.19,173.06 955.38,174.13 " fill="none" id="Path-to-ExtraTravelTime" style="stroke:#222222;stroke-width:1.0;"/><polygon fill="#222222" points="960.31,175.4,952.5868,169.2883,955.4669,174.1571,950.5982,177.0372,960.31,175.4" style="stroke:#222222;stroke-width:1.0;"/><text fill="#000000" font-family="sans-serif" font-size="13" lengthAdjust="spacing" textLength="7" x="945.5236" y="170.3399">1</text></g><!--MD5=[0aa7ee9ef57b098f1729b9cef57d820e]
link Path to WastedEnergy--><g id="link_Path_WastedEnergy"><path codeLine="34" d="M575.8,89.47 C628.81,108.67 729.12,145 796.02,169.24 " fill="none" id="Path-to-WastedEnergy" style="stroke:#222222;stroke-width:1.0;"/><polygon fill="#222222" points="800.78,170.96,793.6955,164.1182,796.0827,169.2467,790.9542,171.6339,800.78,170.96" style="stroke:#222222;stroke-width:1.0;"/><text fill="#000000" font-family="sans-serif" font-size="13" lengthAdjust="spacing" textLength="7" x="785.3596" y="164.8461">1</text></g><!--MD5=[6b347fbc0277909eadd989a2424a7525]
link Path to PathTravelTime--><g id="link_Path_PathTravelTime"><path codeLine="35" d="M575.68,102.76 C602.1,122.2 637.91,148.55 664.14,167.85 " fill="none" id="Path-to-PathTravelTime" style="stroke:#222222;stroke-width:1.0;"/><polygon fill="#222222" points="668.26,170.88,663.3718,162.3299,664.2293,167.9213,658.6379,168.7789,668.26,170.88" style="stroke:#222222;stroke-width:1.0;"/><text fill="#000000" font-family="sans-serif" font-size="13" lengthAdjust="spacing" textLength="7" x="651.63" y="160.1037">1</text></g><!--MD5=[2255299a5f0c7394b782065796f2bf19]
link Path to PathDistance--><g id="link_Path_PathDistance"><path codeLine="36" d="M540,111.29 C540,128.6 540,149.24 540,165.51 " fill="none" id="Path-to-PathDistance" style="stroke:#222222;stroke-width:1.0;"/><polygon fill="#222222" points="540,170.85,544,161.85,540,165.85,536,161.85,540,170.85" style="stroke:#222222;stroke-width:1.0;"/><text fill="#000000" font-family="sans-serif" font-size="13" lengthAdjust="spacing" textLength="7" x="532.0156" y="160.0653">1</text></g><!--MD5=[9e82f04019ddd379ce16ca95cd33dd97]
link Path to DestinationWHId--><g id="link_Path_DestinationWHId"><path codeLine="37" d="M504.27,102.47 C477.45,121.96 440.91,148.51 414.21,167.91 " fill="none" id="Path-to-DestinationWHId" style="stroke:#222222;stroke-width:1.0;"/><polygon fill="#222222" points="410.02,170.96,419.6504,168.8974,414.0624,168.0174,414.9424,162.4294,410.02,170.96" style="stroke:#222222;stroke-width:1.0;"/><text fill="#000000" font-family="sans-serif" font-size="13" lengthAdjust="spacing" textLength="7" x="410.76" y="160.2062">1</text></g><!--MD5=[13ab025ae8dbe7f18321fe4f7e49151f]
link Path to StartWHId--><g id="link_Path_StartWHId"><path codeLine="38" d="M504.34,89.58 C450.14,109.46 346.43,147.5 280.64,171.63 " fill="none" id="Path-to-StartWHId" style="stroke:#222222;stroke-width:1.0;"/><polygon fill="#222222" points="275.58,173.48,285.4064,174.1443,280.2756,171.7621,282.6578,166.6313,275.58,173.48" style="stroke:#222222;stroke-width:1.0;"/><text fill="#000000" font-family="sans-serif" font-size="13" lengthAdjust="spacing" textLength="7" x="283.3845" y="167.5154">1</text></g><!--MD5=[a4e91fea6bbba9386bb7177ce80448e3]
link Path to PathID--><g id="link_Path_PathID"><path codeLine="39" d="M504.48,84.26 C435.57,99.5 279.07,135 149,171 C144.92,172.13 140.72,173.33 136.49,174.57 " fill="none" id="Path-to-PathID" style="stroke:#222222;stroke-width:1.0;"/><polygon fill="#222222" points="131.53,176.04,141.2946,177.3253,136.325,174.623,139.0274,169.6533,131.53,176.04" style="stroke:#222222;stroke-width:1.0;"/><text fill="#000000" font-family="sans-serif" font-size="13" lengthAdjust="spacing" textLength="7" x="139.3278" y="170.4194">1</text></g><!--MD5=[d498eb3e58115bc704d8ad129c76adee]
@startuml 
skinparam classAttributeIconSize 0
hide empty attributes
skinparam classBackgroundColor beige
skinparam ArrowColor #222222

package "<<aggregate>> Planning"{
 
    entity Path
    class PathID
    class StartWHId
    class DestinationWHId
    class PathDistance
    class PathTravelTime
    class WastedEnergy
    class ExtraTravelTime
}



entity Path <<entity>> {
    -Active
}

class PathID <<(V,#FF8B40) value object>>
class StartWHId <<(V,#FF8B40) value object>>
class DestinationWHId <<(V,#FF8B40) value object>>
class PathDistance <<(V,#FF8B40) value object>>
class PathTravelTime <<(V,#FF8B40) value object>>
class WastedEnergy <<(V,#FF8B40) value object>>
class ExtraTravelTime <<(V,#FF8B40) value object>>

Path - -> "1" ExtraTravelTime
Path - -> "1" WastedEnergy
Path - -> "1" PathTravelTime
Path - -> "1" PathDistance
Path - -> "1" DestinationWHId
Path - -> "1" StartWHId
Path - -> "1" PathID
@enduml

PlantUML version 1.2022.12(Sun Oct 23 19:12:26 WEST 2022)
(GPL source distribution)
Java Runtime: OpenJDK Runtime Environment
JVM: OpenJDK 64-Bit Server VM
Default Encoding: Cp1252
Language: pt
Country: BR
--></g></svg>