<?xml version="1.0" encoding="UTF-8" standalone="no"?><svg xmlns="http://www.w3.org/2000/svg" xmlns:xlink="http://www.w3.org/1999/xlink" contentStyleType="text/css" height="217px" preserveAspectRatio="none" style="width:986px;height:217px;background:#FFFFFF;" version="1.1" viewBox="0 0 986 217" width="986px" zoomAndPan="magnify"><defs/><g><!--MD5=[058ee174e53f4d5e43b0ff6bb9b97aa3]
cluster <<aggregate>> Logistics--><g id="cluster_&lt;&lt;aggregate&gt;&gt; Logistics"><path d="M8.5,6 L180.5,6 A3.75,3.75 0 0 1 183,8.5 L190,27.6406 L976.5,27.6406 A2.5,2.5 0 0 1 979,30.1406 L979,207.5 A2.5,2.5 0 0 1 976.5,210 L8.5,210 A2.5,2.5 0 0 1 6,207.5 L6,8.5 A2.5,2.5 0 0 1 8.5,6 " fill="none" style="stroke:#000000;stroke-width:1.5;"/><line style="stroke:#000000;stroke-width:1.5;" x1="6" x2="190" y1="27.6406" y2="27.6406"/><text fill="#000000" font-family="sans-serif" font-size="14" font-weight="bold" lengthAdjust="spacing" textLength="171" x="10" y="20.6738">&lt;&lt;aggregate&gt;&gt; Logistics</text></g><!--MD5=[f2ba7f6ab60af8dd0d3e354f91729b14]
class Truck--><g id="elem_Truck"><rect codeLine="20" fill="#F5F5DC" height="47.0469" id="Truck" rx="2.5" ry="2.5" style="stroke:#181818;stroke-width:0.5;" width="71" x="421.5" y="40"/><ellipse cx="436.5" cy="59.5234" fill="#ADD1B2" rx="11" ry="11" style="stroke:#181818;stroke-width:1.0;"/><path d="M435,60.5234 L435,62.5234 L439,62.5234 L439,61.5234 L439,61.0391 L439.625,60.5234 L440,60.5234 L440.375,60.5234 L441,61.0391 L441,61.5234 L441,64.5234 L433,64.5234 L432.5156,64.5234 L432,63.8984 L432,63.5234 L432,63.1484 L432.5156,62.5234 L433,62.5234 L433,62.5234 L433,56.5234 L433,56.5234 L432.5156,56.5234 L432,55.8984 L432,55.5234 L432,55.1484 L432.5156,54.5234 L433,54.5234 L441,54.5234 L441,57.5234 L441,58.0078 L440.375,58.5234 L440,58.5234 L439.625,58.5234 L439,58.0078 L439,57.5234 L439,56.5234 L435,56.5234 L435,58.5234 L436,58.5234 L436,58.0391 L436,58.0391 L436.625,57.5234 L437,57.5234 L437.375,57.5234 L438,58.0391 L438,58.5234 L438,60.5234 L438,61.0078 L437.375,61.5234 L437.375,61.5234 L437,61.5234 L436.625,61.5234 L436,61.0078 L436,61.0078 L436,60.5234 L435,60.5234 Z " fill="#000000"/><text fill="#000000" font-family="sans-serif" font-size="12" font-style="italic" lengthAdjust="spacing" textLength="43" x="448.5" y="55.8633">«entity»</text><text fill="#000000" font-family="sans-serif" font-size="14" lengthAdjust="spacing" textLength="36" x="452" y="71.0801">Truck</text><line style="stroke:#181818;stroke-width:0.5;" x1="422.5" x2="491.5" y1="79.0469" y2="79.0469"/></g><!--MD5=[0d3951c0fbe6fcc782317ffad8b7b8ee]
class TruckId--><g id="elem_TruckId"><rect codeLine="23" fill="#F5F5DC" height="47.0469" id="TruckId" rx="2.5" ry="2.5" style="stroke:#181818;stroke-width:0.5;" width="109" x="22.5" y="147"/><ellipse cx="37.5" cy="166.5234" fill="#FF8B40" rx="11" ry="11" style="stroke:#181818;stroke-width:1.0;"/><path d="M37.5,169.8047 L39.0313,164.2734 L39.0313,164.2734 L38.5156,164.2734 L38,163.6484 L38,163.2734 L38,162.8984 L38.5156,162.2734 L39.0313,162.2734 L40.9063,162.2734 L41.4844,162.2734 L42,162.8984 L42,163.2734 L42,163.6484 L41.4844,164.2734 L41.4844,164.2734 L41.0313,164.2734 L38.6875,172.2734 L36.3125,172.2734 L33.8438,164.2734 L33.5156,164.2734 L33.5156,164.2734 L33,163.6484 L33,163.2734 L33,162.8984 L33.5156,162.2734 L34.0938,162.2734 L35.9688,162.2734 L36.4844,162.2734 L37,162.8984 L37,163.2734 L37,163.6484 L36.4844,164.2734 L35.9688,164.2734 L35.9688,164.2734 L37.5,169.8047 Z " fill="#000000"/><text fill="#000000" font-family="sans-serif" font-size="12" font-style="italic" lengthAdjust="spacing" textLength="81" x="49.5" y="162.8633">«value object»</text><text fill="#000000" font-family="sans-serif" font-size="14" lengthAdjust="spacing" textLength="47" x="66.5" y="178.0801">TruckId</text><line style="stroke:#181818;stroke-width:0.5;" x1="23.5" x2="130.5" y1="186.0469" y2="186.0469"/></g><!--MD5=[cd7f37554007b9f11101944b457a48b1]
class Tare--><g id="elem_Tare"><rect codeLine="24" fill="#F5F5DC" height="47.0469" id="Tare" rx="2.5" ry="2.5" style="stroke:#181818;stroke-width:0.5;" width="109" x="166.5" y="147"/><ellipse cx="181.5" cy="166.5234" fill="#FF8B40" rx="11" ry="11" style="stroke:#181818;stroke-width:1.0;"/><path d="M181.5,169.8047 L183.0313,164.2734 L183.0313,164.2734 L182.5156,164.2734 L182,163.6484 L182,163.2734 L182,162.8984 L182.5156,162.2734 L183.0313,162.2734 L184.9063,162.2734 L185.4844,162.2734 L186,162.8984 L186,163.2734 L186,163.6484 L185.4844,164.2734 L185.4844,164.2734 L185.0313,164.2734 L182.6875,172.2734 L180.3125,172.2734 L177.8438,164.2734 L177.5156,164.2734 L177.5156,164.2734 L177,163.6484 L177,163.2734 L177,162.8984 L177.5156,162.2734 L178.0938,162.2734 L179.9688,162.2734 L180.4844,162.2734 L181,162.8984 L181,163.2734 L181,163.6484 L180.4844,164.2734 L179.9688,164.2734 L179.9688,164.2734 L181.5,169.8047 Z " fill="#000000"/><text fill="#000000" font-family="sans-serif" font-size="12" font-style="italic" lengthAdjust="spacing" textLength="81" x="193.5" y="162.8633">«value object»</text><text fill="#000000" font-family="sans-serif" font-size="14" lengthAdjust="spacing" textLength="30" x="219" y="178.0801">Tare</text><line style="stroke:#181818;stroke-width:0.5;" x1="167.5" x2="274.5" y1="186.0469" y2="186.0469"/></g><!--MD5=[f6a23ce3a300b49f1448f5d1d44095f1]
class Capacity--><g id="elem_Capacity"><rect codeLine="25" fill="#F5F5DC" height="47.0469" id="Capacity" rx="2.5" ry="2.5" style="stroke:#181818;stroke-width:0.5;" width="109" x="310.5" y="147"/><ellipse cx="325.5" cy="166.5234" fill="#FF8B40" rx="11" ry="11" style="stroke:#181818;stroke-width:1.0;"/><path d="M325.5,169.8047 L327.0313,164.2734 L327.0313,164.2734 L326.5156,164.2734 L326,163.6484 L326,163.2734 L326,162.8984 L326.5156,162.2734 L327.0313,162.2734 L328.9063,162.2734 L329.4844,162.2734 L330,162.8984 L330,163.2734 L330,163.6484 L329.4844,164.2734 L329.4844,164.2734 L329.0313,164.2734 L326.6875,172.2734 L324.3125,172.2734 L321.8438,164.2734 L321.5156,164.2734 L321.5156,164.2734 L321,163.6484 L321,163.2734 L321,162.8984 L321.5156,162.2734 L322.0938,162.2734 L323.9688,162.2734 L324.4844,162.2734 L325,162.8984 L325,163.2734 L325,163.6484 L324.4844,164.2734 L323.9688,164.2734 L323.9688,164.2734 L325.5,169.8047 Z " fill="#000000"/><text fill="#000000" font-family="sans-serif" font-size="12" font-style="italic" lengthAdjust="spacing" textLength="81" x="337.5" y="162.8633">«value object»</text><text fill="#000000" font-family="sans-serif" font-size="14" lengthAdjust="spacing" textLength="55" x="350.5" y="178.0801">Capacity</text><line style="stroke:#181818;stroke-width:0.5;" x1="311.5" x2="418.5" y1="186.0469" y2="186.0469"/></g><!--MD5=[2a3409c6df6971d1d90229c9ee7ddb82]
class MaximumBatteryCapacity--><g id="elem_MaximumBatteryCapacity"><rect codeLine="26" fill="#F5F5DC" height="47.0469" id="MaximumBatteryCapacity" rx="2.5" ry="2.5" style="stroke:#181818;stroke-width:0.5;" width="190" x="455" y="147"/><ellipse cx="470" cy="166.5234" fill="#FF8B40" rx="11" ry="11" style="stroke:#181818;stroke-width:1.0;"/><path d="M470,169.8047 L471.5313,164.2734 L471.5313,164.2734 L471.0156,164.2734 L470.5,163.6484 L470.5,163.2734 L470.5,162.8984 L471.0156,162.2734 L471.5313,162.2734 L473.4063,162.2734 L473.9844,162.2734 L474.5,162.8984 L474.5,163.2734 L474.5,163.6484 L473.9844,164.2734 L473.9844,164.2734 L473.5313,164.2734 L471.1875,172.2734 L468.8125,172.2734 L466.3438,164.2734 L466.0156,164.2734 L466.0156,164.2734 L465.5,163.6484 L465.5,163.2734 L465.5,162.8984 L466.0156,162.2734 L466.5938,162.2734 L468.4688,162.2734 L468.9844,162.2734 L469.5,162.8984 L469.5,163.2734 L469.5,163.6484 L468.9844,164.2734 L468.4688,164.2734 L468.4688,164.2734 L470,169.8047 Z " fill="#000000"/><text fill="#000000" font-family="sans-serif" font-size="12" font-style="italic" lengthAdjust="spacing" textLength="81" x="522.5" y="162.8633">«value object»</text><text fill="#000000" font-family="sans-serif" font-size="14" lengthAdjust="spacing" textLength="158" x="484" y="178.0801">MaximumBatteryCapacity</text><line style="stroke:#181818;stroke-width:0.5;" x1="456" x2="644" y1="186.0469" y2="186.0469"/></g><!--MD5=[b2ffe6464b620e310f115679b4550325]
class Autonomy--><g id="elem_Autonomy"><rect codeLine="27" fill="#F5F5DC" height="47.0469" id="Autonomy" rx="2.5" ry="2.5" style="stroke:#181818;stroke-width:0.5;" width="109" x="680.5" y="147"/><ellipse cx="695.5" cy="166.5234" fill="#FF8B40" rx="11" ry="11" style="stroke:#181818;stroke-width:1.0;"/><path d="M695.5,169.8047 L697.0313,164.2734 L697.0313,164.2734 L696.5156,164.2734 L696,163.6484 L696,163.2734 L696,162.8984 L696.5156,162.2734 L697.0313,162.2734 L698.9063,162.2734 L699.4844,162.2734 L700,162.8984 L700,163.2734 L700,163.6484 L699.4844,164.2734 L699.4844,164.2734 L699.0313,164.2734 L696.6875,172.2734 L694.3125,172.2734 L691.8438,164.2734 L691.5156,164.2734 L691.5156,164.2734 L691,163.6484 L691,163.2734 L691,162.8984 L691.5156,162.2734 L692.0938,162.2734 L693.9688,162.2734 L694.4844,162.2734 L695,162.8984 L695,163.2734 L695,163.6484 L694.4844,164.2734 L693.9688,164.2734 L693.9688,164.2734 L695.5,169.8047 Z " fill="#000000"/><text fill="#000000" font-family="sans-serif" font-size="12" font-style="italic" lengthAdjust="spacing" textLength="81" x="707.5" y="162.8633">«value object»</text><text fill="#000000" font-family="sans-serif" font-size="14" lengthAdjust="spacing" textLength="63" x="716.5" y="178.0801">Autonomy</text><line style="stroke:#181818;stroke-width:0.5;" x1="681.5" x2="788.5" y1="186.0469" y2="186.0469"/></g><!--MD5=[497f8a81fab373b5d50e161fd534cef1]
class FastChargeTime--><g id="elem_FastChargeTime"><rect codeLine="28" fill="#F5F5DC" height="47.0469" id="FastChargeTime" rx="2.5" ry="2.5" style="stroke:#181818;stroke-width:0.5;" width="138" x="825" y="147"/><ellipse cx="840" cy="166.5234" fill="#FF8B40" rx="11" ry="11" style="stroke:#181818;stroke-width:1.0;"/><path d="M840,169.8047 L841.5313,164.2734 L841.5313,164.2734 L841.0156,164.2734 L840.5,163.6484 L840.5,163.2734 L840.5,162.8984 L841.0156,162.2734 L841.5313,162.2734 L843.4063,162.2734 L843.9844,162.2734 L844.5,162.8984 L844.5,163.2734 L844.5,163.6484 L843.9844,164.2734 L843.9844,164.2734 L843.5313,164.2734 L841.1875,172.2734 L838.8125,172.2734 L836.3438,164.2734 L836.0156,164.2734 L836.0156,164.2734 L835.5,163.6484 L835.5,163.2734 L835.5,162.8984 L836.0156,162.2734 L836.5938,162.2734 L838.4688,162.2734 L838.9844,162.2734 L839.5,162.8984 L839.5,163.2734 L839.5,163.6484 L838.9844,164.2734 L838.4688,164.2734 L838.4688,164.2734 L840,169.8047 Z " fill="#000000"/><text fill="#000000" font-family="sans-serif" font-size="12" font-style="italic" lengthAdjust="spacing" textLength="81" x="866.5" y="162.8633">«value object»</text><text fill="#000000" font-family="sans-serif" font-size="14" lengthAdjust="spacing" textLength="106" x="854" y="178.0801">FastChargeTime</text><line style="stroke:#181818;stroke-width:0.5;" x1="826" x2="962" y1="186.0469" y2="186.0469"/></g><!--MD5=[d2e49ee8f205cadc7bdc347b4a3591ac]
link Truck to Tare--><g id="link_Truck_Tare"><path codeLine="30" d="M421.41,80.33 C383.02,97.41 321.39,124.84 276.6,144.76 " fill="none" id="Truck-to-Tare" style="stroke:#222222;stroke-width:1.0;"/><polygon fill="#222222" points="271.77,146.91,281.6188,146.89,276.3349,144.87,278.3549,139.5861,271.77,146.91" style="stroke:#222222;stroke-width:1.0;"/><text fill="#000000" font-family="sans-serif" font-size="13" lengthAdjust="spacing" textLength="7" x="278.0647" y="136.1421">1</text></g><!--MD5=[e854a048fc879ecdb8c690b8d25dc5f6]
link Truck to Capacity--><g id="link_Truck_Capacity"><path codeLine="31" d="M437.26,87.03 C422.93,103.38 403.48,125.58 388.37,142.83 " fill="none" id="Truck-to-Capacity" style="stroke:#222222;stroke-width:1.0;"/><polygon fill="#222222" points="385.02,146.65,393.9557,142.5084,388.3115,142.8862,387.9337,137.242,385.02,146.65" style="stroke:#222222;stroke-width:1.0;"/><text fill="#000000" font-family="sans-serif" font-size="13" lengthAdjust="spacing" textLength="7" x="382.4598" y="136.1917">1</text></g><!--MD5=[b86734464f4014d459383a3272448c64]
link Truck to MaximumBatteryCapacity--><g id="link_Truck_MaximumBatteryCapacity"><path codeLine="32" d="M476.95,87.03 C491.44,103.38 511.1,125.58 526.37,142.83 " fill="none" id="Truck-to-MaximumBatteryCapacity" style="stroke:#222222;stroke-width:1.0;"/><polygon fill="#222222" points="529.76,146.65,526.7882,137.2602,526.4453,142.9067,520.7988,142.5638,529.76,146.65" style="stroke:#222222;stroke-width:1.0;"/><text fill="#000000" font-family="sans-serif" font-size="13" lengthAdjust="spacing" textLength="7" x="516.3799" y="136.1917">1</text></g><!--MD5=[700c761c5be81b9344a4cb04ea6dc39b]
link Truck to Autonomy--><g id="link_Truck_Autonomy"><path codeLine="33" d="M492.77,78.01 C538.97,95.46 620,126.07 675.53,147.04 " fill="none" id="Truck-to-Autonomy" style="stroke:#222222;stroke-width:1.0;"/><polygon fill="#222222" points="680.48,148.91,673.4645,141.9975,675.8001,147.1497,670.648,149.4853,680.48,148.91" style="stroke:#222222;stroke-width:1.0;"/><text fill="#000000" font-family="sans-serif" font-size="13" lengthAdjust="spacing" textLength="7" x="665.3209" y="142.6916">1</text></g><!--MD5=[b33eab119b079972d29036f635413610]
link Truck to FastChargeTime--><g id="link_Truck_FastChargeTime"><path codeLine="34" d="M492.58,72.62 C555.91,87.13 692.3,118.65 807,147 C811.14,148.02 815.38,149.08 819.66,150.16 " fill="none" id="Truck-to-FastChargeTime" style="stroke:#222222;stroke-width:1.0;"/><polygon fill="#222222" points="824.7,151.43,816.9389,145.3666,819.8493,150.2173,814.9986,153.1277,824.7,151.43" style="stroke:#222222;stroke-width:1.0;"/><text fill="#000000" font-family="sans-serif" font-size="13" lengthAdjust="spacing" textLength="7" x="810.1925" y="146.5347">1</text></g><!--MD5=[38dbde1187ac56561386ef01cbb7a1d9]
link Truck to TruckId--><g id="link_Truck_TruckId"><path codeLine="35" d="M421.3,73.55 C363.77,88.26 247.09,118.55 149,147 C144.93,148.18 140.74,149.42 136.53,150.69 " fill="none" id="Truck-to-TruckId" style="stroke:#222222;stroke-width:1.0;"/><polygon fill="#222222" points="131.57,152.19,141.3449,153.3951,136.3532,150.7336,139.0147,145.742,131.57,152.19" style="stroke:#222222;stroke-width:1.0;"/><text fill="#000000" font-family="sans-serif" font-size="13" lengthAdjust="spacing" textLength="7" x="139.3732" y="146.5895">1</text></g><!--MD5=[8f39e8dac6feb06d14e764a54b578c89]
@startuml DMLogistics

skinparam classAttributeIconSize 0
hide empty attributes
skinparam classBackgroundColor beige
skinparam ArrowColor #222222

package "<<aggregate>> Logistics"{
    
    entity Truck 
    class TruckId
    class Tare
    class Capacity
    class MaximumBatteryCapacity
    class Autonomy
    class FastChargeTime

}


entity Truck <<entity>>{

}
class TruckId <<(V,#FF8B40) value object>>
class Tare <<(V,#FF8B40) value object>>
class Capacity <<(V,#FF8B40) value object>>
class MaximumBatteryCapacity <<(V,#FF8B40) value object>>
class Autonomy <<(V,#FF8B40) value object>>
class FastChargeTime <<(V,#FF8B40) value object>>

Truck - -> "1" Tare
Truck - -> "1" Capacity 
Truck - -> "1" MaximumBatteryCapacity
Truck - -> "1" Autonomy
Truck - -> "1" FastChargeTime
Truck - -> "1" TruckId

@enduml

PlantUML version 1.2022.12(Sun Oct 23 19:12:26 WEST 2022)
(GPL source distribution)
Java Runtime: OpenJDK Runtime Environment
JVM: OpenJDK 64-Bit Server VM
Default Encoding: Cp1252
Language: pt
Country: BR
--></g></svg>