<?xml version="1.0" encoding="UTF-8" standalone="no"?><svg xmlns="http://www.w3.org/2000/svg" xmlns:xlink="http://www.w3.org/1999/xlink" contentStyleType="text/css" height="217px" preserveAspectRatio="none" style="width:923px;height:217px;background:#FFFFFF;" version="1.1" viewBox="0 0 923 217" width="923px" zoomAndPan="magnify"><defs/><g><!--MD5=[058ee174e53f4d5e43b0ff6bb9b97aa3]
cluster <<aggregate>> Logistics--><g id="cluster_&lt;&lt;aggregate&gt;&gt; Logistics"><path d="M8.5,6 L180.5,6 A3.75,3.75 0 0 1 183,8.5 L190,27.6406 L913.5,27.6406 A2.5,2.5 0 0 1 916,30.1406 L916,207.5 A2.5,2.5 0 0 1 913.5,210 L8.5,210 A2.5,2.5 0 0 1 6,207.5 L6,8.5 A2.5,2.5 0 0 1 8.5,6 " fill="none" style="stroke:#000000;stroke-width:1.5;"/><line style="stroke:#000000;stroke-width:1.5;" x1="6" x2="190" y1="27.6406" y2="27.6406"/><text fill="#000000" font-family="sans-serif" font-size="14" font-weight="bold" lengthAdjust="spacing" textLength="171" x="10" y="20.6738">&lt;&lt;aggregate&gt;&gt; Logistics</text></g><!--MD5=[fff5db4abcb6eec6574b9ea9c3ee0eae]
class Delivery--><g id="elem_Delivery"><rect codeLine="23" fill="#F5F5DC" height="47.0469" id="Delivery" rx="2.5" ry="2.5" style="stroke:#181818;stroke-width:0.5;" width="83" x="441.5" y="40"/><ellipse cx="456.5" cy="59.5234" fill="#ADD1B2" rx="11" ry="11" style="stroke:#181818;stroke-width:1.0;"/><path d="M455,60.5234 L455,62.5234 L459,62.5234 L459,61.5234 L459,61.0391 L459.625,60.5234 L460,60.5234 L460.375,60.5234 L461,61.0391 L461,61.5234 L461,64.5234 L453,64.5234 L452.5156,64.5234 L452,63.8984 L452,63.5234 L452,63.1484 L452.5156,62.5234 L453,62.5234 L453,62.5234 L453,56.5234 L453,56.5234 L452.5156,56.5234 L452,55.8984 L452,55.5234 L452,55.1484 L452.5156,54.5234 L453,54.5234 L461,54.5234 L461,57.5234 L461,58.0078 L460.375,58.5234 L460,58.5234 L459.625,58.5234 L459,58.0078 L459,57.5234 L459,56.5234 L455,56.5234 L455,58.5234 L456,58.5234 L456,58.0391 L456,58.0391 L456.625,57.5234 L457,57.5234 L457.375,57.5234 L458,58.0391 L458,58.5234 L458,60.5234 L458,61.0078 L457.375,61.5234 L457.375,61.5234 L457,61.5234 L456.625,61.5234 L456,61.0078 L456,61.0078 L456,60.5234 L455,60.5234 Z " fill="#000000"/><text fill="#000000" font-family="sans-serif" font-size="12" font-style="italic" lengthAdjust="spacing" textLength="43" x="474.5" y="55.8633">«entity»</text><text fill="#000000" font-family="sans-serif" font-size="14" lengthAdjust="spacing" textLength="51" x="470.5" y="71.0801">Delivery</text><line style="stroke:#181818;stroke-width:0.5;" x1="442.5" x2="523.5" y1="79.0469" y2="79.0469"/></g><!--MD5=[8cc77c1ec6f93b99af9357403afc9a8e]
class DeliveryIndentifier--><g id="elem_DeliveryIndentifier"><rect codeLine="27" fill="#F5F5DC" height="47.0469" id="DeliveryIndentifier" rx="2.5" ry="2.5" style="stroke:#181818;stroke-width:0.5;" width="145" x="22.5" y="147"/><ellipse cx="37.5" cy="166.5234" fill="#FF8B40" rx="11" ry="11" style="stroke:#181818;stroke-width:1.0;"/><path d="M37.5,169.8047 L39.0313,164.2734 L39.0313,164.2734 L38.5156,164.2734 L38,163.6484 L38,163.2734 L38,162.8984 L38.5156,162.2734 L39.0313,162.2734 L40.9063,162.2734 L41.4844,162.2734 L42,162.8984 L42,163.2734 L42,163.6484 L41.4844,164.2734 L41.4844,164.2734 L41.0313,164.2734 L38.6875,172.2734 L36.3125,172.2734 L33.8438,164.2734 L33.5156,164.2734 L33.5156,164.2734 L33,163.6484 L33,163.2734 L33,162.8984 L33.5156,162.2734 L34.0938,162.2734 L35.9688,162.2734 L36.4844,162.2734 L37,162.8984 L37,163.2734 L37,163.6484 L36.4844,164.2734 L35.9688,164.2734 L35.9688,164.2734 L37.5,169.8047 Z " fill="#000000"/><text fill="#000000" font-family="sans-serif" font-size="12" font-style="italic" lengthAdjust="spacing" textLength="81" x="67.5" y="162.8633">«value object»</text><text fill="#000000" font-family="sans-serif" font-size="14" lengthAdjust="spacing" textLength="113" x="51.5" y="178.0801">DeliveryIndentifier</text><line style="stroke:#181818;stroke-width:0.5;" x1="23.5" x2="166.5" y1="186.0469" y2="186.0469"/></g><!--MD5=[c0109763c6886e90c54a3ff04296d3ae]
class DeliveryDate--><g id="elem_DeliveryDate"><rect codeLine="28" fill="#F5F5DC" height="47.0469" id="DeliveryDate" rx="2.5" ry="2.5" style="stroke:#181818;stroke-width:0.5;" width="113" x="202.5" y="147"/><ellipse cx="217.5" cy="166.5234" fill="#FF8B40" rx="11" ry="11" style="stroke:#181818;stroke-width:1.0;"/><path d="M217.5,169.8047 L219.0313,164.2734 L219.0313,164.2734 L218.5156,164.2734 L218,163.6484 L218,163.2734 L218,162.8984 L218.5156,162.2734 L219.0313,162.2734 L220.9063,162.2734 L221.4844,162.2734 L222,162.8984 L222,163.2734 L222,163.6484 L221.4844,164.2734 L221.4844,164.2734 L221.0313,164.2734 L218.6875,172.2734 L216.3125,172.2734 L213.8438,164.2734 L213.5156,164.2734 L213.5156,164.2734 L213,163.6484 L213,163.2734 L213,162.8984 L213.5156,162.2734 L214.0938,162.2734 L215.9688,162.2734 L216.4844,162.2734 L217,162.8984 L217,163.2734 L217,163.6484 L216.4844,164.2734 L215.9688,164.2734 L215.9688,164.2734 L217.5,169.8047 Z " fill="#000000"/><text fill="#000000" font-family="sans-serif" font-size="12" font-style="italic" lengthAdjust="spacing" textLength="81" x="231.5" y="162.8633">«value object»</text><text fill="#000000" font-family="sans-serif" font-size="14" lengthAdjust="spacing" textLength="81" x="231.5" y="178.0801">DeliveryDate</text><line style="stroke:#181818;stroke-width:0.5;" x1="203.5" x2="314.5" y1="186.0469" y2="186.0469"/></g><!--MD5=[251baaeb1cb950a4848d55ebdfd8d6b8]
class DeliveryMass--><g id="elem_DeliveryMass"><rect codeLine="29" fill="#F5F5DC" height="47.0469" id="DeliveryMass" rx="2.5" ry="2.5" style="stroke:#181818;stroke-width:0.5;" width="116" x="351" y="147"/><ellipse cx="366" cy="166.5234" fill="#FF8B40" rx="11" ry="11" style="stroke:#181818;stroke-width:1.0;"/><path d="M366,169.8047 L367.5313,164.2734 L367.5313,164.2734 L367.0156,164.2734 L366.5,163.6484 L366.5,163.2734 L366.5,162.8984 L367.0156,162.2734 L367.5313,162.2734 L369.4063,162.2734 L369.9844,162.2734 L370.5,162.8984 L370.5,163.2734 L370.5,163.6484 L369.9844,164.2734 L369.9844,164.2734 L369.5313,164.2734 L367.1875,172.2734 L364.8125,172.2734 L362.3438,164.2734 L362.0156,164.2734 L362.0156,164.2734 L361.5,163.6484 L361.5,163.2734 L361.5,162.8984 L362.0156,162.2734 L362.5938,162.2734 L364.4688,162.2734 L364.9844,162.2734 L365.5,162.8984 L365.5,163.2734 L365.5,163.6484 L364.9844,164.2734 L364.4688,164.2734 L364.4688,164.2734 L366,169.8047 Z " fill="#000000"/><text fill="#000000" font-family="sans-serif" font-size="12" font-style="italic" lengthAdjust="spacing" textLength="81" x="381.5" y="162.8633">«value object»</text><text fill="#000000" font-family="sans-serif" font-size="14" lengthAdjust="spacing" textLength="84" x="380" y="178.0801">DeliveryMass</text><line style="stroke:#181818;stroke-width:0.5;" x1="352" x2="466" y1="186.0469" y2="186.0469"/></g><!--MD5=[18a836c23c0e4d04592ec32f5657da5f]
class Destination--><g id="elem_Destination"><rect codeLine="30" fill="#F5F5DC" height="47.0469" id="Destination" rx="2.5" ry="2.5" style="stroke:#181818;stroke-width:0.5;" width="109" x="502.5" y="147"/><ellipse cx="517.5" cy="166.5234" fill="#FF8B40" rx="11" ry="11" style="stroke:#181818;stroke-width:1.0;"/><path d="M517.5,169.8047 L519.0313,164.2734 L519.0313,164.2734 L518.5156,164.2734 L518,163.6484 L518,163.2734 L518,162.8984 L518.5156,162.2734 L519.0313,162.2734 L520.9063,162.2734 L521.4844,162.2734 L522,162.8984 L522,163.2734 L522,163.6484 L521.4844,164.2734 L521.4844,164.2734 L521.0313,164.2734 L518.6875,172.2734 L516.3125,172.2734 L513.8438,164.2734 L513.5156,164.2734 L513.5156,164.2734 L513,163.6484 L513,163.2734 L513,162.8984 L513.5156,162.2734 L514.0938,162.2734 L515.9688,162.2734 L516.4844,162.2734 L517,162.8984 L517,163.2734 L517,163.6484 L516.4844,164.2734 L515.9688,164.2734 L515.9688,164.2734 L517.5,169.8047 Z " fill="#000000"/><text fill="#000000" font-family="sans-serif" font-size="12" font-style="italic" lengthAdjust="spacing" textLength="81" x="529.5" y="162.8633">«value object»</text><text fill="#000000" font-family="sans-serif" font-size="14" lengthAdjust="spacing" textLength="71" x="534.5" y="178.0801">Destination</text><line style="stroke:#181818;stroke-width:0.5;" x1="503.5" x2="610.5" y1="186.0469" y2="186.0469"/></g><!--MD5=[3a08e910d794fe5c2696dd9d3f8af374]
class LoadTime--><g id="elem_LoadTime"><rect codeLine="31" fill="#F5F5DC" height="47.0469" id="LoadTime" rx="2.5" ry="2.5" style="stroke:#181818;stroke-width:0.5;" width="109" x="646.5" y="147"/><ellipse cx="661.5" cy="166.5234" fill="#FF8B40" rx="11" ry="11" style="stroke:#181818;stroke-width:1.0;"/><path d="M661.5,169.8047 L663.0313,164.2734 L663.0313,164.2734 L662.5156,164.2734 L662,163.6484 L662,163.2734 L662,162.8984 L662.5156,162.2734 L663.0313,162.2734 L664.9063,162.2734 L665.4844,162.2734 L666,162.8984 L666,163.2734 L666,163.6484 L665.4844,164.2734 L665.4844,164.2734 L665.0313,164.2734 L662.6875,172.2734 L660.3125,172.2734 L657.8438,164.2734 L657.5156,164.2734 L657.5156,164.2734 L657,163.6484 L657,163.2734 L657,162.8984 L657.5156,162.2734 L658.0938,162.2734 L659.9688,162.2734 L660.4844,162.2734 L661,162.8984 L661,163.2734 L661,163.6484 L660.4844,164.2734 L659.9688,164.2734 L659.9688,164.2734 L661.5,169.8047 Z " fill="#000000"/><text fill="#000000" font-family="sans-serif" font-size="12" font-style="italic" lengthAdjust="spacing" textLength="81" x="673.5" y="162.8633">«value object»</text><text fill="#000000" font-family="sans-serif" font-size="14" lengthAdjust="spacing" textLength="63" x="682.5" y="178.0801">LoadTime</text><line style="stroke:#181818;stroke-width:0.5;" x1="647.5" x2="754.5" y1="186.0469" y2="186.0469"/></g><!--MD5=[5a6ecd90a61fb6d327c4e7adaee142fa]
class UnloadTime--><g id="elem_UnloadTime"><rect codeLine="32" fill="#F5F5DC" height="47.0469" id="UnloadTime" rx="2.5" ry="2.5" style="stroke:#181818;stroke-width:0.5;" width="109" x="790.5" y="147"/><ellipse cx="805.5" cy="166.5234" fill="#FF8B40" rx="11" ry="11" style="stroke:#181818;stroke-width:1.0;"/><path d="M805.5,169.8047 L807.0313,164.2734 L807.0313,164.2734 L806.5156,164.2734 L806,163.6484 L806,163.2734 L806,162.8984 L806.5156,162.2734 L807.0313,162.2734 L808.9063,162.2734 L809.4844,162.2734 L810,162.8984 L810,163.2734 L810,163.6484 L809.4844,164.2734 L809.4844,164.2734 L809.0313,164.2734 L806.6875,172.2734 L804.3125,172.2734 L801.8438,164.2734 L801.5156,164.2734 L801.5156,164.2734 L801,163.6484 L801,163.2734 L801,162.8984 L801.5156,162.2734 L802.0938,162.2734 L803.9688,162.2734 L804.4844,162.2734 L805,162.8984 L805,163.2734 L805,163.6484 L804.4844,164.2734 L803.9688,164.2734 L803.9688,164.2734 L805.5,169.8047 Z " fill="#000000"/><text fill="#000000" font-family="sans-serif" font-size="12" font-style="italic" lengthAdjust="spacing" textLength="81" x="817.5" y="162.8633">«value object»</text><text fill="#000000" font-family="sans-serif" font-size="14" lengthAdjust="spacing" textLength="75" x="820.5" y="178.0801">UnloadTime</text><line style="stroke:#181818;stroke-width:0.5;" x1="791.5" x2="898.5" y1="186.0469" y2="186.0469"/></g><!--MD5=[de7cab7e0a14e8137bfe130b812cb64d]
link Delivery to DeliveryDate--><g id="link_Delivery_DeliveryDate"><path codeLine="35" d="M441.39,84 C404.92,101.1 351.69,126.05 312.15,144.59 " fill="none" id="Delivery-to-DeliveryDate" style="stroke:#222222;stroke-width:1.0;"/><polygon fill="#222222" points="307.39,146.82,317.2372,146.6371,311.9206,144.7048,313.8528,139.3882,307.39,146.82" style="stroke:#222222;stroke-width:1.0;"/><text fill="#000000" font-family="sans-serif" font-size="13" lengthAdjust="spacing" textLength="7" x="312.4542" y="136.4073">1</text></g><!--MD5=[ae360636ad3bb53ec8568595fe6787c3]
link Delivery to DeliveryIndentifier--><g id="link_Delivery_DeliveryIndentifier"><path codeLine="36" d="M441.48,75.74 C377.58,93.03 254.08,126.45 173.11,148.36 " fill="none" id="Delivery-to-DeliveryIndentifier" style="stroke:#222222;stroke-width:1.0;"/><polygon fill="#222222" points="167.84,149.79,177.5704,151.3127,172.6681,148.4901,175.4906,143.5878,167.84,149.79" style="stroke:#222222;stroke-width:1.0;"/><text fill="#000000" font-family="sans-serif" font-size="13" lengthAdjust="spacing" textLength="7" x="175.7126" y="144.7255">1</text></g><!--MD5=[b3ffb707517fb1b081127e1c6ff27c4c]
link Delivery to DeliveryMass--><g id="link_Delivery_DeliveryMass"><path codeLine="37" d="M467.13,87.03 C455.69,103.25 440.22,125.21 428.11,142.39 " fill="none" id="Delivery-to-DeliveryMass" style="stroke:#222222;stroke-width:1.0;"/><polygon fill="#222222" points="425.1,146.65,433.5594,141.6063,427.9845,142.566,427.0249,136.9911,425.1,146.65" style="stroke:#222222;stroke-width:1.0;"/><text fill="#000000" font-family="sans-serif" font-size="13" lengthAdjust="spacing" textLength="7" x="421.4863" y="136.1917">1</text></g><!--MD5=[e609cd58dd77647f3c3731c0f86c3b9c]
link Delivery to Destination--><g id="link_Delivery_Destination"><path codeLine="38" d="M498.87,87.03 C510.31,103.25 525.78,125.21 537.89,142.39 " fill="none" id="Delivery-to-Destination" style="stroke:#222222;stroke-width:1.0;"/><polygon fill="#222222" points="540.9,146.65,538.9751,136.9911,538.0155,142.566,532.4406,141.6063,540.9,146.65" style="stroke:#222222;stroke-width:1.0;"/><text fill="#000000" font-family="sans-serif" font-size="13" lengthAdjust="spacing" textLength="7" x="528.6325" y="136.1917">1</text></g><!--MD5=[ce05569784bc561b49fc23afabe7a012]
link Delivery to LoadTime--><g id="link_Delivery_LoadTime"><path codeLine="39" d="M524.52,84.5 C560.01,101.59 611.25,126.27 649.38,144.64 " fill="none" id="Delivery-to-LoadTime" style="stroke:#222222;stroke-width:1.0;"/><polygon fill="#222222" points="653.96,146.84,647.5927,139.3262,649.4569,144.6671,644.116,146.5312,653.96,146.84" style="stroke:#222222;stroke-width:1.0;"/><text fill="#000000" font-family="sans-serif" font-size="13" lengthAdjust="spacing" textLength="7" x="633.3774" y="136.4327">1</text></g><!--MD5=[f4a50f60a2082cd8e2a0efeeb5dc5cdf]
link Delivery to UnloadTime--><g id="link_Delivery_UnloadTime"><path codeLine="40" d="M524.88,76.05 C581.35,91.71 684.97,120.73 773,147 C777.06,148.21 781.24,149.48 785.45,150.76 " fill="none" id="Delivery-to-UnloadTime" style="stroke:#222222;stroke-width:1.0;"/><polygon fill="#222222" points="790.4,152.28,782.9553,145.832,785.6168,150.8236,780.6251,153.4851,790.4,152.28" style="stroke:#222222;stroke-width:1.0;"/><text fill="#000000" font-family="sans-serif" font-size="13" lengthAdjust="spacing" textLength="7" x="775.5928" y="146.6916">1</text></g><!--MD5=[6231cccb18aaa3fa8054cb7f88116929]
@startuml DMLogistics

skinparam classAttributeIconSize 0
hide empty attributes
skinparam classBackgroundColor beige
skinparam ArrowColor #222222

package "<<aggregate>> Logistics"{
   
    entity Delivery 
    
    class DeliveryIndentifier
    class DeliveryDate
    class DeliveryMass
    class Destination
    class LoadTime
    class UnloadTime
    

}



entity Delivery <<entity>>{
  
}

class DeliveryIndentifier <<(V,#FF8B40) value object>>
class DeliveryDate <<(V,#FF8B40) value object>>
class DeliveryMass <<(V,#FF8B40) value object>>
class Destination <<(V,#FF8B40) value object>>
class LoadTime <<(V,#FF8B40) value object>>
class UnloadTime <<(V,#FF8B40) value object>>


Delivery - ->"1" DeliveryDate
Delivery - -> "1" DeliveryIndentifier
Delivery - -> "1" DeliveryMass
Delivery - -> "1" Destination
Delivery - -> "1" LoadTime
Delivery - ->"1" UnloadTime

@enduml

PlantUML version 1.2022.12(Sun Oct 23 19:12:26 WEST 2022)
(GPL source distribution)
Java Runtime: OpenJDK Runtime Environment
JVM: OpenJDK 64-Bit Server VM
Default Encoding: Cp1252
Language: pt
Country: BR
--></g></svg>