{
    "asset" : {
        "generator" : "Khronos glTF Blender I/O v3.4.50",
        "version" : "2.0"
    },
    "scene" : 0,
    "scenes" : [
        {
            "name" : "Scene",
            "nodes" : [
                22
            ]
        }
    ],
    "nodes" : [
        {
            "mesh" : 0,
            "name" : "italeri truck_smdimportmtl_0"
        },
        {
            "children" : [
                0
            ],
            "name" : "italeri truck",
            "rotation" : [
                -0.70710688829422,
                0,
                0,
                0.7071066498756409
            ],
            "translation" : [
                -0.7686090469360352,
                7.629395440744702e-06,
                99.7138671875
            ]
        },
        {
            "mesh" : 1,
            "name" : "L1_smdimportmtl_0",
            "translation" : [
                -3.814697265625e-06,
                0,
                -2.0921770556014962e-06
            ]
        },
        {
            "children" : [
                2
            ],
            "name" : "Object_21",
            "rotation" : [
                -0.70710688829422,
                0,
                0,
                0.7071066498756409
            ],
            "translation" : [
                3.814697265625e-06,
                0,
                -3.823972747341031e-06
            ]
        },
        {
            "children" : [
                3
            ],
            "name" : "L1",
            "translation" : [
                41.04460906982422,
                21.47455406188965,
                257.58197021484375
            ]
        },
        {
            "mesh" : 2,
            "name" : "L2_smdimportmtl_0",
            "translation" : [
                -3.814697265625e-06,
                0,
                -2.5789254323171917e-06
            ]
        },
        {
            "children" : [
                5
            ],
            "name" : "Object_6",
            "rotation" : [
                -0.70710688829422,
                0,
                0,
                0.7071066498756409
            ],
            "translation" : [
                3.814697265625e-06,
                2.7047735784435645e-06,
                1.1434809493948705e-05
            ]
        },
        {
            "children" : [
                6
            ],
            "name" : "L2",
            "translation" : [
                42.243743896484375,
                21.47454833984375,
                -102.63400268554688
            ]
        },
        {
            "mesh" : 3,
            "name" : "L3_smdimportmtl_0",
            "translation" : [
                -3.814697265625e-06,
                1.6197471268242225e-05,
                0
            ]
        },
        {
            "children" : [
                8
            ],
            "name" : "Object_9",
            "rotation" : [
                -0.70710688829422,
                0,
                0,
                0.7071066498756409
            ],
            "translation" : [
                3.814697265625e-06,
                2.1966789063299075e-06,
                -3.823981387540698e-06
            ]
        },
        {
            "children" : [
                9
            ],
            "name" : "L3",
            "translation" : [
                42.243743896484375,
                21.47454833984375,
                -159.04342651367188
            ]
        },
        {
            "mesh" : 4,
            "name" : "R 2_smdimportmtl_0",
            "translation" : [
                -3.814697265625e-06,
                0,
                2.5789254323171917e-06
            ]
        },
        {
            "children" : [
                11
            ],
            "name" : "Object_12",
            "rotation" : [
                -0.70710688829422,
                0,
                0,
                0.7071066498756409
            ],
            "translation" : [
                3.814697265625e-06,
                -2.7047735784435645e-06,
                -1.1434809493948705e-05
            ]
        },
        {
            "children" : [
                12
            ],
            "name" : "R 2",
            "scale" : [
                -1,
                -1,
                -1
            ],
            "translation" : [
                -43.76392364501953,
                21.47454833984375,
                -102.63400268554688
            ]
        },
        {
            "mesh" : 5,
            "name" : "R 3_smdimportmtl_0",
            "translation" : [
                -3.814697265625e-06,
                -1.6197471268242225e-05,
                0
            ]
        },
        {
            "children" : [
                14
            ],
            "name" : "Object_15",
            "rotation" : [
                -0.70710688829422,
                0,
                0,
                0.7071066498756409
            ],
            "translation" : [
                3.814697265625e-06,
                -2.1966789063299075e-06,
                3.823981387540698e-06
            ]
        },
        {
            "children" : [
                15
            ],
            "name" : "R 3",
            "scale" : [
                -1,
                -1,
                -1
            ],
            "translation" : [
                -43.76392364501953,
                21.47454833984375,
                -159.04342651367188
            ]
        },
        {
            "mesh" : 6,
            "name" : "R1_smdimportmtl_0",
            "translation" : [
                3.814697265625e-06,
                0,
                -2.0921770556014962e-06
            ]
        },
        {
            "children" : [
                17
            ],
            "name" : "Object_18",
            "rotation" : [
                -0.70710688829422,
                0,
                0,
                0.7071066498756409
            ],
            "translation" : [
                -3.814697265625e-06,
                0,
                -3.823972747341031e-06
            ]
        },
        {
            "children" : [
                18
            ],
            "name" : "R1",
            "translation" : [
                -42.581764221191406,
                21.47455406188965,
                257.58197021484375
            ]
        },
        {
            "children" : [
                1,
                4,
                7,
                10,
                13,
                16,
                19
            ],
            "name" : "RootNode"
        },
        {
            "children" : [
                20
            ],
            "name" : "b5d1245248c14bd8802c6a6e8142f195.fbx",
            "rotation" : [
                0.70710688829422,
                0,
                0,
                0.7071066498756409
            ]
        },
        {
            "children" : [
                21
            ],
            "name" : "Sketchfab_model"
        }
    ],
    "materials" : [
        {
            "doubleSided" : true,
            "name" : "smdimportmtl",
            "pbrMetallicRoughness" : {
                "baseColorTexture" : {
                    "index" : 0
                },
                "metallicFactor" : 0,
                "roughnessFactor" : 0.8929713368415833
            }
        }
    ],
    "meshes" : [
        {
            "name" : "italeri truck_smdimportmtl_0",
            "primitives" : [
                {
                    "attributes" : {
                        "POSITION" : 0,
                        "TEXCOORD_0" : 1,
                        "NORMAL" : 2
                    },
                    "indices" : 3,
                    "material" : 0
                }
            ]
        },
        {
            "name" : "L1_smdimportmtl_0",
            "primitives" : [
                {
                    "attributes" : {
                        "POSITION" : 4,
                        "TEXCOORD_0" : 5,
                        "NORMAL" : 6
                    },
                    "indices" : 7,
                    "material" : 0
                }
            ]
        },
        {
            "name" : "L2_smdimportmtl_0",
            "primitives" : [
                {
                    "attributes" : {
                        "POSITION" : 8,
                        "TEXCOORD_0" : 9,
                        "NORMAL" : 10
                    },
                    "indices" : 11,
                    "material" : 0
                }
            ]
        },
        {
            "name" : "L3_smdimportmtl_0",
            "primitives" : [
                {
                    "attributes" : {
                        "POSITION" : 12,
                        "TEXCOORD_0" : 13,
                        "NORMAL" : 14
                    },
                    "indices" : 11,
                    "material" : 0
                }
            ]
        },
        {
            "name" : "R 2_smdimportmtl_0",
            "primitives" : [
                {
                    "attributes" : {
                        "POSITION" : 15,
                        "TEXCOORD_0" : 16,
                        "NORMAL" : 17
                    },
                    "indices" : 11,
                    "material" : 0
                }
            ]
        },
        {
            "name" : "R 3_smdimportmtl_0",
            "primitives" : [
                {
                    "attributes" : {
                        "POSITION" : 18,
                        "TEXCOORD_0" : 19,
                        "NORMAL" : 20
                    },
                    "indices" : 11,
                    "material" : 0
                }
            ]
        },
        {
            "name" : "R1_smdimportmtl_0",
            "primitives" : [
                {
                    "attributes" : {
                        "POSITION" : 21,
                        "TEXCOORD_0" : 22,
                        "NORMAL" : 23
                    },
                    "indices" : 24,
                    "material" : 0
                }
            ]
        }
    ],
    "textures" : [
        {
            "sampler" : 0,
            "source" : 0
        }
    ],
    "images" : [
        {
            "bufferView" : 4,
            "mimeType" : "image/jpeg",
            "name" : "smdimportmtl_baseColor"
        }
    ],
    "accessors" : [
        {
            "bufferView" : 0,
            "componentType" : 5126,
            "count" : 4587,
            "max" : [
                64.80726623535156,
                310.1585998535156,
                160.5224609375
            ],
            "min" : [
                -62.50137710571289,
                -187.37234497070312,
                16.416645050048828
            ],
            "type" : "VEC3"
        },
        {
            "bufferView" : 1,
            "componentType" : 5126,
            "count" : 4587,
            "type" : "VEC2"
        },
        {
            "bufferView" : 2,
            "componentType" : 5126,
            "count" : 4587,
            "type" : "VEC3"
        },
        {
            "bufferView" : 3,
            "componentType" : 5123,
            "count" : 10857,
            "type" : "SCALAR"
        },
        {
            "bufferView" : 5,
            "componentType" : 5126,
            "count" : 234,
            "max" : [
                6.986698150634766,
                21.89569091796875,
                21.339200973510742
            ],
            "min" : [
                -6.9866943359375,
                -21.895660400390625,
                -21.33919906616211
            ],
            "type" : "VEC3"
        },
        {
            "bufferView" : 6,
            "componentType" : 5126,
            "count" : 234,
            "type" : "VEC2"
        },
        {
            "bufferView" : 7,
            "componentType" : 5126,
            "count" : 234,
            "type" : "VEC3"
        },
        {
            "bufferView" : 8,
            "componentType" : 5123,
            "count" : 684,
            "type" : "SCALAR"
        },
        {
            "bufferView" : 9,
            "componentType" : 5126,
            "count" : 194,
            "max" : [
                14.151050567626953,
                21.895660400390625,
                21.339197158813477
            ],
            "min" : [
                -14.151050567626953,
                -21.89569091796875,
                -21.339214324951172
            ],
            "type" : "VEC3"
        },
        {
            "bufferView" : 10,
            "componentType" : 5126,
            "count" : 194,
            "type" : "VEC2"
        },
        {
            "bufferView" : 11,
            "componentType" : 5126,
            "count" : 194,
            "type" : "VEC3"
        },
        {
            "bufferView" : 12,
            "componentType" : 5123,
            "count" : 618,
            "type" : "SCALAR"
        },
        {
            "bufferView" : 13,
            "componentType" : 5126,
            "count" : 194,
            "max" : [
                14.151050567626953,
                21.895660400390625,
                21.339197158813477
            ],
            "min" : [
                -14.151050567626953,
                -21.89569091796875,
                -21.339214324951172
            ],
            "type" : "VEC3"
        },
        {
            "bufferView" : 14,
            "componentType" : 5126,
            "count" : 194,
            "type" : "VEC2"
        },
        {
            "bufferView" : 15,
            "componentType" : 5126,
            "count" : 194,
            "type" : "VEC3"
        },
        {
            "bufferView" : 16,
            "componentType" : 5126,
            "count" : 194,
            "max" : [
                14.151050567626953,
                21.895660400390625,
                21.339197158813477
            ],
            "min" : [
                -14.151050567626953,
                -21.89569091796875,
                -21.339214324951172
            ],
            "type" : "VEC3"
        },
        {
            "bufferView" : 17,
            "componentType" : 5126,
            "count" : 194,
            "type" : "VEC2"
        },
        {
            "bufferView" : 18,
            "componentType" : 5126,
            "count" : 194,
            "type" : "VEC3"
        },
        {
            "bufferView" : 19,
            "componentType" : 5126,
            "count" : 194,
            "max" : [
                14.151050567626953,
                21.895660400390625,
                21.339197158813477
            ],
            "min" : [
                -14.151050567626953,
                -21.89569091796875,
                -21.339214324951172
            ],
            "type" : "VEC3"
        },
        {
            "bufferView" : 20,
            "componentType" : 5126,
            "count" : 194,
            "type" : "VEC2"
        },
        {
            "bufferView" : 21,
            "componentType" : 5126,
            "count" : 194,
            "type" : "VEC3"
        },
        {
            "bufferView" : 22,
            "componentType" : 5126,
            "count" : 230,
            "max" : [
                6.9866943359375,
                21.89569091796875,
                21.339200973510742
            ],
            "min" : [
                -6.986698150634766,
                -21.895660400390625,
                -21.339202880859375
            ],
            "type" : "VEC3"
        },
        {
            "bufferView" : 23,
            "componentType" : 5126,
            "count" : 230,
            "type" : "VEC2"
        },
        {
            "bufferView" : 24,
            "componentType" : 5126,
            "count" : 230,
            "type" : "VEC3"
        },
        {
            "bufferView" : 25,
            "componentType" : 5123,
            "count" : 684,
            "type" : "SCALAR"
        }
    ],
    "bufferViews" : [
        {
            "buffer" : 0,
            "byteLength" : 55044,
            "byteOffset" : 0,
            "target" : 34962
        },
        {
            "buffer" : 0,
            "byteLength" : 36696,
            "byteOffset" : 55044,
            "target" : 34962
        },
        {
            "buffer" : 0,
            "byteLength" : 55044,
            "byteOffset" : 91740,
            "target" : 34962
        },
        {
            "buffer" : 0,
            "byteLength" : 21714,
            "byteOffset" : 146784,
            "target" : 34963
        },
        {
            "buffer" : 0,
            "byteLength" : 823049,
            "byteOffset" : 168500
        },
        {
            "buffer" : 0,
            "byteLength" : 2808,
            "byteOffset" : 991552,
            "target" : 34962
        },
        {
            "buffer" : 0,
            "byteLength" : 1872,
            "byteOffset" : 994360,
            "target" : 34962
        },
        {
            "buffer" : 0,
            "byteLength" : 2808,
            "byteOffset" : 996232,
            "target" : 34962
        },
        {
            "buffer" : 0,
            "byteLength" : 1368,
            "byteOffset" : 999040,
            "target" : 34963
        },
        {
            "buffer" : 0,
            "byteLength" : 2328,
            "byteOffset" : 1000408,
            "target" : 34962
        },
        {
            "buffer" : 0,
            "byteLength" : 1552,
            "byteOffset" : 1002736,
            "target" : 34962
        },
        {
            "buffer" : 0,
            "byteLength" : 2328,
            "byteOffset" : 1004288,
            "target" : 34962
        },
        {
            "buffer" : 0,
            "byteLength" : 1236,
            "byteOffset" : 1006616,
            "target" : 34963
        },
        {
            "buffer" : 0,
            "byteLength" : 2328,
            "byteOffset" : 1007852,
            "target" : 34962
        },
        {
            "buffer" : 0,
            "byteLength" : 1552,
            "byteOffset" : 1010180,
            "target" : 34962
        },
        {
            "buffer" : 0,
            "byteLength" : 2328,
            "byteOffset" : 1011732,
            "target" : 34962
        },
        {
            "buffer" : 0,
            "byteLength" : 2328,
            "byteOffset" : 1014060,
            "target" : 34962
        },
        {
            "buffer" : 0,
            "byteLength" : 1552,
            "byteOffset" : 1016388,
            "target" : 34962
        },
        {
            "buffer" : 0,
            "byteLength" : 2328,
            "byteOffset" : 1017940,
            "target" : 34962
        },
        {
            "buffer" : 0,
            "byteLength" : 2328,
            "byteOffset" : 1020268,
            "target" : 34962
        },
        {
            "buffer" : 0,
            "byteLength" : 1552,
            "byteOffset" : 1022596,
            "target" : 34962
        },
        {
            "buffer" : 0,
            "byteLength" : 2328,
            "byteOffset" : 1024148,
            "target" : 34962
        },
        {
            "buffer" : 0,
            "byteLength" : 2760,
            "byteOffset" : 1026476,
            "target" : 34962
        },
        {
            "buffer" : 0,
            "byteLength" : 1840,
            "byteOffset" : 1029236,
            "target" : 34962
        },
        {
            "buffer" : 0,
            "byteLength" : 2760,
            "byteOffset" : 1031076,
            "target" : 34962
        },
        {
            "buffer" : 0,
            "byteLength" : 1368,
            "byteOffset" : 1033836,
            "target" : 34963
        }
    ],
    "samplers" : [
        {
            "magFilter" : 9729,
            "minFilter" : 9987
        }
    ],
    "buffers" : [
        {
            "byteLength" : 1035204,
            "uri" : "data:application/octet-stream;base64,"
        }
    ]
}
