{
  "accessors": [
    {
      "bufferView": 2,
      "componentType": 5126,
      "count": 4027,
      "max": [
        64.80726623535156,
        310.1585998535156,
        160.5224609375
      ],
      "min": [
        -62.50137710571289,
        -187.37234497070313,
        16.416645050048828
      ],
      "type": "VEC3"
    },
    {
      "bufferView": 2,
      "byteOffset": 48324,
      "componentType": 5126,
      "count": 4027,
      "max": [
        1.0,
        1.0,
        1.0
      ],
      "min": [
        -1.0,
        -1.0,
        -1.0
      ],
      "type": "VEC3"
    },
    {
      "bufferView": 1,
      "componentType": 5126,
      "count": 4027,
      "max": [
        0.99788498878479,
        1.0021629333496094
      ],
      "min": [
        0.0029980000108480453,
        0.016745686531066895
      ],
      "type": "VEC2"
    },
    {
      "bufferView": 0,
      "componentType": 5125,
      "count": 10857,
      "type": "SCALAR"
    },
    {
      "bufferView": 2,
      "byteOffset": 96648,
      "componentType": 5126,
      "count": 185,
      "max": [
        14.151050567626953,
        21.895660400390625,
        21.339197158813477
      ],
      "min": [
        -14.151050567626953,
        -21.89569091796875,
        -21.339214324951172
      ],
      "type": "VEC3"
    },
    {
      "bufferView": 2,
      "byteOffset": 98868,
      "componentType": 5126,
      "count": 185,
      "max": [
        1.0,
        0.9814716577529907,
        0.9814717769622803
      ],
      "min": [
        -0.9999999403953552,
        -0.9814717769622803,
        -0.9918743968009949
      ],
      "type": "VEC3"
    },
    {
      "bufferView": 1,
      "byteOffset": 32216,
      "componentType": 5126,
      "count": 185,
      "max": [
        0.6383919715881348,
        0.9733326435089111
      ],
      "min": [
        0.0031300000846385956,
        0.5058275461196899
      ],
      "type": "VEC2"
    },
    {
      "bufferView": 0,
      "byteOffset": 43428,
      "componentType": 5125,
      "count": 618,
      "type": "SCALAR"
    },
    {
      "bufferView": 2,
      "byteOffset": 101088,
      "componentType": 5126,
      "count": 185,
      "max": [
        14.151050567626953,
        21.895660400390625,
        21.339197158813477
      ],
      "min": [
        -14.151050567626953,
        -21.89569091796875,
        -21.339214324951172
      ],
      "type": "VEC3"
    },
    {
      "bufferView": 2,
      "byteOffset": 103308,
      "componentType": 5126,
      "count": 185,
      "max": [
        1.0,
        0.9814716577529907,
        0.9814717769622803
      ],
      "min": [
        -0.9999999403953552,
        -0.9814717769622803,
        -0.9918743968009949
      ],
      "type": "VEC3"
    },
    {
      "bufferView": 1,
      "byteOffset": 33696,
      "componentType": 5126,
      "count": 185,
      "max": [
        0.6383919715881348,
        0.9733326435089111
      ],
      "min": [
        0.0031300000846385956,
        0.5058275461196899
      ],
      "type": "VEC2"
    },
    {
      "bufferView": 0,
      "byteOffset": 45900,
      "componentType": 5125,
      "count": 618,
      "type": "SCALAR"
    },
    {
      "bufferView": 2,
      "byteOffset": 105528,
      "componentType": 5126,
      "count": 185,
      "max": [
        14.151050567626953,
        21.895660400390625,
        21.339197158813477
      ],
      "min": [
        -14.151050567626953,
        -21.89569091796875,
        -21.339214324951172
      ],
      "type": "VEC3"
    },
    {
      "bufferView": 2,
      "byteOffset": 107748,
      "componentType": 5126,
      "count": 185,
      "max": [
        1.0,
        0.9814716577529907,
        0.9814717769622803
      ],
      "min": [
        -0.9999999403953552,
        -0.9814717769622803,
        -0.9918743968009949
      ],
      "type": "VEC3"
    },
    {
      "bufferView": 1,
      "byteOffset": 35176,
      "componentType": 5126,
      "count": 185,
      "max": [
        0.6383919715881348,
        0.9733326435089111
      ],
      "min": [
        0.0031300000846385956,
        0.5058275461196899
      ],
      "type": "VEC2"
    },
    {
      "bufferView": 0,
      "byteOffset": 48372,
      "componentType": 5125,
      "count": 618,
      "type": "SCALAR"
    },
    {
      "bufferView": 2,
      "byteOffset": 109968,
      "componentType": 5126,
      "count": 185,
      "max": [
        14.151050567626953,
        21.895660400390625,
        21.339197158813477
      ],
      "min": [
        -14.151050567626953,
        -21.89569091796875,
        -21.339214324951172
      ],
      "type": "VEC3"
    },
    {
      "bufferView": 2,
      "byteOffset": 112188,
      "componentType": 5126,
      "count": 185,
      "max": [
        1.0,
        0.9814716577529907,
        0.9814717769622803
      ],
      "min": [
        -0.9999999403953552,
        -0.9814717769622803,
        -0.9918743968009949
      ],
      "type": "VEC3"
    },
    {
      "bufferView": 1,
      "byteOffset": 36656,
      "componentType": 5126,
      "count": 185,
      "max": [
        0.6383919715881348,
        0.9733326435089111
      ],
      "min": [
        0.0031300000846385956,
        0.5058275461196899
      ],
      "type": "VEC2"
    },
    {
      "bufferView": 0,
      "byteOffset": 50844,
      "componentType": 5125,
      "count": 618,
      "type": "SCALAR"
    },
    {
      "bufferView": 2,
      "byteOffset": 114408,
      "componentType": 5126,
      "count": 195,
      "max": [
        6.9866943359375,
        21.89569091796875,
        21.339200973510742
      ],
      "min": [
        -6.986698150634766,
        -21.895660400390625,
        -21.339202880859375
      ],
      "type": "VEC3"
    },
    {
      "bufferView": 2,
      "byteOffset": 116748,
      "componentType": 5126,
      "count": 195,
      "max": [
        0.9999998807907104,
        0.9814715385437012,
        0.9814714789390564
      ],
      "min": [
        -1.0,
        -0.9814715385437012,
        -0.9918743371963501
      ],
      "type": "VEC3"
    },
    {
      "bufferView": 1,
      "byteOffset": 38136,
      "componentType": 5126,
      "count": 195,
      "max": [
        0.49496498703956604,
        0.9985485076904297
      ],
      "min": [
        0.003341000061482191,
        0.6642265915870667
      ],
      "type": "VEC2"
    },
    {
      "bufferView": 0,
      "byteOffset": 53316,
      "componentType": 5125,
      "count": 684,
      "type": "SCALAR"
    },
    {
      "bufferView": 2,
      "byteOffset": 119088,
      "componentType": 5126,
      "count": 195,
      "max": [
        6.986698150634766,
        21.89569091796875,
        21.339200973510742
      ],
      "min": [
        -6.9866943359375,
        -21.895660400390625,
        -21.33919906616211
      ],
      "type": "VEC3"
    },
    {
      "bufferView": 2,
      "byteOffset": 121428,
      "componentType": 5126,
      "count": 195,
      "max": [
        1.0,
        0.9814714789390564,
        0.9814714789390564
      ],
      "min": [
        -0.9999998807907104,
        -0.9814714789390564,
        -0.9918743371963501
      ],
      "type": "VEC3"
    },
    {
      "bufferView": 1,
      "byteOffset": 39696,
      "componentType": 5126,
      "count": 195,
      "max": [
        0.49496498703956604,
        0.9985485076904297
      ],
      "min": [
        0.003341000061482191,
        0.6642265915870667
      ],
      "type": "VEC2"
    },
    {
      "bufferView": 0,
      "byteOffset": 56052,
      "componentType": 5125,
      "count": 684,
      "type": "SCALAR"
    }
  ],
  "asset": {
    "extras": {
      "author": "H.A.K_Niazi (https://sketchfab.com/hasnatahmedkhan216)",
      "license": "CC-BY-4.0 (http://creativecommons.org/licenses/by/4.0/)",
      "source": "https://sketchfab.com/3d-models/italeri-truck-efdce2d230764de599cd574f5a20b55c",
      "title": "Italeri Truck"
    },
    "generator": "Sketchfab-12.67.0",
    "version": "2.0"
  },
  "bufferViews": [
    {
      "buffer": 0,
      "byteLength": 58788,
      "name": "floatBufferViews",
      "target": 34963
    },
    {
      "buffer": 0,
      "byteLength": 41256,
      "byteOffset": 58788,
      "byteStride": 8,
      "name": "floatBufferViews",
      "target": 34962
    },
    {
      "buffer": 0,
      "byteLength": 123768,
      "byteOffset": 100044,
      "byteStride": 12,
      "name": "floatBufferViews",
      "target": 34962
    }
  ],
  "buffers": [
    {
      "byteLength": 223812,
      "uri": "scene.bin"
    }
  ],
  "images": [
    {
      "uri": "textures/smdimportmtl_baseColor.jpeg"
    }
  ],
  "materials": [
    {
      "doubleSided": true,
      "name": "smdimportmtl",
      "pbrMetallicRoughness": {
        "baseColorTexture": {
          "index": 0
        },
        "metallicFactor": 0.0,
        "roughnessFactor": 0.8929713596497552
      }
    }
  ],
  "meshes": [
    {
      "name": "italeri truck_smdimportmtl_0",
      "primitives": [
        {
          "attributes": {
            "NORMAL": 1,
            "POSITION": 0,
            "TEXCOORD_0": 2
          },
          "indices": 3,
          "material": 0,
          "mode": 4
        }
      ]
    },
    {
      "name": "L2_smdimportmtl_0",
      "primitives": [
        {
          "attributes": {
            "NORMAL": 5,
            "POSITION": 4,
            "TEXCOORD_0": 6
          },
          "indices": 7,
          "material": 0,
          "mode": 4
        }
      ]
    },
    {
      "name": "L3_smdimportmtl_0",
      "primitives": [
        {
          "attributes": {
            "NORMAL": 9,
            "POSITION": 8,
            "TEXCOORD_0": 10
          },
          "indices": 11,
          "material": 0,
          "mode": 4
        }
      ]
    },
    {
      "name": "R 2_smdimportmtl_0",
      "primitives": [
        {
          "attributes": {
            "NORMAL": 13,
            "POSITION": 12,
            "TEXCOORD_0": 14
          },
          "indices": 15,
          "material": 0,
          "mode": 4
        }
      ]
    },
    {
      "name": "R 3_smdimportmtl_0",
      "primitives": [
        {
          "attributes": {
            "NORMAL": 17,
            "POSITION": 16,
            "TEXCOORD_0": 18
          },
          "indices": 19,
          "material": 0,
          "mode": 4
        }
      ]
    },
    {
      "name": "R1_smdimportmtl_0",
      "primitives": [
        {
          "attributes": {
            "NORMAL": 21,
            "POSITION": 20,
            "TEXCOORD_0": 22
          },
          "indices": 23,
          "material": 0,
          "mode": 4
        }
      ]
    },
    {
      "name": "L1_smdimportmtl_0",
      "primitives": [
        {
          "attributes": {
            "NORMAL": 25,
            "POSITION": 24,
            "TEXCOORD_0": 26
          },
          "indices": 27,
          "material": 0,
          "mode": 4
        }
      ]
    }
  ],
  "nodes": [
    {
      "children": [
        1
      ],
      "matrix": [
        0.5251100659370422,
        -1.8896758452294666e-16,
        0.8510343432426453,
        0.0,
        0.8510343432426453,
        1.1659785713314768e-16,
        -0.5251100659370422,
        0.0,
        0.0,
        1.0,
        2.220446049250313e-16,
        0.0,
        32.7945442199707,
        3.8434367469287856e-07,
        17.87094497680664,
        1.0
      ],
      "name": "Sketchfab_model"
    },
    {
      "children": [
        2
      ],
      "matrix": [
        1.0,
        0.0,
        0.0,
        0.0,
        0.0,
        0.0,
        1.0,
        0.0,
        0.0,
        -1.0,
        0.0,
        0.0,
        0.0,
        0.0,
        0.0,
        1.0
      ],
      "name": "b5d1245248c14bd8802c6a6e8142f195.fbx"
    },
    {
      "children": [
        3,
        5,
        8,
        11,
        14,
        17,
        20
      ],
      "name": "RootNode"
    },
    {
      "children": [
        4
      ],
      "matrix": [
        1.0,
        0.0,
        0.0,
        0.0,
        0.0,
        2.220446049250313e-16,
        -1.0,
        0.0,
        0.0,
        1.0,
        2.220446049250313e-16,
        0.0,
        -0.7686090469360352,
        7.62939453125e-06,
        99.7138671875,
        1.0
      ],
      "name": "italeri truck"
    },
    {
      "mesh": 0,
      "name": "italeri truck_smdimportmtl_0"
    },
    {
      "children": [
        6
      ],
      "matrix": [
        1.0,
        0.0,
        0.0,
        0.0,
        0.0,
        0.999999999999999,
        4.371138828673792e-08,
        0.0,
        0.0,
        -4.371138828673792e-08,
        0.999999999999999,
        0.0,
        42.243743896484375,
        21.47454833984375,
        -102.63400268554688,
        1.0
      ],
      "name": "L2"
    },
    {
      "children": [
        7
      ],
      "matrix": [
        1.0,
        0.0,
        0.0,
        0.0,
        0.0,
        6.123233995736766e-17,
        -1.0,
        0.0,
        -0.0,
        1.0,
        6.123233995736766e-17,
        0.0,
        0.0,
        0.0,
        0.0,
        1.0
      ],
      "name": "Object_6"
    },
    {
      "mesh": 1,
      "name": "L2_smdimportmtl_0"
    },
    {
      "children": [
        9
      ],
      "matrix": [
        1.0,
        0.0,
        0.0,
        0.0,
        0.0,
        0.999999999999999,
        4.371138828673792e-08,
        0.0,
        0.0,
        -4.371138828673792e-08,
        0.999999999999999,
        0.0,
        42.243743896484375,
        21.47454833984375,
        -159.04342651367188,
        1.0
      ],
      "name": "L3"
    },
    {
      "children": [
        10
      ],
      "matrix": [
        1.0,
        0.0,
        0.0,
        0.0,
        0.0,
        6.123233995736766e-17,
        -1.0,
        0.0,
        -0.0,
        1.0,
        6.123233995736766e-17,
        0.0,
        0.0,
        0.0,
        0.0,
        1.0
      ],
      "name": "Object_9"
    },
    {
      "mesh": 2,
      "name": "L3_smdimportmtl_0"
    },
    {
      "children": [
        12
      ],
      "matrix": [
        -1.0,
        -0.0,
        -0.0,
        -0.0,
        -0.0,
        -0.999999999999999,
        -4.37113884092026e-08,
        -0.0,
        -0.0,
        4.37113884092026e-08,
        -0.999999999999999,
        -0.0,
        -43.76392364501953,
        21.47454833984375,
        -102.63400268554688,
        1.0
      ],
      "name": "R 2"
    },
    {
      "children": [
        13
      ],
      "matrix": [
        1.0,
        0.0,
        0.0,
        0.0,
        0.0,
        6.123233995736766e-17,
        -1.0,
        0.0,
        -0.0,
        1.0,
        6.123233995736766e-17,
        0.0,
        0.0,
        0.0,
        0.0,
        1.0
      ],
      "name": "Object_12"
    },
    {
      "mesh": 3,
      "name": "R 2_smdimportmtl_0"
    },
    {
      "children": [
        15
      ],
      "matrix": [
        -1.0,
        -0.0,
        -0.0,
        -0.0,
        -0.0,
        -0.999999999999999,
        -4.37113884092026e-08,
        -0.0,
        -0.0,
        4.37113884092026e-08,
        -0.999999999999999,
        -0.0,
        -43.76392364501953,
        21.47454833984375,
        -159.04342651367188,
        1.0
      ],
      "name": "R 3"
    },
    {
      "children": [
        16
      ],
      "matrix": [
        1.0,
        0.0,
        0.0,
        0.0,
        0.0,
        6.123233995736766e-17,
        -1.0,
        0.0,
        -0.0,
        1.0,
        6.123233995736766e-17,
        0.0,
        0.0,
        0.0,
        0.0,
        1.0
      ],
      "name": "Object_15"
    },
    {
      "mesh": 4,
      "name": "R 3_smdimportmtl_0"
    },
    {
      "children": [
        18
      ],
      "matrix": [
        1.0,
        0.0,
        0.0,
        0.0,
        0.0,
        0.999999999999999,
        4.371138828673792e-08,
        0.0,
        0.0,
        -4.371138828673792e-08,
        0.999999999999999,
        0.0,
        -42.581764221191406,
        21.47455406188965,
        257.58197021484375,
        1.0
      ],
      "name": "R1"
    },
    {
      "children": [
        19
      ],
      "matrix": [
        1.0,
        0.0,
        0.0,
        0.0,
        0.0,
        6.123233995736766e-17,
        -1.0,
        0.0,
        -0.0,
        1.0,
        6.123233995736766e-17,
        0.0,
        0.0,
        0.0,
        0.0,
        1.0
      ],
      "name": "Object_18"
    },
    {
      "mesh": 5,
      "name": "R1_smdimportmtl_0"
    },
    {
      "children": [
        21
      ],
      "matrix": [
        1.0,
        0.0,
        0.0,
        0.0,
        0.0,
        0.999999999999999,
        4.371138828673792e-08,
        0.0,
        0.0,
        -4.371138828673792e-08,
        0.999999999999999,
        0.0,
        41.04460906982422,
        21.47455406188965,
        257.58197021484375,
        1.0
      ],
      "name": "L1"
    },
    {
      "children": [
        22
      ],
      "matrix": [
        1.0,
        0.0,
        0.0,
        0.0,
        0.0,
        6.123233995736766e-17,
        -1.0,
        0.0,
        -0.0,
        1.0,
        6.123233995736766e-17,
        0.0,
        0.0,
        0.0,
        0.0,
        1.0
      ],
      "name": "Object_21"
    },
    {
      "mesh": 6,
      "name": "L1_smdimportmtl_0"
    }
  ],
  "samplers": [
    {
      "magFilter": 9729,
      "minFilter": 9987,
      "wrapS": 10497,
      "wrapT": 10497
    }
  ],
  "scene": 0,
  "scenes": [
    {
      "name": "Sketchfab_Scene",
      "nodes": [
        0
      ]
    }
  ],
  "textures": [
    {
      "sampler": 0,
      "source": 0
    }
  ]
}
