<?xml version="1.0" encoding="UTF-8" standalone="no"?><svg xmlns="http://www.w3.org/2000/svg" xmlns:xlink="http://www.w3.org/1999/xlink" contentStyleType="text/css" height="378px" preserveAspectRatio="none" style="width:1194px;height:378px;background:#FFFFFF;" version="1.1" viewBox="0 0 1194 378" width="1194px" zoomAndPan="magnify"><defs/><g><!--MD5=[b8d5ee1f547cc751e8cba8f63e6aaaf8]
cluster <<aggregate>> WarehouseManagement--><g id="cluster_&lt;&lt;aggregate&gt;&gt; WarehouseManagement"><path d="M8.5,6 L288.5,6 A3.75,3.75 0 0 1 291,8.5 L298,27.6406 L1184.5,27.6406 A2.5,2.5 0 0 1 1187,30.1406 L1187,368.5 A2.5,2.5 0 0 1 1184.5,371 L8.5,371 A2.5,2.5 0 0 1 6,368.5 L6,8.5 A2.5,2.5 0 0 1 8.5,6 " fill="none" style="stroke:#000000;stroke-width:1.5;"/><line style="stroke:#000000;stroke-width:1.5;" x1="6" x2="298" y1="27.6406" y2="27.6406"/><text fill="#000000" font-family="sans-serif" font-size="14" font-weight="bold" lengthAdjust="spacing" textLength="279" x="10" y="20.6738">&lt;&lt;aggregate&gt;&gt; WarehouseManagement</text></g><!--MD5=[c5149b4909ffd2688ff51a939867f774]
class Warehouse--><g id="elem_Warehouse"><rect codeLine="19" fill="#F1F1F1" height="68.4531" id="Warehouse" rx="2.5" ry="2.5" style="stroke:#181818;stroke-width:0.5;" width="105" x="532.5" y="40"/><ellipse cx="547.5" cy="66.2266" fill="#ADD1B2" rx="11" ry="11" style="stroke:#181818;stroke-width:1.0;"/><path d="M546,67.2266 L546,69.2266 L550,69.2266 L550,68.2266 L550,67.7422 L550.625,67.2266 L551,67.2266 L551.375,67.2266 L552,67.7422 L552,68.2266 L552,71.2266 L544,71.2266 L543.5156,71.2266 L543,70.6016 L543,70.2266 L543,69.8516 L543.5156,69.2266 L544,69.2266 L544,69.2266 L544,63.2266 L544,63.2266 L543.5156,63.2266 L543,62.6016 L543,62.2266 L543,61.8516 L543.5156,61.2266 L544,61.2266 L552,61.2266 L552,64.2266 L552,64.7109 L551.375,65.2266 L551,65.2266 L550.625,65.2266 L550,64.7109 L550,64.2266 L550,63.2266 L546,63.2266 L546,65.2266 L547,65.2266 L547,64.7422 L547,64.7422 L547.625,64.2266 L548,64.2266 L548.375,64.2266 L549,64.7422 L549,65.2266 L549,67.2266 L549,67.7109 L548.375,68.2266 L548.375,68.2266 L548,68.2266 L547.625,68.2266 L547,67.7109 L547,67.7109 L547,67.2266 L546,67.2266 Z " fill="#000000"/><text fill="#000000" font-family="sans-serif" font-size="12" font-style="italic" lengthAdjust="spacing" textLength="43" x="576.5" y="55.8633">«entity»</text><text fill="#000000" font-family="sans-serif" font-size="12" font-style="italic" lengthAdjust="spacing" textLength="40" x="578" y="69.2695">«Root»</text><text fill="#000000" font-family="sans-serif" font-size="14" lengthAdjust="spacing" textLength="73" x="561.5" y="84.4863">Warehouse</text><line style="stroke:#181818;stroke-width:0.5;" x1="533.5" x2="636.5" y1="92.4531" y2="92.4531"/><line style="stroke:#181818;stroke-width:0.5;" x1="533.5" x2="636.5" y1="100.4531" y2="100.4531"/></g><!--MD5=[7ca35fa42fdd2584ef5892c05d53c42e]
class ChargingStation--><g id="elem_ChargingStation"><rect codeLine="27" fill="#F1F1F1" height="55.0469" id="ChargingStation" rx="2.5" ry="2.5" style="stroke:#181818;stroke-width:0.5;" width="134" x="22" y="184"/><ellipse cx="37" cy="203.5234" fill="#ADD1B2" rx="11" ry="11" style="stroke:#181818;stroke-width:1.0;"/><path d="M35.5,204.5234 L35.5,206.5234 L39.5,206.5234 L39.5,205.5234 L39.5,205.0391 L40.125,204.5234 L40.5,204.5234 L40.875,204.5234 L41.5,205.0391 L41.5,205.5234 L41.5,208.5234 L33.5,208.5234 L33.0156,208.5234 L32.5,207.8984 L32.5,207.5234 L32.5,207.1484 L33.0156,206.5234 L33.5,206.5234 L33.5,206.5234 L33.5,200.5234 L33.5,200.5234 L33.0156,200.5234 L32.5,199.8984 L32.5,199.5234 L32.5,199.1484 L33.0156,198.5234 L33.5,198.5234 L41.5,198.5234 L41.5,201.5234 L41.5,202.0078 L40.875,202.5234 L40.5,202.5234 L40.125,202.5234 L39.5,202.0078 L39.5,201.5234 L39.5,200.5234 L35.5,200.5234 L35.5,202.5234 L36.5,202.5234 L36.5,202.0391 L36.5,202.0391 L37.125,201.5234 L37.5,201.5234 L37.875,201.5234 L38.5,202.0391 L38.5,202.5234 L38.5,204.5234 L38.5,205.0078 L37.875,205.5234 L37.875,205.5234 L37.5,205.5234 L37.125,205.5234 L36.5,205.0078 L36.5,205.0078 L36.5,204.5234 L35.5,204.5234 Z " fill="#000000"/><text fill="#000000" font-family="sans-serif" font-size="12" font-style="italic" lengthAdjust="spacing" textLength="43" x="80.5" y="199.8633">«entity»</text><text fill="#000000" font-family="sans-serif" font-size="14" lengthAdjust="spacing" textLength="102" x="51" y="215.0801">ChargingStation</text><line style="stroke:#181818;stroke-width:0.5;" x1="23" x2="155" y1="223.0469" y2="223.0469"/><line style="stroke:#181818;stroke-width:0.5;" x1="23" x2="155" y1="231.0469" y2="231.0469"/></g><!--MD5=[a81e698ada9b821103f36bc5d49e376e]
class WarehouseIndentifier--><g id="elem_WarehouseIndentifier"><rect codeLine="20" fill="#F1F1F1" height="55.0469" id="WarehouseIndentifier" rx="2.5" ry="2.5" style="stroke:#181818;stroke-width:0.5;" width="167" x="191.5" y="184"/><ellipse cx="206.5" cy="203.5234" fill="#FF8B40" rx="11" ry="11" style="stroke:#181818;stroke-width:1.0;"/><path d="M206.5,206.8047 L208.0313,201.2734 L208.0313,201.2734 L207.5156,201.2734 L207,200.6484 L207,200.2734 L207,199.8984 L207.5156,199.2734 L208.0313,199.2734 L209.9063,199.2734 L210.4844,199.2734 L211,199.8984 L211,200.2734 L211,200.6484 L210.4844,201.2734 L210.4844,201.2734 L210.0313,201.2734 L207.6875,209.2734 L205.3125,209.2734 L202.8438,201.2734 L202.5156,201.2734 L202.5156,201.2734 L202,200.6484 L202,200.2734 L202,199.8984 L202.5156,199.2734 L203.0938,199.2734 L204.9688,199.2734 L205.4844,199.2734 L206,199.8984 L206,200.2734 L206,200.6484 L205.4844,201.2734 L204.9688,201.2734 L204.9688,201.2734 L206.5,206.8047 Z " fill="#000000"/><text fill="#000000" font-family="sans-serif" font-size="12" font-style="italic" lengthAdjust="spacing" textLength="81" x="247.5" y="199.8633">«value object»</text><text fill="#000000" font-family="sans-serif" font-size="14" lengthAdjust="spacing" textLength="135" x="220.5" y="215.0801">WarehouseIndentifier</text><line style="stroke:#181818;stroke-width:0.5;" x1="192.5" x2="357.5" y1="223.0469" y2="223.0469"/><line style="stroke:#181818;stroke-width:0.5;" x1="192.5" x2="357.5" y1="231.0469" y2="231.0469"/></g><!--MD5=[210cbcca56bc29863c9dfa6d2a050332]
class WarehouseDesignation--><g id="elem_WarehouseDesignation"><rect codeLine="21" fill="#F1F1F1" height="55.0469" id="WarehouseDesignation" rx="2.5" ry="2.5" style="stroke:#181818;stroke-width:0.5;" width="180" x="394" y="184"/><ellipse cx="409" cy="203.5234" fill="#FF8B40" rx="11" ry="11" style="stroke:#181818;stroke-width:1.0;"/><path d="M409,206.8047 L410.5313,201.2734 L410.5313,201.2734 L410.0156,201.2734 L409.5,200.6484 L409.5,200.2734 L409.5,199.8984 L410.0156,199.2734 L410.5313,199.2734 L412.4063,199.2734 L412.9844,199.2734 L413.5,199.8984 L413.5,200.2734 L413.5,200.6484 L412.9844,201.2734 L412.9844,201.2734 L412.5313,201.2734 L410.1875,209.2734 L407.8125,209.2734 L405.3438,201.2734 L405.0156,201.2734 L405.0156,201.2734 L404.5,200.6484 L404.5,200.2734 L404.5,199.8984 L405.0156,199.2734 L405.5938,199.2734 L407.4688,199.2734 L407.9844,199.2734 L408.5,199.8984 L408.5,200.2734 L408.5,200.6484 L407.9844,201.2734 L407.4688,201.2734 L407.4688,201.2734 L409,206.8047 Z " fill="#000000"/><text fill="#000000" font-family="sans-serif" font-size="12" font-style="italic" lengthAdjust="spacing" textLength="81" x="456.5" y="199.8633">«value object»</text><text fill="#000000" font-family="sans-serif" font-size="14" lengthAdjust="spacing" textLength="148" x="423" y="215.0801">WarehouseDesignation</text><line style="stroke:#181818;stroke-width:0.5;" x1="395" x2="573" y1="223.0469" y2="223.0469"/><line style="stroke:#181818;stroke-width:0.5;" x1="395" x2="573" y1="231.0469" y2="231.0469"/></g><!--MD5=[3ba557464ddf1e7ecaf9fea7de27626b]
class WarehouseAddress--><g id="elem_WarehouseAddress"><rect codeLine="22" fill="#F1F1F1" height="55.0469" id="WarehouseAddress" rx="2.5" ry="2.5" style="stroke:#181818;stroke-width:0.5;" width="157" x="609.5" y="184"/><ellipse cx="624.5" cy="203.5234" fill="#FF8B40" rx="11" ry="11" style="stroke:#181818;stroke-width:1.0;"/><path d="M624.5,206.8047 L626.0313,201.2734 L626.0313,201.2734 L625.5156,201.2734 L625,200.6484 L625,200.2734 L625,199.8984 L625.5156,199.2734 L626.0313,199.2734 L627.9063,199.2734 L628.4844,199.2734 L629,199.8984 L629,200.2734 L629,200.6484 L628.4844,201.2734 L628.4844,201.2734 L628.0313,201.2734 L625.6875,209.2734 L623.3125,209.2734 L620.8438,201.2734 L620.5156,201.2734 L620.5156,201.2734 L620,200.6484 L620,200.2734 L620,199.8984 L620.5156,199.2734 L621.0938,199.2734 L622.9688,199.2734 L623.4844,199.2734 L624,199.8984 L624,200.2734 L624,200.6484 L623.4844,201.2734 L622.9688,201.2734 L622.9688,201.2734 L624.5,206.8047 Z " fill="#000000"/><text fill="#000000" font-family="sans-serif" font-size="12" font-style="italic" lengthAdjust="spacing" textLength="81" x="660.5" y="199.8633">«value object»</text><text fill="#000000" font-family="sans-serif" font-size="14" lengthAdjust="spacing" textLength="125" x="638.5" y="215.0801">WarehouseAddress</text><line style="stroke:#181818;stroke-width:0.5;" x1="610.5" x2="765.5" y1="223.0469" y2="223.0469"/><line style="stroke:#181818;stroke-width:0.5;" x1="610.5" x2="765.5" y1="231.0469" y2="231.0469"/></g><!--MD5=[2ba209925a3aa0f479d78f4b6938c260]
class WarehouseCoordinates--><g id="elem_WarehouseCoordinates"><rect codeLine="23" fill="#F1F1F1" height="55.0469" id="WarehouseCoordinates" rx="2.5" ry="2.5" style="stroke:#181818;stroke-width:0.5;" width="182" x="802" y="184"/><ellipse cx="817" cy="203.5234" fill="#FF8B40" rx="11" ry="11" style="stroke:#181818;stroke-width:1.0;"/><path d="M817,206.8047 L818.5313,201.2734 L818.5313,201.2734 L818.0156,201.2734 L817.5,200.6484 L817.5,200.2734 L817.5,199.8984 L818.0156,199.2734 L818.5313,199.2734 L820.4063,199.2734 L820.9844,199.2734 L821.5,199.8984 L821.5,200.2734 L821.5,200.6484 L820.9844,201.2734 L820.9844,201.2734 L820.5313,201.2734 L818.1875,209.2734 L815.8125,209.2734 L813.3438,201.2734 L813.0156,201.2734 L813.0156,201.2734 L812.5,200.6484 L812.5,200.2734 L812.5,199.8984 L813.0156,199.2734 L813.5938,199.2734 L815.4688,199.2734 L815.9844,199.2734 L816.5,199.8984 L816.5,200.2734 L816.5,200.6484 L815.9844,201.2734 L815.4688,201.2734 L815.4688,201.2734 L817,206.8047 Z " fill="#000000"/><text fill="#000000" font-family="sans-serif" font-size="12" font-style="italic" lengthAdjust="spacing" textLength="81" x="865.5" y="199.8633">«value object»</text><text fill="#000000" font-family="sans-serif" font-size="14" lengthAdjust="spacing" textLength="150" x="831" y="215.0801">WarehouseCoordinates</text><line style="stroke:#181818;stroke-width:0.5;" x1="803" x2="983" y1="223.0469" y2="223.0469"/><line style="stroke:#181818;stroke-width:0.5;" x1="803" x2="983" y1="231.0469" y2="231.0469"/></g><!--MD5=[b450bbf24faa48c33f8e81045f209469]
class CurrentOccupation--><g id="elem_CurrentOccupation"><rect codeLine="28" fill="#F1F1F1" height="55.0469" id="CurrentOccupation" rx="2.5" ry="2.5" style="stroke:#181818;stroke-width:0.5;" width="152" x="22" y="300"/><ellipse cx="37" cy="319.5234" fill="#FF8B40" rx="11" ry="11" style="stroke:#181818;stroke-width:1.0;"/><path d="M37,322.8047 L38.5313,317.2734 L38.5313,317.2734 L38.0156,317.2734 L37.5,316.6484 L37.5,316.2734 L37.5,315.8984 L38.0156,315.2734 L38.5313,315.2734 L40.4063,315.2734 L40.9844,315.2734 L41.5,315.8984 L41.5,316.2734 L41.5,316.6484 L40.9844,317.2734 L40.9844,317.2734 L40.5313,317.2734 L38.1875,325.2734 L35.8125,325.2734 L33.3438,317.2734 L33.0156,317.2734 L33.0156,317.2734 L32.5,316.6484 L32.5,316.2734 L32.5,315.8984 L33.0156,315.2734 L33.5938,315.2734 L35.4688,315.2734 L35.9844,315.2734 L36.5,315.8984 L36.5,316.2734 L36.5,316.6484 L35.9844,317.2734 L35.4688,317.2734 L35.4688,317.2734 L37,322.8047 Z " fill="#000000"/><text fill="#000000" font-family="sans-serif" font-size="12" font-style="italic" lengthAdjust="spacing" textLength="81" x="70.5" y="315.8633">«value object»</text><text fill="#000000" font-family="sans-serif" font-size="14" lengthAdjust="spacing" textLength="120" x="51" y="331.0801">CurrentOccupation</text><line style="stroke:#181818;stroke-width:0.5;" x1="23" x2="173" y1="339.0469" y2="339.0469"/><line style="stroke:#181818;stroke-width:0.5;" x1="23" x2="173" y1="347.0469" y2="347.0469"/></g><!--MD5=[252edd71a4be5f43065b911bb900d8ae]
class TotalOccupation--><g id="elem_TotalOccupation"><rect codeLine="29" fill="#F1F1F1" height="55.0469" id="TotalOccupation" rx="2.5" ry="2.5" style="stroke:#181818;stroke-width:0.5;" width="136" x="209" y="300"/><ellipse cx="224" cy="319.5234" fill="#FF8B40" rx="11" ry="11" style="stroke:#181818;stroke-width:1.0;"/><path d="M224,322.8047 L225.5313,317.2734 L225.5313,317.2734 L225.0156,317.2734 L224.5,316.6484 L224.5,316.2734 L224.5,315.8984 L225.0156,315.2734 L225.5313,315.2734 L227.4063,315.2734 L227.9844,315.2734 L228.5,315.8984 L228.5,316.2734 L228.5,316.6484 L227.9844,317.2734 L227.9844,317.2734 L227.5313,317.2734 L225.1875,325.2734 L222.8125,325.2734 L220.3438,317.2734 L220.0156,317.2734 L220.0156,317.2734 L219.5,316.6484 L219.5,316.2734 L219.5,315.8984 L220.0156,315.2734 L220.5938,315.2734 L222.4688,315.2734 L222.9844,315.2734 L223.5,315.8984 L223.5,316.2734 L223.5,316.6484 L222.9844,317.2734 L222.4688,317.2734 L222.4688,317.2734 L224,322.8047 Z " fill="#000000"/><text fill="#000000" font-family="sans-serif" font-size="12" font-style="italic" lengthAdjust="spacing" textLength="81" x="249.5" y="315.8633">«value object»</text><text fill="#000000" font-family="sans-serif" font-size="14" lengthAdjust="spacing" textLength="104" x="238" y="331.0801">TotalOccupation</text><line style="stroke:#181818;stroke-width:0.5;" x1="210" x2="344" y1="339.0469" y2="339.0469"/><line style="stroke:#181818;stroke-width:0.5;" x1="210" x2="344" y1="347.0469" y2="347.0469"/></g><!--MD5=[a68699f6f85ad614fd0386eaab93618a]
class WarehouseAltitude--><g id="elem_WarehouseAltitude"><rect codeLine="24" fill="#F1F1F1" height="55.0469" id="WarehouseAltitude" rx="2.5" ry="2.5" style="stroke:#181818;stroke-width:0.5;" width="152" x="1019" y="184"/><ellipse cx="1034" cy="203.5234" fill="#FF8B40" rx="11" ry="11" style="stroke:#181818;stroke-width:1.0;"/><path d="M1034,206.8047 L1035.5313,201.2734 L1035.5313,201.2734 L1035.0156,201.2734 L1034.5,200.6484 L1034.5,200.2734 L1034.5,199.8984 L1035.0156,199.2734 L1035.5313,199.2734 L1037.4063,199.2734 L1037.9844,199.2734 L1038.5,199.8984 L1038.5,200.2734 L1038.5,200.6484 L1037.9844,201.2734 L1037.9844,201.2734 L1037.5313,201.2734 L1035.1875,209.2734 L1032.8125,209.2734 L1030.3438,201.2734 L1030.0156,201.2734 L1030.0156,201.2734 L1029.5,200.6484 L1029.5,200.2734 L1029.5,199.8984 L1030.0156,199.2734 L1030.5938,199.2734 L1032.4688,199.2734 L1032.9844,199.2734 L1033.5,199.8984 L1033.5,200.2734 L1033.5,200.6484 L1032.9844,201.2734 L1032.4688,201.2734 L1032.4688,201.2734 L1034,206.8047 Z " fill="#000000"/><text fill="#000000" font-family="sans-serif" font-size="12" font-style="italic" lengthAdjust="spacing" textLength="81" x="1067.5" y="199.8633">«value object»</text><text fill="#000000" font-family="sans-serif" font-size="14" lengthAdjust="spacing" textLength="120" x="1048" y="215.0801">WarehouseAltitude</text><line style="stroke:#181818;stroke-width:0.5;" x1="1020" x2="1170" y1="223.0469" y2="223.0469"/><line style="stroke:#181818;stroke-width:0.5;" x1="1020" x2="1170" y1="231.0469" y2="231.0469"/></g><!--MD5=[dc32dc1351b98655976dc223324cbacb]
link Warehouse to ChargingStation--><g id="link_Warehouse_ChargingStation"><path codeLine="31" d="M532.25,88.22 C453.84,108.04 302.03,147.08 174,184 C169.84,185.2 165.57,186.46 161.26,187.74 " fill="none" id="Warehouse-to-ChargingStation" style="stroke:#181818;stroke-width:1.0;"/><polygon fill="#181818" points="156.2,189.26,165.9715,190.4918,160.9872,187.8167,163.6623,182.8323,156.2,189.26" style="stroke:#181818;stroke-width:1.0;"/><text fill="#000000" font-family="sans-serif" font-size="13" lengthAdjust="spacing" textLength="21" x="332" y="150.7686">has</text><text fill="#000000" font-family="sans-serif" font-size="13" lengthAdjust="spacing" textLength="7" x="517.3398" y="87.0088">1</text><text fill="#000000" font-family="sans-serif" font-size="13" lengthAdjust="spacing" textLength="7" x="163.9328" y="183.8565">1</text></g><!--MD5=[acba53dabb83cff3918e642f9fb2e641]
link Warehouse to WarehouseIndentifier--><g id="link_Warehouse_WarehouseIndentifier"><path codeLine="33" d="M532.41,97.99 C479.49,121.12 397.73,156.86 340.59,181.83 " fill="none" id="Warehouse-to-WarehouseIndentifier" style="stroke:#181818;stroke-width:1.0;"/><polygon fill="#181818" points="335.83,183.91,345.6788,183.9528,340.4078,181.8992,342.4614,176.6282,335.83,183.91" style="stroke:#181818;stroke-width:1.0;"/><text fill="#000000" font-family="sans-serif" font-size="13" lengthAdjust="spacing" textLength="7" x="517.5223" y="114.1215">1</text><text fill="#000000" font-family="sans-serif" font-size="13" lengthAdjust="spacing" textLength="7" x="342.8042" y="173.3053">1</text></g><!--MD5=[408b3fa0744384405c2ff7e0b037b322]
link Warehouse to WarehouseDesignation--><g id="link_Warehouse_WarehouseDesignation"><path codeLine="34" d="M560.29,108.15 C544.09,129.89 523.04,158.13 507.15,179.44 " fill="none" id="Warehouse-to-WarehouseDesignation" style="stroke:#181818;stroke-width:1.0;"/><polygon fill="#181818" points="504.05,183.6,512.6307,178.7657,507.034,179.588,506.2116,173.9913,504.05,183.6" style="stroke:#181818;stroke-width:1.0;"/><text fill="#000000" font-family="sans-serif" font-size="13" lengthAdjust="spacing" textLength="7" x="547.4717" y="128.413">1</text><text fill="#000000" font-family="sans-serif" font-size="13" lengthAdjust="spacing" textLength="7" x="500.8772" y="173.353">1</text></g><!--MD5=[6fee932d99f90e2a2bf9abfdfede3fd4]
link Warehouse to WarehouseAddress--><g id="link_Warehouse_WarehouseAddress"><path codeLine="35" d="M610.2,108.15 C626.72,129.89 648.19,158.13 664.39,179.44 " fill="none" id="Warehouse-to-WarehouseAddress" style="stroke:#181818;stroke-width:1.0;"/><polygon fill="#181818" points="667.55,183.6,665.2732,174.0179,664.5181,179.6242,658.9118,178.869,667.55,183.6" style="stroke:#181818;stroke-width:1.0;"/><text fill="#000000" font-family="sans-serif" font-size="13" lengthAdjust="spacing" textLength="7" x="607.6756" y="128.413">1</text><text fill="#000000" font-family="sans-serif" font-size="13" lengthAdjust="spacing" textLength="7" x="655.0116" y="173.353">1</text></g><!--MD5=[e6395b872613880e86cf98f20ef06951]
link Warehouse to WarehouseCoordinates--><g id="link_Warehouse_WarehouseCoordinates"><path codeLine="36" d="M637.6,98.14 C690.24,121.3 771.34,156.98 827.98,181.9 " fill="none" id="Warehouse-to-WarehouseCoordinates" style="stroke:#181818;stroke-width:1.0;"/><polygon fill="#181818" points="832.7,183.97,826.0769,176.6806,828.1245,181.9539,822.8512,184.0015,832.7,183.97" style="stroke:#181818;stroke-width:1.0;"/><text fill="#000000" font-family="sans-serif" font-size="13" lengthAdjust="spacing" textLength="7" x="645.4891" y="114.2926">1</text><text fill="#000000" font-family="sans-serif" font-size="13" lengthAdjust="spacing" textLength="7" x="810.1488" y="173.3799">1</text></g><!--MD5=[92f17753c6c300d26bc20ed650ab49b4]
link Warehouse to WarehouseAltitude--><g id="link_Warehouse_WarehouseAltitude"><path codeLine="37" d="M637.76,88.4 C716.99,108.6 871.35,148.31 1002,184 C1005.87,185.06 1009.83,186.15 1013.83,187.26 " fill="none" id="Warehouse-to-WarehouseAltitude" style="stroke:#181818;stroke-width:1.0;"/><polygon fill="#181818" points="1018.91,188.67,1011.3108,182.4048,1014.0928,187.3303,1009.1673,190.1123,1018.91,188.67" style="stroke:#181818;stroke-width:1.0;"/><text fill="#000000" font-family="sans-serif" font-size="13" lengthAdjust="spacing" textLength="7" x="645.6716" y="87.2141">1</text><text fill="#000000" font-family="sans-serif" font-size="13" lengthAdjust="spacing" textLength="7" x="1004.0754" y="183.5256">1</text></g><!--MD5=[3a1645d93db7f0050e5d6caa5346b5bf]
link ChargingStation to CurrentOccupation--><g id="link_ChargingStation_CurrentOccupation"><path codeLine="40" d="M91.11,239.23 C92.42,255.81 94.11,277.2 95.49,294.66 " fill="none" id="ChargingStation-to-CurrentOccupation" style="stroke:#181818;stroke-width:1.0;"/><polygon fill="#181818" points="95.9,299.94,99.1939,290.6583,95.5143,294.9549,91.2177,291.2753,95.9,299.94" style="stroke:#181818;stroke-width:1.0;"/><text fill="#000000" font-family="sans-serif" font-size="13" lengthAdjust="spacing" textLength="7" x="83.8059" y="258.6479">1</text><text fill="#000000" font-family="sans-serif" font-size="13" lengthAdjust="spacing" textLength="7" x="87.535" y="289.3426">1</text></g><!--MD5=[d7bd9df21f50b5584ceb49d06cc4597e]
link ChargingStation to TotalOccupation--><g id="link_ChargingStation_TotalOccupation"><path codeLine="41" d="M133.08,239.23 C161.83,256.67 199.37,279.43 228.9,297.33 " fill="none" id="ChargingStation-to-TotalOccupation" style="stroke:#181818;stroke-width:1.0;"/><polygon fill="#181818" points="233.2,299.94,227.5722,291.8574,228.9227,297.3507,223.4294,298.7011,233.2,299.94" style="stroke:#181818;stroke-width:1.0;"/><text fill="#000000" font-family="sans-serif" font-size="13" lengthAdjust="spacing" textLength="7" x="134.9569" y="258.6479">1</text><text fill="#000000" font-family="sans-serif" font-size="13" lengthAdjust="spacing" textLength="7" x="214.6706" y="289.3426">1</text></g><!--MD5=[652a5bb3791185953611b0ae2b98d2db]
@startuml DMWarehouseManagement



package "<<aggregate>> WarehouseManagement"{
  entity Warehouse

  entity ChargingStation
  class WarehouseIndentifier
  class WarehouseDesignation
  class WarehouseAddress
  class WarehouseCoordinates
  class CurrentOccupation
  class TotalOccupation
  class WarehouseAltitude

}


entity Warehouse <<entity>> <<Root>>
class WarehouseIndentifier <<(V,#FF8B40) value object>>
class WarehouseDesignation <<(V,#FF8B40) value object>>
class WarehouseAddress <<(V,#FF8B40) value object>>
class WarehouseCoordinates <<(V,#FF8B40) value object>>
class WarehouseAltitude <<(V,#FF8B40) value object>>


entity ChargingStation <<entity>>
class CurrentOccupation <<(V,#FF8B40) value object>>
class TotalOccupation <<(V,#FF8B40) value object>>

Warehouse "1" - -> "1" ChargingStation: has

Warehouse "1" - -> "1" WarehouseIndentifier
Warehouse "1" - -> "1" WarehouseDesignation
Warehouse "1" - -> "1" WarehouseAddress
Warehouse "1" - -> "1" WarehouseCoordinates
Warehouse "1" - -> "1" WarehouseAltitude


ChargingStation "1" - -> "1" CurrentOccupation
ChargingStation "1" - -> "1" TotalOccupation

@enduml

PlantUML version 1.2022.12(Sun Oct 23 19:12:26 WEST 2022)
(GPL source distribution)
Java Runtime: OpenJDK Runtime Environment
JVM: OpenJDK 64-Bit Server VM
Default Encoding: Cp1252
Language: pt
Country: BR
--></g></svg>