<?xml version="1.0" encoding="UTF-8" standalone="no"?><svg xmlns="http://www.w3.org/2000/svg" xmlns:xlink="http://www.w3.org/1999/xlink" contentStyleType="text/css" height="462px" preserveAspectRatio="none" style="width:660px;height:462px;background:#FFFFFF;" version="1.1" viewBox="0 0 660 462" width="660px" zoomAndPan="magnify"><defs/><g><rect fill="#DDDDDD" height="450.9688" style="stroke:#181818;stroke-width:0.5;" width="307" x="340.5" y="6"/><text fill="#000000" font-family="sans-serif" font-size="13" font-weight="bold" lengthAdjust="spacing" textLength="114" x="437" y="17.7686">&lt;&lt;EletricGo(C4)&gt;&gt;</text><text fill="#000000" font-family="sans-serif" font-size="13" font-weight="bold" lengthAdjust="spacing" textLength="46" x="465" y="32.292">System</text><rect fill="#FFFFFF" height="28.5234" style="stroke:#181818;stroke-width:1.0;" width="10" x="399.5" y="115.8516"/><rect fill="#FFFFFF" height="109.0938" style="stroke:#181818;stroke-width:1.0;" width="10" x="399.5" y="172.8984"/><rect fill="#FFFFFF" height="28.5234" style="stroke:#181818;stroke-width:1.0;" width="10" x="399.5" y="324.8047"/><rect fill="#FFFFFF" height="52.0469" style="stroke:#181818;stroke-width:1.0;" width="10" x="554" y="201.4219"/><rect fill="#FFFFFF" height="42.8125" style="stroke:#181818;stroke-width:1.0;" width="10" x="554" y="281.9922"/><rect fill="none" height="144.9063" style="stroke:#000000;stroke-width:1.5;" width="643.5" x="10" y="216.4219"/><line style="stroke:#181818;stroke-width:0.5;stroke-dasharray:5.0,5.0;" x1="89" x2="89" y1="85.3281" y2="378.3281"/><line style="stroke:#181818;stroke-width:0.5;stroke-dasharray:5.0,5.0;" x1="404.5" x2="404.5" y1="85.3281" y2="378.3281"/><line style="stroke:#181818;stroke-width:0.5;stroke-dasharray:5.0,5.0;" x1="558.5" x2="558.5" y1="85.3281" y2="378.3281"/><text fill="#000000" font-family="sans-serif" font-size="14" lengthAdjust="spacing" textLength="133" x="20" y="82.3613">Warehouse Manager</text><ellipse cx="89.5" cy="18.1875" fill="#E2E2F0" rx="8" ry="8" style="stroke:#181818;stroke-width:0.5;"/><path d="M89.5,26.1875 L89.5,53.1875 M76.5,34.1875 L102.5,34.1875 M89.5,53.1875 L76.5,68.1875 M89.5,53.1875 L102.5,68.1875 " fill="none" style="stroke:#181818;stroke-width:0.5;"/><text fill="#000000" font-family="sans-serif" font-size="14" lengthAdjust="spacing" textLength="133" x="20" y="390.002">Warehouse Manager</text><ellipse cx="89.5" cy="401.4688" fill="#E2E2F0" rx="8" ry="8" style="stroke:#181818;stroke-width:0.5;"/><path d="M89.5,409.4688 L89.5,436.4688 M76.5,417.4688 L102.5,417.4688 M89.5,436.4688 L76.5,451.4688 M89.5,436.4688 L102.5,451.4688 " fill="none" style="stroke:#181818;stroke-width:0.5;"/><rect fill="#E2E2F0" height="45.2813" rx="2.5" ry="2.5" style="stroke:#181818;stroke-width:0.5;" width="120" x="344.5" y="39.0469"/><text fill="#000000" font-family="sans-serif" font-size="14" font-style="italic" lengthAdjust="spacing" textLength="106" x="351.5" y="58.7207">«Container(C4)»</text><text fill="#000000" font-family="sans-serif" font-size="14" lengthAdjust="spacing" textLength="27" x="391" y="74.3613">SPA</text><rect fill="#E2E2F0" height="45.2813" rx="2.5" ry="2.5" style="stroke:#181818;stroke-width:0.5;" width="120" x="344.5" y="377.3281"/><text fill="#000000" font-family="sans-serif" font-size="14" font-style="italic" lengthAdjust="spacing" textLength="106" x="351.5" y="397.002">«Container(C4)»</text><text fill="#000000" font-family="sans-serif" font-size="14" lengthAdjust="spacing" textLength="27" x="391" y="412.6426">SPA</text><rect fill="#E2E2F0" height="45.2813" rx="2.5" ry="2.5" style="stroke:#181818;stroke-width:0.5;" width="169" x="474.5" y="39.0469"/><text fill="#000000" font-family="sans-serif" font-size="14" font-style="italic" lengthAdjust="spacing" textLength="106" x="506" y="58.7207">«Container(C4)»</text><text fill="#000000" font-family="sans-serif" font-size="14" lengthAdjust="spacing" textLength="155" x="481.5" y="74.3613">WarehouseManagement</text><rect fill="#E2E2F0" height="45.2813" rx="2.5" ry="2.5" style="stroke:#181818;stroke-width:0.5;" width="169" x="474.5" y="377.3281"/><text fill="#000000" font-family="sans-serif" font-size="14" font-style="italic" lengthAdjust="spacing" textLength="106" x="506" y="397.002">«Container(C4)»</text><text fill="#000000" font-family="sans-serif" font-size="14" lengthAdjust="spacing" textLength="155" x="481.5" y="412.6426">WarehouseManagement</text><rect fill="#FFFFFF" height="28.5234" style="stroke:#181818;stroke-width:1.0;" width="10" x="399.5" y="115.8516"/><rect fill="#FFFFFF" height="109.0938" style="stroke:#181818;stroke-width:1.0;" width="10" x="399.5" y="172.8984"/><rect fill="#FFFFFF" height="28.5234" style="stroke:#181818;stroke-width:1.0;" width="10" x="399.5" y="324.8047"/><rect fill="#FFFFFF" height="52.0469" style="stroke:#181818;stroke-width:1.0;" width="10" x="554" y="201.4219"/><rect fill="#FFFFFF" height="42.8125" style="stroke:#181818;stroke-width:1.0;" width="10" x="554" y="281.9922"/><polygon fill="#181818" points="387.5,111.8516,397.5,115.8516,387.5,119.8516,391.5,115.8516" style="stroke:#181818;stroke-width:1.0;"/><line style="stroke:#181818;stroke-width:1.0;" x1="89.5" x2="393.5" y1="115.8516" y2="115.8516"/><text fill="#000000" font-family="sans-serif" font-size="13" font-weight="bold" lengthAdjust="spacing" textLength="7" x="96.5" y="111.0967">1</text><text fill="#000000" font-family="sans-serif" font-size="13" lengthAdjust="spacing" textLength="254" x="107.5" y="111.0967">I want to consult the details on a warehouse</text><polygon fill="#181818" points="100.5,140.375,90.5,144.375,100.5,148.375,96.5,144.375" style="stroke:#181818;stroke-width:1.0;"/><line style="stroke:#181818;stroke-width:1.0;stroke-dasharray:2.0,2.0;" x1="94.5" x2="403.5" y1="144.375" y2="144.375"/><text fill="#000000" font-family="sans-serif" font-size="13" font-weight="bold" lengthAdjust="spacing" textLength="7" x="106.5" y="139.6201">2</text><text fill="#000000" font-family="sans-serif" font-size="13" lengthAdjust="spacing" textLength="186" x="117.5" y="139.6201">asks for the ID of the warehouse</text><polygon fill="#181818" points="387.5,168.8984,397.5,172.8984,387.5,176.8984,391.5,172.8984" style="stroke:#181818;stroke-width:1.0;"/><line style="stroke:#181818;stroke-width:1.0;" x1="89.5" x2="393.5" y1="172.8984" y2="172.8984"/><text fill="#000000" font-family="sans-serif" font-size="13" font-weight="bold" lengthAdjust="spacing" textLength="7" x="96.5" y="168.1436">3</text><text fill="#000000" font-family="sans-serif" font-size="13" lengthAdjust="spacing" textLength="179" x="107.5" y="168.1436">inserts the ID of the warehouse</text><polygon fill="#181818" points="542,197.4219,552,201.4219,542,205.4219,546,201.4219" style="stroke:#181818;stroke-width:1.0;"/><line style="stroke:#181818;stroke-width:1.0;" x1="409.5" x2="548" y1="201.4219" y2="201.4219"/><text fill="#000000" font-family="sans-serif" font-size="13" font-weight="bold" lengthAdjust="spacing" textLength="7" x="416.5" y="196.667">4</text><text fill="#000000" font-family="sans-serif" font-size="13" lengthAdjust="spacing" textLength="65" x="427.5" y="196.667">GetById(id)</text><path d="M10,216.4219 L71,216.4219 L71,222.9453 L61,232.9453 L10,232.9453 L10,216.4219 " fill="#EEEEEE" style="stroke:#000000;stroke-width:1.5;"/><rect fill="none" height="144.9063" style="stroke:#000000;stroke-width:1.5;" width="643.5" x="10" y="216.4219"/><text fill="#000000" font-family="sans-serif" font-size="13" font-weight="bold" lengthAdjust="spacing" textLength="16" x="25" y="229.1904">alt</text><text fill="#000000" font-family="sans-serif" font-size="11" font-weight="bold" lengthAdjust="spacing" textLength="349" x="86" y="228.3799">[If the Id entered matches the Id of a warehouse in the system]</text><polygon fill="#181818" points="420.5,249.4688,410.5,253.4688,420.5,257.4688,416.5,253.4688" style="stroke:#181818;stroke-width:1.0;"/><line style="stroke:#181818;stroke-width:1.0;stroke-dasharray:2.0,2.0;" x1="414.5" x2="558" y1="253.4688" y2="253.4688"/><text fill="#000000" font-family="sans-serif" font-size="13" font-weight="bold" lengthAdjust="spacing" textLength="7" x="426.5" y="248.7139">5</text><text fill="#000000" font-family="sans-serif" font-size="13" lengthAdjust="spacing" textLength="44" x="437.5" y="248.7139">200 OK</text><polygon fill="#181818" points="100.5,277.9922,90.5,281.9922,100.5,285.9922,96.5,281.9922" style="stroke:#181818;stroke-width:1.0;"/><line style="stroke:#181818;stroke-width:1.0;stroke-dasharray:2.0,2.0;" x1="94.5" x2="403.5" y1="281.9922" y2="281.9922"/><text fill="#000000" font-family="sans-serif" font-size="13" font-weight="bold" lengthAdjust="spacing" textLength="7" x="106.5" y="277.2373">6</text><text fill="#000000" font-family="sans-serif" font-size="13" lengthAdjust="spacing" textLength="275" x="117.5" y="277.2373">displays the details of the requested warehouse</text><line style="stroke:#000000;stroke-width:1.0;stroke-dasharray:2.0,2.0;" x1="10" x2="653.5" y1="290.9922" y2="290.9922"/><text fill="#000000" font-family="sans-serif" font-size="11" font-weight="bold" lengthAdjust="spacing" textLength="387" x="15" y="300.9502">[If the Id entered does not match the Id of a warehouse in the system]</text><polygon fill="#181818" points="420.5,320.8047,410.5,324.8047,420.5,328.8047,416.5,324.8047" style="stroke:#181818;stroke-width:1.0;"/><line style="stroke:#181818;stroke-width:1.0;stroke-dasharray:2.0,2.0;" x1="414.5" x2="558" y1="324.8047" y2="324.8047"/><text fill="#000000" font-family="sans-serif" font-size="13" font-weight="bold" lengthAdjust="spacing" textLength="7" x="426.5" y="320.0498">7</text><text fill="#000000" font-family="sans-serif" font-size="13" lengthAdjust="spacing" textLength="100" x="437.5" y="320.0498">404 NOT FOUND</text><polygon fill="#181818" points="100.5,349.3281,90.5,353.3281,100.5,357.3281,96.5,353.3281" style="stroke:#181818;stroke-width:1.0;"/><line style="stroke:#181818;stroke-width:1.0;stroke-dasharray:2.0,2.0;" x1="94.5" x2="403.5" y1="353.3281" y2="353.3281"/><text fill="#000000" font-family="sans-serif" font-size="13" font-weight="bold" lengthAdjust="spacing" textLength="7" x="106.5" y="348.5732">8</text><text fill="#000000" font-family="sans-serif" font-size="13" lengthAdjust="spacing" textLength="153" x="117.5" y="348.5732">display a message of error</text><!--MD5=[9a3ecb093dece7215b769ec12ec5fe3a]
@startuml 
autonumber

actor "Warehouse Manager" as admin
box "<<EletricGo(C4)>>\n       System"
participant SPA as system <<Container(C4)>>
participant WarehouseManagement as  WM <<Container(C4)>>
end box

admin -> system: I want to consult the details on a warehouse
activate system

system - -> admin: asks for the ID of the warehouse
deactivate system

admin -> system: inserts the ID of the warehouse
activate system
system -> WM : GetById(id)
alt If the Id entered matches the Id of a warehouse in the system
activate WM
WM - -> system : 200 OK 
deactivate WM 
system - -> admin: displays the details of the requested warehouse
deactivate system

else If the Id entered does not match the Id of a warehouse in the system
activate WM
WM - -> system : 404 NOT FOUND
deactivate WM 
activate system
system - -> admin : display a message of error   
deactivate system
end
deactivate admin

@enduml

PlantUML version 1.2022.12(Sun Oct 23 19:12:26 WEST 2022)
(GPL source distribution)
Java Runtime: OpenJDK Runtime Environment
JVM: OpenJDK 64-Bit Server VM
Default Encoding: Cp1252
Language: pt
Country: BR
--></g></svg>