<?xml version="1.0" encoding="UTF-8" standalone="no"?><svg xmlns="http://www.w3.org/2000/svg" xmlns:xlink="http://www.w3.org/1999/xlink" contentStyleType="text/css" height="914px" preserveAspectRatio="none" style="width:1531px;height:914px;background:#FFFFFF;" version="1.1" viewBox="0 0 1531 914" width="1531px" zoomAndPan="magnify"><defs/><g><rect fill="#FFFFE0" height="902.3438" style="stroke:#181818;stroke-width:0.5;" width="128" x="357.5" y="6"/><text fill="#000000" font-family="sans-serif" font-size="13" font-weight="bold" lengthAdjust="spacing" textLength="102" x="370.5" y="17.7686">&lt;&lt;System(C4)&gt;&gt;</text><text fill="#000000" font-family="sans-serif" font-size="13" font-weight="bold" lengthAdjust="spacing" textLength="58" x="398.5" y="32.292">EletricGo</text><rect fill="#90EE90" height="902.3438" style="stroke:#181818;stroke-width:0.5;" width="1015.5" x="504" y="6"/><text fill="#000000" font-family="sans-serif" font-size="13" font-weight="bold" lengthAdjust="spacing" textLength="118" x="924.25" y="17.7686">&lt;&lt;Container(C4)&gt;&gt;</text><text fill="#000000" font-family="sans-serif" font-size="13" font-weight="bold" lengthAdjust="spacing" textLength="159" x="940.25" y="32.292">Warehouse Management</text><rect fill="#FFFFFF" height="28.5234" style="stroke:#181818;stroke-width:1.0;" width="10" x="416.5" y="115.8516"/><rect fill="#FFFFFF" height="337.2813" style="stroke:#181818;stroke-width:1.0;" width="10" x="416.5" y="172.8984"/><rect fill="#FFFFFF" height="251.7109" style="stroke:#181818;stroke-width:1.0;" width="10" x="416.5" y="552.9922"/><rect fill="#FFFFFF" height="280.2344" style="stroke:#181818;stroke-width:1.0;" width="10" x="568.5" y="201.4219"/><rect fill="#FFFFFF" height="223.1875" style="stroke:#181818;stroke-width:1.0;" width="10" x="568.5" y="552.9922"/><rect fill="#FFFFFF" height="199.6641" style="stroke:#181818;stroke-width:1.0;" width="10" x="718.5" y="253.4688"/><rect fill="#FFFFFF" height="142.6172" style="stroke:#181818;stroke-width:1.0;" width="10" x="718.5" y="605.0391"/><rect fill="#FFFFFF" height="142.6172" style="stroke:#181818;stroke-width:1.0;" width="10" x="870.5" y="281.9922"/><rect fill="#FFFFFF" height="85.5703" style="stroke:#181818;stroke-width:1.0;" width="10" x="870.5" y="633.5625"/><rect fill="#FFFFFF" height="28.5234" style="stroke:#181818;stroke-width:1.0;" width="10" x="1031.5" y="367.5625"/><rect fill="#FFFFFF" height="28.5234" style="stroke:#181818;stroke-width:1.0;" width="10" x="1433" y="310.5156"/><rect fill="#FFFFFF" height="158.6172" style="stroke:#181818;stroke-width:1.0;" width="10" x="1433" y="662.0859"/><rect fill="none" height="244.7109" style="stroke:#000000;stroke-width:1.5;" width="1505.5" x="20" y="567.9922"/><line style="stroke:#181818;stroke-width:0.5;stroke-dasharray:5.0,5.0;" x1="99" x2="99" y1="85.3281" y2="829.7031"/><line style="stroke:#181818;stroke-width:0.5;stroke-dasharray:5.0,5.0;" x1="421.5" x2="421.5" y1="85.3281" y2="829.7031"/><line style="stroke:#181818;stroke-width:0.5;stroke-dasharray:5.0,5.0;" x1="573" x2="573" y1="85.3281" y2="829.7031"/><line style="stroke:#181818;stroke-width:0.5;stroke-dasharray:5.0,5.0;" x1="723" x2="723" y1="85.3281" y2="829.7031"/><line style="stroke:#181818;stroke-width:0.5;stroke-dasharray:5.0,5.0;" x1="875.5" x2="875.5" y1="85.3281" y2="829.7031"/><line style="stroke:#181818;stroke-width:0.5;stroke-dasharray:5.0,5.0;" x1="1036.5" x2="1036.5" y1="85.3281" y2="829.7031"/><line style="stroke:#181818;stroke-width:0.5;stroke-dasharray:5.0,5.0;" x1="1240.5" x2="1240.5" y1="85.3281" y2="829.7031"/><line style="stroke:#181818;stroke-width:0.5;stroke-dasharray:5.0,5.0;" x1="1437.5" x2="1437.5" y1="85.3281" y2="829.7031"/><text fill="#000000" font-family="sans-serif" font-size="14" lengthAdjust="spacing" textLength="133" x="30" y="82.3613">Warehouse Manager</text><ellipse cx="99.5" cy="18.1875" fill="#E2E2F0" rx="8" ry="8" style="stroke:#181818;stroke-width:0.5;"/><path d="M99.5,26.1875 L99.5,53.1875 M86.5,34.1875 L112.5,34.1875 M99.5,53.1875 L86.5,68.1875 M99.5,53.1875 L112.5,68.1875 " fill="none" style="stroke:#181818;stroke-width:0.5;"/><text fill="#000000" font-family="sans-serif" font-size="14" lengthAdjust="spacing" textLength="133" x="30" y="841.377">Warehouse Manager</text><ellipse cx="99.5" cy="852.8438" fill="#E2E2F0" rx="8" ry="8" style="stroke:#181818;stroke-width:0.5;"/><path d="M99.5,860.8438 L99.5,887.8438 M86.5,868.8438 L112.5,868.8438 M99.5,887.8438 L86.5,902.8438 M99.5,887.8438 L112.5,902.8438 " fill="none" style="stroke:#181818;stroke-width:0.5;"/><rect fill="#E2E2F0" height="45.2813" rx="2.5" ry="2.5" style="stroke:#181818;stroke-width:0.5;" width="120" x="361.5" y="39.0469"/><text fill="#000000" font-family="sans-serif" font-size="14" font-style="italic" lengthAdjust="spacing" textLength="106" x="368.5" y="58.7207">«Container(C4)»</text><text fill="#000000" font-family="sans-serif" font-size="14" lengthAdjust="spacing" textLength="27" x="408" y="74.3613">SPA</text><rect fill="#E2E2F0" height="45.2813" rx="2.5" ry="2.5" style="stroke:#181818;stroke-width:0.5;" width="120" x="361.5" y="828.7031"/><text fill="#000000" font-family="sans-serif" font-size="14" font-style="italic" lengthAdjust="spacing" textLength="106" x="368.5" y="848.377">«Container(C4)»</text><text fill="#000000" font-family="sans-serif" font-size="14" lengthAdjust="spacing" textLength="27" x="408" y="864.0176">SPA</text><rect fill="#E2E2F0" height="45.2813" rx="2.5" ry="2.5" style="stroke:#181818;stroke-width:0.5;" width="131" x="508" y="39.0469"/><text fill="#000000" font-family="sans-serif" font-size="14" font-style="italic" lengthAdjust="spacing" textLength="117" x="515" y="58.7207">«Component(C4)»</text><text fill="#000000" font-family="sans-serif" font-size="14" lengthAdjust="spacing" textLength="111" x="518" y="74.3613">WarehouseRoute</text><rect fill="#E2E2F0" height="45.2813" rx="2.5" ry="2.5" style="stroke:#181818;stroke-width:0.5;" width="131" x="508" y="828.7031"/><text fill="#000000" font-family="sans-serif" font-size="14" font-style="italic" lengthAdjust="spacing" textLength="117" x="515" y="848.377">«Component(C4)»</text><text fill="#000000" font-family="sans-serif" font-size="14" lengthAdjust="spacing" textLength="111" x="518" y="864.0176">WarehouseRoute</text><rect fill="#E2E2F0" height="45.2813" rx="2.5" ry="2.5" style="stroke:#181818;stroke-width:0.5;" width="149" x="649" y="39.0469"/><text fill="#000000" font-family="sans-serif" font-size="14" font-style="italic" lengthAdjust="spacing" textLength="117" x="665" y="58.7207">«Component(C4)»</text><text fill="#000000" font-family="sans-serif" font-size="14" lengthAdjust="spacing" textLength="135" x="656" y="74.3613">WarehouseController</text><rect fill="#E2E2F0" height="45.2813" rx="2.5" ry="2.5" style="stroke:#181818;stroke-width:0.5;" width="149" x="649" y="828.7031"/><text fill="#000000" font-family="sans-serif" font-size="14" font-style="italic" lengthAdjust="spacing" textLength="117" x="665" y="848.377">«Component(C4)»</text><text fill="#000000" font-family="sans-serif" font-size="14" lengthAdjust="spacing" textLength="135" x="656" y="864.0176">WarehouseController</text><rect fill="#E2E2F0" height="45.2813" rx="2.5" ry="2.5" style="stroke:#181818;stroke-width:0.5;" width="134" x="808.5" y="39.0469"/><text fill="#000000" font-family="sans-serif" font-size="14" font-style="italic" lengthAdjust="spacing" textLength="117" x="817" y="58.7207">«Component(C4)»</text><text fill="#000000" font-family="sans-serif" font-size="14" lengthAdjust="spacing" textLength="120" x="815.5" y="74.3613">WarehouseService</text><rect fill="#E2E2F0" height="45.2813" rx="2.5" ry="2.5" style="stroke:#181818;stroke-width:0.5;" width="134" x="808.5" y="828.7031"/><text fill="#000000" font-family="sans-serif" font-size="14" font-style="italic" lengthAdjust="spacing" textLength="117" x="817" y="848.377">«Component(C4)»</text><text fill="#000000" font-family="sans-serif" font-size="14" lengthAdjust="spacing" textLength="120" x="815.5" y="864.0176">WarehouseService</text><rect fill="#E2E2F0" height="45.2813" rx="2.5" ry="2.5" style="stroke:#181818;stroke-width:0.5;" width="168" x="952.5" y="39.0469"/><text fill="#000000" font-family="sans-serif" font-size="14" font-style="italic" lengthAdjust="spacing" textLength="117" x="978" y="58.7207">«Component(C4)»</text><text fill="#000000" font-family="sans-serif" font-size="14" lengthAdjust="spacing" textLength="154" x="959.5" y="74.3613">warehouse : Warehouse</text><rect fill="#E2E2F0" height="45.2813" rx="2.5" ry="2.5" style="stroke:#181818;stroke-width:0.5;" width="168" x="952.5" y="828.7031"/><text fill="#000000" font-family="sans-serif" font-size="14" font-style="italic" lengthAdjust="spacing" textLength="117" x="978" y="848.377">«Component(C4)»</text><text fill="#000000" font-family="sans-serif" font-size="14" lengthAdjust="spacing" textLength="154" x="959.5" y="864.0176">warehouse : Warehouse</text><rect fill="#E2E2F0" height="45.2813" rx="2.5" ry="2.5" style="stroke:#181818;stroke-width:0.5;" width="220" x="1130.5" y="39.0469"/><text fill="#000000" font-family="sans-serif" font-size="14" font-style="italic" lengthAdjust="spacing" textLength="117" x="1182" y="58.7207">«Component(C4)»</text><text fill="#000000" font-family="sans-serif" font-size="14" lengthAdjust="spacing" textLength="206" x="1137.5" y="74.3613">warehouseDto : WarehouseDTO</text><rect fill="#E2E2F0" height="45.2813" rx="2.5" ry="2.5" style="stroke:#181818;stroke-width:0.5;" width="220" x="1130.5" y="828.7031"/><text fill="#000000" font-family="sans-serif" font-size="14" font-style="italic" lengthAdjust="spacing" textLength="117" x="1182" y="848.377">«Component(C4)»</text><text fill="#000000" font-family="sans-serif" font-size="14" lengthAdjust="spacing" textLength="206" x="1137.5" y="864.0176">warehouseDto : WarehouseDTO</text><rect fill="#E2E2F0" height="45.2813" rx="2.5" ry="2.5" style="stroke:#181818;stroke-width:0.5;" width="155" x="1360.5" y="39.0469"/><text fill="#000000" font-family="sans-serif" font-size="14" font-style="italic" lengthAdjust="spacing" textLength="117" x="1379.5" y="58.7207">«Component(C4)»</text><text fill="#000000" font-family="sans-serif" font-size="14" lengthAdjust="spacing" textLength="141" x="1367.5" y="74.3613">WarehouseRepository</text><rect fill="#E2E2F0" height="45.2813" rx="2.5" ry="2.5" style="stroke:#181818;stroke-width:0.5;" width="155" x="1360.5" y="828.7031"/><text fill="#000000" font-family="sans-serif" font-size="14" font-style="italic" lengthAdjust="spacing" textLength="117" x="1379.5" y="848.377">«Component(C4)»</text><text fill="#000000" font-family="sans-serif" font-size="14" lengthAdjust="spacing" textLength="141" x="1367.5" y="864.0176">WarehouseRepository</text><rect fill="#FFFFFF" height="28.5234" style="stroke:#181818;stroke-width:1.0;" width="10" x="416.5" y="115.8516"/><rect fill="#FFFFFF" height="337.2813" style="stroke:#181818;stroke-width:1.0;" width="10" x="416.5" y="172.8984"/><rect fill="#FFFFFF" height="251.7109" style="stroke:#181818;stroke-width:1.0;" width="10" x="416.5" y="552.9922"/><rect fill="#FFFFFF" height="280.2344" style="stroke:#181818;stroke-width:1.0;" width="10" x="568.5" y="201.4219"/><rect fill="#FFFFFF" height="223.1875" style="stroke:#181818;stroke-width:1.0;" width="10" x="568.5" y="552.9922"/><rect fill="#FFFFFF" height="199.6641" style="stroke:#181818;stroke-width:1.0;" width="10" x="718.5" y="253.4688"/><rect fill="#FFFFFF" height="142.6172" style="stroke:#181818;stroke-width:1.0;" width="10" x="718.5" y="605.0391"/><rect fill="#FFFFFF" height="142.6172" style="stroke:#181818;stroke-width:1.0;" width="10" x="870.5" y="281.9922"/><rect fill="#FFFFFF" height="85.5703" style="stroke:#181818;stroke-width:1.0;" width="10" x="870.5" y="633.5625"/><rect fill="#FFFFFF" height="28.5234" style="stroke:#181818;stroke-width:1.0;" width="10" x="1031.5" y="367.5625"/><rect fill="#FFFFFF" height="28.5234" style="stroke:#181818;stroke-width:1.0;" width="10" x="1433" y="310.5156"/><rect fill="#FFFFFF" height="158.6172" style="stroke:#181818;stroke-width:1.0;" width="10" x="1433" y="662.0859"/><polygon fill="#181818" points="404.5,111.8516,414.5,115.8516,404.5,119.8516,408.5,115.8516" style="stroke:#181818;stroke-width:1.0;"/><line style="stroke:#181818;stroke-width:1.0;" x1="99.5" x2="410.5" y1="115.8516" y2="115.8516"/><text fill="#000000" font-family="sans-serif" font-size="13" font-weight="bold" lengthAdjust="spacing" textLength="7" x="106.5" y="111.0967">1</text><text fill="#000000" font-family="sans-serif" font-size="13" lengthAdjust="spacing" textLength="254" x="117.5" y="111.0967">I want to consult the details on a warehouse</text><polygon fill="#181818" points="110.5,140.375,100.5,144.375,110.5,148.375,106.5,144.375" style="stroke:#181818;stroke-width:1.0;"/><line style="stroke:#181818;stroke-width:1.0;stroke-dasharray:2.0,2.0;" x1="104.5" x2="420.5" y1="144.375" y2="144.375"/><text fill="#000000" font-family="sans-serif" font-size="13" font-weight="bold" lengthAdjust="spacing" textLength="7" x="116.5" y="139.6201">2</text><text fill="#000000" font-family="sans-serif" font-size="13" lengthAdjust="spacing" textLength="186" x="127.5" y="139.6201">asks for the ID of the warehouse</text><polygon fill="#181818" points="404.5,168.8984,414.5,172.8984,404.5,176.8984,408.5,172.8984" style="stroke:#181818;stroke-width:1.0;"/><line style="stroke:#181818;stroke-width:1.0;" x1="99.5" x2="410.5" y1="172.8984" y2="172.8984"/><text fill="#000000" font-family="sans-serif" font-size="13" font-weight="bold" lengthAdjust="spacing" textLength="7" x="106.5" y="168.1436">3</text><text fill="#000000" font-family="sans-serif" font-size="13" lengthAdjust="spacing" textLength="179" x="117.5" y="168.1436">inserts the ID of the warehouse</text><polygon fill="#181818" points="556.5,197.4219,566.5,201.4219,556.5,205.4219,560.5,201.4219" style="stroke:#181818;stroke-width:1.0;"/><line style="stroke:#181818;stroke-width:1.0;" x1="426.5" x2="562.5" y1="201.4219" y2="201.4219"/><text fill="#000000" font-family="sans-serif" font-size="13" font-weight="bold" lengthAdjust="spacing" textLength="7" x="433.5" y="196.667">4</text><text fill="#000000" font-family="sans-serif" font-size="13" lengthAdjust="spacing" textLength="95" x="444.5" y="196.667">GET GetById(id)</text><polygon fill="#181818" points="706.5,249.4688,716.5,253.4688,706.5,257.4688,710.5,253.4688" style="stroke:#181818;stroke-width:1.0;"/><line style="stroke:#181818;stroke-width:1.0;" x1="578.5" x2="712.5" y1="253.4688" y2="253.4688"/><text fill="#000000" font-family="sans-serif" font-size="13" font-weight="bold" lengthAdjust="spacing" textLength="7" x="585.5" y="248.7139">5</text><text fill="#000000" font-family="sans-serif" font-size="13" lengthAdjust="spacing" textLength="65" x="596.5" y="248.7139">GetById(id)</text><polygon fill="#181818" points="858.5,277.9922,868.5,281.9922,858.5,285.9922,862.5,281.9922" style="stroke:#181818;stroke-width:1.0;"/><line style="stroke:#181818;stroke-width:1.0;" x1="728.5" x2="864.5" y1="281.9922" y2="281.9922"/><text fill="#000000" font-family="sans-serif" font-size="13" font-weight="bold" lengthAdjust="spacing" textLength="7" x="735.5" y="277.2373">6</text><text fill="#000000" font-family="sans-serif" font-size="13" lengthAdjust="spacing" textLength="105" x="746.5" y="277.2373">GetWarehouse(Id)</text><polygon fill="#181818" points="1421,306.5156,1431,310.5156,1421,314.5156,1425,310.5156" style="stroke:#181818;stroke-width:1.0;"/><line style="stroke:#181818;stroke-width:1.0;" x1="880.5" x2="1427" y1="310.5156" y2="310.5156"/><text fill="#000000" font-family="sans-serif" font-size="13" font-weight="bold" lengthAdjust="spacing" textLength="7" x="887.5" y="305.7607">7</text><text fill="#000000" font-family="sans-serif" font-size="13" lengthAdjust="spacing" textLength="67" x="898.5" y="305.7607">GetById(iD)</text><polygon fill="#181818" points="891.5,335.0391,881.5,339.0391,891.5,343.0391,887.5,339.0391" style="stroke:#181818;stroke-width:1.0;"/><line style="stroke:#181818;stroke-width:1.0;stroke-dasharray:2.0,2.0;" x1="885.5" x2="1437" y1="339.0391" y2="339.0391"/><text fill="#000000" font-family="sans-serif" font-size="13" font-weight="bold" lengthAdjust="spacing" textLength="7" x="897.5" y="334.2842">8</text><text fill="#000000" font-family="sans-serif" font-size="13" lengthAdjust="spacing" textLength="62" x="908.5" y="334.2842">warehouse</text><polygon fill="#181818" points="1019.5,363.5625,1029.5,367.5625,1019.5,371.5625,1023.5,367.5625" style="stroke:#181818;stroke-width:1.0;"/><line style="stroke:#181818;stroke-width:1.0;" x1="880.5" x2="1025.5" y1="367.5625" y2="367.5625"/><text fill="#000000" font-family="sans-serif" font-size="13" font-weight="bold" lengthAdjust="spacing" textLength="7" x="887.5" y="362.8076">9</text><text fill="#000000" font-family="sans-serif" font-size="13" lengthAdjust="spacing" textLength="105" x="898.5" y="362.8076">toWarehouseDto()</text><polygon fill="#181818" points="891.5,392.0859,881.5,396.0859,891.5,400.0859,887.5,396.0859" style="stroke:#181818;stroke-width:1.0;"/><line style="stroke:#181818;stroke-width:1.0;stroke-dasharray:2.0,2.0;" x1="885.5" x2="1035.5" y1="396.0859" y2="396.0859"/><text fill="#000000" font-family="sans-serif" font-size="13" font-weight="bold" lengthAdjust="spacing" textLength="14" x="897.5" y="391.3311">10</text><text fill="#000000" font-family="sans-serif" font-size="13" lengthAdjust="spacing" textLength="82" x="915.5" y="391.3311">warehouseDto</text><polygon fill="#181818" points="739.5,420.6094,729.5,424.6094,739.5,428.6094,735.5,424.6094" style="stroke:#181818;stroke-width:1.0;"/><line style="stroke:#181818;stroke-width:1.0;stroke-dasharray:2.0,2.0;" x1="733.5" x2="874.5" y1="424.6094" y2="424.6094"/><text fill="#000000" font-family="sans-serif" font-size="13" font-weight="bold" lengthAdjust="spacing" textLength="14" x="745.5" y="419.8545">11</text><text fill="#000000" font-family="sans-serif" font-size="13" lengthAdjust="spacing" textLength="82" x="763.5" y="419.8545">warehouseDto</text><polygon fill="#181818" points="589.5,449.1328,579.5,453.1328,589.5,457.1328,585.5,453.1328" style="stroke:#181818;stroke-width:1.0;"/><line style="stroke:#181818;stroke-width:1.0;stroke-dasharray:2.0,2.0;" x1="583.5" x2="722.5" y1="453.1328" y2="453.1328"/><text fill="#000000" font-family="sans-serif" font-size="13" font-weight="bold" lengthAdjust="spacing" textLength="14" x="595.5" y="448.3779">12</text><text fill="#000000" font-family="sans-serif" font-size="13" lengthAdjust="spacing" textLength="82" x="613.5" y="448.3779">warehouseDto</text><polygon fill="#181818" points="437.5,477.6563,427.5,481.6563,437.5,485.6563,433.5,481.6563" style="stroke:#181818;stroke-width:1.0;"/><line style="stroke:#181818;stroke-width:1.0;stroke-dasharray:2.0,2.0;" x1="431.5" x2="572.5" y1="481.6563" y2="481.6563"/><text fill="#000000" font-family="sans-serif" font-size="13" font-weight="bold" lengthAdjust="spacing" textLength="14" x="443.5" y="476.9014">13</text><text fill="#000000" font-family="sans-serif" font-size="13" lengthAdjust="spacing" textLength="44" x="461.5" y="476.9014">200 OK</text><polygon fill="#181818" points="110.5,506.1797,100.5,510.1797,110.5,514.1797,106.5,510.1797" style="stroke:#181818;stroke-width:1.0;"/><line style="stroke:#181818;stroke-width:1.0;stroke-dasharray:2.0,2.0;" x1="104.5" x2="420.5" y1="510.1797" y2="510.1797"/><text fill="#000000" font-family="sans-serif" font-size="13" font-weight="bold" lengthAdjust="spacing" textLength="14" x="116.5" y="505.4248">14</text><text fill="#000000" font-family="sans-serif" font-size="13" lengthAdjust="spacing" textLength="275" x="134.5" y="505.4248">displays the details of the requested warehouse</text><polygon fill="#181818" points="556.5,548.9922,566.5,552.9922,556.5,556.9922,560.5,552.9922" style="stroke:#181818;stroke-width:1.0;"/><line style="stroke:#181818;stroke-width:1.0;" x1="426.5" x2="562.5" y1="552.9922" y2="552.9922"/><text fill="#000000" font-family="sans-serif" font-size="13" font-weight="bold" lengthAdjust="spacing" textLength="14" x="433.5" y="548.2373">15</text><text fill="#000000" font-family="sans-serif" font-size="13" lengthAdjust="spacing" textLength="95" x="451.5" y="548.2373">GET GetById(id)</text><path d="M20,567.9922 L81,567.9922 L81,574.5156 L71,584.5156 L20,584.5156 L20,567.9922 " fill="#EEEEEE" style="stroke:#000000;stroke-width:1.5;"/><rect fill="none" height="244.7109" style="stroke:#000000;stroke-width:1.5;" width="1505.5" x="20" y="567.9922"/><text fill="#000000" font-family="sans-serif" font-size="13" font-weight="bold" lengthAdjust="spacing" textLength="16" x="35" y="580.7607">alt</text><text fill="#000000" font-family="sans-serif" font-size="11" font-weight="bold" lengthAdjust="spacing" textLength="349" x="96" y="579.9502">[If the Id entered matches the Id of a warehouse in the system]</text><polygon fill="#181818" points="706.5,601.0391,716.5,605.0391,706.5,609.0391,710.5,605.0391" style="stroke:#181818;stroke-width:1.0;"/><line style="stroke:#181818;stroke-width:1.0;" x1="578.5" x2="712.5" y1="605.0391" y2="605.0391"/><text fill="#000000" font-family="sans-serif" font-size="13" font-weight="bold" lengthAdjust="spacing" textLength="14" x="585.5" y="600.2842">16</text><text fill="#000000" font-family="sans-serif" font-size="13" lengthAdjust="spacing" textLength="65" x="603.5" y="600.2842">GetById(id)</text><polygon fill="#181818" points="858.5,629.5625,868.5,633.5625,858.5,637.5625,862.5,633.5625" style="stroke:#181818;stroke-width:1.0;"/><line style="stroke:#181818;stroke-width:1.0;" x1="728.5" x2="864.5" y1="633.5625" y2="633.5625"/><text fill="#000000" font-family="sans-serif" font-size="13" font-weight="bold" lengthAdjust="spacing" textLength="14" x="735.5" y="628.8076">17</text><text fill="#000000" font-family="sans-serif" font-size="13" lengthAdjust="spacing" textLength="105" x="753.5" y="628.8076">GetWarehouse(Id)</text><polygon fill="#181818" points="1421,658.0859,1431,662.0859,1421,666.0859,1425,662.0859" style="stroke:#181818;stroke-width:1.0;"/><line style="stroke:#181818;stroke-width:1.0;" x1="880.5" x2="1427" y1="662.0859" y2="662.0859"/><text fill="#000000" font-family="sans-serif" font-size="13" font-weight="bold" lengthAdjust="spacing" textLength="14" x="887.5" y="657.3311">18</text><text fill="#000000" font-family="sans-serif" font-size="13" lengthAdjust="spacing" textLength="67" x="905.5" y="657.3311">GetById(iD)</text><polygon fill="#181818" points="891.5,686.6094,881.5,690.6094,891.5,694.6094,887.5,690.6094" style="stroke:#181818;stroke-width:1.0;"/><line style="stroke:#181818;stroke-width:1.0;stroke-dasharray:2.0,2.0;" x1="885.5" x2="1432" y1="690.6094" y2="690.6094"/><text fill="#000000" font-family="sans-serif" font-size="13" font-weight="bold" lengthAdjust="spacing" textLength="14" x="897.5" y="685.8545">19</text><text fill="#000000" font-family="sans-serif" font-size="13" lengthAdjust="spacing" textLength="20" x="915.5" y="685.8545">null</text><polygon fill="#181818" points="739.5,715.1328,729.5,719.1328,739.5,723.1328,735.5,719.1328" style="stroke:#181818;stroke-width:1.0;"/><line style="stroke:#181818;stroke-width:1.0;stroke-dasharray:2.0,2.0;" x1="733.5" x2="874.5" y1="719.1328" y2="719.1328"/><text fill="#000000" font-family="sans-serif" font-size="13" font-weight="bold" lengthAdjust="spacing" textLength="14" x="745.5" y="714.3779">20</text><text fill="#000000" font-family="sans-serif" font-size="13" lengthAdjust="spacing" textLength="20" x="763.5" y="714.3779">null</text><polygon fill="#181818" points="589.5,743.6563,579.5,747.6563,589.5,751.6563,585.5,747.6563" style="stroke:#181818;stroke-width:1.0;"/><line style="stroke:#181818;stroke-width:1.0;stroke-dasharray:2.0,2.0;" x1="583.5" x2="722.5" y1="747.6563" y2="747.6563"/><text fill="#000000" font-family="sans-serif" font-size="13" font-weight="bold" lengthAdjust="spacing" textLength="14" x="595.5" y="742.9014">21</text><text fill="#000000" font-family="sans-serif" font-size="13" lengthAdjust="spacing" textLength="20" x="613.5" y="742.9014">null</text><polygon fill="#181818" points="437.5,772.1797,427.5,776.1797,437.5,780.1797,433.5,776.1797" style="stroke:#181818;stroke-width:1.0;"/><line style="stroke:#181818;stroke-width:1.0;stroke-dasharray:2.0,2.0;" x1="431.5" x2="572.5" y1="776.1797" y2="776.1797"/><text fill="#000000" font-family="sans-serif" font-size="13" font-weight="bold" lengthAdjust="spacing" textLength="14" x="443.5" y="771.4248">22</text><text fill="#000000" font-family="sans-serif" font-size="13" lengthAdjust="spacing" textLength="100" x="461.5" y="771.4248">404 NOT FOUND</text><polygon fill="#181818" points="110.5,800.7031,100.5,804.7031,110.5,808.7031,106.5,804.7031" style="stroke:#181818;stroke-width:1.0;"/><line style="stroke:#181818;stroke-width:1.0;stroke-dasharray:2.0,2.0;" x1="104.5" x2="420.5" y1="804.7031" y2="804.7031"/><text fill="#000000" font-family="sans-serif" font-size="13" font-weight="bold" lengthAdjust="spacing" textLength="14" x="116.5" y="799.9482">23</text><text fill="#000000" font-family="sans-serif" font-size="13" lengthAdjust="spacing" textLength="153" x="134.5" y="799.9482">display a message of error</text><!--MD5=[15955c1b3b895cf9ce6bfb1b65707c96]
@startuml 
autonumber
actor "Warehouse Manager" as admin
box "<<System(C4)>>\n       EletricGo" #LightYellow
participant SPA as ui <<Container(C4)>>
box "<<Container(C4)>>\n    Warehouse Management" #LightGreen
participant WarehouseRoute as  WM <<Component(C4)>>
participant WarehouseController as  CTL <<Component(C4)>>
participant WarehouseService as  SV <<Component(C4)>>
participant "warehouse : Warehouse" as  W <<Component(C4)>>
participant "warehouseDto : WarehouseDTO" as  DTO <<Component(C4)>>
participant WarehouseRepository as  WR <<Component(C4)>>
end box
end box

admin -> ui: I want to consult the details on a warehouse
activate ui

ui - -> admin: asks for the ID of the warehouse
deactivate ui

admin -> ui: inserts the ID of the warehouse
activate ui
ui -> WM :  GET GetById(id)
activate WM
alt If the Id entered matches the Id of a warehouse in the system
WM -> CTL : GetById(id)
activate CTL
CTL -> SV : GetWarehouse(Id)
activate SV 
SV -> WR : GetById(iD)
activate WR
WR - -> SV : warehouse
deactivate WR
SV -> W : toWarehouseDto()
activate W
W- -> SV : warehouseDto
deactivate W
SV - -> CTL : warehouseDto
deactivate SV
CTL - -> WM: warehouseDto
deactivate CTL
WM - -> ui : 200 OK 
deactivate WM 
ui - -> admin: displays the details of the requested warehouse
deactivate ui

else If the Id entered does not match the Id of a warehouse in the system

ui -> WM :  GET GetById(id)
activate ui
activate WM
alt If the Id entered matches the Id of a warehouse in the system
WM -> CTL : GetById(id)
activate CTL
CTL -> SV : GetWarehouse(Id)
activate SV 
SV -> WR : GetById(iD)
activate WR
WR - -> SV : null

SV - -> CTL : null
deactivate SV
CTL - -> WM: null
deactivate CTL

WM - -> ui : 404 NOT FOUND
deactivate WM 
ui - -> admin : display a message of error   
deactivate ui
end
deactivate admin
@enduml

PlantUML version 1.2022.12(Sun Oct 23 19:12:26 WEST 2022)
(GPL source distribution)
Java Runtime: OpenJDK Runtime Environment
JVM: OpenJDK 64-Bit Server VM
Default Encoding: Cp1252
Language: pt
Country: BR
--></g></svg>