<?xml version="1.0" encoding="UTF-8" standalone="no"?><svg xmlns="http://www.w3.org/2000/svg" xmlns:xlink="http://www.w3.org/1999/xlink" contentStyleType="text/css" height="187px" preserveAspectRatio="none" style="width:954px;height:187px;background:#FFFFFF;" version="1.1" viewBox="0 0 954 187" width="954px" zoomAndPan="magnify"><defs/><g><!--MD5=[97ab183161fd5d1db7fba7485cf76add]
entity Admin--><g id="elem_Admin"><ellipse cx="487.5" cy="22" fill="#F1F1F1" rx="16" ry="16" style="stroke:#181818;stroke-width:1.5;"/><path d="M487.5,42 C491.5,42 494.5,42 498.5,38 C506.5,38 514.5,46 514.5,54 L514.5,58 C514.5,62 510.5,66 506.5,66 L468.5,66 C464.5,66 460.5,62 460.5,58 L460.5,54 C460.5,46 468.5,38 476.5,38 C480.5,42 483.5,42 487.5,42 " fill="#F1F1F1" style="stroke:#181818;stroke-width:1.5;"/><text fill="#000000" font-family="sans-serif" font-size="14" lengthAdjust="spacing" textLength="133" x="421" y="80.1738">Warehouse Manager</text></g><g id="elem_US1"><ellipse cx="88.7445" cy="162.4489" fill="#F1F1F1" rx="82.7445" ry="18.9489" style="stroke:#181818;stroke-width:0.5;"/><text fill="#000000" font-family="sans-serif" font-size="14" lengthAdjust="spacing" textLength="127" x="25.2445" y="165.3024">Create Warehouses</text></g><g id="elem_US2"><ellipse cx="289.6175" cy="162.6235" fill="#F1F1F1" rx="83.6175" ry="19.1235" style="stroke:#181818;stroke-width:0.5;"/><text fill="#000000" font-family="sans-serif" font-size="14" lengthAdjust="spacing" textLength="129" x="225.1175" y="165.477">Update Warehouses</text></g><g id="elem_US3"><ellipse cx="487.3547" cy="162.6709" fill="#F1F1F1" rx="78.8547" ry="18.1709" style="stroke:#181818;stroke-width:0.5;"/><text fill="#000000" font-family="sans-serif" font-size="14" lengthAdjust="spacing" textLength="118" x="428.3547" y="165.5245">Read Warehouses</text></g><g id="elem_US4"><ellipse cx="683.3745" cy="162.2749" fill="#F1F1F1" rx="81.8745" ry="18.7749" style="stroke:#181818;stroke-width:0.5;"/><text fill="#000000" font-family="sans-serif" font-size="14" lengthAdjust="spacing" textLength="125" x="620.8745" y="165.1284">Delete Warehouses</text></g><g id="elem_US5"><ellipse cx="874.2809" cy="162.6562" fill="#F1F1F1" rx="73.7809" ry="17.1562" style="stroke:#181818;stroke-width:0.5;"/><text fill="#000000" font-family="sans-serif" font-size="14" lengthAdjust="spacing" textLength="106" x="821.2809" y="165.5097">List Warehouses</text></g><!--MD5=[010bdba11f7026484c94878b456da6d9]
link Admin to US1--><g id="link_Admin_US1"><path d="M420.72,64.5 C342.62,87.3 214.85,124.61 142.64,145.69 " fill="none" id="Admin-to-US1" style="stroke:#181818;stroke-width:1.0;"/><polygon fill="#181818" points="137.54,147.18,147.3,148.5,142.34,145.78,145.06,140.82,137.54,147.18" style="stroke:#181818;stroke-width:1.0;"/></g><!--MD5=[0216801507526561d239633d456b6b8c]
link Admin to US2--><g id="link_Admin_US2"><path d="M421.84,83.63 C388.64,103.17 349.78,126.03 322.79,141.91 " fill="none" id="Admin-to-US2" style="stroke:#181818;stroke-width:1.0;"/><polygon fill="#181818" points="318.23,144.6,328.0173,143.5001,322.5437,142.0718,323.9721,136.5982,318.23,144.6" style="stroke:#181818;stroke-width:1.0;"/></g><!--MD5=[f1a67b75961a2c853b26dd5edbc417b0]
link Admin to US3--><g id="link_Admin_US3"><path d="M487.5,83.79 C487.5,102.23 487.5,123.6 487.5,139.26 " fill="none" id="Admin-to-US3" style="stroke:#181818;stroke-width:1.0;"/><polygon fill="#181818" points="487.5,144.34,491.5,135.34,487.5,139.34,483.5,135.34,487.5,144.34" style="stroke:#181818;stroke-width:1.0;"/></g><!--MD5=[2123d53f313ff7a4c1ca99c336ca3893]
link Admin to US4--><g id="link_Admin_US4"><path d="M552.49,83.63 C585.36,103.17 623.83,126.03 650.55,141.91 " fill="none" id="Admin-to-US4" style="stroke:#181818;stroke-width:1.0;"/><polygon fill="#181818" points="655.06,144.6,649.369,136.5618,650.7625,142.0443,645.28,143.4378,655.06,144.6" style="stroke:#181818;stroke-width:1.0;"/></g><!--MD5=[cd001ac715c3b3271e8905a63127b805]
link Admin to US5--><g id="link_Admin_US5"><path d="M554.03,65.03 C631.69,88.41 758.22,126.5 826.75,147.13 " fill="none" id="Admin-to-US5" style="stroke:#181818;stroke-width:1.0;"/><polygon fill="#181818" points="831.58,148.58,824.1177,142.1523,826.7928,147.1367,821.8085,149.8118,831.58,148.58" style="stroke:#181818;stroke-width:1.0;"/></g><!--MD5=[4400087b70e4552fb953fb77136446f6]
@startuml

skinparam actorStyle awesome
"Warehouse Manager" as Admin

"Create Warehouses" as (US1)
"Update Warehouses" as (US2)
"Read Warehouses" as (US3)
"Delete Warehouses" as (US4)
"List Warehouses" as (US5)

Admin - -> (US1)
Admin - -> (US2)
Admin - -> (US3)
Admin - -> (US4)
Admin - -> (US5)
@enduml

PlantUML version 1.2022.12(Sun Oct 23 19:12:26 WEST 2022)
(GPL source distribution)
Java Runtime: OpenJDK Runtime Environment
JVM: OpenJDK 64-Bit Server VM
Default Encoding: Cp1252
Language: pt
Country: BR
--></g></svg>