<?xml version="1.0" encoding="UTF-8" standalone="no"?><svg xmlns="http://www.w3.org/2000/svg" xmlns:xlink="http://www.w3.org/1999/xlink" contentStyleType="text/css" height="1313px" preserveAspectRatio="none" style="width:1695px;height:1313px;background:#FFFFFF;" version="1.1" viewBox="0 0 1695 1313" width="1695px" zoomAndPan="magnify"><defs/><g><rect fill="#FFFFE0" height="1301.7813" style="stroke:#181818;stroke-width:0.5;" width="128" x="307.5" y="6"/><text fill="#000000" font-family="sans-serif" font-size="13" font-weight="bold" lengthAdjust="spacing" textLength="102" x="320.5" y="17.7686">&lt;&lt;System(C4)&gt;&gt;</text><text fill="#000000" font-family="sans-serif" font-size="13" font-weight="bold" lengthAdjust="spacing" textLength="58" x="348.5" y="32.292">EletricGo</text><rect fill="#90EE90" height="1301.7813" style="stroke:#181818;stroke-width:0.5;" width="1244.5" x="437.5" y="6"/><text fill="#000000" font-family="sans-serif" font-size="13" font-weight="bold" lengthAdjust="spacing" textLength="118" x="972.25" y="17.7686">&lt;&lt;Container(C4)&gt;&gt;</text><text fill="#000000" font-family="sans-serif" font-size="13" font-weight="bold" lengthAdjust="spacing" textLength="159" x="988.25" y="32.292">Warehouse Management</text><rect fill="#FFFFFF" height="28.5234" style="stroke:#181818;stroke-width:1.0;" width="10" x="366.5" y="115.8516"/><rect fill="#FFFFFF" height="28.5234" style="stroke:#181818;stroke-width:1.0;" width="10" x="366.5" y="172.8984"/><rect fill="#FFFFFF" height="432.1953" style="stroke:#181818;stroke-width:1.0;" width="10" x="366.5" y="229.9453"/><rect fill="#FFFFFF" height="28.5234" style="stroke:#181818;stroke-width:1.0;" width="10" x="366.5" y="876.0938"/><rect fill="#FFFFFF" height="28.5234" style="stroke:#181818;stroke-width:1.0;" width="10" x="366.5" y="1175.6172"/><rect fill="#FFFFFF" height="360.625" style="stroke:#181818;stroke-width:1.0;" width="10" x="502" y="258.4688"/><rect fill="#FFFFFF" height="171.1406" style="stroke:#181818;stroke-width:1.0;" width="10" x="502" y="704.9531"/><rect fill="#FFFFFF" height="228.1875" style="stroke:#181818;stroke-width:1.0;" width="10" x="502" y="947.4297"/><rect fill="#FFFFFF" height="258.1875" style="stroke:#181818;stroke-width:1.0;" width="10" x="703" y="332.3828"/><rect fill="#FFFFFF" height="142.6172" style="stroke:#181818;stroke-width:1.0;" width="10" x="703" y="704.9531"/><rect fill="#FFFFFF" height="199.6641" style="stroke:#181818;stroke-width:1.0;" width="10" x="703" y="947.4297"/><rect fill="#FFFFFF" height="201.1406" style="stroke:#181818;stroke-width:1.0;" width="10" x="947" y="360.9063"/><rect fill="#FFFFFF" height="85.5703" style="stroke:#181818;stroke-width:1.0;" width="10" x="947" y="733.4766"/><rect fill="#FFFFFF" height="142.6172" style="stroke:#181818;stroke-width:1.0;" width="10" x="947" y="975.9531"/><rect fill="#FFFFFF" height="30" style="stroke:#181818;stroke-width:1.0;" width="10" x="1194" y="446.4766"/><rect fill="#FFFFFF" height="28.5234" style="stroke:#181818;stroke-width:1.0;" width="10" x="1194" y="505"/><rect fill="#FFFFFF" height="28.5234" style="stroke:#181818;stroke-width:1.0;" width="10" x="1194" y="1061.5234"/><rect fill="#FFFFFF" height="28.5234" style="stroke:#181818;stroke-width:1.0;" width="10" x="1595.5" y="389.4297"/><rect fill="#FFFFFF" height="28.5234" style="stroke:#181818;stroke-width:1.0;" width="10" x="1595.5" y="762"/><rect fill="#FFFFFF" height="28.5234" style="stroke:#181818;stroke-width:1.0;" width="10" x="1595.5" y="1004.4766"/><rect fill="none" height="938.6719" style="stroke:#000000;stroke-width:1.5;" width="1678" x="10" y="273.4688"/><line style="stroke:#181818;stroke-width:0.5;stroke-dasharray:5.0,5.0;" x1="89" x2="89" y1="85.3281" y2="1229.1406"/><line style="stroke:#181818;stroke-width:0.5;stroke-dasharray:5.0,5.0;" x1="371.5" x2="371.5" y1="85.3281" y2="1229.1406"/><line style="stroke:#181818;stroke-width:0.5;stroke-dasharray:5.0,5.0;" x1="506.5" x2="506.5" y1="85.3281" y2="1229.1406"/><line style="stroke:#181818;stroke-width:0.5;stroke-dasharray:5.0,5.0;" x1="707.5" x2="707.5" y1="85.3281" y2="1229.1406"/><line style="stroke:#181818;stroke-width:0.5;stroke-dasharray:5.0,5.0;" x1="952" x2="952" y1="85.3281" y2="1229.1406"/><line style="stroke:#181818;stroke-width:0.5;stroke-dasharray:5.0,5.0;" x1="1199" x2="1199" y1="85.3281" y2="1229.1406"/><line style="stroke:#181818;stroke-width:0.5;stroke-dasharray:5.0,5.0;" x1="1403" x2="1403" y1="85.3281" y2="1229.1406"/><line style="stroke:#181818;stroke-width:0.5;stroke-dasharray:5.0,5.0;" x1="1600" x2="1600" y1="85.3281" y2="1229.1406"/><text fill="#000000" font-family="sans-serif" font-size="14" lengthAdjust="spacing" textLength="133" x="20" y="82.3613">Warehouse Manager</text><ellipse cx="89.5" cy="18.1875" fill="#E2E2F0" rx="8" ry="8" style="stroke:#181818;stroke-width:0.5;"/><path d="M89.5,26.1875 L89.5,53.1875 M76.5,34.1875 L102.5,34.1875 M89.5,53.1875 L76.5,68.1875 M89.5,53.1875 L102.5,68.1875 " fill="none" style="stroke:#181818;stroke-width:0.5;"/><text fill="#000000" font-family="sans-serif" font-size="14" lengthAdjust="spacing" textLength="133" x="20" y="1240.8145">Warehouse Manager</text><ellipse cx="89.5" cy="1252.2813" fill="#E2E2F0" rx="8" ry="8" style="stroke:#181818;stroke-width:0.5;"/><path d="M89.5,1260.2813 L89.5,1287.2813 M76.5,1268.2813 L102.5,1268.2813 M89.5,1287.2813 L76.5,1302.2813 M89.5,1287.2813 L102.5,1302.2813 " fill="none" style="stroke:#181818;stroke-width:0.5;"/><rect fill="#FFFFFF" height="45.2813" rx="2.5" ry="2.5" style="stroke:#000000;stroke-width:0.5;" width="120" x="311.5" y="39.0469"/><text fill="#000000" font-family="sans-serif" font-size="14" font-style="italic" lengthAdjust="spacing" textLength="106" x="318.5" y="58.7207">«Container(C4)»</text><text fill="#000000" font-family="sans-serif" font-size="14" lengthAdjust="spacing" textLength="27" x="358" y="74.3613">SPA</text><rect fill="#FFFFFF" height="45.2813" rx="2.5" ry="2.5" style="stroke:#000000;stroke-width:0.5;" width="120" x="311.5" y="1228.1406"/><text fill="#000000" font-family="sans-serif" font-size="14" font-style="italic" lengthAdjust="spacing" textLength="106" x="318.5" y="1247.8145">«Container(C4)»</text><text fill="#000000" font-family="sans-serif" font-size="14" lengthAdjust="spacing" textLength="27" x="358" y="1263.4551">SPA</text><rect fill="#FFFFFF" height="45.2813" rx="2.5" ry="2.5" style="stroke:#000000;stroke-width:0.5;" width="131" x="441.5" y="39.0469"/><text fill="#000000" font-family="sans-serif" font-size="14" font-style="italic" lengthAdjust="spacing" textLength="117" x="448.5" y="58.7207">«Component(C4)»</text><text fill="#000000" font-family="sans-serif" font-size="14" lengthAdjust="spacing" textLength="111" x="451.5" y="74.3613">WarehouseRoute</text><rect fill="#FFFFFF" height="45.2813" rx="2.5" ry="2.5" style="stroke:#000000;stroke-width:0.5;" width="131" x="441.5" y="1228.1406"/><text fill="#000000" font-family="sans-serif" font-size="14" font-style="italic" lengthAdjust="spacing" textLength="117" x="448.5" y="1247.8145">«Component(C4)»</text><text fill="#000000" font-family="sans-serif" font-size="14" lengthAdjust="spacing" textLength="111" x="451.5" y="1263.4551">WarehouseRoute</text><rect fill="#FFFFFF" height="45.2813" rx="2.5" ry="2.5" style="stroke:#000000;stroke-width:0.5;" width="149" x="633.5" y="39.0469"/><text fill="#000000" font-family="sans-serif" font-size="14" font-style="italic" lengthAdjust="spacing" textLength="117" x="649.5" y="58.7207">«Component(C4)»</text><text fill="#000000" font-family="sans-serif" font-size="14" lengthAdjust="spacing" textLength="135" x="640.5" y="74.3613">WarehouseController</text><rect fill="#FFFFFF" height="45.2813" rx="2.5" ry="2.5" style="stroke:#000000;stroke-width:0.5;" width="149" x="633.5" y="1228.1406"/><text fill="#000000" font-family="sans-serif" font-size="14" font-style="italic" lengthAdjust="spacing" textLength="117" x="649.5" y="1247.8145">«Component(C4)»</text><text fill="#000000" font-family="sans-serif" font-size="14" lengthAdjust="spacing" textLength="135" x="640.5" y="1263.4551">WarehouseController</text><rect fill="#FFFFFF" height="45.2813" rx="2.5" ry="2.5" style="stroke:#000000;stroke-width:0.5;" width="134" x="885" y="39.0469"/><text fill="#000000" font-family="sans-serif" font-size="14" font-style="italic" lengthAdjust="spacing" textLength="117" x="893.5" y="58.7207">«Component(C4)»</text><text fill="#000000" font-family="sans-serif" font-size="14" lengthAdjust="spacing" textLength="120" x="892" y="74.3613">WarehouseService</text><rect fill="#FFFFFF" height="45.2813" rx="2.5" ry="2.5" style="stroke:#000000;stroke-width:0.5;" width="134" x="885" y="1228.1406"/><text fill="#000000" font-family="sans-serif" font-size="14" font-style="italic" lengthAdjust="spacing" textLength="117" x="893.5" y="1247.8145">«Component(C4)»</text><text fill="#000000" font-family="sans-serif" font-size="14" lengthAdjust="spacing" textLength="120" x="892" y="1263.4551">WarehouseService</text><rect fill="#FFFFFF" height="45.2813" rx="2.5" ry="2.5" style="stroke:#000000;stroke-width:0.5;" width="168" x="1115" y="39.0469"/><text fill="#000000" font-family="sans-serif" font-size="14" font-style="italic" lengthAdjust="spacing" textLength="117" x="1140.5" y="58.7207">«Component(C4)»</text><text fill="#000000" font-family="sans-serif" font-size="14" lengthAdjust="spacing" textLength="154" x="1122" y="74.3613">warehouse : Warehouse</text><rect fill="#FFFFFF" height="45.2813" rx="2.5" ry="2.5" style="stroke:#000000;stroke-width:0.5;" width="168" x="1115" y="1228.1406"/><text fill="#000000" font-family="sans-serif" font-size="14" font-style="italic" lengthAdjust="spacing" textLength="117" x="1140.5" y="1247.8145">«Component(C4)»</text><text fill="#000000" font-family="sans-serif" font-size="14" lengthAdjust="spacing" textLength="154" x="1122" y="1263.4551">warehouse : Warehouse</text><rect fill="#FFFFFF" height="45.2813" rx="2.5" ry="2.5" style="stroke:#000000;stroke-width:0.5;" width="220" x="1293" y="39.0469"/><text fill="#000000" font-family="sans-serif" font-size="14" font-style="italic" lengthAdjust="spacing" textLength="117" x="1344.5" y="58.7207">«Component(C4)»</text><text fill="#000000" font-family="sans-serif" font-size="14" lengthAdjust="spacing" textLength="206" x="1300" y="74.3613">warehouseDto : WarehouseDTO</text><rect fill="#FFFFFF" height="45.2813" rx="2.5" ry="2.5" style="stroke:#000000;stroke-width:0.5;" width="220" x="1293" y="1228.1406"/><text fill="#000000" font-family="sans-serif" font-size="14" font-style="italic" lengthAdjust="spacing" textLength="117" x="1344.5" y="1247.8145">«Component(C4)»</text><text fill="#000000" font-family="sans-serif" font-size="14" lengthAdjust="spacing" textLength="206" x="1300" y="1263.4551">warehouseDto : WarehouseDTO</text><rect fill="#FFFFFF" height="45.2813" rx="2.5" ry="2.5" style="stroke:#000000;stroke-width:0.5;" width="155" x="1523" y="39.0469"/><text fill="#000000" font-family="sans-serif" font-size="14" font-style="italic" lengthAdjust="spacing" textLength="117" x="1542" y="58.7207">«Component(C4)»</text><text fill="#000000" font-family="sans-serif" font-size="14" lengthAdjust="spacing" textLength="141" x="1530" y="74.3613">WarehouseRepository</text><rect fill="#FFFFFF" height="45.2813" rx="2.5" ry="2.5" style="stroke:#000000;stroke-width:0.5;" width="155" x="1523" y="1228.1406"/><text fill="#000000" font-family="sans-serif" font-size="14" font-style="italic" lengthAdjust="spacing" textLength="117" x="1542" y="1247.8145">«Component(C4)»</text><text fill="#000000" font-family="sans-serif" font-size="14" lengthAdjust="spacing" textLength="141" x="1530" y="1263.4551">WarehouseRepository</text><rect fill="#FFFFFF" height="28.5234" style="stroke:#181818;stroke-width:1.0;" width="10" x="366.5" y="115.8516"/><rect fill="#FFFFFF" height="28.5234" style="stroke:#181818;stroke-width:1.0;" width="10" x="366.5" y="172.8984"/><rect fill="#FFFFFF" height="432.1953" style="stroke:#181818;stroke-width:1.0;" width="10" x="366.5" y="229.9453"/><rect fill="#FFFFFF" height="28.5234" style="stroke:#181818;stroke-width:1.0;" width="10" x="366.5" y="876.0938"/><rect fill="#FFFFFF" height="28.5234" style="stroke:#181818;stroke-width:1.0;" width="10" x="366.5" y="1175.6172"/><rect fill="#FFFFFF" height="360.625" style="stroke:#181818;stroke-width:1.0;" width="10" x="502" y="258.4688"/><rect fill="#FFFFFF" height="171.1406" style="stroke:#181818;stroke-width:1.0;" width="10" x="502" y="704.9531"/><rect fill="#FFFFFF" height="228.1875" style="stroke:#181818;stroke-width:1.0;" width="10" x="502" y="947.4297"/><rect fill="#FFFFFF" height="258.1875" style="stroke:#181818;stroke-width:1.0;" width="10" x="703" y="332.3828"/><rect fill="#FFFFFF" height="142.6172" style="stroke:#181818;stroke-width:1.0;" width="10" x="703" y="704.9531"/><rect fill="#FFFFFF" height="199.6641" style="stroke:#181818;stroke-width:1.0;" width="10" x="703" y="947.4297"/><rect fill="#FFFFFF" height="201.1406" style="stroke:#181818;stroke-width:1.0;" width="10" x="947" y="360.9063"/><rect fill="#FFFFFF" height="85.5703" style="stroke:#181818;stroke-width:1.0;" width="10" x="947" y="733.4766"/><rect fill="#FFFFFF" height="142.6172" style="stroke:#181818;stroke-width:1.0;" width="10" x="947" y="975.9531"/><rect fill="#FFFFFF" height="30" style="stroke:#181818;stroke-width:1.0;" width="10" x="1194" y="446.4766"/><rect fill="#FFFFFF" height="28.5234" style="stroke:#181818;stroke-width:1.0;" width="10" x="1194" y="505"/><rect fill="#FFFFFF" height="28.5234" style="stroke:#181818;stroke-width:1.0;" width="10" x="1194" y="1061.5234"/><rect fill="#FFFFFF" height="28.5234" style="stroke:#181818;stroke-width:1.0;" width="10" x="1595.5" y="389.4297"/><rect fill="#FFFFFF" height="28.5234" style="stroke:#181818;stroke-width:1.0;" width="10" x="1595.5" y="762"/><rect fill="#FFFFFF" height="28.5234" style="stroke:#181818;stroke-width:1.0;" width="10" x="1595.5" y="1004.4766"/><polygon fill="#181818" points="354.5,111.8516,364.5,115.8516,354.5,119.8516,358.5,115.8516" style="stroke:#181818;stroke-width:1.0;"/><line style="stroke:#181818;stroke-width:1.0;" x1="89.5" x2="360.5" y1="115.8516" y2="115.8516"/><text fill="#000000" font-family="sans-serif" font-size="13" font-weight="bold" lengthAdjust="spacing" textLength="7" x="96.5" y="111.0967">1</text><text fill="#000000" font-family="sans-serif" font-size="13" lengthAdjust="spacing" textLength="247" x="107.5" y="111.0967">I want to update the details of a warehouse</text><polygon fill="#181818" points="100.5,140.375,90.5,144.375,100.5,148.375,96.5,144.375" style="stroke:#181818;stroke-width:1.0;"/><line style="stroke:#181818;stroke-width:1.0;stroke-dasharray:2.0,2.0;" x1="94.5" x2="370.5" y1="144.375" y2="144.375"/><text fill="#000000" font-family="sans-serif" font-size="13" font-weight="bold" lengthAdjust="spacing" textLength="7" x="106.5" y="139.6201">2</text><text fill="#000000" font-family="sans-serif" font-size="13" lengthAdjust="spacing" textLength="186" x="117.5" y="139.6201">asks for the ID of the warehouse</text><polygon fill="#181818" points="354.5,168.8984,364.5,172.8984,354.5,176.8984,358.5,172.8984" style="stroke:#181818;stroke-width:1.0;"/><line style="stroke:#181818;stroke-width:1.0;" x1="89.5" x2="360.5" y1="172.8984" y2="172.8984"/><text fill="#000000" font-family="sans-serif" font-size="13" font-weight="bold" lengthAdjust="spacing" textLength="7" x="96.5" y="168.1436">3</text><text fill="#000000" font-family="sans-serif" font-size="13" lengthAdjust="spacing" textLength="179" x="107.5" y="168.1436">inserts the ID of the warehouse</text><polygon fill="#181818" points="100.5,197.4219,90.5,201.4219,100.5,205.4219,96.5,201.4219" style="stroke:#181818;stroke-width:1.0;"/><line style="stroke:#181818;stroke-width:1.0;stroke-dasharray:2.0,2.0;" x1="94.5" x2="370.5" y1="201.4219" y2="201.4219"/><text fill="#000000" font-family="sans-serif" font-size="13" font-weight="bold" lengthAdjust="spacing" textLength="7" x="106.5" y="196.667">4</text><text fill="#000000" font-family="sans-serif" font-size="13" lengthAdjust="spacing" textLength="193" x="117.5" y="196.667">asks for the information to update</text><polygon fill="#181818" points="354.5,225.9453,364.5,229.9453,354.5,233.9453,358.5,229.9453" style="stroke:#181818;stroke-width:1.0;"/><line style="stroke:#181818;stroke-width:1.0;" x1="89.5" x2="360.5" y1="229.9453" y2="229.9453"/><text fill="#000000" font-family="sans-serif" font-size="13" font-weight="bold" lengthAdjust="spacing" textLength="7" x="96.5" y="225.1904">5</text><text fill="#000000" font-family="sans-serif" font-size="13" lengthAdjust="spacing" textLength="186" x="107.5" y="225.1904">inserts the information to update</text><polygon fill="#181818" points="490,254.4688,500,258.4688,490,262.4688,494,258.4688" style="stroke:#181818;stroke-width:1.0;"/><line style="stroke:#181818;stroke-width:1.0;" x1="376.5" x2="496" y1="258.4688" y2="258.4688"/><text fill="#000000" font-family="sans-serif" font-size="13" font-weight="bold" lengthAdjust="spacing" textLength="7" x="383.5" y="253.7139">6</text><text fill="#000000" font-family="sans-serif" font-size="13" lengthAdjust="spacing" textLength="78" x="394.5" y="253.7139">PUT Update()</text><path d="M10,273.4688 L71,273.4688 L71,279.9922 L61,289.9922 L10,289.9922 L10,273.4688 " fill="#EEEEEE" style="stroke:#000000;stroke-width:1.5;"/><rect fill="none" height="938.6719" style="stroke:#000000;stroke-width:1.5;" width="1678" x="10" y="273.4688"/><text fill="#000000" font-family="sans-serif" font-size="13" font-weight="bold" lengthAdjust="spacing" textLength="16" x="25" y="286.2373">alt</text><text fill="#000000" font-family="sans-serif" font-size="11" font-weight="bold" lengthAdjust="spacing" textLength="266" x="86" y="285.4268">[If the Id entered matches the Id of a warehouse</text><text fill="#000000" font-family="sans-serif" font-size="11" font-weight="bold" lengthAdjust="spacing" textLength="247" x="92" y="297.7158">in the system and the business rules for the</text><text fill="#000000" font-family="sans-serif" font-size="11" font-weight="bold" lengthAdjust="spacing" textLength="166" x="92" y="310.0049">new attributes are respected]</text><polygon fill="#181818" points="691,328.3828,701,332.3828,691,336.3828,695,332.3828" style="stroke:#181818;stroke-width:1.0;"/><line style="stroke:#181818;stroke-width:1.0;" x1="512" x2="697" y1="332.3828" y2="332.3828"/><text fill="#000000" font-family="sans-serif" font-size="13" font-weight="bold" lengthAdjust="spacing" textLength="7" x="519" y="327.6279">7</text><text fill="#000000" font-family="sans-serif" font-size="13" lengthAdjust="spacing" textLength="49" x="530" y="327.6279">Update()</text><polygon fill="#181818" points="935,356.9063,945,360.9063,935,364.9063,939,360.9063" style="stroke:#181818;stroke-width:1.0;"/><line style="stroke:#181818;stroke-width:1.0;" x1="713" x2="941" y1="360.9063" y2="360.9063"/><text fill="#000000" font-family="sans-serif" font-size="13" font-weight="bold" lengthAdjust="spacing" textLength="7" x="720" y="356.1514">8</text><text fill="#000000" font-family="sans-serif" font-size="13" lengthAdjust="spacing" textLength="197" x="731" y="356.1514">UpdateWarehouse(warehouseDto)</text><polygon fill="#181818" points="1583.5,385.4297,1593.5,389.4297,1583.5,393.4297,1587.5,389.4297" style="stroke:#181818;stroke-width:1.0;"/><line style="stroke:#181818;stroke-width:1.0;" x1="957" x2="1589.5" y1="389.4297" y2="389.4297"/><text fill="#000000" font-family="sans-serif" font-size="13" font-weight="bold" lengthAdjust="spacing" textLength="7" x="964" y="384.6748">9</text><text fill="#000000" font-family="sans-serif" font-size="13" lengthAdjust="spacing" textLength="151" x="975" y="384.6748">GetById(warehouseDto.Id)</text><polygon fill="#181818" points="968,413.9531,958,417.9531,968,421.9531,964,417.9531" style="stroke:#181818;stroke-width:1.0;"/><line style="stroke:#181818;stroke-width:1.0;stroke-dasharray:2.0,2.0;" x1="962" x2="1599.5" y1="417.9531" y2="417.9531"/><text fill="#000000" font-family="sans-serif" font-size="13" font-weight="bold" lengthAdjust="spacing" textLength="14" x="974" y="413.1982">10</text><text fill="#000000" font-family="sans-serif" font-size="13" lengthAdjust="spacing" textLength="62" x="992" y="413.1982">warehouse</text><polygon fill="#181818" points="1182,442.4766,1192,446.4766,1182,450.4766,1186,446.4766" style="stroke:#181818;stroke-width:1.0;"/><line style="stroke:#181818;stroke-width:1.0;" x1="957" x2="1188" y1="446.4766" y2="446.4766"/><text fill="#000000" font-family="sans-serif" font-size="13" font-weight="bold" lengthAdjust="spacing" textLength="14" x="964" y="441.7217">11</text><text fill="#000000" font-family="sans-serif" font-size="13" lengthAdjust="spacing" textLength="131" x="982" y="441.7217">Update(warehouseDto)</text><polygon fill="#181818" points="1182,501,1192,505,1182,509,1186,505" style="stroke:#181818;stroke-width:1.0;"/><line style="stroke:#181818;stroke-width:1.0;" x1="957" x2="1188" y1="505" y2="505"/><text fill="#000000" font-family="sans-serif" font-size="13" font-weight="bold" lengthAdjust="spacing" textLength="14" x="964" y="500.2451">12</text><text fill="#000000" font-family="sans-serif" font-size="13" lengthAdjust="spacing" textLength="105" x="982" y="500.2451">toWarehouseDto()</text><polygon fill="#181818" points="968,529.5234,958,533.5234,968,537.5234,964,533.5234" style="stroke:#181818;stroke-width:1.0;"/><line style="stroke:#181818;stroke-width:1.0;stroke-dasharray:2.0,2.0;" x1="962" x2="1198" y1="533.5234" y2="533.5234"/><text fill="#000000" font-family="sans-serif" font-size="13" font-weight="bold" lengthAdjust="spacing" textLength="14" x="974" y="528.7686">13</text><text fill="#000000" font-family="sans-serif" font-size="13" lengthAdjust="spacing" textLength="82" x="992" y="528.7686">warehouseDto</text><polygon fill="#181818" points="724,558.0469,714,562.0469,724,566.0469,720,562.0469" style="stroke:#181818;stroke-width:1.0;"/><line style="stroke:#181818;stroke-width:1.0;stroke-dasharray:2.0,2.0;" x1="718" x2="951" y1="562.0469" y2="562.0469"/><text fill="#000000" font-family="sans-serif" font-size="13" font-weight="bold" lengthAdjust="spacing" textLength="14" x="730" y="557.292">14</text><text fill="#000000" font-family="sans-serif" font-size="13" lengthAdjust="spacing" textLength="82" x="748" y="557.292">warehouseDto</text><polygon fill="#181818" points="523,586.5703,513,590.5703,523,594.5703,519,590.5703" style="stroke:#181818;stroke-width:1.0;"/><line style="stroke:#181818;stroke-width:1.0;stroke-dasharray:2.0,2.0;" x1="517" x2="707" y1="590.5703" y2="590.5703"/><text fill="#000000" font-family="sans-serif" font-size="13" font-weight="bold" lengthAdjust="spacing" textLength="14" x="529" y="585.8154">15</text><text fill="#000000" font-family="sans-serif" font-size="13" lengthAdjust="spacing" textLength="82" x="547" y="585.8154">warehouseDto</text><polygon fill="#181818" points="387.5,615.0938,377.5,619.0938,387.5,623.0938,383.5,619.0938" style="stroke:#181818;stroke-width:1.0;"/><line style="stroke:#181818;stroke-width:1.0;stroke-dasharray:2.0,2.0;" x1="381.5" x2="506" y1="619.0938" y2="619.0938"/><text fill="#000000" font-family="sans-serif" font-size="13" font-weight="bold" lengthAdjust="spacing" textLength="14" x="393.5" y="614.3389">16</text><text fill="#000000" font-family="sans-serif" font-size="13" lengthAdjust="spacing" textLength="44" x="411.5" y="614.3389">200 OK</text><polygon fill="#181818" points="100.5,658.1406,90.5,662.1406,100.5,666.1406,96.5,662.1406" style="stroke:#181818;stroke-width:1.0;"/><line style="stroke:#181818;stroke-width:1.0;stroke-dasharray:2.0,2.0;" x1="94.5" x2="370.5" y1="662.1406" y2="662.1406"/><text fill="#000000" font-family="sans-serif" font-size="13" font-weight="bold" lengthAdjust="spacing" textLength="14" x="106.5" y="650.124">17</text><text fill="#000000" font-family="sans-serif" font-size="13" lengthAdjust="spacing" textLength="212" x="124.5" y="642.8623">displays the updated information and</text><text fill="#000000" font-family="sans-serif" font-size="13" lengthAdjust="spacing" textLength="210" x="124.5" y="657.3857">informs about the operation success</text><line style="stroke:#000000;stroke-width:1.0;stroke-dasharray:2.0,2.0;" x1="10" x2="1688" y1="671.1406" y2="671.1406"/><text fill="#000000" font-family="sans-serif" font-size="11" font-weight="bold" lengthAdjust="spacing" textLength="387" x="15" y="681.0986">[If the Id entered does not match the Id of a warehouse in the system]</text><polygon fill="#181818" points="691,700.9531,701,704.9531,691,708.9531,695,704.9531" style="stroke:#181818;stroke-width:1.0;"/><line style="stroke:#181818;stroke-width:1.0;" x1="512" x2="697" y1="704.9531" y2="704.9531"/><text fill="#000000" font-family="sans-serif" font-size="13" font-weight="bold" lengthAdjust="spacing" textLength="14" x="519" y="700.1982">18</text><text fill="#000000" font-family="sans-serif" font-size="13" lengthAdjust="spacing" textLength="49" x="537" y="700.1982">Update()</text><polygon fill="#181818" points="935,729.4766,945,733.4766,935,737.4766,939,733.4766" style="stroke:#181818;stroke-width:1.0;"/><line style="stroke:#181818;stroke-width:1.0;" x1="713" x2="941" y1="733.4766" y2="733.4766"/><text fill="#000000" font-family="sans-serif" font-size="13" font-weight="bold" lengthAdjust="spacing" textLength="14" x="720" y="728.7217">19</text><text fill="#000000" font-family="sans-serif" font-size="13" lengthAdjust="spacing" textLength="197" x="738" y="728.7217">UpdateWarehouse(warehouseDto)</text><polygon fill="#181818" points="1583.5,758,1593.5,762,1583.5,766,1587.5,762" style="stroke:#181818;stroke-width:1.0;"/><line style="stroke:#181818;stroke-width:1.0;" x1="957" x2="1589.5" y1="762" y2="762"/><text fill="#000000" font-family="sans-serif" font-size="13" font-weight="bold" lengthAdjust="spacing" textLength="14" x="964" y="757.2451">20</text><text fill="#000000" font-family="sans-serif" font-size="13" lengthAdjust="spacing" textLength="151" x="982" y="757.2451">GetById(warehouseDto.Id)</text><polygon fill="#181818" points="968,786.5234,958,790.5234,968,794.5234,964,790.5234" style="stroke:#181818;stroke-width:1.0;"/><line style="stroke:#181818;stroke-width:1.0;stroke-dasharray:2.0,2.0;" x1="962" x2="1599.5" y1="790.5234" y2="790.5234"/><text fill="#000000" font-family="sans-serif" font-size="13" font-weight="bold" lengthAdjust="spacing" textLength="14" x="974" y="785.7686">21</text><text fill="#000000" font-family="sans-serif" font-size="13" lengthAdjust="spacing" textLength="20" x="992" y="785.7686">null</text><polygon fill="#181818" points="724,815.0469,714,819.0469,724,823.0469,720,819.0469" style="stroke:#181818;stroke-width:1.0;"/><line style="stroke:#181818;stroke-width:1.0;stroke-dasharray:2.0,2.0;" x1="718" x2="951" y1="819.0469" y2="819.0469"/><text fill="#000000" font-family="sans-serif" font-size="13" font-weight="bold" lengthAdjust="spacing" textLength="14" x="730" y="814.292">22</text><text fill="#000000" font-family="sans-serif" font-size="13" lengthAdjust="spacing" textLength="20" x="748" y="814.292">null</text><polygon fill="#181818" points="523,843.5703,513,847.5703,523,851.5703,519,847.5703" style="stroke:#181818;stroke-width:1.0;"/><line style="stroke:#181818;stroke-width:1.0;stroke-dasharray:2.0,2.0;" x1="517" x2="707" y1="847.5703" y2="847.5703"/><text fill="#000000" font-family="sans-serif" font-size="13" font-weight="bold" lengthAdjust="spacing" textLength="14" x="529" y="842.8154">23</text><text fill="#000000" font-family="sans-serif" font-size="13" lengthAdjust="spacing" textLength="20" x="547" y="842.8154">null</text><polygon fill="#181818" points="387.5,872.0938,377.5,876.0938,387.5,880.0938,383.5,876.0938" style="stroke:#181818;stroke-width:1.0;"/><line style="stroke:#181818;stroke-width:1.0;stroke-dasharray:2.0,2.0;" x1="381.5" x2="506" y1="876.0938" y2="876.0938"/><text fill="#000000" font-family="sans-serif" font-size="13" font-weight="bold" lengthAdjust="spacing" textLength="14" x="393.5" y="871.3389">24</text><text fill="#000000" font-family="sans-serif" font-size="13" lengthAdjust="spacing" textLength="87" x="411.5" y="871.3389">409 CONFLICT</text><polygon fill="#181818" points="100.5,900.6172,90.5,904.6172,100.5,908.6172,96.5,904.6172" style="stroke:#181818;stroke-width:1.0;"/><line style="stroke:#181818;stroke-width:1.0;stroke-dasharray:2.0,2.0;" x1="94.5" x2="370.5" y1="904.6172" y2="904.6172"/><text fill="#000000" font-family="sans-serif" font-size="13" font-weight="bold" lengthAdjust="spacing" textLength="14" x="106.5" y="899.8623">25</text><text fill="#000000" font-family="sans-serif" font-size="13" lengthAdjust="spacing" textLength="139" x="124.5" y="899.8623">display a message error</text><line style="stroke:#000000;stroke-width:1.0;stroke-dasharray:2.0,2.0;" x1="10" x2="1688" y1="913.6172" y2="913.6172"/><text fill="#000000" font-family="sans-serif" font-size="11" font-weight="bold" lengthAdjust="spacing" textLength="349" x="15" y="923.5752">[If the business rules for the new attributes are not respected]</text><polygon fill="#181818" points="691,943.4297,701,947.4297,691,951.4297,695,947.4297" style="stroke:#181818;stroke-width:1.0;"/><line style="stroke:#181818;stroke-width:1.0;" x1="512" x2="697" y1="947.4297" y2="947.4297"/><text fill="#000000" font-family="sans-serif" font-size="13" font-weight="bold" lengthAdjust="spacing" textLength="14" x="519" y="942.6748">26</text><text fill="#000000" font-family="sans-serif" font-size="13" lengthAdjust="spacing" textLength="49" x="537" y="942.6748">Update()</text><polygon fill="#181818" points="935,971.9531,945,975.9531,935,979.9531,939,975.9531" style="stroke:#181818;stroke-width:1.0;"/><line style="stroke:#181818;stroke-width:1.0;" x1="713" x2="941" y1="975.9531" y2="975.9531"/><text fill="#000000" font-family="sans-serif" font-size="13" font-weight="bold" lengthAdjust="spacing" textLength="14" x="720" y="971.1982">27</text><text fill="#000000" font-family="sans-serif" font-size="13" lengthAdjust="spacing" textLength="197" x="738" y="971.1982">UpdateWarehouse(warehouseDto)</text><polygon fill="#181818" points="1583.5,1000.4766,1593.5,1004.4766,1583.5,1008.4766,1587.5,1004.4766" style="stroke:#181818;stroke-width:1.0;"/><line style="stroke:#181818;stroke-width:1.0;" x1="957" x2="1589.5" y1="1004.4766" y2="1004.4766"/><text fill="#000000" font-family="sans-serif" font-size="13" font-weight="bold" lengthAdjust="spacing" textLength="14" x="964" y="999.7217">28</text><text fill="#000000" font-family="sans-serif" font-size="13" lengthAdjust="spacing" textLength="151" x="982" y="999.7217">GetById(warehouseDto.Id)</text><polygon fill="#181818" points="968,1029,958,1033,968,1037,964,1033" style="stroke:#181818;stroke-width:1.0;"/><line style="stroke:#181818;stroke-width:1.0;stroke-dasharray:2.0,2.0;" x1="962" x2="1599.5" y1="1033" y2="1033"/><text fill="#000000" font-family="sans-serif" font-size="13" font-weight="bold" lengthAdjust="spacing" textLength="14" x="974" y="1028.2451">29</text><text fill="#000000" font-family="sans-serif" font-size="13" lengthAdjust="spacing" textLength="62" x="992" y="1028.2451">warehouse</text><polygon fill="#181818" points="1182,1057.5234,1192,1061.5234,1182,1065.5234,1186,1061.5234" style="stroke:#181818;stroke-width:1.0;"/><line style="stroke:#181818;stroke-width:1.0;" x1="957" x2="1188" y1="1061.5234" y2="1061.5234"/><text fill="#000000" font-family="sans-serif" font-size="13" font-weight="bold" lengthAdjust="spacing" textLength="14" x="964" y="1056.7686">30</text><text fill="#000000" font-family="sans-serif" font-size="13" lengthAdjust="spacing" textLength="131" x="982" y="1056.7686">Update(warehouseDto)</text><polygon fill="#181818" points="968,1086.0469,958,1090.0469,968,1094.0469,964,1090.0469" style="stroke:#181818;stroke-width:1.0;"/><line style="stroke:#181818;stroke-width:1.0;stroke-dasharray:2.0,2.0;" x1="962" x2="1198" y1="1090.0469" y2="1090.0469"/><text fill="#000000" font-family="sans-serif" font-size="13" font-weight="bold" lengthAdjust="spacing" textLength="14" x="974" y="1085.292">31</text><text fill="#000000" font-family="sans-serif" font-size="13" lengthAdjust="spacing" textLength="195" x="992" y="1085.292">BusinessRuleValidationException</text><polygon fill="#181818" points="724,1114.5703,714,1118.5703,724,1122.5703,720,1118.5703" style="stroke:#181818;stroke-width:1.0;"/><line style="stroke:#181818;stroke-width:1.0;stroke-dasharray:2.0,2.0;" x1="718" x2="951" y1="1118.5703" y2="1118.5703"/><text fill="#000000" font-family="sans-serif" font-size="13" font-weight="bold" lengthAdjust="spacing" textLength="14" x="730" y="1113.8154">32</text><text fill="#000000" font-family="sans-serif" font-size="13" lengthAdjust="spacing" textLength="149" x="748" y="1113.8154">InvalidOperationException</text><polygon fill="#181818" points="523,1143.0938,513,1147.0938,523,1151.0938,519,1147.0938" style="stroke:#181818;stroke-width:1.0;"/><line style="stroke:#181818;stroke-width:1.0;stroke-dasharray:2.0,2.0;" x1="517" x2="707" y1="1147.0938" y2="1147.0938"/><text fill="#000000" font-family="sans-serif" font-size="13" font-weight="bold" lengthAdjust="spacing" textLength="14" x="529" y="1142.3389">33</text><text fill="#000000" font-family="sans-serif" font-size="13" lengthAdjust="spacing" textLength="149" x="547" y="1142.3389">InvalidOperationException</text><polygon fill="#181818" points="387.5,1171.6172,377.5,1175.6172,387.5,1179.6172,383.5,1175.6172" style="stroke:#181818;stroke-width:1.0;"/><line style="stroke:#181818;stroke-width:1.0;stroke-dasharray:2.0,2.0;" x1="381.5" x2="506" y1="1175.6172" y2="1175.6172"/><text fill="#000000" font-family="sans-serif" font-size="13" font-weight="bold" lengthAdjust="spacing" textLength="14" x="393.5" y="1170.8623">34</text><text fill="#000000" font-family="sans-serif" font-size="13" lengthAdjust="spacing" textLength="87" x="411.5" y="1170.8623">409 CONFLICT</text><polygon fill="#181818" points="100.5,1200.1406,90.5,1204.1406,100.5,1208.1406,96.5,1204.1406" style="stroke:#181818;stroke-width:1.0;"/><line style="stroke:#181818;stroke-width:1.0;stroke-dasharray:2.0,2.0;" x1="94.5" x2="370.5" y1="1204.1406" y2="1204.1406"/><text fill="#000000" font-family="sans-serif" font-size="13" font-weight="bold" lengthAdjust="spacing" textLength="14" x="106.5" y="1199.3857">35</text><text fill="#000000" font-family="sans-serif" font-size="13" lengthAdjust="spacing" textLength="139" x="124.5" y="1199.3857">display a message error</text><!--MD5=[94c774fc82d004730e029f1d727de9ba]
@startuml 
autonumber

skinparam sequence {
ParticipantBorderColor black
ParticipantBackgroundColor white
}

actor "Warehouse Manager" as admin
box "<<System(C4)>>\n       EletricGo" #LightYellow
participant SPA as ui <<Container(C4)>>
box "<<Container(C4)>>\n    Warehouse Management" #LightGreen
participant WarehouseRoute as  WM <<Component(C4)>>
participant WarehouseController as  CTL <<Component(C4)>>
participant WarehouseService as  SV <<Component(C4)>>
participant "warehouse : Warehouse" as  W <<Component(C4)>>
participant "warehouseDto : WarehouseDTO" as  DTO <<Component(C4)>>
participant WarehouseRepository as  WR <<Component(C4)>>
end box

end box

admin -> ui: I want to update the details of a warehouse
activate ui

ui - -> admin: asks for the ID of the warehouse
deactivate ui

admin -> ui: inserts the ID of the warehouse
activate ui

ui - -> admin: asks for the information to update
deactivate ui

admin -> ui: inserts the information to update
activate ui

ui -> WM : PUT Update()
activate WM
alt If the Id entered matches the Id of a warehouse\n  in the system and the business rules for the\n  new attributes are respected

WM -> CTL : Update()
activate CTL
CTL -> SV : UpdateWarehouse(warehouseDto)
activate SV

SV -> WR : GetById(warehouseDto.Id)
activate WR

WR - -> SV : warehouse 
deactivate WR

SV -> W : Update(warehouseDto)
activate W

deactivate W

SV -> W : toWarehouseDto()
activate W

W - -> SV : warehouseDto
deactivate W 
SV - -> CTL : warehouseDto
deactivate SV

CTL - -> WM : warehouseDto
deactivate CTL 

WM - -> ui : 200 OK 
deactivate WM

ui - -> admin: displays the updated information and \ninforms about the operation success
deactivate ui

else If the Id entered does not match the Id of a warehouse in the system

WM -> CTL : Update()
activate WM
activate CTL
CTL -> SV : UpdateWarehouse(warehouseDto)
activate SV

SV -> WR : GetById(warehouseDto.Id)
activate WR

WR - -> SV : null 
deactivate WR


SV - -> CTL : null
deactivate SV

CTL - -> WM : null
deactivate CTL 


WM - -> ui : 409 CONFLICT
deactivate WM

activate ui
ui - -> admin : display a message error
deactivate ui

else  If the business rules for the new attributes are not respected

WM -> CTL : Update()
activate WM
activate CTL
CTL -> SV : UpdateWarehouse(warehouseDto)
activate SV

SV -> WR : GetById(warehouseDto.Id)
activate WR

WR - -> SV : warehouse 
deactivate WR

SV -> W : Update(warehouseDto)
activate W

W - -> SV : BusinessRuleValidationException
deactivate W 
SV - -> CTL : InvalidOperationException
deactivate SV

CTL - -> WM : InvalidOperationException
deactivate CTL 

WM - -> ui : 409 CONFLICT
deactivate WM

activate ui
ui - -> admin : display a message error
deactivate ui
end 


deactivate ui
deactivate admin

@enduml

PlantUML version 1.2022.12(Sun Oct 23 19:12:26 WEST 2022)
(GPL source distribution)
Java Runtime: OpenJDK Runtime Environment
JVM: OpenJDK 64-Bit Server VM
Default Encoding: Cp1252
Language: pt
Country: BR
--></g></svg>