<?xml version="1.0" encoding="UTF-8" standalone="no"?><svg xmlns="http://www.w3.org/2000/svg" xmlns:xlink="http://www.w3.org/1999/xlink" contentStyleType="text/css" height="580px" preserveAspectRatio="none" style="width:627px;height:580px;background:#FFFFFF;" version="1.1" viewBox="0 0 627 580" width="627px" zoomAndPan="magnify"><defs/><g><rect fill="#DDDDDD" height="568.9844" style="stroke:#181818;stroke-width:0.5;" width="307" x="307.5" y="6"/><text fill="#000000" font-family="sans-serif" font-size="13" font-weight="bold" lengthAdjust="spacing" textLength="114" x="404" y="17.7686">&lt;&lt;EletricGo(C4)&gt;&gt;</text><text fill="#000000" font-family="sans-serif" font-size="13" font-weight="bold" lengthAdjust="spacing" textLength="46" x="432" y="32.292">System</text><rect fill="#FFFFFF" height="28.5234" style="stroke:#181818;stroke-width:1.0;" width="10" x="366.5" y="115.8516"/><rect fill="#FFFFFF" height="28.5234" style="stroke:#181818;stroke-width:1.0;" width="10" x="366.5" y="172.8984"/><rect fill="#FFFFFF" height="145.4844" style="stroke:#181818;stroke-width:1.0;" width="10" x="366.5" y="229.9453"/><rect fill="#FFFFFF" height="28.5234" style="stroke:#181818;stroke-width:1.0;" width="10" x="366.5" y="442.8203"/><rect fill="#FFFFFF" height="73.9141" style="stroke:#181818;stroke-width:1.0;" width="10" x="521" y="258.4688"/><rect fill="#FFFFFF" height="67.3906" style="stroke:#181818;stroke-width:1.0;" width="10" x="521" y="375.4297"/><rect fill="none" height="205.875" style="stroke:#000000;stroke-width:1.5;" width="610.5" x="10" y="273.4688"/><line style="stroke:#181818;stroke-width:0.5;stroke-dasharray:5.0,5.0;" x1="89" x2="89" y1="85.3281" y2="496.3438"/><line style="stroke:#181818;stroke-width:0.5;stroke-dasharray:5.0,5.0;" x1="371.5" x2="371.5" y1="85.3281" y2="496.3438"/><line style="stroke:#181818;stroke-width:0.5;stroke-dasharray:5.0,5.0;" x1="525.5" x2="525.5" y1="85.3281" y2="496.3438"/><text fill="#000000" font-family="sans-serif" font-size="14" lengthAdjust="spacing" textLength="133" x="20" y="82.3613">Warehouse Manager</text><ellipse cx="89.5" cy="18.1875" fill="#E2E2F0" rx="8" ry="8" style="stroke:#181818;stroke-width:0.5;"/><path d="M89.5,26.1875 L89.5,53.1875 M76.5,34.1875 L102.5,34.1875 M89.5,53.1875 L76.5,68.1875 M89.5,53.1875 L102.5,68.1875 " fill="none" style="stroke:#181818;stroke-width:0.5;"/><text fill="#000000" font-family="sans-serif" font-size="14" lengthAdjust="spacing" textLength="133" x="20" y="508.0176">Warehouse Manager</text><ellipse cx="89.5" cy="519.4844" fill="#E2E2F0" rx="8" ry="8" style="stroke:#181818;stroke-width:0.5;"/><path d="M89.5,527.4844 L89.5,554.4844 M76.5,535.4844 L102.5,535.4844 M89.5,554.4844 L76.5,569.4844 M89.5,554.4844 L102.5,569.4844 " fill="none" style="stroke:#181818;stroke-width:0.5;"/><rect fill="#E2E2F0" height="45.2813" rx="2.5" ry="2.5" style="stroke:#181818;stroke-width:0.5;" width="120" x="311.5" y="39.0469"/><text fill="#000000" font-family="sans-serif" font-size="14" font-style="italic" lengthAdjust="spacing" textLength="106" x="318.5" y="58.7207">«Container(C4)»</text><text fill="#000000" font-family="sans-serif" font-size="14" lengthAdjust="spacing" textLength="27" x="358" y="74.3613">SPA</text><rect fill="#E2E2F0" height="45.2813" rx="2.5" ry="2.5" style="stroke:#181818;stroke-width:0.5;" width="120" x="311.5" y="495.3438"/><text fill="#000000" font-family="sans-serif" font-size="14" font-style="italic" lengthAdjust="spacing" textLength="106" x="318.5" y="515.0176">«Container(C4)»</text><text fill="#000000" font-family="sans-serif" font-size="14" lengthAdjust="spacing" textLength="27" x="358" y="530.6582">SPA</text><rect fill="#E2E2F0" height="45.2813" rx="2.5" ry="2.5" style="stroke:#181818;stroke-width:0.5;" width="169" x="441.5" y="39.0469"/><text fill="#000000" font-family="sans-serif" font-size="14" font-style="italic" lengthAdjust="spacing" textLength="106" x="473" y="58.7207">«Container(C4)»</text><text fill="#000000" font-family="sans-serif" font-size="14" lengthAdjust="spacing" textLength="155" x="448.5" y="74.3613">WarehouseManagement</text><rect fill="#E2E2F0" height="45.2813" rx="2.5" ry="2.5" style="stroke:#181818;stroke-width:0.5;" width="169" x="441.5" y="495.3438"/><text fill="#000000" font-family="sans-serif" font-size="14" font-style="italic" lengthAdjust="spacing" textLength="106" x="473" y="515.0176">«Container(C4)»</text><text fill="#000000" font-family="sans-serif" font-size="14" lengthAdjust="spacing" textLength="155" x="448.5" y="530.6582">WarehouseManagement</text><rect fill="#FFFFFF" height="28.5234" style="stroke:#181818;stroke-width:1.0;" width="10" x="366.5" y="115.8516"/><rect fill="#FFFFFF" height="28.5234" style="stroke:#181818;stroke-width:1.0;" width="10" x="366.5" y="172.8984"/><rect fill="#FFFFFF" height="145.4844" style="stroke:#181818;stroke-width:1.0;" width="10" x="366.5" y="229.9453"/><rect fill="#FFFFFF" height="28.5234" style="stroke:#181818;stroke-width:1.0;" width="10" x="366.5" y="442.8203"/><rect fill="#FFFFFF" height="73.9141" style="stroke:#181818;stroke-width:1.0;" width="10" x="521" y="258.4688"/><rect fill="#FFFFFF" height="67.3906" style="stroke:#181818;stroke-width:1.0;" width="10" x="521" y="375.4297"/><polygon fill="#181818" points="354.5,111.8516,364.5,115.8516,354.5,119.8516,358.5,115.8516" style="stroke:#181818;stroke-width:1.0;"/><line style="stroke:#181818;stroke-width:1.0;" x1="89.5" x2="360.5" y1="115.8516" y2="115.8516"/><text fill="#000000" font-family="sans-serif" font-size="13" font-weight="bold" lengthAdjust="spacing" textLength="7" x="96.5" y="111.0967">1</text><text fill="#000000" font-family="sans-serif" font-size="13" lengthAdjust="spacing" textLength="247" x="107.5" y="111.0967">I want to update the details of a warehouse</text><polygon fill="#181818" points="100.5,140.375,90.5,144.375,100.5,148.375,96.5,144.375" style="stroke:#181818;stroke-width:1.0;"/><line style="stroke:#181818;stroke-width:1.0;stroke-dasharray:2.0,2.0;" x1="94.5" x2="370.5" y1="144.375" y2="144.375"/><text fill="#000000" font-family="sans-serif" font-size="13" font-weight="bold" lengthAdjust="spacing" textLength="7" x="106.5" y="139.6201">2</text><text fill="#000000" font-family="sans-serif" font-size="13" lengthAdjust="spacing" textLength="186" x="117.5" y="139.6201">asks for the ID of the warehouse</text><polygon fill="#181818" points="354.5,168.8984,364.5,172.8984,354.5,176.8984,358.5,172.8984" style="stroke:#181818;stroke-width:1.0;"/><line style="stroke:#181818;stroke-width:1.0;" x1="89.5" x2="360.5" y1="172.8984" y2="172.8984"/><text fill="#000000" font-family="sans-serif" font-size="13" font-weight="bold" lengthAdjust="spacing" textLength="7" x="96.5" y="168.1436">3</text><text fill="#000000" font-family="sans-serif" font-size="13" lengthAdjust="spacing" textLength="179" x="107.5" y="168.1436">inserts the ID of the warehouse</text><polygon fill="#181818" points="100.5,197.4219,90.5,201.4219,100.5,205.4219,96.5,201.4219" style="stroke:#181818;stroke-width:1.0;"/><line style="stroke:#181818;stroke-width:1.0;stroke-dasharray:2.0,2.0;" x1="94.5" x2="370.5" y1="201.4219" y2="201.4219"/><text fill="#000000" font-family="sans-serif" font-size="13" font-weight="bold" lengthAdjust="spacing" textLength="7" x="106.5" y="196.667">4</text><text fill="#000000" font-family="sans-serif" font-size="13" lengthAdjust="spacing" textLength="193" x="117.5" y="196.667">asks for the information to update</text><polygon fill="#181818" points="354.5,225.9453,364.5,229.9453,354.5,233.9453,358.5,229.9453" style="stroke:#181818;stroke-width:1.0;"/><line style="stroke:#181818;stroke-width:1.0;" x1="89.5" x2="360.5" y1="229.9453" y2="229.9453"/><text fill="#000000" font-family="sans-serif" font-size="13" font-weight="bold" lengthAdjust="spacing" textLength="7" x="96.5" y="225.1904">5</text><text fill="#000000" font-family="sans-serif" font-size="13" lengthAdjust="spacing" textLength="186" x="107.5" y="225.1904">inserts the information to update</text><polygon fill="#181818" points="509,254.4688,519,258.4688,509,262.4688,513,258.4688" style="stroke:#181818;stroke-width:1.0;"/><line style="stroke:#181818;stroke-width:1.0;" x1="376.5" x2="515" y1="258.4688" y2="258.4688"/><text fill="#000000" font-family="sans-serif" font-size="13" font-weight="bold" lengthAdjust="spacing" textLength="7" x="383.5" y="253.7139">6</text><text fill="#000000" font-family="sans-serif" font-size="13" lengthAdjust="spacing" textLength="49" x="394.5" y="253.7139">Update()</text><path d="M10,273.4688 L71,273.4688 L71,279.9922 L61,289.9922 L10,289.9922 L10,273.4688 " fill="#EEEEEE" style="stroke:#000000;stroke-width:1.5;"/><rect fill="none" height="205.875" style="stroke:#000000;stroke-width:1.5;" width="610.5" x="10" y="273.4688"/><text fill="#000000" font-family="sans-serif" font-size="13" font-weight="bold" lengthAdjust="spacing" textLength="16" x="25" y="286.2373">alt</text><text fill="#000000" font-family="sans-serif" font-size="11" font-weight="bold" lengthAdjust="spacing" textLength="266" x="86" y="285.4268">[If the Id entered matches the Id of a warehouse</text><text fill="#000000" font-family="sans-serif" font-size="11" font-weight="bold" lengthAdjust="spacing" textLength="247" x="92" y="297.7158">in the system and the business rules for the</text><text fill="#000000" font-family="sans-serif" font-size="11" font-weight="bold" lengthAdjust="spacing" textLength="166" x="92" y="310.0049">new attributes are respected]</text><polygon fill="#181818" points="387.5,328.3828,377.5,332.3828,387.5,336.3828,383.5,332.3828" style="stroke:#181818;stroke-width:1.0;"/><line style="stroke:#181818;stroke-width:1.0;stroke-dasharray:2.0,2.0;" x1="381.5" x2="525" y1="332.3828" y2="332.3828"/><text fill="#000000" font-family="sans-serif" font-size="13" font-weight="bold" lengthAdjust="spacing" textLength="7" x="393.5" y="327.6279">7</text><text fill="#000000" font-family="sans-serif" font-size="13" lengthAdjust="spacing" textLength="44" x="404.5" y="327.6279">200 OK</text><polygon fill="#181818" points="100.5,371.4297,90.5,375.4297,100.5,379.4297,96.5,375.4297" style="stroke:#181818;stroke-width:1.0;"/><line style="stroke:#181818;stroke-width:1.0;stroke-dasharray:2.0,2.0;" x1="94.5" x2="370.5" y1="375.4297" y2="375.4297"/><text fill="#000000" font-family="sans-serif" font-size="13" font-weight="bold" lengthAdjust="spacing" textLength="7" x="106.5" y="363.4131">8</text><text fill="#000000" font-family="sans-serif" font-size="13" lengthAdjust="spacing" textLength="212" x="117.5" y="356.1514">displays the updated information and</text><text fill="#000000" font-family="sans-serif" font-size="13" lengthAdjust="spacing" textLength="210" x="117.5" y="370.6748">informs about the operation success</text><line style="stroke:#000000;stroke-width:1.0;stroke-dasharray:2.0,2.0;" x1="10" x2="620.5" y1="384.4297" y2="384.4297"/><text fill="#000000" font-family="sans-serif" font-size="11" font-weight="bold" lengthAdjust="spacing" textLength="338" x="15" y="394.3877">[If the Id entered does not match the Id of a warehouse in the</text><text fill="#000000" font-family="sans-serif" font-size="11" font-weight="bold" lengthAdjust="spacing" textLength="331" x="18" y="406.6768">system or the business rules for the new attributes are not</text><text fill="#000000" font-family="sans-serif" font-size="11" font-weight="bold" lengthAdjust="spacing" textLength="61" x="18" y="418.9658">respected]</text><polygon fill="#181818" points="387.5,438.8203,377.5,442.8203,387.5,446.8203,383.5,442.8203" style="stroke:#181818;stroke-width:1.0;"/><line style="stroke:#181818;stroke-width:1.0;stroke-dasharray:2.0,2.0;" x1="381.5" x2="525" y1="442.8203" y2="442.8203"/><text fill="#000000" font-family="sans-serif" font-size="13" font-weight="bold" lengthAdjust="spacing" textLength="7" x="393.5" y="438.0654">9</text><text fill="#000000" font-family="sans-serif" font-size="13" lengthAdjust="spacing" textLength="87" x="404.5" y="438.0654">409 CONFLICT</text><polygon fill="#181818" points="100.5,467.3438,90.5,471.3438,100.5,475.3438,96.5,471.3438" style="stroke:#181818;stroke-width:1.0;"/><line style="stroke:#181818;stroke-width:1.0;stroke-dasharray:2.0,2.0;" x1="94.5" x2="370.5" y1="471.3438" y2="471.3438"/><text fill="#000000" font-family="sans-serif" font-size="13" font-weight="bold" lengthAdjust="spacing" textLength="14" x="106.5" y="466.5889">10</text><text fill="#000000" font-family="sans-serif" font-size="13" lengthAdjust="spacing" textLength="139" x="124.5" y="466.5889">display a message error</text><!--MD5=[26811472b57c396ebba4c98d4a0325ab]
@startuml 
autonumber

actor "Warehouse Manager" as admin
box "<<EletricGo(C4)>>\n       System"
participant SPA as system <<Container(C4)>>
participant WarehouseManagement as  WM <<Container(C4)>>
end box

admin -> system: I want to update the details of a warehouse
activate system

system - -> admin: asks for the ID of the warehouse
deactivate system

admin -> system: inserts the ID of the warehouse
activate system

system - -> admin: asks for the information to update
deactivate system

admin -> system: inserts the information to update
activate system

system -> WM : Update()
activate WM
alt If the Id entered matches the Id of a warehouse\n  in the system and the business rules for the\n  new attributes are respected


WM - -> system : 200 OK 
deactivate WM

system - -> admin: displays the updated information and \ninforms about the operation success
deactivate system

else If the Id entered does not match the Id of a warehouse in the\n system or the business rules for the new attributes are not\n respected

activate WM
WM - -> system : 409 CONFLICT
deactivate WM

activate system
system - -> admin : display a message error
deactivate system
end 


deactivate system
deactivate admin

@enduml

PlantUML version 1.2022.12(Sun Oct 23 19:12:26 WEST 2022)
(GPL source distribution)
Java Runtime: OpenJDK Runtime Environment
JVM: OpenJDK 64-Bit Server VM
Default Encoding: Cp1252
Language: pt
Country: BR
--></g></svg>