<?xml version="1.0" encoding="UTF-8" standalone="no"?><svg xmlns="http://www.w3.org/2000/svg" xmlns:xlink="http://www.w3.org/1999/xlink" contentStyleType="text/css" height="190px" preserveAspectRatio="none" style="width:642px;height:190px;background:#FFFFFF;" version="1.1" viewBox="0 0 642 190" width="642px" zoomAndPan="magnify"><defs/><g><!--MD5=[97ab183161fd5d1db7fba7485cf76add]
entity Admin--><g id="elem_Admin"><ellipse cx="359.5" cy="22" fill="#F1F1F1" rx="16" ry="16" style="stroke:#181818;stroke-width:1.5;"/><path d="M359.5,42 C363.5,42 366.5,42 370.5,38 C378.5,38 386.5,46 386.5,54 L386.5,58 C386.5,62 382.5,66 378.5,66 L340.5,66 C336.5,66 332.5,62 332.5,58 L332.5,54 C332.5,46 340.5,38 348.5,38 C352.5,42 355.5,42 359.5,42 " fill="#F1F1F1" style="stroke:#181818;stroke-width:1.5;"/><text fill="#000000" font-family="sans-serif" font-size="14" lengthAdjust="spacing" textLength="133" x="293" y="82.0332">Warehouse Manager</text></g><g id="elem_US1"><ellipse cx="79.7427" cy="165.1485" fill="#F1F1F1" rx="73.7427" ry="17.1485" style="stroke:#181818;stroke-width:0.5;"/><text fill="#000000" font-family="sans-serif" font-size="14" lengthAdjust="spacing" textLength="98" x="27.7427" y="169.6651">Create Delivery</text></g><g id="elem_US2"><ellipse cx="262.481" cy="164.7962" fill="#F1F1F1" rx="74.481" ry="17.2962" style="stroke:#181818;stroke-width:0.5;"/><text fill="#000000" font-family="sans-serif" font-size="14" lengthAdjust="spacing" textLength="100" x="209.481" y="169.3128">Update Delivery</text></g><g id="elem_US4"><ellipse cx="456.4267" cy="164.7853" fill="#F1F1F1" rx="84.4267" ry="19.2853" style="stroke:#181818;stroke-width:0.5;"/><text fill="#000000" font-family="sans-serif" font-size="14" lengthAdjust="spacing" textLength="125" x="393.9267" y="168.5139">Delete Warehouses</text></g><g id="elem_US3"><ellipse cx="606.3701" cy="164.9517" fill="#F1F1F1" rx="29.8701" ry="15.4517" style="stroke:#181818;stroke-width:0.5;"/><text fill="#000000" font-family="sans-serif" font-size="14" lengthAdjust="spacing" textLength="26" x="593.3701" y="168.6802">US3</text></g><!--MD5=[010bdba11f7026484c94878b456da6d9]
link Admin to US1--><g id="link_Admin_US1"><path d="M292.79,74.11 C238.17,97.13 162.81,128.89 117.84,147.84 " fill="none" id="Admin-to-US1" style="stroke:#181818;stroke-width:1.0;"/><polygon fill="#181818" points="113.04,149.86,122.8872,150.0431,117.646,147.9146,119.7745,142.6735,113.04,149.86" style="stroke:#181818;stroke-width:1.0;"/></g><!--MD5=[0216801507526561d239633d456b6b8c]
link Admin to US2--><g id="link_Admin_US2"><path d="M326.93,85.62 C310.9,105.12 292.25,127.81 279.16,143.74 " fill="none" id="Admin-to-US2" style="stroke:#181818;stroke-width:1.0;"/><polygon fill="#181818" points="275.95,147.64,284.7574,143.232,279.127,143.7791,278.58,138.1488,275.95,147.64" style="stroke:#181818;stroke-width:1.0;"/></g><!--MD5=[f1a67b75961a2c853b26dd5edbc417b0]
link Admin to US3--><g id="link_Admin_US3"><path d="M426.02,77.78 C476.89,102.08 544.28,134.27 580.62,151.63 " fill="none" id="Admin-to-US3" style="stroke:#181818;stroke-width:1.0;"/><polygon fill="#181818" points="585.32,153.88,578.9333,146.3826,580.8113,151.7187,575.4752,153.5966,585.32,153.88" style="stroke:#181818;stroke-width:1.0;"/></g><!--MD5=[2123d53f313ff7a4c1ca99c336ca3893]
link Admin to US4--><g id="link_Admin_US4"><path d="M392.07,85.62 C407.49,104.38 425.34,126.09 438.33,141.9 " fill="none" id="Admin-to-US4" style="stroke:#181818;stroke-width:1.0;"/><polygon fill="#181818" points="441.52,145.78,438.8938,136.2877,438.3445,141.9179,432.7143,141.3686,441.52,145.78" style="stroke:#181818;stroke-width:1.0;"/></g><!--MD5=[42a0e51e3ddbb6d352619300fbdae4ef]
@startuml scenarioView

skinparam actorStyle awesome
"Warehouse Manager" as Admin

"Create Delivery" as (US1)
"Read Delivery" as (US2)
"Update Delivery" as (US2)
"Delete Warehouses" as (US4)

Admin - -> (US1)
Admin - -> (US2)
Admin - -> (US3)
Admin - -> (US4)

@enduml

PlantUML version 1.2022.7(Mon Aug 22 18:01:30 BST 2022)
(GPL source distribution)
Java Runtime: Java(TM) SE Runtime Environment
JVM: Java HotSpot(TM) Client VM
Default Encoding: Cp1252
Language: pt
Country: PT
--></g></svg>