<?xml version="1.0" encoding="UTF-8" standalone="no"?><svg xmlns="http://www.w3.org/2000/svg" xmlns:xlink="http://www.w3.org/1999/xlink" contentStyleType="text/css" height="323px" preserveAspectRatio="none" style="width:365px;height:323px;background:#FFFFFF;" version="1.1" viewBox="0 0 365 323" width="365px" zoomAndPan="magnify"><defs/><g><rect fill="#FFFFFF" height="101.8906" style="stroke:#181818;stroke-width:1.0;" width="10" x="291.5" y="114.9609"/><rect fill="none" height="94.8906" style="stroke:#000000;stroke-width:1.5;" width="348.5" x="10" y="129.9609"/><line style="stroke:#181818;stroke-width:0.5;stroke-dasharray:5.0,5.0;" x1="80" x2="80" y1="82.6094" y2="241.8516"/><line style="stroke:#181818;stroke-width:0.5;stroke-dasharray:5.0,5.0;" x1="296.5" x2="296.5" y1="82.6094" y2="241.8516"/><text fill="#000000" font-family="sans-serif" font-size="14" lengthAdjust="spacing" textLength="115" x="20" y="79.5332">Logistics Manager</text><ellipse cx="80.5" cy="13.5" fill="#E2E2F0" rx="8" ry="8" style="stroke:#181818;stroke-width:0.5;"/><path d="M80.5,21.5 L80.5,48.5 M67.5,29.5 L93.5,29.5 M80.5,48.5 L67.5,63.5 M80.5,48.5 L93.5,63.5 " fill="none" style="stroke:#181818;stroke-width:0.5;"/><text fill="#000000" font-family="sans-serif" font-size="14" lengthAdjust="spacing" textLength="115" x="20" y="255.3848">Logistics Manager</text><ellipse cx="80.5" cy="266.9609" fill="#E2E2F0" rx="8" ry="8" style="stroke:#181818;stroke-width:0.5;"/><path d="M80.5,274.9609 L80.5,301.9609 M67.5,282.9609 L93.5,282.9609 M80.5,301.9609 L67.5,316.9609 M80.5,301.9609 L93.5,316.9609 " fill="none" style="stroke:#181818;stroke-width:0.5;"/><rect fill="#FFFFFF" height="49.2188" rx="2.5" ry="2.5" style="stroke:#000000;stroke-width:0.5;" width="104" x="244.5" y="32.3906"/><text fill="#000000" font-family="sans-serif" font-size="14" font-style="italic" lengthAdjust="spacing" textLength="90" x="251.5" y="53.9238">«System(C4)»</text><text fill="#000000" font-family="sans-serif" font-size="14" lengthAdjust="spacing" textLength="46" x="273.5" y="71.5332">System</text><rect fill="#FFFFFF" height="49.2188" rx="2.5" ry="2.5" style="stroke:#000000;stroke-width:0.5;" width="104" x="244.5" y="240.8516"/><text fill="#000000" font-family="sans-serif" font-size="14" font-style="italic" lengthAdjust="spacing" textLength="90" x="251.5" y="262.3848">«System(C4)»</text><text fill="#000000" font-family="sans-serif" font-size="14" lengthAdjust="spacing" textLength="46" x="273.5" y="279.9941">System</text><rect fill="#FFFFFF" height="101.8906" style="stroke:#181818;stroke-width:1.0;" width="10" x="291.5" y="114.9609"/><polygon fill="#181818" points="279.5,110.9609,289.5,114.9609,279.5,118.9609,283.5,114.9609" style="stroke:#181818;stroke-width:1.0;"/><line style="stroke:#181818;stroke-width:1.0;" x1="80.5" x2="285.5" y1="114.9609" y2="114.9609"/><text fill="#000000" font-family="sans-serif" font-size="13" font-weight="bold" lengthAdjust="spacing" textLength="7" x="87.5" y="110.1045">1</text><text fill="#000000" font-family="sans-serif" font-size="13" lengthAdjust="spacing" textLength="124" x="98.5" y="110.1045">I want to get all paths</text><path d="M10,129.9609 L71,129.9609 L71,138.3125 L61,148.3125 L10,148.3125 L10,129.9609 " fill="#EEEEEE" style="stroke:#000000;stroke-width:1.5;"/><rect fill="none" height="94.8906" style="stroke:#000000;stroke-width:1.5;" width="348.5" x="10" y="129.9609"/><text fill="#000000" font-family="sans-serif" font-size="13" font-weight="bold" lengthAdjust="spacing" textLength="16" x="25" y="144.4561">alt</text><text fill="#000000" font-family="sans-serif" font-size="11" font-weight="bold" lengthAdjust="spacing" textLength="69" x="86" y="143.3799">[paths exist]</text><polygon fill="#181818" points="91.5,166.6641,81.5,170.6641,91.5,174.6641,87.5,170.6641" style="stroke:#181818;stroke-width:1.0;"/><line style="stroke:#181818;stroke-width:1.0;stroke-dasharray:2.0,2.0;" x1="85.5" x2="290.5" y1="170.6641" y2="170.6641"/><text fill="#000000" font-family="sans-serif" font-size="13" font-weight="bold" lengthAdjust="spacing" textLength="7" x="97.5" y="165.8076">2</text><text fill="#000000" font-family="sans-serif" font-size="13" lengthAdjust="spacing" textLength="176" x="108.5" y="165.8076">shows information about paths</text><line style="stroke:#000000;stroke-width:1.0;stroke-dasharray:2.0,2.0;" x1="10" x2="358.5" y1="179.6641" y2="179.6641"/><text fill="#000000" font-family="sans-serif" font-size="11" font-weight="bold" lengthAdjust="spacing" textLength="100" x="15" y="191.083">[paths don't exist]</text><polygon fill="#181818" points="91.5,212.8516,81.5,216.8516,91.5,220.8516,87.5,216.8516" style="stroke:#181818;stroke-width:1.0;"/><line style="stroke:#181818;stroke-width:1.0;stroke-dasharray:2.0,2.0;" x1="85.5" x2="295.5" y1="216.8516" y2="216.8516"/><text fill="#000000" font-family="sans-serif" font-size="13" font-weight="bold" lengthAdjust="spacing" textLength="7" x="97.5" y="211.9951">3</text><text fill="#000000" font-family="sans-serif" font-size="13" lengthAdjust="spacing" textLength="141" x="108.5" y="211.9951">informs paths don't exist</text><!--MD5=[6b9d68648b067a2e5bbdd5c17c3944c0]
@startuml getAllPathSSD
autonumber

skinparam sequence {
ParticipantBorderColor black
ParticipantBackgroundColor white
}

actor "Logistics Manager" as manager
participant System as system <<System(C4)>>


manager -> system: I want to get all paths
activate system

alt paths exist

system - -> manager: shows information about paths

else paths don't exist

system - -> manager: informs paths don't exist
deactivate system

end

deactivate manager

@enduml

PlantUML version 1.2022.7(Mon Aug 22 18:01:30 BST 2022)
(GPL source distribution)
Java Runtime: Java(TM) SE Runtime Environment
JVM: Java HotSpot(TM) Client VM
Default Encoding: Cp1252
Language: pt
Country: PT
--></g></svg>