<?xml version="1.0" encoding="UTF-8" standalone="no"?><svg xmlns="http://www.w3.org/2000/svg" xmlns:xlink="http://www.w3.org/1999/xlink" contentStyleType="text/css" height="384px" preserveAspectRatio="none" style="width:436px;height:384px;background:#FFFFFF;" version="1.1" viewBox="0 0 436 384" width="436px" zoomAndPan="magnify"><defs/><g><rect fill="#FFFFFF" height="30.3516" style="stroke:#181818;stroke-width:1.0;" width="10" x="362.5" y="114.9609"/><rect fill="#FFFFFF" height="101.8906" style="stroke:#181818;stroke-width:1.0;" width="10" x="362.5" y="175.6641"/><rect fill="none" height="94.8906" style="stroke:#000000;stroke-width:1.5;" width="419.5" x="10" y="190.6641"/><line style="stroke:#181818;stroke-width:0.5;stroke-dasharray:5.0,5.0;" x1="80" x2="80" y1="82.6094" y2="302.5547"/><line style="stroke:#181818;stroke-width:0.5;stroke-dasharray:5.0,5.0;" x1="367.5" x2="367.5" y1="82.6094" y2="302.5547"/><text fill="#000000" font-family="sans-serif" font-size="14" lengthAdjust="spacing" textLength="115" x="20" y="79.5332">Logistics Manager</text><ellipse cx="80.5" cy="13.5" fill="#E2E2F0" rx="8" ry="8" style="stroke:#181818;stroke-width:0.5;"/><path d="M80.5,21.5 L80.5,48.5 M67.5,29.5 L93.5,29.5 M80.5,48.5 L67.5,63.5 M80.5,48.5 L93.5,63.5 " fill="none" style="stroke:#181818;stroke-width:0.5;"/><text fill="#000000" font-family="sans-serif" font-size="14" lengthAdjust="spacing" textLength="115" x="20" y="316.0879">Logistics Manager</text><ellipse cx="80.5" cy="327.6641" fill="#E2E2F0" rx="8" ry="8" style="stroke:#181818;stroke-width:0.5;"/><path d="M80.5,335.6641 L80.5,362.6641 M67.5,343.6641 L93.5,343.6641 M80.5,362.6641 L67.5,377.6641 M80.5,362.6641 L93.5,377.6641 " fill="none" style="stroke:#181818;stroke-width:0.5;"/><rect fill="#FFFFFF" height="49.2188" rx="2.5" ry="2.5" style="stroke:#000000;stroke-width:0.5;" width="104" x="315.5" y="32.3906"/><text fill="#000000" font-family="sans-serif" font-size="14" font-style="italic" lengthAdjust="spacing" textLength="90" x="322.5" y="53.9238">«System(C4)»</text><text fill="#000000" font-family="sans-serif" font-size="14" lengthAdjust="spacing" textLength="46" x="344.5" y="71.5332">System</text><rect fill="#FFFFFF" height="49.2188" rx="2.5" ry="2.5" style="stroke:#000000;stroke-width:0.5;" width="104" x="315.5" y="301.5547"/><text fill="#000000" font-family="sans-serif" font-size="14" font-style="italic" lengthAdjust="spacing" textLength="90" x="322.5" y="323.0879">«System(C4)»</text><text fill="#000000" font-family="sans-serif" font-size="14" lengthAdjust="spacing" textLength="46" x="344.5" y="340.6973">System</text><rect fill="#FFFFFF" height="30.3516" style="stroke:#181818;stroke-width:1.0;" width="10" x="362.5" y="114.9609"/><rect fill="#FFFFFF" height="101.8906" style="stroke:#181818;stroke-width:1.0;" width="10" x="362.5" y="175.6641"/><polygon fill="#181818" points="350.5,110.9609,360.5,114.9609,350.5,118.9609,354.5,114.9609" style="stroke:#181818;stroke-width:1.0;"/><line style="stroke:#181818;stroke-width:1.0;" x1="80.5" x2="356.5" y1="114.9609" y2="114.9609"/><text fill="#000000" font-family="sans-serif" font-size="13" font-weight="bold" lengthAdjust="spacing" textLength="7" x="87.5" y="110.1045">1</text><text fill="#000000" font-family="sans-serif" font-size="13" lengthAdjust="spacing" textLength="132" x="98.5" y="110.1045">I want to update a path</text><polygon fill="#181818" points="91.5,141.3125,81.5,145.3125,91.5,149.3125,87.5,145.3125" style="stroke:#181818;stroke-width:1.0;"/><line style="stroke:#181818;stroke-width:1.0;stroke-dasharray:2.0,2.0;" x1="85.5" x2="366.5" y1="145.3125" y2="145.3125"/><text fill="#000000" font-family="sans-serif" font-size="13" font-weight="bold" lengthAdjust="spacing" textLength="7" x="97.5" y="140.4561">2</text><text fill="#000000" font-family="sans-serif" font-size="13" lengthAdjust="spacing" textLength="196" x="108.5" y="140.4561">asks for path ID and new path info</text><polygon fill="#181818" points="350.5,171.6641,360.5,175.6641,350.5,179.6641,354.5,175.6641" style="stroke:#181818;stroke-width:1.0;"/><line style="stroke:#181818;stroke-width:1.0;" x1="80.5" x2="356.5" y1="175.6641" y2="175.6641"/><text fill="#000000" font-family="sans-serif" font-size="13" font-weight="bold" lengthAdjust="spacing" textLength="7" x="87.5" y="170.8076">3</text><text fill="#000000" font-family="sans-serif" font-size="13" lengthAdjust="spacing" textLength="189" x="98.5" y="170.8076">inserts path ID and new path info</text><path d="M10,190.6641 L71,190.6641 L71,199.0156 L61,209.0156 L10,209.0156 L10,190.6641 " fill="#EEEEEE" style="stroke:#000000;stroke-width:1.5;"/><rect fill="none" height="94.8906" style="stroke:#000000;stroke-width:1.5;" width="419.5" x="10" y="190.6641"/><text fill="#000000" font-family="sans-serif" font-size="13" font-weight="bold" lengthAdjust="spacing" textLength="16" x="25" y="205.1592">alt</text><text fill="#000000" font-family="sans-serif" font-size="11" font-weight="bold" lengthAdjust="spacing" textLength="69" x="86" y="204.083">[path exists]</text><polygon fill="#181818" points="91.5,227.3672,81.5,231.3672,91.5,235.3672,87.5,231.3672" style="stroke:#181818;stroke-width:1.0;"/><line style="stroke:#181818;stroke-width:1.0;stroke-dasharray:2.0,2.0;" x1="85.5" x2="361.5" y1="231.3672" y2="231.3672"/><text fill="#000000" font-family="sans-serif" font-size="13" font-weight="bold" lengthAdjust="spacing" textLength="7" x="97.5" y="226.5107">4</text><text fill="#000000" font-family="sans-serif" font-size="13" lengthAdjust="spacing" textLength="247" x="108.5" y="226.5107">shows information about path with new info</text><line style="stroke:#000000;stroke-width:1.0;stroke-dasharray:2.0,2.0;" x1="10" x2="429.5" y1="240.3672" y2="240.3672"/><text fill="#000000" font-family="sans-serif" font-size="11" font-weight="bold" lengthAdjust="spacing" textLength="107" x="15" y="251.7861">[path doesn't exist]</text><polygon fill="#181818" points="91.5,273.5547,81.5,277.5547,91.5,281.5547,87.5,277.5547" style="stroke:#181818;stroke-width:1.0;"/><line style="stroke:#181818;stroke-width:1.0;stroke-dasharray:2.0,2.0;" x1="85.5" x2="366.5" y1="277.5547" y2="277.5547"/><text fill="#000000" font-family="sans-serif" font-size="13" font-weight="bold" lengthAdjust="spacing" textLength="7" x="97.5" y="272.6982">5</text><text fill="#000000" font-family="sans-serif" font-size="13" lengthAdjust="spacing" textLength="148" x="108.5" y="272.6982">informs path doesn't exist</text><!--MD5=[62b454f2c32f7da71f9f2e79da3ae155]
@startuml updatePathSSD
autonumber

skinparam sequence {
ParticipantBorderColor black
ParticipantBackgroundColor white
}

actor "Logistics Manager" as manager
participant System as system <<System(C4)>>


manager -> system: I want to update a path
activate system

system - -> manager: asks for path ID and new path info
deactivate system

manager -> system: inserts path ID and new path info
activate system

alt path exists

system - -> manager: shows information about path with new info


else path doesn't exist

system - -> manager: informs path doesn't exist
deactivate system
end

deactivate manager

@enduml

PlantUML version 1.2022.7(Mon Aug 22 18:01:30 BST 2022)
(GPL source distribution)
Java Runtime: Java(TM) SE Runtime Environment
JVM: Java HotSpot(TM) Client VM
Default Encoding: Cp1252
Language: pt
Country: PT
--></g></svg>